<?xml version="1.0" ?>
<!DOCTYPE svg PUBLIC "-//W3C//DTD SVG 1.1//EN" "http://www.w3.org/Graphics/SVG/1.1/DTD/svg11.dtd">
<svg width="445" height="311" version="1.1" xmlns="http://www.w3.org/2000/svg">
<circle cx="100.345" cy="43.8026" r="2.40261" fill="rgb(147,147,147)" />
<circle cx="128.254" cy="58.666" r="4.55602" fill="rgb(145,145,145)" />
<circle cx="105.092" cy="85.3405" r="6.59743" fill="rgb(131,131,131)" />
<circle cx="72.1873" cy="90.7657" r="6.82881" fill="rgb(151,151,151)" />
<circle cx="206.008" cy="87.9884" r="8.55269" fill="rgb(224,224,224)" />
<circle cx="232.658" cy="109.628" r="10.124" fill="rgb(137,137,137)" />
<circle cx="96.3843" cy="117.404" r="5.05012" fill="rgb(202,202,202)" />
<circle cx="321.534" cy="125.98" r="3.53841" fill="rgb(0,0,0)" />
<circle cx="129.326" cy="123.849" r="6.6579" fill="rgb(166,166,166)" />
<circle cx="154.725" cy="59.2879" r="3.13309" fill="rgb(164,164,164)" />
<circle cx="222.345" cy="135.814" r="6.00941" fill="rgb(186,186,186)" />
<circle cx="69.2832" cy="145.102" r="7.06887" fill="rgb(137,137,137)" />
<circle cx="370.264" cy="144.383" r="1.85368" fill="rgb(0,0,0)" />
<circle cx="319.587" cy="154.377" r="8.81133" fill="rgb(122,122,122)" />
<circle cx="169.185" cy="156.776" r="7.53558" fill="rgb(185,185,185)" />
<circle cx="133.596" cy="158.041" r="6.85282" fill="rgb(195,195,195)" />
<circle cx="200.807" cy="161.605" r="6.91621" fill="rgb(188,188,188)" />
<circle cx="161.064" cy="128.357" r="6.66144" fill="rgb(93,93,93)" />
<circle cx="376.406" cy="170.618" r="11.7817" fill="rgb(75,75,75)" />
<circle cx="140.045" cy="94.3872" r="5.34403" fill="rgb(200,200,200)" />
<circle cx="232.735" cy="166.074" r="8.55103" fill="rgb(150,150,150)" />
<circle cx="293.982" cy="170.296" r="9.75273" fill="rgb(106,106,106)" />
<circle cx="94.4787" cy="176.316" r="7.82945" fill="rgb(122,122,122)" />
<circle cx="274.691" cy="192.408" r="8.20875" fill="rgb(74,74,74)" />
<circle cx="352.423" cy="193.705" r="9.3059" fill="rgb(87,87,87)" />
<circle cx="122.499" cy="196.842" r="8.93561" fill="rgb(125,125,125)" />
<circle cx="382.222" cy="198.544" r="8.84978" fill="rgb(125,125,125)" />
<circle cx="174.032" cy="96.4469" r="7.11109" fill="rgb(149,149,149)" />
<circle cx="215.754" cy="193.844" r="7.32215" fill="rgb(160,160,160)" />
<circle cx="84.521" cy="200.976" r="7.55194" fill="rgb(142,142,142)" />
<circle cx="329.244" cy="217.041" r="10.2213" fill="rgb(52,52,52)" />
<circle cx="193.482" cy="221.295" r="7.23812" fill="rgb(156,156,156)" />
<circle cx="104.731" cy="223.313" r="9.29784" fill="rgb(164,164,164)" />
<circle cx="133.592" cy="225.52" r="7.98121" fill="rgb(66,66,66)" />
<circle cx="393.094" cy="223.713" r="5.87777" fill="rgb(188,188,188)" />
<circle cx="230.182" cy="224.539" r="8.75167" fill="rgb(142,142,142)" />
<circle cx="262.804" cy="164.96" r="7.91736" fill="rgb(110,110,110)" />
<circle cx="77.3326" cy="231.782" r="8.26447" fill="rgb(123,123,123)" />
<circle cx="47.2527" cy="234.327" r="7.68408" fill="rgb(123,123,123)" />
<circle cx="306.372" cy="243.627" r="8.84847" fill="rgb(145,145,145)" />
<circle cx="152.318" cy="249.913" r="9.59879" fill="rgb(169,169,169)" />
<circle cx="256.215" cy="97.7592" r="4.62688" fill="rgb(0,0,0)" />
<circle cx="341.516" cy="247.264" r="9.49192" fill="rgb(104,104,104)" />
<circle cx="180.84" cy="248.191" r="9.30239" fill="rgb(114,114,114)" />
<circle cx="59.8957" cy="174.814" r="7.08797" fill="rgb(144,144,144)" />
<circle cx="211.988" cy="249.174" r="8.77961" fill="rgb(80,80,80)" />
<circle cx="371.121" cy="252.163" r="10.6453" fill="rgb(104,104,104)" />
<circle cx="77.9844" cy="54.5686" r="3.14772" fill="rgb(131,131,131)" />
<circle cx="66.7661" cy="256.965" r="8.80033" fill="rgb(96,96,96)" />
<circle cx="95.1022" cy="256.542" r="9.65897" fill="rgb(51,51,51)" />
<circle cx="402.98" cy="253.537" r="6.12753" fill="rgb(181,181,181)" />
<circle cx="254.146" cy="136.003" r="7.47559" fill="rgb(125,125,125)" />
<circle cx="281.43" cy="254.768" r="8.40367" fill="rgb(217,217,217)" />
<circle cx="362.538" cy="222.821" r="9.14724" fill="rgb(116,116,116)" />
<circle cx="41.5897" cy="262.028" r="8.20779" fill="rgb(63,63,63)" />
<circle cx="59.17" cy="116.96" r="6.02018" fill="rgb(136,136,136)" />
<circle cx="28.6066" cy="195.328" r="6.32651" fill="rgb(142,142,142)" />
<circle cx="299.794" cy="114.816" r="2.04257" fill="rgb(18,18,18)" />
<circle cx="138.068" cy="277.968" r="7.50963" fill="rgb(37,37,37)" />
<circle cx="324.885" cy="276.992" r="5.9033" fill="rgb(90,90,90)" />
<circle cx="149.076" cy="183.033" r="6.96128" fill="rgb(167,167,167)" />
<circle cx="28.4968" cy="170.137" r="3.82877" fill="rgb(154,154,154)" />
<circle cx="113.014" cy="280.393" r="6.74689" fill="rgb(10,10,10)" />
<circle cx="24.3301" cy="223.338" r="5.54063" fill="rgb(150,150,150)" />
<circle cx="320.222" cy="187.948" r="8.93561" fill="rgb(126,126,126)" />
<circle cx="297.973" cy="276.689" r="4.0831" fill="rgb(156,156,156)" />
<circle cx="193.716" cy="125.984" r="7.56721" fill="rgb(157,157,157)" />
<circle cx="247.642" cy="248.812" r="7.23598" fill="rgb(175,175,175)" />
<circle cx="262.313" cy="275.681" r="3.24676" fill="rgb(214,214,214)" />
<circle cx="344.06" cy="135.883" r="3.08837" fill="rgb(10,10,10)" />
<circle cx="104.135" cy="147.527" r="4.76649" fill="rgb(181,181,181)" />
<circle cx="227.719" cy="277.056" r="4.17841" fill="rgb(57,57,57)" />
<circle cx="86.2957" cy="283.131" r="7.13165" fill="rgb(53,53,53)" />
<circle cx="273.285" cy="228.365" r="9.62152" fill="rgb(77,77,77)" />
<circle cx="232.449" cy="86.5718" r="3.06869" fill="rgb(32,32,32)" />
<circle cx="193.082" cy="279.84" r="5.08277" fill="rgb(81,81,81)" />
<circle cx="248.512" cy="201.685" r="8.88133" fill="rgb(112,112,112)" />
<circle cx="354.091" cy="281.225" r="6.97401" fill="rgb(60,60,60)" />
<circle cx="387.753" cy="276.604" r="4.92853" fill="rgb(33,33,33)" />
<circle cx="30.0599" cy="103.603" r="3.38603" fill="rgb(121,121,121)" />
<circle cx="50.0415" cy="66.054" r="1.10859" fill="rgb(189,189,189)" />
<circle cx="20.7848" cy="253.226" r="5.19546" fill="rgb(160,160,160)" />
<circle cx="287.944" cy="140.959" r="7.36247" fill="rgb(133,133,133)" />
<circle cx="36.0292" cy="141.825" r="3.99329" fill="rgb(235,235,235)" />
<circle cx="181.078" cy="189.58" r="7.5446" fill="rgb(138,138,138)" />
<circle cx="160.37" cy="214.482" r="9.62548" fill="rgb(124,124,124)" />
<circle cx="187.204" cy="67.9916" r="2.35794" fill="rgb(61,61,61)" />
<circle cx="59.824" cy="284.847" r="5.95331" fill="rgb(33,33,33)" />
<circle cx="299.6" cy="211.747" r="10.2267" fill="rgb(137,137,137)" />
<circle cx="31.4648" cy="283.584" r="4.39977" fill="rgb(4,4,4)" />
<circle cx="349.816" cy="161.211" r="13.874" fill="rgb(28,28,28)" />
<circle cx="424.561" cy="271.93" r="4.46439" fill="rgb(177,177,177)" />
<circle cx="277.789" cy="105.189" r="3.54255" fill="rgb(10,10,10)" />
<circle cx="425.785" cy="236.187" r="5.68354" fill="rgb(137,137,137)" />
<circle cx="418.694" cy="201.178" r="8.32359" fill="rgb(3,3,3)" />
<circle cx="55.717" cy="208.432" r="6.55757" fill="rgb(150,150,150)" />
<circle cx="411.853" cy="175.871" r="7.74448" fill="rgb(0,0,0)" />
<circle cx="121.067" cy="249.944" r="8.8874" fill="rgb(119,119,119)" />
<circle cx="164.664" cy="280.801" r="7.10208" fill="rgb(57,57,57)" />
<circle cx="394.256" cy="152.671" r="1.45147" fill="rgb(24,24,24)" />
</svg>
