<?xml version="1.0" ?>
<!DOCTYPE svg PUBLIC "-//W3C//DTD SVG 1.1//EN" "http://www.w3.org/Graphics/SVG/1.1/DTD/svg11.dtd">
<svg width="20" height="20" version="1.1" xmlns="http://www.w3.org/2000/svg">
<circle cx="6.73774" cy="0.331786" r="0.5" fill="rgb(0,0,0)" />
<circle cx="13.4316" cy="0.318316" r="0.5" fill="rgb(0,0,0)" />
<circle cx="12.5404" cy="0.333925" r="0.5" fill="rgb(0,0,0)" />
<circle cx="5.88043" cy="0.401918" r="0.5" fill="rgb(0,0,0)" />
<circle cx="13.4606" cy="1.04978" r="0.5" fill="rgb(0,0,0)" />
<circle cx="8.35969" cy="0.554556" r="0.5" fill="rgb(0,0,0)" />
<circle cx="12.6332" cy="1.2744" r="0.5" fill="rgb(0,0,0)" />
<circle cx="13.4759" cy="1.71727" r="0.5" fill="rgb(0,0,0)" />
<circle cx="3.62052" cy="0.804024" r="0.5" fill="rgb(0,0,0)" />
<circle cx="6.14368" cy="1.70455" r="0.5" fill="rgb(0,0,0)" />
<circle cx="1.81189" cy="1.41363" r="0.5" fill="rgb(0,0,0)" />
<circle cx="9.3" cy="0.571749" r="0.5" fill="rgb(0,0,0)" />
<circle cx="14.29" cy="1.16373" r="0.5" fill="rgb(0,0,0)" />
<circle cx="15.0023" cy="1.75039" r="0.5" fill="rgb(0,0,0)" />
<circle cx="12.033" cy="1.87703" r="0.5" fill="rgb(0,0,0)" />
<circle cx="6.83922" cy="2.12727" r="0.5" fill="rgb(0,0,0)" />
<circle cx="3.02321" cy="1.85996" r="0.5" fill="rgb(0,0,0)" />
<circle cx="12.6709" cy="2.27315" r="0.5" fill="rgb(0,0,0)" />
<circle cx="17.2963" cy="1.91093" r="0.5" fill="rgb(0,0,0)" />
<circle cx="3.62799" cy="2.47155" r="0.5" fill="rgb(0,0,0)" />
<circle cx="4.24255" cy="2.85147" r="0.5" fill="rgb(0,0,0)" />
<circle cx="5.00361" cy="2.83415" r="0.5" fill="rgb(0,0,0)" />
<circle cx="7.70727" cy="2.7075" r="0.5" fill="rgb(0,0,0)" />
<circle cx="11.1333" cy="2.26644" r="0.5" fill="rgb(0,0,0)" />
<circle cx="18.0832" cy="2.5896" r="0.5" fill="rgb(0,0,0)" />
<circle cx="11.8079" cy="2.80336" r="0.5" fill="rgb(0,0,0)" />
<circle cx="5.17114" cy="3.31117" r="0.5" fill="rgb(0,0,0)" />
<circle cx="9.84607" cy="3.34244" r="0.5" fill="rgb(0,0,0)" />
<circle cx="14.5923" cy="3.03161" r="0.5" fill="rgb(0,0,0)" />
<circle cx="2.29267" cy="3.13088" r="0.5" fill="rgb(0,0,0)" />
<circle cx="9.26983" cy="3.50238" r="0.5" fill="rgb(0,0,0)" />
<circle cx="8.35487" cy="3.33103" r="0.5" fill="rgb(0,0,0)" />
<circle cx="11.7924" cy="3.41065" r="0.5" fill="rgb(0,0,0)" />
<circle cx="12.7915" cy="3.34422" r="0.5" fill="rgb(0,0,0)" />
<circle cx="13.4566" cy="2.28419" r="0.5" fill="rgb(0,0,0)" />
<circle cx="16.7285" cy="3.50925" r="0.5" fill="rgb(0,0,0)" />
<circle cx="13.7527" cy="3.75001" r="0.5" fill="rgb(0,0,0)" />
<circle cx="3.61437" cy="3.63513" r="0.5" fill="rgb(0,0,0)" />
<circle cx="7.42102" cy="3.74853" r="0.5" fill="rgb(0,0,0)" />
<circle cx="12.2823" cy="4.05506" r="0.5" fill="rgb(0,0,0)" />
<circle cx="13.7913" cy="4.37776" r="0.5" fill="rgb(0,0,0)" />
<circle cx="17.6593" cy="3.97341" r="0.5" fill="rgb(0,0,0)" />
<circle cx="8.46494" cy="4.10144" r="0.5" fill="rgb(0,0,0)" />
<circle cx="2.78422" cy="3.99359" r="0.5" fill="rgb(0,0,0)" />
<circle cx="15.9105" cy="4.4676" r="0.5" fill="rgb(0,0,0)" />
<circle cx="6.70816" cy="1.15325" r="0.5" fill="rgb(0,0,0)" />
<circle cx="6.30233" cy="4.42703" r="0.5" fill="rgb(0,0,0)" />
<circle cx="11.1253" cy="4.1451" r="0.5" fill="rgb(0,0,0)" />
<circle cx="3.92141" cy="4.46991" r="0.5" fill="rgb(0,0,0)" />
<circle cx="5.41966" cy="4.57554" r="0.5" fill="rgb(0,0,0)" />
<circle cx="9.18816" cy="4.98635" r="0.5" fill="rgb(0,0,0)" />
<circle cx="1.26244" cy="4.85576" r="0.5" fill="rgb(0,0,0)" />
<circle cx="5.85397" cy="5.15373" r="0.5" fill="rgb(0,0,0)" />
<circle cx="17.4473" cy="4.93673" r="0.5" fill="rgb(0,0,0)" />
<circle cx="4.56268" cy="5.22216" r="0.5" fill="rgb(0,0,0)" />
<circle cx="6.77626" cy="2.97972" r="0.5" fill="rgb(0,0,0)" />
<circle cx="14.0681" cy="5.1373" r="0.5" fill="rgb(0,0,0)" />
<circle cx="2.22331" cy="4.80989" r="0.5" fill="rgb(0,0,0)" />
<circle cx="14.1152" cy="2.27245" r="0.5" fill="rgb(0,0,0)" />
<circle cx="4.47518" cy="5.89703" r="0.5" fill="rgb(0,0,0)" />
<circle cx="1.59464" cy="5.64985" r="0.5" fill="rgb(0,0,0)" />
<circle cx="17.0956" cy="5.70125" r="0.5" fill="rgb(0,0,0)" />
<circle cx="8.83761" cy="5.7731" r="0.5" fill="rgb(0,0,0)" />
<circle cx="14.4582" cy="5.72852" r="0.5" fill="rgb(0,0,0)" />
<circle cx="8.80163" cy="2.6915" r="0.5" fill="rgb(0,0,0)" />
<circle cx="0.934743" cy="2.43129" r="0.5" fill="rgb(0,0,0)" />
<circle cx="13.5908" cy="3.09382" r="0.5" fill="rgb(0,0,0)" />
<circle cx="6.51663" cy="3.77707" r="0.5" fill="rgb(0,0,0)" />
<circle cx="18.338" cy="5.64196" r="0.5" fill="rgb(0,0,0)" />
<circle cx="16.3847" cy="1.60973" r="0.5" fill="rgb(0,0,0)" />
<circle cx="10.747" cy="5.82127" r="0.5" fill="rgb(0,0,0)" />
<circle cx="12.9914" cy="5.89973" r="0.5" fill="rgb(0,0,0)" />
<circle cx="7.42497" cy="6.11293" r="0.5" fill="rgb(0,0,0)" />
<circle cx="0.905722" cy="6.22129" r="0.5" fill="rgb(0,0,0)" />
<circle cx="2.09385" cy="6.31702" r="0.5" fill="rgb(0,0,0)" />
<circle cx="4.41885" cy="6.60796" r="0.5" fill="rgb(0,0,0)" />
<circle cx="10.4431" cy="6.54459" r="0.5" fill="rgb(0,0,0)" />
<circle cx="6.104" cy="6.48464" r="0.5" fill="rgb(0,0,0)" />
<circle cx="11.629" cy="5.84558" r="0.5" fill="rgb(0,0,0)" />
<circle cx="17.8668" cy="1.09069" r="0.5" fill="rgb(0,0,0)" />
<circle cx="15.5635" cy="6.75941" r="0.5" fill="rgb(0,0,0)" />
<circle cx="5.21737" cy="6.61125" r="0.5" fill="rgb(0,0,0)" />
<circle cx="9.39856" cy="6.63098" r="0.5" fill="rgb(0,0,0)" />
<circle cx="6.62663" cy="6.92091" r="0.5" fill="rgb(0,0,0)" />
<circle cx="8.40307" cy="6.63955" r="0.5" fill="rgb(0,0,0)" />
<circle cx="17.1924" cy="6.65948" r="0.5" fill="rgb(0,0,0)" />
<circle cx="16.6145" cy="4.42027" r="0.5" fill="rgb(0,0,0)" />
<circle cx="7.67493" cy="7.18517" r="0.5" fill="rgb(0,0,0)" />
<circle cx="1.56285" cy="7.19614" r="0.5" fill="rgb(0,0,0)" />
<circle cx="6.54032" cy="7.53947" r="0.5" fill="rgb(0,0,0)" />
<circle cx="16.1119" cy="7.46177" r="0.5" fill="rgb(0,0,0)" />
<circle cx="5.41763" cy="7.4819" r="0.5" fill="rgb(0,0,0)" />
<circle cx="10.16" cy="7.45775" r="0.5" fill="rgb(0,0,0)" />
<circle cx="4.26884" cy="7.41014" r="0.5" fill="rgb(0,0,0)" />
<circle cx="5.02776" cy="5.93995" r="0.5" fill="rgb(0,0,0)" />
<circle cx="14.4661" cy="7.78511" r="0.5" fill="rgb(0,0,0)" />
<circle cx="7.9113" cy="1.70565" r="0.5" fill="rgb(0,0,0)" />
<circle cx="11.2113" cy="7.3637" r="0.5" fill="rgb(0,0,0)" />
<circle cx="16.2668" cy="6.23217" r="0.5" fill="rgb(0,0,0)" />
<circle cx="7.91616" cy="8.15989" r="0.5" fill="rgb(0,0,0)" />
<circle cx="6.09605" cy="8.1594" r="0.5" fill="rgb(0,0,0)" />
<circle cx="13.5142" cy="7.99874" r="0.5" fill="rgb(0,0,0)" />
<circle cx="1.21655" cy="7.93073" r="0.5" fill="rgb(0,0,0)" />
<circle cx="3.09084" cy="3.049" r="0.5" fill="rgb(0,0,0)" />
<circle cx="8.60439" cy="8.2278" r="0.5" fill="rgb(0,0,0)" />
<circle cx="9.19661" cy="8.22239" r="0.5" fill="rgb(0,0,0)" />
<circle cx="3.45216" cy="7.9559" r="0.5" fill="rgb(0,0,0)" />
<circle cx="1.95078" cy="8.41966" r="0.5" fill="rgb(0,0,0)" />
<circle cx="9.51554" cy="8.64856" r="0.5" fill="rgb(0,0,0)" />
<circle cx="9.78465" cy="4.44234" r="0.5" fill="rgb(0,0,0)" />
<circle cx="11.822" cy="8.17236" r="0.5" fill="rgb(0,0,0)" />
<circle cx="18.0181" cy="7.95122" r="0.5" fill="rgb(0,0,0)" />
<circle cx="16.7092" cy="8.40728" r="0.5" fill="rgb(0,0,0)" />
<circle cx="15.2795" cy="7.61716" r="0.5" fill="rgb(0,0,0)" />
<circle cx="12.8567" cy="8.47251" r="0.5" fill="rgb(0,0,0)" />
<circle cx="2.77916" cy="8.49658" r="0.5" fill="rgb(0,0,0)" />
<circle cx="1.87388" cy="2.48154" r="0.5" fill="rgb(0,0,0)" />
<circle cx="6.67867" cy="5.55715" r="0.5" fill="rgb(0,0,0)" />
<circle cx="15.7728" cy="8.51531" r="0.5" fill="rgb(0,0,0)" />
<circle cx="8.20968" cy="8.85925" r="0.5" fill="rgb(0,0,0)" />
<circle cx="7.37568" cy="9.0392" r="0.5" fill="rgb(0,0,0)" />
<circle cx="5.12351" cy="8.57786" r="0.5" fill="rgb(0,0,0)" />
<circle cx="18.5773" cy="0.477262" r="0.5" fill="rgb(0,0,0)" />
<circle cx="15.3007" cy="9.12326" r="0.5" fill="rgb(0,0,0)" />
<circle cx="18.3218" cy="8.7867" r="0.5" fill="rgb(0,0,0)" />
<circle cx="10.151" cy="8.42116" r="0.5" fill="rgb(0,0,0)" />
<circle cx="6.26475" cy="9.02872" r="0.5" fill="rgb(0,0,0)" />
<circle cx="2.50533" cy="9.28335" r="0.5" fill="rgb(0,0,0)" />
<circle cx="13.8736" cy="9.0629" r="0.5" fill="rgb(0,0,0)" />
<circle cx="4.08395" cy="9.55858" r="0.5" fill="rgb(0,0,0)" />
<circle cx="15.1093" cy="4.88259" r="0.5" fill="rgb(0,0,0)" />
<circle cx="3.46193" cy="9.47317" r="0.5" fill="rgb(0,0,0)" />
<circle cx="9.54895" cy="9.22224" r="0.5" fill="rgb(0,0,0)" />
<circle cx="8.96186" cy="7.48913" r="0.5" fill="rgb(0,0,0)" />
<circle cx="1.52149" cy="9.22838" r="0.5" fill="rgb(0,0,0)" />
<circle cx="12.4216" cy="9.21157" r="0.5" fill="rgb(0,0,0)" />
<circle cx="0.528766" cy="8.56877" r="0.5" fill="rgb(0,0,0)" />
<circle cx="17.253" cy="0.412717" r="0.5" fill="rgb(0,0,0)" />
<circle cx="17.0047" cy="9.27107" r="0.5" fill="rgb(0,0,0)" />
<circle cx="15.8311" cy="9.60893" r="0.5" fill="rgb(0,0,0)" />
<circle cx="3.77761" cy="10.1526" r="0.5" fill="rgb(0,0,0)" />
<circle cx="1.91164" cy="10.0688" r="0.5" fill="rgb(0,0,0)" />
<circle cx="13.0332" cy="9.81144" r="0.5" fill="rgb(0,0,0)" />
<circle cx="3.24843" cy="10.482" r="0.5" fill="rgb(0,0,0)" />
<circle cx="6.3092" cy="10.2007" r="0.5" fill="rgb(0,0,0)" />
<circle cx="6.69824" cy="10.0957" r="0.5" fill="rgb(0,0,0)" />
<circle cx="11.9878" cy="10.2177" r="0.5" fill="rgb(0,0,0)" />
<circle cx="3.16038" cy="5.34955" r="0.5" fill="rgb(0,0,0)" />
<circle cx="14.7174" cy="8.62786" r="0.5" fill="rgb(0,0,0)" />
<circle cx="7.10125" cy="10.4393" r="0.5" fill="rgb(0,0,0)" />
<circle cx="13.6617" cy="10.2937" r="0.5" fill="rgb(0,0,0)" />
<circle cx="7.60534" cy="10.8205" r="0.5" fill="rgb(0,0,0)" />
<circle cx="9.14421" cy="10.7138" r="0.5" fill="rgb(0,0,0)" />
<circle cx="4.07241" cy="8.71256" r="0.5" fill="rgb(0,0,0)" />
<circle cx="0.332982" cy="4.33702" r="0.5" fill="rgb(0,0,0)" />
<circle cx="0.394614" cy="7.02168" r="0.5" fill="rgb(0,0,0)" />
<circle cx="16.9444" cy="10.4855" r="0.5" fill="rgb(0,0,0)" />
<circle cx="0.286051" cy="9.46649" r="0.5" fill="rgb(0,0,0)" />
<circle cx="15.7132" cy="10.5604" r="0.5" fill="rgb(0,0,0)" />
<circle cx="14.1986" cy="10.8907" r="0.5" fill="rgb(0,0,0)" />
<circle cx="4.43199" cy="10.9886" r="0.5" fill="rgb(0,0,0)" />
<circle cx="10.0769" cy="10.2572" r="0.5" fill="rgb(0,0,0)" />
<circle cx="5.75943" cy="2.38374" r="0.5" fill="rgb(0,0,0)" />
<circle cx="10.9128" cy="10.5805" r="0.5" fill="rgb(0,0,0)" />
<circle cx="2.57164" cy="11.0455" r="0.5" fill="rgb(0,0,0)" />
<circle cx="1.30275" cy="10.9815" r="0.5" fill="rgb(0,0,0)" />
<circle cx="15.0534" cy="11.2421" r="0.5" fill="rgb(0,0,0)" />
<circle cx="10.2228" cy="3.82678" r="0.5" fill="rgb(0,0,0)" />
<circle cx="8.04965" cy="11.5328" r="0.5" fill="rgb(0,0,0)" />
<circle cx="7.2215" cy="11.5889" r="0.5" fill="rgb(0,0,0)" />
<circle cx="12.8298" cy="11.3777" r="0.5" fill="rgb(0,0,0)" />
<circle cx="6.33217" cy="11.5989" r="0.5" fill="rgb(0,0,0)" />
<circle cx="14.5143" cy="12.0841" r="0.5" fill="rgb(0,0,0)" />
<circle cx="8.48029" cy="11.9917" r="0.5" fill="rgb(0,0,0)" />
<circle cx="9.3837" cy="11.6858" r="0.5" fill="rgb(0,0,0)" />
<circle cx="11.5848" cy="11.5593" r="0.5" fill="rgb(0,0,0)" />
<circle cx="11.2016" cy="0.680628" r="0.5" fill="rgb(0,0,0)" />
<circle cx="17.0465" cy="7.59673" r="0.5" fill="rgb(0,0,0)" />
<circle cx="2.10605" cy="11.8349" r="0.5" fill="rgb(0,0,0)" />
<circle cx="15.9707" cy="0.66826" r="0.5" fill="rgb(0,0,0)" />
<circle cx="13.5641" cy="12.0785" r="0.5" fill="rgb(0,0,0)" />
<circle cx="4.25966" cy="12.0065" r="0.5" fill="rgb(0,0,0)" />
<circle cx="6.52357" cy="12.4197" r="0.5" fill="rgb(0,0,0)" />
<circle cx="17.4852" cy="12.4233" r="0.5" fill="rgb(0,0,0)" />
<circle cx="10.541" cy="12.1575" r="0.5" fill="rgb(0,0,0)" />
<circle cx="3.68326" cy="6.25146" r="0.5" fill="rgb(0,0,0)" />
<circle cx="8.37917" cy="10.8182" r="0.5" fill="rgb(0,0,0)" />
<circle cx="14.4948" cy="12.8918" r="0.5" fill="rgb(0,0,0)" />
<circle cx="11.881" cy="0.794437" r="0.5" fill="rgb(0,0,0)" />
<circle cx="15.3161" cy="12.7467" r="0.5" fill="rgb(0,0,0)" />
<circle cx="9.61526" cy="2.60872" r="0.5" fill="rgb(0,0,0)" />
<circle cx="16.3768" cy="4.94222" r="0.5" fill="rgb(0,0,0)" />
<circle cx="9.59054" cy="12.5656" r="0.5" fill="rgb(0,0,0)" />
<circle cx="4.36588" cy="3.65047" r="0.5" fill="rgb(0,0,0)" />
<circle cx="14.5343" cy="6.64132" r="0.5" fill="rgb(0,0,0)" />
<circle cx="2.88554" cy="9.76075" r="0.5" fill="rgb(0,0,0)" />
<circle cx="1.49905" cy="12.427" r="0.5" fill="rgb(0,0,0)" />
<circle cx="7.54613" cy="12.606" r="0.5" fill="rgb(0,0,0)" />
<circle cx="17.9698" cy="12.8919" r="0.5" fill="rgb(0,0,0)" />
<circle cx="8.47515" cy="12.9786" r="0.5" fill="rgb(0,0,0)" />
<circle cx="5.56221" cy="11.1124" r="0.5" fill="rgb(0,0,0)" />
<circle cx="5.6709" cy="13.0812" r="0.5" fill="rgb(0,0,0)" />
<circle cx="6.5227" cy="13.1486" r="0.5" fill="rgb(0,0,0)" />
<circle cx="14.0789" cy="13.2543" r="0.5" fill="rgb(0,0,0)" />
<circle cx="7.50944" cy="0.189371" r="0.5" fill="rgb(0,0,0)" />
<circle cx="12.9102" cy="13.6331" r="0.5" fill="rgb(0,0,0)" />
<circle cx="12.4171" cy="12.8074" r="0.5" fill="rgb(0,0,0)" />
<circle cx="1.03176" cy="13.2469" r="0.5" fill="rgb(0,0,0)" />
<circle cx="3.96455" cy="13.3489" r="0.5" fill="rgb(0,0,0)" />
<circle cx="13.2101" cy="4.75552" r="0.5" fill="rgb(0,0,0)" />
<circle cx="17.2475" cy="13.3141" r="0.5" fill="rgb(0,0,0)" />
<circle cx="4.80109" cy="13.678" r="0.5" fill="rgb(0,0,0)" />
<circle cx="14.6493" cy="13.6387" r="0.5" fill="rgb(0,0,0)" />
<circle cx="7.87976" cy="13.7651" r="0.5" fill="rgb(0,0,0)" />
<circle cx="11.4398" cy="13.2266" r="0.5" fill="rgb(0,0,0)" />
<circle cx="4.72726" cy="1.38571" r="0.5" fill="rgb(0,0,0)" />
<circle cx="2.5509" cy="13.3358" r="0.5" fill="rgb(0,0,0)" />
<circle cx="8.99965" cy="9.85405" r="0.5" fill="rgb(0,0,0)" />
<circle cx="10.1413" cy="14.0376" r="0.5" fill="rgb(0,0,0)" />
<circle cx="9.2334" cy="13.6701" r="0.5" fill="rgb(0,0,0)" />
<circle cx="14.7133" cy="9.79951" r="0.5" fill="rgb(0,0,0)" />
<circle cx="18.1971" cy="11.4096" r="0.5" fill="rgb(0,0,0)" />
<circle cx="18.3141" cy="9.88417" r="0.5" fill="rgb(0,0,0)" />
<circle cx="5.51758" cy="13.9932" r="0.5" fill="rgb(0,0,0)" />
<circle cx="13.5295" cy="14.2161" r="0.5" fill="rgb(0,0,0)" />
<circle cx="13.0711" cy="2.6321" r="0.5" fill="rgb(0,0,0)" />
<circle cx="16.2055" cy="13.5538" r="0.5" fill="rgb(0,0,0)" />
<circle cx="3.28371" cy="14.2565" r="0.5" fill="rgb(0,0,0)" />
<circle cx="1.37547" cy="13.9363" r="0.5" fill="rgb(0,0,0)" />
<circle cx="10.5643" cy="4.89261" r="0.5" fill="rgb(0,0,0)" />
<circle cx="17.1217" cy="14.1289" r="0.5" fill="rgb(0,0,0)" />
<circle cx="16.8098" cy="2.63721" r="0.5" fill="rgb(0,0,0)" />
<circle cx="0.625195" cy="10.1966" r="0.5" fill="rgb(0,0,0)" />
<circle cx="6.89926" cy="13.9609" r="0.5" fill="rgb(0,0,0)" />
<circle cx="15.4379" cy="14.4999" r="0.5" fill="rgb(0,0,0)" />
<circle cx="15.9344" cy="2.51195" r="0.5" fill="rgb(0,0,0)" />
<circle cx="6.11112" cy="14.3921" r="0.5" fill="rgb(0,0,0)" />
<circle cx="8.508" cy="14.411" r="0.5" fill="rgb(0,0,0)" />
<circle cx="14.3262" cy="14.369" r="0.5" fill="rgb(0,0,0)" />
<circle cx="4.2366" cy="14.5386" r="0.5" fill="rgb(0,0,0)" />
<circle cx="12.554" cy="14.3832" r="0.5" fill="rgb(0,0,0)" />
<circle cx="7.50786" cy="14.6436" r="0.5" fill="rgb(0,0,0)" />
<circle cx="1.95188" cy="14.5929" r="0.5" fill="rgb(0,0,0)" />
<circle cx="3.91573" cy="15.1774" r="0.5" fill="rgb(0,0,0)" />
<circle cx="13.4968" cy="15.0359" r="0.5" fill="rgb(0,0,0)" />
<circle cx="5.07526" cy="14.5527" r="0.5" fill="rgb(0,0,0)" />
<circle cx="4.89872" cy="15.1748" r="0.5" fill="rgb(0,0,0)" />
<circle cx="3.20109" cy="15.1196" r="0.5" fill="rgb(0,0,0)" />
<circle cx="11.1357" cy="9.09839" r="0.5" fill="rgb(0,0,0)" />
<circle cx="10.1384" cy="14.7765" r="0.5" fill="rgb(0,0,0)" />
<circle cx="7.51075" cy="0.815632" r="0.5" fill="rgb(0,0,0)" />
<circle cx="0.8136" cy="15.1725" r="0.5" fill="rgb(0,0,0)" />
<circle cx="17.9931" cy="14.7308" r="0.5" fill="rgb(0,0,0)" />
<circle cx="0.391119" cy="5.33901" r="0.5" fill="rgb(0,0,0)" />
<circle cx="9.08453" cy="14.9229" r="0.5" fill="rgb(0,0,0)" />
<circle cx="7.78485" cy="15.2382" r="0.5" fill="rgb(0,0,0)" />
<circle cx="5.5798" cy="15.4092" r="0.5" fill="rgb(0,0,0)" />
<circle cx="4.75528" cy="0.420304" r="0.5" fill="rgb(0,0,0)" />
<circle cx="6.55032" cy="15.3216" r="0.5" fill="rgb(0,0,0)" />
<circle cx="5.97988" cy="3.29171" r="0.5" fill="rgb(0,0,0)" />
<circle cx="16.9772" cy="15.2587" r="0.5" fill="rgb(0,0,0)" />
<circle cx="2.54101" cy="15.2586" r="0.5" fill="rgb(0,0,0)" />
<circle cx="11.5831" cy="14.8766" r="0.5" fill="rgb(0,0,0)" />
<circle cx="15.0602" cy="15.3367" r="0.5" fill="rgb(0,0,0)" />
<circle cx="15.3942" cy="2.8515" r="0.5" fill="rgb(0,0,0)" />
<circle cx="16.0549" cy="15.2177" r="0.5" fill="rgb(0,0,0)" />
<circle cx="10.3577" cy="13.3757" r="0.5" fill="rgb(0,0,0)" />
<circle cx="4.71272" cy="15.8244" r="0.5" fill="rgb(0,0,0)" />
<circle cx="1.32304" cy="15.6599" r="0.5" fill="rgb(0,0,0)" />
<circle cx="5.64282" cy="16.0839" r="0.5" fill="rgb(0,0,0)" />
<circle cx="14.2606" cy="15.7402" r="0.5" fill="rgb(0,0,0)" />
<circle cx="15.4247" cy="5.91212" r="0.5" fill="rgb(0,0,0)" />
<circle cx="1.92615" cy="15.9989" r="0.5" fill="rgb(0,0,0)" />
<circle cx="13.284" cy="15.7925" r="0.5" fill="rgb(0,0,0)" />
<circle cx="18.1768" cy="6.88599" r="0.5" fill="rgb(0,0,0)" />
<circle cx="9.96792" cy="15.6376" r="0.5" fill="rgb(0,0,0)" />
<circle cx="8.06211" cy="9.93162" r="0.5" fill="rgb(0,0,0)" />
<circle cx="3.34338" cy="15.9317" r="0.5" fill="rgb(0,0,0)" />
<circle cx="4.75822" cy="4.36494" r="0.5" fill="rgb(0,0,0)" />
<circle cx="4.00259" cy="16.0873" r="0.5" fill="rgb(0,0,0)" />
<circle cx="5.36788" cy="3.81675" r="0.5" fill="rgb(0,0,0)" />
<circle cx="18.4635" cy="1.7739" r="0.5" fill="rgb(0,0,0)" />
<circle cx="1.35552" cy="16.7437" r="0.5" fill="rgb(0,0,0)" />
<circle cx="9.04633" cy="16.3591" r="0.5" fill="rgb(0,0,0)" />
<circle cx="15.0798" cy="16.4314" r="0.5" fill="rgb(0,0,0)" />
<circle cx="6.48545" cy="16.4741" r="0.5" fill="rgb(0,0,0)" />
<circle cx="16.3703" cy="16.3061" r="0.5" fill="rgb(0,0,0)" />
<circle cx="12.6925" cy="16.4341" r="0.5" fill="rgb(0,0,0)" />
<circle cx="13.5128" cy="13.1245" r="0.5" fill="rgb(0,0,0)" />
<circle cx="11.006" cy="14.5188" r="0.5" fill="rgb(0,0,0)" />
<circle cx="7.20743" cy="16.2317" r="0.5" fill="rgb(0,0,0)" />
<circle cx="2.81652" cy="16.5873" r="0.5" fill="rgb(0,0,0)" />
<circle cx="17.4399" cy="16.3703" r="0.5" fill="rgb(0,0,0)" />
<circle cx="8.57184" cy="9.28378" r="0.5" fill="rgb(0,0,0)" />
<circle cx="10.689" cy="16.3684" r="0.5" fill="rgb(0,0,0)" />
<circle cx="1.42498" cy="17.3823" r="0.5" fill="rgb(0,0,0)" />
<circle cx="5.59277" cy="1.30967" r="0.5" fill="rgb(0,0,0)" />
<circle cx="11.3473" cy="16.9134" r="0.5" fill="rgb(0,0,0)" />
<circle cx="4.67349" cy="16.7027" r="0.5" fill="rgb(0,0,0)" />
<circle cx="9.22924" cy="1.74224" r="0.5" fill="rgb(0,0,0)" />
<circle cx="5.58722" cy="16.7569" r="0.5" fill="rgb(0,0,0)" />
<circle cx="18.3302" cy="16.1878" r="0.5" fill="rgb(0,0,0)" />
<circle cx="10.3447" cy="1.2986" r="0.5" fill="rgb(0,0,0)" />
<circle cx="0.612013" cy="16.9764" r="0.5" fill="rgb(0,0,0)" />
<circle cx="15.4249" cy="3.88714" r="0.5" fill="rgb(0,0,0)" />
<circle cx="2.74715" cy="7.07251" r="0.5" fill="rgb(0,0,0)" />
<circle cx="15.7358" cy="17.0727" r="0.5" fill="rgb(0,0,0)" />
<circle cx="12.4515" cy="7.13752" r="0.5" fill="rgb(0,0,0)" />
<circle cx="14.8489" cy="17.4387" r="0.5" fill="rgb(0,0,0)" />
<circle cx="12.3699" cy="17.3132" r="0.5" fill="rgb(0,0,0)" />
<circle cx="4.23683" cy="17.2487" r="0.5" fill="rgb(0,0,0)" />
<circle cx="12.0551" cy="15.5912" r="0.5" fill="rgb(0,0,0)" />
<circle cx="13.4041" cy="17.2711" r="0.5" fill="rgb(0,0,0)" />
<circle cx="12.1796" cy="4.96944" r="0.5" fill="rgb(0,0,0)" />
<circle cx="5.98179" cy="17.2172" r="0.5" fill="rgb(0,0,0)" />
<circle cx="7.16658" cy="8.12478" r="0.5" fill="rgb(0,0,0)" />
<circle cx="4.54837" cy="10.2704" r="0.5" fill="rgb(0,0,0)" />
<circle cx="8.91926" cy="17.3811" r="0.5" fill="rgb(0,0,0)" />
<circle cx="14.2474" cy="17.931" r="0.5" fill="rgb(0,0,0)" />
<circle cx="5.04539" cy="12.3949" r="0.5" fill="rgb(0,0,0)" />
<circle cx="11.7206" cy="17.6322" r="0.5" fill="rgb(0,0,0)" />
<circle cx="15.9528" cy="17.8565" r="0.5" fill="rgb(0,0,0)" />
<circle cx="1.30248" cy="17.8698" r="0.5" fill="rgb(0,0,0)" />
<circle cx="15.0862" cy="18.072" r="0.5" fill="rgb(0,0,0)" />
<circle cx="14.5651" cy="0.21593" r="0.5" fill="rgb(0,0,0)" />
<circle cx="1.89082" cy="17.8593" r="0.5" fill="rgb(0,0,0)" />
<circle cx="6.65347" cy="17.6007" r="0.5" fill="rgb(0,0,0)" />
<circle cx="3.20119" cy="17.5529" r="0.5" fill="rgb(0,0,0)" />
<circle cx="10.9685" cy="17.8813" r="0.5" fill="rgb(0,0,0)" />
<circle cx="18.3897" cy="17.2593" r="0.5" fill="rgb(0,0,0)" />
<circle cx="7.92344" cy="17.9555" r="0.5" fill="rgb(0,0,0)" />
<circle cx="5.66462" cy="10.01" r="0.5" fill="rgb(0,0,0)" />
<circle cx="13.0064" cy="17.9963" r="0.5" fill="rgb(0,0,0)" />
<circle cx="18.5301" cy="4.50313" r="0.5" fill="rgb(0,0,0)" />
<circle cx="16.7226" cy="11.8738" r="0.5" fill="rgb(0,0,0)" />
<circle cx="18.4646" cy="3.2459" r="0.5" fill="rgb(0,0,0)" />
<circle cx="17.7576" cy="17.9675" r="0.5" fill="rgb(0,0,0)" />
<circle cx="10.4632" cy="2.78316" r="0.5" fill="rgb(0,0,0)" />
<circle cx="2.42772" cy="17.7326" r="0.5" fill="rgb(0,0,0)" />
<circle cx="7.77845" cy="17.0811" r="0.5" fill="rgb(0,0,0)" />
<circle cx="18.404" cy="18.3484" r="0.5" fill="rgb(0,0,0)" />
<circle cx="8.08394" cy="4.90407" r="0.5" fill="rgb(0,0,0)" />
<circle cx="12.1758" cy="18.3293" r="0.5" fill="rgb(0,0,0)" />
<circle cx="0.677735" cy="3.70166" r="0.5" fill="rgb(0,0,0)" />
<circle cx="4.08874" cy="18.0738" r="0.5" fill="rgb(0,0,0)" />
<circle cx="15.7959" cy="12.0447" r="0.5" fill="rgb(0,0,0)" />
<circle cx="17.0878" cy="18.3838" r="0.5" fill="rgb(0,0,0)" />
<circle cx="16.932" cy="17.3272" r="0.5" fill="rgb(0,0,0)" />
<circle cx="13.5995" cy="18.5125" r="0.5" fill="rgb(0,0,0)" />
<circle cx="9.13352" cy="4.1807" r="0.5" fill="rgb(0,0,0)" />
<circle cx="3.53159" cy="11.3178" r="0.5" fill="rgb(0,0,0)" />
<circle cx="5.17707" cy="18.2455" r="0.5" fill="rgb(0,0,0)" />
<circle cx="0.427134" cy="11.6564" r="0.5" fill="rgb(0,0,0)" />
<circle cx="8.223" cy="15.8654" r="0.5" fill="rgb(0,0,0)" />
<circle cx="0.338442" cy="12.9633" r="0.5" fill="rgb(0,0,0)" />
<circle cx="1.55251" cy="3.66801" r="0.5" fill="rgb(0,0,0)" />
<circle cx="14.2501" cy="18.6342" r="0.5" fill="rgb(0,0,0)" />
<circle cx="16.4363" cy="18.5846" r="0.5" fill="rgb(0,0,0)" />
<circle cx="4.54736" cy="2.06715" r="0.5" fill="rgb(0,0,0)" />
<circle cx="8.93027" cy="18.473" r="0.5" fill="rgb(0,0,0)" />
<circle cx="14.7185" cy="18.6517" r="0.5" fill="rgb(0,0,0)" />
<circle cx="0.377949" cy="16.085" r="0.5" fill="rgb(0,0,0)" />
<circle cx="3.19787" cy="12.3456" r="0.5" fill="rgb(0,0,0)" />
<circle cx="14.1157" cy="16.9144" r="0.5" fill="rgb(0,0,0)" />
<circle cx="9.88733" cy="17.4035" r="0.5" fill="rgb(0,0,0)" />
<circle cx="0.374774" cy="14.4796" r="0.5" fill="rgb(0,0,0)" />
<circle cx="18.6593" cy="15.2415" r="0.5" fill="rgb(0,0,0)" />
<circle cx="15.5235" cy="5.24994" r="0.5" fill="rgb(0,0,0)" />
<circle cx="7.15012" cy="4.78943" r="0.5" fill="rgb(0,0,0)" />
<circle cx="18.5798" cy="13.3038" r="0.5" fill="rgb(0,0,0)" />
<circle cx="14.599" cy="4.2695" r="0.5" fill="rgb(0,0,0)" />
<circle cx="10.1647" cy="18.4774" r="0.5" fill="rgb(0,0,0)" />
<circle cx="14.9588" cy="0.692412" r="0.5" fill="rgb(0,0,0)" />
<circle cx="12.6542" cy="18.7408" r="0.5" fill="rgb(0,0,0)" />
<circle cx="11.3351" cy="18.6188" r="0.5" fill="rgb(0,0,0)" />
<circle cx="7.68341" cy="18.6299" r="0.5" fill="rgb(0,0,0)" />
<circle cx="6.45596" cy="18.5176" r="0.5" fill="rgb(0,0,0)" />
<circle cx="15.1871" cy="18.6729" r="0.5" fill="rgb(0,0,0)" />
<circle cx="16.2772" cy="5.35946" r="0.5" fill="rgb(0,0,0)" />
<circle cx="5.80905" cy="5.87217" r="0.5" fill="rgb(0,0,0)" />
<circle cx="15.7613" cy="18.624" r="0.5" fill="rgb(0,0,0)" />
<circle cx="3.3717" cy="18.5965" r="0.5" fill="rgb(0,0,0)" />
<circle cx="18.8132" cy="8.13588" r="0.5" fill="rgb(0,0,0)" />
<circle cx="10.3517" cy="0.283775" r="0.5" fill="rgb(0,0,0)" />
<circle cx="18.7557" cy="6.5893" r="0.5" fill="rgb(0,0,0)" />
<circle cx="2.36681" cy="0.439" r="0.5" fill="rgb(0,0,0)" />
<circle cx="9.8837" cy="5.54452" r="0.5" fill="rgb(0,0,0)" />
<circle cx="0.257099" cy="2.59007" r="0.5" fill="rgb(0,0,0)" />
<circle cx="15.2941" cy="13.6424" r="0.5" fill="rgb(0,0,0)" />
<circle cx="0.649752" cy="0.801899" r="0.5" fill="rgb(0,0,0)" />
<circle cx="0.232891" cy="17.7859" r="0.5" fill="rgb(0,0,0)" />
<circle cx="0.508258" cy="18.3549" r="0.5" fill="rgb(0,0,0)" />
<circle cx="4.92539" cy="9.54927" r="0.5" fill="rgb(0,0,0)" />
<circle cx="2.00748" cy="16.9094" r="0.5" fill="rgb(0,0,0)" />
<circle cx="1.97158" cy="18.6293" r="0.5" fill="rgb(0,0,0)" />
<circle cx="7.31168" cy="9.69926" r="0.5" fill="rgb(0,0,0)" />
<circle cx="1.02546" cy="18.5822" r="0.5" fill="rgb(0,0,0)" />
<circle cx="13.5882" cy="6.94411" r="0.5" fill="rgb(0,0,0)" />
<circle cx="18.0747" cy="18.7613" r="0.5" fill="rgb(0,0,0)" />
<circle cx="18.8026" cy="18.2431" r="0.5" fill="rgb(0,0,0)" />
</svg>
