<?xml version="1.0" ?>
<!DOCTYPE svg PUBLIC "-//W3C//DTD SVG 1.1//EN" "http://www.w3.org/Graphics/SVG/1.1/DTD/svg11.dtd">
<svg width="20" height="20" version="1.1" xmlns="http://www.w3.org/2000/svg">
<circle cx="7.52283" cy="0.170583" r="0.5" fill="rgb(0,0,0)" />
<circle cx="14.6246" cy="0.191439" r="0.5" fill="rgb(0,0,0)" />
<circle cx="6.74358" cy="0.289969" r="0.5" fill="rgb(0,0,0)" />
<circle cx="10.3591" cy="0.254195" r="0.5" fill="rgb(0,0,0)" />
<circle cx="13.4354" cy="0.295934" r="0.5" fill="rgb(0,0,0)" />
<circle cx="4.75834" cy="0.37282" r="0.5" fill="rgb(0,0,0)" />
<circle cx="12.5442" cy="0.275255" r="0.5" fill="rgb(0,0,0)" />
<circle cx="14.908" cy="0.699286" r="0.5" fill="rgb(0,0,0)" />
<circle cx="9.2999" cy="0.538491" r="0.5" fill="rgb(0,0,0)" />
<circle cx="6.731" cy="1.14875" r="0.5" fill="rgb(0,0,0)" />
<circle cx="11.8873" cy="0.771585" r="0.5" fill="rgb(0,0,0)" />
<circle cx="3.62126" cy="0.774642" r="0.5" fill="rgb(0,0,0)" />
<circle cx="4.68431" cy="1.40124" r="0.5" fill="rgb(0,0,0)" />
<circle cx="1.80233" cy="1.38723" r="0.5" fill="rgb(0,0,0)" />
<circle cx="9.26268" cy="1.75099" r="0.5" fill="rgb(0,0,0)" />
<circle cx="14.9824" cy="1.75228" r="0.5" fill="rgb(0,0,0)" />
<circle cx="13.4524" cy="2.27571" r="0.5" fill="rgb(0,0,0)" />
<circle cx="12.6633" cy="2.27569" r="0.5" fill="rgb(0,0,0)" />
<circle cx="17.2913" cy="1.90581" r="0.5" fill="rgb(0,0,0)" />
<circle cx="3.61497" cy="2.46738" r="0.5" fill="rgb(0,0,0)" />
<circle cx="1.88253" cy="2.4974" r="0.5" fill="rgb(0,0,0)" />
<circle cx="4.22926" cy="2.8366" r="0.5" fill="rgb(0,0,0)" />
<circle cx="5.01603" cy="2.84066" r="0.5" fill="rgb(0,0,0)" />
<circle cx="0.920145" cy="2.46877" r="0.5" fill="rgb(0,0,0)" />
<circle cx="6.78238" cy="2.99524" r="0.5" fill="rgb(0,0,0)" />
<circle cx="18.0917" cy="2.58128" r="0.5" fill="rgb(0,0,0)" />
<circle cx="11.1351" cy="2.27225" r="0.5" fill="rgb(0,0,0)" />
<circle cx="15.9323" cy="2.52341" r="0.5" fill="rgb(0,0,0)" />
<circle cx="13.6045" cy="3.10935" r="0.5" fill="rgb(0,0,0)" />
<circle cx="5.15532" cy="3.3258" r="0.5" fill="rgb(0,0,0)" />
<circle cx="7.54201" cy="0.802313" r="0.5" fill="rgb(0,0,0)" />
<circle cx="15.3819" cy="2.81787" r="0.5" fill="rgb(0,0,0)" />
<circle cx="9.82768" cy="3.34976" r="0.5" fill="rgb(0,0,0)" />
<circle cx="14.5965" cy="3.03369" r="0.5" fill="rgb(0,0,0)" />
<circle cx="9.27341" cy="3.51187" r="0.5" fill="rgb(0,0,0)" />
<circle cx="8.37626" cy="3.30605" r="0.5" fill="rgb(0,0,0)" />
<circle cx="11.793" cy="3.39723" r="0.5" fill="rgb(0,0,0)" />
<circle cx="4.3883" cy="3.65715" r="0.5" fill="rgb(0,0,0)" />
<circle cx="14.2965" cy="1.16375" r="0.5" fill="rgb(0,0,0)" />
<circle cx="6.489" cy="3.75865" r="0.5" fill="rgb(0,0,0)" />
<circle cx="13.7804" cy="3.72608" r="0.5" fill="rgb(0,0,0)" />
<circle cx="16.7002" cy="3.5332" r="0.5" fill="rgb(0,0,0)" />
<circle cx="10.2279" cy="3.82636" r="0.5" fill="rgb(0,0,0)" />
<circle cx="7.42735" cy="3.75268" r="0.5" fill="rgb(0,0,0)" />
<circle cx="9.17477" cy="4.15243" r="0.5" fill="rgb(0,0,0)" />
<circle cx="8.42023" cy="4.10496" r="0.5" fill="rgb(0,0,0)" />
<circle cx="2.78532" cy="3.98805" r="0.5" fill="rgb(0,0,0)" />
<circle cx="15.8935" cy="4.47183" r="0.5" fill="rgb(0,0,0)" />
<circle cx="4.77699" cy="4.35792" r="0.5" fill="rgb(0,0,0)" />
<circle cx="14.5917" cy="4.2594" r="0.5" fill="rgb(0,0,0)" />
<circle cx="9.79121" cy="4.43345" r="0.5" fill="rgb(0,0,0)" />
<circle cx="16.6317" cy="4.43689" r="0.5" fill="rgb(0,0,0)" />
<circle cx="6.34144" cy="4.44343" r="0.5" fill="rgb(0,0,0)" />
<circle cx="16.2986" cy="4.92758" r="0.5" fill="rgb(0,0,0)" />
<circle cx="11.1293" cy="4.13" r="0.5" fill="rgb(0,0,0)" />
<circle cx="10.565" cy="4.88614" r="0.5" fill="rgb(0,0,0)" />
<circle cx="15.9691" cy="0.659642" r="0.5" fill="rgb(0,0,0)" />
<circle cx="15.4969" cy="5.20545" r="0.5" fill="rgb(0,0,0)" />
<circle cx="1.26173" cy="4.86792" r="0.5" fill="rgb(0,0,0)" />
<circle cx="4.57071" cy="5.20683" r="0.5" fill="rgb(0,0,0)" />
<circle cx="16.3029" cy="5.38144" r="0.5" fill="rgb(0,0,0)" />
<circle cx="12.1779" cy="4.97555" r="0.5" fill="rgb(0,0,0)" />
<circle cx="18.4481" cy="1.79056" r="0.5" fill="rgb(0,0,0)" />
<circle cx="2.23012" cy="4.80683" r="0.5" fill="rgb(0,0,0)" />
<circle cx="4.47863" cy="5.90521" r="0.5" fill="rgb(0,0,0)" />
<circle cx="1.55691" cy="5.65886" r="0.5" fill="rgb(0,0,0)" />
<circle cx="5.02084" cy="5.9272" r="0.5" fill="rgb(0,0,0)" />
<circle cx="6.67289" cy="5.57443" r="0.5" fill="rgb(0,0,0)" />
<circle cx="8.85612" cy="5.77737" r="0.5" fill="rgb(0,0,0)" />
<circle cx="17.0849" cy="5.70194" r="0.5" fill="rgb(0,0,0)" />
<circle cx="15.4274" cy="5.90413" r="0.5" fill="rgb(0,0,0)" />
<circle cx="3.15999" cy="5.33456" r="0.5" fill="rgb(0,0,0)" />
<circle cx="10.7419" cy="5.82329" r="0.5" fill="rgb(0,0,0)" />
<circle cx="18.3432" cy="5.61984" r="0.5" fill="rgb(0,0,0)" />
<circle cx="13.0137" cy="5.883" r="0.5" fill="rgb(0,0,0)" />
<circle cx="7.43039" cy="6.10139" r="0.5" fill="rgb(0,0,0)" />
<circle cx="16.2674" cy="6.23258" r="0.5" fill="rgb(0,0,0)" />
<circle cx="6.09632" cy="6.48918" r="0.5" fill="rgb(0,0,0)" />
<circle cx="10.4523" cy="6.54428" r="0.5" fill="rgb(0,0,0)" />
<circle cx="17.4551" cy="4.93391" r="0.5" fill="rgb(0,0,0)" />
<circle cx="5.21114" cy="6.61133" r="0.5" fill="rgb(0,0,0)" />
<circle cx="3.68692" cy="6.25167" r="0.5" fill="rgb(0,0,0)" />
<circle cx="6.60626" cy="6.89628" r="0.5" fill="rgb(0,0,0)" />
<circle cx="9.39117" cy="6.63023" r="0.5" fill="rgb(0,0,0)" />
<circle cx="0.914015" cy="6.25207" r="0.5" fill="rgb(0,0,0)" />
<circle cx="18.1717" cy="6.89796" r="0.5" fill="rgb(0,0,0)" />
<circle cx="1.54912" cy="7.19729" r="0.5" fill="rgb(0,0,0)" />
<circle cx="6.57492" cy="7.56178" r="0.5" fill="rgb(0,0,0)" />
<circle cx="12.8293" cy="3.369" r="0.5" fill="rgb(0,0,0)" />
<circle cx="10.1691" cy="7.46094" r="0.5" fill="rgb(0,0,0)" />
<circle cx="8.94763" cy="7.48915" r="0.5" fill="rgb(0,0,0)" />
<circle cx="17.0424" cy="7.59318" r="0.5" fill="rgb(0,0,0)" />
<circle cx="0.649549" cy="3.70446" r="0.5" fill="rgb(0,0,0)" />
<circle cx="6.08349" cy="8.14259" r="0.5" fill="rgb(0,0,0)" />
<circle cx="7.89543" cy="8.17841" r="0.5" fill="rgb(0,0,0)" />
<circle cx="13.5254" cy="7.99729" r="0.5" fill="rgb(0,0,0)" />
<circle cx="3.44441" cy="7.95087" r="0.5" fill="rgb(0,0,0)" />
<circle cx="7.18093" cy="8.11207" r="0.5" fill="rgb(0,0,0)" />
<circle cx="9.48815" cy="8.65581" r="0.5" fill="rgb(0,0,0)" />
<circle cx="16.7434" cy="8.40983" r="0.5" fill="rgb(0,0,0)" />
<circle cx="7.88604" cy="1.71199" r="0.5" fill="rgb(0,0,0)" />
<circle cx="18.0359" cy="7.96778" r="0.5" fill="rgb(0,0,0)" />
<circle cx="12.838" cy="8.45843" r="0.5" fill="rgb(0,0,0)" />
<circle cx="2.79531" cy="8.49913" r="0.5" fill="rgb(0,0,0)" />
<circle cx="2.26608" cy="3.14264" r="0.5" fill="rgb(0,0,0)" />
<circle cx="15.7821" cy="8.51142" r="0.5" fill="rgb(0,0,0)" />
<circle cx="4.06865" cy="8.70405" r="0.5" fill="rgb(0,0,0)" />
<circle cx="14.7053" cy="8.63439" r="0.5" fill="rgb(0,0,0)" />
<circle cx="8.21145" cy="8.85892" r="0.5" fill="rgb(0,0,0)" />
<circle cx="7.36153" cy="9.03486" r="0.5" fill="rgb(0,0,0)" />
<circle cx="15.3222" cy="9.12387" r="0.5" fill="rgb(0,0,0)" />
<circle cx="6.25155" cy="9.01607" r="0.5" fill="rgb(0,0,0)" />
<circle cx="9.87802" cy="5.55548" r="0.5" fill="rgb(0,0,0)" />
<circle cx="13.8681" cy="9.05383" r="0.5" fill="rgb(0,0,0)" />
<circle cx="2.51857" cy="9.31241" r="0.5" fill="rgb(0,0,0)" />
<circle cx="3.45011" cy="9.46957" r="0.5" fill="rgb(0,0,0)" />
<circle cx="5.11932" cy="8.58406" r="0.5" fill="rgb(0,0,0)" />
<circle cx="1.52685" cy="9.21853" r="0.5" fill="rgb(0,0,0)" />
<circle cx="12.4457" cy="9.20932" r="0.5" fill="rgb(0,0,0)" />
<circle cx="11.1266" cy="9.08303" r="0.5" fill="rgb(0,0,0)" />
<circle cx="0.513991" cy="8.57878" r="0.5" fill="rgb(0,0,0)" />
<circle cx="16.9892" cy="9.26622" r="0.5" fill="rgb(0,0,0)" />
<circle cx="8.06013" cy="9.91532" r="0.5" fill="rgb(0,0,0)" />
<circle cx="3.75146" cy="10.1463" r="0.5" fill="rgb(0,0,0)" />
<circle cx="6.83369" cy="2.10141" r="0.5" fill="rgb(0,0,0)" />
<circle cx="14.7151" cy="9.80696" r="0.5" fill="rgb(0,0,0)" />
<circle cx="5.65388" cy="10.0138" r="0.5" fill="rgb(0,0,0)" />
<circle cx="6.12133" cy="1.70448" r="0.5" fill="rgb(0,0,0)" />
<circle cx="1.93217" cy="8.43055" r="0.5" fill="rgb(0,0,0)" />
<circle cx="1.90546" cy="10.0669" r="0.5" fill="rgb(0,0,0)" />
<circle cx="11.7876" cy="2.8018" r="0.5" fill="rgb(0,0,0)" />
<circle cx="13.8059" cy="4.42496" r="0.5" fill="rgb(0,0,0)" />
<circle cx="4.51623" cy="10.2537" r="0.5" fill="rgb(0,0,0)" />
<circle cx="6.29265" cy="10.1859" r="0.5" fill="rgb(0,0,0)" />
<circle cx="6.73142" cy="10.0553" r="0.5" fill="rgb(0,0,0)" />
<circle cx="7.11992" cy="10.4423" r="0.5" fill="rgb(0,0,0)" />
<circle cx="13.4378" cy="1.02277" r="0.5" fill="rgb(0,0,0)" />
<circle cx="7.57576" cy="10.8038" r="0.5" fill="rgb(0,0,0)" />
<circle cx="9.02039" cy="9.84298" r="0.5" fill="rgb(0,0,0)" />
<circle cx="0.308064" cy="4.34891" r="0.5" fill="rgb(0,0,0)" />
<circle cx="0.383534" cy="6.99966" r="0.5" fill="rgb(0,0,0)" />
<circle cx="0.355837" cy="5.35095" r="0.5" fill="rgb(0,0,0)" />
<circle cx="2.76772" cy="7.05824" r="0.5" fill="rgb(0,0,0)" />
<circle cx="9.14148" cy="10.7144" r="0.5" fill="rgb(0,0,0)" />
<circle cx="8.38173" cy="10.805" r="0.5" fill="rgb(0,0,0)" />
<circle cx="16.9672" cy="10.4962" r="0.5" fill="rgb(0,0,0)" />
<circle cx="0.270919" cy="9.46305" r="0.5" fill="rgb(0,0,0)" />
<circle cx="14.468" cy="7.78876" r="0.5" fill="rgb(0,0,0)" />
<circle cx="14.1914" cy="10.8758" r="0.5" fill="rgb(0,0,0)" />
<circle cx="4.42505" cy="10.978" r="0.5" fill="rgb(0,0,0)" />
<circle cx="10.0881" cy="10.2709" r="0.5" fill="rgb(0,0,0)" />
<circle cx="12.0311" cy="1.87301" r="0.5" fill="rgb(0,0,0)" />
<circle cx="10.9102" cy="10.5939" r="0.5" fill="rgb(0,0,0)" />
<circle cx="15.0703" cy="11.2452" r="0.5" fill="rgb(0,0,0)" />
<circle cx="7.71023" cy="2.71252" r="0.5" fill="rgb(0,0,0)" />
<circle cx="1.28562" cy="10.9892" r="0.5" fill="rgb(0,0,0)" />
<circle cx="8.10898" cy="11.5384" r="0.5" fill="rgb(0,0,0)" />
<circle cx="5.77352" cy="2.39935" r="0.5" fill="rgb(0,0,0)" />
<circle cx="7.12675" cy="4.79026" r="0.5" fill="rgb(0,0,0)" />
<circle cx="9.21247" cy="8.21973" r="0.5" fill="rgb(0,0,0)" />
<circle cx="7.23144" cy="11.5922" r="0.5" fill="rgb(0,0,0)" />
<circle cx="6.31184" cy="11.6033" r="0.5" fill="rgb(0,0,0)" />
<circle cx="14.5248" cy="12.0777" r="0.5" fill="rgb(0,0,0)" />
<circle cx="9.39578" cy="11.6859" r="0.5" fill="rgb(0,0,0)" />
<circle cx="16.1056" cy="7.47272" r="0.5" fill="rgb(0,0,0)" />
<circle cx="11.5706" cy="11.5683" r="0.5" fill="rgb(0,0,0)" />
<circle cx="2.11426" cy="11.8525" r="0.5" fill="rgb(0,0,0)" />
<circle cx="13.5525" cy="12.0748" r="0.5" fill="rgb(0,0,0)" />
<circle cx="4.2535" cy="12.0288" r="0.5" fill="rgb(0,0,0)" />
<circle cx="10.369" cy="1.28773" r="0.5" fill="rgb(0,0,0)" />
<circle cx="17.5506" cy="12.4044" r="0.5" fill="rgb(0,0,0)" />
<circle cx="10.45" cy="2.75724" r="0.5" fill="rgb(0,0,0)" />
<circle cx="10.5453" cy="12.1639" r="0.5" fill="rgb(0,0,0)" />
<circle cx="15.7901" cy="12.039" r="0.5" fill="rgb(0,0,0)" />
<circle cx="14.4935" cy="12.9076" r="0.5" fill="rgb(0,0,0)" />
<circle cx="16.7326" cy="11.8988" r="0.5" fill="rgb(0,0,0)" />
<circle cx="15.3219" cy="12.7337" r="0.5" fill="rgb(0,0,0)" />
<circle cx="5.02982" cy="12.398" r="0.5" fill="rgb(0,0,0)" />
<circle cx="9.58438" cy="12.5783" r="0.5" fill="rgb(0,0,0)" />
<circle cx="1.50784" cy="12.4443" r="0.5" fill="rgb(0,0,0)" />
<circle cx="13.0755" cy="2.62511" r="0.5" fill="rgb(0,0,0)" />
<circle cx="8.47141" cy="12.9799" r="0.5" fill="rgb(0,0,0)" />
<circle cx="5.81297" cy="5.87765" r="0.5" fill="rgb(0,0,0)" />
<circle cx="13.5065" cy="13.1367" r="0.5" fill="rgb(0,0,0)" />
<circle cx="5.65415" cy="13.072" r="0.5" fill="rgb(0,0,0)" />
<circle cx="4.93606" cy="9.5569" r="0.5" fill="rgb(0,0,0)" />
<circle cx="3.52519" cy="11.3254" r="0.5" fill="rgb(0,0,0)" />
<circle cx="14.0947" cy="13.2536" r="0.5" fill="rgb(0,0,0)" />
<circle cx="10.3405" cy="13.3838" r="0.5" fill="rgb(0,0,0)" />
<circle cx="18.3305" cy="8.79229" r="0.5" fill="rgb(0,0,0)" />
<circle cx="12.8897" cy="13.6235" r="0.5" fill="rgb(0,0,0)" />
<circle cx="12.4142" cy="12.8352" r="0.5" fill="rgb(0,0,0)" />
<circle cx="3.96789" cy="13.3571" r="0.5" fill="rgb(0,0,0)" />
<circle cx="5.85929" cy="0.370705" r="0.5" fill="rgb(0,0,0)" />
<circle cx="4.78323" cy="13.695" r="0.5" fill="rgb(0,0,0)" />
<circle cx="11.2184" cy="7.36393" r="0.5" fill="rgb(0,0,0)" />
<circle cx="7.87095" cy="13.7642" r="0.5" fill="rgb(0,0,0)" />
<circle cx="11.4283" cy="13.229" r="0.5" fill="rgb(0,0,0)" />
<circle cx="2.5528" cy="13.3334" r="0.5" fill="rgb(0,0,0)" />
<circle cx="15.0935" cy="4.89214" r="0.5" fill="rgb(0,0,0)" />
<circle cx="9.22418" cy="13.6667" r="0.5" fill="rgb(0,0,0)" />
<circle cx="17.1686" cy="6.67754" r="0.5" fill="rgb(0,0,0)" />
<circle cx="13.5282" cy="14.1871" r="0.5" fill="rgb(0,0,0)" />
<circle cx="5.51242" cy="14.028" r="0.5" fill="rgb(0,0,0)" />
<circle cx="3.9005" cy="4.46586" r="0.5" fill="rgb(0,0,0)" />
<circle cx="14.6234" cy="13.6254" r="0.5" fill="rgb(0,0,0)" />
<circle cx="16.2003" cy="13.572" r="0.5" fill="rgb(0,0,0)" />
<circle cx="3.27737" cy="14.2465" r="0.5" fill="rgb(0,0,0)" />
<circle cx="1.39762" cy="13.9306" r="0.5" fill="rgb(0,0,0)" />
<circle cx="15.5706" cy="6.77075" r="0.5" fill="rgb(0,0,0)" />
<circle cx="17.1412" cy="14.1235" r="0.5" fill="rgb(0,0,0)" />
<circle cx="18.1905" cy="11.3985" r="0.5" fill="rgb(0,0,0)" />
<circle cx="11.8045" cy="8.17102" r="0.5" fill="rgb(0,0,0)" />
<circle cx="7.55479" cy="12.6181" r="0.5" fill="rgb(0,0,0)" />
<circle cx="18.2896" cy="9.87901" r="0.5" fill="rgb(0,0,0)" />
<circle cx="6.89628" cy="13.9425" r="0.5" fill="rgb(0,0,0)" />
<circle cx="5.61096" cy="1.30929" r="0.5" fill="rgb(0,0,0)" />
<circle cx="5.06955" cy="14.5508" r="0.5" fill="rgb(0,0,0)" />
<circle cx="15.4309" cy="14.4939" r="0.5" fill="rgb(0,0,0)" />
<circle cx="9.57739" cy="2.63355" r="0.5" fill="rgb(0,0,0)" />
<circle cx="6.13323" cy="14.3925" r="0.5" fill="rgb(0,0,0)" />
<circle cx="13.5196" cy="1.71888" r="0.5" fill="rgb(0,0,0)" />
<circle cx="8.50054" cy="14.4044" r="0.5" fill="rgb(0,0,0)" />
<circle cx="4.21683" cy="14.5413" r="0.5" fill="rgb(0,0,0)" />
<circle cx="8.39668" cy="6.63849" r="0.5" fill="rgb(0,0,0)" />
<circle cx="12.55" cy="14.3988" r="0.5" fill="rgb(0,0,0)" />
<circle cx="17.6642" cy="3.95513" r="0.5" fill="rgb(0,0,0)" />
<circle cx="7.51713" cy="14.637" r="0.5" fill="rgb(0,0,0)" />
<circle cx="1.94011" cy="14.5932" r="0.5" fill="rgb(0,0,0)" />
<circle cx="3.94699" cy="15.1765" r="0.5" fill="rgb(0,0,0)" />
<circle cx="4.55891" cy="2.07085" r="0.5" fill="rgb(0,0,0)" />
<circle cx="13.4833" cy="15.0524" r="0.5" fill="rgb(0,0,0)" />
<circle cx="4.90741" cy="15.2003" r="0.5" fill="rgb(0,0,0)" />
<circle cx="3.22632" cy="15.1376" r="0.5" fill="rgb(0,0,0)" />
<circle cx="10.1449" cy="14.795" r="0.5" fill="rgb(0,0,0)" />
<circle cx="11.0376" cy="14.4897" r="0.5" fill="rgb(0,0,0)" />
<circle cx="17.889" cy="1.08135" r="0.5" fill="rgb(0,0,0)" />
<circle cx="14.0713" cy="5.1375" r="0.5" fill="rgb(0,0,0)" />
<circle cx="0.794997" cy="15.1942" r="0.5" fill="rgb(0,0,0)" />
<circle cx="18.007" cy="14.7313" r="0.5" fill="rgb(0,0,0)" />
<circle cx="9.07758" cy="14.9109" r="0.5" fill="rgb(0,0,0)" />
<circle cx="7.7699" cy="15.2474" r="0.5" fill="rgb(0,0,0)" />
<circle cx="14.4784" cy="5.70873" r="0.5" fill="rgb(0,0,0)" />
<circle cx="5.58232" cy="15.3851" r="0.5" fill="rgb(0,0,0)" />
<circle cx="6.55048" cy="15.3309" r="0.5" fill="rgb(0,0,0)" />
<circle cx="4.26322" cy="7.42817" r="0.5" fill="rgb(0,0,0)" />
<circle cx="16.9969" cy="15.2545" r="0.5" fill="rgb(0,0,0)" />
<circle cx="2.53556" cy="15.231" r="0.5" fill="rgb(0,0,0)" />
<circle cx="15.0613" cy="15.3323" r="0.5" fill="rgb(0,0,0)" />
<circle cx="16.8161" cy="2.62334" r="0.5" fill="rgb(0,0,0)" />
<circle cx="16.0547" cy="15.222" r="0.5" fill="rgb(0,0,0)" />
<circle cx="14.3299" cy="14.3731" r="0.5" fill="rgb(0,0,0)" />
<circle cx="4.68941" cy="15.8173" r="0.5" fill="rgb(0,0,0)" />
<circle cx="11.2067" cy="0.658068" r="0.5" fill="rgb(0,0,0)" />
<circle cx="1.93276" cy="15.9949" r="0.5" fill="rgb(0,0,0)" />
<circle cx="1.3204" cy="15.6503" r="0.5" fill="rgb(0,0,0)" />
<circle cx="8.35154" cy="0.565614" r="0.5" fill="rgb(0,0,0)" />
<circle cx="1.20988" cy="7.93277" r="0.5" fill="rgb(0,0,0)" />
<circle cx="5.67283" cy="16.078" r="0.5" fill="rgb(0,0,0)" />
<circle cx="12.8501" cy="11.3816" r="0.5" fill="rgb(0,0,0)" />
<circle cx="14.2708" cy="15.7164" r="0.5" fill="rgb(0,0,0)" />
<circle cx="14.5262" cy="6.65457" r="0.5" fill="rgb(0,0,0)" />
<circle cx="12.0757" cy="15.5859" r="0.5" fill="rgb(0,0,0)" />
<circle cx="13.2653" cy="15.7754" r="0.5" fill="rgb(0,0,0)" />
<circle cx="8.21793" cy="15.8717" r="0.5" fill="rgb(0,0,0)" />
<circle cx="3.3358" cy="15.9444" r="0.5" fill="rgb(0,0,0)" />
<circle cx="4.01959" cy="16.0639" r="0.5" fill="rgb(0,0,0)" />
<circle cx="1.36011" cy="16.7296" r="0.5" fill="rgb(0,0,0)" />
<circle cx="12.2843" cy="4.05435" r="0.5" fill="rgb(0,0,0)" />
<circle cx="15.0527" cy="16.4572" r="0.5" fill="rgb(0,0,0)" />
<circle cx="17.9393" cy="12.9123" r="0.5" fill="rgb(0,0,0)" />
<circle cx="6.496" cy="16.4644" r="0.5" fill="rgb(0,0,0)" />
<circle cx="16.3609" cy="16.3036" r="0.5" fill="rgb(0,0,0)" />
<circle cx="7.20197" cy="16.2547" r="0.5" fill="rgb(0,0,0)" />
<circle cx="3.11256" cy="3.05409" r="0.5" fill="rgb(0,0,0)" />
<circle cx="2.82956" cy="16.5987" r="0.5" fill="rgb(0,0,0)" />
<circle cx="5.57039" cy="11.1153" r="0.5" fill="rgb(0,0,0)" />
<circle cx="2.02951" cy="16.9273" r="0.5" fill="rgb(0,0,0)" />
<circle cx="17.4422" cy="16.3951" r="0.5" fill="rgb(0,0,0)" />
<circle cx="4.38959" cy="6.62116" r="0.5" fill="rgb(0,0,0)" />
<circle cx="12.4528" cy="7.14259" r="0.5" fill="rgb(0,0,0)" />
<circle cx="10.6724" cy="16.3669" r="0.5" fill="rgb(0,0,0)" />
<circle cx="1.41378" cy="17.3843" r="0.5" fill="rgb(0,0,0)" />
<circle cx="11.3689" cy="16.8686" r="0.5" fill="rgb(0,0,0)" />
<circle cx="4.67006" cy="16.6968" r="0.5" fill="rgb(0,0,0)" />
<circle cx="5.60045" cy="16.7507" r="0.5" fill="rgb(0,0,0)" />
<circle cx="14.1155" cy="16.9091" r="0.5" fill="rgb(0,0,0)" />
<circle cx="18.3151" cy="16.1574" r="0.5" fill="rgb(0,0,0)" />
<circle cx="0.597529" cy="16.9708" r="0.5" fill="rgb(0,0,0)" />
<circle cx="5.41837" cy="7.47501" r="0.5" fill="rgb(0,0,0)" />
<circle cx="15.7603" cy="17.0944" r="0.5" fill="rgb(0,0,0)" />
<circle cx="12.3649" cy="17.3017" r="0.5" fill="rgb(0,0,0)" />
<circle cx="7.79389" cy="17.0765" r="0.5" fill="rgb(0,0,0)" />
<circle cx="0.605748" cy="10.2013" r="0.5" fill="rgb(0,0,0)" />
<circle cx="16.9537" cy="17.3338" r="0.5" fill="rgb(0,0,0)" />
<circle cx="12.6135" cy="1.26509" r="0.5" fill="rgb(0,0,0)" />
<circle cx="5.95833" cy="17.2187" r="0.5" fill="rgb(0,0,0)" />
<circle cx="3.25336" cy="10.4779" r="0.5" fill="rgb(0,0,0)" />
<circle cx="8.91976" cy="17.4044" r="0.5" fill="rgb(0,0,0)" />
<circle cx="1.55948" cy="3.69203" r="0.5" fill="rgb(0,0,0)" />
<circle cx="15.707" cy="10.567" r="0.5" fill="rgb(0,0,0)" />
<circle cx="14.2501" cy="17.9142" r="0.5" fill="rgb(0,0,0)" />
<circle cx="11.6974" cy="17.6139" r="0.5" fill="rgb(0,0,0)" />
<circle cx="15.9495" cy="17.8491" r="0.5" fill="rgb(0,0,0)" />
<circle cx="1.29067" cy="17.8634" r="0.5" fill="rgb(0,0,0)" />
<circle cx="5.35528" cy="3.80146" r="0.5" fill="rgb(0,0,0)" />
<circle cx="9.95393" cy="15.6297" r="0.5" fill="rgb(0,0,0)" />
<circle cx="15.0983" cy="18.0571" r="0.5" fill="rgb(0,0,0)" />
<circle cx="1.88232" cy="17.8191" r="0.5" fill="rgb(0,0,0)" />
<circle cx="15.2846" cy="7.61627" r="0.5" fill="rgb(0,0,0)" />
<circle cx="6.63565" cy="17.5944" r="0.5" fill="rgb(0,0,0)" />
<circle cx="13.5762" cy="6.9346" r="0.5" fill="rgb(0,0,0)" />
<circle cx="9.8957" cy="17.3921" r="0.5" fill="rgb(0,0,0)" />
<circle cx="3.21307" cy="17.5544" r="0.5" fill="rgb(0,0,0)" />
<circle cx="10.9666" cy="17.8709" r="0.5" fill="rgb(0,0,0)" />
<circle cx="7.93533" cy="17.9529" r="0.5" fill="rgb(0,0,0)" />
<circle cx="14.1266" cy="2.27037" r="0.5" fill="rgb(0,0,0)" />
<circle cx="5.98419" cy="3.30426" r="0.5" fill="rgb(0,0,0)" />
<circle cx="6.5185" cy="12.4299" r="0.5" fill="rgb(0,0,0)" />
<circle cx="18.3765" cy="17.2647" r="0.5" fill="rgb(0,0,0)" />
<circle cx="13.2067" cy="4.74847" r="0.5" fill="rgb(0,0,0)" />
<circle cx="12.999" cy="17.995" r="0.5" fill="rgb(0,0,0)" />
<circle cx="17.7656" cy="17.9766" r="0.5" fill="rgb(0,0,0)" />
<circle cx="2.41959" cy="17.731" r="0.5" fill="rgb(0,0,0)" />
<circle cx="15.834" cy="9.58531" r="0.5" fill="rgb(0,0,0)" />
<circle cx="9.03821" cy="16.3434" r="0.5" fill="rgb(0,0,0)" />
<circle cx="18.4105" cy="18.3621" r="0.5" fill="rgb(0,0,0)" />
<circle cx="1.01981" cy="13.231" r="0.5" fill="rgb(0,0,0)" />
<circle cx="18.5037" cy="4.50806" r="0.5" fill="rgb(0,0,0)" />
<circle cx="13.6482" cy="10.3078" r="0.5" fill="rgb(0,0,0)" />
<circle cx="18.4416" cy="3.23595" r="0.5" fill="rgb(0,0,0)" />
<circle cx="16.388" cy="1.61256" r="0.5" fill="rgb(0,0,0)" />
<circle cx="13.425" cy="17.2693" r="0.5" fill="rgb(0,0,0)" />
<circle cx="4.11192" cy="18.0843" r="0.5" fill="rgb(0,0,0)" />
<circle cx="4.07146" cy="9.56872" r="0.5" fill="rgb(0,0,0)" />
<circle cx="17.0818" cy="18.3968" r="0.5" fill="rgb(0,0,0)" />
<circle cx="13.5863" cy="18.4947" r="0.5" fill="rgb(0,0,0)" />
<circle cx="12.1748" cy="18.3496" r="0.5" fill="rgb(0,0,0)" />
<circle cx="5.19086" cy="18.2113" r="0.5" fill="rgb(0,0,0)" />
<circle cx="13.031" cy="9.79697" r="0.5" fill="rgb(0,0,0)" />
<circle cx="10.175" cy="14.0164" r="0.5" fill="rgb(0,0,0)" />
<circle cx="12.6788" cy="16.424" r="0.5" fill="rgb(0,0,0)" />
<circle cx="4.23711" cy="17.2447" r="0.5" fill="rgb(0,0,0)" />
<circle cx="0.413954" cy="11.6548" r="0.5" fill="rgb(0,0,0)" />
<circle cx="0.297638" cy="13.0058" r="0.5" fill="rgb(0,0,0)" />
<circle cx="16.4326" cy="18.5547" r="0.5" fill="rgb(0,0,0)" />
<circle cx="14.2432" cy="18.6297" r="0.5" fill="rgb(0,0,0)" />
<circle cx="14.7232" cy="18.6294" r="0.5" fill="rgb(0,0,0)" />
<circle cx="10.1531" cy="8.41152" r="0.5" fill="rgb(0,0,0)" />
<circle cx="8.92863" cy="18.462" r="0.5" fill="rgb(0,0,0)" />
<circle cx="18.6288" cy="15.2346" r="0.5" fill="rgb(0,0,0)" />
<circle cx="18.5577" cy="13.2924" r="0.5" fill="rgb(0,0,0)" />
<circle cx="8.60435" cy="8.23866" r="0.5" fill="rgb(0,0,0)" />
<circle cx="10.1676" cy="18.4551" r="0.5" fill="rgb(0,0,0)" />
<circle cx="0.360115" cy="16.0843" r="0.5" fill="rgb(0,0,0)" />
<circle cx="8.81953" cy="2.69865" r="0.5" fill="rgb(0,0,0)" />
<circle cx="2.89105" cy="9.76794" r="0.5" fill="rgb(0,0,0)" />
<circle cx="0.369693" cy="14.4981" r="0.5" fill="rgb(0,0,0)" />
<circle cx="12.668" cy="18.7173" r="0.5" fill="rgb(0,0,0)" />
<circle cx="11.3327" cy="18.601" r="0.5" fill="rgb(0,0,0)" />
<circle cx="17.2379" cy="13.3096" r="0.5" fill="rgb(0,0,0)" />
<circle cx="7.68793" cy="18.5931" r="0.5" fill="rgb(0,0,0)" />
<circle cx="5.87497" cy="5.14176" r="0.5" fill="rgb(0,0,0)" />
<circle cx="6.44114" cy="18.5083" r="0.5" fill="rgb(0,0,0)" />
<circle cx="15.1587" cy="18.6634" r="0.5" fill="rgb(0,0,0)" />
<circle cx="15.7723" cy="18.6052" r="0.5" fill="rgb(0,0,0)" />
<circle cx="3.61863" cy="3.62965" r="0.5" fill="rgb(0,0,0)" />
<circle cx="18.8016" cy="8.09203" r="0.5" fill="rgb(0,0,0)" />
<circle cx="15.4192" cy="3.89322" r="0.5" fill="rgb(0,0,0)" />
<circle cx="2.58183" cy="11.0582" r="0.5" fill="rgb(0,0,0)" />
<circle cx="18.7305" cy="6.56821" r="0.5" fill="rgb(0,0,0)" />
<circle cx="3.02198" cy="1.863" r="0.5" fill="rgb(0,0,0)" />
<circle cx="8.5825" cy="9.2789" r="0.5" fill="rgb(0,0,0)" />
<circle cx="11.9724" cy="10.2077" r="0.5" fill="rgb(0,0,0)" />
<circle cx="3.19438" cy="12.3539" r="0.5" fill="rgb(0,0,0)" />
<circle cx="15.3004" cy="13.6269" r="0.5" fill="rgb(0,0,0)" />
<circle cx="3.41678" cy="18.5734" r="0.5" fill="rgb(0,0,0)" />
<circle cx="8.08999" cy="4.90772" r="0.5" fill="rgb(0,0,0)" />
<circle cx="2.37337" cy="0.414649" r="0.5" fill="rgb(0,0,0)" />
<circle cx="5.40826" cy="4.58823" r="0.5" fill="rgb(0,0,0)" />
<circle cx="7.67384" cy="7.1846" r="0.5" fill="rgb(0,0,0)" />
<circle cx="11.5662" cy="14.927" r="0.5" fill="rgb(0,0,0)" />
<circle cx="0.23316" cy="2.58437" r="0.5" fill="rgb(0,0,0)" />
<circle cx="8.48177" cy="12.0035" r="0.5" fill="rgb(0,0,0)" />
<circle cx="0.619051" cy="0.768298" r="0.5" fill="rgb(0,0,0)" />
<circle cx="0.207745" cy="17.7995" r="0.5" fill="rgb(0,0,0)" />
<circle cx="0.517615" cy="18.3576" r="0.5" fill="rgb(0,0,0)" />
<circle cx="9.5661" cy="9.24079" r="0.5" fill="rgb(0,0,0)" />
<circle cx="7.33745" cy="9.71928" r="0.5" fill="rgb(0,0,0)" />
<circle cx="1.96331" cy="18.6182" r="0.5" fill="rgb(0,0,0)" />
<circle cx="11.6222" cy="5.84389" r="0.5" fill="rgb(0,0,0)" />
<circle cx="1.04326" cy="18.5425" r="0.5" fill="rgb(0,0,0)" />
<circle cx="9.17412" cy="4.98891" r="0.5" fill="rgb(0,0,0)" />
<circle cx="18.1003" cy="18.7406" r="0.5" fill="rgb(0,0,0)" />
<circle cx="18.7857" cy="18.2213" r="0.5" fill="rgb(0,0,0)" />
<circle cx="14.8678" cy="17.4425" r="0.5" fill="rgb(0,0,0)" />
<circle cx="18.5546" cy="0.44053" r="0.5" fill="rgb(0,0,0)" />
<circle cx="2.08588" cy="6.31834" r="0.5" fill="rgb(0,0,0)" />
<circle cx="6.51925" cy="13.1553" r="0.5" fill="rgb(0,0,0)" />
<circle cx="17.2354" cy="0.398535" r="0.5" fill="rgb(0,0,0)" />
</svg>
