<?xml version="1.0" ?>
<!DOCTYPE svg PUBLIC "-//W3C//DTD SVG 1.1//EN" "http://www.w3.org/Graphics/SVG/1.1/DTD/svg11.dtd">
<svg width="20" height="20" version="1.1" xmlns="http://www.w3.org/2000/svg">
<circle cx="6.00539" cy="0.412922" r="0.5" fill="rgb(0,0,0)" />
<circle cx="15.4082" cy="0.498577" r="0.5" fill="rgb(0,0,0)" />
<circle cx="10.5615" cy="0.648084" r="0.5" fill="rgb(0,0,0)" />
<circle cx="5.68135" cy="1.45943" r="0.5" fill="rgb(0,0,0)" />
<circle cx="16.2987" cy="1.79266" r="0.5" fill="rgb(0,0,0)" />
<circle cx="3.85645" cy="1.92344" r="0.5" fill="rgb(0,0,0)" />
<circle cx="2.00731" cy="2.04855" r="0.5" fill="rgb(0,0,0)" />
<circle cx="5.92757" cy="2.41881" r="0.5" fill="rgb(0,0,0)" />
<circle cx="4.88069" cy="2.73801" r="0.5" fill="rgb(0,0,0)" />
<circle cx="7.79595" cy="2.30262" r="0.5" fill="rgb(0,0,0)" />
<circle cx="18.4146" cy="0.597556" r="0.5" fill="rgb(0,0,0)" />
<circle cx="14.4419" cy="3.11362" r="0.5" fill="rgb(0,0,0)" />
<circle cx="4.0601" cy="3.56896" r="0.5" fill="rgb(0,0,0)" />
<circle cx="6.26844" cy="3.65472" r="0.5" fill="rgb(0,0,0)" />
<circle cx="3.16138" cy="3.11695" r="0.5" fill="rgb(0,0,0)" />
<circle cx="15.4189" cy="2.49656" r="0.5" fill="rgb(0,0,0)" />
<circle cx="2.02267" cy="3.51337" r="0.5" fill="rgb(0,0,0)" />
<circle cx="10.069" cy="3.70342" r="0.5" fill="rgb(0,0,0)" />
<circle cx="13.2042" cy="3.68773" r="0.5" fill="rgb(0,0,0)" />
<circle cx="8.66805" cy="3.57141" r="0.5" fill="rgb(0,0,0)" />
<circle cx="17.582" cy="4.2597" r="0.5" fill="rgb(0,0,0)" />
<circle cx="16.2724" cy="4.47475" r="0.5" fill="rgb(0,0,0)" />
<circle cx="6.45734" cy="4.76934" r="0.5" fill="rgb(0,0,0)" />
<circle cx="3.99455" cy="4.65601" r="0.5" fill="rgb(0,0,0)" />
<circle cx="13.9879" cy="4.50061" r="0.5" fill="rgb(0,0,0)" />
<circle cx="5.30146" cy="4.78655" r="0.5" fill="rgb(0,0,0)" />
<circle cx="8.07614" cy="4.82731" r="0.5" fill="rgb(0,0,0)" />
<circle cx="6.50219" cy="5.65368" r="0.5" fill="rgb(0,0,0)" />
<circle cx="16.9831" cy="5.56621" r="0.5" fill="rgb(0,0,0)" />
<circle cx="12.3702" cy="5.51776" r="0.5" fill="rgb(0,0,0)" />
<circle cx="15.7391" cy="6.04046" r="0.5" fill="rgb(0,0,0)" />
<circle cx="11.6571" cy="2.58078" r="0.5" fill="rgb(0,0,0)" />
<circle cx="7.56353" cy="6.04575" r="0.5" fill="rgb(0,0,0)" />
<circle cx="4.12976" cy="5.89016" r="0.5" fill="rgb(0,0,0)" />
<circle cx="9.14521" cy="6.12025" r="0.5" fill="rgb(0,0,0)" />
<circle cx="10.3848" cy="2.47266" r="0.5" fill="rgb(0,0,0)" />
<circle cx="6.64477" cy="6.83963" r="0.5" fill="rgb(0,0,0)" />
<circle cx="17.9179" cy="6.71791" r="0.5" fill="rgb(0,0,0)" />
<circle cx="8.089" cy="7.086" r="0.5" fill="rgb(0,0,0)" />
<circle cx="12.7964" cy="7.01314" r="0.5" fill="rgb(0,0,0)" />
<circle cx="6.38793" cy="7.65717" r="0.5" fill="rgb(0,0,0)" />
<circle cx="1.19847" cy="7.98464" r="0.5" fill="rgb(0,0,0)" />
<circle cx="14.3638" cy="7.16285" r="0.5" fill="rgb(0,0,0)" />
<circle cx="15.6224" cy="7.33769" r="0.5" fill="rgb(0,0,0)" />
<circle cx="2.61809" cy="8.18067" r="0.5" fill="rgb(0,0,0)" />
<circle cx="9.08889" cy="7.86307" r="0.5" fill="rgb(0,0,0)" />
<circle cx="16.2872" cy="8.58376" r="0.5" fill="rgb(0,0,0)" />
<circle cx="2.55002" cy="9.19098" r="0.5" fill="rgb(0,0,0)" />
<circle cx="2.54519" cy="4.95062" r="0.5" fill="rgb(0,0,0)" />
<circle cx="5.98782" cy="8.63156" r="0.5" fill="rgb(0,0,0)" />
<circle cx="3.80877" cy="8.87995" r="0.5" fill="rgb(0,0,0)" />
<circle cx="14.3263" cy="1.0021" r="0.5" fill="rgb(0,0,0)" />
<circle cx="4.98806" cy="9.04634" r="0.5" fill="rgb(0,0,0)" />
<circle cx="13.6296" cy="8.43047" r="0.5" fill="rgb(0,0,0)" />
<circle cx="12.1992" cy="8.47323" r="0.5" fill="rgb(0,0,0)" />
<circle cx="3.03653" cy="9.70209" r="0.5" fill="rgb(0,0,0)" />
<circle cx="8.19023" cy="0.522966" r="0.5" fill="rgb(0,0,0)" />
<circle cx="14.6241" cy="9.30405" r="0.5" fill="rgb(0,0,0)" />
<circle cx="11.3838" cy="9.37307" r="0.5" fill="rgb(0,0,0)" />
<circle cx="1.90414" cy="10.3026" r="0.5" fill="rgb(0,0,0)" />
<circle cx="3.26949" cy="10.6291" r="0.5" fill="rgb(0,0,0)" />
<circle cx="13.0307" cy="2.53353" r="0.5" fill="rgb(0,0,0)" />
<circle cx="7.65415" cy="10.4326" r="0.5" fill="rgb(0,0,0)" />
<circle cx="13.5833" cy="10.7158" r="0.5" fill="rgb(0,0,0)" />
<circle cx="7.14609" cy="3.35184" r="0.5" fill="rgb(0,0,0)" />
<circle cx="15.3319" cy="3.85409" r="0.5" fill="rgb(0,0,0)" />
<circle cx="9.71815" cy="9.49926" r="0.5" fill="rgb(0,0,0)" />
<circle cx="12.2408" cy="10.8162" r="0.5" fill="rgb(0,0,0)" />
<circle cx="10.7826" cy="10.9658" r="0.5" fill="rgb(0,0,0)" />
<circle cx="1.88526" cy="6.06059" r="0.5" fill="rgb(0,0,0)" />
<circle cx="4.55232" cy="11.6758" r="0.5" fill="rgb(0,0,0)" />
<circle cx="16.165" cy="12.0019" r="0.5" fill="rgb(0,0,0)" />
<circle cx="14.3489" cy="12.4335" r="0.5" fill="rgb(0,0,0)" />
<circle cx="2.66687" cy="12.0937" r="0.5" fill="rgb(0,0,0)" />
<circle cx="6.19671" cy="12.4167" r="0.5" fill="rgb(0,0,0)" />
<circle cx="12.5874" cy="12.5895" r="0.5" fill="rgb(0,0,0)" />
<circle cx="11.3277" cy="7.02034" r="0.5" fill="rgb(0,0,0)" />
<circle cx="9.06991" cy="12.3031" r="0.5" fill="rgb(0,0,0)" />
<circle cx="15.13" cy="13.4185" r="0.5" fill="rgb(0,0,0)" />
<circle cx="7.78683" cy="12.3523" r="0.5" fill="rgb(0,0,0)" />
<circle cx="10.7203" cy="13.4325" r="0.5" fill="rgb(0,0,0)" />
<circle cx="4.30918" cy="13.248" r="0.5" fill="rgb(0,0,0)" />
<circle cx="3.24567" cy="7.04243" r="0.5" fill="rgb(0,0,0)" />
<circle cx="16.5273" cy="13.5608" r="0.5" fill="rgb(0,0,0)" />
<circle cx="13.9911" cy="13.9937" r="0.5" fill="rgb(0,0,0)" />
<circle cx="1.99915" cy="13.8511" r="0.5" fill="rgb(0,0,0)" />
<circle cx="15.4937" cy="14.4609" r="0.5" fill="rgb(0,0,0)" />
<circle cx="12.5284" cy="14.1726" r="0.5" fill="rgb(0,0,0)" />
<circle cx="16.35" cy="10.1814" r="0.5" fill="rgb(0,0,0)" />
<circle cx="6.37972" cy="14.1382" r="0.5" fill="rgb(0,0,0)" />
<circle cx="14.9813" cy="15.2899" r="0.5" fill="rgb(0,0,0)" />
<circle cx="8.52582" cy="14.4455" r="0.5" fill="rgb(0,0,0)" />
<circle cx="5.01647" cy="14.9565" r="0.5" fill="rgb(0,0,0)" />
<circle cx="14.9709" cy="11.061" r="0.5" fill="rgb(0,0,0)" />
<circle cx="13.3061" cy="15.2011" r="0.5" fill="rgb(0,0,0)" />
<circle cx="2.18073" cy="15.4195" r="0.5" fill="rgb(0,0,0)" />
<circle cx="14.122" cy="15.787" r="0.5" fill="rgb(0,0,0)" />
<circle cx="13.992" cy="2.04989" r="0.5" fill="rgb(0,0,0)" />
<circle cx="16.3547" cy="15.4182" r="0.5" fill="rgb(0,0,0)" />
<circle cx="0.683739" cy="5.18116" r="0.5" fill="rgb(0,0,0)" />
<circle cx="5.79981" cy="15.8597" r="0.5" fill="rgb(0,0,0)" />
<circle cx="4.26117" cy="0.635748" r="0.5" fill="rgb(0,0,0)" />
<circle cx="9.22838" cy="1.64782" r="0.5" fill="rgb(0,0,0)" />
<circle cx="4.23657" cy="15.8674" r="0.5" fill="rgb(0,0,0)" />
<circle cx="17.5846" cy="15.0734" r="0.5" fill="rgb(0,0,0)" />
<circle cx="11.5596" cy="15.2951" r="0.5" fill="rgb(0,0,0)" />
<circle cx="6.60673" cy="16.4013" r="0.5" fill="rgb(0,0,0)" />
<circle cx="10.3033" cy="15.0574" r="0.5" fill="rgb(0,0,0)" />
<circle cx="0.95623" cy="11.2889" r="0.5" fill="rgb(0,0,0)" />
<circle cx="3.27223" cy="16.0473" r="0.5" fill="rgb(0,0,0)" />
<circle cx="15.2947" cy="5.08893" r="0.5" fill="rgb(0,0,0)" />
<circle cx="7.54063" cy="15.8442" r="0.5" fill="rgb(0,0,0)" />
<circle cx="12.5186" cy="16.3201" r="0.5" fill="rgb(0,0,0)" />
<circle cx="15.1654" cy="16.5464" r="0.5" fill="rgb(0,0,0)" />
<circle cx="17.0813" cy="0.618823" r="0.5" fill="rgb(0,0,0)" />
<circle cx="4.5617" cy="16.8465" r="0.5" fill="rgb(0,0,0)" />
<circle cx="10.2717" cy="6.83919" r="0.5" fill="rgb(0,0,0)" />
<circle cx="4.70359" cy="10.3121" r="0.5" fill="rgb(0,0,0)" />
<circle cx="14.0566" cy="17.0071" r="0.5" fill="rgb(0,0,0)" />
<circle cx="16.3777" cy="16.8771" r="0.5" fill="rgb(0,0,0)" />
<circle cx="16.7905" cy="3.23953" r="0.5" fill="rgb(0,0,0)" />
<circle cx="9.11745" cy="16.47" r="0.5" fill="rgb(0,0,0)" />
<circle cx="17.683" cy="17.1865" r="0.5" fill="rgb(0,0,0)" />
<circle cx="5.69306" cy="17.3256" r="0.5" fill="rgb(0,0,0)" />
<circle cx="2.8309" cy="17.2295" r="0.5" fill="rgb(0,0,0)" />
<circle cx="12.2779" cy="1.52869" r="0.5" fill="rgb(0,0,0)" />
<circle cx="12.8491" cy="17.5088" r="0.5" fill="rgb(0,0,0)" />
<circle cx="7.01443" cy="1.24934" r="0.5" fill="rgb(0,0,0)" />
<circle cx="14.1645" cy="5.73355" r="0.5" fill="rgb(0,0,0)" />
<circle cx="7.13824" cy="9.18869" r="0.5" fill="rgb(0,0,0)" />
<circle cx="1.66085" cy="17.7622" r="0.5" fill="rgb(0,0,0)" />
<circle cx="10.2945" cy="5.10914" r="0.5" fill="rgb(0,0,0)" />
<circle cx="8.14422" cy="17.6568" r="0.5" fill="rgb(0,0,0)" />
<circle cx="15.4643" cy="17.8858" r="0.5" fill="rgb(0,0,0)" />
<circle cx="18.0028" cy="1.88096" r="0.5" fill="rgb(0,0,0)" />
<circle cx="18.2958" cy="3.09107" r="0.5" fill="rgb(0,0,0)" />
<circle cx="6.96978" cy="17.6309" r="0.5" fill="rgb(0,0,0)" />
<circle cx="7.50912" cy="8.09231" r="0.5" fill="rgb(0,0,0)" />
<circle cx="3.47196" cy="14.4571" r="0.5" fill="rgb(0,0,0)" />
<circle cx="14.2125" cy="18.1133" r="0.5" fill="rgb(0,0,0)" />
<circle cx="18.4056" cy="4.8584" r="0.5" fill="rgb(0,0,0)" />
<circle cx="11.7801" cy="4.09278" r="0.5" fill="rgb(0,0,0)" />
<circle cx="0.652798" cy="3.51526" r="0.5" fill="rgb(0,0,0)" />
<circle cx="17.9463" cy="11.4436" r="0.5" fill="rgb(0,0,0)" />
<circle cx="10.2838" cy="12.3268" r="0.5" fill="rgb(0,0,0)" />
<circle cx="4.47766" cy="18.0799" r="0.5" fill="rgb(0,0,0)" />
<circle cx="4.73289" cy="7.42881" r="0.5" fill="rgb(0,0,0)" />
<circle cx="12.8274" cy="18.5401" r="0.5" fill="rgb(0,0,0)" />
<circle cx="11.2545" cy="17.5886" r="0.5" fill="rgb(0,0,0)" />
<circle cx="15.1518" cy="18.6638" r="0.5" fill="rgb(0,0,0)" />
<circle cx="1.60678" cy="16.4641" r="0.5" fill="rgb(0,0,0)" />
<circle cx="16.7204" cy="18.223" r="0.5" fill="rgb(0,0,0)" />
<circle cx="18.0548" cy="9.54506" r="0.5" fill="rgb(0,0,0)" />
<circle cx="9.9854" cy="17.9035" r="0.5" fill="rgb(0,0,0)" />
<circle cx="18.0661" cy="13.384" r="0.5" fill="rgb(0,0,0)" />
<circle cx="0.498582" cy="16.6994" r="0.5" fill="rgb(0,0,0)" />
<circle cx="5.23494" cy="3.67118" r="0.5" fill="rgb(0,0,0)" />
<circle cx="1.71004" cy="7.16119" r="0.5" fill="rgb(0,0,0)" />
<circle cx="0.464785" cy="6.79327" r="0.5" fill="rgb(0,0,0)" />
<circle cx="10.2756" cy="8.40212" r="0.5" fill="rgb(0,0,0)" />
<circle cx="0.465606" cy="10.0917" r="0.5" fill="rgb(0,0,0)" />
<circle cx="17.0005" cy="7.3208" r="0.5" fill="rgb(0,0,0)" />
<circle cx="0.739377" cy="12.8246" r="0.5" fill="rgb(0,0,0)" />
<circle cx="0.431122" cy="8.63228" r="0.5" fill="rgb(0,0,0)" />
<circle cx="18.3899" cy="15.8152" r="0.5" fill="rgb(0,0,0)" />
<circle cx="3.27991" cy="18.4018" r="0.5" fill="rgb(0,0,0)" />
<circle cx="18.3019" cy="8.03743" r="0.5" fill="rgb(0,0,0)" />
<circle cx="18.485" cy="6.09998" r="0.5" fill="rgb(0,0,0)" />
<circle cx="6.21934" cy="10.5032" r="0.5" fill="rgb(0,0,0)" />
<circle cx="8.37471" cy="18.5795" r="0.5" fill="rgb(0,0,0)" />
<circle cx="6.06589" cy="18.484" r="0.5" fill="rgb(0,0,0)" />
<circle cx="1.4906" cy="9.1508" r="0.5" fill="rgb(0,0,0)" />
<circle cx="0.550387" cy="1.29744" r="0.5" fill="rgb(0,0,0)" />
<circle cx="5.55778" cy="6.31096" r="0.5" fill="rgb(0,0,0)" />
<circle cx="8.42985" cy="9.02996" r="0.5" fill="rgb(0,0,0)" />
<circle cx="2.1144" cy="0.581765" r="0.5" fill="rgb(0,0,0)" />
<circle cx="12.7473" cy="0.481798" r="0.5" fill="rgb(0,0,0)" />
<circle cx="1.6511" cy="18.5907" r="0.5" fill="rgb(0,0,0)" />
<circle cx="0.444593" cy="18.1703" r="0.5" fill="rgb(0,0,0)" />
<circle cx="0.625673" cy="14.9138" r="0.5" fill="rgb(0,0,0)" />
<circle cx="18.1207" cy="18.5211" r="0.5" fill="rgb(0,0,0)" />
<circle cx="9.0525" cy="10.5935" r="0.5" fill="rgb(0,0,0)" />
<circle cx="18.5934" cy="17.5068" r="0.5" fill="rgb(0,0,0)" />
</svg>
