<?xml version="1.0" ?>
<!DOCTYPE svg PUBLIC "-//W3C//DTD SVG 1.1//EN" "http://www.w3.org/Graphics/SVG/1.1/DTD/svg11.dtd">
<svg width="20" height="20" version="1.1" xmlns="http://www.w3.org/2000/svg">
<circle cx="12.1557" cy="0.481851" r="0.5" fill="rgb(0,0,0)" />
<circle cx="10.8452" cy="0.410579" r="0.5" fill="rgb(0,0,0)" />
<circle cx="14.8045" cy="0.398393" r="0.5" fill="rgb(0,0,0)" />
<circle cx="7.99366" cy="0.639985" r="0.5" fill="rgb(0,0,0)" />
<circle cx="4.42602" cy="0.685149" r="0.5" fill="rgb(0,0,0)" />
<circle cx="17.3071" cy="0.691564" r="0.5" fill="rgb(0,0,0)" />
<circle cx="6.98865" cy="1.41582" r="0.5" fill="rgb(0,0,0)" />
<circle cx="10.5597" cy="1.38339" r="0.5" fill="rgb(0,0,0)" />
<circle cx="3.24332" cy="1.57247" r="0.5" fill="rgb(0,0,0)" />
<circle cx="9.08335" cy="1.69609" r="0.5" fill="rgb(0,0,0)" />
<circle cx="12.7153" cy="1.9894" r="0.5" fill="rgb(0,0,0)" />
<circle cx="1.82705" cy="1.95758" r="0.5" fill="rgb(0,0,0)" />
<circle cx="4.28426" cy="2.20016" r="0.5" fill="rgb(0,0,0)" />
<circle cx="5.01351" cy="2.83749" r="0.5" fill="rgb(0,0,0)" />
<circle cx="3.22771" cy="2.82637" r="0.5" fill="rgb(0,0,0)" />
<circle cx="6.81171" cy="2.79654" r="0.5" fill="rgb(0,0,0)" />
<circle cx="15.4273" cy="2.47248" r="0.5" fill="rgb(0,0,0)" />
<circle cx="2.23638" cy="3.04446" r="0.5" fill="rgb(0,0,0)" />
<circle cx="14.6053" cy="3.11872" r="0.5" fill="rgb(0,0,0)" />
<circle cx="4.37266" cy="3.5551" r="0.5" fill="rgb(0,0,0)" />
<circle cx="5.26355" cy="3.66898" r="0.5" fill="rgb(0,0,0)" />
<circle cx="6.12448" cy="3.57343" r="0.5" fill="rgb(0,0,0)" />
<circle cx="3.58448" cy="3.72247" r="0.5" fill="rgb(0,0,0)" />
<circle cx="2.81349" cy="4.06612" r="0.5" fill="rgb(0,0,0)" />
<circle cx="8.99635" cy="2.76499" r="0.5" fill="rgb(0,0,0)" />
<circle cx="10.6358" cy="3.90555" r="0.5" fill="rgb(0,0,0)" />
<circle cx="11.7053" cy="4.24254" r="0.5" fill="rgb(0,0,0)" />
<circle cx="10.103" cy="4.62799" r="0.5" fill="rgb(0,0,0)" />
<circle cx="7.79211" cy="2.35523" r="0.5" fill="rgb(0,0,0)" />
<circle cx="15.3112" cy="5.07351" r="0.5" fill="rgb(0,0,0)" />
<circle cx="2.17449" cy="4.84258" r="0.5" fill="rgb(0,0,0)" />
<circle cx="18.4606" cy="0.571189" r="0.5" fill="rgb(0,0,0)" />
<circle cx="7.94087" cy="4.91607" r="0.5" fill="rgb(0,0,0)" />
<circle cx="9.39036" cy="5.03514" r="0.5" fill="rgb(0,0,0)" />
<circle cx="1.27226" cy="5.32581" r="0.5" fill="rgb(0,0,0)" />
<circle cx="8.88508" cy="5.80031" r="0.5" fill="rgb(0,0,0)" />
<circle cx="18.1494" cy="5.57995" r="0.5" fill="rgb(0,0,0)" />
<circle cx="15.677" cy="6.01852" r="0.5" fill="rgb(0,0,0)" />
<circle cx="14.2402" cy="5.69868" r="0.5" fill="rgb(0,0,0)" />
<circle cx="7.19941" cy="3.98628" r="0.5" fill="rgb(0,0,0)" />
<circle cx="12.688" cy="5.50661" r="0.5" fill="rgb(0,0,0)" />
<circle cx="17.0072" cy="6.41492" r="0.5" fill="rgb(0,0,0)" />
<circle cx="6.59988" cy="6.82476" r="0.5" fill="rgb(0,0,0)" />
<circle cx="5.64548" cy="6.35884" r="0.5" fill="rgb(0,0,0)" />
<circle cx="13.7086" cy="3.48211" r="0.5" fill="rgb(0,0,0)" />
<circle cx="18.1069" cy="7.10147" r="0.5" fill="rgb(0,0,0)" />
<circle cx="13.4209" cy="0.511752" r="0.5" fill="rgb(0,0,0)" />
<circle cx="12.0114" cy="1.49672" r="0.5" fill="rgb(0,0,0)" />
<circle cx="15.6636" cy="7.17029" r="0.5" fill="rgb(0,0,0)" />
<circle cx="4.1978" cy="4.54969" r="0.5" fill="rgb(0,0,0)" />
<circle cx="10.2584" cy="7.24083" r="0.5" fill="rgb(0,0,0)" />
<circle cx="12.7217" cy="7.06157" r="0.5" fill="rgb(0,0,0)" />
<circle cx="1.62351" cy="7.176" r="0.5" fill="rgb(0,0,0)" />
<circle cx="3.11892" cy="7.21311" r="0.5" fill="rgb(0,0,0)" />
<circle cx="6.53223" cy="7.62203" r="0.5" fill="rgb(0,0,0)" />
<circle cx="4.92595" cy="7.62922" r="0.5" fill="rgb(0,0,0)" />
<circle cx="11.3437" cy="7.22421" r="0.5" fill="rgb(0,0,0)" />
<circle cx="7.34246" cy="8.12933" r="0.5" fill="rgb(0,0,0)" />
<circle cx="2.5982" cy="8.21826" r="0.5" fill="rgb(0,0,0)" />
<circle cx="5.73637" cy="1.4888" r="0.5" fill="rgb(0,0,0)" />
<circle cx="9.63096" cy="3.51824" r="0.5" fill="rgb(0,0,0)" />
<circle cx="9.3605" cy="7.99429" r="0.5" fill="rgb(0,0,0)" />
<circle cx="13.6077" cy="8.28234" r="0.5" fill="rgb(0,0,0)" />
<circle cx="15.985" cy="0.768769" r="0.5" fill="rgb(0,0,0)" />
<circle cx="16.145" cy="8.37391" r="0.5" fill="rgb(0,0,0)" />
<circle cx="7.6686" cy="7.17288" r="0.5" fill="rgb(0,0,0)" />
<circle cx="12.2014" cy="8.47405" r="0.5" fill="rgb(0,0,0)" />
<circle cx="1.49078" cy="9.13694" r="0.5" fill="rgb(0,0,0)" />
<circle cx="11.6715" cy="2.69573" r="0.5" fill="rgb(0,0,0)" />
<circle cx="6.00917" cy="9.20472" r="0.5" fill="rgb(0,0,0)" />
<circle cx="17.0081" cy="9.25497" r="0.5" fill="rgb(0,0,0)" />
<circle cx="3.6935" cy="9.65802" r="0.5" fill="rgb(0,0,0)" />
<circle cx="18.0921" cy="1.74864" r="0.5" fill="rgb(0,0,0)" />
<circle cx="9.07013" cy="9.80198" r="0.5" fill="rgb(0,0,0)" />
<circle cx="14.4401" cy="9.62431" r="0.5" fill="rgb(0,0,0)" />
<circle cx="13.1809" cy="9.84059" r="0.5" fill="rgb(0,0,0)" />
<circle cx="8.13361" cy="9.89193" r="0.5" fill="rgb(0,0,0)" />
<circle cx="6.16107" cy="10.331" r="0.5" fill="rgb(0,0,0)" />
<circle cx="3.82902" cy="8.63719" r="0.5" fill="rgb(0,0,0)" />
<circle cx="7.33848" cy="10.8272" r="0.5" fill="rgb(0,0,0)" />
<circle cx="10.3367" cy="8.51256" r="0.5" fill="rgb(0,0,0)" />
<circle cx="8.52724" cy="10.8202" r="0.5" fill="rgb(0,0,0)" />
<circle cx="18.5986" cy="6.44678" r="0.5" fill="rgb(0,0,0)" />
<circle cx="9.61856" cy="10.7467" r="0.5" fill="rgb(0,0,0)" />
<circle cx="16.9179" cy="10.6466" r="0.5" fill="rgb(0,0,0)" />
<circle cx="15.0633" cy="11.1187" r="0.5" fill="rgb(0,0,0)" />
<circle cx="13.6718" cy="11.1961" r="0.5" fill="rgb(0,0,0)" />
<circle cx="10.8364" cy="10.9604" r="0.5" fill="rgb(0,0,0)" />
<circle cx="4.48718" cy="11.5084" r="0.5" fill="rgb(0,0,0)" />
<circle cx="5.76093" cy="11.5661" r="0.5" fill="rgb(0,0,0)" />
<circle cx="16.2001" cy="12.0596" r="0.5" fill="rgb(0,0,0)" />
<circle cx="2.31744" cy="11.6734" r="0.5" fill="rgb(0,0,0)" />
<circle cx="13.4663" cy="12.5007" r="0.5" fill="rgb(0,0,0)" />
<circle cx="3.33413" cy="12.416" r="0.5" fill="rgb(0,0,0)" />
<circle cx="16.7668" cy="3.37872" r="0.5" fill="rgb(0,0,0)" />
<circle cx="10.2761" cy="12.3459" r="0.5" fill="rgb(0,0,0)" />
<circle cx="5.74761" cy="2.35588" r="0.5" fill="rgb(0,0,0)" />
<circle cx="9.22259" cy="12.1245" r="0.5" fill="rgb(0,0,0)" />
<circle cx="15.0821" cy="13.4724" r="0.5" fill="rgb(0,0,0)" />
<circle cx="7.53237" cy="6.03244" r="0.5" fill="rgb(0,0,0)" />
<circle cx="10.5443" cy="13.3916" r="0.5" fill="rgb(0,0,0)" />
<circle cx="5.74106" cy="0.390257" r="0.5" fill="rgb(0,0,0)" />
<circle cx="4.92818" cy="13.5526" r="0.5" fill="rgb(0,0,0)" />
<circle cx="15.324" cy="3.87347" r="0.5" fill="rgb(0,0,0)" />
<circle cx="7.1342" cy="9.87057" r="0.5" fill="rgb(0,0,0)" />
<circle cx="13.4325" cy="13.866" r="0.5" fill="rgb(0,0,0)" />
<circle cx="9.29105" cy="0.525684" r="0.5" fill="rgb(0,0,0)" />
<circle cx="9.8438" cy="9.40463" r="0.5" fill="rgb(0,0,0)" />
<circle cx="6.10235" cy="14.0545" r="0.5" fill="rgb(0,0,0)" />
<circle cx="1.89788" cy="13.8096" r="0.5" fill="rgb(0,0,0)" />
<circle cx="8.59668" cy="6.86934" r="0.5" fill="rgb(0,0,0)" />
<circle cx="14.3531" cy="14.1909" r="0.5" fill="rgb(0,0,0)" />
<circle cx="3.09205" cy="14.3704" r="0.5" fill="rgb(0,0,0)" />
<circle cx="16.2183" cy="4.44502" r="0.5" fill="rgb(0,0,0)" />
<circle cx="7.6837" cy="14.0587" r="0.5" fill="rgb(0,0,0)" />
<circle cx="2.56632" cy="9.19458" r="0.5" fill="rgb(0,0,0)" />
<circle cx="5.02186" cy="14.9151" r="0.5" fill="rgb(0,0,0)" />
<circle cx="11.5447" cy="14.6194" r="0.5" fill="rgb(0,0,0)" />
<circle cx="6.22892" cy="4.92019" r="0.5" fill="rgb(0,0,0)" />
<circle cx="9.68285" cy="6.51293" r="0.5" fill="rgb(0,0,0)" />
<circle cx="15.0601" cy="15.3146" r="0.5" fill="rgb(0,0,0)" />
<circle cx="3.29447" cy="10.6595" r="0.5" fill="rgb(0,0,0)" />
<circle cx="10.4181" cy="14.8928" r="0.5" fill="rgb(0,0,0)" />
<circle cx="17.6487" cy="14.9313" r="0.5" fill="rgb(0,0,0)" />
<circle cx="4.83057" cy="15.8378" r="0.5" fill="rgb(0,0,0)" />
<circle cx="13.0335" cy="2.74435" r="0.5" fill="rgb(0,0,0)" />
<circle cx="15.0112" cy="8.50342" r="0.5" fill="rgb(0,0,0)" />
<circle cx="11.3702" cy="9.38753" r="0.5" fill="rgb(0,0,0)" />
<circle cx="16.5291" cy="13.5524" r="0.5" fill="rgb(0,0,0)" />
<circle cx="14.2673" cy="15.7601" r="0.5" fill="rgb(0,0,0)" />
<circle cx="3.24942" cy="15.7664" r="0.5" fill="rgb(0,0,0)" />
<circle cx="14.8186" cy="12.5055" r="0.5" fill="rgb(0,0,0)" />
<circle cx="13.4635" cy="15.0094" r="0.5" fill="rgb(0,0,0)" />
<circle cx="4.03557" cy="14.7882" r="0.5" fill="rgb(0,0,0)" />
<circle cx="16.3607" cy="15.4826" r="0.5" fill="rgb(0,0,0)" />
<circle cx="12.4773" cy="14.2493" r="0.5" fill="rgb(0,0,0)" />
<circle cx="7.49826" cy="15.5914" r="0.5" fill="rgb(0,0,0)" />
<circle cx="11.9794" cy="15.6372" r="0.5" fill="rgb(0,0,0)" />
<circle cx="13.2537" cy="15.8568" r="0.5" fill="rgb(0,0,0)" />
<circle cx="15.6912" cy="9.9072" r="0.5" fill="rgb(0,0,0)" />
<circle cx="8.96286" cy="14.5829" r="0.5" fill="rgb(0,0,0)" />
<circle cx="1.29242" cy="16.1476" r="0.5" fill="rgb(0,0,0)" />
<circle cx="6.64295" cy="16.4624" r="0.5" fill="rgb(0,0,0)" />
<circle cx="4.73036" cy="10.2102" r="0.5" fill="rgb(0,0,0)" />
<circle cx="3.99028" cy="16.1532" r="0.5" fill="rgb(0,0,0)" />
<circle cx="10.4549" cy="2.59957" r="0.5" fill="rgb(0,0,0)" />
<circle cx="9.25969" cy="16.0599" r="0.5" fill="rgb(0,0,0)" />
<circle cx="13.4612" cy="1.69196" r="0.5" fill="rgb(0,0,0)" />
<circle cx="1.99875" cy="16.6706" r="0.5" fill="rgb(0,0,0)" />
<circle cx="12.5619" cy="16.5982" r="0.5" fill="rgb(0,0,0)" />
<circle cx="1.27953" cy="17.2615" r="0.5" fill="rgb(0,0,0)" />
<circle cx="6.88564" cy="0.341618" r="0.5" fill="rgb(0,0,0)" />
<circle cx="3.21136" cy="5.50626" r="0.5" fill="rgb(0,0,0)" />
<circle cx="12.1245" cy="12.7933" r="0.5" fill="rgb(0,0,0)" />
<circle cx="15.1231" cy="16.4908" r="0.5" fill="rgb(0,0,0)" />
<circle cx="2.97899" cy="16.7141" r="0.5" fill="rgb(0,0,0)" />
<circle cx="10.8657" cy="16.5898" r="0.5" fill="rgb(0,0,0)" />
<circle cx="7.81071" cy="16.9759" r="0.5" fill="rgb(0,0,0)" />
<circle cx="1.96987" cy="17.7469" r="0.5" fill="rgb(0,0,0)" />
<circle cx="6.59986" cy="5.60624" r="0.5" fill="rgb(0,0,0)" />
<circle cx="13.1829" cy="17.4627" r="0.5" fill="rgb(0,0,0)" />
<circle cx="8.47289" cy="8.0827" r="0.5" fill="rgb(0,0,0)" />
<circle cx="7.10207" cy="11.9417" r="0.5" fill="rgb(0,0,0)" />
<circle cx="1.2144" cy="17.8887" r="0.5" fill="rgb(0,0,0)" />
<circle cx="12.2258" cy="10.9644" r="0.5" fill="rgb(0,0,0)" />
<circle cx="17.8029" cy="17.4273" r="0.5" fill="rgb(0,0,0)" />
<circle cx="16.815" cy="5.33242" r="0.5" fill="rgb(0,0,0)" />
<circle cx="5.67152" cy="17.3888" r="0.5" fill="rgb(0,0,0)" />
<circle cx="2.81106" cy="17.7021" r="0.5" fill="rgb(0,0,0)" />
<circle cx="3.93488" cy="13.2482" r="0.5" fill="rgb(0,0,0)" />
<circle cx="6.14059" cy="15.2801" r="0.5" fill="rgb(0,0,0)" />
<circle cx="15.4389" cy="17.9682" r="0.5" fill="rgb(0,0,0)" />
<circle cx="6.77277" cy="17.723" r="0.5" fill="rgb(0,0,0)" />
<circle cx="17.8473" cy="2.64143" r="0.5" fill="rgb(0,0,0)" />
<circle cx="8.23655" cy="18.0364" r="0.5" fill="rgb(0,0,0)" />
<circle cx="6.22559" cy="12.8347" r="0.5" fill="rgb(0,0,0)" />
<circle cx="14.2986" cy="18.053" r="0.5" fill="rgb(0,0,0)" />
<circle cx="5.9437" cy="8.202" r="0.5" fill="rgb(0,0,0)" />
<circle cx="12.0478" cy="17.9274" r="0.5" fill="rgb(0,0,0)" />
<circle cx="2.15774" cy="15.3057" r="0.5" fill="rgb(0,0,0)" />
<circle cx="10.9988" cy="18.3764" r="0.5" fill="rgb(0,0,0)" />
<circle cx="9.91212" cy="17.9743" r="0.5" fill="rgb(0,0,0)" />
<circle cx="4.53504" cy="18.1206" r="0.5" fill="rgb(0,0,0)" />
<circle cx="12.7421" cy="3.85596" r="0.5" fill="rgb(0,0,0)" />
<circle cx="17.0722" cy="7.71843" r="0.5" fill="rgb(0,0,0)" />
<circle cx="0.790405" cy="12.8225" r="0.5" fill="rgb(0,0,0)" />
<circle cx="4.22121" cy="6.66275" r="0.5" fill="rgb(0,0,0)" />
<circle cx="1.85249" cy="10.2303" r="0.5" fill="rgb(0,0,0)" />
<circle cx="0.593148" cy="14.8613" r="0.5" fill="rgb(0,0,0)" />
<circle cx="17.5142" cy="4.3262" r="0.5" fill="rgb(0,0,0)" />
<circle cx="1.95073" cy="6.2298" r="0.5" fill="rgb(0,0,0)" />
<circle cx="1.22332" cy="7.99151" r="0.5" fill="rgb(0,0,0)" />
<circle cx="9.04149" cy="17.3275" r="0.5" fill="rgb(0,0,0)" />
<circle cx="0.414305" cy="16.5778" r="0.5" fill="rgb(0,0,0)" />
<circle cx="15.9048" cy="17.0533" r="0.5" fill="rgb(0,0,0)" />
<circle cx="18.0559" cy="11.5884" r="0.5" fill="rgb(0,0,0)" />
<circle cx="8.48462" cy="3.80341" r="0.5" fill="rgb(0,0,0)" />
<circle cx="5.42042" cy="4.6054" r="0.5" fill="rgb(0,0,0)" />
<circle cx="18.0796" cy="13.4494" r="0.5" fill="rgb(0,0,0)" />
<circle cx="8.15646" cy="11.627" r="0.5" fill="rgb(0,0,0)" />
<circle cx="0.462066" cy="10.0567" r="0.5" fill="rgb(0,0,0)" />
<circle cx="17.0334" cy="16.7677" r="0.5" fill="rgb(0,0,0)" />
<circle cx="18.3011" cy="9.61528" r="0.5" fill="rgb(0,0,0)" />
<circle cx="2.81636" cy="9.74715" r="0.5" fill="rgb(0,0,0)" />
<circle cx="18.367" cy="8.14465" r="0.5" fill="rgb(0,0,0)" />
<circle cx="15.5544" cy="14.4731" r="0.5" fill="rgb(0,0,0)" />
<circle cx="18.4943" cy="4.52653" r="0.5" fill="rgb(0,0,0)" />
<circle cx="13.9994" cy="4.52563" r="0.5" fill="rgb(0,0,0)" />
<circle cx="18.3766" cy="15.8336" r="0.5" fill="rgb(0,0,0)" />
<circle cx="4.66804" cy="5.51154" r="0.5" fill="rgb(0,0,0)" />
<circle cx="3.44762" cy="18.4167" r="0.5" fill="rgb(0,0,0)" />
<circle cx="15.0989" cy="18.6651" r="0.5" fill="rgb(0,0,0)" />
<circle cx="5.58008" cy="16.3766" r="0.5" fill="rgb(0,0,0)" />
<circle cx="13.242" cy="18.5281" r="0.5" fill="rgb(0,0,0)" />
<circle cx="8.10498" cy="18.6504" r="0.5" fill="rgb(0,0,0)" />
<circle cx="0.815142" cy="11.2772" r="0.5" fill="rgb(0,0,0)" />
<circle cx="6.05951" cy="18.5091" r="0.5" fill="rgb(0,0,0)" />
<circle cx="1.48636" cy="3.6944" r="0.5" fill="rgb(0,0,0)" />
<circle cx="8.26202" cy="12.8847" r="0.5" fill="rgb(0,0,0)" />
<circle cx="0.471294" cy="6.82353" r="0.5" fill="rgb(0,0,0)" />
<circle cx="2.57622" cy="0.533931" r="0.5" fill="rgb(0,0,0)" />
<circle cx="14.4987" cy="1.30185" r="0.5" fill="rgb(0,0,0)" />
<circle cx="18.4467" cy="3.24362" r="0.5" fill="rgb(0,0,0)" />
<circle cx="0.771326" cy="0.736266" r="0.5" fill="rgb(0,0,0)" />
<circle cx="4.49111" cy="16.9738" r="0.5" fill="rgb(0,0,0)" />
<circle cx="0.568706" cy="2.37808" r="0.5" fill="rgb(0,0,0)" />
<circle cx="11.0138" cy="5.64015" r="0.5" fill="rgb(0,0,0)" />
<circle cx="0.403392" cy="5.15427" r="0.5" fill="rgb(0,0,0)" />
<circle cx="16.4824" cy="2.12838" r="0.5" fill="rgb(0,0,0)" />
<circle cx="16.651" cy="18.3124" r="0.5" fill="rgb(0,0,0)" />
<circle cx="0.473501" cy="3.79556" r="0.5" fill="rgb(0,0,0)" />
<circle cx="0.278948" cy="17.6546" r="0.5" fill="rgb(0,0,0)" />
<circle cx="14.222" cy="2.26584" r="0.5" fill="rgb(0,0,0)" />
<circle cx="8.45579" cy="8.98754" r="0.5" fill="rgb(0,0,0)" />
<circle cx="14.1532" cy="16.9859" r="0.5" fill="rgb(0,0,0)" />
<circle cx="0.370721" cy="18.4709" r="0.5" fill="rgb(0,0,0)" />
<circle cx="14.3126" cy="7.05874" r="0.5" fill="rgb(0,0,0)" />
<circle cx="2.09471" cy="18.5955" r="0.5" fill="rgb(0,0,0)" />
<circle cx="7.27185" cy="9.04862" r="0.5" fill="rgb(0,0,0)" />
<circle cx="4.85867" cy="8.93891" r="0.5" fill="rgb(0,0,0)" />
<circle cx="1.08505" cy="18.5812" r="0.5" fill="rgb(0,0,0)" />
<circle cx="17.8128" cy="18.5834" r="0.5" fill="rgb(0,0,0)" />
<circle cx="18.5452" cy="18.3754" r="0.5" fill="rgb(0,0,0)" />
<circle cx="0.432639" cy="8.63445" r="0.5" fill="rgb(0,0,0)" />
<circle cx="18.6573" cy="17.2968" r="0.5" fill="rgb(0,0,0)" />
</svg>
