<?xml version="1.0" ?>
<!DOCTYPE svg PUBLIC "-//W3C//DTD SVG 1.1//EN" "http://www.w3.org/Graphics/SVG/1.1/DTD/svg11.dtd">
<svg width="20" height="20" version="1.1" xmlns="http://www.w3.org/2000/svg">
<circle cx="16.7785" cy="0.630049" r="0.5" fill="rgb(0,0,0)" />
<circle cx="10.2902" cy="0.787446" r="0.5" fill="rgb(0,0,0)" />
<circle cx="18.0399" cy="1.85521" r="0.5" fill="rgb(0,0,0)" />
<circle cx="18.3488" cy="0.593373" r="0.5" fill="rgb(0,0,0)" />
<circle cx="14.7915" cy="0.737187" r="0.5" fill="rgb(0,0,0)" />
<circle cx="8.40353" cy="2.40602" r="0.5" fill="rgb(0,0,0)" />
<circle cx="13.2491" cy="3.59696" r="0.5" fill="rgb(0,0,0)" />
<circle cx="15.0418" cy="3.85669" r="0.5" fill="rgb(0,0,0)" />
<circle cx="11.5502" cy="4.26695" r="0.5" fill="rgb(0,0,0)" />
<circle cx="7.05858" cy="4.62884" r="0.5" fill="rgb(0,0,0)" />
<circle cx="14.8755" cy="5.24852" r="0.5" fill="rgb(0,0,0)" />
<circle cx="2.70268" cy="4.90946" r="0.5" fill="rgb(0,0,0)" />
<circle cx="4.5511" cy="5.3226" r="0.5" fill="rgb(0,0,0)" />
<circle cx="1.79446" cy="6.22131" r="0.5" fill="rgb(0,0,0)" />
<circle cx="15.7537" cy="6.33541" r="0.5" fill="rgb(0,0,0)" />
<circle cx="12.4866" cy="6.38359" r="0.5" fill="rgb(0,0,0)" />
<circle cx="14.4473" cy="7.05566" r="0.5" fill="rgb(0,0,0)" />
<circle cx="16.7851" cy="7.29153" r="0.5" fill="rgb(0,0,0)" />
<circle cx="16.0412" cy="8.59967" r="0.5" fill="rgb(0,0,0)" />
<circle cx="13.8645" cy="8.6921" r="0.5" fill="rgb(0,0,0)" />
<circle cx="2.49171" cy="9.26153" r="0.5" fill="rgb(0,0,0)" />
<circle cx="4.25442" cy="10.0307" r="0.5" fill="rgb(0,0,0)" />
<circle cx="15.9861" cy="10.4082" r="0.5" fill="rgb(0,0,0)" />
<circle cx="8.37385" cy="6.56597" r="0.5" fill="rgb(0,0,0)" />
<circle cx="6.41468" cy="10.5997" r="0.5" fill="rgb(0,0,0)" />
<circle cx="12.5908" cy="12.5098" r="0.5" fill="rgb(0,0,0)" />
<circle cx="15.5139" cy="12.2824" r="0.5" fill="rgb(0,0,0)" />
<circle cx="8.28395" cy="12.5443" r="0.5" fill="rgb(0,0,0)" />
<circle cx="14.2913" cy="13.5404" r="0.5" fill="rgb(0,0,0)" />
<circle cx="2.77065" cy="10.6388" r="0.5" fill="rgb(0,0,0)" />
<circle cx="10.1196" cy="13.1425" r="0.5" fill="rgb(0,0,0)" />
<circle cx="6.29593" cy="12.9574" r="0.5" fill="rgb(0,0,0)" />
<circle cx="15.4249" cy="2.46721" r="0.5" fill="rgb(0,0,0)" />
<circle cx="2.15594" cy="3.44509" r="0.5" fill="rgb(0,0,0)" />
<circle cx="12.2985" cy="14.201" r="0.5" fill="rgb(0,0,0)" />
<circle cx="6.39448" cy="6.41518" r="0.5" fill="rgb(0,0,0)" />
<circle cx="15.0771" cy="14.9222" r="0.5" fill="rgb(0,0,0)" />
<circle cx="0.757987" cy="9.79419" r="0.5" fill="rgb(0,0,0)" />
<circle cx="16.9597" cy="5.5332" r="0.5" fill="rgb(0,0,0)" />
<circle cx="1.18196" cy="11.5338" r="0.5" fill="rgb(0,0,0)" />
<circle cx="5.45124" cy="7.57444" r="0.5" fill="rgb(0,0,0)" />
<circle cx="4.65731" cy="14.3547" r="0.5" fill="rgb(0,0,0)" />
<circle cx="14.1379" cy="15.8148" r="0.5" fill="rgb(0,0,0)" />
<circle cx="7.52494" cy="0.808822" r="0.5" fill="rgb(0,0,0)" />
<circle cx="10.4657" cy="15.0647" r="0.5" fill="rgb(0,0,0)" />
<circle cx="10.5778" cy="6.54632" r="0.5" fill="rgb(0,0,0)" />
<circle cx="2.54109" cy="14.7125" r="0.5" fill="rgb(0,0,0)" />
<circle cx="5.15571" cy="15.8171" r="0.5" fill="rgb(0,0,0)" />
<circle cx="7.40412" cy="8.59375" r="0.5" fill="rgb(0,0,0)" />
<circle cx="8.11952" cy="14.9763" r="0.5" fill="rgb(0,0,0)" />
<circle cx="11.9708" cy="16.2905" r="0.5" fill="rgb(0,0,0)" />
<circle cx="18.2306" cy="3.09594" r="0.5" fill="rgb(0,0,0)" />
<circle cx="13.3706" cy="5.11575" r="0.5" fill="rgb(0,0,0)" />
<circle cx="6.94652" cy="16.2387" r="0.5" fill="rgb(0,0,0)" />
<circle cx="12.4664" cy="2.09626" r="0.5" fill="rgb(0,0,0)" />
<circle cx="17.2754" cy="3.77081" r="0.5" fill="rgb(0,0,0)" />
<circle cx="13.7542" cy="17.0334" r="0.5" fill="rgb(0,0,0)" />
<circle cx="1.98917" cy="2.01294" r="0.5" fill="rgb(0,0,0)" />
<circle cx="16.6994" cy="16.8641" r="0.5" fill="rgb(0,0,0)" />
<circle cx="11.3051" cy="9.45325" r="0.5" fill="rgb(0,0,0)" />
<circle cx="3.88878" cy="12.2369" r="0.5" fill="rgb(0,0,0)" />
<circle cx="16.3345" cy="14.3764" r="0.5" fill="rgb(0,0,0)" />
<circle cx="5.74342" cy="17.2482" r="0.5" fill="rgb(0,0,0)" />
<circle cx="15.3042" cy="17.7183" r="0.5" fill="rgb(0,0,0)" />
<circle cx="12.6285" cy="0.600773" r="0.5" fill="rgb(0,0,0)" />
<circle cx="2.5627" cy="17.0545" r="0.5" fill="rgb(0,0,0)" />
<circle cx="5.90842" cy="3.31185" r="0.5" fill="rgb(0,0,0)" />
<circle cx="9.32164" cy="4.67684" r="0.5" fill="rgb(0,0,0)" />
<circle cx="0.961615" cy="13.4515" r="0.5" fill="rgb(0,0,0)" />
<circle cx="0.937683" cy="16.0536" r="0.5" fill="rgb(0,0,0)" />
<circle cx="4.281" cy="17.4575" r="0.5" fill="rgb(0,0,0)" />
<circle cx="16.5075" cy="2.09732" r="0.5" fill="rgb(0,0,0)" />
<circle cx="18.1921" cy="6.50095" r="0.5" fill="rgb(0,0,0)" />
<circle cx="3.52985" cy="7.02815" r="0.5" fill="rgb(0,0,0)" />
<circle cx="12.0687" cy="8.12273" r="0.5" fill="rgb(0,0,0)" />
<circle cx="8.62887" cy="17.5632" r="0.5" fill="rgb(0,0,0)" />
<circle cx="10.1219" cy="17.39" r="0.5" fill="rgb(0,0,0)" />
<circle cx="11.7281" cy="17.9665" r="0.5" fill="rgb(0,0,0)" />
<circle cx="5.40535" cy="1.11303" r="0.5" fill="rgb(0,0,0)" />
<circle cx="13.7349" cy="10.7417" r="0.5" fill="rgb(0,0,0)" />
<circle cx="12.8961" cy="18.3609" r="0.5" fill="rgb(0,0,0)" />
<circle cx="14.1809" cy="18.299" r="0.5" fill="rgb(0,0,0)" />
<circle cx="17.8332" cy="12.4009" r="0.5" fill="rgb(0,0,0)" />
<circle cx="13.2252" cy="15.217" r="0.5" fill="rgb(0,0,0)" />
<circle cx="0.49827" cy="6.32027" r="0.5" fill="rgb(0,0,0)" />
<circle cx="0.66133" cy="4.06372" r="0.5" fill="rgb(0,0,0)" />
<circle cx="9.52082" cy="8.47163" r="0.5" fill="rgb(0,0,0)" />
<circle cx="17.9791" cy="10.1443" r="0.5" fill="rgb(0,0,0)" />
<circle cx="8.95978" cy="10.5352" r="0.5" fill="rgb(0,0,0)" />
<circle cx="17.8911" cy="14.5799" r="0.5" fill="rgb(0,0,0)" />
<circle cx="7.59431" cy="18.303" r="0.5" fill="rgb(0,0,0)" />
<circle cx="6.0599" cy="18.3223" r="0.5" fill="rgb(0,0,0)" />
<circle cx="10.4011" cy="2.85218" r="0.5" fill="rgb(0,0,0)" />
<circle cx="3.93422" cy="2.84716" r="0.5" fill="rgb(0,0,0)" />
<circle cx="0.793425" cy="8.03174" r="0.5" fill="rgb(0,0,0)" />
<circle cx="15.4512" cy="16.3088" r="0.5" fill="rgb(0,0,0)" />
<circle cx="18.158" cy="16.0337" r="0.5" fill="rgb(0,0,0)" />
<circle cx="16.22" cy="4.27518" r="0.5" fill="rgb(0,0,0)" />
<circle cx="0.682302" cy="1.11645" r="0.5" fill="rgb(0,0,0)" />
<circle cx="14.1901" cy="2.47412" r="0.5" fill="rgb(0,0,0)" />
<circle cx="3.06447" cy="0.681798" r="0.5" fill="rgb(0,0,0)" />
<circle cx="11.2209" cy="11.229" r="0.5" fill="rgb(0,0,0)" />
<circle cx="18.1152" cy="8.27636" r="0.5" fill="rgb(0,0,0)" />
<circle cx="3.00518" cy="18.449" r="0.5" fill="rgb(0,0,0)" />
<circle cx="0.728827" cy="17.9954" r="0.5" fill="rgb(0,0,0)" />
<circle cx="2.583" cy="8.03158" r="0.5" fill="rgb(0,0,0)" />
<circle cx="5.03205" cy="8.90432" r="0.5" fill="rgb(0,0,0)" />
<circle cx="18.299" cy="4.88233" r="0.5" fill="rgb(0,0,0)" />
<circle cx="15.9261" cy="18.4806" r="0.5" fill="rgb(0,0,0)" />
<circle cx="17.4171" cy="18.2676" r="0.5" fill="rgb(0,0,0)" />
<circle cx="18.4059" cy="17.7255" r="0.5" fill="rgb(0,0,0)" />
</svg>
