<?xml version="1.0" ?>
<!DOCTYPE svg PUBLIC "-//W3C//DTD SVG 1.1//EN" "http://www.w3.org/Graphics/SVG/1.1/DTD/svg11.dtd">
<svg width="20" height="20" version="1.1" xmlns="http://www.w3.org/2000/svg">
<circle cx="14.6712" cy="0.666716" r="0.5" fill="rgb(0,0,0)" />
<circle cx="16.444" cy="1.67852" r="0.5" fill="rgb(0,0,0)" />
<circle cx="8.30085" cy="1.08619" r="0.5" fill="rgb(0,0,0)" />
<circle cx="14.9183" cy="4.084" r="0.5" fill="rgb(0,0,0)" />
<circle cx="5.82187" cy="3.68471" r="0.5" fill="rgb(0,0,0)" />
<circle cx="14.1675" cy="5.45055" r="0.5" fill="rgb(0,0,0)" />
<circle cx="11.1432" cy="0.922342" r="0.5" fill="rgb(0,0,0)" />
<circle cx="15.8692" cy="6.33069" r="0.5" fill="rgb(0,0,0)" />
<circle cx="2.24417" cy="5.59594" r="0.5" fill="rgb(0,0,0)" />
<circle cx="14.4631" cy="7.13162" r="0.5" fill="rgb(0,0,0)" />
<circle cx="5.66965" cy="7.47731" r="0.5" fill="rgb(0,0,0)" />
<circle cx="14.0899" cy="2.60454" r="0.5" fill="rgb(0,0,0)" />
<circle cx="16.2395" cy="8.24484" r="0.5" fill="rgb(0,0,0)" />
<circle cx="13.7543" cy="8.65701" r="0.5" fill="rgb(0,0,0)" />
<circle cx="2.50932" cy="8.33247" r="0.5" fill="rgb(0,0,0)" />
<circle cx="17.2494" cy="3.75605" r="0.5" fill="rgb(0,0,0)" />
<circle cx="9.47666" cy="8.53722" r="0.5" fill="rgb(0,0,0)" />
<circle cx="16.9778" cy="5.55046" r="0.5" fill="rgb(0,0,0)" />
<circle cx="4.00523" cy="9.48701" r="0.5" fill="rgb(0,0,0)" />
<circle cx="15.9463" cy="10.2012" r="0.5" fill="rgb(0,0,0)" />
<circle cx="6.35516" cy="10.0219" r="0.5" fill="rgb(0,0,0)" />
<circle cx="8.74933" cy="10.4471" r="0.5" fill="rgb(0,0,0)" />
<circle cx="13.7413" cy="10.7302" r="0.5" fill="rgb(0,0,0)" />
<circle cx="11.1757" cy="10.9913" r="0.5" fill="rgb(0,0,0)" />
<circle cx="10.0058" cy="6.0575" r="0.5" fill="rgb(0,0,0)" />
<circle cx="3.95162" cy="6.44096" r="0.5" fill="rgb(0,0,0)" />
<circle cx="15.5227" cy="12.2534" r="0.5" fill="rgb(0,0,0)" />
<circle cx="12.5753" cy="12.4687" r="0.5" fill="rgb(0,0,0)" />
<circle cx="3.78315" cy="11.8794" r="0.5" fill="rgb(0,0,0)" />
<circle cx="12.7465" cy="1.77329" r="0.5" fill="rgb(0,0,0)" />
<circle cx="17.9511" cy="6.69927" r="0.5" fill="rgb(0,0,0)" />
<circle cx="8.28239" cy="12.5396" r="0.5" fill="rgb(0,0,0)" />
<circle cx="2.13234" cy="2.54278" r="0.5" fill="rgb(0,0,0)" />
<circle cx="14.2907" cy="13.5989" r="0.5" fill="rgb(0,0,0)" />
<circle cx="10.1414" cy="13.2019" r="0.5" fill="rgb(0,0,0)" />
<circle cx="12.4563" cy="14.2264" r="0.5" fill="rgb(0,0,0)" />
<circle cx="6.2302" cy="12.8133" r="0.5" fill="rgb(0,0,0)" />
<circle cx="3.62651" cy="3.7072" r="0.5" fill="rgb(0,0,0)" />
<circle cx="16.3083" cy="14.27" r="0.5" fill="rgb(0,0,0)" />
<circle cx="17.829" cy="14.6422" r="0.5" fill="rgb(0,0,0)" />
<circle cx="14.1875" cy="15.6776" r="0.5" fill="rgb(0,0,0)" />
<circle cx="4.51982" cy="14.3756" r="0.5" fill="rgb(0,0,0)" />
<circle cx="11.282" cy="3.88349" r="0.5" fill="rgb(0,0,0)" />
<circle cx="12.6333" cy="15.7754" r="0.5" fill="rgb(0,0,0)" />
<circle cx="8.03377" cy="15.0581" r="0.5" fill="rgb(0,0,0)" />
<circle cx="16.1522" cy="16.4691" r="0.5" fill="rgb(0,0,0)" />
<circle cx="5.37204" cy="15.9238" r="0.5" fill="rgb(0,0,0)" />
<circle cx="14.0677" cy="17.0032" r="0.5" fill="rgb(0,0,0)" />
<circle cx="7.06747" cy="5.13516" r="0.5" fill="rgb(0,0,0)" />
<circle cx="11.926" cy="17.1494" r="0.5" fill="rgb(0,0,0)" />
<circle cx="15.9265" cy="17.8004" r="0.5" fill="rgb(0,0,0)" />
<circle cx="0.853832" cy="4.0517" r="0.5" fill="rgb(0,0,0)" />
<circle cx="4.38673" cy="17.4386" r="0.5" fill="rgb(0,0,0)" />
<circle cx="0.917305" cy="16.04" r="0.5" fill="rgb(0,0,0)" />
<circle cx="1.08628" cy="12.8287" r="0.5" fill="rgb(0,0,0)" />
<circle cx="2.16027" cy="14.5941" r="0.5" fill="rgb(0,0,0)" />
<circle cx="1.21038" cy="10.4518" r="0.5" fill="rgb(0,0,0)" />
<circle cx="10.0722" cy="17.4498" r="0.5" fill="rgb(0,0,0)" />
<circle cx="15.1886" cy="15.0938" r="0.5" fill="rgb(0,0,0)" />
<circle cx="6.94956" cy="16.5795" r="0.5" fill="rgb(0,0,0)" />
<circle cx="12.3422" cy="18.3935" r="0.5" fill="rgb(0,0,0)" />
<circle cx="14.1787" cy="18.239" r="0.5" fill="rgb(0,0,0)" />
<circle cx="17.8293" cy="12.4295" r="0.5" fill="rgb(0,0,0)" />
<circle cx="13.0268" cy="4.16962" r="0.5" fill="rgb(0,0,0)" />
<circle cx="12.3044" cy="6.53089" r="0.5" fill="rgb(0,0,0)" />
<circle cx="15.5298" cy="18.5843" r="0.5" fill="rgb(0,0,0)" />
<circle cx="11.5516" cy="8.81002" r="0.5" fill="rgb(0,0,0)" />
<circle cx="17.3185" cy="17.9298" r="0.5" fill="rgb(0,0,0)" />
<circle cx="5.68763" cy="1.22147" r="0.5" fill="rgb(0,0,0)" />
<circle cx="17.9655" cy="10.148" r="0.5" fill="rgb(0,0,0)" />
<circle cx="7.84715" cy="7.3645" r="0.5" fill="rgb(0,0,0)" />
<circle cx="18.1604" cy="8.21662" r="0.5" fill="rgb(0,0,0)" />
<circle cx="2.61068" cy="16.9848" r="0.5" fill="rgb(0,0,0)" />
<circle cx="6.15055" cy="18.1703" r="0.5" fill="rgb(0,0,0)" />
<circle cx="15.5742" cy="2.61989" r="0.5" fill="rgb(0,0,0)" />
<circle cx="8.33669" cy="17.9198" r="0.5" fill="rgb(0,0,0)" />
<circle cx="0.763854" cy="8.30677" r="0.5" fill="rgb(0,0,0)" />
<circle cx="16.1284" cy="4.34522" r="0.5" fill="rgb(0,0,0)" />
<circle cx="10.6107" cy="15.2382" r="0.5" fill="rgb(0,0,0)" />
<circle cx="0.723148" cy="6.39172" r="0.5" fill="rgb(0,0,0)" />
<circle cx="18.4245" cy="17.8732" r="0.5" fill="rgb(0,0,0)" />
<circle cx="18.1707" cy="16.0358" r="0.5" fill="rgb(0,0,0)" />
<circle cx="9.12221" cy="3.28505" r="0.5" fill="rgb(0,0,0)" />
<circle cx="0.763857" cy="1.16445" r="0.5" fill="rgb(0,0,0)" />
<circle cx="3.19781" cy="0.871906" r="0.5" fill="rgb(0,0,0)" />
<circle cx="3.01533" cy="18.4447" r="0.5" fill="rgb(0,0,0)" />
<circle cx="0.730533" cy="17.9855" r="0.5" fill="rgb(0,0,0)" />
<circle cx="18.33" cy="4.94768" r="0.5" fill="rgb(0,0,0)" />
<circle cx="18.1923" cy="2.98763" r="0.5" fill="rgb(0,0,0)" />
<circle cx="18.1304" cy="1.6395" r="0.5" fill="rgb(0,0,0)" />
<circle cx="17.5826" cy="0.46266" r="0.5" fill="rgb(0,0,0)" />
</svg>
