<?xml version="1.0" ?>
<!DOCTYPE svg PUBLIC "-//W3C//DTD SVG 1.1//EN" "http://www.w3.org/Graphics/SVG/1.1/DTD/svg11.dtd">
<svg width="20" height="20" version="1.1" xmlns="http://www.w3.org/2000/svg">
<circle cx="16.834" cy="0.627589" r="0.5" fill="rgb(0,0,0)" />
<circle cx="14.9414" cy="0.643659" r="0.5" fill="rgb(0,0,0)" />
<circle cx="8.26133" cy="0.574624" r="0.5" fill="rgb(0,0,0)" />
<circle cx="10.5834" cy="0.76052" r="0.5" fill="rgb(0,0,0)" />
<circle cx="4.37782" cy="1.26385" r="0.5" fill="rgb(0,0,0)" />
<circle cx="1.94748" cy="2.06795" r="0.5" fill="rgb(0,0,0)" />
<circle cx="5.52412" cy="2.39243" r="0.5" fill="rgb(0,0,0)" />
<circle cx="9.13981" cy="1.84964" r="0.5" fill="rgb(0,0,0)" />
<circle cx="18.0414" cy="1.85489" r="0.5" fill="rgb(0,0,0)" />
<circle cx="18.3562" cy="0.596098" r="0.5" fill="rgb(0,0,0)" />
<circle cx="12.7199" cy="0.591859" r="0.5" fill="rgb(0,0,0)" />
<circle cx="3.57341" cy="2.75493" r="0.5" fill="rgb(0,0,0)" />
<circle cx="14.3848" cy="3.18933" r="0.5" fill="rgb(0,0,0)" />
<circle cx="15.2071" cy="3.92096" r="0.5" fill="rgb(0,0,0)" />
<circle cx="2.08218" cy="3.47509" r="0.5" fill="rgb(0,0,0)" />
<circle cx="17.2711" cy="3.77304" r="0.5" fill="rgb(0,0,0)" />
<circle cx="6.50537" cy="3.6775" r="0.5" fill="rgb(0,0,0)" />
<circle cx="16.2581" cy="4.29057" r="0.5" fill="rgb(0,0,0)" />
<circle cx="15.4062" cy="2.39127" r="0.5" fill="rgb(0,0,0)" />
<circle cx="8.34915" cy="4.39092" r="0.5" fill="rgb(0,0,0)" />
<circle cx="6.79626" cy="1.12373" r="0.5" fill="rgb(0,0,0)" />
<circle cx="13.9108" cy="1.81774" r="0.5" fill="rgb(0,0,0)" />
<circle cx="11.6946" cy="4.11039" r="0.5" fill="rgb(0,0,0)" />
<circle cx="6.07165" cy="5.0807" r="0.5" fill="rgb(0,0,0)" />
<circle cx="2.72531" cy="4.88811" r="0.5" fill="rgb(0,0,0)" />
<circle cx="10.1027" cy="5.0298" r="0.5" fill="rgb(0,0,0)" />
<circle cx="17.0098" cy="5.56661" r="0.5" fill="rgb(0,0,0)" />
<circle cx="1.67413" cy="5.76159" r="0.5" fill="rgb(0,0,0)" />
<circle cx="4.31793" cy="5.60395" r="0.5" fill="rgb(0,0,0)" />
<circle cx="5.9435" cy="6.6529" r="0.5" fill="rgb(0,0,0)" />
<circle cx="8.62136" cy="6.49631" r="0.5" fill="rgb(0,0,0)" />
<circle cx="12.3928" cy="6.31115" r="0.5" fill="rgb(0,0,0)" />
<circle cx="7.36755" cy="5.99061" r="0.5" fill="rgb(0,0,0)" />
<circle cx="10.7296" cy="6.64137" r="0.5" fill="rgb(0,0,0)" />
<circle cx="14.0869" cy="6.80736" r="0.5" fill="rgb(0,0,0)" />
<circle cx="3.5532" cy="6.99833" r="0.5" fill="rgb(0,0,0)" />
<circle cx="1.66081" cy="7.27018" r="0.5" fill="rgb(0,0,0)" />
<circle cx="2.5414" cy="8.13995" r="0.5" fill="rgb(0,0,0)" />
<circle cx="15.4522" cy="7.48366" r="0.5" fill="rgb(0,0,0)" />
<circle cx="9.08303" cy="7.77828" r="0.5" fill="rgb(0,0,0)" />
<circle cx="5.44302" cy="7.77245" r="0.5" fill="rgb(0,0,0)" />
<circle cx="12.1821" cy="8.07981" r="0.5" fill="rgb(0,0,0)" />
<circle cx="3.79134" cy="8.86475" r="0.5" fill="rgb(0,0,0)" />
<circle cx="13.9016" cy="8.67798" r="0.5" fill="rgb(0,0,0)" />
<circle cx="15.7118" cy="6.01536" r="0.5" fill="rgb(0,0,0)" />
<circle cx="15.7304" cy="10.0249" r="0.5" fill="rgb(0,0,0)" />
<circle cx="7.5951" cy="9.89639" r="0.5" fill="rgb(0,0,0)" />
<circle cx="9.07302" cy="10.7845" r="0.5" fill="rgb(0,0,0)" />
<circle cx="16.5126" cy="2.09697" r="0.5" fill="rgb(0,0,0)" />
<circle cx="2.67394" cy="10.5237" r="0.5" fill="rgb(0,0,0)" />
<circle cx="17.0289" cy="7.27378" r="0.5" fill="rgb(0,0,0)" />
<circle cx="4.24532" cy="10.5986" r="0.5" fill="rgb(0,0,0)" />
<circle cx="10.405" cy="8.39256" r="0.5" fill="rgb(0,0,0)" />
<circle cx="13.7205" cy="10.6764" r="0.5" fill="rgb(0,0,0)" />
<circle cx="6.16419" cy="10.5725" r="0.5" fill="rgb(0,0,0)" />
<circle cx="11.5256" cy="11.0449" r="0.5" fill="rgb(0,0,0)" />
<circle cx="16.0001" cy="11.7505" r="0.5" fill="rgb(0,0,0)" />
<circle cx="12.6653" cy="12.466" r="0.5" fill="rgb(0,0,0)" />
<circle cx="13.2004" cy="3.52846" r="0.5" fill="rgb(0,0,0)" />
<circle cx="14.6352" cy="12.4904" r="0.5" fill="rgb(0,0,0)" />
<circle cx="7.26464" cy="8.21553" r="0.5" fill="rgb(0,0,0)" />
<circle cx="8.35281" cy="12.3797" r="0.5" fill="rgb(0,0,0)" />
<circle cx="3.71576" cy="12.3728" r="0.5" fill="rgb(0,0,0)" />
<circle cx="11.6689" cy="9.53809" r="0.5" fill="rgb(0,0,0)" />
<circle cx="10.7004" cy="13.4023" r="0.5" fill="rgb(0,0,0)" />
<circle cx="13.3235" cy="5.07382" r="0.5" fill="rgb(0,0,0)" />
<circle cx="6.5032" cy="12.4607" r="0.5" fill="rgb(0,0,0)" />
<circle cx="14.0645" cy="13.8685" r="0.5" fill="rgb(0,0,0)" />
<circle cx="12.3998" cy="14.1131" r="0.5" fill="rgb(0,0,0)" />
<circle cx="5.38465" cy="13.7563" r="0.5" fill="rgb(0,0,0)" />
<circle cx="15.0476" cy="15.0891" r="0.5" fill="rgb(0,0,0)" />
<circle cx="8.33274" cy="14.3102" r="0.5" fill="rgb(0,0,0)" />
<circle cx="17.7807" cy="14.9242" r="0.5" fill="rgb(0,0,0)" />
<circle cx="10.1303" cy="12.0679" r="0.5" fill="rgb(0,0,0)" />
<circle cx="14.0948" cy="15.8457" r="0.5" fill="rgb(0,0,0)" />
<circle cx="5.00035" cy="15.2259" r="0.5" fill="rgb(0,0,0)" />
<circle cx="10.1376" cy="14.9756" r="0.5" fill="rgb(0,0,0)" />
<circle cx="3.52293" cy="15.0255" r="0.5" fill="rgb(0,0,0)" />
<circle cx="6.46243" cy="15.9253" r="0.5" fill="rgb(0,0,0)" />
<circle cx="5.17156" cy="16.3242" r="0.5" fill="rgb(0,0,0)" />
<circle cx="7.47325" cy="15.5275" r="0.5" fill="rgb(0,0,0)" />
<circle cx="11.3635" cy="15.5563" r="0.5" fill="rgb(0,0,0)" />
<circle cx="15.2797" cy="16.4964" r="0.5" fill="rgb(0,0,0)" />
<circle cx="18.235" cy="3.09646" r="0.5" fill="rgb(0,0,0)" />
<circle cx="10.2429" cy="2.99839" r="0.5" fill="rgb(0,0,0)" />
<circle cx="12.2479" cy="16.4689" r="0.5" fill="rgb(0,0,0)" />
<circle cx="13.847" cy="17.0366" r="0.5" fill="rgb(0,0,0)" />
<circle cx="1.16619" cy="11.4679" r="0.5" fill="rgb(0,0,0)" />
<circle cx="2.14383" cy="14.4321" r="0.5" fill="rgb(0,0,0)" />
<circle cx="16.537" cy="16.9691" r="0.5" fill="rgb(0,0,0)" />
<circle cx="9.22393" cy="16.4657" r="0.5" fill="rgb(0,0,0)" />
<circle cx="9.3392" cy="9.40871" r="0.5" fill="rgb(0,0,0)" />
<circle cx="5.6609" cy="17.393" r="0.5" fill="rgb(0,0,0)" />
<circle cx="15.2589" cy="17.8001" r="0.5" fill="rgb(0,0,0)" />
<circle cx="8.21449" cy="17.5213" r="0.5" fill="rgb(0,0,0)" />
<circle cx="12.222" cy="17.7277" r="0.5" fill="rgb(0,0,0)" />
<circle cx="17.2155" cy="17.8902" r="0.5" fill="rgb(0,0,0)" />
<circle cx="7.03202" cy="17.6508" r="0.5" fill="rgb(0,0,0)" />
<circle cx="1.54953" cy="17.6148" r="0.5" fill="rgb(0,0,0)" />
<circle cx="18.2323" cy="6.45708" r="0.5" fill="rgb(0,0,0)" />
<circle cx="14.842" cy="5.16111" r="0.5" fill="rgb(0,0,0)" />
<circle cx="2.71735" cy="16.7368" r="0.5" fill="rgb(0,0,0)" />
<circle cx="18.3023" cy="4.86346" r="0.5" fill="rgb(0,0,0)" />
<circle cx="16.3921" cy="15.3776" r="0.5" fill="rgb(0,0,0)" />
<circle cx="3.08077" cy="18.4013" r="0.5" fill="rgb(0,0,0)" />
<circle cx="4.29791" cy="17.5867" r="0.5" fill="rgb(0,0,0)" />
<circle cx="13.2203" cy="15.2409" r="0.5" fill="rgb(0,0,0)" />
<circle cx="17.874" cy="13.332" r="0.5" fill="rgb(0,0,0)" />
<circle cx="10.5264" cy="17.8124" r="0.5" fill="rgb(0,0,0)" />
<circle cx="17.8975" cy="11.4197" r="0.5" fill="rgb(0,0,0)" />
<circle cx="17.9388" cy="9.67785" r="0.5" fill="rgb(0,0,0)" />
<circle cx="18.2267" cy="8.11124" r="0.5" fill="rgb(0,0,0)" />
<circle cx="12.6977" cy="18.5194" r="0.5" fill="rgb(0,0,0)" />
<circle cx="7.74023" cy="2.70385" r="0.5" fill="rgb(0,0,0)" />
<circle cx="15.9528" cy="18.5357" r="0.5" fill="rgb(0,0,0)" />
<circle cx="14.169" cy="18.2937" r="0.5" fill="rgb(0,0,0)" />
<circle cx="16.3225" cy="8.65985" r="0.5" fill="rgb(0,0,0)" />
<circle cx="0.974269" cy="13.1998" r="0.5" fill="rgb(0,0,0)" />
<circle cx="4.66009" cy="3.93664" r="0.5" fill="rgb(0,0,0)" />
<circle cx="16.0163" cy="13.7757" r="0.5" fill="rgb(0,0,0)" />
<circle cx="0.733538" cy="9.82285" r="0.5" fill="rgb(0,0,0)" />
<circle cx="2.24096" cy="9.26523" r="0.5" fill="rgb(0,0,0)" />
<circle cx="0.63436" cy="8.25572" r="0.5" fill="rgb(0,0,0)" />
<circle cx="5.25088" cy="9.08486" r="0.5" fill="rgb(0,0,0)" />
<circle cx="0.643929" cy="4.01689" r="0.5" fill="rgb(0,0,0)" />
<circle cx="0.45683" cy="6.31115" r="0.5" fill="rgb(0,0,0)" />
<circle cx="18.2394" cy="16.0008" r="0.5" fill="rgb(0,0,0)" />
<circle cx="0.578816" cy="18.1487" r="0.5" fill="rgb(0,0,0)" />
<circle cx="0.7494" cy="15.7712" r="0.5" fill="rgb(0,0,0)" />
<circle cx="8.72066" cy="18.5037" r="0.5" fill="rgb(0,0,0)" />
<circle cx="12.1252" cy="2.09777" r="0.5" fill="rgb(0,0,0)" />
<circle cx="5.88981" cy="18.511" r="0.5" fill="rgb(0,0,0)" />
<circle cx="5.31525" cy="0.44916" r="0.5" fill="rgb(0,0,0)" />
<circle cx="0.626001" cy="1.17823" r="0.5" fill="rgb(0,0,0)" />
<circle cx="2.64536" cy="0.631058" r="0.5" fill="rgb(0,0,0)" />
<circle cx="18.1376" cy="18.5193" r="0.5" fill="rgb(0,0,0)" />
<circle cx="18.3532" cy="17.2955" r="0.5" fill="rgb(0,0,0)" />
</svg>
