<?xml version="1.0" ?>
<!DOCTYPE svg PUBLIC "-//W3C//DTD SVG 1.1//EN" "http://www.w3.org/Graphics/SVG/1.1/DTD/svg11.dtd">
<svg width="20" height="20" version="1.1" xmlns="http://www.w3.org/2000/svg">
<circle cx="7.58992" cy="0.187645" r="0.5" fill="rgb(0,0,0)" />
<circle cx="6.71446" cy="0.303399" r="0.5" fill="rgb(0,0,0)" />
<circle cx="10.3595" cy="0.298036" r="0.5" fill="rgb(0,0,0)" />
<circle cx="14.6207" cy="0.206488" r="0.5" fill="rgb(0,0,0)" />
<circle cx="5.7423" cy="0.369383" r="0.5" fill="rgb(0,0,0)" />
<circle cx="17.1328" cy="0.430741" r="0.5" fill="rgb(0,0,0)" />
<circle cx="4.38036" cy="0.479186" r="0.5" fill="rgb(0,0,0)" />
<circle cx="8.38379" cy="0.618591" r="0.5" fill="rgb(0,0,0)" />
<circle cx="14.9903" cy="0.763073" r="0.5" fill="rgb(0,0,0)" />
<circle cx="13.2928" cy="1.08202" r="0.5" fill="rgb(0,0,0)" />
<circle cx="17.8894" cy="1.09928" r="0.5" fill="rgb(0,0,0)" />
<circle cx="9.34901" cy="0.538003" r="0.5" fill="rgb(0,0,0)" />
<circle cx="16.007" cy="0.756056" r="0.5" fill="rgb(0,0,0)" />
<circle cx="13.4537" cy="1.65498" r="0.5" fill="rgb(0,0,0)" />
<circle cx="5.53119" cy="1.29393" r="0.5" fill="rgb(0,0,0)" />
<circle cx="6.75325" cy="1.25063" r="0.5" fill="rgb(0,0,0)" />
<circle cx="1.78095" cy="1.27929" r="0.5" fill="rgb(0,0,0)" />
<circle cx="11.9921" cy="1.68878" r="0.5" fill="rgb(0,0,0)" />
<circle cx="6.35851" cy="1.84372" r="0.5" fill="rgb(0,0,0)" />
<circle cx="7.84302" cy="1.74027" r="0.5" fill="rgb(0,0,0)" />
<circle cx="3.25917" cy="1.59266" r="0.5" fill="rgb(0,0,0)" />
<circle cx="13.5074" cy="2.35791" r="0.5" fill="rgb(0,0,0)" />
<circle cx="14.2761" cy="2.22531" r="0.5" fill="rgb(0,0,0)" />
<circle cx="5.72301" cy="2.35295" r="0.5" fill="rgb(0,0,0)" />
<circle cx="16.6747" cy="2.28906" r="0.5" fill="rgb(0,0,0)" />
<circle cx="12.5454" cy="2.30686" r="0.5" fill="rgb(0,0,0)" />
<circle cx="1.84494" cy="2.41305" r="0.5" fill="rgb(0,0,0)" />
<circle cx="12.5273" cy="0.369343" r="0.5" fill="rgb(0,0,0)" />
<circle cx="13.0699" cy="2.78833" r="0.5" fill="rgb(0,0,0)" />
<circle cx="7.66553" cy="2.67328" r="0.5" fill="rgb(0,0,0)" />
<circle cx="17.9578" cy="2.60808" r="0.5" fill="rgb(0,0,0)" />
<circle cx="3.1737" cy="2.79207" r="0.5" fill="rgb(0,0,0)" />
<circle cx="6.75638" cy="2.75449" r="0.5" fill="rgb(0,0,0)" />
<circle cx="15.8886" cy="2.29289" r="0.5" fill="rgb(0,0,0)" />
<circle cx="15.2925" cy="2.60129" r="0.5" fill="rgb(0,0,0)" />
<circle cx="8.68321" cy="2.79811" r="0.5" fill="rgb(0,0,0)" />
<circle cx="12.0012" cy="0.791493" r="0.5" fill="rgb(0,0,0)" />
<circle cx="13.7134" cy="3.31098" r="0.5" fill="rgb(0,0,0)" />
<circle cx="2.33466" cy="3.11783" r="0.5" fill="rgb(0,0,0)" />
<circle cx="9.70284" cy="3.45595" r="0.5" fill="rgb(0,0,0)" />
<circle cx="16.69" cy="3.38887" r="0.5" fill="rgb(0,0,0)" />
<circle cx="4.40899" cy="3.58007" r="0.5" fill="rgb(0,0,0)" />
<circle cx="7.54104" cy="0.896894" r="0.5" fill="rgb(0,0,0)" />
<circle cx="5.29777" cy="3.65329" r="0.5" fill="rgb(0,0,0)" />
<circle cx="3.60027" cy="3.54802" r="0.5" fill="rgb(0,0,0)" />
<circle cx="15.4497" cy="3.75997" r="0.5" fill="rgb(0,0,0)" />
<circle cx="1.5361" cy="3.70038" r="0.5" fill="rgb(0,0,0)" />
<circle cx="6.42973" cy="3.84351" r="0.5" fill="rgb(0,0,0)" />
<circle cx="8.32463" cy="3.74161" r="0.5" fill="rgb(0,0,0)" />
<circle cx="13.7103" cy="4.15142" r="0.5" fill="rgb(0,0,0)" />
<circle cx="14.5676" cy="4.19917" r="0.5" fill="rgb(0,0,0)" />
<circle cx="9.92128" cy="4.44753" r="0.5" fill="rgb(0,0,0)" />
<circle cx="12.6702" cy="3.58579" r="0.5" fill="rgb(0,0,0)" />
<circle cx="16.7164" cy="4.41981" r="0.5" fill="rgb(0,0,0)" />
<circle cx="10.6469" cy="3.98864" r="0.5" fill="rgb(0,0,0)" />
<circle cx="4.15658" cy="2.47997" r="0.5" fill="rgb(0,0,0)" />
<circle cx="3.79796" cy="4.52912" r="0.5" fill="rgb(0,0,0)" />
<circle cx="1.26076" cy="4.79744" r="0.5" fill="rgb(0,0,0)" />
<circle cx="5.89132" cy="5.11514" r="0.5" fill="rgb(0,0,0)" />
<circle cx="9.16836" cy="5.0077" r="0.5" fill="rgb(0,0,0)" />
<circle cx="2.25676" cy="4.86346" r="0.5" fill="rgb(0,0,0)" />
<circle cx="7.98229" cy="4.91061" r="0.5" fill="rgb(0,0,0)" />
<circle cx="13.9948" cy="5.15491" r="0.5" fill="rgb(0,0,0)" />
<circle cx="16.3416" cy="5.29881" r="0.5" fill="rgb(0,0,0)" />
<circle cx="5.80504" cy="5.83305" r="0.5" fill="rgb(0,0,0)" />
<circle cx="10.2514" cy="5.22677" r="0.5" fill="rgb(0,0,0)" />
<circle cx="5.94206" cy="3.27472" r="0.5" fill="rgb(0,0,0)" />
<circle cx="8.85316" cy="5.83435" r="0.5" fill="rgb(0,0,0)" />
<circle cx="3.09785" cy="5.42538" r="0.5" fill="rgb(0,0,0)" />
<circle cx="5.50491" cy="4.53471" r="0.5" fill="rgb(0,0,0)" />
<circle cx="0.518874" cy="3.52853" r="0.5" fill="rgb(0,0,0)" />
<circle cx="14.4582" cy="5.87156" r="0.5" fill="rgb(0,0,0)" />
<circle cx="10.7435" cy="5.74606" r="0.5" fill="rgb(0,0,0)" />
<circle cx="1.30281" cy="5.83059" r="0.5" fill="rgb(0,0,0)" />
<circle cx="10.6121" cy="2.61" r="0.5" fill="rgb(0,0,0)" />
<circle cx="7.55846" cy="6.09323" r="0.5" fill="rgb(0,0,0)" />
<circle cx="17.6364" cy="3.9192" r="0.5" fill="rgb(0,0,0)" />
<circle cx="11.6272" cy="5.71059" r="0.5" fill="rgb(0,0,0)" />
<circle cx="2.07054" cy="6.25884" r="0.5" fill="rgb(0,0,0)" />
<circle cx="5.06772" cy="6.264" r="0.5" fill="rgb(0,0,0)" />
<circle cx="4.34447" cy="6.6453" r="0.5" fill="rgb(0,0,0)" />
<circle cx="10.4844" cy="6.54205" r="0.5" fill="rgb(0,0,0)" />
<circle cx="3.72049" cy="6.16388" r="0.5" fill="rgb(0,0,0)" />
<circle cx="12.0545" cy="4.75511" r="0.5" fill="rgb(0,0,0)" />
<circle cx="6.02722" cy="6.52792" r="0.5" fill="rgb(0,0,0)" />
<circle cx="8.53946" cy="6.87517" r="0.5" fill="rgb(0,0,0)" />
<circle cx="15.6732" cy="6.07115" r="0.5" fill="rgb(0,0,0)" />
<circle cx="7.68096" cy="7.17545" r="0.5" fill="rgb(0,0,0)" />
<circle cx="4.75329" cy="4.3776" r="0.5" fill="rgb(0,0,0)" />
<circle cx="14.6327" cy="6.9286" r="0.5" fill="rgb(0,0,0)" />
<circle cx="1.57994" cy="7.17784" r="0.5" fill="rgb(0,0,0)" />
<circle cx="13.6307" cy="6.96684" r="0.5" fill="rgb(0,0,0)" />
<circle cx="18.0784" cy="7.11459" r="0.5" fill="rgb(0,0,0)" />
<circle cx="2.81527" cy="6.99404" r="0.5" fill="rgb(0,0,0)" />
<circle cx="12.4187" cy="7.08854" r="0.5" fill="rgb(0,0,0)" />
<circle cx="6.61583" cy="7.61947" r="0.5" fill="rgb(0,0,0)" />
<circle cx="10.1774" cy="7.49667" r="0.5" fill="rgb(0,0,0)" />
<circle cx="6.80865" cy="4.59419" r="0.5" fill="rgb(0,0,0)" />
<circle cx="4.26677" cy="7.4693" r="0.5" fill="rgb(0,0,0)" />
<circle cx="9.19149" cy="1.7182" r="0.5" fill="rgb(0,0,0)" />
<circle cx="11.2431" cy="7.34686" r="0.5" fill="rgb(0,0,0)" />
<circle cx="3.4197" cy="7.87972" r="0.5" fill="rgb(0,0,0)" />
<circle cx="7.34755" cy="8.10889" r="0.5" fill="rgb(0,0,0)" />
<circle cx="8.49994" cy="8.05638" r="0.5" fill="rgb(0,0,0)" />
<circle cx="17.0829" cy="7.764" r="0.5" fill="rgb(0,0,0)" />
<circle cx="9.31289" cy="8.02906" r="0.5" fill="rgb(0,0,0)" />
<circle cx="1.94203" cy="8.34076" r="0.5" fill="rgb(0,0,0)" />
<circle cx="2.82423" cy="8.44482" r="0.5" fill="rgb(0,0,0)" />
<circle cx="14.7615" cy="8.17765" r="0.5" fill="rgb(0,0,0)" />
<circle cx="16.9923" cy="5.78943" r="0.5" fill="rgb(0,0,0)" />
<circle cx="16.187" cy="8.30078" r="0.5" fill="rgb(0,0,0)" />
<circle cx="5.12048" cy="8.54747" r="0.5" fill="rgb(0,0,0)" />
<circle cx="10.2266" cy="8.52945" r="0.5" fill="rgb(0,0,0)" />
<circle cx="8.11201" cy="8.73801" r="0.5" fill="rgb(0,0,0)" />
<circle cx="13.53" cy="0.31662" r="0.5" fill="rgb(0,0,0)" />
<circle cx="7.32425" cy="9.03414" r="0.5" fill="rgb(0,0,0)" />
<circle cx="2.46665" cy="9.28483" r="0.5" fill="rgb(0,0,0)" />
<circle cx="6.19362" cy="9.11242" r="0.5" fill="rgb(0,0,0)" />
<circle cx="13.9106" cy="9.07587" r="0.5" fill="rgb(0,0,0)" />
<circle cx="12.5189" cy="8.98552" r="0.5" fill="rgb(0,0,0)" />
<circle cx="1.4181" cy="9.23501" r="0.5" fill="rgb(0,0,0)" />
<circle cx="17.0644" cy="9.17764" r="0.5" fill="rgb(0,0,0)" />
<circle cx="7.25283" cy="9.81058" r="0.5" fill="rgb(0,0,0)" />
<circle cx="11.1242" cy="9.27254" r="0.5" fill="rgb(0,0,0)" />
<circle cx="1.07995" cy="7.92806" r="0.5" fill="rgb(0,0,0)" />
<circle cx="15.9602" cy="9.62105" r="0.5" fill="rgb(0,0,0)" />
<circle cx="9.13996" cy="9.88692" r="0.5" fill="rgb(0,0,0)" />
<circle cx="14.6897" cy="9.84898" r="0.5" fill="rgb(0,0,0)" />
<circle cx="4.42854" cy="10.2988" r="0.5" fill="rgb(0,0,0)" />
<circle cx="2.77226" cy="9.97067" r="0.5" fill="rgb(0,0,0)" />
<circle cx="6.09782" cy="8.17415" r="0.5" fill="rgb(0,0,0)" />
<circle cx="12.8997" cy="9.83485" r="0.5" fill="rgb(0,0,0)" />
<circle cx="1.8199" cy="10.1697" r="0.5" fill="rgb(0,0,0)" />
<circle cx="3.29314" cy="10.5357" r="0.5" fill="rgb(0,0,0)" />
<circle cx="5.53257" cy="10.417" r="0.5" fill="rgb(0,0,0)" />
<circle cx="6.87624" cy="10.4136" r="0.5" fill="rgb(0,0,0)" />
<circle cx="3.42713" cy="9.39696" r="0.5" fill="rgb(0,0,0)" />
<circle cx="13.552" cy="10.3661" r="0.5" fill="rgb(0,0,0)" />
<circle cx="7.45684" cy="10.8396" r="0.5" fill="rgb(0,0,0)" />
<circle cx="17.1307" cy="10.5035" r="0.5" fill="rgb(0,0,0)" />
<circle cx="15.7359" cy="10.6498" r="0.5" fill="rgb(0,0,0)" />
<circle cx="8.12243" cy="11.514" r="0.5" fill="rgb(0,0,0)" />
<circle cx="17.0167" cy="6.63574" r="0.5" fill="rgb(0,0,0)" />
<circle cx="11.9456" cy="10.4998" r="0.5" fill="rgb(0,0,0)" />
<circle cx="1.25201" cy="11.0746" r="0.5" fill="rgb(0,0,0)" />
<circle cx="10.823" cy="10.8995" r="0.5" fill="rgb(0,0,0)" />
<circle cx="14.8671" cy="11.3942" r="0.5" fill="rgb(0,0,0)" />
<circle cx="14.0698" cy="11.0867" r="0.5" fill="rgb(0,0,0)" />
<circle cx="3.73153" cy="11.4563" r="0.5" fill="rgb(0,0,0)" />
<circle cx="6.01467" cy="11.5199" r="0.5" fill="rgb(0,0,0)" />
<circle cx="11.2305" cy="0.660424" r="0.5" fill="rgb(0,0,0)" />
<circle cx="12.6525" cy="11.6672" r="0.5" fill="rgb(0,0,0)" />
<circle cx="14.6195" cy="1.43011" r="0.5" fill="rgb(0,0,0)" />
<circle cx="11.6135" cy="3.85988" r="0.5" fill="rgb(0,0,0)" />
<circle cx="2.33099" cy="11.5091" r="0.5" fill="rgb(0,0,0)" />
<circle cx="7.21345" cy="11.8037" r="0.5" fill="rgb(0,0,0)" />
<circle cx="16.7371" cy="11.7924" r="0.5" fill="rgb(0,0,0)" />
<circle cx="10.3189" cy="12.1681" r="0.5" fill="rgb(0,0,0)" />
<circle cx="15.7976" cy="12.1052" r="0.5" fill="rgb(0,0,0)" />
<circle cx="3.30749" cy="12.4149" r="0.5" fill="rgb(0,0,0)" />
<circle cx="8.52967" cy="10.813" r="0.5" fill="rgb(0,0,0)" />
<circle cx="6.71366" cy="12.5835" r="0.5" fill="rgb(0,0,0)" />
<circle cx="13.4722" cy="12.6317" r="0.5" fill="rgb(0,0,0)" />
<circle cx="10.3839" cy="13.3238" r="0.5" fill="rgb(0,0,0)" />
<circle cx="1.45699" cy="12.7801" r="0.5" fill="rgb(0,0,0)" />
<circle cx="12.5511" cy="13.207" r="0.5" fill="rgb(0,0,0)" />
<circle cx="15.1239" cy="13.5358" r="0.5" fill="rgb(0,0,0)" />
<circle cx="11.5042" cy="12.7998" r="0.5" fill="rgb(0,0,0)" />
<circle cx="10.4297" cy="1.45386" r="0.5" fill="rgb(0,0,0)" />
<circle cx="8.32187" cy="13.0139" r="0.5" fill="rgb(0,0,0)" />
<circle cx="3.86654" cy="13.4391" r="0.5" fill="rgb(0,0,0)" />
<circle cx="6.21576" cy="13.3216" r="0.5" fill="rgb(0,0,0)" />
<circle cx="2.50371" cy="13.3639" r="0.5" fill="rgb(0,0,0)" />
<circle cx="9.23089" cy="13.5635" r="0.5" fill="rgb(0,0,0)" />
<circle cx="4.81397" cy="13.8348" r="0.5" fill="rgb(0,0,0)" />
<circle cx="13.4989" cy="14.0115" r="0.5" fill="rgb(0,0,0)" />
<circle cx="6.69453" cy="6.82376" r="0.5" fill="rgb(0,0,0)" />
<circle cx="7.44913" cy="13.8008" r="0.5" fill="rgb(0,0,0)" />
<circle cx="4.09704" cy="8.63121" r="0.5" fill="rgb(0,0,0)" />
<circle cx="5.8637" cy="14.1961" r="0.5" fill="rgb(0,0,0)" />
<circle cx="14.3828" cy="14.3088" r="0.5" fill="rgb(0,0,0)" />
<circle cx="15.5537" cy="14.4945" r="0.5" fill="rgb(0,0,0)" />
<circle cx="11.6195" cy="2.64265" r="0.5" fill="rgb(0,0,0)" />
<circle cx="8.11166" cy="9.91892" r="0.5" fill="rgb(0,0,0)" />
<circle cx="17.6932" cy="13.5777" r="0.5" fill="rgb(0,0,0)" />
<circle cx="8.43698" cy="14.3682" r="0.5" fill="rgb(0,0,0)" />
<circle cx="16.976" cy="14.2665" r="0.5" fill="rgb(0,0,0)" />
<circle cx="3.10721" cy="14.5229" r="0.5" fill="rgb(0,0,0)" />
<circle cx="4.89857" cy="14.9048" r="0.5" fill="rgb(0,0,0)" />
<circle cx="12.502" cy="14.4086" r="0.5" fill="rgb(0,0,0)" />
<circle cx="1.62733" cy="14.3793" r="0.5" fill="rgb(0,0,0)" />
<circle cx="13.4757" cy="15.04" r="0.5" fill="rgb(0,0,0)" />
<circle cx="4.00104" cy="14.8839" r="0.5" fill="rgb(0,0,0)" />
<circle cx="4.69942" cy="11.1637" r="0.5" fill="rgb(0,0,0)" />
<circle cx="5.63087" cy="15.3133" r="0.5" fill="rgb(0,0,0)" />
<circle cx="17.9755" cy="14.8026" r="0.5" fill="rgb(0,0,0)" />
<circle cx="9.84447" cy="9.40067" r="0.5" fill="rgb(0,0,0)" />
<circle cx="9.06548" cy="15.0785" r="0.5" fill="rgb(0,0,0)" />
<circle cx="6.57693" cy="15.0468" r="0.5" fill="rgb(0,0,0)" />
<circle cx="11.5985" cy="14.7978" r="0.5" fill="rgb(0,0,0)" />
<circle cx="8.28762" cy="12.1998" r="0.5" fill="rgb(0,0,0)" />
<circle cx="15.0599" cy="15.3286" r="0.5" fill="rgb(0,0,0)" />
<circle cx="2.28495" cy="15.4075" r="0.5" fill="rgb(0,0,0)" />
<circle cx="15.8593" cy="4.46306" r="0.5" fill="rgb(0,0,0)" />
<circle cx="4.56345" cy="5.32629" r="0.5" fill="rgb(0,0,0)" />
<circle cx="8.68088" cy="9.2302" r="0.5" fill="rgb(0,0,0)" />
<circle cx="5.68472" cy="16.0451" r="0.5" fill="rgb(0,0,0)" />
<circle cx="17.1883" cy="1.75577" r="0.5" fill="rgb(0,0,0)" />
<circle cx="11.8461" cy="8.21344" r="0.5" fill="rgb(0,0,0)" />
<circle cx="4.72064" cy="15.8023" r="0.5" fill="rgb(0,0,0)" />
<circle cx="14.2479" cy="15.7358" r="0.5" fill="rgb(0,0,0)" />
<circle cx="3.2749" cy="15.8071" r="0.5" fill="rgb(0,0,0)" />
<circle cx="11.998" cy="15.6623" r="0.5" fill="rgb(0,0,0)" />
<circle cx="10.1412" cy="15.7299" r="0.5" fill="rgb(0,0,0)" />
<circle cx="13.2596" cy="15.8488" r="0.5" fill="rgb(0,0,0)" />
<circle cx="1.32695" cy="16.4482" r="0.5" fill="rgb(0,0,0)" />
<circle cx="18.3074" cy="5.65182" r="0.5" fill="rgb(0,0,0)" />
<circle cx="12.6295" cy="16.5114" r="0.5" fill="rgb(0,0,0)" />
<circle cx="8.81674" cy="16.2295" r="0.5" fill="rgb(0,0,0)" />
<circle cx="17.4901" cy="4.97034" r="0.5" fill="rgb(0,0,0)" />
<circle cx="3.95155" cy="16.1592" r="0.5" fill="rgb(0,0,0)" />
<circle cx="6.54767" cy="16.4864" r="0.5" fill="rgb(0,0,0)" />
<circle cx="17.5027" cy="12.4942" r="0.5" fill="rgb(0,0,0)" />
<circle cx="17.231" cy="16.1812" r="0.5" fill="rgb(0,0,0)" />
<circle cx="9.99146" cy="14.3697" r="0.5" fill="rgb(0,0,0)" />
<circle cx="2.01287" cy="16.5519" r="0.5" fill="rgb(0,0,0)" />
<circle cx="4.57528" cy="1.56561" r="0.5" fill="rgb(0,0,0)" />
<circle cx="11.0735" cy="16.5248" r="0.5" fill="rgb(0,0,0)" />
<circle cx="16.2484" cy="13.4138" r="0.5" fill="rgb(0,0,0)" />
<circle cx="15.1503" cy="16.4616" r="0.5" fill="rgb(0,0,0)" />
<circle cx="1.314" cy="17.2967" r="0.5" fill="rgb(0,0,0)" />
<circle cx="14.2133" cy="16.9502" r="0.5" fill="rgb(0,0,0)" />
<circle cx="13.1304" cy="4.75699" r="0.5" fill="rgb(0,0,0)" />
<circle cx="4.06748" cy="9.61379" r="0.5" fill="rgb(0,0,0)" />
<circle cx="4.38851" cy="16.8061" r="0.5" fill="rgb(0,0,0)" />
<circle cx="6.27435" cy="10.2268" r="0.5" fill="rgb(0,0,0)" />
<circle cx="9.9497" cy="17.16" r="0.5" fill="rgb(0,0,0)" />
<circle cx="6.83581" cy="5.52393" r="0.5" fill="rgb(0,0,0)" />
<circle cx="5.06349" cy="9.53351" r="0.5" fill="rgb(0,0,0)" />
<circle cx="15.866" cy="17.0312" r="0.5" fill="rgb(0,0,0)" />
<circle cx="1.96417" cy="17.7331" r="0.5" fill="rgb(0,0,0)" />
<circle cx="15.3299" cy="8.93772" r="0.5" fill="rgb(0,0,0)" />
<circle cx="12.551" cy="17.5183" r="0.5" fill="rgb(0,0,0)" />
<circle cx="13.3732" cy="17.3859" r="0.5" fill="rgb(0,0,0)" />
<circle cx="7.75533" cy="17.1453" r="0.5" fill="rgb(0,0,0)" />
<circle cx="5.84014" cy="17.4131" r="0.5" fill="rgb(0,0,0)" />
<circle cx="1.21234" cy="17.8894" r="0.5" fill="rgb(0,0,0)" />
<circle cx="11.7053" cy="17.451" r="0.5" fill="rgb(0,0,0)" />
<circle cx="12.9244" cy="5.91915" r="0.5" fill="rgb(0,0,0)" />
<circle cx="2.81664" cy="17.7037" r="0.5" fill="rgb(0,0,0)" />
<circle cx="10.8684" cy="17.8508" r="0.5" fill="rgb(0,0,0)" />
<circle cx="18.337" cy="17.0456" r="0.5" fill="rgb(0,0,0)" />
<circle cx="18.4601" cy="15.7158" r="0.5" fill="rgb(0,0,0)" />
<circle cx="6.7615" cy="17.7125" r="0.5" fill="rgb(0,0,0)" />
<circle cx="15.4451" cy="17.9574" r="0.5" fill="rgb(0,0,0)" />
<circle cx="17.6056" cy="17.9488" r="0.5" fill="rgb(0,0,0)" />
<circle cx="14.4126" cy="17.941" r="0.5" fill="rgb(0,0,0)" />
<circle cx="4.87525" cy="17.7274" r="0.5" fill="rgb(0,0,0)" />
<circle cx="4.97171" cy="12.3994" r="0.5" fill="rgb(0,0,0)" />
<circle cx="8.39172" cy="18.1469" r="0.5" fill="rgb(0,0,0)" />
<circle cx="9.63858" cy="2.56179" r="0.5" fill="rgb(0,0,0)" />
<circle cx="18.7568" cy="18.1487" r="0.5" fill="rgb(0,0,0)" />
<circle cx="18.5047" cy="1.79804" r="0.5" fill="rgb(0,0,0)" />
<circle cx="18.5036" cy="0.447157" r="0.5" fill="rgb(0,0,0)" />
<circle cx="15.7226" cy="7.18019" r="0.5" fill="rgb(0,0,0)" />
<circle cx="10.9044" cy="14.5092" r="0.5" fill="rgb(0,0,0)" />
<circle cx="18.2967" cy="9.43172" r="0.5" fill="rgb(0,0,0)" />
<circle cx="16.2986" cy="15.3893" r="0.5" fill="rgb(0,0,0)" />
<circle cx="18.5458" cy="13.1337" r="0.5" fill="rgb(0,0,0)" />
<circle cx="18.2747" cy="11.2498" r="0.5" fill="rgb(0,0,0)" />
<circle cx="0.425338" cy="16.7083" r="0.5" fill="rgb(0,0,0)" />
<circle cx="16.854" cy="17.2615" r="0.5" fill="rgb(0,0,0)" />
<circle cx="18.4908" cy="4.52662" r="0.5" fill="rgb(0,0,0)" />
<circle cx="18.4778" cy="3.26986" r="0.5" fill="rgb(0,0,0)" />
<circle cx="17.8734" cy="18.7224" r="0.5" fill="rgb(0,0,0)" />
<circle cx="14.5777" cy="3.07013" r="0.5" fill="rgb(0,0,0)" />
<circle cx="9.59524" cy="10.677" r="0.5" fill="rgb(0,0,0)" />
<circle cx="16.5675" cy="18.4277" r="0.5" fill="rgb(0,0,0)" />
<circle cx="15.091" cy="18.6635" r="0.5" fill="rgb(0,0,0)" />
<circle cx="7.70205" cy="15.126" r="0.5" fill="rgb(0,0,0)" />
<circle cx="5.52548" cy="16.7476" r="0.5" fill="rgb(0,0,0)" />
<circle cx="13.6576" cy="18.4878" r="0.5" fill="rgb(0,0,0)" />
<circle cx="9.06603" cy="4.11118" r="0.5" fill="rgb(0,0,0)" />
<circle cx="2.7841" cy="4.0153" r="0.5" fill="rgb(0,0,0)" />
<circle cx="0.546682" cy="2.30193" r="0.5" fill="rgb(0,0,0)" />
<circle cx="0.461253" cy="11.6639" r="0.5" fill="rgb(0,0,0)" />
<circle cx="9.32494" cy="11.8383" r="0.5" fill="rgb(0,0,0)" />
<circle cx="0.458309" cy="10.047" r="0.5" fill="rgb(0,0,0)" />
<circle cx="15.029" cy="4.88748" r="0.5" fill="rgb(0,0,0)" />
<circle cx="13.4345" cy="8.0856" r="0.5" fill="rgb(0,0,0)" />
<circle cx="14.9361" cy="12.4777" r="0.5" fill="rgb(0,0,0)" />
<circle cx="0.43555" cy="8.63082" r="0.5" fill="rgb(0,0,0)" />
<circle cx="0.455166" cy="14.5266" r="0.5" fill="rgb(0,0,0)" />
<circle cx="0.420259" cy="13.1104" r="0.5" fill="rgb(0,0,0)" />
<circle cx="18.376" cy="8.10476" r="0.5" fill="rgb(0,0,0)" />
<circle cx="14.2676" cy="12.902" r="0.5" fill="rgb(0,0,0)" />
<circle cx="18.5941" cy="6.50582" r="0.5" fill="rgb(0,0,0)" />
<circle cx="9.45119" cy="6.66348" r="0.5" fill="rgb(0,0,0)" />
<circle cx="9.85395" cy="18.4758" r="0.5" fill="rgb(0,0,0)" />
<circle cx="0.44829" cy="6.90387" r="0.5" fill="rgb(0,0,0)" />
<circle cx="3.31134" cy="18.4625" r="0.5" fill="rgb(0,0,0)" />
<circle cx="11.3722" cy="18.5602" r="0.5" fill="rgb(0,0,0)" />
<circle cx="12.5393" cy="18.5152" r="0.5" fill="rgb(0,0,0)" />
<circle cx="7.76191" cy="18.5875" r="0.5" fill="rgb(0,0,0)" />
<circle cx="6.0057" cy="18.5053" r="0.5" fill="rgb(0,0,0)" />
<circle cx="5.0242" cy="2.78509" r="0.5" fill="rgb(0,0,0)" />
<circle cx="0.357003" cy="5.49215" r="0.5" fill="rgb(0,0,0)" />
<circle cx="15.4937" cy="5.29384" r="0.5" fill="rgb(0,0,0)" />
<circle cx="0.771179" cy="15.608" r="0.5" fill="rgb(0,0,0)" />
<circle cx="0.410048" cy="4.35779" r="0.5" fill="rgb(0,0,0)" />
<circle cx="7.40029" cy="16.1224" r="0.5" fill="rgb(0,0,0)" />
<circle cx="4.24225" cy="18.2268" r="0.5" fill="rgb(0,0,0)" />
<circle cx="0.644612" cy="0.663549" r="0.5" fill="rgb(0,0,0)" />
<circle cx="18.401" cy="18.3714" r="0.5" fill="rgb(0,0,0)" />
<circle cx="2.66003" cy="0.4536" r="0.5" fill="rgb(0,0,0)" />
<circle cx="0.26175" cy="17.6854" r="0.5" fill="rgb(0,0,0)" />
<circle cx="5.38804" cy="7.40594" r="0.5" fill="rgb(0,0,0)" />
<circle cx="9.01062" cy="17.5037" r="0.5" fill="rgb(0,0,0)" />
<circle cx="0.370208" cy="18.4662" r="0.5" fill="rgb(0,0,0)" />
<circle cx="7.42115" cy="3.7814" r="0.5" fill="rgb(0,0,0)" />
<circle cx="2.07064" cy="18.5958" r="0.5" fill="rgb(0,0,0)" />
<circle cx="2.98853" cy="16.7277" r="0.5" fill="rgb(0,0,0)" />
<circle cx="1.08677" cy="18.5811" r="0.5" fill="rgb(0,0,0)" />
</svg>
