<?xml version="1.0" ?>
<!DOCTYPE svg PUBLIC "-//W3C//DTD SVG 1.1//EN" "http://www.w3.org/Graphics/SVG/1.1/DTD/svg11.dtd">
<svg width="20" height="20" version="1.1" xmlns="http://www.w3.org/2000/svg">
<circle cx="14.2895" cy="0.737746" r="0.5" fill="rgb(0,0,0)" />
<circle cx="10.1832" cy="1.00032" r="0.5" fill="rgb(0,0,0)" />
<circle cx="12.1946" cy="1.63052" r="0.5" fill="rgb(0,0,0)" />
<circle cx="7.13451" cy="1.14689" r="0.5" fill="rgb(0,0,0)" />
<circle cx="15.7508" cy="2.67611" r="0.5" fill="rgb(0,0,0)" />
<circle cx="11.8641" cy="4.22687" r="0.5" fill="rgb(0,0,0)" />
<circle cx="16.4824" cy="4.90642" r="0.5" fill="rgb(0,0,0)" />
<circle cx="9.26739" cy="3.56278" r="0.5" fill="rgb(0,0,0)" />
<circle cx="7.33951" cy="5.4522" r="0.5" fill="rgb(0,0,0)" />
<circle cx="13.7462" cy="5.88198" r="0.5" fill="rgb(0,0,0)" />
<circle cx="3.37768" cy="3.88621" r="0.5" fill="rgb(0,0,0)" />
<circle cx="16.3863" cy="6.77956" r="0.5" fill="rgb(0,0,0)" />
<circle cx="10.9861" cy="6.44894" r="0.5" fill="rgb(0,0,0)" />
<circle cx="14.9341" cy="8.03901" r="0.5" fill="rgb(0,0,0)" />
<circle cx="16.9991" cy="9.97456" r="0.5" fill="rgb(0,0,0)" />
<circle cx="7.55536" cy="12.1485" r="0.5" fill="rgb(0,0,0)" />
<circle cx="17.8762" cy="3.24338" r="0.5" fill="rgb(0,0,0)" />
<circle cx="12.3166" cy="12.8243" r="0.5" fill="rgb(0,0,0)" />
<circle cx="13.7609" cy="2.86256" r="0.5" fill="rgb(0,0,0)" />
<circle cx="9.7567" cy="13.0291" r="0.5" fill="rgb(0,0,0)" />
<circle cx="14.222" cy="10.7381" r="0.5" fill="rgb(0,0,0)" />
<circle cx="16.6836" cy="14.1925" r="0.5" fill="rgb(0,0,0)" />
<circle cx="14.7098" cy="14.6511" r="0.5" fill="rgb(0,0,0)" />
<circle cx="4.25175" cy="11.6568" r="0.5" fill="rgb(0,0,0)" />
<circle cx="1.31173" cy="6.53439" r="0.5" fill="rgb(0,0,0)" />
<circle cx="4.65873" cy="14.3076" r="0.5" fill="rgb(0,0,0)" />
<circle cx="12.4554" cy="15.1879" r="0.5" fill="rgb(0,0,0)" />
<circle cx="5.75102" cy="3.41583" r="0.5" fill="rgb(0,0,0)" />
<circle cx="18.1033" cy="1.01549" r="0.5" fill="rgb(0,0,0)" />
<circle cx="2.88174" cy="9.69604" r="0.5" fill="rgb(0,0,0)" />
<circle cx="10.1399" cy="15.3267" r="0.5" fill="rgb(0,0,0)" />
<circle cx="13.9713" cy="16.2449" r="0.5" fill="rgb(0,0,0)" />
<circle cx="7.3354" cy="15.0808" r="0.5" fill="rgb(0,0,0)" />
<circle cx="16.1582" cy="16.3648" r="0.5" fill="rgb(0,0,0)" />
<circle cx="2.0388" cy="15.5044" r="0.5" fill="rgb(0,0,0)" />
<circle cx="14.2348" cy="17.8773" r="0.5" fill="rgb(0,0,0)" />
<circle cx="12.7459" cy="18.0605" r="0.5" fill="rgb(0,0,0)" />
<circle cx="11.2409" cy="17.5352" r="0.5" fill="rgb(0,0,0)" />
<circle cx="14.9445" cy="4.29721" r="0.5" fill="rgb(0,0,0)" />
<circle cx="15.0296" cy="12.6922" r="0.5" fill="rgb(0,0,0)" />
<circle cx="17.7422" cy="12.153" r="0.5" fill="rgb(0,0,0)" />
<circle cx="1.27578" cy="12.8721" r="0.5" fill="rgb(0,0,0)" />
<circle cx="0.838167" cy="9.30605" r="0.5" fill="rgb(0,0,0)" />
<circle cx="16.4485" cy="1.05495" r="0.5" fill="rgb(0,0,0)" />
<circle cx="17.9857" cy="8.08829" r="0.5" fill="rgb(0,0,0)" />
<circle cx="6.47898" cy="9.9918" r="0.5" fill="rgb(0,0,0)" />
<circle cx="18.1426" cy="5.54235" r="0.5" fill="rgb(0,0,0)" />
<circle cx="6.67191" cy="7.72952" r="0.5" fill="rgb(0,0,0)" />
<circle cx="12.7554" cy="8.68088" r="0.5" fill="rgb(0,0,0)" />
<circle cx="1.08201" cy="4.08651" r="0.5" fill="rgb(0,0,0)" />
<circle cx="9.02092" cy="17.6381" r="0.5" fill="rgb(0,0,0)" />
<circle cx="18.1377" cy="15.0982" r="0.5" fill="rgb(0,0,0)" />
<circle cx="6.44415" cy="17.5763" r="0.5" fill="rgb(0,0,0)" />
<circle cx="4.09134" cy="6.90035" r="0.5" fill="rgb(0,0,0)" />
<circle cx="1.12872" cy="1.30269" r="0.5" fill="rgb(0,0,0)" />
<circle cx="10.7632" cy="10.5265" r="0.5" fill="rgb(0,0,0)" />
<circle cx="3.79811" cy="1.09449" r="0.5" fill="rgb(0,0,0)" />
<circle cx="1.01159" cy="17.5462" r="0.5" fill="rgb(0,0,0)" />
<circle cx="3.88148" cy="17.5862" r="0.5" fill="rgb(0,0,0)" />
<circle cx="15.6854" cy="18.1829" r="0.5" fill="rgb(0,0,0)" />
<circle cx="9.30523" cy="8.2958" r="0.5" fill="rgb(0,0,0)" />
<circle cx="17.2031" cy="17.9868" r="0.5" fill="rgb(0,0,0)" />
<circle cx="18.319" cy="17.5061" r="0.5" fill="rgb(0,0,0)" />
</svg>
