<?xml version="1.0" ?>
<!DOCTYPE svg PUBLIC "-//W3C//DTD SVG 1.1//EN" "http://www.w3.org/Graphics/SVG/1.1/DTD/svg11.dtd">
<svg width="20" height="20" version="1.1" xmlns="http://www.w3.org/2000/svg">
<circle cx="7.54827" cy="1.37579" r="0.5" fill="rgb(0,0,0)" />
<circle cx="16.4363" cy="2.63476" r="0.5" fill="rgb(0,0,0)" />
<circle cx="5.90055" cy="3.81639" r="0.5" fill="rgb(0,0,0)" />
<circle cx="14.5851" cy="4.77622" r="0.5" fill="rgb(0,0,0)" />
<circle cx="11.9319" cy="5.64619" r="0.5" fill="rgb(0,0,0)" />
<circle cx="10.283" cy="3.45174" r="0.5" fill="rgb(0,0,0)" />
<circle cx="8.02068" cy="5.74649" r="0.5" fill="rgb(0,0,0)" />
<circle cx="4.18292" cy="6.83697" r="0.5" fill="rgb(0,0,0)" />
<circle cx="9.90235" cy="8.6943" r="0.5" fill="rgb(0,0,0)" />
<circle cx="2.79863" cy="10.4825" r="0.5" fill="rgb(0,0,0)" />
<circle cx="16.9676" cy="8.45227" r="0.5" fill="rgb(0,0,0)" />
<circle cx="6.30102" cy="12.7503" r="0.5" fill="rgb(0,0,0)" />
<circle cx="10.0618" cy="12.2222" r="0.5" fill="rgb(0,0,0)" />
<circle cx="3.16886" cy="3.72731" r="0.5" fill="rgb(0,0,0)" />
<circle cx="12.0159" cy="14.4116" r="0.5" fill="rgb(0,0,0)" />
<circle cx="15.7945" cy="16.0082" r="0.5" fill="rgb(0,0,0)" />
<circle cx="13.7209" cy="16.3462" r="0.5" fill="rgb(0,0,0)" />
<circle cx="6.527" cy="9.12827" r="0.5" fill="rgb(0,0,0)" />
<circle cx="14.0502" cy="11.3165" r="0.5" fill="rgb(0,0,0)" />
<circle cx="1.91072" cy="13.4068" r="0.5" fill="rgb(0,0,0)" />
<circle cx="7.41138" cy="16.3802" r="0.5" fill="rgb(0,0,0)" />
<circle cx="9.75305" cy="17.1329" r="0.5" fill="rgb(0,0,0)" />
<circle cx="17.5668" cy="5.3799" r="0.5" fill="rgb(0,0,0)" />
<circle cx="17.5984" cy="11.6286" r="0.5" fill="rgb(0,0,0)" />
<circle cx="1.41064" cy="17.0415" r="0.5" fill="rgb(0,0,0)" />
<circle cx="4.52174" cy="16.8613" r="0.5" fill="rgb(0,0,0)" />
<circle cx="17.7948" cy="1.18582" r="0.5" fill="rgb(0,0,0)" />
<circle cx="4.17636" cy="1.12603" r="0.5" fill="rgb(0,0,0)" />
<circle cx="1.18549" cy="1.43934" r="0.5" fill="rgb(0,0,0)" />
<circle cx="1.16098" cy="8.23271" r="0.5" fill="rgb(0,0,0)" />
<circle cx="13.3282" cy="8.46185" r="0.5" fill="rgb(0,0,0)" />
<circle cx="1.10773" cy="4.91751" r="0.5" fill="rgb(0,0,0)" />
<circle cx="12.2032" cy="17.8408" r="0.5" fill="rgb(0,0,0)" />
<circle cx="15.2914" cy="18.076" r="0.5" fill="rgb(0,0,0)" />
<circle cx="15.5112" cy="13.7002" r="0.5" fill="rgb(0,0,0)" />
<circle cx="17.7709" cy="17.7954" r="0.5" fill="rgb(0,0,0)" />
<circle cx="10.9174" cy="1.08885" r="0.5" fill="rgb(0,0,0)" />
<circle cx="13.9393" cy="1.39574" r="0.5" fill="rgb(0,0,0)" />
<circle cx="17.925" cy="15.104" r="0.5" fill="rgb(0,0,0)" />
</svg>
