<?xml version="1.0" ?>
<!DOCTYPE svg PUBLIC "-//W3C//DTD SVG 1.1//EN" "http://www.w3.org/Graphics/SVG/1.1/DTD/svg11.dtd">
<svg width="20" height="20" version="1.1" xmlns="http://www.w3.org/2000/svg">
<circle cx="16.8731" cy="0.582386" r="0.5" fill="rgb(0,0,0)" />
<circle cx="8.30569" cy="0.571617" r="0.5" fill="rgb(0,0,0)" />
<circle cx="5.26821" cy="1.41518" r="0.5" fill="rgb(0,0,0)" />
<circle cx="16.301" cy="1.70599" r="0.5" fill="rgb(0,0,0)" />
<circle cx="15.3889" cy="2.42513" r="0.5" fill="rgb(0,0,0)" />
<circle cx="10.5872" cy="0.753526" r="0.5" fill="rgb(0,0,0)" />
<circle cx="18.3642" cy="0.609884" r="0.5" fill="rgb(0,0,0)" />
<circle cx="9.15327" cy="1.81456" r="0.5" fill="rgb(0,0,0)" />
<circle cx="13.2098" cy="3.52461" r="0.5" fill="rgb(0,0,0)" />
<circle cx="15.1473" cy="3.95009" r="0.5" fill="rgb(0,0,0)" />
<circle cx="13.9107" cy="1.81841" r="0.5" fill="rgb(0,0,0)" />
<circle cx="6.72051" cy="3.77118" r="0.5" fill="rgb(0,0,0)" />
<circle cx="17.5675" cy="4.26961" r="0.5" fill="rgb(0,0,0)" />
<circle cx="3.93655" cy="1.7958" r="0.5" fill="rgb(0,0,0)" />
<circle cx="5.1295" cy="3.67511" r="0.5" fill="rgb(0,0,0)" />
<circle cx="4.0597" cy="4.26565" r="0.5" fill="rgb(0,0,0)" />
<circle cx="16.204" cy="4.55177" r="0.5" fill="rgb(0,0,0)" />
<circle cx="11.7093" cy="4.09237" r="0.5" fill="rgb(0,0,0)" />
<circle cx="6.03746" cy="5.10473" r="0.5" fill="rgb(0,0,0)" />
<circle cx="10.1346" cy="4.93596" r="0.5" fill="rgb(0,0,0)" />
<circle cx="1.97787" cy="2.02504" r="0.5" fill="rgb(0,0,0)" />
<circle cx="14.765" cy="5.20564" r="0.5" fill="rgb(0,0,0)" />
<circle cx="1.81287" cy="3.43223" r="0.5" fill="rgb(0,0,0)" />
<circle cx="13.3171" cy="5.04764" r="0.5" fill="rgb(0,0,0)" />
<circle cx="2.62608" cy="4.94964" r="0.5" fill="rgb(0,0,0)" />
<circle cx="17.0025" cy="5.65692" r="0.5" fill="rgb(0,0,0)" />
<circle cx="12.7214" cy="0.602393" r="0.5" fill="rgb(0,0,0)" />
<circle cx="1.66301" cy="5.74712" r="0.5" fill="rgb(0,0,0)" />
<circle cx="15.7197" cy="6.0598" r="0.5" fill="rgb(0,0,0)" />
<circle cx="4.35576" cy="5.80633" r="0.5" fill="rgb(0,0,0)" />
<circle cx="6.02494" cy="6.66861" r="0.5" fill="rgb(0,0,0)" />
<circle cx="9.87258" cy="6.60211" r="0.5" fill="rgb(0,0,0)" />
<circle cx="8.33516" cy="6.65299" r="0.5" fill="rgb(0,0,0)" />
<circle cx="1.75378" cy="7.12971" r="0.5" fill="rgb(0,0,0)" />
<circle cx="11.2978" cy="6.5977" r="0.5" fill="rgb(0,0,0)" />
<circle cx="17.0333" cy="7.26894" r="0.5" fill="rgb(0,0,0)" />
<circle cx="2.55471" cy="8.12723" r="0.5" fill="rgb(0,0,0)" />
<circle cx="15.4518" cy="7.4864" r="0.5" fill="rgb(0,0,0)" />
<circle cx="5.44107" cy="7.71772" r="0.5" fill="rgb(0,0,0)" />
<circle cx="7.16927" cy="8.2413" r="0.5" fill="rgb(0,0,0)" />
<circle cx="2.3768" cy="9.07868" r="0.5" fill="rgb(0,0,0)" />
<circle cx="5.87014" cy="2.44881" r="0.5" fill="rgb(0,0,0)" />
<circle cx="10.3933" cy="8.34513" r="0.5" fill="rgb(0,0,0)" />
<circle cx="16.3338" cy="8.6331" r="0.5" fill="rgb(0,0,0)" />
<circle cx="0.757456" cy="8.05758" r="0.5" fill="rgb(0,0,0)" />
<circle cx="7.82063" cy="2.71906" r="0.5" fill="rgb(0,0,0)" />
<circle cx="5.1957" cy="8.93496" r="0.5" fill="rgb(0,0,0)" />
<circle cx="13.9683" cy="8.60746" r="0.5" fill="rgb(0,0,0)" />
<circle cx="3.87542" cy="8.92165" r="0.5" fill="rgb(0,0,0)" />
<circle cx="7.36697" cy="5.91677" r="0.5" fill="rgb(0,0,0)" />
<circle cx="2.99334" cy="9.89102" r="0.5" fill="rgb(0,0,0)" />
<circle cx="11.544" cy="9.50624" r="0.5" fill="rgb(0,0,0)" />
<circle cx="9.42298" cy="9.48411" r="0.5" fill="rgb(0,0,0)" />
<circle cx="8.8705" cy="8.03245" r="0.5" fill="rgb(0,0,0)" />
<circle cx="1.51429" cy="9.86745" r="0.5" fill="rgb(0,0,0)" />
<circle cx="7.66906" cy="9.83385" r="0.5" fill="rgb(0,0,0)" />
<circle cx="9.04015" cy="10.8182" r="0.5" fill="rgb(0,0,0)" />
<circle cx="6.41102" cy="10.5166" r="0.5" fill="rgb(0,0,0)" />
<circle cx="14.8025" cy="11.1753" r="0.5" fill="rgb(0,0,0)" />
<circle cx="3.06288" cy="11.0032" r="0.5" fill="rgb(0,0,0)" />
<circle cx="4.82098" cy="10.7123" r="0.5" fill="rgb(0,0,0)" />
<circle cx="16.3145" cy="12.0636" r="0.5" fill="rgb(0,0,0)" />
<circle cx="12.7162" cy="12.4417" r="0.5" fill="rgb(0,0,0)" />
<circle cx="13.3905" cy="10.4205" r="0.5" fill="rgb(0,0,0)" />
<circle cx="14.6669" cy="12.693" r="0.5" fill="rgb(0,0,0)" />
<circle cx="8.35976" cy="12.3871" r="0.5" fill="rgb(0,0,0)" />
<circle cx="3.68547" cy="12.4937" r="0.5" fill="rgb(0,0,0)" />
<circle cx="10.7092" cy="13.4011" r="0.5" fill="rgb(0,0,0)" />
<circle cx="16.0222" cy="13.8583" r="0.5" fill="rgb(0,0,0)" />
<circle cx="14.0312" cy="13.922" r="0.5" fill="rgb(0,0,0)" />
<circle cx="3.29096" cy="3.12204" r="0.5" fill="rgb(0,0,0)" />
<circle cx="0.436532" cy="9.56931" r="0.5" fill="rgb(0,0,0)" />
<circle cx="1.1139" cy="11.4657" r="0.5" fill="rgb(0,0,0)" />
<circle cx="14.9055" cy="0.622109" r="0.5" fill="rgb(0,0,0)" />
<circle cx="12.3859" cy="14.1031" r="0.5" fill="rgb(0,0,0)" />
<circle cx="11.4474" cy="11.0762" r="0.5" fill="rgb(0,0,0)" />
<circle cx="15.0494" cy="15.0812" r="0.5" fill="rgb(0,0,0)" />
<circle cx="8.30645" cy="14.3211" r="0.5" fill="rgb(0,0,0)" />
<circle cx="4.88487" cy="15.074" r="0.5" fill="rgb(0,0,0)" />
<circle cx="18.2429" cy="6.47198" r="0.5" fill="rgb(0,0,0)" />
<circle cx="14.1159" cy="6.79919" r="0.5" fill="rgb(0,0,0)" />
<circle cx="1.98057" cy="14.5358" r="0.5" fill="rgb(0,0,0)" />
<circle cx="13.1997" cy="15.2608" r="0.5" fill="rgb(0,0,0)" />
<circle cx="17.7971" cy="14.9054" r="0.5" fill="rgb(0,0,0)" />
<circle cx="14.0965" cy="15.8373" r="0.5" fill="rgb(0,0,0)" />
<circle cx="16.3987" cy="15.4061" r="0.5" fill="rgb(0,0,0)" />
<circle cx="12.1245" cy="2.09344" r="0.5" fill="rgb(0,0,0)" />
<circle cx="5.93578" cy="15.5323" r="0.5" fill="rgb(0,0,0)" />
<circle cx="10.1307" cy="14.965" r="0.5" fill="rgb(0,0,0)" />
<circle cx="7.58636" cy="15.6408" r="0.5" fill="rgb(0,0,0)" />
<circle cx="11.3646" cy="15.5571" r="0.5" fill="rgb(0,0,0)" />
<circle cx="16.7403" cy="3.17897" r="0.5" fill="rgb(0,0,0)" />
<circle cx="6.677" cy="16.4911" r="0.5" fill="rgb(0,0,0)" />
<circle cx="14.3787" cy="3.17111" r="0.5" fill="rgb(0,0,0)" />
<circle cx="15.2761" cy="16.4963" r="0.5" fill="rgb(0,0,0)" />
<circle cx="12.2488" cy="16.4692" r="0.5" fill="rgb(0,0,0)" />
<circle cx="4.22279" cy="16.5028" r="0.5" fill="rgb(0,0,0)" />
<circle cx="13.847" cy="17.0341" r="0.5" fill="rgb(0,0,0)" />
<circle cx="16.5365" cy="16.9754" r="0.5" fill="rgb(0,0,0)" />
<circle cx="9.27244" cy="16.4617" r="0.5" fill="rgb(0,0,0)" />
<circle cx="5.58272" cy="17.2588" r="0.5" fill="rgb(0,0,0)" />
<circle cx="15.2589" cy="17.8001" r="0.5" fill="rgb(0,0,0)" />
<circle cx="2.6437" cy="16.7025" r="0.5" fill="rgb(0,0,0)" />
<circle cx="8.2377" cy="17.5402" r="0.5" fill="rgb(0,0,0)" />
<circle cx="8.38355" cy="4.42083" r="0.5" fill="rgb(0,0,0)" />
<circle cx="12.222" cy="17.7277" r="0.5" fill="rgb(0,0,0)" />
<circle cx="1.51283" cy="17.5562" r="0.5" fill="rgb(0,0,0)" />
<circle cx="7.04592" cy="17.771" r="0.5" fill="rgb(0,0,0)" />
<circle cx="5.46735" cy="13.6763" r="0.5" fill="rgb(0,0,0)" />
<circle cx="17.2155" cy="17.8908" r="0.5" fill="rgb(0,0,0)" />
<circle cx="17.9184" cy="13.3709" r="0.5" fill="rgb(0,0,0)" />
<circle cx="17.9312" cy="11.3799" r="0.5" fill="rgb(0,0,0)" />
<circle cx="17.9453" cy="9.65983" r="0.5" fill="rgb(0,0,0)" />
<circle cx="18.2266" cy="8.11913" r="0.5" fill="rgb(0,0,0)" />
<circle cx="10.5277" cy="17.8214" r="0.5" fill="rgb(0,0,0)" />
<circle cx="18.4007" cy="4.9946" r="0.5" fill="rgb(0,0,0)" />
<circle cx="15.8115" cy="9.9649" r="0.5" fill="rgb(0,0,0)" />
<circle cx="18.2958" cy="3.14046" r="0.5" fill="rgb(0,0,0)" />
<circle cx="10.2557" cy="2.95368" r="0.5" fill="rgb(0,0,0)" />
<circle cx="12.6977" cy="18.5194" r="0.5" fill="rgb(0,0,0)" />
<circle cx="15.9528" cy="18.5357" r="0.5" fill="rgb(0,0,0)" />
<circle cx="3.54086" cy="7.05926" r="0.5" fill="rgb(0,0,0)" />
<circle cx="14.169" cy="18.2937" r="0.5" fill="rgb(0,0,0)" />
<circle cx="18.0135" cy="1.87744" r="0.5" fill="rgb(0,0,0)" />
<circle cx="4.39664" cy="18.139" r="0.5" fill="rgb(0,0,0)" />
<circle cx="0.960407" cy="13.2222" r="0.5" fill="rgb(0,0,0)" />
<circle cx="0.450864" cy="6.2989" r="0.5" fill="rgb(0,0,0)" />
<circle cx="3.47391" cy="14.7151" r="0.5" fill="rgb(0,0,0)" />
<circle cx="18.2421" cy="16.0043" r="0.5" fill="rgb(0,0,0)" />
<circle cx="0.695994" cy="15.7972" r="0.5" fill="rgb(0,0,0)" />
<circle cx="12.5918" cy="6.32938" r="0.5" fill="rgb(0,0,0)" />
<circle cx="6.06124" cy="18.4784" r="0.5" fill="rgb(0,0,0)" />
<circle cx="12.2712" cy="8.20344" r="0.5" fill="rgb(0,0,0)" />
<circle cx="4.99259" cy="0.360833" r="0.5" fill="rgb(0,0,0)" />
<circle cx="0.61109" cy="1.1988" r="0.5" fill="rgb(0,0,0)" />
<circle cx="6.84524" cy="1.01948" r="0.5" fill="rgb(0,0,0)" />
<circle cx="0.594985" cy="4.06289" r="0.5" fill="rgb(0,0,0)" />
<circle cx="2.53083" cy="0.574351" r="0.5" fill="rgb(0,0,0)" />
<circle cx="8.7452" cy="18.5018" r="0.5" fill="rgb(0,0,0)" />
<circle cx="2.88712" cy="18.3459" r="0.5" fill="rgb(0,0,0)" />
<circle cx="10.116" cy="12.0626" r="0.5" fill="rgb(0,0,0)" />
<circle cx="6.50761" cy="12.4586" r="0.5" fill="rgb(0,0,0)" />
<circle cx="0.566797" cy="18.1506" r="0.5" fill="rgb(0,0,0)" />
<circle cx="18.1376" cy="18.5193" r="0.5" fill="rgb(0,0,0)" />
<circle cx="18.3535" cy="17.2965" r="0.5" fill="rgb(0,0,0)" />
</svg>
