<?xml version="1.0" ?>
<!DOCTYPE svg PUBLIC "-//W3C//DTD SVG 1.1//EN" "http://www.w3.org/Graphics/SVG/1.1/DTD/svg11.dtd">
<svg width="20" height="20" version="1.1" xmlns="http://www.w3.org/2000/svg">
<circle cx="16.8806" cy="0.582347" r="0.5" fill="rgb(0,0,0)" />
<circle cx="12.8188" cy="0.533503" r="0.5" fill="rgb(0,0,0)" />
<circle cx="14.9443" cy="0.603366" r="0.5" fill="rgb(0,0,0)" />
<circle cx="8.28435" cy="0.525894" r="0.5" fill="rgb(0,0,0)" />
<circle cx="7.14969" cy="1.29895" r="0.5" fill="rgb(0,0,0)" />
<circle cx="14.0362" cy="1.71639" r="0.5" fill="rgb(0,0,0)" />
<circle cx="1.97508" cy="2.03636" r="0.5" fill="rgb(0,0,0)" />
<circle cx="9.16924" cy="1.73451" r="0.5" fill="rgb(0,0,0)" />
<circle cx="12.0074" cy="1.67633" r="0.5" fill="rgb(0,0,0)" />
<circle cx="4.83675" cy="2.63269" r="0.5" fill="rgb(0,0,0)" />
<circle cx="15.4022" cy="2.44571" r="0.5" fill="rgb(0,0,0)" />
<circle cx="12.8826" cy="2.58998" r="0.5" fill="rgb(0,0,0)" />
<circle cx="10.7435" cy="2.46198" r="0.5" fill="rgb(0,0,0)" />
<circle cx="7.6475" cy="2.57396" r="0.5" fill="rgb(0,0,0)" />
<circle cx="4.05467" cy="3.58146" r="0.5" fill="rgb(0,0,0)" />
<circle cx="5.35652" cy="3.65144" r="0.5" fill="rgb(0,0,0)" />
<circle cx="3.12316" cy="3.11727" r="0.5" fill="rgb(0,0,0)" />
<circle cx="6.74257" cy="3.60539" r="0.5" fill="rgb(0,0,0)" />
<circle cx="8.66185" cy="3.54202" r="0.5" fill="rgb(0,0,0)" />
<circle cx="6.62926" cy="4.87433" r="0.5" fill="rgb(0,0,0)" />
<circle cx="3.92779" cy="4.77117" r="0.5" fill="rgb(0,0,0)" />
<circle cx="14.7889" cy="5.21425" r="0.5" fill="rgb(0,0,0)" />
<circle cx="13.3662" cy="5.10897" r="0.5" fill="rgb(0,0,0)" />
<circle cx="10.526" cy="5.15392" r="0.5" fill="rgb(0,0,0)" />
<circle cx="2.5716" cy="4.9754" r="0.5" fill="rgb(0,0,0)" />
<circle cx="5.86999" cy="5.80319" r="0.5" fill="rgb(0,0,0)" />
<circle cx="16.9776" cy="5.62263" r="0.5" fill="rgb(0,0,0)" />
<circle cx="15.7157" cy="6.06669" r="0.5" fill="rgb(0,0,0)" />
<circle cx="9.15495" cy="6.0029" r="0.5" fill="rgb(0,0,0)" />
<circle cx="5.85501" cy="6.70989" r="0.5" fill="rgb(0,0,0)" />
<circle cx="10.2131" cy="6.95225" r="0.5" fill="rgb(0,0,0)" />
<circle cx="1.77168" cy="7.19001" r="0.5" fill="rgb(0,0,0)" />
<circle cx="14.1653" cy="6.75997" r="0.5" fill="rgb(0,0,0)" />
<circle cx="3.48283" cy="7.12771" r="0.5" fill="rgb(0,0,0)" />
<circle cx="1.97401" cy="6.05224" r="0.5" fill="rgb(0,0,0)" />
<circle cx="16.9348" cy="7.34167" r="0.5" fill="rgb(0,0,0)" />
<circle cx="15.1582" cy="3.93923" r="0.5" fill="rgb(0,0,0)" />
<circle cx="2.56701" cy="8.13008" r="0.5" fill="rgb(0,0,0)" />
<circle cx="15.4058" cy="7.50674" r="0.5" fill="rgb(0,0,0)" />
<circle cx="6.3154" cy="7.57019" r="0.5" fill="rgb(0,0,0)" />
<circle cx="2.00232" cy="3.62044" r="0.5" fill="rgb(0,0,0)" />
<circle cx="9.04693" cy="7.84832" r="0.5" fill="rgb(0,0,0)" />
<circle cx="5.14586" cy="7.88218" r="0.5" fill="rgb(0,0,0)" />
<circle cx="0.914496" cy="8.16475" r="0.5" fill="rgb(0,0,0)" />
<circle cx="17.5399" cy="4.26148" r="0.5" fill="rgb(0,0,0)" />
<circle cx="7.08412" cy="8.41693" r="0.5" fill="rgb(0,0,0)" />
<circle cx="16.3358" cy="8.64334" r="0.5" fill="rgb(0,0,0)" />
<circle cx="2.34529" cy="9.08603" r="0.5" fill="rgb(0,0,0)" />
<circle cx="11.4118" cy="6.67229" r="0.5" fill="rgb(0,0,0)" />
<circle cx="3.83362" cy="8.79446" r="0.5" fill="rgb(0,0,0)" />
<circle cx="5.2292" cy="9.0953" r="0.5" fill="rgb(0,0,0)" />
<circle cx="12.1743" cy="8.28337" r="0.5" fill="rgb(0,0,0)" />
<circle cx="14.6586" cy="9.31566" r="0.5" fill="rgb(0,0,0)" />
<circle cx="9.7267" cy="9.5223" r="0.5" fill="rgb(0,0,0)" />
<circle cx="7.40788" cy="6.07345" r="0.5" fill="rgb(0,0,0)" />
<circle cx="1.59013" cy="9.94925" r="0.5" fill="rgb(0,0,0)" />
<circle cx="4.66959" cy="10.3051" r="0.5" fill="rgb(0,0,0)" />
<circle cx="8.8984" cy="10.6999" r="0.5" fill="rgb(0,0,0)" />
<circle cx="6.249" cy="10.4387" r="0.5" fill="rgb(0,0,0)" />
<circle cx="5.28298" cy="4.8398" r="0.5" fill="rgb(0,0,0)" />
<circle cx="3.08334" cy="10.8307" r="0.5" fill="rgb(0,0,0)" />
<circle cx="3.77115" cy="1.84472" r="0.5" fill="rgb(0,0,0)" />
<circle cx="12.2437" cy="10.8068" r="0.5" fill="rgb(0,0,0)" />
<circle cx="10.7331" cy="10.9263" r="0.5" fill="rgb(0,0,0)" />
<circle cx="4.58474" cy="11.7029" r="0.5" fill="rgb(0,0,0)" />
<circle cx="13.2757" cy="3.80252" r="0.5" fill="rgb(0,0,0)" />
<circle cx="13.5425" cy="10.6777" r="0.5" fill="rgb(0,0,0)" />
<circle cx="10.4457" cy="12.2516" r="0.5" fill="rgb(0,0,0)" />
<circle cx="16.3136" cy="12.0939" r="0.5" fill="rgb(0,0,0)" />
<circle cx="12.5116" cy="12.5085" r="0.5" fill="rgb(0,0,0)" />
<circle cx="13.6317" cy="8.32398" r="0.5" fill="rgb(0,0,0)" />
<circle cx="6.14309" cy="12.389" r="0.5" fill="rgb(0,0,0)" />
<circle cx="9.05031" cy="12.4361" r="0.5" fill="rgb(0,0,0)" />
<circle cx="7.6772" cy="12.3123" r="0.5" fill="rgb(0,0,0)" />
<circle cx="16.3977" cy="10.2457" r="0.5" fill="rgb(0,0,0)" />
<circle cx="4.36582" cy="13.2303" r="0.5" fill="rgb(0,0,0)" />
<circle cx="0.497467" cy="6.80294" r="0.5" fill="rgb(0,0,0)" />
<circle cx="5.55464" cy="1.43571" r="0.5" fill="rgb(0,0,0)" />
<circle cx="0.690479" cy="5.15968" r="0.5" fill="rgb(0,0,0)" />
<circle cx="15.0014" cy="11.0253" r="0.5" fill="rgb(0,0,0)" />
<circle cx="16.0645" cy="14.27" r="0.5" fill="rgb(0,0,0)" />
<circle cx="7.96617" cy="7.15935" r="0.5" fill="rgb(0,0,0)" />
<circle cx="14.0831" cy="13.9333" r="0.5" fill="rgb(0,0,0)" />
<circle cx="3.20781" cy="14.2344" r="0.5" fill="rgb(0,0,0)" />
<circle cx="6.47722" cy="14.1124" r="0.5" fill="rgb(0,0,0)" />
<circle cx="11.7924" cy="4.08161" r="0.5" fill="rgb(0,0,0)" />
<circle cx="4.9508" cy="14.7738" r="0.5" fill="rgb(0,0,0)" />
<circle cx="12.4494" cy="14.0999" r="0.5" fill="rgb(0,0,0)" />
<circle cx="1.65482" cy="14.6015" r="0.5" fill="rgb(0,0,0)" />
<circle cx="8.52696" cy="14.322" r="0.5" fill="rgb(0,0,0)" />
<circle cx="13.2723" cy="15.1654" r="0.5" fill="rgb(0,0,0)" />
<circle cx="10.5669" cy="0.636165" r="0.5" fill="rgb(0,0,0)" />
<circle cx="17.9318" cy="6.77636" r="0.5" fill="rgb(0,0,0)" />
<circle cx="14.1092" cy="15.8129" r="0.5" fill="rgb(0,0,0)" />
<circle cx="16.3011" cy="1.71003" r="0.5" fill="rgb(0,0,0)" />
<circle cx="16.4358" cy="15.492" r="0.5" fill="rgb(0,0,0)" />
<circle cx="10.3883" cy="8.37255" r="0.5" fill="rgb(0,0,0)" />
<circle cx="11.474" cy="9.44419" r="0.5" fill="rgb(0,0,0)" />
<circle cx="5.80288" cy="15.7664" r="0.5" fill="rgb(0,0,0)" />
<circle cx="4.19524" cy="15.7912" r="0.5" fill="rgb(0,0,0)" />
<circle cx="2.95278" cy="15.8346" r="0.5" fill="rgb(0,0,0)" />
<circle cx="6.07135" cy="0.410508" r="0.5" fill="rgb(0,0,0)" />
<circle cx="11.516" cy="15.351" r="0.5" fill="rgb(0,0,0)" />
<circle cx="10.1933" cy="15.1475" r="0.5" fill="rgb(0,0,0)" />
<circle cx="7.62366" cy="15.7526" r="0.5" fill="rgb(0,0,0)" />
<circle cx="6.67256" cy="16.4208" r="0.5" fill="rgb(0,0,0)" />
<circle cx="15.0152" cy="15.1266" r="0.5" fill="rgb(0,0,0)" />
<circle cx="12.461" cy="16.3253" r="0.5" fill="rgb(0,0,0)" />
<circle cx="4.4919" cy="16.859" r="0.5" fill="rgb(0,0,0)" />
<circle cx="18.0141" cy="1.88027" r="0.5" fill="rgb(0,0,0)" />
<circle cx="14.0379" cy="17.0086" r="0.5" fill="rgb(0,0,0)" />
<circle cx="16.5366" cy="16.9949" r="0.5" fill="rgb(0,0,0)" />
<circle cx="14.3499" cy="3.14319" r="0.5" fill="rgb(0,0,0)" />
<circle cx="15.6359" cy="13.2878" r="0.5" fill="rgb(0,0,0)" />
<circle cx="2.91243" cy="17.1926" r="0.5" fill="rgb(0,0,0)" />
<circle cx="10.7254" cy="13.5158" r="0.5" fill="rgb(0,0,0)" />
<circle cx="5.67965" cy="17.3189" r="0.5" fill="rgb(0,0,0)" />
<circle cx="3.07646" cy="9.79183" r="0.5" fill="rgb(0,0,0)" />
<circle cx="12.8163" cy="17.4466" r="0.5" fill="rgb(0,0,0)" />
<circle cx="1.63964" cy="17.6605" r="0.5" fill="rgb(0,0,0)" />
<circle cx="6.0432" cy="2.47183" r="0.5" fill="rgb(0,0,0)" />
<circle cx="16.7364" cy="3.16717" r="0.5" fill="rgb(0,0,0)" />
<circle cx="8.21948" cy="17.4932" r="0.5" fill="rgb(0,0,0)" />
<circle cx="15.2863" cy="17.7949" r="0.5" fill="rgb(0,0,0)" />
<circle cx="7.00235" cy="17.7312" r="0.5" fill="rgb(0,0,0)" />
<circle cx="17.2167" cy="17.8911" r="0.5" fill="rgb(0,0,0)" />
<circle cx="11.2468" cy="17.6102" r="0.5" fill="rgb(0,0,0)" />
<circle cx="12.6007" cy="6.31862" r="0.5" fill="rgb(0,0,0)" />
<circle cx="0.44733" cy="9.3516" r="0.5" fill="rgb(0,0,0)" />
<circle cx="0.82027" cy="11.2387" r="0.5" fill="rgb(0,0,0)" />
<circle cx="8.34068" cy="9.01003" r="0.5" fill="rgb(0,0,0)" />
<circle cx="17.9376" cy="13.3908" r="0.5" fill="rgb(0,0,0)" />
<circle cx="4.53641" cy="18.1844" r="0.5" fill="rgb(0,0,0)" />
<circle cx="18.3645" cy="0.609882" r="0.5" fill="rgb(0,0,0)" />
<circle cx="18.3082" cy="3.12338" r="0.5" fill="rgb(0,0,0)" />
<circle cx="4.27257" cy="6.12413" r="0.5" fill="rgb(0,0,0)" />
<circle cx="14.3205" cy="12.4634" r="0.5" fill="rgb(0,0,0)" />
<circle cx="12.6718" cy="18.5339" r="0.5" fill="rgb(0,0,0)" />
<circle cx="15.9612" cy="18.5346" r="0.5" fill="rgb(0,0,0)" />
<circle cx="8.15847" cy="4.78154" r="0.5" fill="rgb(0,0,0)" />
<circle cx="1.6275" cy="16.4005" r="0.5" fill="rgb(0,0,0)" />
<circle cx="14.2082" cy="18.3052" r="0.5" fill="rgb(0,0,0)" />
<circle cx="9.98875" cy="17.9791" r="0.5" fill="rgb(0,0,0)" />
<circle cx="0.815054" cy="13.2566" r="0.5" fill="rgb(0,0,0)" />
<circle cx="15.3065" cy="16.478" r="0.5" fill="rgb(0,0,0)" />
<circle cx="18.0121" cy="11.4652" r="0.5" fill="rgb(0,0,0)" />
<circle cx="0.59572" cy="3.3867" r="0.5" fill="rgb(0,0,0)" />
<circle cx="18.4005" cy="4.82577" r="0.5" fill="rgb(0,0,0)" />
<circle cx="3.23256" cy="18.3681" r="0.5" fill="rgb(0,0,0)" />
<circle cx="18.2422" cy="8.08716" r="0.5" fill="rgb(0,0,0)" />
<circle cx="18.4463" cy="6.07755" r="0.5" fill="rgb(0,0,0)" />
<circle cx="7.43702" cy="10.0829" r="0.5" fill="rgb(0,0,0)" />
<circle cx="9.23328" cy="16.3963" r="0.5" fill="rgb(0,0,0)" />
<circle cx="18.2482" cy="15.9937" r="0.5" fill="rgb(0,0,0)" />
<circle cx="8.39272" cy="18.5485" r="0.5" fill="rgb(0,0,0)" />
<circle cx="16.1981" cy="4.54258" r="0.5" fill="rgb(0,0,0)" />
<circle cx="6.0685" cy="18.4836" r="0.5" fill="rgb(0,0,0)" />
<circle cx="9.99747" cy="3.69206" r="0.5" fill="rgb(0,0,0)" />
<circle cx="2.54898" cy="12.2922" r="0.5" fill="rgb(0,0,0)" />
<circle cx="0.47589" cy="15.7372" r="0.5" fill="rgb(0,0,0)" />
<circle cx="4.19018" cy="0.596326" r="0.5" fill="rgb(0,0,0)" />
<circle cx="0.574521" cy="1.15104" r="0.5" fill="rgb(0,0,0)" />
<circle cx="2.14332" cy="0.579762" r="0.5" fill="rgb(0,0,0)" />
<circle cx="1.63059" cy="18.592" r="0.5" fill="rgb(0,0,0)" />
<circle cx="18.0298" cy="9.61775" r="0.5" fill="rgb(0,0,0)" />
<circle cx="0.449848" cy="17.9427" r="0.5" fill="rgb(0,0,0)" />
<circle cx="17.7453" cy="14.9145" r="0.5" fill="rgb(0,0,0)" />
<circle cx="18.1385" cy="18.5196" r="0.5" fill="rgb(0,0,0)" />
<circle cx="18.3542" cy="17.296" r="0.5" fill="rgb(0,0,0)" />
</svg>
