<?xml version="1.0" ?>
<!DOCTYPE svg PUBLIC "-//W3C//DTD SVG 1.1//EN" "http://www.w3.org/Graphics/SVG/1.1/DTD/svg11.dtd">
<svg width="20" height="20" version="1.1" xmlns="http://www.w3.org/2000/svg">
<circle cx="10.9657" cy="0.99888" r="0.5" fill="rgb(0,0,0)" />
<circle cx="5.69209" cy="1.20724" r="0.5" fill="rgb(0,0,0)" />
<circle cx="15.6765" cy="2.6412" r="0.5" fill="rgb(0,0,0)" />
<circle cx="15.1893" cy="4.14898" r="0.5" fill="rgb(0,0,0)" />
<circle cx="13.0093" cy="4.2256" r="0.5" fill="rgb(0,0,0)" />
<circle cx="3.29371" cy="3.50389" r="0.5" fill="rgb(0,0,0)" />
<circle cx="8.98146" cy="3.35998" r="0.5" fill="rgb(0,0,0)" />
<circle cx="11.1722" cy="3.89958" r="0.5" fill="rgb(0,0,0)" />
<circle cx="16.4027" cy="5.15264" r="0.5" fill="rgb(0,0,0)" />
<circle cx="17.2502" cy="3.80175" r="0.5" fill="rgb(0,0,0)" />
<circle cx="7.01175" cy="5.28668" r="0.5" fill="rgb(0,0,0)" />
<circle cx="3.52657" cy="6.41922" r="0.5" fill="rgb(0,0,0)" />
<circle cx="15.0817" cy="7.69377" r="0.5" fill="rgb(0,0,0)" />
<circle cx="5.25924" cy="8.0193" r="0.5" fill="rgb(0,0,0)" />
<circle cx="11.4024" cy="8.75995" r="0.5" fill="rgb(0,0,0)" />
<circle cx="13.8012" cy="8.91506" r="0.5" fill="rgb(0,0,0)" />
<circle cx="2.57478" cy="9.70351" r="0.5" fill="rgb(0,0,0)" />
<circle cx="9.05855" cy="9.5934" r="0.5" fill="rgb(0,0,0)" />
<circle cx="14.3102" cy="10.9394" r="0.5" fill="rgb(0,0,0)" />
<circle cx="6.45384" cy="10.361" r="0.5" fill="rgb(0,0,0)" />
<circle cx="9.91881" cy="6.22798" r="0.5" fill="rgb(0,0,0)" />
<circle cx="4.07826" cy="11.3906" r="0.5" fill="rgb(0,0,0)" />
<circle cx="12.4144" cy="13.0768" r="0.5" fill="rgb(0,0,0)" />
<circle cx="9.80305" cy="13.1616" r="0.5" fill="rgb(0,0,0)" />
<circle cx="14.7047" cy="14.8163" r="0.5" fill="rgb(0,0,0)" />
<circle cx="4.4857" cy="13.8102" r="0.5" fill="rgb(0,0,0)" />
<circle cx="14.0226" cy="2.66195" r="0.5" fill="rgb(0,0,0)" />
<circle cx="10.3915" cy="15.4087" r="0.5" fill="rgb(0,0,0)" />
<circle cx="8.25862" cy="1.12923" r="0.5" fill="rgb(0,0,0)" />
<circle cx="14.285" cy="5.6997" r="0.5" fill="rgb(0,0,0)" />
<circle cx="12.5849" cy="15.2923" r="0.5" fill="rgb(0,0,0)" />
<circle cx="14.0097" cy="16.269" r="0.5" fill="rgb(0,0,0)" />
<circle cx="14.8127" cy="12.8165" r="0.5" fill="rgb(0,0,0)" />
<circle cx="7.79743" cy="15.1545" r="0.5" fill="rgb(0,0,0)" />
<circle cx="5.50235" cy="15.8662" r="0.5" fill="rgb(0,0,0)" />
<circle cx="16.9825" cy="9.86246" r="0.5" fill="rgb(0,0,0)" />
<circle cx="2.25267" cy="15.6729" r="0.5" fill="rgb(0,0,0)" />
<circle cx="12.8058" cy="18.1595" r="0.5" fill="rgb(0,0,0)" />
<circle cx="16.0703" cy="16.4122" r="0.5" fill="rgb(0,0,0)" />
<circle cx="11.3847" cy="17.5424" r="0.5" fill="rgb(0,0,0)" />
<circle cx="7.81355" cy="7.51881" r="0.5" fill="rgb(0,0,0)" />
<circle cx="17.6369" cy="11.9992" r="0.5" fill="rgb(0,0,0)" />
<circle cx="14.2207" cy="17.832" r="0.5" fill="rgb(0,0,0)" />
<circle cx="15.6764" cy="18.218" r="0.5" fill="rgb(0,0,0)" />
<circle cx="17.1209" cy="17.9175" r="0.5" fill="rgb(0,0,0)" />
<circle cx="16.4959" cy="6.77183" r="0.5" fill="rgb(0,0,0)" />
<circle cx="16.3234" cy="14.1024" r="0.5" fill="rgb(0,0,0)" />
<circle cx="17.9796" cy="14.3142" r="0.5" fill="rgb(0,0,0)" />
<circle cx="1.09151" cy="4.10675" r="0.5" fill="rgb(0,0,0)" />
<circle cx="12.7164" cy="1.58869" r="0.5" fill="rgb(0,0,0)" />
<circle cx="1.23459" cy="12.9373" r="0.5" fill="rgb(0,0,0)" />
<circle cx="0.823052" cy="9.08916" r="0.5" fill="rgb(0,0,0)" />
<circle cx="16.5396" cy="1.55292" r="0.5" fill="rgb(0,0,0)" />
<circle cx="1.07758" cy="6.5056" r="0.5" fill="rgb(0,0,0)" />
<circle cx="9.17673" cy="17.6826" r="0.5" fill="rgb(0,0,0)" />
<circle cx="18.4032" cy="17.9363" r="0.5" fill="rgb(0,0,0)" />
<circle cx="18.0191" cy="16.0786" r="0.5" fill="rgb(0,0,0)" />
<circle cx="7.56314" cy="12.449" r="0.5" fill="rgb(0,0,0)" />
<circle cx="17.9819" cy="8.03228" r="0.5" fill="rgb(0,0,0)" />
<circle cx="6.75379" cy="17.8216" r="0.5" fill="rgb(0,0,0)" />
<circle cx="18.1868" cy="5.50765" r="0.5" fill="rgb(0,0,0)" />
<circle cx="0.958825" cy="1.40521" r="0.5" fill="rgb(0,0,0)" />
<circle cx="3.15273" cy="1.00581" r="0.5" fill="rgb(0,0,0)" />
<circle cx="3.7826" cy="17.8497" r="0.5" fill="rgb(0,0,0)" />
<circle cx="12.3591" cy="6.57305" r="0.5" fill="rgb(0,0,0)" />
<circle cx="0.915039" cy="17.4321" r="0.5" fill="rgb(0,0,0)" />
<circle cx="11.1905" cy="11.1058" r="0.5" fill="rgb(0,0,0)" />
<circle cx="18.2197" cy="2.68733" r="0.5" fill="rgb(0,0,0)" />
<circle cx="5.63057" cy="3.76469" r="0.5" fill="rgb(0,0,0)" />
<circle cx="17.8553" cy="0.698085" r="0.5" fill="rgb(0,0,0)" />
<circle cx="14.7013" cy="0.664494" r="0.5" fill="rgb(0,0,0)" />
</svg>
