<?xml version="1.0" ?>
<!DOCTYPE svg PUBLIC "-//W3C//DTD SVG 1.1//EN" "http://www.w3.org/Graphics/SVG/1.1/DTD/svg11.dtd">
<svg width="20" height="20" version="1.1" xmlns="http://www.w3.org/2000/svg">
<circle cx="13.579" cy="0.318215" r="0.5" fill="rgb(0,0,0)" />
<circle cx="5.75358" cy="0.369846" r="0.5" fill="rgb(0,0,0)" />
<circle cx="14.7914" cy="0.355946" r="0.5" fill="rgb(0,0,0)" />
<circle cx="12.5458" cy="0.363346" r="0.5" fill="rgb(0,0,0)" />
<circle cx="4.34132" cy="0.482614" r="0.5" fill="rgb(0,0,0)" />
<circle cx="11.9942" cy="0.791508" r="0.5" fill="rgb(0,0,0)" />
<circle cx="17.3423" cy="0.589203" r="0.5" fill="rgb(0,0,0)" />
<circle cx="7.76677" cy="0.871977" r="0.5" fill="rgb(0,0,0)" />
<circle cx="9.15556" cy="0.565839" r="0.5" fill="rgb(0,0,0)" />
<circle cx="5.52242" cy="1.28667" r="0.5" fill="rgb(0,0,0)" />
<circle cx="6.78063" cy="1.22053" r="0.5" fill="rgb(0,0,0)" />
<circle cx="14.682" cy="1.34481" r="0.5" fill="rgb(0,0,0)" />
<circle cx="10.4119" cy="1.44262" r="0.5" fill="rgb(0,0,0)" />
<circle cx="11.9888" cy="1.69" r="0.5" fill="rgb(0,0,0)" />
<circle cx="4.54884" cy="1.56755" r="0.5" fill="rgb(0,0,0)" />
<circle cx="9.18509" cy="1.70091" r="0.5" fill="rgb(0,0,0)" />
<circle cx="17.2276" cy="1.74248" r="0.5" fill="rgb(0,0,0)" />
<circle cx="13.5079" cy="2.35748" r="0.5" fill="rgb(0,0,0)" />
<circle cx="7.84119" cy="1.74694" r="0.5" fill="rgb(0,0,0)" />
<circle cx="14.2791" cy="2.21705" r="0.5" fill="rgb(0,0,0)" />
<circle cx="5.71697" cy="2.35529" r="0.5" fill="rgb(0,0,0)" />
<circle cx="1.82015" cy="1.95828" r="0.5" fill="rgb(0,0,0)" />
<circle cx="13.052" cy="2.80133" r="0.5" fill="rgb(0,0,0)" />
<circle cx="3.19423" cy="1.56304" r="0.5" fill="rgb(0,0,0)" />
<circle cx="15.8858" cy="2.27656" r="0.5" fill="rgb(0,0,0)" />
<circle cx="15.2935" cy="2.60343" r="0.5" fill="rgb(0,0,0)" />
<circle cx="11.6235" cy="2.66967" r="0.5" fill="rgb(0,0,0)" />
<circle cx="8.64568" cy="2.81889" r="0.5" fill="rgb(0,0,0)" />
<circle cx="10.61" cy="2.61958" r="0.5" fill="rgb(0,0,0)" />
<circle cx="7.65893" cy="2.72221" r="0.5" fill="rgb(0,0,0)" />
<circle cx="14.5789" cy="3.0836" r="0.5" fill="rgb(0,0,0)" />
<circle cx="16.6738" cy="2.27623" r="0.5" fill="rgb(0,0,0)" />
<circle cx="13.7159" cy="3.31165" r="0.5" fill="rgb(0,0,0)" />
<circle cx="2.24156" cy="3.03183" r="0.5" fill="rgb(0,0,0)" />
<circle cx="4.40758" cy="3.57517" r="0.5" fill="rgb(0,0,0)" />
<circle cx="5.31042" cy="3.67564" r="0.5" fill="rgb(0,0,0)" />
<circle cx="9.61596" cy="3.53145" r="0.5" fill="rgb(0,0,0)" />
<circle cx="3.60865" cy="3.56457" r="0.5" fill="rgb(0,0,0)" />
<circle cx="6.0265" cy="3.38552" r="0.5" fill="rgb(0,0,0)" />
<circle cx="15.4612" cy="3.77194" r="0.5" fill="rgb(0,0,0)" />
<circle cx="8.60518" cy="3.9318" r="0.5" fill="rgb(0,0,0)" />
<circle cx="17.6333" cy="3.99128" r="0.5" fill="rgb(0,0,0)" />
<circle cx="6.36193" cy="1.83961" r="0.5" fill="rgb(0,0,0)" />
<circle cx="11.6848" cy="3.89861" r="0.5" fill="rgb(0,0,0)" />
<circle cx="2.77925" cy="4.02322" r="0.5" fill="rgb(0,0,0)" />
<circle cx="9.63533" cy="2.5696" r="0.5" fill="rgb(0,0,0)" />
<circle cx="10.6272" cy="3.93319" r="0.5" fill="rgb(0,0,0)" />
<circle cx="14.6275" cy="4.28117" r="0.5" fill="rgb(0,0,0)" />
<circle cx="16.6818" cy="4.4547" r="0.5" fill="rgb(0,0,0)" />
<circle cx="6.58577" cy="4.26953" r="0.5" fill="rgb(0,0,0)" />
<circle cx="3.80283" cy="4.55161" r="0.5" fill="rgb(0,0,0)" />
<circle cx="5.4887" cy="4.60666" r="0.5" fill="rgb(0,0,0)" />
<circle cx="13.013" cy="4.75894" r="0.5" fill="rgb(0,0,0)" />
<circle cx="15.277" cy="5.11917" r="0.5" fill="rgb(0,0,0)" />
<circle cx="9.15558" cy="4.95879" r="0.5" fill="rgb(0,0,0)" />
<circle cx="6.01836" cy="5.12021" r="0.5" fill="rgb(0,0,0)" />
<circle cx="7.87097" cy="4.93839" r="0.5" fill="rgb(0,0,0)" />
<circle cx="12.6639" cy="3.6031" r="0.5" fill="rgb(0,0,0)" />
<circle cx="14.0037" cy="5.13815" r="0.5" fill="rgb(0,0,0)" />
<circle cx="17.4055" cy="5.2058" r="0.5" fill="rgb(0,0,0)" />
<circle cx="4.65584" cy="5.38644" r="0.5" fill="rgb(0,0,0)" />
<circle cx="10.317" cy="5.20529" r="0.5" fill="rgb(0,0,0)" />
<circle cx="6.66585" cy="5.57543" r="0.5" fill="rgb(0,0,0)" />
<circle cx="11.8448" cy="5.11159" r="0.5" fill="rgb(0,0,0)" />
<circle cx="14.4707" cy="5.84599" r="0.5" fill="rgb(0,0,0)" />
<circle cx="18.2884" cy="5.65405" r="0.5" fill="rgb(0,0,0)" />
<circle cx="1.23647" cy="5.85275" r="0.5" fill="rgb(0,0,0)" />
<circle cx="7.52218" cy="6.04293" r="0.5" fill="rgb(0,0,0)" />
<circle cx="15.6326" cy="6.04945" r="0.5" fill="rgb(0,0,0)" />
<circle cx="2.26573" cy="4.8553" r="0.5" fill="rgb(0,0,0)" />
<circle cx="4.32063" cy="6.31765" r="0.5" fill="rgb(0,0,0)" />
<circle cx="12.9329" cy="5.97816" r="0.5" fill="rgb(0,0,0)" />
<circle cx="10.3077" cy="0.299052" r="0.5" fill="rgb(0,0,0)" />
<circle cx="5.72333" cy="6.31516" r="0.5" fill="rgb(0,0,0)" />
<circle cx="17.0314" cy="6.44645" r="0.5" fill="rgb(0,0,0)" />
<circle cx="6.61879" cy="6.80327" r="0.5" fill="rgb(0,0,0)" />
<circle cx="9.64156" cy="6.56205" r="0.5" fill="rgb(0,0,0)" />
<circle cx="8.59717" cy="6.87776" r="0.5" fill="rgb(0,0,0)" />
<circle cx="14.3583" cy="6.89372" r="0.5" fill="rgb(0,0,0)" />
<circle cx="1.58221" cy="7.18106" r="0.5" fill="rgb(0,0,0)" />
<circle cx="18.1008" cy="7.09518" r="0.5" fill="rgb(0,0,0)" />
<circle cx="2.91551" cy="6.97472" r="0.5" fill="rgb(0,0,0)" />
<circle cx="10.236" cy="7.29872" r="0.5" fill="rgb(0,0,0)" />
<circle cx="12.619" cy="7.09309" r="0.5" fill="rgb(0,0,0)" />
<circle cx="6.58559" cy="7.65426" r="0.5" fill="rgb(0,0,0)" />
<circle cx="4.27688" cy="7.37709" r="0.5" fill="rgb(0,0,0)" />
<circle cx="8.866" cy="5.8243" r="0.5" fill="rgb(0,0,0)" />
<circle cx="1.07098" cy="7.92438" r="0.5" fill="rgb(0,0,0)" />
<circle cx="13.5728" cy="7.82291" r="0.5" fill="rgb(0,0,0)" />
<circle cx="4.12987" cy="2.45109" r="0.5" fill="rgb(0,0,0)" />
<circle cx="7.32214" cy="8.12271" r="0.5" fill="rgb(0,0,0)" />
<circle cx="5.01275" cy="2.77687" r="0.5" fill="rgb(0,0,0)" />
<circle cx="8.50508" cy="8.0511" r="0.5" fill="rgb(0,0,0)" />
<circle cx="5.89507" cy="8.22721" r="0.5" fill="rgb(0,0,0)" />
<circle cx="3.683" cy="8.12094" r="0.5" fill="rgb(0,0,0)" />
<circle cx="7.4331" cy="3.85165" r="0.5" fill="rgb(0,0,0)" />
<circle cx="11.0295" cy="6.03779" r="0.5" fill="rgb(0,0,0)" />
<circle cx="1.93691" cy="8.34384" r="0.5" fill="rgb(0,0,0)" />
<circle cx="2.83104" cy="8.41397" r="0.5" fill="rgb(0,0,0)" />
<circle cx="11.8632" cy="8.16533" r="0.5" fill="rgb(0,0,0)" />
<circle cx="15.8905" cy="4.51306" r="0.5" fill="rgb(0,0,0)" />
<circle cx="14.798" cy="8.19858" r="0.5" fill="rgb(0,0,0)" />
<circle cx="10.2611" cy="8.4779" r="0.5" fill="rgb(0,0,0)" />
<circle cx="8.11515" cy="8.75606" r="0.5" fill="rgb(0,0,0)" />
<circle cx="7.27248" cy="9.01347" r="0.5" fill="rgb(0,0,0)" />
<circle cx="15.3286" cy="8.9513" r="0.5" fill="rgb(0,0,0)" />
<circle cx="15.6718" cy="7.16315" r="0.5" fill="rgb(0,0,0)" />
<circle cx="8.68187" cy="9.22972" r="0.5" fill="rgb(0,0,0)" />
<circle cx="6.11055" cy="9.11502" r="0.5" fill="rgb(0,0,0)" />
<circle cx="5.27914" cy="7.48522" r="0.5" fill="rgb(0,0,0)" />
<circle cx="13.8762" cy="9.01236" r="0.5" fill="rgb(0,0,0)" />
<circle cx="4.0413" cy="9.19299" r="0.5" fill="rgb(0,0,0)" />
<circle cx="1.49501" cy="3.61138" r="0.5" fill="rgb(0,0,0)" />
<circle cx="1.40773" cy="9.23836" r="0.5" fill="rgb(0,0,0)" />
<circle cx="3.44877" cy="9.47131" r="0.5" fill="rgb(0,0,0)" />
<circle cx="17.0766" cy="9.17737" r="0.5" fill="rgb(0,0,0)" />
<circle cx="13.2747" cy="1.07855" r="0.5" fill="rgb(0,0,0)" />
<circle cx="7.25587" cy="9.81754" r="0.5" fill="rgb(0,0,0)" />
<circle cx="11.1313" cy="9.26885" r="0.5" fill="rgb(0,0,0)" />
<circle cx="15.968" cy="9.63337" r="0.5" fill="rgb(0,0,0)" />
<circle cx="9.16458" cy="9.9078" r="0.5" fill="rgb(0,0,0)" />
<circle cx="9.84771" cy="9.41212" r="0.5" fill="rgb(0,0,0)" />
<circle cx="2.7951" cy="9.91135" r="0.5" fill="rgb(0,0,0)" />
<circle cx="14.6787" cy="9.84656" r="0.5" fill="rgb(0,0,0)" />
<circle cx="4.46777" cy="10.1503" r="0.5" fill="rgb(0,0,0)" />
<circle cx="1.80715" cy="10.2147" r="0.5" fill="rgb(0,0,0)" />
<circle cx="5.49755" cy="10.3224" r="0.5" fill="rgb(0,0,0)" />
<circle cx="6.88112" cy="10.4235" r="0.5" fill="rgb(0,0,0)" />
<circle cx="16.1957" cy="8.29467" r="0.5" fill="rgb(0,0,0)" />
<circle cx="7.45778" cy="10.8548" r="0.5" fill="rgb(0,0,0)" />
<circle cx="15.7163" cy="10.6495" r="0.5" fill="rgb(0,0,0)" />
<circle cx="8.53249" cy="10.8193" r="0.5" fill="rgb(0,0,0)" />
<circle cx="11.959" cy="10.4627" r="0.5" fill="rgb(0,0,0)" />
<circle cx="9.60075" cy="10.7844" r="0.5" fill="rgb(0,0,0)" />
<circle cx="17.1554" cy="10.6027" r="0.5" fill="rgb(0,0,0)" />
<circle cx="4.6915" cy="11.1572" r="0.5" fill="rgb(0,0,0)" />
<circle cx="8.18834" cy="11.6235" r="0.5" fill="rgb(0,0,0)" />
<circle cx="14.0166" cy="11.1223" r="0.5" fill="rgb(0,0,0)" />
<circle cx="3.73077" cy="11.4495" r="0.5" fill="rgb(0,0,0)" />
<circle cx="0.8759" cy="11.2086" r="0.5" fill="rgb(0,0,0)" />
<circle cx="6.00544" cy="11.513" r="0.5" fill="rgb(0,0,0)" />
<circle cx="10.8392" cy="10.9687" r="0.5" fill="rgb(0,0,0)" />
<circle cx="7.20221" cy="11.7858" r="0.5" fill="rgb(0,0,0)" />
<circle cx="2.26253" cy="11.496" r="0.5" fill="rgb(0,0,0)" />
<circle cx="12.4838" cy="11.7489" r="0.5" fill="rgb(0,0,0)" />
<circle cx="15.0041" cy="12.4701" r="0.5" fill="rgb(0,0,0)" />
<circle cx="3.31339" cy="12.4113" r="0.5" fill="rgb(0,0,0)" />
<circle cx="4.97894" cy="12.4006" r="0.5" fill="rgb(0,0,0)" />
<circle cx="6.71118" cy="12.5833" r="0.5" fill="rgb(0,0,0)" />
<circle cx="3.17165" cy="5.55501" r="0.5" fill="rgb(0,0,0)" />
<circle cx="13.4343" cy="12.6602" r="0.5" fill="rgb(0,0,0)" />
<circle cx="12.897" cy="9.81484" r="0.5" fill="rgb(0,0,0)" />
<circle cx="10.3553" cy="12.2837" r="0.5" fill="rgb(0,0,0)" />
<circle cx="8.29166" cy="12.6847" r="0.5" fill="rgb(0,0,0)" />
<circle cx="4.90214" cy="8.95432" r="0.5" fill="rgb(0,0,0)" />
<circle cx="15.141" cy="13.5319" r="0.5" fill="rgb(0,0,0)" />
<circle cx="3.86628" cy="13.4387" r="0.5" fill="rgb(0,0,0)" />
<circle cx="3.31239" cy="10.5208" r="0.5" fill="rgb(0,0,0)" />
<circle cx="10.5165" cy="13.2977" r="0.5" fill="rgb(0,0,0)" />
<circle cx="4.81923" cy="13.8403" r="0.5" fill="rgb(0,0,0)" />
<circle cx="16.3356" cy="13.3465" r="0.5" fill="rgb(0,0,0)" />
<circle cx="6.30956" cy="13.3752" r="0.5" fill="rgb(0,0,0)" />
<circle cx="7.92521" cy="13.6967" r="0.5" fill="rgb(0,0,0)" />
<circle cx="5.84961" cy="14.202" r="0.5" fill="rgb(0,0,0)" />
<circle cx="14.3776" cy="14.3089" r="0.5" fill="rgb(0,0,0)" />
<circle cx="1.26239" cy="4.77281" r="0.5" fill="rgb(0,0,0)" />
<circle cx="17.0808" cy="7.70323" r="0.5" fill="rgb(0,0,0)" />
<circle cx="15.5687" cy="14.4744" r="0.5" fill="rgb(0,0,0)" />
<circle cx="17.1051" cy="14.067" r="0.5" fill="rgb(0,0,0)" />
<circle cx="12.527" cy="14.3729" r="0.5" fill="rgb(0,0,0)" />
<circle cx="3.10201" cy="14.5176" r="0.5" fill="rgb(0,0,0)" />
<circle cx="11.2717" cy="7.2253" r="0.5" fill="rgb(0,0,0)" />
<circle cx="12.1668" cy="13.1264" r="0.5" fill="rgb(0,0,0)" />
<circle cx="4.96294" cy="14.9154" r="0.5" fill="rgb(0,0,0)" />
<circle cx="12.5528" cy="8.92918" r="0.5" fill="rgb(0,0,0)" />
<circle cx="10.7295" cy="14.3513" r="0.5" fill="rgb(0,0,0)" />
<circle cx="13.4878" cy="15.0498" r="0.5" fill="rgb(0,0,0)" />
<circle cx="4.00645" cy="14.8753" r="0.5" fill="rgb(0,0,0)" />
<circle cx="9.15324" cy="14.4418" r="0.5" fill="rgb(0,0,0)" />
<circle cx="17.9906" cy="14.7793" r="0.5" fill="rgb(0,0,0)" />
<circle cx="16.0142" cy="0.724504" r="0.5" fill="rgb(0,0,0)" />
<circle cx="6.60942" cy="15.0063" r="0.5" fill="rgb(0,0,0)" />
<circle cx="7.7733" cy="14.9874" r="0.5" fill="rgb(0,0,0)" />
<circle cx="15.0619" cy="15.3275" r="0.5" fill="rgb(0,0,0)" />
<circle cx="5.66805" cy="15.5389" r="0.5" fill="rgb(0,0,0)" />
<circle cx="17.9768" cy="2.6048" r="0.5" fill="rgb(0,0,0)" />
<circle cx="2.22908" cy="15.3831" r="0.5" fill="rgb(0,0,0)" />
<circle cx="4.72492" cy="15.7934" r="0.5" fill="rgb(0,0,0)" />
<circle cx="14.2541" cy="15.7424" r="0.5" fill="rgb(0,0,0)" />
<circle cx="3.25885" cy="15.8035" r="0.5" fill="rgb(0,0,0)" />
<circle cx="16.3152" cy="15.3774" r="0.5" fill="rgb(0,0,0)" />
<circle cx="11.9728" cy="15.6726" r="0.5" fill="rgb(0,0,0)" />
<circle cx="4.75333" cy="4.40227" r="0.5" fill="rgb(0,0,0)" />
<circle cx="1.29668" cy="16.1289" r="0.5" fill="rgb(0,0,0)" />
<circle cx="7.40789" cy="16.0979" r="0.5" fill="rgb(0,0,0)" />
<circle cx="8.86496" cy="16.1567" r="0.5" fill="rgb(0,0,0)" />
<circle cx="9.35709" cy="7.99593" r="0.5" fill="rgb(0,0,0)" />
<circle cx="17.2333" cy="16.1829" r="0.5" fill="rgb(0,0,0)" />
<circle cx="6.54171" cy="16.4618" r="0.5" fill="rgb(0,0,0)" />
<circle cx="7.68157" cy="7.16492" r="0.5" fill="rgb(0,0,0)" />
<circle cx="3.96222" cy="16.1554" r="0.5" fill="rgb(0,0,0)" />
<circle cx="5.53324" cy="16.5363" r="0.5" fill="rgb(0,0,0)" />
<circle cx="12.6153" cy="16.5393" r="0.5" fill="rgb(0,0,0)" />
<circle cx="1.99737" cy="16.6657" r="0.5" fill="rgb(0,0,0)" />
<circle cx="6.2713" cy="10.187" r="0.5" fill="rgb(0,0,0)" />
<circle cx="10.9444" cy="16.6049" r="0.5" fill="rgb(0,0,0)" />
<circle cx="16.4384" cy="5.49618" r="0.5" fill="rgb(0,0,0)" />
<circle cx="1.2796" cy="17.2615" r="0.5" fill="rgb(0,0,0)" />
<circle cx="15.1385" cy="16.4755" r="0.5" fill="rgb(0,0,0)" />
<circle cx="4.43225" cy="16.8018" r="0.5" fill="rgb(0,0,0)" />
<circle cx="2.97958" cy="16.7207" r="0.5" fill="rgb(0,0,0)" />
<circle cx="16.854" cy="17.2611" r="0.5" fill="rgb(0,0,0)" />
<circle cx="15.8661" cy="17.0315" r="0.5" fill="rgb(0,0,0)" />
<circle cx="2.44422" cy="9.28281" r="0.5" fill="rgb(0,0,0)" />
<circle cx="1.9662" cy="17.7468" r="0.5" fill="rgb(0,0,0)" />
<circle cx="16.6916" cy="3.3971" r="0.5" fill="rgb(0,0,0)" />
<circle cx="7.76027" cy="17.1231" r="0.5" fill="rgb(0,0,0)" />
<circle cx="13.4855" cy="1.64133" r="0.5" fill="rgb(0,0,0)" />
<circle cx="5.80574" cy="17.3565" r="0.5" fill="rgb(0,0,0)" />
<circle cx="1.2144" cy="17.8887" r="0.5" fill="rgb(0,0,0)" />
<circle cx="9.24409" cy="12.1446" r="0.5" fill="rgb(0,0,0)" />
<circle cx="11.983" cy="17.4944" r="0.5" fill="rgb(0,0,0)" />
<circle cx="2.48227" cy="13.3282" r="0.5" fill="rgb(0,0,0)" />
<circle cx="2.81819" cy="17.7055" r="0.5" fill="rgb(0,0,0)" />
<circle cx="14.2668" cy="12.8908" r="0.5" fill="rgb(0,0,0)" />
<circle cx="9.06945" cy="17.3357" r="0.5" fill="rgb(0,0,0)" />
<circle cx="11.009" cy="17.7932" r="0.5" fill="rgb(0,0,0)" />
<circle cx="18.1227" cy="13.1781" r="0.5" fill="rgb(0,0,0)" />
<circle cx="18.0658" cy="11.6078" r="0.5" fill="rgb(0,0,0)" />
<circle cx="8.10838" cy="9.91764" r="0.5" fill="rgb(0,0,0)" />
<circle cx="18.337" cy="17.0439" r="0.5" fill="rgb(0,0,0)" />
<circle cx="18.4608" cy="15.7105" r="0.5" fill="rgb(0,0,0)" />
<circle cx="14.4086" cy="17.9228" r="0.5" fill="rgb(0,0,0)" />
<circle cx="13.1947" cy="17.4521" r="0.5" fill="rgb(0,0,0)" />
<circle cx="15.4419" cy="17.9586" r="0.5" fill="rgb(0,0,0)" />
<circle cx="6.75035" cy="2.83335" r="0.5" fill="rgb(0,0,0)" />
<circle cx="2.07007" cy="6.25979" r="0.5" fill="rgb(0,0,0)" />
<circle cx="17.6058" cy="17.9487" r="0.5" fill="rgb(0,0,0)" />
<circle cx="6.78378" cy="17.7253" r="0.5" fill="rgb(0,0,0)" />
<circle cx="8.25991" cy="18.0353" r="0.5" fill="rgb(0,0,0)" />
<circle cx="13.249" cy="15.8529" r="0.5" fill="rgb(0,0,0)" />
<circle cx="10.0845" cy="15.6846" r="0.5" fill="rgb(0,0,0)" />
<circle cx="4.88523" cy="17.7155" r="0.5" fill="rgb(0,0,0)" />
<circle cx="18.4296" cy="1.68367" r="0.5" fill="rgb(0,0,0)" />
<circle cx="13.7248" cy="4.12745" r="0.5" fill="rgb(0,0,0)" />
<circle cx="14.1548" cy="16.9691" r="0.5" fill="rgb(0,0,0)" />
<circle cx="18.4538" cy="0.487002" r="0.5" fill="rgb(0,0,0)" />
<circle cx="18.401" cy="18.3711" r="0.5" fill="rgb(0,0,0)" />
<circle cx="18.7567" cy="18.1485" r="0.5" fill="rgb(0,0,0)" />
<circle cx="16.2276" cy="12.0214" r="0.5" fill="rgb(0,0,0)" />
<circle cx="11.5263" cy="14.8192" r="0.5" fill="rgb(0,0,0)" />
<circle cx="9.79857" cy="17.9746" r="0.5" fill="rgb(0,0,0)" />
<circle cx="0.414318" cy="16.5919" r="0.5" fill="rgb(0,0,0)" />
<circle cx="4.24245" cy="18.2328" r="0.5" fill="rgb(0,0,0)" />
<circle cx="17.8734" cy="18.7224" r="0.5" fill="rgb(0,0,0)" />
<circle cx="13.5374" cy="10.3884" r="0.5" fill="rgb(0,0,0)" />
<circle cx="16.5671" cy="18.4277" r="0.5" fill="rgb(0,0,0)" />
<circle cx="0.444912" cy="10.0632" r="0.5" fill="rgb(0,0,0)" />
<circle cx="0.435197" cy="8.64219" r="0.5" fill="rgb(0,0,0)" />
<circle cx="12.5454" cy="2.31122" r="0.5" fill="rgb(0,0,0)" />
<circle cx="0.462297" cy="3.78725" r="0.5" fill="rgb(0,0,0)" />
<circle cx="0.499242" cy="14.8958" r="0.5" fill="rgb(0,0,0)" />
<circle cx="11.2285" cy="0.663959" r="0.5" fill="rgb(0,0,0)" />
<circle cx="0.376327" cy="12.5504" r="0.5" fill="rgb(0,0,0)" />
<circle cx="18.3206" cy="9.60558" r="0.5" fill="rgb(0,0,0)" />
<circle cx="3.16126" cy="2.82197" r="0.5" fill="rgb(0,0,0)" />
<circle cx="14.8961" cy="11.4319" r="0.5" fill="rgb(0,0,0)" />
<circle cx="15.0927" cy="18.6621" r="0.5" fill="rgb(0,0,0)" />
<circle cx="13.6681" cy="18.4803" r="0.5" fill="rgb(0,0,0)" />
<circle cx="1.26253" cy="13.0227" r="0.5" fill="rgb(0,0,0)" />
<circle cx="18.4816" cy="4.53854" r="0.5" fill="rgb(0,0,0)" />
<circle cx="1.58046" cy="14.3848" r="0.5" fill="rgb(0,0,0)" />
<circle cx="18.4749" cy="3.27821" r="0.5" fill="rgb(0,0,0)" />
<circle cx="10.8405" cy="18.5998" r="0.5" fill="rgb(0,0,0)" />
<circle cx="12.3991" cy="18.4736" r="0.5" fill="rgb(0,0,0)" />
<circle cx="0.435112" cy="6.85353" r="0.5" fill="rgb(0,0,0)" />
<circle cx="13.4662" cy="13.9883" r="0.5" fill="rgb(0,0,0)" />
<circle cx="0.336922" cy="5.20542" r="0.5" fill="rgb(0,0,0)" />
<circle cx="9.79154" cy="4.39601" r="0.5" fill="rgb(0,0,0)" />
<circle cx="18.3624" cy="8.13022" r="0.5" fill="rgb(0,0,0)" />
<circle cx="18.6035" cy="6.50272" r="0.5" fill="rgb(0,0,0)" />
<circle cx="3.31101" cy="18.4624" r="0.5" fill="rgb(0,0,0)" />
<circle cx="8.06832" cy="18.6492" r="0.5" fill="rgb(0,0,0)" />
<circle cx="6.04668" cy="18.5144" r="0.5" fill="rgb(0,0,0)" />
<circle cx="6.83842" cy="0.300143" r="0.5" fill="rgb(0,0,0)" />
<circle cx="8.11763" cy="0.263664" r="0.5" fill="rgb(0,0,0)" />
<circle cx="2.51737" cy="0.538689" r="0.5" fill="rgb(0,0,0)" />
<circle cx="0.566295" cy="2.37432" r="0.5" fill="rgb(0,0,0)" />
<circle cx="0.763777" cy="0.736289" r="0.5" fill="rgb(0,0,0)" />
<circle cx="0.278948" cy="17.6546" r="0.5" fill="rgb(0,0,0)" />
<circle cx="0.370721" cy="18.4709" r="0.5" fill="rgb(0,0,0)" />
<circle cx="2.07064" cy="18.5957" r="0.5" fill="rgb(0,0,0)" />
<circle cx="1.08505" cy="18.5812" r="0.5" fill="rgb(0,0,0)" />
</svg>
