<?xml version="1.0" ?>
<!DOCTYPE svg PUBLIC "-//W3C//DTD SVG 1.1//EN" "http://www.w3.org/Graphics/SVG/1.1/DTD/svg11.dtd">
<svg width="20" height="20" version="1.1" xmlns="http://www.w3.org/2000/svg">
<circle cx="12.5873" cy="0.597691" r="0.5" fill="rgb(0,0,0)" />
<circle cx="10.2844" cy="0.89536" r="0.5" fill="rgb(0,0,0)" />
<circle cx="15.5918" cy="2.55687" r="0.5" fill="rgb(0,0,0)" />
<circle cx="14.1735" cy="2.41761" r="0.5" fill="rgb(0,0,0)" />
<circle cx="7.78091" cy="1.212" r="0.5" fill="rgb(0,0,0)" />
<circle cx="9.38456" cy="2.70245" r="0.5" fill="rgb(0,0,0)" />
<circle cx="17.2753" cy="3.74794" r="0.5" fill="rgb(0,0,0)" />
<circle cx="3.89075" cy="2.87874" r="0.5" fill="rgb(0,0,0)" />
<circle cx="16.2444" cy="4.31037" r="0.5" fill="rgb(0,0,0)" />
<circle cx="3.21852" cy="4.78247" r="0.5" fill="rgb(0,0,0)" />
<circle cx="14.9702" cy="5.37476" r="0.5" fill="rgb(0,0,0)" />
<circle cx="8.85728" cy="4.55652" r="0.5" fill="rgb(0,0,0)" />
<circle cx="13.3467" cy="5.09905" r="0.5" fill="rgb(0,0,0)" />
<circle cx="16.0342" cy="6.57713" r="0.5" fill="rgb(0,0,0)" />
<circle cx="12.3793" cy="2.10849" r="0.5" fill="rgb(0,0,0)" />
<circle cx="1.84575" cy="6.14151" r="0.5" fill="rgb(0,0,0)" />
<circle cx="8.05364" cy="6.49043" r="0.5" fill="rgb(0,0,0)" />
<circle cx="13.2069" cy="3.60594" r="0.5" fill="rgb(0,0,0)" />
<circle cx="10.4963" cy="6.45592" r="0.5" fill="rgb(0,0,0)" />
<circle cx="5.67654" cy="7.37897" r="0.5" fill="rgb(0,0,0)" />
<circle cx="2.61984" cy="8.29061" r="0.5" fill="rgb(0,0,0)" />
<circle cx="18.0048" cy="6.68967" r="0.5" fill="rgb(0,0,0)" />
<circle cx="16.283" cy="8.27928" r="0.5" fill="rgb(0,0,0)" />
<circle cx="12.0791" cy="8.13347" r="0.5" fill="rgb(0,0,0)" />
<circle cx="16.9693" cy="5.58093" r="0.5" fill="rgb(0,0,0)" />
<circle cx="3.79404" cy="6.75048" r="0.5" fill="rgb(0,0,0)" />
<circle cx="13.9565" cy="8.70136" r="0.5" fill="rgb(0,0,0)" />
<circle cx="9.4859" cy="8.44392" r="0.5" fill="rgb(0,0,0)" />
<circle cx="14.4695" cy="7.04466" r="0.5" fill="rgb(0,0,0)" />
<circle cx="4.64428" cy="9.22776" r="0.5" fill="rgb(0,0,0)" />
<circle cx="2.97418" cy="10.1821" r="0.5" fill="rgb(0,0,0)" />
<circle cx="8.89495" cy="10.5286" r="0.5" fill="rgb(0,0,0)" />
<circle cx="11.2048" cy="11.2253" r="0.5" fill="rgb(0,0,0)" />
<circle cx="15.5299" cy="12.2454" r="0.5" fill="rgb(0,0,0)" />
<circle cx="3.92645" cy="12.0726" r="0.5" fill="rgb(0,0,0)" />
<circle cx="16.505" cy="1.74777" r="0.5" fill="rgb(0,0,0)" />
<circle cx="8.28648" cy="12.5539" r="0.5" fill="rgb(0,0,0)" />
<circle cx="14.3052" cy="13.5756" r="0.5" fill="rgb(0,0,0)" />
<circle cx="10.1105" cy="13.1444" r="0.5" fill="rgb(0,0,0)" />
<circle cx="6.29625" cy="12.947" r="0.5" fill="rgb(0,0,0)" />
<circle cx="11.2997" cy="9.4503" r="0.5" fill="rgb(0,0,0)" />
<circle cx="15.1705" cy="15.06" r="0.5" fill="rgb(0,0,0)" />
<circle cx="15.9509" cy="10.2097" r="0.5" fill="rgb(0,0,0)" />
<circle cx="17.8324" cy="14.6411" r="0.5" fill="rgb(0,0,0)" />
<circle cx="5.53776" cy="1.13753" r="0.5" fill="rgb(0,0,0)" />
<circle cx="1.24392" cy="11.4859" r="0.5" fill="rgb(0,0,0)" />
<circle cx="0.82829" cy="4.08157" r="0.5" fill="rgb(0,0,0)" />
<circle cx="13.2648" cy="15.26" r="0.5" fill="rgb(0,0,0)" />
<circle cx="7.34928" cy="8.55825" r="0.5" fill="rgb(0,0,0)" />
<circle cx="4.65879" cy="14.3935" r="0.5" fill="rgb(0,0,0)" />
<circle cx="8.01901" cy="15.0257" r="0.5" fill="rgb(0,0,0)" />
<circle cx="16.174" cy="16.4725" r="0.5" fill="rgb(0,0,0)" />
<circle cx="6.90654" cy="16.5343" r="0.5" fill="rgb(0,0,0)" />
<circle cx="13.9577" cy="17.0141" r="0.5" fill="rgb(0,0,0)" />
<circle cx="2.56962" cy="17.0646" r="0.5" fill="rgb(0,0,0)" />
<circle cx="15.9301" cy="17.7924" r="0.5" fill="rgb(0,0,0)" />
<circle cx="0.515745" cy="6.2941" r="0.5" fill="rgb(0,0,0)" />
<circle cx="0.89411" cy="9.741" r="0.5" fill="rgb(0,0,0)" />
<circle cx="10.456" cy="15.0703" r="0.5" fill="rgb(0,0,0)" />
<circle cx="4.34416" cy="17.4036" r="0.5" fill="rgb(0,0,0)" />
<circle cx="0.975679" cy="13.413" r="0.5" fill="rgb(0,0,0)" />
<circle cx="16.3211" cy="14.271" r="0.5" fill="rgb(0,0,0)" />
<circle cx="0.938816" cy="16.0473" r="0.5" fill="rgb(0,0,0)" />
<circle cx="14.2756" cy="18.195" r="0.5" fill="rgb(0,0,0)" />
<circle cx="15.0197" cy="3.88183" r="0.5" fill="rgb(0,0,0)" />
<circle cx="6.09691" cy="3.48502" r="0.5" fill="rgb(0,0,0)" />
<circle cx="11.322" cy="4.00979" r="0.5" fill="rgb(0,0,0)" />
<circle cx="6.05318" cy="5.32754" r="0.5" fill="rgb(0,0,0)" />
<circle cx="8.6466" cy="17.6068" r="0.5" fill="rgb(0,0,0)" />
<circle cx="13.7382" cy="10.721" r="0.5" fill="rgb(0,0,0)" />
<circle cx="0.828242" cy="8.03093" r="0.5" fill="rgb(0,0,0)" />
<circle cx="10.1201" cy="17.388" r="0.5" fill="rgb(0,0,0)" />
<circle cx="12.589" cy="12.513" r="0.5" fill="rgb(0,0,0)" />
<circle cx="17.8285" cy="12.4294" r="0.5" fill="rgb(0,0,0)" />
<circle cx="12.9345" cy="18.3478" r="0.5" fill="rgb(0,0,0)" />
<circle cx="12.4742" cy="6.35974" r="0.5" fill="rgb(0,0,0)" />
<circle cx="11.9914" cy="16.302" r="0.5" fill="rgb(0,0,0)" />
<circle cx="11.7249" cy="17.9608" r="0.5" fill="rgb(0,0,0)" />
<circle cx="15.5374" cy="18.5862" r="0.5" fill="rgb(0,0,0)" />
<circle cx="14.9611" cy="0.698658" r="0.5" fill="rgb(0,0,0)" />
<circle cx="17.3178" cy="17.9305" r="0.5" fill="rgb(0,0,0)" />
<circle cx="7.53899" cy="18.3278" r="0.5" fill="rgb(0,0,0)" />
<circle cx="17.9692" cy="10.1509" r="0.5" fill="rgb(0,0,0)" />
<circle cx="18.1669" cy="8.22418" r="0.5" fill="rgb(0,0,0)" />
<circle cx="6.34114" cy="10.4835" r="0.5" fill="rgb(0,0,0)" />
<circle cx="2.55288" cy="14.675" r="0.5" fill="rgb(0,0,0)" />
<circle cx="18.4242" cy="17.8734" r="0.5" fill="rgb(0,0,0)" />
<circle cx="18.1719" cy="16.0358" r="0.5" fill="rgb(0,0,0)" />
<circle cx="0.753717" cy="1.13069" r="0.5" fill="rgb(0,0,0)" />
<circle cx="1.97856" cy="2.61287" r="0.5" fill="rgb(0,0,0)" />
<circle cx="3.07914" cy="0.761183" r="0.5" fill="rgb(0,0,0)" />
<circle cx="14.3485" cy="15.9181" r="0.5" fill="rgb(0,0,0)" />
<circle cx="5.89835" cy="18.1173" r="0.5" fill="rgb(0,0,0)" />
<circle cx="3.03862" cy="18.4446" r="0.5" fill="rgb(0,0,0)" />
<circle cx="12.3042" cy="14.2012" r="0.5" fill="rgb(0,0,0)" />
<circle cx="0.73147" cy="17.9949" r="0.5" fill="rgb(0,0,0)" />
<circle cx="5.36757" cy="15.9414" r="0.5" fill="rgb(0,0,0)" />
<circle cx="18.3306" cy="4.96364" r="0.5" fill="rgb(0,0,0)" />
<circle cx="18.2006" cy="2.98735" r="0.5" fill="rgb(0,0,0)" />
<circle cx="18.1297" cy="1.64555" r="0.5" fill="rgb(0,0,0)" />
<circle cx="17.6156" cy="0.468306" r="0.5" fill="rgb(0,0,0)" />
</svg>
