<?xml version="1.0" ?>
<!DOCTYPE svg PUBLIC "-//W3C//DTD SVG 1.1//EN" "http://www.w3.org/Graphics/SVG/1.1/DTD/svg11.dtd">
<svg width="20" height="20" version="1.1" xmlns="http://www.w3.org/2000/svg">
<circle cx="7.58992" cy="0.187645" r="0.5" fill="rgb(0,0,0)" />
<circle cx="6.71446" cy="0.303399" r="0.5" fill="rgb(0,0,0)" />
<circle cx="10.3595" cy="0.298036" r="0.5" fill="rgb(0,0,0)" />
<circle cx="13.579" cy="0.318215" r="0.5" fill="rgb(0,0,0)" />
<circle cx="5.73629" cy="0.369383" r="0.5" fill="rgb(0,0,0)" />
<circle cx="12.5458" cy="0.363346" r="0.5" fill="rgb(0,0,0)" />
<circle cx="9.34901" cy="0.538018" r="0.5" fill="rgb(0,0,0)" />
<circle cx="4.34132" cy="0.482614" r="0.5" fill="rgb(0,0,0)" />
<circle cx="8.38379" cy="0.618598" r="0.5" fill="rgb(0,0,0)" />
<circle cx="13.2747" cy="1.07855" r="0.5" fill="rgb(0,0,0)" />
<circle cx="16.0142" cy="0.724504" r="0.5" fill="rgb(0,0,0)" />
<circle cx="13.4855" cy="1.64133" r="0.5" fill="rgb(0,0,0)" />
<circle cx="5.52088" cy="1.28644" r="0.5" fill="rgb(0,0,0)" />
<circle cx="6.75326" cy="1.25063" r="0.5" fill="rgb(0,0,0)" />
<circle cx="14.682" cy="1.34481" r="0.5" fill="rgb(0,0,0)" />
<circle cx="11.9923" cy="1.69" r="0.5" fill="rgb(0,0,0)" />
<circle cx="4.54877" cy="1.5675" r="0.5" fill="rgb(0,0,0)" />
<circle cx="6.35851" cy="1.84372" r="0.5" fill="rgb(0,0,0)" />
<circle cx="9.19247" cy="1.72333" r="0.5" fill="rgb(0,0,0)" />
<circle cx="7.84302" cy="1.74173" r="0.5" fill="rgb(0,0,0)" />
<circle cx="17.2276" cy="1.74248" r="0.5" fill="rgb(0,0,0)" />
<circle cx="13.5079" cy="2.35748" r="0.5" fill="rgb(0,0,0)" />
<circle cx="14.2791" cy="2.21705" r="0.5" fill="rgb(0,0,0)" />
<circle cx="5.72119" cy="2.35295" r="0.5" fill="rgb(0,0,0)" />
<circle cx="1.8272" cy="1.96271" r="0.5" fill="rgb(0,0,0)" />
<circle cx="12.5454" cy="2.31122" r="0.5" fill="rgb(0,0,0)" />
<circle cx="4.12978" cy="2.45109" r="0.5" fill="rgb(0,0,0)" />
<circle cx="9.6301" cy="2.57448" r="0.5" fill="rgb(0,0,0)" />
<circle cx="13.052" cy="2.80133" r="0.5" fill="rgb(0,0,0)" />
<circle cx="17.9768" cy="2.6048" r="0.5" fill="rgb(0,0,0)" />
<circle cx="3.19423" cy="1.56304" r="0.5" fill="rgb(0,0,0)" />
<circle cx="15.8858" cy="2.27656" r="0.5" fill="rgb(0,0,0)" />
<circle cx="6.75341" cy="2.75833" r="0.5" fill="rgb(0,0,0)" />
<circle cx="15.2935" cy="2.60343" r="0.5" fill="rgb(0,0,0)" />
<circle cx="7.66512" cy="2.68855" r="0.5" fill="rgb(0,0,0)" />
<circle cx="8.64438" cy="2.8112" r="0.5" fill="rgb(0,0,0)" />
<circle cx="11.6209" cy="2.66114" r="0.5" fill="rgb(0,0,0)" />
<circle cx="10.6052" cy="2.61733" r="0.5" fill="rgb(0,0,0)" />
<circle cx="14.5789" cy="3.0836" r="0.5" fill="rgb(0,0,0)" />
<circle cx="2.24506" cy="3.03407" r="0.5" fill="rgb(0,0,0)" />
<circle cx="5.94206" cy="3.27472" r="0.5" fill="rgb(0,0,0)" />
<circle cx="4.40885" cy="3.57317" r="0.5" fill="rgb(0,0,0)" />
<circle cx="7.54104" cy="0.896903" r="0.5" fill="rgb(0,0,0)" />
<circle cx="5.2977" cy="3.65337" r="0.5" fill="rgb(0,0,0)" />
<circle cx="9.62032" cy="3.53162" r="0.5" fill="rgb(0,0,0)" />
<circle cx="15.4612" cy="3.77194" r="0.5" fill="rgb(0,0,0)" />
<circle cx="7.52401" cy="3.77044" r="0.5" fill="rgb(0,0,0)" />
<circle cx="8.61195" cy="3.91065" r="0.5" fill="rgb(0,0,0)" />
<circle cx="17.6333" cy="3.99128" r="0.5" fill="rgb(0,0,0)" />
<circle cx="11.6848" cy="3.89749" r="0.5" fill="rgb(0,0,0)" />
<circle cx="2.78059" cy="4.01689" r="0.5" fill="rgb(0,0,0)" />
<circle cx="10.6271" cy="3.93304" r="0.5" fill="rgb(0,0,0)" />
<circle cx="14.6279" cy="4.28017" r="0.5" fill="rgb(0,0,0)" />
<circle cx="16.6818" cy="4.4547" r="0.5" fill="rgb(0,0,0)" />
<circle cx="15.8905" cy="4.51306" r="0.5" fill="rgb(0,0,0)" />
<circle cx="11.9942" cy="0.791508" r="0.5" fill="rgb(0,0,0)" />
<circle cx="5.50268" cy="4.53988" r="0.5" fill="rgb(0,0,0)" />
<circle cx="6.44623" cy="3.83251" r="0.5" fill="rgb(0,0,0)" />
<circle cx="3.80299" cy="4.54276" r="0.5" fill="rgb(0,0,0)" />
<circle cx="1.26845" cy="4.79228" r="0.5" fill="rgb(0,0,0)" />
<circle cx="13.0182" cy="4.75457" r="0.5" fill="rgb(0,0,0)" />
<circle cx="15.2756" cy="5.11349" r="0.5" fill="rgb(0,0,0)" />
<circle cx="1.53238" cy="3.66574" r="0.5" fill="rgb(0,0,0)" />
<circle cx="9.15776" cy="4.94284" r="0.5" fill="rgb(0,0,0)" />
<circle cx="2.26718" cy="4.8512" r="0.5" fill="rgb(0,0,0)" />
<circle cx="7.97185" cy="4.90696" r="0.5" fill="rgb(0,0,0)" />
<circle cx="10.3246" cy="5.20831" r="0.5" fill="rgb(0,0,0)" />
<circle cx="6.81609" cy="5.55345" r="0.5" fill="rgb(0,0,0)" />
<circle cx="16.4387" cy="5.49492" r="0.5" fill="rgb(0,0,0)" />
<circle cx="17.3423" cy="0.589203" r="0.5" fill="rgb(0,0,0)" />
<circle cx="14.4724" cy="5.83801" r="0.5" fill="rgb(0,0,0)" />
<circle cx="18.2884" cy="5.65405" r="0.5" fill="rgb(0,0,0)" />
<circle cx="16.6738" cy="2.27623" r="0.5" fill="rgb(0,0,0)" />
<circle cx="13.7159" cy="3.31165" r="0.5" fill="rgb(0,0,0)" />
<circle cx="3.17906" cy="5.54076" r="0.5" fill="rgb(0,0,0)" />
<circle cx="5.60067" cy="5.88877" r="0.5" fill="rgb(0,0,0)" />
<circle cx="15.6533" cy="6.0392" r="0.5" fill="rgb(0,0,0)" />
<circle cx="7.56323" cy="6.08887" r="0.5" fill="rgb(0,0,0)" />
<circle cx="12.8702" cy="5.96303" r="0.5" fill="rgb(0,0,0)" />
<circle cx="11.0202" cy="6.03687" r="0.5" fill="rgb(0,0,0)" />
<circle cx="4.32303" cy="6.29871" r="0.5" fill="rgb(0,0,0)" />
<circle cx="5.91424" cy="6.5284" r="0.5" fill="rgb(0,0,0)" />
<circle cx="9.64066" cy="6.56175" r="0.5" fill="rgb(0,0,0)" />
<circle cx="8.60057" cy="6.87898" r="0.5" fill="rgb(0,0,0)" />
<circle cx="7.68794" cy="7.17312" r="0.5" fill="rgb(0,0,0)" />
<circle cx="14.6333" cy="6.91634" r="0.5" fill="rgb(0,0,0)" />
<circle cx="1.58912" cy="7.17795" r="0.5" fill="rgb(0,0,0)" />
<circle cx="5.35416" cy="7.33678" r="0.5" fill="rgb(0,0,0)" />
<circle cx="15.7377" cy="7.18336" r="0.5" fill="rgb(0,0,0)" />
<circle cx="10.2269" cy="7.28797" r="0.5" fill="rgb(0,0,0)" />
<circle cx="4.25641" cy="7.34483" r="0.5" fill="rgb(0,0,0)" />
<circle cx="11.2281" cy="7.25599" r="0.5" fill="rgb(0,0,0)" />
<circle cx="4.55951" cy="5.34436" r="0.5" fill="rgb(0,0,0)" />
<circle cx="3.43553" cy="7.88635" r="0.5" fill="rgb(0,0,0)" />
<circle cx="6.09026" cy="8.16616" r="0.5" fill="rgb(0,0,0)" />
<circle cx="1.07666" cy="7.92794" r="0.5" fill="rgb(0,0,0)" />
<circle cx="7.35379" cy="8.10478" r="0.5" fill="rgb(0,0,0)" />
<circle cx="6.81599" cy="4.58408" r="0.5" fill="rgb(0,0,0)" />
<circle cx="8.50838" cy="8.0511" r="0.5" fill="rgb(0,0,0)" />
<circle cx="17.086" cy="7.7115" r="0.5" fill="rgb(0,0,0)" />
<circle cx="2.82156" cy="8.44854" r="0.5" fill="rgb(0,0,0)" />
<circle cx="3.60865" cy="3.56456" r="0.5" fill="rgb(0,0,0)" />
<circle cx="11.8118" cy="8.1842" r="0.5" fill="rgb(0,0,0)" />
<circle cx="14.7615" cy="8.17612" r="0.5" fill="rgb(0,0,0)" />
<circle cx="16.1941" cy="8.31183" r="0.5" fill="rgb(0,0,0)" />
<circle cx="12.6639" cy="3.60308" r="0.5" fill="rgb(0,0,0)" />
<circle cx="5.1075" cy="8.52482" r="0.5" fill="rgb(0,0,0)" />
<circle cx="10.2533" cy="8.4779" r="0.5" fill="rgb(0,0,0)" />
<circle cx="8.11201" cy="8.73801" r="0.5" fill="rgb(0,0,0)" />
<circle cx="7.32425" cy="9.03414" r="0.5" fill="rgb(0,0,0)" />
<circle cx="15.3315" cy="8.93642" r="0.5" fill="rgb(0,0,0)" />
<circle cx="4.09711" cy="8.61302" r="0.5" fill="rgb(0,0,0)" />
<circle cx="2.46524" cy="9.28755" r="0.5" fill="rgb(0,0,0)" />
<circle cx="6.61701" cy="7.62117" r="0.5" fill="rgb(0,0,0)" />
<circle cx="6.19325" cy="9.11136" r="0.5" fill="rgb(0,0,0)" />
<circle cx="13.9106" cy="9.0779" r="0.5" fill="rgb(0,0,0)" />
<circle cx="12.5179" cy="8.97938" r="0.5" fill="rgb(0,0,0)" />
<circle cx="3.42728" cy="9.39689" r="0.5" fill="rgb(0,0,0)" />
<circle cx="1.40543" cy="9.2438" r="0.5" fill="rgb(0,0,0)" />
<circle cx="17.0722" cy="9.17871" r="0.5" fill="rgb(0,0,0)" />
<circle cx="7.25283" cy="9.81058" r="0.5" fill="rgb(0,0,0)" />
<circle cx="15.9664" cy="9.63263" r="0.5" fill="rgb(0,0,0)" />
<circle cx="9.13718" cy="9.88716" r="0.5" fill="rgb(0,0,0)" />
<circle cx="14.6857" cy="9.8524" r="0.5" fill="rgb(0,0,0)" />
<circle cx="12.9087" cy="9.8283" r="0.5" fill="rgb(0,0,0)" />
<circle cx="4.42854" cy="10.2988" r="0.5" fill="rgb(0,0,0)" />
<circle cx="6.27435" cy="10.2268" r="0.5" fill="rgb(0,0,0)" />
<circle cx="1.78916" cy="10.2191" r="0.5" fill="rgb(0,0,0)" />
<circle cx="5.53257" cy="10.417" r="0.5" fill="rgb(0,0,0)" />
<circle cx="11.8397" cy="5.10197" r="0.5" fill="rgb(0,0,0)" />
<circle cx="6.87624" cy="10.4136" r="0.5" fill="rgb(0,0,0)" />
<circle cx="2.87627" cy="6.94369" r="0.5" fill="rgb(0,0,0)" />
<circle cx="7.45684" cy="10.839" r="0.5" fill="rgb(0,0,0)" />
<circle cx="8.53149" cy="10.814" r="0.5" fill="rgb(0,0,0)" />
<circle cx="9.61054" cy="10.6646" r="0.5" fill="rgb(0,0,0)" />
<circle cx="17.1029" cy="10.6069" r="0.5" fill="rgb(0,0,0)" />
<circle cx="0.510249" cy="3.52152" r="0.5" fill="rgb(0,0,0)" />
<circle cx="14.0302" cy="11.1155" r="0.5" fill="rgb(0,0,0)" />
<circle cx="0.877142" cy="11.1988" r="0.5" fill="rgb(0,0,0)" />
<circle cx="10.8388" cy="10.9208" r="0.5" fill="rgb(0,0,0)" />
<circle cx="6.01524" cy="11.5264" r="0.5" fill="rgb(0,0,0)" />
<circle cx="7.19455" cy="11.7869" r="0.5" fill="rgb(0,0,0)" />
<circle cx="2.2645" cy="11.5018" r="0.5" fill="rgb(0,0,0)" />
<circle cx="11.2305" cy="0.660423" r="0.5" fill="rgb(0,0,0)" />
<circle cx="12.4816" cy="11.7448" r="0.5" fill="rgb(0,0,0)" />
<circle cx="9.36741" cy="11.826" r="0.5" fill="rgb(0,0,0)" />
<circle cx="2.76811" cy="9.97562" r="0.5" fill="rgb(0,0,0)" />
<circle cx="14.9999" cy="12.4675" r="0.5" fill="rgb(0,0,0)" />
<circle cx="3.3151" cy="12.4104" r="0.5" fill="rgb(0,0,0)" />
<circle cx="10.4744" cy="12.2601" r="0.5" fill="rgb(0,0,0)" />
<circle cx="4.97715" cy="12.3996" r="0.5" fill="rgb(0,0,0)" />
<circle cx="17.4118" cy="12.466" r="0.5" fill="rgb(0,0,0)" />
<circle cx="13.4322" cy="12.6612" r="0.5" fill="rgb(0,0,0)" />
<circle cx="14.7914" cy="0.355946" r="0.5" fill="rgb(0,0,0)" />
<circle cx="8.20092" cy="12.3189" r="0.5" fill="rgb(0,0,0)" />
<circle cx="1.32158" cy="12.9559" r="0.5" fill="rgb(0,0,0)" />
<circle cx="8.75191" cy="13.1175" r="0.5" fill="rgb(0,0,0)" />
<circle cx="14.892" cy="11.4273" r="0.5" fill="rgb(0,0,0)" />
<circle cx="12.1675" cy="13.1328" r="0.5" fill="rgb(0,0,0)" />
<circle cx="10.4296" cy="1.45422" r="0.5" fill="rgb(0,0,0)" />
<circle cx="3.86654" cy="13.4391" r="0.5" fill="rgb(0,0,0)" />
<circle cx="10.544" cy="13.3194" r="0.5" fill="rgb(0,0,0)" />
<circle cx="17.0334" cy="6.44645" r="0.5" fill="rgb(0,0,0)" />
<circle cx="6.21827" cy="13.3175" r="0.5" fill="rgb(0,0,0)" />
<circle cx="2.48904" cy="13.3199" r="0.5" fill="rgb(0,0,0)" />
<circle cx="4.81419" cy="13.8348" r="0.5" fill="rgb(0,0,0)" />
<circle cx="13.4665" cy="13.9883" r="0.5" fill="rgb(0,0,0)" />
<circle cx="16.2462" cy="13.4072" r="0.5" fill="rgb(0,0,0)" />
<circle cx="12.419" cy="7.09363" r="0.5" fill="rgb(0,0,0)" />
<circle cx="7.50298" cy="13.7594" r="0.5" fill="rgb(0,0,0)" />
<circle cx="5.85836" cy="14.1834" r="0.5" fill="rgb(0,0,0)" />
<circle cx="14.3776" cy="14.309" r="0.5" fill="rgb(0,0,0)" />
<circle cx="9.84662" cy="9.39754" r="0.5" fill="rgb(0,0,0)" />
<circle cx="15.5615" cy="14.4857" r="0.5" fill="rgb(0,0,0)" />
<circle cx="17.0842" cy="14.0811" r="0.5" fill="rgb(0,0,0)" />
<circle cx="3.10721" cy="14.5229" r="0.5" fill="rgb(0,0,0)" />
<circle cx="11.119" cy="9.26187" r="0.5" fill="rgb(0,0,0)" />
<circle cx="4.89802" cy="14.905" r="0.5" fill="rgb(0,0,0)" />
<circle cx="12.5282" cy="14.374" r="0.5" fill="rgb(0,0,0)" />
<circle cx="8.87927" cy="5.82448" r="0.5" fill="rgb(0,0,0)" />
<circle cx="8.57573" cy="14.2731" r="0.5" fill="rgb(0,0,0)" />
<circle cx="3.72964" cy="11.4563" r="0.5" fill="rgb(0,0,0)" />
<circle cx="10.7358" cy="14.3525" r="0.5" fill="rgb(0,0,0)" />
<circle cx="13.9966" cy="5.14396" r="0.5" fill="rgb(0,0,0)" />
<circle cx="13.4878" cy="15.0498" r="0.5" fill="rgb(0,0,0)" />
<circle cx="4.00104" cy="14.8839" r="0.5" fill="rgb(0,0,0)" />
<circle cx="4.69942" cy="11.1637" r="0.5" fill="rgb(0,0,0)" />
<circle cx="5.62596" cy="15.3149" r="0.5" fill="rgb(0,0,0)" />
<circle cx="9.3612" cy="14.6997" r="0.5" fill="rgb(0,0,0)" />
<circle cx="17.9356" cy="14.8247" r="0.5" fill="rgb(0,0,0)" />
<circle cx="1.30302" cy="5.83048" r="0.5" fill="rgb(0,0,0)" />
<circle cx="6.58768" cy="15.0373" r="0.5" fill="rgb(0,0,0)" />
<circle cx="7.79285" cy="15.1143" r="0.5" fill="rgb(0,0,0)" />
<circle cx="15.0619" cy="15.3276" r="0.5" fill="rgb(0,0,0)" />
<circle cx="4.75347" cy="4.3885" r="0.5" fill="rgb(0,0,0)" />
<circle cx="2.28495" cy="15.4075" r="0.5" fill="rgb(0,0,0)" />
<circle cx="8.68187" cy="9.22972" r="0.5" fill="rgb(0,0,0)" />
<circle cx="5.68555" cy="16.0448" r="0.5" fill="rgb(0,0,0)" />
<circle cx="4.72064" cy="15.8023" r="0.5" fill="rgb(0,0,0)" />
<circle cx="14.2541" cy="15.7424" r="0.5" fill="rgb(0,0,0)" />
<circle cx="15.1303" cy="13.5287" r="0.5" fill="rgb(0,0,0)" />
<circle cx="3.2749" cy="15.8071" r="0.5" fill="rgb(0,0,0)" />
<circle cx="16.3143" cy="15.3793" r="0.5" fill="rgb(0,0,0)" />
<circle cx="11.9628" cy="15.663" r="0.5" fill="rgb(0,0,0)" />
<circle cx="1.32695" cy="16.4482" r="0.5" fill="rgb(0,0,0)" />
<circle cx="3.95155" cy="16.1592" r="0.5" fill="rgb(0,0,0)" />
<circle cx="6.54782" cy="16.4858" r="0.5" fill="rgb(0,0,0)" />
<circle cx="9.35709" cy="7.99593" r="0.5" fill="rgb(0,0,0)" />
<circle cx="15.7252" cy="10.6545" r="0.5" fill="rgb(0,0,0)" />
<circle cx="17.2334" cy="16.1839" r="0.5" fill="rgb(0,0,0)" />
<circle cx="8.87267" cy="16.1588" r="0.5" fill="rgb(0,0,0)" />
<circle cx="10.1673" cy="15.6873" r="0.5" fill="rgb(0,0,0)" />
<circle cx="5.52548" cy="16.7476" r="0.5" fill="rgb(0,0,0)" />
<circle cx="12.6153" cy="16.5393" r="0.5" fill="rgb(0,0,0)" />
<circle cx="2.01287" cy="16.5519" r="0.5" fill="rgb(0,0,0)" />
<circle cx="1.64877" cy="14.3882" r="0.5" fill="rgb(0,0,0)" />
<circle cx="10.9414" cy="16.6114" r="0.5" fill="rgb(0,0,0)" />
<circle cx="15.1384" cy="16.4755" r="0.5" fill="rgb(0,0,0)" />
<circle cx="1.314" cy="17.2967" r="0.5" fill="rgb(0,0,0)" />
<circle cx="4.06748" cy="9.6131" r="0.5" fill="rgb(0,0,0)" />
<circle cx="4.38851" cy="16.8061" r="0.5" fill="rgb(0,0,0)" />
<circle cx="16.854" cy="17.2611" r="0.5" fill="rgb(0,0,0)" />
<circle cx="5.06346" cy="9.53301" r="0.5" fill="rgb(0,0,0)" />
<circle cx="15.8661" cy="17.0316" r="0.5" fill="rgb(0,0,0)" />
<circle cx="1.96417" cy="17.7331" r="0.5" fill="rgb(0,0,0)" />
<circle cx="16.6916" cy="3.3971" r="0.5" fill="rgb(0,0,0)" />
<circle cx="7.75964" cy="17.1225" r="0.5" fill="rgb(0,0,0)" />
<circle cx="5.84125" cy="17.4191" r="0.5" fill="rgb(0,0,0)" />
<circle cx="1.21234" cy="17.8894" r="0.5" fill="rgb(0,0,0)" />
<circle cx="11.983" cy="17.4944" r="0.5" fill="rgb(0,0,0)" />
<circle cx="18.1008" cy="7.09518" r="0.5" fill="rgb(0,0,0)" />
<circle cx="2.81664" cy="17.7037" r="0.5" fill="rgb(0,0,0)" />
<circle cx="14.2623" cy="12.8812" r="0.5" fill="rgb(0,0,0)" />
<circle cx="9.06945" cy="17.3333" r="0.5" fill="rgb(0,0,0)" />
<circle cx="11.009" cy="17.7932" r="0.5" fill="rgb(0,0,0)" />
<circle cx="13.6336" cy="6.97294" r="0.5" fill="rgb(0,0,0)" />
<circle cx="8.11166" cy="9.91892" r="0.5" fill="rgb(0,0,0)" />
<circle cx="18.337" cy="17.0439" r="0.5" fill="rgb(0,0,0)" />
<circle cx="18.4618" cy="15.7095" r="0.5" fill="rgb(0,0,0)" />
<circle cx="14.4086" cy="17.9228" r="0.5" fill="rgb(0,0,0)" />
<circle cx="13.1947" cy="17.4521" r="0.5" fill="rgb(0,0,0)" />
<circle cx="15.4419" cy="17.9586" r="0.5" fill="rgb(0,0,0)" />
<circle cx="2.07064" cy="6.25731" r="0.5" fill="rgb(0,0,0)" />
<circle cx="17.6058" cy="17.9487" r="0.5" fill="rgb(0,0,0)" />
<circle cx="6.79103" cy="17.7231" r="0.5" fill="rgb(0,0,0)" />
<circle cx="8.25991" cy="18.0353" r="0.5" fill="rgb(0,0,0)" />
<circle cx="13.249" cy="15.8529" r="0.5" fill="rgb(0,0,0)" />
<circle cx="4.87755" cy="17.7331" r="0.5" fill="rgb(0,0,0)" />
<circle cx="13.4325" cy="8.08651" r="0.5" fill="rgb(0,0,0)" />
<circle cx="18.4296" cy="1.68367" r="0.5" fill="rgb(0,0,0)" />
<circle cx="13.7248" cy="4.1267" r="0.5" fill="rgb(0,0,0)" />
<circle cx="8.14755" cy="11.5267" r="0.5" fill="rgb(0,0,0)" />
<circle cx="14.1548" cy="16.9691" r="0.5" fill="rgb(0,0,0)" />
<circle cx="18.4538" cy="0.487002" r="0.5" fill="rgb(0,0,0)" />
<circle cx="16.1269" cy="11.9835" r="0.5" fill="rgb(0,0,0)" />
<circle cx="18.401" cy="18.3711" r="0.5" fill="rgb(0,0,0)" />
<circle cx="18.7567" cy="18.1485" r="0.5" fill="rgb(0,0,0)" />
<circle cx="18.3713" cy="13.3914" r="0.5" fill="rgb(0,0,0)" />
<circle cx="11.9692" cy="10.4803" r="0.5" fill="rgb(0,0,0)" />
<circle cx="18.1807" cy="11.358" r="0.5" fill="rgb(0,0,0)" />
<circle cx="11.5378" cy="14.8101" r="0.5" fill="rgb(0,0,0)" />
<circle cx="9.79857" cy="17.9746" r="0.5" fill="rgb(0,0,0)" />
<circle cx="0.425338" cy="16.7083" r="0.5" fill="rgb(0,0,0)" />
<circle cx="7.3913" cy="16.1266" r="0.5" fill="rgb(0,0,0)" />
<circle cx="4.24228" cy="18.2384" r="0.5" fill="rgb(0,0,0)" />
<circle cx="17.8734" cy="18.7224" r="0.5" fill="rgb(0,0,0)" />
<circle cx="13.5289" cy="10.3904" r="0.5" fill="rgb(0,0,0)" />
<circle cx="16.5671" cy="18.4277" r="0.5" fill="rgb(0,0,0)" />
<circle cx="18.3105" cy="9.49928" r="0.5" fill="rgb(0,0,0)" />
<circle cx="0.443659" cy="10.0632" r="0.5" fill="rgb(0,0,0)" />
<circle cx="0.435197" cy="8.64724" r="0.5" fill="rgb(0,0,0)" />
<circle cx="3.16126" cy="2.82197" r="0.5" fill="rgb(0,0,0)" />
<circle cx="15.0927" cy="18.6621" r="0.5" fill="rgb(0,0,0)" />
<circle cx="13.6681" cy="18.4803" r="0.5" fill="rgb(0,0,0)" />
<circle cx="18.4816" cy="4.53854" r="0.5" fill="rgb(0,0,0)" />
<circle cx="18.4749" cy="3.27821" r="0.5" fill="rgb(0,0,0)" />
<circle cx="10.8405" cy="18.5998" r="0.5" fill="rgb(0,0,0)" />
<circle cx="12.3991" cy="18.4736" r="0.5" fill="rgb(0,0,0)" />
<circle cx="0.44097" cy="6.90536" r="0.5" fill="rgb(0,0,0)" />
<circle cx="9.79112" cy="4.39563" r="0.5" fill="rgb(0,0,0)" />
<circle cx="18.3674" cy="8.11504" r="0.5" fill="rgb(0,0,0)" />
<circle cx="18.6035" cy="6.50272" r="0.5" fill="rgb(0,0,0)" />
<circle cx="0.439231" cy="14.3716" r="0.5" fill="rgb(0,0,0)" />
<circle cx="6.68733" cy="6.80122" r="0.5" fill="rgb(0,0,0)" />
<circle cx="0.404544" cy="12.4314" r="0.5" fill="rgb(0,0,0)" />
<circle cx="3.31134" cy="18.4625" r="0.5" fill="rgb(0,0,0)" />
<circle cx="8.06832" cy="18.6492" r="0.5" fill="rgb(0,0,0)" />
<circle cx="5.92338" cy="5.11625" r="0.5" fill="rgb(0,0,0)" />
<circle cx="3.29627" cy="10.5365" r="0.5" fill="rgb(0,0,0)" />
<circle cx="6.05594" cy="18.5176" r="0.5" fill="rgb(0,0,0)" />
<circle cx="5.0157" cy="2.78243" r="0.5" fill="rgb(0,0,0)" />
<circle cx="6.73313" cy="12.5791" r="0.5" fill="rgb(0,0,0)" />
<circle cx="0.357003" cy="5.49215" r="0.5" fill="rgb(0,0,0)" />
<circle cx="0.760928" cy="15.6049" r="0.5" fill="rgb(0,0,0)" />
<circle cx="0.413247" cy="4.35768" r="0.5" fill="rgb(0,0,0)" />
<circle cx="2.51737" cy="0.538689" r="0.5" fill="rgb(0,0,0)" />
<circle cx="1.94265" cy="8.33885" r="0.5" fill="rgb(0,0,0)" />
<circle cx="0.568453" cy="2.30659" r="0.5" fill="rgb(0,0,0)" />
<circle cx="0.763777" cy="0.731258" r="0.5" fill="rgb(0,0,0)" />
<circle cx="17.4055" cy="5.2058" r="0.5" fill="rgb(0,0,0)" />
<circle cx="0.26175" cy="17.6854" r="0.5" fill="rgb(0,0,0)" />
<circle cx="0.370208" cy="18.4662" r="0.5" fill="rgb(0,0,0)" />
<circle cx="2.07064" cy="18.5958" r="0.5" fill="rgb(0,0,0)" />
<circle cx="2.98853" cy="16.7277" r="0.5" fill="rgb(0,0,0)" />
<circle cx="1.08677" cy="18.5811" r="0.5" fill="rgb(0,0,0)" />
</svg>
