<?xml version="1.0" ?>
<!DOCTYPE svg PUBLIC "-//W3C//DTD SVG 1.1//EN" "http://www.w3.org/Graphics/SVG/1.1/DTD/svg11.dtd">
<svg width="20" height="20" version="1.1" xmlns="http://www.w3.org/2000/svg">
<circle cx="8.00076" cy="0.542964" r="0.5" fill="rgb(0,0,0)" />
<circle cx="5.18207" cy="0.606449" r="0.5" fill="rgb(0,0,0)" />
<circle cx="10.4925" cy="0.776602" r="0.5" fill="rgb(0,0,0)" />
<circle cx="5.32268" cy="2.01524" r="0.5" fill="rgb(0,0,0)" />
<circle cx="15.4058" cy="2.39189" r="0.5" fill="rgb(0,0,0)" />
<circle cx="18.0414" cy="1.85489" r="0.5" fill="rgb(0,0,0)" />
<circle cx="18.3562" cy="0.596098" r="0.5" fill="rgb(0,0,0)" />
<circle cx="2.1245" cy="3.45272" r="0.5" fill="rgb(0,0,0)" />
<circle cx="17.274" cy="3.77027" r="0.5" fill="rgb(0,0,0)" />
<circle cx="5.59801" cy="3.64448" r="0.5" fill="rgb(0,0,0)" />
<circle cx="12.7155" cy="0.596096" r="0.5" fill="rgb(0,0,0)" />
<circle cx="8.07083" cy="4.04746" r="0.5" fill="rgb(0,0,0)" />
<circle cx="6.4426" cy="5.0015" r="0.5" fill="rgb(0,0,0)" />
<circle cx="14.8746" cy="5.25252" r="0.5" fill="rgb(0,0,0)" />
<circle cx="16.9593" cy="5.53254" r="0.5" fill="rgb(0,0,0)" />
<circle cx="16.2388" cy="4.27858" r="0.5" fill="rgb(0,0,0)" />
<circle cx="13.3719" cy="5.12198" r="0.5" fill="rgb(0,0,0)" />
<circle cx="9.95987" cy="4.99949" r="0.5" fill="rgb(0,0,0)" />
<circle cx="4.42954" cy="5.42652" r="0.5" fill="rgb(0,0,0)" />
<circle cx="6.44423" cy="6.60781" r="0.5" fill="rgb(0,0,0)" />
<circle cx="8.35977" cy="6.41166" r="0.5" fill="rgb(0,0,0)" />
<circle cx="1.78127" cy="6.22322" r="0.5" fill="rgb(0,0,0)" />
<circle cx="10.7409" cy="6.65447" r="0.5" fill="rgb(0,0,0)" />
<circle cx="1.99491" cy="2.06673" r="0.5" fill="rgb(0,0,0)" />
<circle cx="10.2799" cy="2.96854" r="0.5" fill="rgb(0,0,0)" />
<circle cx="16.7981" cy="7.27342" r="0.5" fill="rgb(0,0,0)" />
<circle cx="14.4605" cy="7.05509" r="0.5" fill="rgb(0,0,0)" />
<circle cx="5.42201" cy="7.55268" r="0.5" fill="rgb(0,0,0)" />
<circle cx="9.59783" cy="7.86619" r="0.5" fill="rgb(0,0,0)" />
<circle cx="2.49101" cy="9.26142" r="0.5" fill="rgb(0,0,0)" />
<circle cx="14.9413" cy="0.643651" r="0.5" fill="rgb(0,0,0)" />
<circle cx="7.38757" cy="8.54861" r="0.5" fill="rgb(0,0,0)" />
<circle cx="5.03394" cy="8.90119" r="0.5" fill="rgb(0,0,0)" />
<circle cx="11.4105" cy="9.39908" r="0.5" fill="rgb(0,0,0)" />
<circle cx="9.33438" cy="9.33368" r="0.5" fill="rgb(0,0,0)" />
<circle cx="15.7827" cy="10.0619" r="0.5" fill="rgb(0,0,0)" />
<circle cx="8.71791" cy="10.6968" r="0.5" fill="rgb(0,0,0)" />
<circle cx="14.3884" cy="3.20263" r="0.5" fill="rgb(0,0,0)" />
<circle cx="2.77012" cy="10.6451" r="0.5" fill="rgb(0,0,0)" />
<circle cx="11.476" cy="10.9467" r="0.5" fill="rgb(0,0,0)" />
<circle cx="2.68889" cy="4.90496" r="0.5" fill="rgb(0,0,0)" />
<circle cx="16.2113" cy="11.7632" r="0.5" fill="rgb(0,0,0)" />
<circle cx="10.3086" cy="12.2088" r="0.5" fill="rgb(0,0,0)" />
<circle cx="14.9375" cy="12.6501" r="0.5" fill="rgb(0,0,0)" />
<circle cx="13.861" cy="8.67221" r="0.5" fill="rgb(0,0,0)" />
<circle cx="15.1364" cy="14.9575" r="0.5" fill="rgb(0,0,0)" />
<circle cx="0.757909" cy="9.7902" r="0.5" fill="rgb(0,0,0)" />
<circle cx="2.66756" cy="14.5314" r="0.5" fill="rgb(0,0,0)" />
<circle cx="4.74883" cy="14.3666" r="0.5" fill="rgb(0,0,0)" />
<circle cx="13.2399" cy="15.2454" r="0.5" fill="rgb(0,0,0)" />
<circle cx="11.6875" cy="4.13368" r="0.5" fill="rgb(0,0,0)" />
<circle cx="0.793424" cy="8.0316" r="0.5" fill="rgb(0,0,0)" />
<circle cx="14.1531" cy="15.8093" r="0.5" fill="rgb(0,0,0)" />
<circle cx="15.755" cy="6.3447" r="0.5" fill="rgb(0,0,0)" />
<circle cx="17.8774" cy="14.5922" r="0.5" fill="rgb(0,0,0)" />
<circle cx="12.3179" cy="14.017" r="0.5" fill="rgb(0,0,0)" />
<circle cx="7.83819" cy="15.0146" r="0.5" fill="rgb(0,0,0)" />
<circle cx="13.9117" cy="1.81857" r="0.5" fill="rgb(0,0,0)" />
<circle cx="12.1075" cy="8.11354" r="0.5" fill="rgb(0,0,0)" />
<circle cx="11.4125" cy="15.2095" r="0.5" fill="rgb(0,0,0)" />
<circle cx="6.40222" cy="10.583" r="0.5" fill="rgb(0,0,0)" />
<circle cx="5.15825" cy="15.862" r="0.5" fill="rgb(0,0,0)" />
<circle cx="9.86171" cy="15.4373" r="0.5" fill="rgb(0,0,0)" />
<circle cx="3.92375" cy="12.2133" r="0.5" fill="rgb(0,0,0)" />
<circle cx="15.4043" cy="16.3234" r="0.5" fill="rgb(0,0,0)" />
<circle cx="15.1855" cy="3.94785" r="0.5" fill="rgb(0,0,0)" />
<circle cx="12.5879" cy="12.4906" r="0.5" fill="rgb(0,0,0)" />
<circle cx="6.92748" cy="16.3185" r="0.5" fill="rgb(0,0,0)" />
<circle cx="8.92936" cy="2.04402" r="0.5" fill="rgb(0,0,0)" />
<circle cx="13.2017" cy="3.54814" r="0.5" fill="rgb(0,0,0)" />
<circle cx="3.79915" cy="2.84185" r="0.5" fill="rgb(0,0,0)" />
<circle cx="8.16157" cy="12.646" r="0.5" fill="rgb(0,0,0)" />
<circle cx="13.7998" cy="17.0362" r="0.5" fill="rgb(0,0,0)" />
<circle cx="2.83851" cy="16.5772" r="0.5" fill="rgb(0,0,0)" />
<circle cx="16.571" cy="16.7486" r="0.5" fill="rgb(0,0,0)" />
<circle cx="12.5018" cy="6.36439" r="0.5" fill="rgb(0,0,0)" />
<circle cx="15.2851" cy="17.7534" r="0.5" fill="rgb(0,0,0)" />
<circle cx="5.73868" cy="17.281" r="0.5" fill="rgb(0,0,0)" />
<circle cx="17.2044" cy="17.8714" r="0.5" fill="rgb(0,0,0)" />
<circle cx="6.25375" cy="12.9345" r="0.5" fill="rgb(0,0,0)" />
<circle cx="1.55621" cy="17.5794" r="0.5" fill="rgb(0,0,0)" />
<circle cx="3.52825" cy="7.05484" r="0.5" fill="rgb(0,0,0)" />
<circle cx="3.11037" cy="18.3844" r="0.5" fill="rgb(0,0,0)" />
<circle cx="4.36296" cy="17.593" r="0.5" fill="rgb(0,0,0)" />
<circle cx="14.1412" cy="13.845" r="0.5" fill="rgb(0,0,0)" />
<circle cx="8.63736" cy="17.4675" r="0.5" fill="rgb(0,0,0)" />
<circle cx="16.834" cy="0.627607" r="0.5" fill="rgb(0,0,0)" />
<circle cx="18.1928" cy="6.50178" r="0.5" fill="rgb(0,0,0)" />
<circle cx="18.2355" cy="3.09999" r="0.5" fill="rgb(0,0,0)" />
<circle cx="10.2094" cy="17.643" r="0.5" fill="rgb(0,0,0)" />
<circle cx="11.7712" cy="17.9748" r="0.5" fill="rgb(0,0,0)" />
<circle cx="12.8787" cy="18.374" r="0.5" fill="rgb(0,0,0)" />
<circle cx="15.9742" cy="18.5152" r="0.5" fill="rgb(0,0,0)" />
<circle cx="14.1774" cy="18.2893" r="0.5" fill="rgb(0,0,0)" />
<circle cx="4.25255" cy="10.0191" r="0.5" fill="rgb(0,0,0)" />
<circle cx="1.16355" cy="11.4861" r="0.5" fill="rgb(0,0,0)" />
<circle cx="0.49827" cy="6.32155" r="0.5" fill="rgb(0,0,0)" />
<circle cx="2.57695" cy="8.03891" r="0.5" fill="rgb(0,0,0)" />
<circle cx="18.2989" cy="4.88224" r="0.5" fill="rgb(0,0,0)" />
<circle cx="0.660304" cy="4.07069" r="0.5" fill="rgb(0,0,0)" />
<circle cx="1.0329" cy="13.2969" r="0.5" fill="rgb(0,0,0)" />
<circle cx="9.825" cy="13.7754" r="0.5" fill="rgb(0,0,0)" />
<circle cx="17.9337" cy="12.5743" r="0.5" fill="rgb(0,0,0)" />
<circle cx="17.9772" cy="10.166" r="0.5" fill="rgb(0,0,0)" />
<circle cx="18.1284" cy="8.27209" r="0.5" fill="rgb(0,0,0)" />
<circle cx="7.6446" cy="18.3146" r="0.5" fill="rgb(0,0,0)" />
<circle cx="16.3327" cy="14.3709" r="0.5" fill="rgb(0,0,0)" />
<circle cx="6.0846" cy="18.3165" r="0.5" fill="rgb(0,0,0)" />
<circle cx="18.1486" cy="15.9507" r="0.5" fill="rgb(0,0,0)" />
<circle cx="0.549935" cy="18.1456" r="0.5" fill="rgb(0,0,0)" />
<circle cx="0.802217" cy="15.6916" r="0.5" fill="rgb(0,0,0)" />
<circle cx="16.5127" cy="2.09663" r="0.5" fill="rgb(0,0,0)" />
<circle cx="0.643426" cy="1.15646" r="0.5" fill="rgb(0,0,0)" />
<circle cx="16.0932" cy="8.52556" r="0.5" fill="rgb(0,0,0)" />
<circle cx="13.7805" cy="10.7334" r="0.5" fill="rgb(0,0,0)" />
<circle cx="2.7579" cy="0.670665" r="0.5" fill="rgb(0,0,0)" />
<circle cx="18.1548" cy="18.5125" r="0.5" fill="rgb(0,0,0)" />
<circle cx="12.1272" cy="2.09635" r="0.5" fill="rgb(0,0,0)" />
<circle cx="7.06264" cy="1.99328" r="0.5" fill="rgb(0,0,0)" />
<circle cx="12.1445" cy="16.4995" r="0.5" fill="rgb(0,0,0)" />
<circle cx="18.3825" cy="17.3083" r="0.5" fill="rgb(0,0,0)" />
</svg>
