<?xml version="1.0" ?>
<!DOCTYPE svg PUBLIC "-//W3C//DTD SVG 1.1//EN" "http://www.w3.org/Graphics/SVG/1.1/DTD/svg11.dtd">
<svg width="20" height="20" version="1.1" xmlns="http://www.w3.org/2000/svg">
<circle cx="16.441" cy="2.77549" r="0.5" fill="rgb(0,0,0)" />
<circle cx="13.9028" cy="1.44797" r="0.5" fill="rgb(0,0,0)" />
<circle cx="3.21789" cy="3.77301" r="0.5" fill="rgb(0,0,0)" />
<circle cx="6.02083" cy="3.89042" r="0.5" fill="rgb(0,0,0)" />
<circle cx="14.4938" cy="4.89633" r="0.5" fill="rgb(0,0,0)" />
<circle cx="11.759" cy="5.79478" r="0.5" fill="rgb(0,0,0)" />
<circle cx="8.0731" cy="5.97969" r="0.5" fill="rgb(0,0,0)" />
<circle cx="4.25898" cy="6.93338" r="0.5" fill="rgb(0,0,0)" />
<circle cx="13.4233" cy="8.36119" r="0.5" fill="rgb(0,0,0)" />
<circle cx="6.53878" cy="9.40304" r="0.5" fill="rgb(0,0,0)" />
<circle cx="2.73609" cy="10.6399" r="0.5" fill="rgb(0,0,0)" />
<circle cx="13.6956" cy="11.3037" r="0.5" fill="rgb(0,0,0)" />
<circle cx="16.9691" cy="8.47282" r="0.5" fill="rgb(0,0,0)" />
<circle cx="15.6573" cy="13.5866" r="0.5" fill="rgb(0,0,0)" />
<circle cx="9.75169" cy="12.607" r="0.5" fill="rgb(0,0,0)" />
<circle cx="6.15351" cy="13.0778" r="0.5" fill="rgb(0,0,0)" />
<circle cx="14.84" cy="15.8458" r="0.5" fill="rgb(0,0,0)" />
<circle cx="1.88348" cy="13.5987" r="0.5" fill="rgb(0,0,0)" />
<circle cx="17.5194" cy="11.5213" r="0.5" fill="rgb(0,0,0)" />
<circle cx="5.46339" cy="16.882" r="0.5" fill="rgb(0,0,0)" />
<circle cx="17.5767" cy="5.43162" r="0.5" fill="rgb(0,0,0)" />
<circle cx="10.017" cy="9.04565" r="0.5" fill="rgb(0,0,0)" />
<circle cx="17.7075" cy="1.17781" r="0.5" fill="rgb(0,0,0)" />
<circle cx="7.59517" cy="1.36577" r="0.5" fill="rgb(0,0,0)" />
<circle cx="10.2598" cy="3.4821" r="0.5" fill="rgb(0,0,0)" />
<circle cx="11.9839" cy="17.5308" r="0.5" fill="rgb(0,0,0)" />
<circle cx="4.27549" cy="1.14398" r="0.5" fill="rgb(0,0,0)" />
<circle cx="10.9002" cy="1.10155" r="0.5" fill="rgb(0,0,0)" />
<circle cx="1.80517" cy="17.1609" r="0.5" fill="rgb(0,0,0)" />
<circle cx="1.22173" cy="1.45946" r="0.5" fill="rgb(0,0,0)" />
<circle cx="12.1942" cy="14.3903" r="0.5" fill="rgb(0,0,0)" />
<circle cx="8.9696" cy="16.7918" r="0.5" fill="rgb(0,0,0)" />
<circle cx="14.8789" cy="18.0008" r="0.5" fill="rgb(0,0,0)" />
<circle cx="1.20652" cy="8.28011" r="0.5" fill="rgb(0,0,0)" />
<circle cx="17.5797" cy="17.7358" r="0.5" fill="rgb(0,0,0)" />
<circle cx="1.12607" cy="4.99347" r="0.5" fill="rgb(0,0,0)" />
<circle cx="17.7958" cy="15.1038" r="0.5" fill="rgb(0,0,0)" />
</svg>
