<?xml version="1.0" ?>
<!DOCTYPE svg PUBLIC "-//W3C//DTD SVG 1.1//EN" "http://www.w3.org/Graphics/SVG/1.1/DTD/svg11.dtd">
<svg width="20" height="20" version="1.1" xmlns="http://www.w3.org/2000/svg">
<circle cx="13.9118" cy="1.81857" r="0.5" fill="rgb(0,0,0)" />
<circle cx="16.5127" cy="2.09663" r="0.5" fill="rgb(0,0,0)" />
<circle cx="15.4058" cy="2.39189" r="0.5" fill="rgb(0,0,0)" />
<circle cx="18.0414" cy="1.85489" r="0.5" fill="rgb(0,0,0)" />
<circle cx="10.307" cy="2.95406" r="0.5" fill="rgb(0,0,0)" />
<circle cx="15.1855" cy="3.94785" r="0.5" fill="rgb(0,0,0)" />
<circle cx="6.72873" cy="3.30893" r="0.5" fill="rgb(0,0,0)" />
<circle cx="17.274" cy="3.77027" r="0.5" fill="rgb(0,0,0)" />
<circle cx="4.8265" cy="3.77481" r="0.5" fill="rgb(0,0,0)" />
<circle cx="11.6848" cy="4.13404" r="0.5" fill="rgb(0,0,0)" />
<circle cx="10.4948" cy="0.77317" r="0.5" fill="rgb(0,0,0)" />
<circle cx="6.097" cy="4.94423" r="0.5" fill="rgb(0,0,0)" />
<circle cx="12.7155" cy="0.595992" r="0.5" fill="rgb(0,0,0)" />
<circle cx="14.8746" cy="5.25252" r="0.5" fill="rgb(0,0,0)" />
<circle cx="2.68831" cy="4.90793" r="0.5" fill="rgb(0,0,0)" />
<circle cx="16.2388" cy="4.27858" r="0.5" fill="rgb(0,0,0)" />
<circle cx="13.3719" cy="5.1219" r="0.5" fill="rgb(0,0,0)" />
<circle cx="10.0122" cy="5.04751" r="0.5" fill="rgb(0,0,0)" />
<circle cx="1.79343" cy="6.2256" r="0.5" fill="rgb(0,0,0)" />
<circle cx="7.47027" cy="5.90609" r="0.5" fill="rgb(0,0,0)" />
<circle cx="10.7872" cy="6.65898" r="0.5" fill="rgb(0,0,0)" />
<circle cx="16.9593" cy="5.53254" r="0.5" fill="rgb(0,0,0)" />
<circle cx="9.70932" cy="7.92758" r="0.5" fill="rgb(0,0,0)" />
<circle cx="5.50164" cy="7.78576" r="0.5" fill="rgb(0,0,0)" />
<circle cx="12.1154" cy="8.11821" r="0.5" fill="rgb(0,0,0)" />
<circle cx="2.47945" cy="9.26227" r="0.5" fill="rgb(0,0,0)" />
<circle cx="7.40148" cy="8.5307" r="0.5" fill="rgb(0,0,0)" />
<circle cx="4.96029" cy="8.9027" r="0.5" fill="rgb(0,0,0)" />
<circle cx="6.01467" cy="6.68127" r="0.5" fill="rgb(0,0,0)" />
<circle cx="14.4606" cy="7.05509" r="0.5" fill="rgb(0,0,0)" />
<circle cx="11.4233" cy="9.392" r="0.5" fill="rgb(0,0,0)" />
<circle cx="15.7827" cy="10.0619" r="0.5" fill="rgb(0,0,0)" />
<circle cx="6.43221" cy="10.4357" r="0.5" fill="rgb(0,0,0)" />
<circle cx="2.76433" cy="10.6111" r="0.5" fill="rgb(0,0,0)" />
<circle cx="8.58154" cy="6.74336" r="0.5" fill="rgb(0,0,0)" />
<circle cx="3.5411" cy="7.07433" r="0.5" fill="rgb(0,0,0)" />
<circle cx="11.4712" cy="10.9468" r="0.5" fill="rgb(0,0,0)" />
<circle cx="16.0932" cy="8.52556" r="0.5" fill="rgb(0,0,0)" />
<circle cx="13.7806" cy="10.7335" r="0.5" fill="rgb(0,0,0)" />
<circle cx="1.93121" cy="2.06706" r="0.5" fill="rgb(0,0,0)" />
<circle cx="14.3884" cy="3.20263" r="0.5" fill="rgb(0,0,0)" />
<circle cx="12.5893" cy="12.491" r="0.5" fill="rgb(0,0,0)" />
<circle cx="10.3171" cy="12.1901" r="0.5" fill="rgb(0,0,0)" />
<circle cx="16.7981" cy="7.27342" r="0.5" fill="rgb(0,0,0)" />
<circle cx="3.8798" cy="12.1511" r="0.5" fill="rgb(0,0,0)" />
<circle cx="14.1407" cy="13.8449" r="0.5" fill="rgb(0,0,0)" />
<circle cx="6.49669" cy="12.4792" r="0.5" fill="rgb(0,0,0)" />
<circle cx="12.321" cy="14.0161" r="0.5" fill="rgb(0,0,0)" />
<circle cx="5.35394" cy="13.7563" r="0.5" fill="rgb(0,0,0)" />
<circle cx="13.8631" cy="8.67914" r="0.5" fill="rgb(0,0,0)" />
<circle cx="4.23529" cy="9.99693" r="0.5" fill="rgb(0,0,0)" />
<circle cx="15.1364" cy="14.9575" r="0.5" fill="rgb(0,0,0)" />
<circle cx="1.15672" cy="11.4567" r="0.5" fill="rgb(0,0,0)" />
<circle cx="16.3327" cy="14.3709" r="0.5" fill="rgb(0,0,0)" />
<circle cx="2.18542" cy="14.3749" r="0.5" fill="rgb(0,0,0)" />
<circle cx="8.28488" cy="12.7394" r="0.5" fill="rgb(0,0,0)" />
<circle cx="13.2418" cy="15.2452" r="0.5" fill="rgb(0,0,0)" />
<circle cx="0.793181" cy="8.03185" r="0.5" fill="rgb(0,0,0)" />
<circle cx="14.1531" cy="15.8093" r="0.5" fill="rgb(0,0,0)" />
<circle cx="15.755" cy="6.3447" r="0.5" fill="rgb(0,0,0)" />
<circle cx="17.8774" cy="14.5922" r="0.5" fill="rgb(0,0,0)" />
<circle cx="8.3207" cy="4.1639" r="0.5" fill="rgb(0,0,0)" />
<circle cx="7.89448" cy="15.0294" r="0.5" fill="rgb(0,0,0)" />
<circle cx="5.02155" cy="15.2524" r="0.5" fill="rgb(0,0,0)" />
<circle cx="14.9373" cy="12.6501" r="0.5" fill="rgb(0,0,0)" />
<circle cx="3.55084" cy="14.9968" r="0.5" fill="rgb(0,0,0)" />
<circle cx="9.90518" cy="15.4259" r="0.5" fill="rgb(0,0,0)" />
<circle cx="15.4043" cy="16.3234" r="0.5" fill="rgb(0,0,0)" />
<circle cx="12.1432" cy="16.4956" r="0.5" fill="rgb(0,0,0)" />
<circle cx="6.9351" cy="16.2329" r="0.5" fill="rgb(0,0,0)" />
<circle cx="13.2014" cy="3.54824" r="0.5" fill="rgb(0,0,0)" />
<circle cx="13.7905" cy="17.0317" r="0.5" fill="rgb(0,0,0)" />
<circle cx="14.9413" cy="0.643651" r="0.5" fill="rgb(0,0,0)" />
<circle cx="2.78457" cy="16.7215" r="0.5" fill="rgb(0,0,0)" />
<circle cx="16.571" cy="16.7486" r="0.5" fill="rgb(0,0,0)" />
<circle cx="5.77131" cy="17.3158" r="0.5" fill="rgb(0,0,0)" />
<circle cx="15.2851" cy="17.7534" r="0.5" fill="rgb(0,0,0)" />
<circle cx="17.2044" cy="17.8714" r="0.5" fill="rgb(0,0,0)" />
<circle cx="8.89557" cy="2.06645" r="0.5" fill="rgb(0,0,0)" />
<circle cx="18.3562" cy="0.596098" r="0.5" fill="rgb(0,0,0)" />
<circle cx="1.52975" cy="17.5644" r="0.5" fill="rgb(0,0,0)" />
<circle cx="8.6165" cy="17.4961" r="0.5" fill="rgb(0,0,0)" />
<circle cx="16.834" cy="0.627607" r="0.5" fill="rgb(0,0,0)" />
<circle cx="18.1928" cy="6.50178" r="0.5" fill="rgb(0,0,0)" />
<circle cx="4.40271" cy="17.7506" r="0.5" fill="rgb(0,0,0)" />
<circle cx="3.61209" cy="2.66118" r="0.5" fill="rgb(0,0,0)" />
<circle cx="9.32724" cy="9.33667" r="0.5" fill="rgb(0,0,0)" />
<circle cx="18.2355" cy="3.09999" r="0.5" fill="rgb(0,0,0)" />
<circle cx="10.196" cy="17.6446" r="0.5" fill="rgb(0,0,0)" />
<circle cx="11.4183" cy="15.2147" r="0.5" fill="rgb(0,0,0)" />
<circle cx="11.7715" cy="17.9634" r="0.5" fill="rgb(0,0,0)" />
<circle cx="12.874" cy="18.3771" r="0.5" fill="rgb(0,0,0)" />
<circle cx="15.9742" cy="18.5152" r="0.5" fill="rgb(0,0,0)" />
<circle cx="14.1774" cy="18.2893" r="0.5" fill="rgb(0,0,0)" />
<circle cx="0.998138" cy="13.192" r="0.5" fill="rgb(0,0,0)" />
<circle cx="9.85779" cy="13.7821" r="0.5" fill="rgb(0,0,0)" />
<circle cx="0.49827" cy="6.32155" r="0.5" fill="rgb(0,0,0)" />
<circle cx="18.2989" cy="4.88224" r="0.5" fill="rgb(0,0,0)" />
<circle cx="0.657934" cy="4.07095" r="0.5" fill="rgb(0,0,0)" />
<circle cx="17.9337" cy="12.5743" r="0.5" fill="rgb(0,0,0)" />
<circle cx="0.757205" cy="9.78936" r="0.5" fill="rgb(0,0,0)" />
<circle cx="17.9772" cy="10.166" r="0.5" fill="rgb(0,0,0)" />
<circle cx="18.1284" cy="8.27209" r="0.5" fill="rgb(0,0,0)" />
<circle cx="6.18158" cy="18.2911" r="0.5" fill="rgb(0,0,0)" />
<circle cx="18.1486" cy="15.9507" r="0.5" fill="rgb(0,0,0)" />
<circle cx="4.31304" cy="5.55859" r="0.5" fill="rgb(0,0,0)" />
<circle cx="5.28276" cy="16.2712" r="0.5" fill="rgb(0,0,0)" />
<circle cx="0.640718" cy="1.15272" r="0.5" fill="rgb(0,0,0)" />
<circle cx="12.1312" cy="2.08871" r="0.5" fill="rgb(0,0,0)" />
<circle cx="2.76694" cy="0.676791" r="0.5" fill="rgb(0,0,0)" />
<circle cx="7.01637" cy="1.68521" r="0.5" fill="rgb(0,0,0)" />
<circle cx="2.11077" cy="3.46813" r="0.5" fill="rgb(0,0,0)" />
<circle cx="16.2113" cy="11.7632" r="0.5" fill="rgb(0,0,0)" />
<circle cx="3.02011" cy="18.3763" r="0.5" fill="rgb(0,0,0)" />
<circle cx="5.16758" cy="1.99159" r="0.5" fill="rgb(0,0,0)" />
<circle cx="12.5033" cy="6.36897" r="0.5" fill="rgb(0,0,0)" />
<circle cx="0.582802" cy="18.1585" r="0.5" fill="rgb(0,0,0)" />
<circle cx="18.1548" cy="18.5125" r="0.5" fill="rgb(0,0,0)" />
<circle cx="2.58093" cy="8.04115" r="0.5" fill="rgb(0,0,0)" />
<circle cx="18.3825" cy="17.3083" r="0.5" fill="rgb(0,0,0)" />
<circle cx="8.66905" cy="10.7078" r="0.5" fill="rgb(0,0,0)" />
<circle cx="7.63931" cy="18.3166" r="0.5" fill="rgb(0,0,0)" />
<circle cx="8.06191" cy="0.538771" r="0.5" fill="rgb(0,0,0)" />
<circle cx="0.747319" cy="15.7504" r="0.5" fill="rgb(0,0,0)" />
<circle cx="5.2211" cy="0.537656" r="0.5" fill="rgb(0,0,0)" />
</svg>
