<?xml version="1.0" ?>
<!DOCTYPE svg PUBLIC "-//W3C//DTD SVG 1.1//EN" "http://www.w3.org/Graphics/SVG/1.1/DTD/svg11.dtd">
<svg width="20" height="20" version="1.1" xmlns="http://www.w3.org/2000/svg">
<circle cx="13.579" cy="0.318215" r="0.5" fill="rgb(0,0,0)" />
<circle cx="5.75358" cy="0.369846" r="0.5" fill="rgb(0,0,0)" />
<circle cx="14.7914" cy="0.355946" r="0.5" fill="rgb(0,0,0)" />
<circle cx="12.5458" cy="0.363346" r="0.5" fill="rgb(0,0,0)" />
<circle cx="4.34132" cy="0.482614" r="0.5" fill="rgb(0,0,0)" />
<circle cx="11.9942" cy="0.791508" r="0.5" fill="rgb(0,0,0)" />
<circle cx="7.76677" cy="0.871977" r="0.5" fill="rgb(0,0,0)" />
<circle cx="11.2285" cy="0.663959" r="0.5" fill="rgb(0,0,0)" />
<circle cx="13.4855" cy="1.64162" r="0.5" fill="rgb(0,0,0)" />
<circle cx="5.52242" cy="1.28667" r="0.5" fill="rgb(0,0,0)" />
<circle cx="6.78063" cy="1.22053" r="0.5" fill="rgb(0,0,0)" />
<circle cx="14.682" cy="1.34482" r="0.5" fill="rgb(0,0,0)" />
<circle cx="10.4119" cy="1.44191" r="0.5" fill="rgb(0,0,0)" />
<circle cx="4.54884" cy="1.56755" r="0.5" fill="rgb(0,0,0)" />
<circle cx="11.9815" cy="1.70282" r="0.5" fill="rgb(0,0,0)" />
<circle cx="6.36193" cy="1.83961" r="0.5" fill="rgb(0,0,0)" />
<circle cx="9.18509" cy="1.70091" r="0.5" fill="rgb(0,0,0)" />
<circle cx="7.84119" cy="1.74694" r="0.5" fill="rgb(0,0,0)" />
<circle cx="17.2277" cy="1.74252" r="0.5" fill="rgb(0,0,0)" />
<circle cx="14.2697" cy="2.20786" r="0.5" fill="rgb(0,0,0)" />
<circle cx="5.71697" cy="2.35529" r="0.5" fill="rgb(0,0,0)" />
<circle cx="16.6739" cy="2.28423" r="0.5" fill="rgb(0,0,0)" />
<circle cx="1.82015" cy="1.95828" r="0.5" fill="rgb(0,0,0)" />
<circle cx="12.5584" cy="2.30397" r="0.5" fill="rgb(0,0,0)" />
<circle cx="9.62712" cy="2.57035" r="0.5" fill="rgb(0,0,0)" />
<circle cx="13.0462" cy="2.81046" r="0.5" fill="rgb(0,0,0)" />
<circle cx="3.19423" cy="1.56304" r="0.5" fill="rgb(0,0,0)" />
<circle cx="15.8897" cy="2.27873" r="0.5" fill="rgb(0,0,0)" />
<circle cx="8.64522" cy="2.81886" r="0.5" fill="rgb(0,0,0)" />
<circle cx="7.65893" cy="2.72221" r="0.5" fill="rgb(0,0,0)" />
<circle cx="11.6051" cy="2.74082" r="0.5" fill="rgb(0,0,0)" />
<circle cx="2.24156" cy="3.03183" r="0.5" fill="rgb(0,0,0)" />
<circle cx="9.61501" cy="3.52698" r="0.5" fill="rgb(0,0,0)" />
<circle cx="6.0265" cy="3.38552" r="0.5" fill="rgb(0,0,0)" />
<circle cx="13.7012" cy="3.45814" r="0.5" fill="rgb(0,0,0)" />
<circle cx="12.6285" cy="3.58429" r="0.5" fill="rgb(0,0,0)" />
<circle cx="2.77925" cy="4.02322" r="0.5" fill="rgb(0,0,0)" />
<circle cx="10.6113" cy="3.91761" r="0.5" fill="rgb(0,0,0)" />
<circle cx="14.4578" cy="4.22229" r="0.5" fill="rgb(0,0,0)" />
<circle cx="6.58577" cy="4.26953" r="0.5" fill="rgb(0,0,0)" />
<circle cx="3.80283" cy="4.55161" r="0.5" fill="rgb(0,0,0)" />
<circle cx="17.5925" cy="4.33969" r="0.5" fill="rgb(0,0,0)" />
<circle cx="15.9301" cy="4.55726" r="0.5" fill="rgb(0,0,0)" />
<circle cx="11.7152" cy="4.26072" r="0.5" fill="rgb(0,0,0)" />
<circle cx="5.4887" cy="4.60666" r="0.5" fill="rgb(0,0,0)" />
<circle cx="6.01836" cy="5.12021" r="0.5" fill="rgb(0,0,0)" />
<circle cx="4.65584" cy="5.38644" r="0.5" fill="rgb(0,0,0)" />
<circle cx="16.7667" cy="5.446" r="0.5" fill="rgb(0,0,0)" />
<circle cx="15.2907" cy="2.60326" r="0.5" fill="rgb(0,0,0)" />
<circle cx="13.9401" cy="5.14821" r="0.5" fill="rgb(0,0,0)" />
<circle cx="6.66585" cy="5.57543" r="0.5" fill="rgb(0,0,0)" />
<circle cx="10.2842" cy="5.28108" r="0.5" fill="rgb(0,0,0)" />
<circle cx="8.8697" cy="5.82468" r="0.5" fill="rgb(0,0,0)" />
<circle cx="3.17165" cy="5.55501" r="0.5" fill="rgb(0,0,0)" />
<circle cx="1.23647" cy="5.85275" r="0.5" fill="rgb(0,0,0)" />
<circle cx="7.52308" cy="6.04293" r="0.5" fill="rgb(0,0,0)" />
<circle cx="12.642" cy="5.67597" r="0.5" fill="rgb(0,0,0)" />
<circle cx="6.75035" cy="2.83335" r="0.5" fill="rgb(0,0,0)" />
<circle cx="2.07007" cy="6.25979" r="0.5" fill="rgb(0,0,0)" />
<circle cx="2.26573" cy="4.8553" r="0.5" fill="rgb(0,0,0)" />
<circle cx="4.32063" cy="6.31765" r="0.5" fill="rgb(0,0,0)" />
<circle cx="17.0137" cy="6.44154" r="0.5" fill="rgb(0,0,0)" />
<circle cx="6.61879" cy="6.80327" r="0.5" fill="rgb(0,0,0)" />
<circle cx="9.67054" cy="6.52584" r="0.5" fill="rgb(0,0,0)" />
<circle cx="8.60805" cy="6.87658" r="0.5" fill="rgb(0,0,0)" />
<circle cx="3.60865" cy="3.56457" r="0.5" fill="rgb(0,0,0)" />
<circle cx="18.5998" cy="6.44539" r="0.5" fill="rgb(0,0,0)" />
<circle cx="11.179" cy="5.76757" r="0.5" fill="rgb(0,0,0)" />
<circle cx="14.3216" cy="6.8841" r="0.5" fill="rgb(0,0,0)" />
<circle cx="7.68157" cy="7.16492" r="0.5" fill="rgb(0,0,0)" />
<circle cx="18.1079" cy="7.10376" r="0.5" fill="rgb(0,0,0)" />
<circle cx="2.91551" cy="6.97472" r="0.5" fill="rgb(0,0,0)" />
<circle cx="16.7227" cy="4.44853" r="0.5" fill="rgb(0,0,0)" />
<circle cx="10.2498" cy="7.24599" r="0.5" fill="rgb(0,0,0)" />
<circle cx="15.6634" cy="7.1575" r="0.5" fill="rgb(0,0,0)" />
<circle cx="6.58559" cy="7.65426" r="0.5" fill="rgb(0,0,0)" />
<circle cx="5.27914" cy="7.48522" r="0.5" fill="rgb(0,0,0)" />
<circle cx="4.27688" cy="7.37709" r="0.5" fill="rgb(0,0,0)" />
<circle cx="11.322" cy="7.26863" r="0.5" fill="rgb(0,0,0)" />
<circle cx="1.07098" cy="7.92438" r="0.5" fill="rgb(0,0,0)" />
<circle cx="4.12987" cy="2.45109" r="0.5" fill="rgb(0,0,0)" />
<circle cx="7.32214" cy="8.12271" r="0.5" fill="rgb(0,0,0)" />
<circle cx="5.01275" cy="2.77687" r="0.5" fill="rgb(0,0,0)" />
<circle cx="8.50508" cy="8.0511" r="0.5" fill="rgb(0,0,0)" />
<circle cx="5.89507" cy="8.22721" r="0.5" fill="rgb(0,0,0)" />
<circle cx="13.5438" cy="7.89391" r="0.5" fill="rgb(0,0,0)" />
<circle cx="3.683" cy="8.12094" r="0.5" fill="rgb(0,0,0)" />
<circle cx="9.36982" cy="7.99146" r="0.5" fill="rgb(0,0,0)" />
<circle cx="7.4331" cy="3.85165" r="0.5" fill="rgb(0,0,0)" />
<circle cx="1.93691" cy="8.34384" r="0.5" fill="rgb(0,0,0)" />
<circle cx="2.83104" cy="8.41397" r="0.5" fill="rgb(0,0,0)" />
<circle cx="8.11515" cy="8.75606" r="0.5" fill="rgb(0,0,0)" />
<circle cx="14.3772" cy="5.86078" r="0.5" fill="rgb(0,0,0)" />
<circle cx="10.3165" cy="8.49609" r="0.5" fill="rgb(0,0,0)" />
<circle cx="7.27248" cy="9.01347" r="0.5" fill="rgb(0,0,0)" />
<circle cx="15.3414" cy="8.9517" r="0.5" fill="rgb(0,0,0)" />
<circle cx="12.1452" cy="8.35384" r="0.5" fill="rgb(0,0,0)" />
<circle cx="8.68867" cy="9.22972" r="0.5" fill="rgb(0,0,0)" />
<circle cx="6.11055" cy="9.11502" r="0.5" fill="rgb(0,0,0)" />
<circle cx="15.7143" cy="6.0182" r="0.5" fill="rgb(0,0,0)" />
<circle cx="4.0413" cy="9.19299" r="0.5" fill="rgb(0,0,0)" />
<circle cx="1.49501" cy="3.61138" r="0.5" fill="rgb(0,0,0)" />
<circle cx="1.40643" cy="9.23888" r="0.5" fill="rgb(0,0,0)" />
<circle cx="9.15255" cy="4.9546" r="0.5" fill="rgb(0,0,0)" />
<circle cx="13.2882" cy="9.13344" r="0.5" fill="rgb(0,0,0)" />
<circle cx="3.44923" cy="9.47298" r="0.5" fill="rgb(0,0,0)" />
<circle cx="17.0766" cy="9.17459" r="0.5" fill="rgb(0,0,0)" />
<circle cx="13.2747" cy="1.07855" r="0.5" fill="rgb(0,0,0)" />
<circle cx="7.25587" cy="9.81754" r="0.5" fill="rgb(0,0,0)" />
<circle cx="1.58221" cy="7.18106" r="0.5" fill="rgb(0,0,0)" />
<circle cx="11.2643" cy="9.27309" r="0.5" fill="rgb(0,0,0)" />
<circle cx="9.16295" cy="9.90188" r="0.5" fill="rgb(0,0,0)" />
<circle cx="8.10838" cy="9.91764" r="0.5" fill="rgb(0,0,0)" />
<circle cx="9.89019" cy="9.41669" r="0.5" fill="rgb(0,0,0)" />
<circle cx="4.46673" cy="10.1505" r="0.5" fill="rgb(0,0,0)" />
<circle cx="1.79898" cy="10.2216" r="0.5" fill="rgb(0,0,0)" />
<circle cx="3.30787" cy="10.5256" r="0.5" fill="rgb(0,0,0)" />
<circle cx="5.49755" cy="10.3224" r="0.5" fill="rgb(0,0,0)" />
<circle cx="6.88112" cy="10.4235" r="0.5" fill="rgb(0,0,0)" />
<circle cx="16.1967" cy="8.31435" r="0.5" fill="rgb(0,0,0)" />
<circle cx="7.45778" cy="10.8548" r="0.5" fill="rgb(0,0,0)" />
<circle cx="13.3488" cy="10.3146" r="0.5" fill="rgb(0,0,0)" />
<circle cx="8.53249" cy="10.8193" r="0.5" fill="rgb(0,0,0)" />
<circle cx="12.6461" cy="7.05571" r="0.5" fill="rgb(0,0,0)" />
<circle cx="12.08" cy="10.3241" r="0.5" fill="rgb(0,0,0)" />
<circle cx="9.60089" cy="10.7852" r="0.5" fill="rgb(0,0,0)" />
<circle cx="17.1554" cy="10.6027" r="0.5" fill="rgb(0,0,0)" />
<circle cx="4.69595" cy="11.1525" r="0.5" fill="rgb(0,0,0)" />
<circle cx="3.72509" cy="11.4592" r="0.5" fill="rgb(0,0,0)" />
<circle cx="7.87028" cy="4.93824" r="0.5" fill="rgb(0,0,0)" />
<circle cx="10.8699" cy="10.9523" r="0.5" fill="rgb(0,0,0)" />
<circle cx="6.00544" cy="11.513" r="0.5" fill="rgb(0,0,0)" />
<circle cx="7.20221" cy="11.7858" r="0.5" fill="rgb(0,0,0)" />
<circle cx="2.26647" cy="11.5334" r="0.5" fill="rgb(0,0,0)" />
<circle cx="9.15556" cy="0.565839" r="0.5" fill="rgb(0,0,0)" />
<circle cx="12.4587" cy="11.7392" r="0.5" fill="rgb(0,0,0)" />
<circle cx="15.0041" cy="12.4701" r="0.5" fill="rgb(0,0,0)" />
<circle cx="13.5102" cy="2.37352" r="0.5" fill="rgb(0,0,0)" />
<circle cx="0.834844" cy="11.2886" r="0.5" fill="rgb(0,0,0)" />
<circle cx="4.99069" cy="12.4181" r="0.5" fill="rgb(0,0,0)" />
<circle cx="6.71118" cy="12.5833" r="0.5" fill="rgb(0,0,0)" />
<circle cx="3.31267" cy="12.4211" r="0.5" fill="rgb(0,0,0)" />
<circle cx="13.433" cy="12.6506" r="0.5" fill="rgb(0,0,0)" />
<circle cx="4.90214" cy="8.95432" r="0.5" fill="rgb(0,0,0)" />
<circle cx="15.141" cy="13.5319" r="0.5" fill="rgb(0,0,0)" />
<circle cx="3.82419" cy="13.454" r="0.5" fill="rgb(0,0,0)" />
<circle cx="17.0719" cy="7.70584" r="0.5" fill="rgb(0,0,0)" />
<circle cx="10.5168" cy="13.2979" r="0.5" fill="rgb(0,0,0)" />
<circle cx="2.25779" cy="13.2429" r="0.5" fill="rgb(0,0,0)" />
<circle cx="4.81913" cy="13.8391" r="0.5" fill="rgb(0,0,0)" />
<circle cx="6.30956" cy="13.3752" r="0.5" fill="rgb(0,0,0)" />
<circle cx="7.92521" cy="13.6967" r="0.5" fill="rgb(0,0,0)" />
<circle cx="2.78703" cy="9.9048" r="0.5" fill="rgb(0,0,0)" />
<circle cx="18.5072" cy="4.53031" r="0.5" fill="rgb(0,0,0)" />
<circle cx="8.29166" cy="12.6847" r="0.5" fill="rgb(0,0,0)" />
<circle cx="18.3832" cy="3.35407" r="0.5" fill="rgb(0,0,0)" />
<circle cx="15.454" cy="3.80046" r="0.5" fill="rgb(0,0,0)" />
<circle cx="5.84961" cy="14.2021" r="0.5" fill="rgb(0,0,0)" />
<circle cx="14.3776" cy="14.3089" r="0.5" fill="rgb(0,0,0)" />
<circle cx="17.1049" cy="14.0654" r="0.5" fill="rgb(0,0,0)" />
<circle cx="12.5268" cy="14.3724" r="0.5" fill="rgb(0,0,0)" />
<circle cx="5.31042" cy="3.67564" r="0.5" fill="rgb(0,0,0)" />
<circle cx="3.07242" cy="14.4967" r="0.5" fill="rgb(0,0,0)" />
<circle cx="4.96155" cy="14.9222" r="0.5" fill="rgb(0,0,0)" />
<circle cx="14.0238" cy="11.0699" r="0.5" fill="rgb(0,0,0)" />
<circle cx="10.7297" cy="14.3512" r="0.5" fill="rgb(0,0,0)" />
<circle cx="14.6861" cy="8.23537" r="0.5" fill="rgb(0,0,0)" />
<circle cx="13.4878" cy="15.0498" r="0.5" fill="rgb(0,0,0)" />
<circle cx="4.003" cy="14.8738" r="0.5" fill="rgb(0,0,0)" />
<circle cx="9.15324" cy="14.4418" r="0.5" fill="rgb(0,0,0)" />
<circle cx="18.002" cy="14.7939" r="0.5" fill="rgb(0,0,0)" />
<circle cx="16.0142" cy="0.724504" r="0.5" fill="rgb(0,0,0)" />
<circle cx="6.60938" cy="15.0078" r="0.5" fill="rgb(0,0,0)" />
<circle cx="9.79102" cy="4.40716" r="0.5" fill="rgb(0,0,0)" />
<circle cx="7.7733" cy="14.9874" r="0.5" fill="rgb(0,0,0)" />
<circle cx="15.0652" cy="15.3275" r="0.5" fill="rgb(0,0,0)" />
<circle cx="15.7083" cy="10.647" r="0.5" fill="rgb(0,0,0)" />
<circle cx="5.66226" cy="15.5287" r="0.5" fill="rgb(0,0,0)" />
<circle cx="15.9618" cy="9.63337" r="0.5" fill="rgb(0,0,0)" />
<circle cx="2.21876" cy="15.3676" r="0.5" fill="rgb(0,0,0)" />
<circle cx="4.71379" cy="15.8442" r="0.5" fill="rgb(0,0,0)" />
<circle cx="14.2541" cy="15.7424" r="0.5" fill="rgb(0,0,0)" />
<circle cx="3.25627" cy="15.804" r="0.5" fill="rgb(0,0,0)" />
<circle cx="16.3258" cy="15.3816" r="0.5" fill="rgb(0,0,0)" />
<circle cx="11.9728" cy="15.6726" r="0.5" fill="rgb(0,0,0)" />
<circle cx="4.75333" cy="4.40227" r="0.5" fill="rgb(0,0,0)" />
<circle cx="1.29968" cy="16.1306" r="0.5" fill="rgb(0,0,0)" />
<circle cx="7.40599" cy="16.0951" r="0.5" fill="rgb(0,0,0)" />
<circle cx="17.2679" cy="16.2052" r="0.5" fill="rgb(0,0,0)" />
<circle cx="5.54198" cy="16.5386" r="0.5" fill="rgb(0,0,0)" />
<circle cx="8.86475" cy="16.1576" r="0.5" fill="rgb(0,0,0)" />
<circle cx="1.26239" cy="4.77281" r="0.5" fill="rgb(0,0,0)" />
<circle cx="15.5691" cy="14.476" r="0.5" fill="rgb(0,0,0)" />
<circle cx="3.96968" cy="16.1728" r="0.5" fill="rgb(0,0,0)" />
<circle cx="6.54226" cy="16.4715" r="0.5" fill="rgb(0,0,0)" />
<circle cx="12.6153" cy="16.5393" r="0.5" fill="rgb(0,0,0)" />
<circle cx="13.249" cy="15.8529" r="0.5" fill="rgb(0,0,0)" />
<circle cx="10.0845" cy="15.6846" r="0.5" fill="rgb(0,0,0)" />
<circle cx="6.2713" cy="10.187" r="0.5" fill="rgb(0,0,0)" />
<circle cx="10.9444" cy="16.6049" r="0.5" fill="rgb(0,0,0)" />
<circle cx="1.27961" cy="17.2615" r="0.5" fill="rgb(0,0,0)" />
<circle cx="15.1381" cy="16.4754" r="0.5" fill="rgb(0,0,0)" />
<circle cx="14.6035" cy="9.7724" r="0.5" fill="rgb(0,0,0)" />
<circle cx="2.97632" cy="16.7185" r="0.5" fill="rgb(0,0,0)" />
<circle cx="4.46683" cy="16.982" r="0.5" fill="rgb(0,0,0)" />
<circle cx="16.7641" cy="3.40082" r="0.5" fill="rgb(0,0,0)" />
<circle cx="15.8897" cy="17.0299" r="0.5" fill="rgb(0,0,0)" />
<circle cx="16.8353" cy="17.3009" r="0.5" fill="rgb(0,0,0)" />
<circle cx="2.43787" cy="9.27712" r="0.5" fill="rgb(0,0,0)" />
<circle cx="1.96987" cy="17.7468" r="0.5" fill="rgb(0,0,0)" />
<circle cx="7.74816" cy="17.1354" r="0.5" fill="rgb(0,0,0)" />
<circle cx="1.2144" cy="17.8887" r="0.5" fill="rgb(0,0,0)" />
<circle cx="17.8291" cy="17.4566" r="0.5" fill="rgb(0,0,0)" />
<circle cx="5.67495" cy="17.4152" r="0.5" fill="rgb(0,0,0)" />
<circle cx="9.24416" cy="12.1446" r="0.5" fill="rgb(0,0,0)" />
<circle cx="11.983" cy="17.4944" r="0.5" fill="rgb(0,0,0)" />
<circle cx="14.2621" cy="12.8867" r="0.5" fill="rgb(0,0,0)" />
<circle cx="1.47171" cy="14.2763" r="0.5" fill="rgb(0,0,0)" />
<circle cx="9.06663" cy="17.3418" r="0.5" fill="rgb(0,0,0)" />
<circle cx="17.9985" cy="2.60051" r="0.5" fill="rgb(0,0,0)" />
<circle cx="11.009" cy="17.7932" r="0.5" fill="rgb(0,0,0)" />
<circle cx="2.81031" cy="17.702" r="0.5" fill="rgb(0,0,0)" />
<circle cx="18.1227" cy="13.178" r="0.5" fill="rgb(0,0,0)" />
<circle cx="18.0658" cy="11.6078" r="0.5" fill="rgb(0,0,0)" />
<circle cx="14.4086" cy="17.9228" r="0.5" fill="rgb(0,0,0)" />
<circle cx="13.1947" cy="17.4521" r="0.5" fill="rgb(0,0,0)" />
<circle cx="15.4485" cy="17.9636" r="0.5" fill="rgb(0,0,0)" />
<circle cx="4.40758" cy="3.57517" r="0.5" fill="rgb(0,0,0)" />
<circle cx="6.763" cy="17.725" r="0.5" fill="rgb(0,0,0)" />
<circle cx="8.60587" cy="3.9314" r="0.5" fill="rgb(0,0,0)" />
<circle cx="8.23724" cy="18.0444" r="0.5" fill="rgb(0,0,0)" />
<circle cx="16.2276" cy="12.0214" r="0.5" fill="rgb(0,0,0)" />
<circle cx="11.5263" cy="14.8189" r="0.5" fill="rgb(0,0,0)" />
<circle cx="9.79486" cy="17.9746" r="0.5" fill="rgb(0,0,0)" />
<circle cx="4.53341" cy="18.1266" r="0.5" fill="rgb(0,0,0)" />
<circle cx="0.421155" cy="16.5959" r="0.5" fill="rgb(0,0,0)" />
<circle cx="18.4296" cy="1.68838" r="0.5" fill="rgb(0,0,0)" />
<circle cx="14.1548" cy="16.9691" r="0.5" fill="rgb(0,0,0)" />
<circle cx="18.4538" cy="0.487002" r="0.5" fill="rgb(0,0,0)" />
<circle cx="16.6448" cy="18.4112" r="0.5" fill="rgb(0,0,0)" />
<circle cx="10.3077" cy="0.299052" r="0.5" fill="rgb(0,0,0)" />
<circle cx="5.72333" cy="6.31516" r="0.5" fill="rgb(0,0,0)" />
<circle cx="0.504633" cy="14.94" r="0.5" fill="rgb(0,0,0)" />
<circle cx="0.676716" cy="12.8095" r="0.5" fill="rgb(0,0,0)" />
<circle cx="8.18834" cy="11.6235" r="0.5" fill="rgb(0,0,0)" />
<circle cx="0.444493" cy="10.0698" r="0.5" fill="rgb(0,0,0)" />
<circle cx="0.435197" cy="8.64487" r="0.5" fill="rgb(0,0,0)" />
<circle cx="15.2873" cy="5.115" r="0.5" fill="rgb(0,0,0)" />
<circle cx="0.462297" cy="3.78725" r="0.5" fill="rgb(0,0,0)" />
<circle cx="18.3206" cy="9.60558" r="0.5" fill="rgb(0,0,0)" />
<circle cx="18.1505" cy="5.59611" r="0.5" fill="rgb(0,0,0)" />
<circle cx="18.36" cy="8.14121" r="0.5" fill="rgb(0,0,0)" />
<circle cx="3.16126" cy="2.82197" r="0.5" fill="rgb(0,0,0)" />
<circle cx="14.8846" cy="11.4248" r="0.5" fill="rgb(0,0,0)" />
<circle cx="15.1043" cy="18.6621" r="0.5" fill="rgb(0,0,0)" />
<circle cx="13.6681" cy="18.4803" r="0.5" fill="rgb(0,0,0)" />
<circle cx="10.8405" cy="18.5998" r="0.5" fill="rgb(0,0,0)" />
<circle cx="12.3991" cy="18.4736" r="0.5" fill="rgb(0,0,0)" />
<circle cx="0.435112" cy="6.85353" r="0.5" fill="rgb(0,0,0)" />
<circle cx="13.4661" cy="13.9871" r="0.5" fill="rgb(0,0,0)" />
<circle cx="0.336922" cy="5.20542" r="0.5" fill="rgb(0,0,0)" />
<circle cx="3.44762" cy="18.4167" r="0.5" fill="rgb(0,0,0)" />
<circle cx="17.3423" cy="0.589203" r="0.5" fill="rgb(0,0,0)" />
<circle cx="13.1436" cy="4.55772" r="0.5" fill="rgb(0,0,0)" />
<circle cx="18.4611" cy="15.8222" r="0.5" fill="rgb(0,0,0)" />
<circle cx="8.09319" cy="18.6458" r="0.5" fill="rgb(0,0,0)" />
<circle cx="10.3542" cy="12.283" r="0.5" fill="rgb(0,0,0)" />
<circle cx="6.06129" cy="18.5178" r="0.5" fill="rgb(0,0,0)" />
<circle cx="6.83842" cy="0.300143" r="0.5" fill="rgb(0,0,0)" />
<circle cx="10.6394" cy="2.61625" r="0.5" fill="rgb(0,0,0)" />
<circle cx="14.5658" cy="3.06699" r="0.5" fill="rgb(0,0,0)" />
<circle cx="8.11763" cy="0.263664" r="0.5" fill="rgb(0,0,0)" />
<circle cx="2.51737" cy="0.538689" r="0.5" fill="rgb(0,0,0)" />
<circle cx="0.566295" cy="2.37432" r="0.5" fill="rgb(0,0,0)" />
<circle cx="0.763777" cy="0.736289" r="0.5" fill="rgb(0,0,0)" />
<circle cx="0.278948" cy="17.6546" r="0.5" fill="rgb(0,0,0)" />
<circle cx="0.370721" cy="18.4709" r="0.5" fill="rgb(0,0,0)" />
<circle cx="12.1698" cy="13.1199" r="0.5" fill="rgb(0,0,0)" />
<circle cx="2.09471" cy="18.5955" r="0.5" fill="rgb(0,0,0)" />
<circle cx="1.08505" cy="18.5812" r="0.5" fill="rgb(0,0,0)" />
<circle cx="16.3356" cy="13.3465" r="0.5" fill="rgb(0,0,0)" />
<circle cx="1.99883" cy="16.664" r="0.5" fill="rgb(0,0,0)" />
<circle cx="17.8261" cy="18.5988" r="0.5" fill="rgb(0,0,0)" />
<circle cx="18.5632" cy="18.3851" r="0.5" fill="rgb(0,0,0)" />
<circle cx="18.6098" cy="17.2738" r="0.5" fill="rgb(0,0,0)" />
</svg>
