<?xml version="1.0" ?>
<!DOCTYPE svg PUBLIC "-//W3C//DTD SVG 1.1//EN" "http://www.w3.org/Graphics/SVG/1.1/DTD/svg11.dtd">
<svg width="20" height="20" version="1.1" xmlns="http://www.w3.org/2000/svg">
<circle cx="14.3792" cy="0.820014" r="0.5" fill="rgb(0,0,0)" />
<circle cx="10.0243" cy="1.06551" r="0.5" fill="rgb(0,0,0)" />
<circle cx="7.10588" cy="1.19268" r="0.5" fill="rgb(0,0,0)" />
<circle cx="16.5744" cy="1.16804" r="0.5" fill="rgb(0,0,0)" />
<circle cx="15.7699" cy="2.7781" r="0.5" fill="rgb(0,0,0)" />
<circle cx="13.8054" cy="3.26918" r="0.5" fill="rgb(0,0,0)" />
<circle cx="11.8304" cy="4.37385" r="0.5" fill="rgb(0,0,0)" />
<circle cx="3.26636" cy="3.75715" r="0.5" fill="rgb(0,0,0)" />
<circle cx="9.19964" cy="3.68563" r="0.5" fill="rgb(0,0,0)" />
<circle cx="15.7156" cy="5.08048" r="0.5" fill="rgb(0,0,0)" />
<circle cx="13.6331" cy="6.41686" r="0.5" fill="rgb(0,0,0)" />
<circle cx="7.4772" cy="6.23224" r="0.5" fill="rgb(0,0,0)" />
<circle cx="3.95412" cy="6.78032" r="0.5" fill="rgb(0,0,0)" />
<circle cx="9.5724" cy="9.19662" r="0.5" fill="rgb(0,0,0)" />
<circle cx="13.022" cy="9.44581" r="0.5" fill="rgb(0,0,0)" />
<circle cx="3.30156" cy="10.3918" r="0.5" fill="rgb(0,0,0)" />
<circle cx="7.12957" cy="11.9745" r="0.5" fill="rgb(0,0,0)" />
<circle cx="10.2817" cy="12.1463" r="0.5" fill="rgb(0,0,0)" />
<circle cx="15.6988" cy="13.2187" r="0.5" fill="rgb(0,0,0)" />
<circle cx="4.26448" cy="13.8126" r="0.5" fill="rgb(0,0,0)" />
<circle cx="15.5931" cy="8.03055" r="0.5" fill="rgb(0,0,0)" />
<circle cx="10.7558" cy="14.7613" r="0.5" fill="rgb(0,0,0)" />
<circle cx="5.92203" cy="3.74047" r="0.5" fill="rgb(0,0,0)" />
<circle cx="13.5678" cy="15.0135" r="0.5" fill="rgb(0,0,0)" />
<circle cx="10.8009" cy="6.74283" r="0.5" fill="rgb(0,0,0)" />
<circle cx="16.0978" cy="15.7866" r="0.5" fill="rgb(0,0,0)" />
<circle cx="7.24457" cy="15.1989" r="0.5" fill="rgb(0,0,0)" />
<circle cx="12.1818" cy="1.54593" r="0.5" fill="rgb(0,0,0)" />
<circle cx="14.1651" cy="17.2406" r="0.5" fill="rgb(0,0,0)" />
<circle cx="12.702" cy="17.9411" r="0.5" fill="rgb(0,0,0)" />
<circle cx="10.8785" cy="17.4392" r="0.5" fill="rgb(0,0,0)" />
<circle cx="17.8744" cy="7.38186" r="0.5" fill="rgb(0,0,0)" />
<circle cx="17.8813" cy="4.22169" r="0.5" fill="rgb(0,0,0)" />
<circle cx="17.1051" cy="10.4333" r="0.5" fill="rgb(0,0,0)" />
<circle cx="18.1493" cy="1.26122" r="0.5" fill="rgb(0,0,0)" />
<circle cx="8.29936" cy="17.6154" r="0.5" fill="rgb(0,0,0)" />
<circle cx="17.9752" cy="13.2206" r="0.5" fill="rgb(0,0,0)" />
<circle cx="1.1178" cy="4.93481" r="0.5" fill="rgb(0,0,0)" />
<circle cx="1.14225" cy="1.48353" r="0.5" fill="rgb(0,0,0)" />
<circle cx="1.12584" cy="8.40939" r="0.5" fill="rgb(0,0,0)" />
<circle cx="1.24429" cy="12.8635" r="0.5" fill="rgb(0,0,0)" />
<circle cx="13.5408" cy="12.0421" r="0.5" fill="rgb(0,0,0)" />
<circle cx="4.61814" cy="17.4134" r="0.5" fill="rgb(0,0,0)" />
<circle cx="1.44846" cy="16.8766" r="0.5" fill="rgb(0,0,0)" />
<circle cx="15.6902" cy="18.0379" r="0.5" fill="rgb(0,0,0)" />
<circle cx="6.19153" cy="9.09477" r="0.5" fill="rgb(0,0,0)" />
<circle cx="17.8333" cy="18.0266" r="0.5" fill="rgb(0,0,0)" />
<circle cx="3.92037" cy="1.12607" r="0.5" fill="rgb(0,0,0)" />
<circle cx="18.0543" cy="15.9983" r="0.5" fill="rgb(0,0,0)" />
</svg>
