<?xml version="1.0" ?>
<!DOCTYPE svg PUBLIC "-//W3C//DTD SVG 1.1//EN" "http://www.w3.org/Graphics/SVG/1.1/DTD/svg11.dtd">
<svg width="20" height="20" version="1.1" xmlns="http://www.w3.org/2000/svg">
<circle cx="14.3792" cy="0.820526" r="0.5" fill="rgb(0,0,0)" />
<circle cx="16.5744" cy="1.16798" r="0.5" fill="rgb(0,0,0)" />
<circle cx="10.0244" cy="1.06553" r="0.5" fill="rgb(0,0,0)" />
<circle cx="7.10595" cy="1.19266" r="0.5" fill="rgb(0,0,0)" />
<circle cx="15.7687" cy="2.7778" r="0.5" fill="rgb(0,0,0)" />
<circle cx="9.19923" cy="3.6847" r="0.5" fill="rgb(0,0,0)" />
<circle cx="5.91941" cy="3.73964" r="0.5" fill="rgb(0,0,0)" />
<circle cx="12.1826" cy="1.54577" r="0.5" fill="rgb(0,0,0)" />
<circle cx="3.95742" cy="6.76079" r="0.5" fill="rgb(0,0,0)" />
<circle cx="15.595" cy="8.02546" r="0.5" fill="rgb(0,0,0)" />
<circle cx="6.17016" cy="8.97258" r="0.5" fill="rgb(0,0,0)" />
<circle cx="3.25847" cy="3.74672" r="0.5" fill="rgb(0,0,0)" />
<circle cx="15.7193" cy="5.08198" r="0.5" fill="rgb(0,0,0)" />
<circle cx="7.47868" cy="6.20052" r="0.5" fill="rgb(0,0,0)" />
<circle cx="13.0361" cy="9.407" r="0.5" fill="rgb(0,0,0)" />
<circle cx="3.31038" cy="10.3409" r="0.5" fill="rgb(0,0,0)" />
<circle cx="13.6501" cy="11.9857" r="0.5" fill="rgb(0,0,0)" />
<circle cx="17.1336" cy="10.4331" r="0.5" fill="rgb(0,0,0)" />
<circle cx="15.7244" cy="13.2315" r="0.5" fill="rgb(0,0,0)" />
<circle cx="11.0182" cy="14.6249" r="0.5" fill="rgb(0,0,0)" />
<circle cx="7.59103" cy="14.7027" r="0.5" fill="rgb(0,0,0)" />
<circle cx="14.1052" cy="17.2682" r="0.5" fill="rgb(0,0,0)" />
<circle cx="11.266" cy="17.2633" r="0.5" fill="rgb(0,0,0)" />
<circle cx="17.8727" cy="7.37813" r="0.5" fill="rgb(0,0,0)" />
<circle cx="11.8274" cy="4.36959" r="0.5" fill="rgb(0,0,0)" />
<circle cx="18.1493" cy="1.26112" r="0.5" fill="rgb(0,0,0)" />
<circle cx="9.0754" cy="17.3801" r="0.5" fill="rgb(0,0,0)" />
<circle cx="1.21267" cy="12.492" r="0.5" fill="rgb(0,0,0)" />
<circle cx="6.56995" cy="17.4319" r="0.5" fill="rgb(0,0,0)" />
<circle cx="2.00108" cy="15.2224" r="0.5" fill="rgb(0,0,0)" />
<circle cx="1.10853" cy="17.5496" r="0.5" fill="rgb(0,0,0)" />
<circle cx="9.57595" cy="9.11935" r="0.5" fill="rgb(0,0,0)" />
<circle cx="4.06821" cy="17.3761" r="0.5" fill="rgb(0,0,0)" />
<circle cx="15.6901" cy="18.0375" r="0.5" fill="rgb(0,0,0)" />
<circle cx="12.7463" cy="18.1429" r="0.5" fill="rgb(0,0,0)" />
<circle cx="17.9795" cy="13.2221" r="0.5" fill="rgb(0,0,0)" />
<circle cx="4.61294" cy="13.5578" r="0.5" fill="rgb(0,0,0)" />
<circle cx="1.13298" cy="8.33632" r="0.5" fill="rgb(0,0,0)" />
<circle cx="10.3549" cy="12.0113" r="0.5" fill="rgb(0,0,0)" />
<circle cx="1.11716" cy="4.924" r="0.5" fill="rgb(0,0,0)" />
<circle cx="13.8096" cy="3.27095" r="0.5" fill="rgb(0,0,0)" />
<circle cx="13.6351" cy="6.39778" r="0.5" fill="rgb(0,0,0)" />
<circle cx="1.13702" cy="1.47927" r="0.5" fill="rgb(0,0,0)" />
<circle cx="7.16621" cy="11.6768" r="0.5" fill="rgb(0,0,0)" />
<circle cx="17.8815" cy="4.22073" r="0.5" fill="rgb(0,0,0)" />
<circle cx="3.92038" cy="1.12586" r="0.5" fill="rgb(0,0,0)" />
<circle cx="10.8165" cy="6.7281" r="0.5" fill="rgb(0,0,0)" />
<circle cx="17.8338" cy="18.0265" r="0.5" fill="rgb(0,0,0)" />
<circle cx="13.6662" cy="15.0136" r="0.5" fill="rgb(0,0,0)" />
<circle cx="16.1225" cy="15.796" r="0.5" fill="rgb(0,0,0)" />
<circle cx="18.0453" cy="16.0025" r="0.5" fill="rgb(0,0,0)" />
</svg>
