<?xml version="1.0" ?>
<!DOCTYPE svg PUBLIC "-//W3C//DTD SVG 1.1//EN" "http://www.w3.org/Graphics/SVG/1.1/DTD/svg11.dtd">
<svg width="20" height="20" version="1.1" xmlns="http://www.w3.org/2000/svg">
<circle cx="5.47269" cy="2.50705" r="0.5" fill="rgb(0,0,0)" />
<circle cx="11.9615" cy="3.68311" r="0.5" fill="rgb(0,0,0)" />
<circle cx="11.5693" cy="7.91212" r="0.5" fill="rgb(0,0,0)" />
<circle cx="16.3719" cy="6.59409" r="0.5" fill="rgb(0,0,0)" />
<circle cx="13.5351" cy="10.8434" r="0.5" fill="rgb(0,0,0)" />
<circle cx="6.15024" cy="9.95112" r="0.5" fill="rgb(0,0,0)" />
<circle cx="17.2489" cy="10.5614" r="0.5" fill="rgb(0,0,0)" />
<circle cx="3.37845" cy="7.05843" r="0.5" fill="rgb(0,0,0)" />
<circle cx="1.99526" cy="11.2398" r="0.5" fill="rgb(0,0,0)" />
<circle cx="1.79922" cy="16.2803" r="0.5" fill="rgb(0,0,0)" />
<circle cx="5.51725" cy="16.2448" r="0.5" fill="rgb(0,0,0)" />
<circle cx="8.02013" cy="6.06933" r="0.5" fill="rgb(0,0,0)" />
<circle cx="8.29726" cy="12.4972" r="0.5" fill="rgb(0,0,0)" />
<circle cx="9.43293" cy="17.0688" r="0.5" fill="rgb(0,0,0)" />
<circle cx="17.1993" cy="17.3925" r="0.5" fill="rgb(0,0,0)" />
<circle cx="11.8207" cy="13.8398" r="0.5" fill="rgb(0,0,0)" />
<circle cx="13.6063" cy="17.0586" r="0.5" fill="rgb(0,0,0)" />
<circle cx="1.39507" cy="4.8677" r="0.5" fill="rgb(0,0,0)" />
<circle cx="16.6835" cy="14.1555" r="0.5" fill="rgb(0,0,0)" />
<circle cx="1.97552" cy="1.40115" r="0.5" fill="rgb(0,0,0)" />
<circle cx="17.5302" cy="2.39378" r="0.5" fill="rgb(0,0,0)" />
<circle cx="14.4353" cy="1.75031" r="0.5" fill="rgb(0,0,0)" />
<circle cx="9.1079" cy="1.56953" r="0.5" fill="rgb(0,0,0)" />
</svg>
