<?xml version="1.0" ?>
<!DOCTYPE svg PUBLIC "-//W3C//DTD SVG 1.1//EN" "http://www.w3.org/Graphics/SVG/1.1/DTD/svg11.dtd">
<svg width="20" height="20" version="1.1" xmlns="http://www.w3.org/2000/svg">
<circle cx="7.58992" cy="0.187645" r="0.5" fill="rgb(0,0,0)" />
<circle cx="10.3595" cy="0.298036" r="0.5" fill="rgb(0,0,0)" />
<circle cx="13.53" cy="0.31662" r="0.5" fill="rgb(0,0,0)" />
<circle cx="5.7423" cy="0.369383" r="0.5" fill="rgb(0,0,0)" />
<circle cx="4.38036" cy="0.479186" r="0.5" fill="rgb(0,0,0)" />
<circle cx="8.38379" cy="0.618591" r="0.5" fill="rgb(0,0,0)" />
<circle cx="14.9903" cy="0.763073" r="0.5" fill="rgb(0,0,0)" />
<circle cx="17.8894" cy="1.09928" r="0.5" fill="rgb(0,0,0)" />
<circle cx="11.2305" cy="0.660424" r="0.5" fill="rgb(0,0,0)" />
<circle cx="13.4537" cy="1.65498" r="0.5" fill="rgb(0,0,0)" />
<circle cx="14.6195" cy="1.43011" r="0.5" fill="rgb(0,0,0)" />
<circle cx="1.78095" cy="1.27929" r="0.5" fill="rgb(0,0,0)" />
<circle cx="10.4297" cy="1.454" r="0.5" fill="rgb(0,0,0)" />
<circle cx="4.57528" cy="1.56561" r="0.5" fill="rgb(0,0,0)" />
<circle cx="9.19149" cy="1.7182" r="0.5" fill="rgb(0,0,0)" />
<circle cx="3.25917" cy="1.59266" r="0.5" fill="rgb(0,0,0)" />
<circle cx="13.5074" cy="2.35791" r="0.5" fill="rgb(0,0,0)" />
<circle cx="14.2761" cy="2.22531" r="0.5" fill="rgb(0,0,0)" />
<circle cx="16.6747" cy="2.28906" r="0.5" fill="rgb(0,0,0)" />
<circle cx="12.5454" cy="2.30686" r="0.5" fill="rgb(0,0,0)" />
<circle cx="1.84494" cy="2.41305" r="0.5" fill="rgb(0,0,0)" />
<circle cx="12.5273" cy="0.369343" r="0.5" fill="rgb(0,0,0)" />
<circle cx="13.0699" cy="2.78833" r="0.5" fill="rgb(0,0,0)" />
<circle cx="7.66553" cy="2.67328" r="0.5" fill="rgb(0,0,0)" />
<circle cx="3.1737" cy="2.79207" r="0.5" fill="rgb(0,0,0)" />
<circle cx="15.2851" cy="2.59978" r="0.5" fill="rgb(0,0,0)" />
<circle cx="8.68187" cy="2.79613" r="0.5" fill="rgb(0,0,0)" />
<circle cx="10.6132" cy="2.613" r="0.5" fill="rgb(0,0,0)" />
<circle cx="12.0012" cy="0.791493" r="0.5" fill="rgb(0,0,0)" />
<circle cx="13.7134" cy="3.31098" r="0.5" fill="rgb(0,0,0)" />
<circle cx="4.40899" cy="3.58007" r="0.5" fill="rgb(0,0,0)" />
<circle cx="7.54104" cy="0.896894" r="0.5" fill="rgb(0,0,0)" />
<circle cx="5.29777" cy="3.65329" r="0.5" fill="rgb(0,0,0)" />
<circle cx="10.5117" cy="3.78318" r="0.5" fill="rgb(0,0,0)" />
<circle cx="15.4463" cy="3.75819" r="0.5" fill="rgb(0,0,0)" />
<circle cx="1.5361" cy="3.70038" r="0.5" fill="rgb(0,0,0)" />
<circle cx="8.32069" cy="3.74119" r="0.5" fill="rgb(0,0,0)" />
<circle cx="17.6487" cy="3.91171" r="0.5" fill="rgb(0,0,0)" />
<circle cx="13.7103" cy="4.15142" r="0.5" fill="rgb(0,0,0)" />
<circle cx="11.6322" cy="3.80109" r="0.5" fill="rgb(0,0,0)" />
<circle cx="14.5827" cy="4.1877" r="0.5" fill="rgb(0,0,0)" />
<circle cx="16.7328" cy="4.37466" r="0.5" fill="rgb(0,0,0)" />
<circle cx="6.80793" cy="4.59278" r="0.5" fill="rgb(0,0,0)" />
<circle cx="16.3308" cy="4.91334" r="0.5" fill="rgb(0,0,0)" />
<circle cx="4.15658" cy="2.47997" r="0.5" fill="rgb(0,0,0)" />
<circle cx="3.79643" cy="4.52424" r="0.5" fill="rgb(0,0,0)" />
<circle cx="1.26076" cy="4.79744" r="0.5" fill="rgb(0,0,0)" />
<circle cx="10.8053" cy="4.74395" r="0.5" fill="rgb(0,0,0)" />
<circle cx="15.0311" cy="4.88293" r="0.5" fill="rgb(0,0,0)" />
<circle cx="5.89667" cy="5.1131" r="0.5" fill="rgb(0,0,0)" />
<circle cx="9.10721" cy="4.98404" r="0.5" fill="rgb(0,0,0)" />
<circle cx="12.6729" cy="3.57758" r="0.5" fill="rgb(0,0,0)" />
<circle cx="12.1119" cy="4.77881" r="0.5" fill="rgb(0,0,0)" />
<circle cx="17.499" cy="4.97162" r="0.5" fill="rgb(0,0,0)" />
<circle cx="7.84302" cy="1.74027" r="0.5" fill="rgb(0,0,0)" />
<circle cx="7.9715" cy="4.90023" r="0.5" fill="rgb(0,0,0)" />
<circle cx="13.9957" cy="5.1516" r="0.5" fill="rgb(0,0,0)" />
<circle cx="6.83981" cy="5.52217" r="0.5" fill="rgb(0,0,0)" />
<circle cx="8.74222" cy="5.83201" r="0.5" fill="rgb(0,0,0)" />
<circle cx="3.09542" cy="5.42462" r="0.5" fill="rgb(0,0,0)" />
<circle cx="5.50583" cy="4.54049" r="0.5" fill="rgb(0,0,0)" />
<circle cx="0.518874" cy="3.52853" r="0.5" fill="rgb(0,0,0)" />
<circle cx="14.4635" cy="5.86555" r="0.5" fill="rgb(0,0,0)" />
<circle cx="10.7877" cy="5.80941" r="0.5" fill="rgb(0,0,0)" />
<circle cx="7.55186" cy="6.08674" r="0.5" fill="rgb(0,0,0)" />
<circle cx="18.3148" cy="5.65177" r="0.5" fill="rgb(0,0,0)" />
<circle cx="2.07056" cy="6.25829" r="0.5" fill="rgb(0,0,0)" />
<circle cx="3.69784" cy="6.16812" r="0.5" fill="rgb(0,0,0)" />
<circle cx="10.4961" cy="6.58586" r="0.5" fill="rgb(0,0,0)" />
<circle cx="9.03944" cy="4.08016" r="0.5" fill="rgb(0,0,0)" />
<circle cx="9.43626" cy="6.68886" r="0.5" fill="rgb(0,0,0)" />
<circle cx="8.55366" cy="6.91634" r="0.5" fill="rgb(0,0,0)" />
<circle cx="7.66691" cy="7.1416" r="0.5" fill="rgb(0,0,0)" />
<circle cx="14.6372" cy="6.93077" r="0.5" fill="rgb(0,0,0)" />
<circle cx="1.57911" cy="7.17784" r="0.5" fill="rgb(0,0,0)" />
<circle cx="17.0541" cy="5.78877" r="0.5" fill="rgb(0,0,0)" />
<circle cx="13.6325" cy="6.97047" r="0.5" fill="rgb(0,0,0)" />
<circle cx="18.0777" cy="7.11364" r="0.5" fill="rgb(0,0,0)" />
<circle cx="2.33466" cy="3.11783" r="0.5" fill="rgb(0,0,0)" />
<circle cx="4.50796" cy="5.24594" r="0.5" fill="rgb(0,0,0)" />
<circle cx="6.59121" cy="7.60021" r="0.5" fill="rgb(0,0,0)" />
<circle cx="5.39629" cy="7.50005" r="0.5" fill="rgb(0,0,0)" />
<circle cx="4.9028" cy="5.88552" r="0.5" fill="rgb(0,0,0)" />
<circle cx="15.7234" cy="7.17403" r="0.5" fill="rgb(0,0,0)" />
<circle cx="16.3148" cy="5.58375" r="0.5" fill="rgb(0,0,0)" />
<circle cx="10.1487" cy="7.49049" r="0.5" fill="rgb(0,0,0)" />
<circle cx="12.97" cy="5.92118" r="0.5" fill="rgb(0,0,0)" />
<circle cx="11.2333" cy="7.35783" r="0.5" fill="rgb(0,0,0)" />
<circle cx="15.8549" cy="4.42112" r="0.5" fill="rgb(0,0,0)" />
<circle cx="7.91473" cy="8.09225" r="0.5" fill="rgb(0,0,0)" />
<circle cx="6.03992" cy="8.17586" r="0.5" fill="rgb(0,0,0)" />
<circle cx="3.60027" cy="3.54802" r="0.5" fill="rgb(0,0,0)" />
<circle cx="7.12559" cy="8.13916" r="0.5" fill="rgb(0,0,0)" />
<circle cx="2.80421" cy="6.99456" r="0.5" fill="rgb(0,0,0)" />
<circle cx="17.0824" cy="7.76467" r="0.5" fill="rgb(0,0,0)" />
<circle cx="8.71074" cy="8.08253" r="0.5" fill="rgb(0,0,0)" />
<circle cx="5.8483" cy="5.86786" r="0.5" fill="rgb(0,0,0)" />
<circle cx="9.37253" cy="8.03256" r="0.5" fill="rgb(0,0,0)" />
<circle cx="1.94199" cy="8.34101" r="0.5" fill="rgb(0,0,0)" />
<circle cx="16.187" cy="8.30005" r="0.5" fill="rgb(0,0,0)" />
<circle cx="4.09167" cy="8.63506" r="0.5" fill="rgb(0,0,0)" />
<circle cx="10.2389" cy="8.53648" r="0.5" fill="rgb(0,0,0)" />
<circle cx="5.11284" cy="8.55009" r="0.5" fill="rgb(0,0,0)" />
<circle cx="15.3299" cy="8.93747" r="0.5" fill="rgb(0,0,0)" />
<circle cx="8.70123" cy="9.26" r="0.5" fill="rgb(0,0,0)" />
<circle cx="6.1227" cy="6.49208" r="0.5" fill="rgb(0,0,0)" />
<circle cx="2.46754" cy="9.26688" r="0.5" fill="rgb(0,0,0)" />
<circle cx="13.9105" cy="9.07509" r="0.5" fill="rgb(0,0,0)" />
<circle cx="12.52" cy="8.97759" r="0.5" fill="rgb(0,0,0)" />
<circle cx="3.43188" cy="9.38294" r="0.5" fill="rgb(0,0,0)" />
<circle cx="1.41295" cy="9.23649" r="0.5" fill="rgb(0,0,0)" />
<circle cx="4.06286" cy="9.61961" r="0.5" fill="rgb(0,0,0)" />
<circle cx="4.98027" cy="9.51362" r="0.5" fill="rgb(0,0,0)" />
<circle cx="6.35851" cy="1.84372" r="0.5" fill="rgb(0,0,0)" />
<circle cx="7.27599" cy="9.80842" r="0.5" fill="rgb(0,0,0)" />
<circle cx="9.82989" cy="9.37834" r="0.5" fill="rgb(0,0,0)" />
<circle cx="9.14775" cy="9.88771" r="0.5" fill="rgb(0,0,0)" />
<circle cx="8.11101" cy="9.93017" r="0.5" fill="rgb(0,0,0)" />
<circle cx="2.79799" cy="9.91969" r="0.5" fill="rgb(0,0,0)" />
<circle cx="5.6047" cy="10.0103" r="0.5" fill="rgb(0,0,0)" />
<circle cx="14.6207" cy="0.206488" r="0.5" fill="rgb(0,0,0)" />
<circle cx="14.6918" cy="9.8219" r="0.5" fill="rgb(0,0,0)" />
<circle cx="4.5107" cy="10.2661" r="0.5" fill="rgb(0,0,0)" />
<circle cx="12.4166" cy="7.11276" r="0.5" fill="rgb(0,0,0)" />
<circle cx="1.81379" cy="10.1235" r="0.5" fill="rgb(0,0,0)" />
<circle cx="3.40722" cy="10.4592" r="0.5" fill="rgb(0,0,0)" />
<circle cx="6.86292" cy="10.4873" r="0.5" fill="rgb(0,0,0)" />
<circle cx="9.89361" cy="5.56829" r="0.5" fill="rgb(0,0,0)" />
<circle cx="1.30281" cy="5.83059" r="0.5" fill="rgb(0,0,0)" />
<circle cx="7.45548" cy="10.8431" r="0.5" fill="rgb(0,0,0)" />
<circle cx="8.52699" cy="10.8071" r="0.5" fill="rgb(0,0,0)" />
<circle cx="15.7498" cy="10.6344" r="0.5" fill="rgb(0,0,0)" />
<circle cx="11.9461" cy="10.4194" r="0.5" fill="rgb(0,0,0)" />
<circle cx="14.1773" cy="10.9542" r="0.5" fill="rgb(0,0,0)" />
<circle cx="10.7703" cy="10.6779" r="0.5" fill="rgb(0,0,0)" />
<circle cx="8.12508" cy="11.5157" r="0.5" fill="rgb(0,0,0)" />
<circle cx="1.07995" cy="7.92806" r="0.5" fill="rgb(0,0,0)" />
<circle cx="7.32822" cy="9.00788" r="0.5" fill="rgb(0,0,0)" />
<circle cx="6.23134" cy="9.05829" r="0.5" fill="rgb(0,0,0)" />
<circle cx="15.9683" cy="9.62208" r="0.5" fill="rgb(0,0,0)" />
<circle cx="2.60366" cy="11.0396" r="0.5" fill="rgb(0,0,0)" />
<circle cx="5.53086" cy="11.1399" r="0.5" fill="rgb(0,0,0)" />
<circle cx="17.9578" cy="2.60808" r="0.5" fill="rgb(0,0,0)" />
<circle cx="14.9791" cy="11.3534" r="0.5" fill="rgb(0,0,0)" />
<circle cx="3.72037" cy="11.4945" r="0.5" fill="rgb(0,0,0)" />
<circle cx="9.42768" cy="11.6298" r="0.5" fill="rgb(0,0,0)" />
<circle cx="6.28928" cy="11.6449" r="0.5" fill="rgb(0,0,0)" />
<circle cx="13.6072" cy="11.9849" r="0.5" fill="rgb(0,0,0)" />
<circle cx="12.4211" cy="11.6123" r="0.5" fill="rgb(0,0,0)" />
<circle cx="17.0084" cy="6.63351" r="0.5" fill="rgb(0,0,0)" />
<circle cx="2.82281" cy="8.44489" r="0.5" fill="rgb(0,0,0)" />
<circle cx="8.31942" cy="12.1835" r="0.5" fill="rgb(0,0,0)" />
<circle cx="2.13238" cy="11.8428" r="0.5" fill="rgb(0,0,0)" />
<circle cx="14.7616" cy="8.17752" r="0.5" fill="rgb(0,0,0)" />
<circle cx="10.805" cy="12.0408" r="0.5" fill="rgb(0,0,0)" />
<circle cx="16.7332" cy="11.7917" r="0.5" fill="rgb(0,0,0)" />
<circle cx="15.0079" cy="12.5296" r="0.5" fill="rgb(0,0,0)" />
<circle cx="15.8159" cy="12.1234" r="0.5" fill="rgb(0,0,0)" />
<circle cx="3.35596" cy="12.3992" r="0.5" fill="rgb(0,0,0)" />
<circle cx="9.56204" cy="12.5912" r="0.5" fill="rgb(0,0,0)" />
<circle cx="1.46218" cy="12.4619" r="0.5" fill="rgb(0,0,0)" />
<circle cx="17.5032" cy="12.4931" r="0.5" fill="rgb(0,0,0)" />
<circle cx="14.2399" cy="12.8201" r="0.5" fill="rgb(0,0,0)" />
<circle cx="4.96519" cy="12.4075" r="0.5" fill="rgb(0,0,0)" />
<circle cx="6.84964" cy="12.6562" r="0.5" fill="rgb(0,0,0)" />
<circle cx="13.4946" cy="13.1336" r="0.5" fill="rgb(0,0,0)" />
<circle cx="16.6965" cy="3.3866" r="0.5" fill="rgb(0,0,0)" />
<circle cx="6.10172" cy="13.1612" r="0.5" fill="rgb(0,0,0)" />
<circle cx="9.82377" cy="4.47519" r="0.5" fill="rgb(0,0,0)" />
<circle cx="12.9118" cy="9.82814" r="0.5" fill="rgb(0,0,0)" />
<circle cx="8.29028" cy="13.0093" r="0.5" fill="rgb(0,0,0)" />
<circle cx="10.4378" cy="13.2681" r="0.5" fill="rgb(0,0,0)" />
<circle cx="4.26491" cy="6.62932" r="0.5" fill="rgb(0,0,0)" />
<circle cx="15.3746" cy="13.5327" r="0.5" fill="rgb(0,0,0)" />
<circle cx="11.1286" cy="9.24359" r="0.5" fill="rgb(0,0,0)" />
<circle cx="11.5759" cy="13.0453" r="0.5" fill="rgb(0,0,0)" />
<circle cx="1.11546" cy="13.508" r="0.5" fill="rgb(0,0,0)" />
<circle cx="17.1348" cy="10.5035" r="0.5" fill="rgb(0,0,0)" />
<circle cx="3.86647" cy="13.4444" r="0.5" fill="rgb(0,0,0)" />
<circle cx="11.6225" cy="2.64791" r="0.5" fill="rgb(0,0,0)" />
<circle cx="17.6893" cy="13.5778" r="0.5" fill="rgb(0,0,0)" />
<circle cx="2.52087" cy="13.3759" r="0.5" fill="rgb(0,0,0)" />
<circle cx="16.2994" cy="13.4389" r="0.5" fill="rgb(0,0,0)" />
<circle cx="13.4679" cy="14.1096" r="0.5" fill="rgb(0,0,0)" />
<circle cx="9.19401" cy="13.6792" r="0.5" fill="rgb(0,0,0)" />
<circle cx="7.575" cy="13.7321" r="0.5" fill="rgb(0,0,0)" />
<circle cx="6.54459" cy="14.217" r="0.5" fill="rgb(0,0,0)" />
<circle cx="6.68035" cy="6.82915" r="0.5" fill="rgb(0,0,0)" />
<circle cx="14.3672" cy="14.4355" r="0.5" fill="rgb(0,0,0)" />
<circle cx="17.1883" cy="1.75577" r="0.5" fill="rgb(0,0,0)" />
<circle cx="11.8474" cy="8.21194" r="0.5" fill="rgb(0,0,0)" />
<circle cx="15.5434" cy="14.5034" r="0.5" fill="rgb(0,0,0)" />
<circle cx="8.44803" cy="14.3911" r="0.5" fill="rgb(0,0,0)" />
<circle cx="3.41519" cy="7.88027" r="0.5" fill="rgb(0,0,0)" />
<circle cx="1.74568" cy="14.399" r="0.5" fill="rgb(0,0,0)" />
<circle cx="16.9803" cy="14.2667" r="0.5" fill="rgb(0,0,0)" />
<circle cx="4.75329" cy="4.37472" r="0.5" fill="rgb(0,0,0)" />
<circle cx="12.4989" cy="14.4087" r="0.5" fill="rgb(0,0,0)" />
<circle cx="4.87648" cy="14.9488" r="0.5" fill="rgb(0,0,0)" />
<circle cx="4.68167" cy="13.8734" r="0.5" fill="rgb(0,0,0)" />
<circle cx="10.0869" cy="14.8195" r="0.5" fill="rgb(0,0,0)" />
<circle cx="3.99597" cy="14.881" r="0.5" fill="rgb(0,0,0)" />
<circle cx="6.42973" cy="3.84351" r="0.5" fill="rgb(0,0,0)" />
<circle cx="11.0722" cy="14.3882" r="0.5" fill="rgb(0,0,0)" />
<circle cx="5.60736" cy="15.2668" r="0.5" fill="rgb(0,0,0)" />
<circle cx="17.9707" cy="14.7975" r="0.5" fill="rgb(0,0,0)" />
<circle cx="9.04284" cy="15.11" r="0.5" fill="rgb(0,0,0)" />
<circle cx="11.9921" cy="1.68878" r="0.5" fill="rgb(0,0,0)" />
<circle cx="11.551" cy="14.9688" r="0.5" fill="rgb(0,0,0)" />
<circle cx="9.66801" cy="3.43926" r="0.5" fill="rgb(0,0,0)" />
<circle cx="7.66884" cy="15.1263" r="0.5" fill="rgb(0,0,0)" />
<circle cx="15.0766" cy="15.325" r="0.5" fill="rgb(0,0,0)" />
<circle cx="6.75638" cy="2.75449" r="0.5" fill="rgb(0,0,0)" />
<circle cx="15.8886" cy="2.29289" r="0.5" fill="rgb(0,0,0)" />
<circle cx="5.49535" cy="14.039" r="0.5" fill="rgb(0,0,0)" />
<circle cx="2.35925" cy="15.3846" r="0.5" fill="rgb(0,0,0)" />
<circle cx="5.67689" cy="16.0574" r="0.5" fill="rgb(0,0,0)" />
<circle cx="7.28721" cy="11.8414" r="0.5" fill="rgb(0,0,0)" />
<circle cx="4.71588" cy="15.8015" r="0.5" fill="rgb(0,0,0)" />
<circle cx="16.3138" cy="15.3685" r="0.5" fill="rgb(0,0,0)" />
<circle cx="3.27301" cy="15.8096" r="0.5" fill="rgb(0,0,0)" />
<circle cx="11.9918" cy="15.6742" r="0.5" fill="rgb(0,0,0)" />
<circle cx="12.573" cy="13.1254" r="0.5" fill="rgb(0,0,0)" />
<circle cx="10.1459" cy="15.8674" r="0.5" fill="rgb(0,0,0)" />
<circle cx="4.25982" cy="7.49177" r="0.5" fill="rgb(0,0,0)" />
<circle cx="13.2615" cy="15.8578" r="0.5" fill="rgb(0,0,0)" />
<circle cx="14.5221" cy="13.6044" r="0.5" fill="rgb(0,0,0)" />
<circle cx="1.29989" cy="16.4357" r="0.5" fill="rgb(0,0,0)" />
<circle cx="7.40746" cy="16.1146" r="0.5" fill="rgb(0,0,0)" />
<circle cx="8.8149" cy="16.201" r="0.5" fill="rgb(0,0,0)" />
<circle cx="12.6635" cy="16.4542" r="0.5" fill="rgb(0,0,0)" />
<circle cx="17.2471" cy="16.1604" r="0.5" fill="rgb(0,0,0)" />
<circle cx="6.71446" cy="0.303399" r="0.5" fill="rgb(0,0,0)" />
<circle cx="6.54442" cy="16.5249" r="0.5" fill="rgb(0,0,0)" />
<circle cx="5.53681" cy="16.7537" r="0.5" fill="rgb(0,0,0)" />
<circle cx="5.72301" cy="2.35295" r="0.5" fill="rgb(0,0,0)" />
<circle cx="2.00871" cy="16.5377" r="0.5" fill="rgb(0,0,0)" />
<circle cx="17.0644" cy="9.17764" r="0.5" fill="rgb(0,0,0)" />
<circle cx="15.1086" cy="16.4466" r="0.5" fill="rgb(0,0,0)" />
<circle cx="11.0867" cy="16.533" r="0.5" fill="rgb(0,0,0)" />
<circle cx="1.41543" cy="17.2862" r="0.5" fill="rgb(0,0,0)" />
<circle cx="6.32554" cy="10.1292" r="0.5" fill="rgb(0,0,0)" />
<circle cx="14.1954" cy="16.9462" r="0.5" fill="rgb(0,0,0)" />
<circle cx="0.514113" cy="16.984" r="0.5" fill="rgb(0,0,0)" />
<circle cx="15.8981" cy="16.8877" r="0.5" fill="rgb(0,0,0)" />
<circle cx="13.1323" cy="4.75714" r="0.5" fill="rgb(0,0,0)" />
<circle cx="4.38851" cy="16.8061" r="0.5" fill="rgb(0,0,0)" />
<circle cx="16.8948" cy="17.2283" r="0.5" fill="rgb(0,0,0)" />
<circle cx="2.25676" cy="4.86346" r="0.5" fill="rgb(0,0,0)" />
<circle cx="12.4169" cy="17.2996" r="0.5" fill="rgb(0,0,0)" />
<circle cx="8.89652" cy="17.3152" r="0.5" fill="rgb(0,0,0)" />
<circle cx="5.82984" cy="17.4035" r="0.5" fill="rgb(0,0,0)" />
<circle cx="1.96946" cy="17.7439" r="0.5" fill="rgb(0,0,0)" />
<circle cx="5.53119" cy="1.29393" r="0.5" fill="rgb(0,0,0)" />
<circle cx="9.97104" cy="17.2279" r="0.5" fill="rgb(0,0,0)" />
<circle cx="1.22028" cy="17.8889" r="0.5" fill="rgb(0,0,0)" />
<circle cx="14.5776" cy="3.07013" r="0.5" fill="rgb(0,0,0)" />
<circle cx="13.5363" cy="10.3792" r="0.5" fill="rgb(0,0,0)" />
<circle cx="1.15072" cy="15.4117" r="0.5" fill="rgb(0,0,0)" />
<circle cx="15.1776" cy="17.7971" r="0.5" fill="rgb(0,0,0)" />
<circle cx="6.75325" cy="1.25063" r="0.5" fill="rgb(0,0,0)" />
<circle cx="10.9056" cy="17.8192" r="0.5" fill="rgb(0,0,0)" />
<circle cx="2.81632" cy="17.7028" r="0.5" fill="rgb(0,0,0)" />
<circle cx="9.56658" cy="10.6542" r="0.5" fill="rgb(0,0,0)" />
<circle cx="11.6759" cy="17.4547" r="0.5" fill="rgb(0,0,0)" />
<circle cx="7.93706" cy="17.9137" r="0.5" fill="rgb(0,0,0)" />
<circle cx="6.72182" cy="17.6843" r="0.5" fill="rgb(0,0,0)" />
<circle cx="4.48948" cy="11.1465" r="0.5" fill="rgb(0,0,0)" />
<circle cx="17.6734" cy="17.9181" r="0.5" fill="rgb(0,0,0)" />
<circle cx="14.2966" cy="17.933" r="0.5" fill="rgb(0,0,0)" />
<circle cx="18.3608" cy="17.0467" r="0.5" fill="rgb(0,0,0)" />
<circle cx="18.4611" cy="15.7108" r="0.5" fill="rgb(0,0,0)" />
<circle cx="4.87756" cy="17.7053" r="0.5" fill="rgb(0,0,0)" />
<circle cx="5.21995" cy="6.65421" r="0.5" fill="rgb(0,0,0)" />
<circle cx="3.95154" cy="16.1592" r="0.5" fill="rgb(0,0,0)" />
<circle cx="12.3104" cy="18.2686" r="0.5" fill="rgb(0,0,0)" />
<circle cx="9.63882" cy="2.55667" r="0.5" fill="rgb(0,0,0)" />
<circle cx="15.5034" cy="5.28924" r="0.5" fill="rgb(0,0,0)" />
<circle cx="18.7569" cy="18.1554" r="0.5" fill="rgb(0,0,0)" />
<circle cx="18.5047" cy="1.79804" r="0.5" fill="rgb(0,0,0)" />
<circle cx="18.5036" cy="0.447157" r="0.5" fill="rgb(0,0,0)" />
<circle cx="18.2967" cy="9.43172" r="0.5" fill="rgb(0,0,0)" />
<circle cx="10.149" cy="14.0198" r="0.5" fill="rgb(0,0,0)" />
<circle cx="7.75456" cy="17.0295" r="0.5" fill="rgb(0,0,0)" />
<circle cx="15.9693" cy="18.2381" r="0.5" fill="rgb(0,0,0)" />
<circle cx="18.5458" cy="13.1337" r="0.5" fill="rgb(0,0,0)" />
<circle cx="3.12555" cy="14.5228" r="0.5" fill="rgb(0,0,0)" />
<circle cx="18.2747" cy="11.2498" r="0.5" fill="rgb(0,0,0)" />
<circle cx="9.34901" cy="0.538003" r="0.5" fill="rgb(0,0,0)" />
<circle cx="16.007" cy="0.756056" r="0.5" fill="rgb(0,0,0)" />
<circle cx="13.6672" cy="18.4714" r="0.5" fill="rgb(0,0,0)" />
<circle cx="18.4918" cy="4.52497" r="0.5" fill="rgb(0,0,0)" />
<circle cx="18.4778" cy="3.26986" r="0.5" fill="rgb(0,0,0)" />
<circle cx="17.9537" cy="18.7082" r="0.5" fill="rgb(0,0,0)" />
<circle cx="11.7025" cy="5.86077" r="0.5" fill="rgb(0,0,0)" />
<circle cx="16.8586" cy="18.4793" r="0.5" fill="rgb(0,0,0)" />
<circle cx="13.2928" cy="1.08202" r="0.5" fill="rgb(0,0,0)" />
<circle cx="0.337447" cy="15.9884" r="0.5" fill="rgb(0,0,0)" />
<circle cx="13.3682" cy="17.3869" r="0.5" fill="rgb(0,0,0)" />
<circle cx="0.426768" cy="14.5189" r="0.5" fill="rgb(0,0,0)" />
<circle cx="13.4346" cy="8.08598" r="0.5" fill="rgb(0,0,0)" />
<circle cx="8.22595" cy="8.8345" r="0.5" fill="rgb(0,0,0)" />
<circle cx="0.43555" cy="8.62886" r="0.5" fill="rgb(0,0,0)" />
<circle cx="0.442357" cy="10.0199" r="0.5" fill="rgb(0,0,0)" />
<circle cx="0.332647" cy="12.9706" r="0.5" fill="rgb(0,0,0)" />
<circle cx="0.435223" cy="11.6255" r="0.5" fill="rgb(0,0,0)" />
<circle cx="2.7841" cy="4.0153" r="0.5" fill="rgb(0,0,0)" />
<circle cx="0.546682" cy="2.30193" r="0.5" fill="rgb(0,0,0)" />
<circle cx="17.1328" cy="0.430741" r="0.5" fill="rgb(0,0,0)" />
<circle cx="10.1285" cy="18.4332" r="0.5" fill="rgb(0,0,0)" />
<circle cx="18.376" cy="8.10476" r="0.5" fill="rgb(0,0,0)" />
<circle cx="18.5933" cy="6.50828" r="0.5" fill="rgb(0,0,0)" />
<circle cx="8.9317" cy="18.4593" r="0.5" fill="rgb(0,0,0)" />
<circle cx="0.44829" cy="6.90387" r="0.5" fill="rgb(0,0,0)" />
<circle cx="13.4717" cy="15.0587" r="0.5" fill="rgb(0,0,0)" />
<circle cx="3.31134" cy="18.4625" r="0.5" fill="rgb(0,0,0)" />
<circle cx="15.6269" cy="6.0806" r="0.5" fill="rgb(0,0,0)" />
<circle cx="7.51272" cy="18.5749" r="0.5" fill="rgb(0,0,0)" />
<circle cx="1.19026" cy="10.9139" r="0.5" fill="rgb(0,0,0)" />
<circle cx="5.92171" cy="18.5005" r="0.5" fill="rgb(0,0,0)" />
<circle cx="12.7707" cy="18.615" r="0.5" fill="rgb(0,0,0)" />
<circle cx="5.94206" cy="3.27472" r="0.5" fill="rgb(0,0,0)" />
<circle cx="11.3601" cy="18.5662" r="0.5" fill="rgb(0,0,0)" />
<circle cx="5.0242" cy="2.78509" r="0.5" fill="rgb(0,0,0)" />
<circle cx="0.357003" cy="5.49215" r="0.5" fill="rgb(0,0,0)" />
<circle cx="0.410048" cy="4.35779" r="0.5" fill="rgb(0,0,0)" />
<circle cx="4.22954" cy="18.2119" r="0.5" fill="rgb(0,0,0)" />
<circle cx="0.644612" cy="0.663549" r="0.5" fill="rgb(0,0,0)" />
<circle cx="18.4065" cy="18.3583" r="0.5" fill="rgb(0,0,0)" />
<circle cx="2.66003" cy="0.4536" r="0.5" fill="rgb(0,0,0)" />
<circle cx="0.243505" cy="17.7275" r="0.5" fill="rgb(0,0,0)" />
<circle cx="0.371087" cy="18.4661" r="0.5" fill="rgb(0,0,0)" />
<circle cx="7.42114" cy="3.78087" r="0.5" fill="rgb(0,0,0)" />
<circle cx="2.07064" cy="18.5958" r="0.5" fill="rgb(0,0,0)" />
<circle cx="6.56949" cy="15.3154" r="0.5" fill="rgb(0,0,0)" />
<circle cx="14.2607" cy="15.7525" r="0.5" fill="rgb(0,0,0)" />
<circle cx="2.98399" cy="16.7266" r="0.5" fill="rgb(0,0,0)" />
<circle cx="14.9458" cy="18.6604" r="0.5" fill="rgb(0,0,0)" />
<circle cx="1.0949" cy="18.5792" r="0.5" fill="rgb(0,0,0)" />
</svg>
