<?xml version="1.0" ?>
<!DOCTYPE svg PUBLIC "-//W3C//DTD SVG 1.1//EN" "http://www.w3.org/Graphics/SVG/1.1/DTD/svg11.dtd">
<svg width="20" height="20" version="1.1" xmlns="http://www.w3.org/2000/svg">
<circle cx="12.7463" cy="1.78453" r="0.5" fill="rgb(0,0,0)" />
<circle cx="8.29559" cy="1.09968" r="0.5" fill="rgb(0,0,0)" />
<circle cx="17.0737" cy="3.75434" r="0.5" fill="rgb(0,0,0)" />
<circle cx="15.2386" cy="4.11441" r="0.5" fill="rgb(0,0,0)" />
<circle cx="3.30835" cy="3.36798" r="0.5" fill="rgb(0,0,0)" />
<circle cx="13.0537" cy="4.18631" r="0.5" fill="rgb(0,0,0)" />
<circle cx="9.11563" cy="3.28689" r="0.5" fill="rgb(0,0,0)" />
<circle cx="15.6093" cy="2.6461" r="0.5" fill="rgb(0,0,0)" />
<circle cx="5.60835" cy="3.74181" r="0.5" fill="rgb(0,0,0)" />
<circle cx="14.2338" cy="5.41793" r="0.5" fill="rgb(0,0,0)" />
<circle cx="7.09297" cy="5.11954" r="0.5" fill="rgb(0,0,0)" />
<circle cx="16.0751" cy="6.4115" r="0.5" fill="rgb(0,0,0)" />
<circle cx="2.29157" cy="5.5536" r="0.5" fill="rgb(0,0,0)" />
<circle cx="3.95039" cy="6.37075" r="0.5" fill="rgb(0,0,0)" />
<circle cx="5.66056" cy="7.48884" r="0.5" fill="rgb(0,0,0)" />
<circle cx="16.227" cy="8.30689" r="0.5" fill="rgb(0,0,0)" />
<circle cx="2.52143" cy="8.33691" r="0.5" fill="rgb(0,0,0)" />
<circle cx="9.4837" cy="8.53377" r="0.5" fill="rgb(0,0,0)" />
<circle cx="12.3139" cy="6.53951" r="0.5" fill="rgb(0,0,0)" />
<circle cx="11.5782" cy="8.81664" r="0.5" fill="rgb(0,0,0)" />
<circle cx="4.01556" cy="9.45481" r="0.5" fill="rgb(0,0,0)" />
<circle cx="6.37652" cy="10.0713" r="0.5" fill="rgb(0,0,0)" />
<circle cx="16.4871" cy="5.09699" r="0.5" fill="rgb(0,0,0)" />
<circle cx="8.7779" cy="10.4592" r="0.5" fill="rgb(0,0,0)" />
<circle cx="15.9773" cy="10.4099" r="0.5" fill="rgb(0,0,0)" />
<circle cx="14.0672" cy="10.9514" r="0.5" fill="rgb(0,0,0)" />
<circle cx="5.6786" cy="1.25285" r="0.5" fill="rgb(0,0,0)" />
<circle cx="11.2514" cy="10.9848" r="0.5" fill="rgb(0,0,0)" />
<circle cx="10.1459" cy="13.1978" r="0.5" fill="rgb(0,0,0)" />
<circle cx="10.0079" cy="6.05974" r="0.5" fill="rgb(0,0,0)" />
<circle cx="12.7035" cy="14.1605" r="0.5" fill="rgb(0,0,0)" />
<circle cx="6.12698" cy="12.9759" r="0.5" fill="rgb(0,0,0)" />
<circle cx="16.3133" cy="14.3476" r="0.5" fill="rgb(0,0,0)" />
<circle cx="14.8237" cy="14.9076" r="0.5" fill="rgb(0,0,0)" />
<circle cx="17.8532" cy="14.5906" r="0.5" fill="rgb(0,0,0)" />
<circle cx="3.82119" cy="11.76" r="0.5" fill="rgb(0,0,0)" />
<circle cx="3.77118" cy="14.4168" r="0.5" fill="rgb(0,0,0)" />
<circle cx="11.2851" cy="3.88722" r="0.5" fill="rgb(0,0,0)" />
<circle cx="17.909" cy="6.57242" r="0.5" fill="rgb(0,0,0)" />
<circle cx="10.6457" cy="15.1982" r="0.5" fill="rgb(0,0,0)" />
<circle cx="14.5098" cy="7.12802" r="0.5" fill="rgb(0,0,0)" />
<circle cx="8.03401" cy="15.086" r="0.5" fill="rgb(0,0,0)" />
<circle cx="14.1621" cy="16.0901" r="0.5" fill="rgb(0,0,0)" />
<circle cx="5.31835" cy="15.7819" r="0.5" fill="rgb(0,0,0)" />
<circle cx="6.88528" cy="16.5969" r="0.5" fill="rgb(0,0,0)" />
<circle cx="12.1236" cy="17.0651" r="0.5" fill="rgb(0,0,0)" />
<circle cx="0.948811" cy="3.98227" r="0.5" fill="rgb(0,0,0)" />
<circle cx="12.5634" cy="12.5304" r="0.5" fill="rgb(0,0,0)" />
<circle cx="17.606" cy="12.4047" r="0.5" fill="rgb(0,0,0)" />
<circle cx="14.1137" cy="17.778" r="0.5" fill="rgb(0,0,0)" />
<circle cx="15.1747" cy="18.5505" r="0.5" fill="rgb(0,0,0)" />
<circle cx="16.0246" cy="17.9735" r="0.5" fill="rgb(0,0,0)" />
<circle cx="2.66009" cy="17.1843" r="0.5" fill="rgb(0,0,0)" />
<circle cx="11.1426" cy="0.922386" r="0.5" fill="rgb(0,0,0)" />
<circle cx="12.2997" cy="18.4196" r="0.5" fill="rgb(0,0,0)" />
<circle cx="10.1178" cy="17.4546" r="0.5" fill="rgb(0,0,0)" />
<circle cx="17.2994" cy="17.9036" r="0.5" fill="rgb(0,0,0)" />
<circle cx="8.2633" cy="12.5415" r="0.5" fill="rgb(0,0,0)" />
<circle cx="0.877044" cy="17.8972" r="0.5" fill="rgb(0,0,0)" />
<circle cx="13.7486" cy="8.82251" r="0.5" fill="rgb(0,0,0)" />
<circle cx="1.16172" cy="15.4808" r="0.5" fill="rgb(0,0,0)" />
<circle cx="12.6903" cy="15.6841" r="0.5" fill="rgb(0,0,0)" />
<circle cx="18.0021" cy="10.1501" r="0.5" fill="rgb(0,0,0)" />
<circle cx="16.4464" cy="1.67684" r="0.5" fill="rgb(0,0,0)" />
<circle cx="18.1583" cy="8.1773" r="0.5" fill="rgb(0,0,0)" />
<circle cx="1.2726" cy="13.0897" r="0.5" fill="rgb(0,0,0)" />
<circle cx="16.072" cy="16.402" r="0.5" fill="rgb(0,0,0)" />
<circle cx="1.20366" cy="10.6162" r="0.5" fill="rgb(0,0,0)" />
<circle cx="8.36365" cy="17.9168" r="0.5" fill="rgb(0,0,0)" />
<circle cx="6.12717" cy="18.113" r="0.5" fill="rgb(0,0,0)" />
<circle cx="4.15263" cy="17.8965" r="0.5" fill="rgb(0,0,0)" />
<circle cx="18.4233" cy="17.8849" r="0.5" fill="rgb(0,0,0)" />
<circle cx="0.768205" cy="8.35105" r="0.5" fill="rgb(0,0,0)" />
<circle cx="0.7254" cy="6.35944" r="0.5" fill="rgb(0,0,0)" />
<circle cx="14.6775" cy="0.673447" r="0.5" fill="rgb(0,0,0)" />
<circle cx="0.929943" cy="1.40651" r="0.5" fill="rgb(0,0,0)" />
<circle cx="7.84433" cy="7.36153" r="0.5" fill="rgb(0,0,0)" />
<circle cx="3.07032" cy="0.954865" r="0.5" fill="rgb(0,0,0)" />
<circle cx="14.0979" cy="2.67476" r="0.5" fill="rgb(0,0,0)" />
<circle cx="14.9318" cy="12.9363" r="0.5" fill="rgb(0,0,0)" />
<circle cx="18.2618" cy="4.95645" r="0.5" fill="rgb(0,0,0)" />
<circle cx="18.1636" cy="3.02029" r="0.5" fill="rgb(0,0,0)" />
<circle cx="18.1517" cy="1.64862" r="0.5" fill="rgb(0,0,0)" />
<circle cx="18.1388" cy="16.0544" r="0.5" fill="rgb(0,0,0)" />
<circle cx="17.5809" cy="0.466974" r="0.5" fill="rgb(0,0,0)" />
</svg>
