<?xml version="1.0" ?>
<!DOCTYPE svg PUBLIC "-//W3C//DTD SVG 1.1//EN" "http://www.w3.org/Graphics/SVG/1.1/DTD/svg11.dtd">
<svg width="20" height="20" version="1.1" xmlns="http://www.w3.org/2000/svg">
<circle cx="12.8384" cy="0.48992" r="0.5" fill="rgb(0,0,0)" />
<circle cx="8.0049" cy="0.659303" r="0.5" fill="rgb(0,0,0)" />
<circle cx="7.00335" cy="1.4355" r="0.5" fill="rgb(0,0,0)" />
<circle cx="14.1252" cy="2.15738" r="0.5" fill="rgb(0,0,0)" />
<circle cx="9.08587" cy="1.88644" r="0.5" fill="rgb(0,0,0)" />
<circle cx="4.27536" cy="2.18132" r="0.5" fill="rgb(0,0,0)" />
<circle cx="14.6403" cy="0.379793" r="0.5" fill="rgb(0,0,0)" />
<circle cx="4.99794" cy="2.84931" r="0.5" fill="rgb(0,0,0)" />
<circle cx="18.0921" cy="1.74864" r="0.5" fill="rgb(0,0,0)" />
<circle cx="18.4606" cy="0.571189" r="0.5" fill="rgb(0,0,0)" />
<circle cx="15.399" cy="2.46029" r="0.5" fill="rgb(0,0,0)" />
<circle cx="11.6806" cy="2.70228" r="0.5" fill="rgb(0,0,0)" />
<circle cx="4.13041" cy="3.60972" r="0.5" fill="rgb(0,0,0)" />
<circle cx="14.2947" cy="1.22912" r="0.5" fill="rgb(0,0,0)" />
<circle cx="5.21455" cy="3.68012" r="0.5" fill="rgb(0,0,0)" />
<circle cx="6.12523" cy="3.57135" r="0.5" fill="rgb(0,0,0)" />
<circle cx="4.31639" cy="0.622805" r="0.5" fill="rgb(0,0,0)" />
<circle cx="9.42046" cy="3.13049" r="0.5" fill="rgb(0,0,0)" />
<circle cx="10.3732" cy="3.8256" r="0.5" fill="rgb(0,0,0)" />
<circle cx="2.92935" cy="4.05505" r="0.5" fill="rgb(0,0,0)" />
<circle cx="8.59403" cy="3.80132" r="0.5" fill="rgb(0,0,0)" />
<circle cx="4.17559" cy="4.51224" r="0.5" fill="rgb(0,0,0)" />
<circle cx="11.9522" cy="4.11426" r="0.5" fill="rgb(0,0,0)" />
<circle cx="5.42213" cy="4.60367" r="0.5" fill="rgb(0,0,0)" />
<circle cx="6.22953" cy="4.92051" r="0.5" fill="rgb(0,0,0)" />
<circle cx="2.18936" cy="4.81888" r="0.5" fill="rgb(0,0,0)" />
<circle cx="16.8148" cy="5.33242" r="0.5" fill="rgb(0,0,0)" />
<circle cx="8.11297" cy="4.96323" r="0.5" fill="rgb(0,0,0)" />
<circle cx="1.27017" cy="5.32134" r="0.5" fill="rgb(0,0,0)" />
<circle cx="10.7929" cy="4.82229" r="0.5" fill="rgb(0,0,0)" />
<circle cx="6.81941" cy="2.77711" r="0.5" fill="rgb(0,0,0)" />
<circle cx="18.1494" cy="5.57995" r="0.5" fill="rgb(0,0,0)" />
<circle cx="9.19153" cy="5.72163" r="0.5" fill="rgb(0,0,0)" />
<circle cx="11.996" cy="1.43127" r="0.5" fill="rgb(0,0,0)" />
<circle cx="3.2128" cy="5.51444" r="0.5" fill="rgb(0,0,0)" />
<circle cx="15.6684" cy="6.01833" r="0.5" fill="rgb(0,0,0)" />
<circle cx="12.368" cy="5.52028" r="0.5" fill="rgb(0,0,0)" />
<circle cx="7.56726" cy="6.01922" r="0.5" fill="rgb(0,0,0)" />
<circle cx="6.62712" cy="6.8141" r="0.5" fill="rgb(0,0,0)" />
<circle cx="13.0147" cy="2.73657" r="0.5" fill="rgb(0,0,0)" />
<circle cx="5.64851" cy="6.36488" r="0.5" fill="rgb(0,0,0)" />
<circle cx="9.30965" cy="0.555135" r="0.5" fill="rgb(0,0,0)" />
<circle cx="9.09062" cy="6.78229" r="0.5" fill="rgb(0,0,0)" />
<circle cx="18.5986" cy="6.44678" r="0.5" fill="rgb(0,0,0)" />
<circle cx="7.93871" cy="7.00897" r="0.5" fill="rgb(0,0,0)" />
<circle cx="18.1069" cy="7.10147" r="0.5" fill="rgb(0,0,0)" />
<circle cx="1.62335" cy="7.17556" r="0.5" fill="rgb(0,0,0)" />
<circle cx="13.9932" cy="4.49806" r="0.5" fill="rgb(0,0,0)" />
<circle cx="4.22119" cy="6.66144" r="0.5" fill="rgb(0,0,0)" />
<circle cx="12.7859" cy="7.00259" r="0.5" fill="rgb(0,0,0)" />
<circle cx="3.1189" cy="7.21424" r="0.5" fill="rgb(0,0,0)" />
<circle cx="6.56093" cy="7.62768" r="0.5" fill="rgb(0,0,0)" />
<circle cx="4.90425" cy="7.61683" r="0.5" fill="rgb(0,0,0)" />
<circle cx="15.946" cy="0.760491" r="0.5" fill="rgb(0,0,0)" />
<circle cx="11.3358" cy="6.98391" r="0.5" fill="rgb(0,0,0)" />
<circle cx="7.39431" cy="8.07247" r="0.5" fill="rgb(0,0,0)" />
<circle cx="3.16419" cy="1.43384" r="0.5" fill="rgb(0,0,0)" />
<circle cx="5.95383" cy="8.19208" r="0.5" fill="rgb(0,0,0)" />
<circle cx="2.59839" cy="8.21812" r="0.5" fill="rgb(0,0,0)" />
<circle cx="9.47023" cy="7.94433" r="0.5" fill="rgb(0,0,0)" />
<circle cx="11.0605" cy="0.41572" r="0.5" fill="rgb(0,0,0)" />
<circle cx="16.1317" cy="8.37797" r="0.5" fill="rgb(0,0,0)" />
<circle cx="3.82974" cy="8.63692" r="0.5" fill="rgb(0,0,0)" />
<circle cx="10.3848" cy="8.44537" r="0.5" fill="rgb(0,0,0)" />
<circle cx="8.50486" cy="8.97162" r="0.5" fill="rgb(0,0,0)" />
<circle cx="4.85327" cy="8.933" r="0.5" fill="rgb(0,0,0)" />
<circle cx="5.71483" cy="1.48304" r="0.5" fill="rgb(0,0,0)" />
<circle cx="1.49078" cy="9.13694" r="0.5" fill="rgb(0,0,0)" />
<circle cx="6.00733" cy="9.22124" r="0.5" fill="rgb(0,0,0)" />
<circle cx="1.95638" cy="6.23465" r="0.5" fill="rgb(0,0,0)" />
<circle cx="17.0144" cy="9.25785" r="0.5" fill="rgb(0,0,0)" />
<circle cx="12.1825" cy="8.46166" r="0.5" fill="rgb(0,0,0)" />
<circle cx="3.69443" cy="9.65834" r="0.5" fill="rgb(0,0,0)" />
<circle cx="2.30198" cy="2.97049" r="0.5" fill="rgb(0,0,0)" />
<circle cx="15.6621" cy="7.17501" r="0.5" fill="rgb(0,0,0)" />
<circle cx="9.7242" cy="9.41859" r="0.5" fill="rgb(0,0,0)" />
<circle cx="14.442" cy="3.13014" r="0.5" fill="rgb(0,0,0)" />
<circle cx="8.33264" cy="9.88708" r="0.5" fill="rgb(0,0,0)" />
<circle cx="14.0868" cy="9.56518" r="0.5" fill="rgb(0,0,0)" />
<circle cx="7.19416" cy="9.97412" r="0.5" fill="rgb(0,0,0)" />
<circle cx="7.89912" cy="10.758" r="0.5" fill="rgb(0,0,0)" />
<circle cx="15.6225" cy="9.94633" r="0.5" fill="rgb(0,0,0)" />
<circle cx="6.24079" cy="10.3785" r="0.5" fill="rgb(0,0,0)" />
<circle cx="3.29417" cy="10.6595" r="0.5" fill="rgb(0,0,0)" />
<circle cx="16.9164" cy="10.6342" r="0.5" fill="rgb(0,0,0)" />
<circle cx="8.28203" cy="11.5367" r="0.5" fill="rgb(0,0,0)" />
<circle cx="12.2622" cy="10.8017" r="0.5" fill="rgb(0,0,0)" />
<circle cx="14.9059" cy="11.1534" r="0.5" fill="rgb(0,0,0)" />
<circle cx="7.11508" cy="11.7797" r="0.5" fill="rgb(0,0,0)" />
<circle cx="4.48833" cy="11.5088" r="0.5" fill="rgb(0,0,0)" />
<circle cx="13.531" cy="8.38043" r="0.5" fill="rgb(0,0,0)" />
<circle cx="5.75059" cy="11.5565" r="0.5" fill="rgb(0,0,0)" />
<circle cx="16.1904" cy="12.0281" r="0.5" fill="rgb(0,0,0)" />
<circle cx="2.31744" cy="11.6777" r="0.5" fill="rgb(0,0,0)" />
<circle cx="14.8037" cy="12.5276" r="0.5" fill="rgb(0,0,0)" />
<circle cx="9.25839" cy="12.0122" r="0.5" fill="rgb(0,0,0)" />
<circle cx="3.33029" cy="12.4173" r="0.5" fill="rgb(0,0,0)" />
<circle cx="0.815142" cy="11.2772" r="0.5" fill="rgb(0,0,0)" />
<circle cx="16.7664" cy="3.37872" r="0.5" fill="rgb(0,0,0)" />
<circle cx="7.28175" cy="9.04245" r="0.5" fill="rgb(0,0,0)" />
<circle cx="10.2683" cy="12.3438" r="0.5" fill="rgb(0,0,0)" />
<circle cx="15.077" cy="13.4721" r="0.5" fill="rgb(0,0,0)" />
<circle cx="12.1221" cy="12.7877" r="0.5" fill="rgb(0,0,0)" />
<circle cx="10.5456" cy="13.399" r="0.5" fill="rgb(0,0,0)" />
<circle cx="5.73476" cy="0.390892" r="0.5" fill="rgb(0,0,0)" />
<circle cx="4.93885" cy="13.5395" r="0.5" fill="rgb(0,0,0)" />
<circle cx="7.85038" cy="2.40514" r="0.5" fill="rgb(0,0,0)" />
<circle cx="13.4382" cy="13.9445" r="0.5" fill="rgb(0,0,0)" />
<circle cx="16.5291" cy="13.5524" r="0.5" fill="rgb(0,0,0)" />
<circle cx="14.3145" cy="7.07536" r="0.5" fill="rgb(0,0,0)" />
<circle cx="6.10039" cy="14.0596" r="0.5" fill="rgb(0,0,0)" />
<circle cx="14.338" cy="14.2013" r="0.5" fill="rgb(0,0,0)" />
<circle cx="6.59629" cy="5.60937" r="0.5" fill="rgb(0,0,0)" />
<circle cx="1.89566" cy="13.8343" r="0.5" fill="rgb(0,0,0)" />
<circle cx="16.2182" cy="4.44518" r="0.5" fill="rgb(0,0,0)" />
<circle cx="7.68645" cy="14.0478" r="0.5" fill="rgb(0,0,0)" />
<circle cx="3.09709" cy="14.4099" r="0.5" fill="rgb(0,0,0)" />
<circle cx="17.8473" cy="2.64143" r="0.5" fill="rgb(0,0,0)" />
<circle cx="4.0082" cy="14.8202" r="0.5" fill="rgb(0,0,0)" />
<circle cx="2.56632" cy="9.19458" r="0.5" fill="rgb(0,0,0)" />
<circle cx="5.0182" cy="14.9149" r="0.5" fill="rgb(0,0,0)" />
<circle cx="15.323" cy="3.87276" r="0.5" fill="rgb(0,0,0)" />
<circle cx="8.95928" cy="14.5902" r="0.5" fill="rgb(0,0,0)" />
<circle cx="11.5436" cy="14.6304" r="0.5" fill="rgb(0,0,0)" />
<circle cx="15.0274" cy="15.3204" r="0.5" fill="rgb(0,0,0)" />
<circle cx="13.3284" cy="15.297" r="0.5" fill="rgb(0,0,0)" />
<circle cx="17.3067" cy="0.691564" r="0.5" fill="rgb(0,0,0)" />
<circle cx="10.3967" cy="14.9077" r="0.5" fill="rgb(0,0,0)" />
<circle cx="17.6487" cy="14.9313" r="0.5" fill="rgb(0,0,0)" />
<circle cx="4.83005" cy="15.8522" r="0.5" fill="rgb(0,0,0)" />
<circle cx="16.3527" cy="15.4826" r="0.5" fill="rgb(0,0,0)" />
<circle cx="7.48797" cy="15.5964" r="0.5" fill="rgb(0,0,0)" />
<circle cx="3.37211" cy="2.98742" r="0.5" fill="rgb(0,0,0)" />
<circle cx="14.1335" cy="15.8101" r="0.5" fill="rgb(0,0,0)" />
<circle cx="14.1607" cy="5.70762" r="0.5" fill="rgb(0,0,0)" />
<circle cx="11.9738" cy="15.6354" r="0.5" fill="rgb(0,0,0)" />
<circle cx="1.29232" cy="16.205" r="0.5" fill="rgb(0,0,0)" />
<circle cx="5.57016" cy="16.3743" r="0.5" fill="rgb(0,0,0)" />
<circle cx="4.01168" cy="16.0918" r="0.5" fill="rgb(0,0,0)" />
<circle cx="1.71897" cy="2.00996" r="0.5" fill="rgb(0,0,0)" />
<circle cx="6.63775" cy="16.4626" r="0.5" fill="rgb(0,0,0)" />
<circle cx="2.22323" cy="16.52" r="0.5" fill="rgb(0,0,0)" />
<circle cx="8.46851" cy="7.93668" r="0.5" fill="rgb(0,0,0)" />
<circle cx="3.20545" cy="16.1401" r="0.5" fill="rgb(0,0,0)" />
<circle cx="10.0626" cy="5.31369" r="0.5" fill="rgb(0,0,0)" />
<circle cx="1.38033" cy="17.2262" r="0.5" fill="rgb(0,0,0)" />
<circle cx="11.3975" cy="9.3852" r="0.5" fill="rgb(0,0,0)" />
<circle cx="15.1134" cy="16.5033" r="0.5" fill="rgb(0,0,0)" />
<circle cx="13.2399" cy="3.71793" r="0.5" fill="rgb(0,0,0)" />
<circle cx="12.7407" cy="16.4918" r="0.5" fill="rgb(0,0,0)" />
<circle cx="4.47517" cy="16.9594" r="0.5" fill="rgb(0,0,0)" />
<circle cx="13.4838" cy="12.3951" r="0.5" fill="rgb(0,0,0)" />
<circle cx="14.1177" cy="17.0163" r="0.5" fill="rgb(0,0,0)" />
<circle cx="17.0072" cy="6.41492" r="0.5" fill="rgb(0,0,0)" />
<circle cx="14.9943" cy="8.54016" r="0.5" fill="rgb(0,0,0)" />
<circle cx="10.9374" cy="16.6687" r="0.5" fill="rgb(0,0,0)" />
<circle cx="7.81084" cy="16.977" r="0.5" fill="rgb(0,0,0)" />
<circle cx="13.5351" cy="10.6694" r="0.5" fill="rgb(0,0,0)" />
<circle cx="1.20674" cy="17.8783" r="0.5" fill="rgb(0,0,0)" />
<circle cx="2.96629" cy="17.3576" r="0.5" fill="rgb(0,0,0)" />
<circle cx="12.4748" cy="14.2487" r="0.5" fill="rgb(0,0,0)" />
<circle cx="17.8029" cy="17.4273" r="0.5" fill="rgb(0,0,0)" />
<circle cx="6.8862" cy="0.347015" r="0.5" fill="rgb(0,0,0)" />
<circle cx="5.66204" cy="17.3896" r="0.5" fill="rgb(0,0,0)" />
<circle cx="6.24354" cy="12.8363" r="0.5" fill="rgb(0,0,0)" />
<circle cx="12.9235" cy="17.5051" r="0.5" fill="rgb(0,0,0)" />
<circle cx="10.4509" cy="2.61153" r="0.5" fill="rgb(0,0,0)" />
<circle cx="9.08749" cy="17.3639" r="0.5" fill="rgb(0,0,0)" />
<circle cx="3.92564" cy="13.2518" r="0.5" fill="rgb(0,0,0)" />
<circle cx="6.13911" cy="15.2816" r="0.5" fill="rgb(0,0,0)" />
<circle cx="15.4456" cy="17.966" r="0.5" fill="rgb(0,0,0)" />
<circle cx="5.74176" cy="2.34393" r="0.5" fill="rgb(0,0,0)" />
<circle cx="6.77246" cy="17.7245" r="0.5" fill="rgb(0,0,0)" />
<circle cx="14.2901" cy="18.0601" r="0.5" fill="rgb(0,0,0)" />
<circle cx="4.53676" cy="18.104" r="0.5" fill="rgb(0,0,0)" />
<circle cx="13.0653" cy="1.72413" r="0.5" fill="rgb(0,0,0)" />
<circle cx="17.0722" cy="7.71843" r="0.5" fill="rgb(0,0,0)" />
<circle cx="0.794399" cy="12.824" r="0.5" fill="rgb(0,0,0)" />
<circle cx="0.590636" cy="14.8621" r="0.5" fill="rgb(0,0,0)" />
<circle cx="17.5142" cy="4.3262" r="0.5" fill="rgb(0,0,0)" />
<circle cx="1.22332" cy="7.99151" r="0.5" fill="rgb(0,0,0)" />
<circle cx="0.41821" cy="16.5952" r="0.5" fill="rgb(0,0,0)" />
<circle cx="4.66514" cy="5.50672" r="0.5" fill="rgb(0,0,0)" />
<circle cx="15.9025" cy="17.0531" r="0.5" fill="rgb(0,0,0)" />
<circle cx="18.0559" cy="11.5884" r="0.5" fill="rgb(0,0,0)" />
<circle cx="18.0796" cy="13.4494" r="0.5" fill="rgb(0,0,0)" />
<circle cx="2.13225" cy="17.8032" r="0.5" fill="rgb(0,0,0)" />
<circle cx="10.0278" cy="18.1452" r="0.5" fill="rgb(0,0,0)" />
<circle cx="7.21889" cy="3.99708" r="0.5" fill="rgb(0,0,0)" />
<circle cx="2.15858" cy="15.3378" r="0.5" fill="rgb(0,0,0)" />
<circle cx="9.26503" cy="16.0682" r="0.5" fill="rgb(0,0,0)" />
<circle cx="0.462066" cy="10.0567" r="0.5" fill="rgb(0,0,0)" />
<circle cx="1.85249" cy="10.2303" r="0.5" fill="rgb(0,0,0)" />
<circle cx="11.5916" cy="18.1694" r="0.5" fill="rgb(0,0,0)" />
<circle cx="17.0334" cy="16.7677" r="0.5" fill="rgb(0,0,0)" />
<circle cx="18.3011" cy="9.61528" r="0.5" fill="rgb(0,0,0)" />
<circle cx="2.81636" cy="9.74715" r="0.5" fill="rgb(0,0,0)" />
<circle cx="18.367" cy="8.14465" r="0.5" fill="rgb(0,0,0)" />
<circle cx="15.5588" cy="14.4785" r="0.5" fill="rgb(0,0,0)" />
<circle cx="18.4943" cy="4.52653" r="0.5" fill="rgb(0,0,0)" />
<circle cx="10.8455" cy="10.9563" r="0.5" fill="rgb(0,0,0)" />
<circle cx="18.4467" cy="3.24362" r="0.5" fill="rgb(0,0,0)" />
<circle cx="10.315" cy="6.84008" r="0.5" fill="rgb(0,0,0)" />
<circle cx="18.3766" cy="15.8336" r="0.5" fill="rgb(0,0,0)" />
<circle cx="0.451759" cy="3.48446" r="0.5" fill="rgb(0,0,0)" />
<circle cx="8.2476" cy="18.0286" r="0.5" fill="rgb(0,0,0)" />
<circle cx="3.42459" cy="18.4346" r="0.5" fill="rgb(0,0,0)" />
<circle cx="9.40492" cy="10.5362" r="0.5" fill="rgb(0,0,0)" />
<circle cx="8.28155" cy="12.8792" r="0.5" fill="rgb(0,0,0)" />
<circle cx="15.0898" cy="18.6651" r="0.5" fill="rgb(0,0,0)" />
<circle cx="13.1945" cy="18.5041" r="0.5" fill="rgb(0,0,0)" />
<circle cx="15.2843" cy="5.07417" r="0.5" fill="rgb(0,0,0)" />
<circle cx="8.05298" cy="18.6407" r="0.5" fill="rgb(0,0,0)" />
<circle cx="16.4805" cy="2.11827" r="0.5" fill="rgb(0,0,0)" />
<circle cx="1.47381" cy="3.64913" r="0.5" fill="rgb(0,0,0)" />
<circle cx="16.651" cy="18.3124" r="0.5" fill="rgb(0,0,0)" />
<circle cx="6.05117" cy="18.5181" r="0.5" fill="rgb(0,0,0)" />
<circle cx="0.471408" cy="6.82353" r="0.5" fill="rgb(0,0,0)" />
<circle cx="0.408847" cy="5.11726" r="0.5" fill="rgb(0,0,0)" />
<circle cx="4.75024" cy="10.2085" r="0.5" fill="rgb(0,0,0)" />
<circle cx="0.499592" cy="1.29492" r="0.5" fill="rgb(0,0,0)" />
<circle cx="10.5193" cy="1.35478" r="0.5" fill="rgb(0,0,0)" />
<circle cx="1.90755" cy="0.488943" r="0.5" fill="rgb(0,0,0)" />
<circle cx="0.27538" cy="17.6651" r="0.5" fill="rgb(0,0,0)" />
<circle cx="0.370721" cy="18.4709" r="0.5" fill="rgb(0,0,0)" />
<circle cx="2.11263" cy="18.5996" r="0.5" fill="rgb(0,0,0)" />
<circle cx="1.08776" cy="18.5812" r="0.5" fill="rgb(0,0,0)" />
<circle cx="17.8128" cy="18.5834" r="0.5" fill="rgb(0,0,0)" />
<circle cx="18.5452" cy="18.3754" r="0.5" fill="rgb(0,0,0)" />
<circle cx="0.432639" cy="8.63445" r="0.5" fill="rgb(0,0,0)" />
<circle cx="18.6573" cy="17.2968" r="0.5" fill="rgb(0,0,0)" />
</svg>
