<?xml version="1.0" ?>
<!DOCTYPE svg PUBLIC "-//W3C//DTD SVG 1.1//EN" "http://www.w3.org/Graphics/SVG/1.1/DTD/svg11.dtd">
<svg width="20" height="20" version="1.1" xmlns="http://www.w3.org/2000/svg">
<circle cx="6.00539" cy="0.412922" r="0.5" fill="rgb(0,0,0)" />
<circle cx="12.7473" cy="0.481798" r="0.5" fill="rgb(0,0,0)" />
<circle cx="15.4082" cy="0.498577" r="0.5" fill="rgb(0,0,0)" />
<circle cx="8.19023" cy="0.522966" r="0.5" fill="rgb(0,0,0)" />
<circle cx="17.0813" cy="0.618823" r="0.5" fill="rgb(0,0,0)" />
<circle cx="10.5615" cy="0.648084" r="0.5" fill="rgb(0,0,0)" />
<circle cx="14.3263" cy="1.0021" r="0.5" fill="rgb(0,0,0)" />
<circle cx="5.68135" cy="1.45943" r="0.5" fill="rgb(0,0,0)" />
<circle cx="3.85645" cy="1.92344" r="0.5" fill="rgb(0,0,0)" />
<circle cx="5.92757" cy="2.41881" r="0.5" fill="rgb(0,0,0)" />
<circle cx="4.88069" cy="2.73801" r="0.5" fill="rgb(0,0,0)" />
<circle cx="7.79595" cy="2.30262" r="0.5" fill="rgb(0,0,0)" />
<circle cx="18.0029" cy="1.87948" r="0.5" fill="rgb(0,0,0)" />
<circle cx="18.4146" cy="0.597556" r="0.5" fill="rgb(0,0,0)" />
<circle cx="14.4419" cy="3.11362" r="0.5" fill="rgb(0,0,0)" />
<circle cx="16.7865" cy="3.24581" r="0.5" fill="rgb(0,0,0)" />
<circle cx="4.0601" cy="3.56896" r="0.5" fill="rgb(0,0,0)" />
<circle cx="3.16138" cy="3.11695" r="0.5" fill="rgb(0,0,0)" />
<circle cx="10.069" cy="3.70342" r="0.5" fill="rgb(0,0,0)" />
<circle cx="6.45734" cy="4.76934" r="0.5" fill="rgb(0,0,0)" />
<circle cx="3.99455" cy="4.65601" r="0.5" fill="rgb(0,0,0)" />
<circle cx="8.07614" cy="4.82731" r="0.5" fill="rgb(0,0,0)" />
<circle cx="16.8599" cy="5.32431" r="0.5" fill="rgb(0,0,0)" />
<circle cx="6.50219" cy="5.65368" r="0.5" fill="rgb(0,0,0)" />
<circle cx="12.3682" cy="5.51776" r="0.5" fill="rgb(0,0,0)" />
<circle cx="14.1585" cy="5.72963" r="0.5" fill="rgb(0,0,0)" />
<circle cx="11.6571" cy="2.58078" r="0.5" fill="rgb(0,0,0)" />
<circle cx="7.56353" cy="6.04575" r="0.5" fill="rgb(0,0,0)" />
<circle cx="4.13106" cy="5.89029" r="0.5" fill="rgb(0,0,0)" />
<circle cx="5.30146" cy="4.78655" r="0.5" fill="rgb(0,0,0)" />
<circle cx="17.0539" cy="6.36574" r="0.5" fill="rgb(0,0,0)" />
<circle cx="10.3848" cy="2.47266" r="0.5" fill="rgb(0,0,0)" />
<circle cx="6.64477" cy="6.83963" r="0.5" fill="rgb(0,0,0)" />
<circle cx="8.089" cy="7.086" r="0.5" fill="rgb(0,0,0)" />
<circle cx="12.7928" cy="7.02337" r="0.5" fill="rgb(0,0,0)" />
<circle cx="3.22891" cy="7.05246" r="0.5" fill="rgb(0,0,0)" />
<circle cx="6.38863" cy="7.65717" r="0.5" fill="rgb(0,0,0)" />
<circle cx="4.74054" cy="7.41271" r="0.5" fill="rgb(0,0,0)" />
<circle cx="14.3512" cy="7.14518" r="0.5" fill="rgb(0,0,0)" />
<circle cx="15.6122" cy="7.34624" r="0.5" fill="rgb(0,0,0)" />
<circle cx="2.61071" cy="8.17219" r="0.5" fill="rgb(0,0,0)" />
<circle cx="9.08889" cy="7.86307" r="0.5" fill="rgb(0,0,0)" />
<circle cx="3.87283" cy="8.63357" r="0.5" fill="rgb(0,0,0)" />
<circle cx="16.1875" cy="8.67407" r="0.5" fill="rgb(0,0,0)" />
<circle cx="7.01443" cy="1.24934" r="0.5" fill="rgb(0,0,0)" />
<circle cx="7.13824" cy="9.18869" r="0.5" fill="rgb(0,0,0)" />
<circle cx="16.2905" cy="1.77997" r="0.5" fill="rgb(0,0,0)" />
<circle cx="5.0141" cy="9.07289" r="0.5" fill="rgb(0,0,0)" />
<circle cx="2.54519" cy="4.94938" r="0.5" fill="rgb(0,0,0)" />
<circle cx="5.98771" cy="8.62926" r="0.5" fill="rgb(0,0,0)" />
<circle cx="12.1952" cy="8.4747" r="0.5" fill="rgb(0,0,0)" />
<circle cx="3.70471" cy="9.66138" r="0.5" fill="rgb(0,0,0)" />
<circle cx="14.6451" cy="9.29879" r="0.5" fill="rgb(0,0,0)" />
<circle cx="7.14609" cy="3.35184" r="0.5" fill="rgb(0,0,0)" />
<circle cx="15.3319" cy="3.85337" r="0.5" fill="rgb(0,0,0)" />
<circle cx="9.71784" cy="9.49797" r="0.5" fill="rgb(0,0,0)" />
<circle cx="11.3873" cy="9.36555" r="0.5" fill="rgb(0,0,0)" />
<circle cx="1.89815" cy="10.3022" r="0.5" fill="rgb(0,0,0)" />
<circle cx="16.3578" cy="10.169" r="0.5" fill="rgb(0,0,0)" />
<circle cx="3.23422" cy="10.7216" r="0.5" fill="rgb(0,0,0)" />
<circle cx="13.0307" cy="2.53353" r="0.5" fill="rgb(0,0,0)" />
<circle cx="16.2385" cy="4.42533" r="0.5" fill="rgb(0,0,0)" />
<circle cx="7.65415" cy="10.4326" r="0.5" fill="rgb(0,0,0)" />
<circle cx="15.4188" cy="2.49664" r="0.5" fill="rgb(0,0,0)" />
<circle cx="2.02267" cy="3.51337" r="0.5" fill="rgb(0,0,0)" />
<circle cx="13.5847" cy="10.5608" r="0.5" fill="rgb(0,0,0)" />
<circle cx="6.26844" cy="3.65472" r="0.5" fill="rgb(0,0,0)" />
<circle cx="14.9751" cy="11.0324" r="0.5" fill="rgb(0,0,0)" />
<circle cx="12.2672" cy="10.83" r="0.5" fill="rgb(0,0,0)" />
<circle cx="10.7759" cy="10.9487" r="0.5" fill="rgb(0,0,0)" />
<circle cx="1.19637" cy="7.98464" r="0.5" fill="rgb(0,0,0)" />
<circle cx="16.2113" cy="12.0011" r="0.5" fill="rgb(0,0,0)" />
<circle cx="14.8089" cy="12.4616" r="0.5" fill="rgb(0,0,0)" />
<circle cx="10.2692" cy="12.2853" r="0.5" fill="rgb(0,0,0)" />
<circle cx="2.67017" cy="12.0944" r="0.5" fill="rgb(0,0,0)" />
<circle cx="13.4698" cy="12.4614" r="0.5" fill="rgb(0,0,0)" />
<circle cx="6.19671" cy="12.4167" r="0.5" fill="rgb(0,0,0)" />
<circle cx="11.3277" cy="7.02021" r="0.5" fill="rgb(0,0,0)" />
<circle cx="9.06257" cy="12.3061" r="0.5" fill="rgb(0,0,0)" />
<circle cx="7.78683" cy="12.3523" r="0.5" fill="rgb(0,0,0)" />
<circle cx="2.00731" cy="2.04855" r="0.5" fill="rgb(0,0,0)" />
<circle cx="10.5525" cy="13.4556" r="0.5" fill="rgb(0,0,0)" />
<circle cx="9.14521" cy="6.12025" r="0.5" fill="rgb(0,0,0)" />
<circle cx="16.5255" cy="13.5787" r="0.5" fill="rgb(0,0,0)" />
<circle cx="2.8367" cy="9.75067" r="0.5" fill="rgb(0,0,0)" />
<circle cx="14.0224" cy="14.1034" r="0.5" fill="rgb(0,0,0)" />
<circle cx="1.99124" cy="13.8417" r="0.5" fill="rgb(0,0,0)" />
<circle cx="15.5086" cy="14.4771" r="0.5" fill="rgb(0,0,0)" />
<circle cx="12.5852" cy="14.2128" r="0.5" fill="rgb(0,0,0)" />
<circle cx="3.49145" cy="14.4343" r="0.5" fill="rgb(0,0,0)" />
<circle cx="6.37972" cy="14.1382" r="0.5" fill="rgb(0,0,0)" />
<circle cx="15.6727" cy="6.0501" r="0.5" fill="rgb(0,0,0)" />
<circle cx="8.52157" cy="14.4532" r="0.5" fill="rgb(0,0,0)" />
<circle cx="5.03052" cy="14.963" r="0.5" fill="rgb(0,0,0)" />
<circle cx="13.2846" cy="15.2258" r="0.5" fill="rgb(0,0,0)" />
<circle cx="8.66805" cy="3.57141" r="0.5" fill="rgb(0,0,0)" />
<circle cx="14.1074" cy="15.7952" r="0.5" fill="rgb(0,0,0)" />
<circle cx="13.992" cy="2.04989" r="0.5" fill="rgb(0,0,0)" />
<circle cx="16.3528" cy="15.4293" r="0.5" fill="rgb(0,0,0)" />
<circle cx="0.683739" cy="5.18116" r="0.5" fill="rgb(0,0,0)" />
<circle cx="17.0574" cy="7.77948" r="0.5" fill="rgb(0,0,0)" />
<circle cx="5.79984" cy="15.8597" r="0.5" fill="rgb(0,0,0)" />
<circle cx="4.26117" cy="0.635748" r="0.5" fill="rgb(0,0,0)" />
<circle cx="9.22838" cy="1.64782" r="0.5" fill="rgb(0,0,0)" />
<circle cx="2.5673" cy="9.18993" r="0.5" fill="rgb(0,0,0)" />
<circle cx="4.23877" cy="15.8634" r="0.5" fill="rgb(0,0,0)" />
<circle cx="11.5841" cy="15.3099" r="0.5" fill="rgb(0,0,0)" />
<circle cx="6.60673" cy="16.4013" r="0.5" fill="rgb(0,0,0)" />
<circle cx="1.90614" cy="16.358" r="0.5" fill="rgb(0,0,0)" />
<circle cx="3.27008" cy="16.066" r="0.5" fill="rgb(0,0,0)" />
<circle cx="7.54063" cy="15.8442" r="0.5" fill="rgb(0,0,0)" />
<circle cx="12.5206" cy="16.3257" r="0.5" fill="rgb(0,0,0)" />
<circle cx="15.1739" cy="16.5459" r="0.5" fill="rgb(0,0,0)" />
<circle cx="4.55855" cy="16.8495" r="0.5" fill="rgb(0,0,0)" />
<circle cx="2.217" cy="15.3336" r="0.5" fill="rgb(0,0,0)" />
<circle cx="1.36786" cy="17.1549" r="0.5" fill="rgb(0,0,0)" />
<circle cx="10.2717" cy="6.83919" r="0.5" fill="rgb(0,0,0)" />
<circle cx="14.0565" cy="17.0056" r="0.5" fill="rgb(0,0,0)" />
<circle cx="16.3777" cy="16.8771" r="0.5" fill="rgb(0,0,0)" />
<circle cx="9.11734" cy="16.4701" r="0.5" fill="rgb(0,0,0)" />
<circle cx="17.683" cy="17.1865" r="0.5" fill="rgb(0,0,0)" />
<circle cx="5.70293" cy="17.3166" r="0.5" fill="rgb(0,0,0)" />
<circle cx="17.578" cy="15.0813" r="0.5" fill="rgb(0,0,0)" />
<circle cx="2.89147" cy="17.3463" r="0.5" fill="rgb(0,0,0)" />
<circle cx="12.2779" cy="1.52869" r="0.5" fill="rgb(0,0,0)" />
<circle cx="15.2788" cy="5.07375" r="0.5" fill="rgb(0,0,0)" />
<circle cx="12.8491" cy="17.5088" r="0.5" fill="rgb(0,0,0)" />
<circle cx="1.69855" cy="17.8702" r="0.5" fill="rgb(0,0,0)" />
<circle cx="10.2945" cy="5.10914" r="0.5" fill="rgb(0,0,0)" />
<circle cx="8.14422" cy="17.6568" r="0.5" fill="rgb(0,0,0)" />
<circle cx="4.73001" cy="10.3332" r="0.5" fill="rgb(0,0,0)" />
<circle cx="15.4643" cy="17.8858" r="0.5" fill="rgb(0,0,0)" />
<circle cx="6.96978" cy="17.6309" r="0.5" fill="rgb(0,0,0)" />
<circle cx="18.2978" cy="3.08627" r="0.5" fill="rgb(0,0,0)" />
<circle cx="7.50912" cy="8.09231" r="0.5" fill="rgb(0,0,0)" />
<circle cx="14.2125" cy="18.1133" r="0.5" fill="rgb(0,0,0)" />
<circle cx="11.7801" cy="4.09278" r="0.5" fill="rgb(0,0,0)" />
<circle cx="15.0665" cy="13.4902" r="0.5" fill="rgb(0,0,0)" />
<circle cx="0.652798" cy="3.51526" r="0.5" fill="rgb(0,0,0)" />
<circle cx="17.9407" cy="11.4536" r="0.5" fill="rgb(0,0,0)" />
<circle cx="13.2042" cy="3.68773" r="0.5" fill="rgb(0,0,0)" />
<circle cx="4.49541" cy="18.0897" r="0.5" fill="rgb(0,0,0)" />
<circle cx="12.8274" cy="18.5401" r="0.5" fill="rgb(0,0,0)" />
<circle cx="11.2545" cy="17.5892" r="0.5" fill="rgb(0,0,0)" />
<circle cx="4.31016" cy="13.2451" r="0.5" fill="rgb(0,0,0)" />
<circle cx="18.0522" cy="9.57426" r="0.5" fill="rgb(0,0,0)" />
<circle cx="13.6329" cy="8.41171" r="0.5" fill="rgb(0,0,0)" />
<circle cx="15.0116" cy="15.3119" r="0.5" fill="rgb(0,0,0)" />
<circle cx="18.3673" cy="8.12516" r="0.5" fill="rgb(0,0,0)" />
<circle cx="15.1518" cy="18.6638" r="0.5" fill="rgb(0,0,0)" />
<circle cx="16.7204" cy="18.223" r="0.5" fill="rgb(0,0,0)" />
<circle cx="1.88313" cy="6.06042" r="0.5" fill="rgb(0,0,0)" />
<circle cx="4.55581" cy="11.6767" r="0.5" fill="rgb(0,0,0)" />
<circle cx="12.1311" cy="12.8383" r="0.5" fill="rgb(0,0,0)" />
<circle cx="18.387" cy="6.00121" r="0.5" fill="rgb(0,0,0)" />
<circle cx="18.1751" cy="7.00348" r="0.5" fill="rgb(0,0,0)" />
<circle cx="0.95623" cy="11.2889" r="0.5" fill="rgb(0,0,0)" />
<circle cx="18.4069" cy="4.8248" r="0.5" fill="rgb(0,0,0)" />
<circle cx="9.9854" cy="17.9035" r="0.5" fill="rgb(0,0,0)" />
<circle cx="18.0726" cy="13.378" r="0.5" fill="rgb(0,0,0)" />
<circle cx="17.5801" cy="4.27713" r="0.5" fill="rgb(0,0,0)" />
<circle cx="0.621357" cy="14.9024" r="0.5" fill="rgb(0,0,0)" />
<circle cx="13.9877" cy="4.49748" r="0.5" fill="rgb(0,0,0)" />
<circle cx="0.502137" cy="16.6019" r="0.5" fill="rgb(0,0,0)" />
<circle cx="5.23494" cy="3.67118" r="0.5" fill="rgb(0,0,0)" />
<circle cx="1.71085" cy="7.16031" r="0.5" fill="rgb(0,0,0)" />
<circle cx="0.464785" cy="6.79327" r="0.5" fill="rgb(0,0,0)" />
<circle cx="10.2755" cy="8.40212" r="0.5" fill="rgb(0,0,0)" />
<circle cx="0.465606" cy="10.0917" r="0.5" fill="rgb(0,0,0)" />
<circle cx="0.737998" cy="12.8239" r="0.5" fill="rgb(0,0,0)" />
<circle cx="0.431122" cy="8.63228" r="0.5" fill="rgb(0,0,0)" />
<circle cx="18.3899" cy="15.8152" r="0.5" fill="rgb(0,0,0)" />
<circle cx="10.3163" cy="15.0774" r="0.5" fill="rgb(0,0,0)" />
<circle cx="3.31763" cy="18.4352" r="0.5" fill="rgb(0,0,0)" />
<circle cx="6.22068" cy="10.5032" r="0.5" fill="rgb(0,0,0)" />
<circle cx="8.37471" cy="18.5795" r="0.5" fill="rgb(0,0,0)" />
<circle cx="6.07673" cy="18.484" r="0.5" fill="rgb(0,0,0)" />
<circle cx="1.48904" cy="9.14281" r="0.5" fill="rgb(0,0,0)" />
<circle cx="0.550387" cy="1.29744" r="0.5" fill="rgb(0,0,0)" />
<circle cx="5.55778" cy="6.31046" r="0.5" fill="rgb(0,0,0)" />
<circle cx="8.42985" cy="9.02996" r="0.5" fill="rgb(0,0,0)" />
<circle cx="2.1144" cy="0.581765" r="0.5" fill="rgb(0,0,0)" />
<circle cx="1.65358" cy="18.605" r="0.5" fill="rgb(0,0,0)" />
<circle cx="0.429356" cy="18.1739" r="0.5" fill="rgb(0,0,0)" />
<circle cx="18.1207" cy="18.5211" r="0.5" fill="rgb(0,0,0)" />
<circle cx="9.05028" cy="10.5935" r="0.5" fill="rgb(0,0,0)" />
<circle cx="18.5934" cy="17.5068" r="0.5" fill="rgb(0,0,0)" />
</svg>
