<?xml version="1.0" ?>
<!DOCTYPE svg PUBLIC "-//W3C//DTD SVG 1.1//EN" "http://www.w3.org/Graphics/SVG/1.1/DTD/svg11.dtd">
<svg width="20" height="20" version="1.1" xmlns="http://www.w3.org/2000/svg">
<circle cx="16.5109" cy="1.47863" r="0.5" fill="rgb(0,0,0)" />
<circle cx="11.0669" cy="0.866958" r="0.5" fill="rgb(0,0,0)" />
<circle cx="5.66296" cy="1.18042" r="0.5" fill="rgb(0,0,0)" />
<circle cx="12.2797" cy="2.0889" r="0.5" fill="rgb(0,0,0)" />
<circle cx="15.6112" cy="2.64929" r="0.5" fill="rgb(0,0,0)" />
<circle cx="8.32134" cy="1.30296" r="0.5" fill="rgb(0,0,0)" />
<circle cx="17.2303" cy="3.79765" r="0.5" fill="rgb(0,0,0)" />
<circle cx="9.57044" cy="3.52216" r="0.5" fill="rgb(0,0,0)" />
<circle cx="16.3538" cy="5.13954" r="0.5" fill="rgb(0,0,0)" />
<circle cx="5.65838" cy="3.78689" r="0.5" fill="rgb(0,0,0)" />
<circle cx="14.0817" cy="5.59045" r="0.5" fill="rgb(0,0,0)" />
<circle cx="7.1945" cy="5.1331" r="0.5" fill="rgb(0,0,0)" />
<circle cx="10.0841" cy="6.38153" r="0.5" fill="rgb(0,0,0)" />
<circle cx="14.4934" cy="0.701942" r="0.5" fill="rgb(0,0,0)" />
<circle cx="12.2346" cy="7.02259" r="0.5" fill="rgb(0,0,0)" />
<circle cx="7.82066" cy="7.50872" r="0.5" fill="rgb(0,0,0)" />
<circle cx="14.963" cy="7.87306" r="0.5" fill="rgb(0,0,0)" />
<circle cx="5.28727" cy="7.99981" r="0.5" fill="rgb(0,0,0)" />
<circle cx="13.0715" cy="8.95988" r="0.5" fill="rgb(0,0,0)" />
<circle cx="14.3856" cy="10.8745" r="0.5" fill="rgb(0,0,0)" />
<circle cx="4.17502" cy="11.5524" r="0.5" fill="rgb(0,0,0)" />
<circle cx="14.9772" cy="12.8052" r="0.5" fill="rgb(0,0,0)" />
<circle cx="12.3582" cy="12.9582" r="0.5" fill="rgb(0,0,0)" />
<circle cx="9.8147" cy="12.9915" r="0.5" fill="rgb(0,0,0)" />
<circle cx="16.9902" cy="9.93164" r="0.5" fill="rgb(0,0,0)" />
<circle cx="14.8047" cy="14.7575" r="0.5" fill="rgb(0,0,0)" />
<circle cx="4.61659" cy="14.2984" r="0.5" fill="rgb(0,0,0)" />
<circle cx="12.0507" cy="4.39278" r="0.5" fill="rgb(0,0,0)" />
<circle cx="11.3258" cy="10.6253" r="0.5" fill="rgb(0,0,0)" />
<circle cx="10.2272" cy="15.351" r="0.5" fill="rgb(0,0,0)" />
<circle cx="12.5723" cy="15.2303" r="0.5" fill="rgb(0,0,0)" />
<circle cx="14.0219" cy="16.1892" r="0.5" fill="rgb(0,0,0)" />
<circle cx="16.1008" cy="16.4597" r="0.5" fill="rgb(0,0,0)" />
<circle cx="2.19304" cy="15.6945" r="0.5" fill="rgb(0,0,0)" />
<circle cx="14.212" cy="17.8248" r="0.5" fill="rgb(0,0,0)" />
<circle cx="3.31005" cy="3.50127" r="0.5" fill="rgb(0,0,0)" />
<circle cx="12.7917" cy="18.1519" r="0.5" fill="rgb(0,0,0)" />
<circle cx="11.3725" cy="17.5322" r="0.5" fill="rgb(0,0,0)" />
<circle cx="2.60715" cy="9.72722" r="0.5" fill="rgb(0,0,0)" />
<circle cx="17.6978" cy="12.1872" r="0.5" fill="rgb(0,0,0)" />
<circle cx="1.27011" cy="12.9601" r="0.5" fill="rgb(0,0,0)" />
<circle cx="1.09353" cy="4.10687" r="0.5" fill="rgb(0,0,0)" />
<circle cx="16.4308" cy="6.80228" r="0.5" fill="rgb(0,0,0)" />
<circle cx="0.821822" cy="9.09678" r="0.5" fill="rgb(0,0,0)" />
<circle cx="1.07948" cy="6.50759" r="0.5" fill="rgb(0,0,0)" />
<circle cx="15.0407" cy="4.13764" r="0.5" fill="rgb(0,0,0)" />
<circle cx="9.38798" cy="9.45055" r="0.5" fill="rgb(0,0,0)" />
<circle cx="17.9741" cy="8.04011" r="0.5" fill="rgb(0,0,0)" />
<circle cx="9.11891" cy="17.6484" r="0.5" fill="rgb(0,0,0)" />
<circle cx="18.1303" cy="15.1612" r="0.5" fill="rgb(0,0,0)" />
<circle cx="6.49002" cy="17.6166" r="0.5" fill="rgb(0,0,0)" />
<circle cx="6.54007" cy="10.3221" r="0.5" fill="rgb(0,0,0)" />
<circle cx="15.6939" cy="18.2295" r="0.5" fill="rgb(0,0,0)" />
<circle cx="16.6786" cy="14.3044" r="0.5" fill="rgb(0,0,0)" />
<circle cx="7.33753" cy="15.2044" r="0.5" fill="rgb(0,0,0)" />
<circle cx="17.218" cy="17.9392" r="0.5" fill="rgb(0,0,0)" />
<circle cx="18.3503" cy="17.5626" r="0.5" fill="rgb(0,0,0)" />
<circle cx="13.8576" cy="2.77003" r="0.5" fill="rgb(0,0,0)" />
<circle cx="18.1755" cy="5.51807" r="0.5" fill="rgb(0,0,0)" />
<circle cx="0.959451" cy="1.40523" r="0.5" fill="rgb(0,0,0)" />
<circle cx="7.54711" cy="12.4786" r="0.5" fill="rgb(0,0,0)" />
<circle cx="3.15658" cy="1.01514" r="0.5" fill="rgb(0,0,0)" />
<circle cx="3.53341" cy="6.42465" r="0.5" fill="rgb(0,0,0)" />
<circle cx="3.92401" cy="17.6362" r="0.5" fill="rgb(0,0,0)" />
<circle cx="0.943018" cy="17.4669" r="0.5" fill="rgb(0,0,0)" />
<circle cx="18.2162" cy="2.69005" r="0.5" fill="rgb(0,0,0)" />
<circle cx="17.8599" cy="0.699366" r="0.5" fill="rgb(0,0,0)" />
</svg>
