<?xml version="1.0" ?>
<!DOCTYPE svg PUBLIC "-//W3C//DTD SVG 1.1//EN" "http://www.w3.org/Graphics/SVG/1.1/DTD/svg11.dtd">
<svg width="20" height="20" version="1.1" xmlns="http://www.w3.org/2000/svg">
<circle cx="6.07731" cy="0.411956" r="0.5" fill="rgb(0,0,0)" />
<circle cx="12.7977" cy="0.558512" r="0.5" fill="rgb(0,0,0)" />
<circle cx="8.3138" cy="0.534982" r="0.5" fill="rgb(0,0,0)" />
<circle cx="5.53636" cy="1.44606" r="0.5" fill="rgb(0,0,0)" />
<circle cx="10.5317" cy="0.702526" r="0.5" fill="rgb(0,0,0)" />
<circle cx="14.023" cy="1.70415" r="0.5" fill="rgb(0,0,0)" />
<circle cx="1.96414" cy="2.05073" r="0.5" fill="rgb(0,0,0)" />
<circle cx="6.08222" cy="2.49586" r="0.5" fill="rgb(0,0,0)" />
<circle cx="15.3996" cy="2.44587" r="0.5" fill="rgb(0,0,0)" />
<circle cx="9.16053" cy="1.84062" r="0.5" fill="rgb(0,0,0)" />
<circle cx="4.86413" cy="2.74099" r="0.5" fill="rgb(0,0,0)" />
<circle cx="7.90652" cy="2.76421" r="0.5" fill="rgb(0,0,0)" />
<circle cx="3.09956" cy="3.10427" r="0.5" fill="rgb(0,0,0)" />
<circle cx="10.25" cy="2.99296" r="0.5" fill="rgb(0,0,0)" />
<circle cx="3.93351" cy="3.76883" r="0.5" fill="rgb(0,0,0)" />
<circle cx="6.71574" cy="3.63055" r="0.5" fill="rgb(0,0,0)" />
<circle cx="13.2541" cy="3.80002" r="0.5" fill="rgb(0,0,0)" />
<circle cx="1.80093" cy="3.44178" r="0.5" fill="rgb(0,0,0)" />
<circle cx="17.5399" cy="4.26148" r="0.5" fill="rgb(0,0,0)" />
<circle cx="4.32074" cy="4.81537" r="0.5" fill="rgb(0,0,0)" />
<circle cx="11.7047" cy="4.15562" r="0.5" fill="rgb(0,0,0)" />
<circle cx="8.39533" cy="4.40184" r="0.5" fill="rgb(0,0,0)" />
<circle cx="10.1128" cy="4.9293" r="0.5" fill="rgb(0,0,0)" />
<circle cx="5.81949" cy="5.76308" r="0.5" fill="rgb(0,0,0)" />
<circle cx="1.67105" cy="5.75049" r="0.5" fill="rgb(0,0,0)" />
<circle cx="12.8938" cy="2.58062" r="0.5" fill="rgb(0,0,0)" />
<circle cx="17.9318" cy="6.77636" r="0.5" fill="rgb(0,0,0)" />
<circle cx="4.29181" cy="6.1432" r="0.5" fill="rgb(0,0,0)" />
<circle cx="9.8866" cy="6.56229" r="0.5" fill="rgb(0,0,0)" />
<circle cx="14.1685" cy="6.75553" r="0.5" fill="rgb(0,0,0)" />
<circle cx="1.7292" cy="7.12916" r="0.5" fill="rgb(0,0,0)" />
<circle cx="3.43277" cy="7.06041" r="0.5" fill="rgb(0,0,0)" />
<circle cx="16.9349" cy="7.3417" r="0.5" fill="rgb(0,0,0)" />
<circle cx="16.8806" cy="0.582347" r="0.5" fill="rgb(0,0,0)" />
<circle cx="9.05107" cy="7.86496" r="0.5" fill="rgb(0,0,0)" />
<circle cx="6.33417" cy="7.56669" r="0.5" fill="rgb(0,0,0)" />
<circle cx="5.15335" cy="7.91226" r="0.5" fill="rgb(0,0,0)" />
<circle cx="13.3778" cy="5.1021" r="0.5" fill="rgb(0,0,0)" />
<circle cx="10.4272" cy="8.26149" r="0.5" fill="rgb(0,0,0)" />
<circle cx="7.15403" cy="1.36183" r="0.5" fill="rgb(0,0,0)" />
<circle cx="7.1993" cy="8.22019" r="0.5" fill="rgb(0,0,0)" />
<circle cx="5.33771" cy="3.97458" r="0.5" fill="rgb(0,0,0)" />
<circle cx="16.3348" cy="8.6435" r="0.5" fill="rgb(0,0,0)" />
<circle cx="5.93126" cy="6.70674" r="0.5" fill="rgb(0,0,0)" />
<circle cx="2.35975" cy="9.08123" r="0.5" fill="rgb(0,0,0)" />
<circle cx="12.1297" cy="8.17344" r="0.5" fill="rgb(0,0,0)" />
<circle cx="3.8464" cy="8.7974" r="0.5" fill="rgb(0,0,0)" />
<circle cx="5.24164" cy="9.09959" r="0.5" fill="rgb(0,0,0)" />
<circle cx="8.38047" cy="9.02359" r="0.5" fill="rgb(0,0,0)" />
<circle cx="14.6442" cy="9.32148" r="0.5" fill="rgb(0,0,0)" />
<circle cx="11.6638" cy="9.52587" r="0.5" fill="rgb(0,0,0)" />
<circle cx="9.8466" cy="9.59614" r="0.5" fill="rgb(0,0,0)" />
<circle cx="1.58496" cy="9.92027" r="0.5" fill="rgb(0,0,0)" />
<circle cx="16.3928" cy="10.2455" r="0.5" fill="rgb(0,0,0)" />
<circle cx="7.47293" cy="10.0752" r="0.5" fill="rgb(0,0,0)" />
<circle cx="4.67677" cy="10.417" r="0.5" fill="rgb(0,0,0)" />
<circle cx="9.10131" cy="10.712" r="0.5" fill="rgb(0,0,0)" />
<circle cx="3.06675" cy="10.9171" r="0.5" fill="rgb(0,0,0)" />
<circle cx="6.25442" cy="10.4593" r="0.5" fill="rgb(0,0,0)" />
<circle cx="14.9441" cy="0.6037" r="0.5" fill="rgb(0,0,0)" />
<circle cx="13.2361" cy="10.6341" r="0.5" fill="rgb(0,0,0)" />
<circle cx="14.9265" cy="11.0169" r="0.5" fill="rgb(0,0,0)" />
<circle cx="11.421" cy="11.0363" r="0.5" fill="rgb(0,0,0)" />
<circle cx="10.4036" cy="12.0272" r="0.5" fill="rgb(0,0,0)" />
<circle cx="14.3308" cy="12.4295" r="0.5" fill="rgb(0,0,0)" />
<circle cx="16.3077" cy="12.09" r="0.5" fill="rgb(0,0,0)" />
<circle cx="12.5459" cy="12.4707" r="0.5" fill="rgb(0,0,0)" />
<circle cx="4.54516" cy="12.0527" r="0.5" fill="rgb(0,0,0)" />
<circle cx="14.7902" cy="5.21351" r="0.5" fill="rgb(0,0,0)" />
<circle cx="2.70992" cy="12.5053" r="0.5" fill="rgb(0,0,0)" />
<circle cx="7.71604" cy="12.2296" r="0.5" fill="rgb(0,0,0)" />
<circle cx="15.6406" cy="13.284" r="0.5" fill="rgb(0,0,0)" />
<circle cx="2.61496" cy="4.96141" r="0.5" fill="rgb(0,0,0)" />
<circle cx="3.08262" cy="9.80344" r="0.5" fill="rgb(0,0,0)" />
<circle cx="6.37107" cy="12.6018" r="0.5" fill="rgb(0,0,0)" />
<circle cx="14.0857" cy="13.9293" r="0.5" fill="rgb(0,0,0)" />
<circle cx="5.51693" cy="13.7621" r="0.5" fill="rgb(0,0,0)" />
<circle cx="2.52449" cy="8.14355" r="0.5" fill="rgb(0,0,0)" />
<circle cx="10.6962" cy="13.476" r="0.5" fill="rgb(0,0,0)" />
<circle cx="8.31297" cy="14.2683" r="0.5" fill="rgb(0,0,0)" />
<circle cx="4.17569" cy="0.591137" r="0.5" fill="rgb(0,0,0)" />
<circle cx="15.0152" cy="15.1266" r="0.5" fill="rgb(0,0,0)" />
<circle cx="8.38021" cy="6.6395" r="0.5" fill="rgb(0,0,0)" />
<circle cx="12.4316" cy="14.0789" r="0.5" fill="rgb(0,0,0)" />
<circle cx="1.87644" cy="14.5942" r="0.5" fill="rgb(0,0,0)" />
<circle cx="5.00164" cy="15.0288" r="0.5" fill="rgb(0,0,0)" />
<circle cx="5.93885" cy="15.6317" r="0.5" fill="rgb(0,0,0)" />
<circle cx="16.3011" cy="1.71003" r="0.5" fill="rgb(0,0,0)" />
<circle cx="16.4358" cy="15.492" r="0.5" fill="rgb(0,0,0)" />
<circle cx="11.5095" cy="15.3445" r="0.5" fill="rgb(0,0,0)" />
<circle cx="3.59351" cy="15.8648" r="0.5" fill="rgb(0,0,0)" />
<circle cx="7.5264" cy="15.5858" r="0.5" fill="rgb(0,0,0)" />
<circle cx="10.1628" cy="15.0797" r="0.5" fill="rgb(0,0,0)" />
<circle cx="6.68475" cy="16.4936" r="0.5" fill="rgb(0,0,0)" />
<circle cx="15.4059" cy="7.50775" r="0.5" fill="rgb(0,0,0)" />
<circle cx="1.74174" cy="16.29" r="0.5" fill="rgb(0,0,0)" />
<circle cx="4.5817" cy="16.7477" r="0.5" fill="rgb(0,0,0)" />
<circle cx="3.79215" cy="1.85916" r="0.5" fill="rgb(0,0,0)" />
<circle cx="16.9776" cy="5.62263" r="0.5" fill="rgb(0,0,0)" />
<circle cx="15.7173" cy="6.06666" r="0.5" fill="rgb(0,0,0)" />
<circle cx="9.18386" cy="16.3711" r="0.5" fill="rgb(0,0,0)" />
<circle cx="18.0141" cy="1.88027" r="0.5" fill="rgb(0,0,0)" />
<circle cx="14.0379" cy="17.0087" r="0.5" fill="rgb(0,0,0)" />
<circle cx="2.90184" cy="17.0336" r="0.5" fill="rgb(0,0,0)" />
<circle cx="16.0645" cy="14.2699" r="0.5" fill="rgb(0,0,0)" />
<circle cx="16.5366" cy="16.9949" r="0.5" fill="rgb(0,0,0)" />
<circle cx="5.67625" cy="17.3155" r="0.5" fill="rgb(0,0,0)" />
<circle cx="13.272" cy="15.1644" r="0.5" fill="rgb(0,0,0)" />
<circle cx="12.8163" cy="17.4466" r="0.5" fill="rgb(0,0,0)" />
<circle cx="1.67475" cy="17.6281" r="0.5" fill="rgb(0,0,0)" />
<circle cx="12.4607" cy="16.3253" r="0.5" fill="rgb(0,0,0)" />
<circle cx="8.21213" cy="17.4851" r="0.5" fill="rgb(0,0,0)" />
<circle cx="15.2863" cy="17.7949" r="0.5" fill="rgb(0,0,0)" />
<circle cx="11.2987" cy="6.57621" r="0.5" fill="rgb(0,0,0)" />
<circle cx="7.00202" cy="17.7212" r="0.5" fill="rgb(0,0,0)" />
<circle cx="11.8213" cy="1.82525" r="0.5" fill="rgb(0,0,0)" />
<circle cx="15.1555" cy="3.93906" r="0.5" fill="rgb(0,0,0)" />
<circle cx="0.482813" cy="9.36852" r="0.5" fill="rgb(0,0,0)" />
<circle cx="0.877584" cy="11.2869" r="0.5" fill="rgb(0,0,0)" />
<circle cx="17.2167" cy="17.8911" r="0.5" fill="rgb(0,0,0)" />
<circle cx="7.47011" cy="5.89969" r="0.5" fill="rgb(0,0,0)" />
<circle cx="11.249" cy="17.5969" r="0.5" fill="rgb(0,0,0)" />
<circle cx="4.52538" cy="18.1642" r="0.5" fill="rgb(0,0,0)" />
<circle cx="18.3645" cy="0.609882" r="0.5" fill="rgb(0,0,0)" />
<circle cx="6.39266" cy="4.8279" r="0.5" fill="rgb(0,0,0)" />
<circle cx="18.3082" cy="3.12338" r="0.5" fill="rgb(0,0,0)" />
<circle cx="17.9376" cy="13.3908" r="0.5" fill="rgb(0,0,0)" />
<circle cx="0.449305" cy="6.30523" r="0.5" fill="rgb(0,0,0)" />
<circle cx="14.3507" cy="3.14291" r="0.5" fill="rgb(0,0,0)" />
<circle cx="0.597818" cy="4.08582" r="0.5" fill="rgb(0,0,0)" />
<circle cx="12.6718" cy="18.5339" r="0.5" fill="rgb(0,0,0)" />
<circle cx="0.773217" cy="8.0194" r="0.5" fill="rgb(0,0,0)" />
<circle cx="15.9612" cy="18.5346" r="0.5" fill="rgb(0,0,0)" />
<circle cx="14.2082" cy="18.3052" r="0.5" fill="rgb(0,0,0)" />
<circle cx="9.98873" cy="17.9738" r="0.5" fill="rgb(0,0,0)" />
<circle cx="0.806721" cy="13.2671" r="0.5" fill="rgb(0,0,0)" />
<circle cx="15.3065" cy="16.478" r="0.5" fill="rgb(0,0,0)" />
<circle cx="18.0122" cy="11.4652" r="0.5" fill="rgb(0,0,0)" />
<circle cx="18.0299" cy="9.61775" r="0.5" fill="rgb(0,0,0)" />
<circle cx="18.4005" cy="4.82577" r="0.5" fill="rgb(0,0,0)" />
<circle cx="3.21826" cy="18.3249" r="0.5" fill="rgb(0,0,0)" />
<circle cx="3.53518" cy="14.2211" r="0.5" fill="rgb(0,0,0)" />
<circle cx="18.2421" cy="8.08716" r="0.5" fill="rgb(0,0,0)" />
<circle cx="18.4463" cy="6.07755" r="0.5" fill="rgb(0,0,0)" />
<circle cx="9.06952" cy="12.5052" r="0.5" fill="rgb(0,0,0)" />
<circle cx="18.2482" cy="15.9937" r="0.5" fill="rgb(0,0,0)" />
<circle cx="12.594" cy="6.31701" r="0.5" fill="rgb(0,0,0)" />
<circle cx="0.505517" cy="15.6825" r="0.5" fill="rgb(0,0,0)" />
<circle cx="8.38202" cy="18.5487" r="0.5" fill="rgb(0,0,0)" />
<circle cx="16.1981" cy="4.54248" r="0.5" fill="rgb(0,0,0)" />
<circle cx="6.07882" cy="18.4845" r="0.5" fill="rgb(0,0,0)" />
<circle cx="0.537939" cy="1.33417" r="0.5" fill="rgb(0,0,0)" />
<circle cx="16.7364" cy="3.16717" r="0.5" fill="rgb(0,0,0)" />
<circle cx="14.1092" cy="15.8129" r="0.5" fill="rgb(0,0,0)" />
<circle cx="2.08528" cy="0.563442" r="0.5" fill="rgb(0,0,0)" />
<circle cx="13.6165" cy="8.29414" r="0.5" fill="rgb(0,0,0)" />
<circle cx="1.62437" cy="18.5822" r="0.5" fill="rgb(0,0,0)" />
<circle cx="0.448962" cy="17.9178" r="0.5" fill="rgb(0,0,0)" />
<circle cx="17.7453" cy="14.9145" r="0.5" fill="rgb(0,0,0)" />
<circle cx="18.1385" cy="18.5196" r="0.5" fill="rgb(0,0,0)" />
<circle cx="18.3542" cy="17.296" r="0.5" fill="rgb(0,0,0)" />
</svg>
