<?xml version="1.0" ?>
<!DOCTYPE svg PUBLIC "-//W3C//DTD SVG 1.1//EN" "http://www.w3.org/Graphics/SVG/1.1/DTD/svg11.dtd">
<svg width="20" height="20" version="1.1" xmlns="http://www.w3.org/2000/svg">
<circle cx="7.52283" cy="0.170583" r="0.5" fill="rgb(0,0,0)" />
<circle cx="10.3721" cy="0.255224" r="0.5" fill="rgb(0,0,0)" />
<circle cx="13.4366" cy="0.295934" r="0.5" fill="rgb(0,0,0)" />
<circle cx="14.6279" cy="0.197027" r="0.5" fill="rgb(0,0,0)" />
<circle cx="7.54215" cy="0.802657" r="0.5" fill="rgb(0,0,0)" />
<circle cx="12.5264" cy="0.275255" r="0.5" fill="rgb(0,0,0)" />
<circle cx="14.8607" cy="0.712083" r="0.5" fill="rgb(0,0,0)" />
<circle cx="6.73122" cy="1.14875" r="0.5" fill="rgb(0,0,0)" />
<circle cx="4.62154" cy="1.3508" r="0.5" fill="rgb(0,0,0)" />
<circle cx="11.2148" cy="0.689553" r="0.5" fill="rgb(0,0,0)" />
<circle cx="15.8937" cy="0.734848" r="0.5" fill="rgb(0,0,0)" />
<circle cx="1.81729" cy="1.33581" r="0.5" fill="rgb(0,0,0)" />
<circle cx="9.23735" cy="1.76988" r="0.5" fill="rgb(0,0,0)" />
<circle cx="13.4518" cy="2.27571" r="0.5" fill="rgb(0,0,0)" />
<circle cx="6.74358" cy="0.289969" r="0.5" fill="rgb(0,0,0)" />
<circle cx="11.9189" cy="1.86764" r="0.5" fill="rgb(0,0,0)" />
<circle cx="7.87955" cy="1.71066" r="0.5" fill="rgb(0,0,0)" />
<circle cx="3.25514" cy="1.68497" r="0.5" fill="rgb(0,0,0)" />
<circle cx="17.2913" cy="1.90581" r="0.5" fill="rgb(0,0,0)" />
<circle cx="13.055" cy="2.68044" r="0.5" fill="rgb(0,0,0)" />
<circle cx="1.92531" cy="2.48946" r="0.5" fill="rgb(0,0,0)" />
<circle cx="4.99111" cy="2.83011" r="0.5" fill="rgb(0,0,0)" />
<circle cx="0.920145" cy="2.46871" r="0.5" fill="rgb(0,0,0)" />
<circle cx="6.79702" cy="2.98783" r="0.5" fill="rgb(0,0,0)" />
<circle cx="3.15693" cy="2.90449" r="0.5" fill="rgb(0,0,0)" />
<circle cx="18.0917" cy="2.58128" r="0.5" fill="rgb(0,0,0)" />
<circle cx="13.5862" cy="3.08774" r="0.5" fill="rgb(0,0,0)" />
<circle cx="14.2115" cy="2.21084" r="0.5" fill="rgb(0,0,0)" />
<circle cx="12.6422" cy="2.2951" r="0.5" fill="rgb(0,0,0)" />
<circle cx="11.5852" cy="2.66237" r="0.5" fill="rgb(0,0,0)" />
<circle cx="5.15532" cy="3.3258" r="0.5" fill="rgb(0,0,0)" />
<circle cx="15.2984" cy="2.60073" r="0.5" fill="rgb(0,0,0)" />
<circle cx="14.5912" cy="2.98167" r="0.5" fill="rgb(0,0,0)" />
<circle cx="4.38324" cy="3.63877" r="0.5" fill="rgb(0,0,0)" />
<circle cx="14.5627" cy="1.38957" r="0.5" fill="rgb(0,0,0)" />
<circle cx="13.8322" cy="3.70814" r="0.5" fill="rgb(0,0,0)" />
<circle cx="6.49974" cy="3.75865" r="0.5" fill="rgb(0,0,0)" />
<circle cx="16.6935" cy="3.5332" r="0.5" fill="rgb(0,0,0)" />
<circle cx="10.245" cy="3.78473" r="0.5" fill="rgb(0,0,0)" />
<circle cx="7.41562" cy="3.74866" r="0.5" fill="rgb(0,0,0)" />
<circle cx="12.7472" cy="3.53326" r="0.5" fill="rgb(0,0,0)" />
<circle cx="2.79775" cy="3.97548" r="0.5" fill="rgb(0,0,0)" />
<circle cx="15.8935" cy="4.47183" r="0.5" fill="rgb(0,0,0)" />
<circle cx="4.77699" cy="4.35792" r="0.5" fill="rgb(0,0,0)" />
<circle cx="14.6013" cy="4.25532" r="0.5" fill="rgb(0,0,0)" />
<circle cx="9.75852" cy="4.43943" r="0.5" fill="rgb(0,0,0)" />
<circle cx="16.6317" cy="4.43689" r="0.5" fill="rgb(0,0,0)" />
<circle cx="6.34144" cy="4.44343" r="0.5" fill="rgb(0,0,0)" />
<circle cx="16.2986" cy="4.92109" r="0.5" fill="rgb(0,0,0)" />
<circle cx="10.5662" cy="4.88155" r="0.5" fill="rgb(0,0,0)" />
<circle cx="13.2056" cy="4.74227" r="0.5" fill="rgb(0,0,0)" />
<circle cx="1.26173" cy="4.86792" r="0.5" fill="rgb(0,0,0)" />
<circle cx="15.5009" cy="5.25177" r="0.5" fill="rgb(0,0,0)" />
<circle cx="12.1913" cy="4.80524" r="0.5" fill="rgb(0,0,0)" />
<circle cx="18.4481" cy="1.79056" r="0.5" fill="rgb(0,0,0)" />
<circle cx="2.23012" cy="4.80683" r="0.5" fill="rgb(0,0,0)" />
<circle cx="17.889" cy="1.08135" r="0.5" fill="rgb(0,0,0)" />
<circle cx="14.0683" cy="5.14528" r="0.5" fill="rgb(0,0,0)" />
<circle cx="4.47863" cy="5.90521" r="0.5" fill="rgb(0,0,0)" />
<circle cx="8.11545" cy="4.86805" r="0.5" fill="rgb(0,0,0)" />
<circle cx="16.2952" cy="5.44074" r="0.5" fill="rgb(0,0,0)" />
<circle cx="1.55691" cy="5.65886" r="0.5" fill="rgb(0,0,0)" />
<circle cx="5.02084" cy="5.9272" r="0.5" fill="rgb(0,0,0)" />
<circle cx="6.67289" cy="5.57443" r="0.5" fill="rgb(0,0,0)" />
<circle cx="9.87802" cy="5.55548" r="0.5" fill="rgb(0,0,0)" />
<circle cx="9.30255" cy="0.538521" r="0.5" fill="rgb(0,0,0)" />
<circle cx="15.6177" cy="5.90674" r="0.5" fill="rgb(0,0,0)" />
<circle cx="16.9735" cy="5.75374" r="0.5" fill="rgb(0,0,0)" />
<circle cx="3.15999" cy="5.33456" r="0.5" fill="rgb(0,0,0)" />
<circle cx="10.7419" cy="5.82329" r="0.5" fill="rgb(0,0,0)" />
<circle cx="11.9208" cy="3.61692" r="0.5" fill="rgb(0,0,0)" />
<circle cx="18.3303" cy="5.62305" r="0.5" fill="rgb(0,0,0)" />
<circle cx="13.0041" cy="5.88228" r="0.5" fill="rgb(0,0,0)" />
<circle cx="7.43039" cy="6.10271" r="0.5" fill="rgb(0,0,0)" />
<circle cx="6.09632" cy="6.48918" r="0.5" fill="rgb(0,0,0)" />
<circle cx="10.4523" cy="6.54428" r="0.5" fill="rgb(0,0,0)" />
<circle cx="15.6961" cy="6.69149" r="0.5" fill="rgb(0,0,0)" />
<circle cx="17.4472" cy="4.96043" r="0.5" fill="rgb(0,0,0)" />
<circle cx="5.21114" cy="6.61133" r="0.5" fill="rgb(0,0,0)" />
<circle cx="7.78113" cy="2.75916" r="0.5" fill="rgb(0,0,0)" />
<circle cx="9.6448" cy="3.4211" r="0.5" fill="rgb(0,0,0)" />
<circle cx="14.5294" cy="6.65408" r="0.5" fill="rgb(0,0,0)" />
<circle cx="9.39117" cy="6.63023" r="0.5" fill="rgb(0,0,0)" />
<circle cx="3.68692" cy="6.25167" r="0.5" fill="rgb(0,0,0)" />
<circle cx="17.0602" cy="6.63503" r="0.5" fill="rgb(0,0,0)" />
<circle cx="13.5849" cy="6.95279" r="0.5" fill="rgb(0,0,0)" />
<circle cx="0.914015" cy="6.25207" r="0.5" fill="rgb(0,0,0)" />
<circle cx="18.1503" cy="6.88933" r="0.5" fill="rgb(0,0,0)" />
<circle cx="1.54912" cy="7.19729" r="0.5" fill="rgb(0,0,0)" />
<circle cx="6.57492" cy="7.56178" r="0.5" fill="rgb(0,0,0)" />
<circle cx="2.76772" cy="7.05824" r="0.5" fill="rgb(0,0,0)" />
<circle cx="16.0987" cy="7.45941" r="0.5" fill="rgb(0,0,0)" />
<circle cx="10.1653" cy="7.46786" r="0.5" fill="rgb(0,0,0)" />
<circle cx="8.94763" cy="7.48915" r="0.5" fill="rgb(0,0,0)" />
<circle cx="17.0605" cy="7.58727" r="0.5" fill="rgb(0,0,0)" />
<circle cx="11.2151" cy="7.36555" r="0.5" fill="rgb(0,0,0)" />
<circle cx="0.649549" cy="3.70446" r="0.5" fill="rgb(0,0,0)" />
<circle cx="6.08349" cy="8.14259" r="0.5" fill="rgb(0,0,0)" />
<circle cx="7.89543" cy="8.17841" r="0.5" fill="rgb(0,0,0)" />
<circle cx="3.44441" cy="7.95087" r="0.5" fill="rgb(0,0,0)" />
<circle cx="7.18093" cy="8.11207" r="0.5" fill="rgb(0,0,0)" />
<circle cx="5.76864" cy="2.3979" r="0.5" fill="rgb(0,0,0)" />
<circle cx="7.13317" cy="4.78466" r="0.5" fill="rgb(0,0,0)" />
<circle cx="9.2205" cy="8.21916" r="0.5" fill="rgb(0,0,0)" />
<circle cx="9.44334" cy="8.65879" r="0.5" fill="rgb(0,0,0)" />
<circle cx="16.7355" cy="8.40233" r="0.5" fill="rgb(0,0,0)" />
<circle cx="18.0359" cy="7.96778" r="0.5" fill="rgb(0,0,0)" />
<circle cx="2.79531" cy="8.49913" r="0.5" fill="rgb(0,0,0)" />
<circle cx="2.32626" cy="3.0982" r="0.5" fill="rgb(0,0,0)" />
<circle cx="15.7821" cy="8.5103" r="0.5" fill="rgb(0,0,0)" />
<circle cx="4.06865" cy="8.70405" r="0.5" fill="rgb(0,0,0)" />
<circle cx="14.7044" cy="8.63445" r="0.5" fill="rgb(0,0,0)" />
<circle cx="11.1484" cy="4.14953" r="0.5" fill="rgb(0,0,0)" />
<circle cx="8.21145" cy="8.85892" r="0.5" fill="rgb(0,0,0)" />
<circle cx="10.1531" cy="8.39935" r="0.5" fill="rgb(0,0,0)" />
<circle cx="15.3222" cy="9.12387" r="0.5" fill="rgb(0,0,0)" />
<circle cx="6.25155" cy="9.01607" r="0.5" fill="rgb(0,0,0)" />
<circle cx="12.5659" cy="8.97493" r="0.5" fill="rgb(0,0,0)" />
<circle cx="13.88" cy="9.04866" r="0.5" fill="rgb(0,0,0)" />
<circle cx="2.51857" cy="9.31241" r="0.5" fill="rgb(0,0,0)" />
<circle cx="3.45011" cy="9.46957" r="0.5" fill="rgb(0,0,0)" />
<circle cx="5.11932" cy="8.58406" r="0.5" fill="rgb(0,0,0)" />
<circle cx="1.52685" cy="9.21853" r="0.5" fill="rgb(0,0,0)" />
<circle cx="0.513991" cy="8.57878" r="0.5" fill="rgb(0,0,0)" />
<circle cx="11.1142" cy="9.09957" r="0.5" fill="rgb(0,0,0)" />
<circle cx="16.9892" cy="9.26622" r="0.5" fill="rgb(0,0,0)" />
<circle cx="9.76371" cy="9.33374" r="0.5" fill="rgb(0,0,0)" />
<circle cx="8.07578" cy="9.89644" r="0.5" fill="rgb(0,0,0)" />
<circle cx="9.14017" cy="9.86065" r="0.5" fill="rgb(0,0,0)" />
<circle cx="2.89105" cy="9.76794" r="0.5" fill="rgb(0,0,0)" />
<circle cx="6.84023" cy="2.10139" r="0.5" fill="rgb(0,0,0)" />
<circle cx="14.7135" cy="9.80696" r="0.5" fill="rgb(0,0,0)" />
<circle cx="5.65388" cy="10.0138" r="0.5" fill="rgb(0,0,0)" />
<circle cx="6.12133" cy="1.70448" r="0.5" fill="rgb(0,0,0)" />
<circle cx="1.93217" cy="8.43055" r="0.5" fill="rgb(0,0,0)" />
<circle cx="1.90546" cy="10.0669" r="0.5" fill="rgb(0,0,0)" />
<circle cx="13.7853" cy="4.42411" r="0.5" fill="rgb(0,0,0)" />
<circle cx="4.51623" cy="10.2537" r="0.5" fill="rgb(0,0,0)" />
<circle cx="4.51686" cy="2.05767" r="0.5" fill="rgb(0,0,0)" />
<circle cx="6.29265" cy="10.1859" r="0.5" fill="rgb(0,0,0)" />
<circle cx="6.73142" cy="10.0553" r="0.5" fill="rgb(0,0,0)" />
<circle cx="7.11801" cy="10.4484" r="0.5" fill="rgb(0,0,0)" />
<circle cx="13.5082" cy="1.0234" r="0.5" fill="rgb(0,0,0)" />
<circle cx="7.56523" cy="10.8529" r="0.5" fill="rgb(0,0,0)" />
<circle cx="0.308064" cy="4.34891" r="0.5" fill="rgb(0,0,0)" />
<circle cx="0.383534" cy="6.99966" r="0.5" fill="rgb(0,0,0)" />
<circle cx="0.355837" cy="5.35095" r="0.5" fill="rgb(0,0,0)" />
<circle cx="16.9672" cy="10.4962" r="0.5" fill="rgb(0,0,0)" />
<circle cx="8.46004" cy="10.797" r="0.5" fill="rgb(0,0,0)" />
<circle cx="0.270919" cy="9.46305" r="0.5" fill="rgb(0,0,0)" />
<circle cx="4.57071" cy="5.20683" r="0.5" fill="rgb(0,0,0)" />
<circle cx="9.42943" cy="10.6233" r="0.5" fill="rgb(0,0,0)" />
<circle cx="14.4546" cy="7.80109" r="0.5" fill="rgb(0,0,0)" />
<circle cx="14.1914" cy="10.8758" r="0.5" fill="rgb(0,0,0)" />
<circle cx="4.42505" cy="10.978" r="0.5" fill="rgb(0,0,0)" />
<circle cx="4.07662" cy="2.72938" r="0.5" fill="rgb(0,0,0)" />
<circle cx="15.0703" cy="11.2452" r="0.5" fill="rgb(0,0,0)" />
<circle cx="3.75146" cy="10.1463" r="0.5" fill="rgb(0,0,0)" />
<circle cx="8.10029" cy="11.5436" r="0.5" fill="rgb(0,0,0)" />
<circle cx="10.3956" cy="1.33069" r="0.5" fill="rgb(0,0,0)" />
<circle cx="10.6143" cy="10.4871" r="0.5" fill="rgb(0,0,0)" />
<circle cx="1.28562" cy="10.9892" r="0.5" fill="rgb(0,0,0)" />
<circle cx="7.36153" cy="9.03486" r="0.5" fill="rgb(0,0,0)" />
<circle cx="9.3539" cy="11.6795" r="0.5" fill="rgb(0,0,0)" />
<circle cx="14.5248" cy="12.0777" r="0.5" fill="rgb(0,0,0)" />
<circle cx="11.5603" cy="11.5288" r="0.5" fill="rgb(0,0,0)" />
<circle cx="13.372" cy="8.09196" r="0.5" fill="rgb(0,0,0)" />
<circle cx="13.5525" cy="12.0748" r="0.5" fill="rgb(0,0,0)" />
<circle cx="2.11426" cy="11.8554" r="0.5" fill="rgb(0,0,0)" />
<circle cx="4.2535" cy="12.0288" r="0.5" fill="rgb(0,0,0)" />
<circle cx="17.5506" cy="12.4044" r="0.5" fill="rgb(0,0,0)" />
<circle cx="10.5548" cy="12.1662" r="0.5" fill="rgb(0,0,0)" />
<circle cx="15.7901" cy="12.039" r="0.5" fill="rgb(0,0,0)" />
<circle cx="14.4935" cy="12.9076" r="0.5" fill="rgb(0,0,0)" />
<circle cx="16.7326" cy="11.8988" r="0.5" fill="rgb(0,0,0)" />
<circle cx="15.3219" cy="12.7337" r="0.5" fill="rgb(0,0,0)" />
<circle cx="5.04049" cy="12.398" r="0.5" fill="rgb(0,0,0)" />
<circle cx="12.4556" cy="7.18407" r="0.5" fill="rgb(0,0,0)" />
<circle cx="1.47976" cy="12.446" r="0.5" fill="rgb(0,0,0)" />
<circle cx="6.75496" cy="12.5276" r="0.5" fill="rgb(0,0,0)" />
<circle cx="8.29547" cy="12.954" r="0.5" fill="rgb(0,0,0)" />
<circle cx="5.81297" cy="5.87765" r="0.5" fill="rgb(0,0,0)" />
<circle cx="13.5065" cy="13.1367" r="0.5" fill="rgb(0,0,0)" />
<circle cx="5.66408" cy="13.0407" r="0.5" fill="rgb(0,0,0)" />
<circle cx="4.93606" cy="9.5569" r="0.5" fill="rgb(0,0,0)" />
<circle cx="3.52519" cy="11.3254" r="0.5" fill="rgb(0,0,0)" />
<circle cx="14.0947" cy="13.2536" r="0.5" fill="rgb(0,0,0)" />
<circle cx="18.3305" cy="8.79229" r="0.5" fill="rgb(0,0,0)" />
<circle cx="9.56913" cy="12.5493" r="0.5" fill="rgb(0,0,0)" />
<circle cx="12.8897" cy="13.6235" r="0.5" fill="rgb(0,0,0)" />
<circle cx="12.4142" cy="12.8352" r="0.5" fill="rgb(0,0,0)" />
<circle cx="3.96167" cy="13.3525" r="0.5" fill="rgb(0,0,0)" />
<circle cx="5.82505" cy="0.370705" r="0.5" fill="rgb(0,0,0)" />
<circle cx="4.46808" cy="0.471097" r="0.5" fill="rgb(0,0,0)" />
<circle cx="4.78323" cy="13.695" r="0.5" fill="rgb(0,0,0)" />
<circle cx="8.59683" cy="9.2978" r="0.5" fill="rgb(0,0,0)" />
<circle cx="11.9613" cy="10.2002" r="0.5" fill="rgb(0,0,0)" />
<circle cx="3.17629" cy="12.3792" r="0.5" fill="rgb(0,0,0)" />
<circle cx="15.3004" cy="13.6269" r="0.5" fill="rgb(0,0,0)" />
<circle cx="7.85107" cy="13.732" r="0.5" fill="rgb(0,0,0)" />
<circle cx="1.06585" cy="13.4457" r="0.5" fill="rgb(0,0,0)" />
<circle cx="11.4269" cy="13.2287" r="0.5" fill="rgb(0,0,0)" />
<circle cx="15.0935" cy="4.89214" r="0.5" fill="rgb(0,0,0)" />
<circle cx="9.22303" cy="13.6642" r="0.5" fill="rgb(0,0,0)" />
<circle cx="6.35937" cy="11.6044" r="0.5" fill="rgb(0,0,0)" />
<circle cx="2.46664" cy="13.3663" r="0.5" fill="rgb(0,0,0)" />
<circle cx="13.5282" cy="14.1871" r="0.5" fill="rgb(0,0,0)" />
<circle cx="5.51242" cy="14.028" r="0.5" fill="rgb(0,0,0)" />
<circle cx="3.89186" cy="4.45212" r="0.5" fill="rgb(0,0,0)" />
<circle cx="14.6234" cy="13.6254" r="0.5" fill="rgb(0,0,0)" />
<circle cx="16.2003" cy="13.572" r="0.5" fill="rgb(0,0,0)" />
<circle cx="3.27323" cy="14.2377" r="0.5" fill="rgb(0,0,0)" />
<circle cx="17.1412" cy="14.1235" r="0.5" fill="rgb(0,0,0)" />
<circle cx="18.1905" cy="11.3985" r="0.5" fill="rgb(0,0,0)" />
<circle cx="18.2896" cy="9.87901" r="0.5" fill="rgb(0,0,0)" />
<circle cx="8.86622" cy="5.78471" r="0.5" fill="rgb(0,0,0)" />
<circle cx="6.89933" cy="13.9503" r="0.5" fill="rgb(0,0,0)" />
<circle cx="5.5993" cy="1.30818" r="0.5" fill="rgb(0,0,0)" />
<circle cx="5.06955" cy="14.5508" r="0.5" fill="rgb(0,0,0)" />
<circle cx="15.4309" cy="14.4939" r="0.5" fill="rgb(0,0,0)" />
<circle cx="13.4953" cy="1.71859" r="0.5" fill="rgb(0,0,0)" />
<circle cx="8.50021" cy="14.3974" r="0.5" fill="rgb(0,0,0)" />
<circle cx="6.1315" cy="14.3925" r="0.5" fill="rgb(0,0,0)" />
<circle cx="4.21683" cy="14.5413" r="0.5" fill="rgb(0,0,0)" />
<circle cx="8.39668" cy="6.63849" r="0.5" fill="rgb(0,0,0)" />
<circle cx="12.5516" cy="14.4039" r="0.5" fill="rgb(0,0,0)" />
<circle cx="1.72789" cy="14.4125" r="0.5" fill="rgb(0,0,0)" />
<circle cx="17.6642" cy="3.95513" r="0.5" fill="rgb(0,0,0)" />
<circle cx="7.51542" cy="14.707" r="0.5" fill="rgb(0,0,0)" />
<circle cx="3.94699" cy="15.1765" r="0.5" fill="rgb(0,0,0)" />
<circle cx="13.4786" cy="15.0524" r="0.5" fill="rgb(0,0,0)" />
<circle cx="11.8816" cy="0.79009" r="0.5" fill="rgb(0,0,0)" />
<circle cx="4.90741" cy="15.2003" r="0.5" fill="rgb(0,0,0)" />
<circle cx="10.1133" cy="14.792" r="0.5" fill="rgb(0,0,0)" />
<circle cx="3.22632" cy="15.1376" r="0.5" fill="rgb(0,0,0)" />
<circle cx="11.0312" cy="14.491" r="0.5" fill="rgb(0,0,0)" />
<circle cx="9.06283" cy="4.08386" r="0.5" fill="rgb(0,0,0)" />
<circle cx="18.007" cy="14.7313" r="0.5" fill="rgb(0,0,0)" />
<circle cx="9.08242" cy="14.9674" r="0.5" fill="rgb(0,0,0)" />
<circle cx="14.5044" cy="5.70873" r="0.5" fill="rgb(0,0,0)" />
<circle cx="5.58232" cy="15.3851" r="0.5" fill="rgb(0,0,0)" />
<circle cx="6.55109" cy="15.3321" r="0.5" fill="rgb(0,0,0)" />
<circle cx="4.26322" cy="7.42817" r="0.5" fill="rgb(0,0,0)" />
<circle cx="8.28263" cy="12.1631" r="0.5" fill="rgb(0,0,0)" />
<circle cx="16.9969" cy="15.2545" r="0.5" fill="rgb(0,0,0)" />
<circle cx="15.0613" cy="15.3323" r="0.5" fill="rgb(0,0,0)" />
<circle cx="11.5727" cy="14.9213" r="0.5" fill="rgb(0,0,0)" />
<circle cx="14.3299" cy="14.3731" r="0.5" fill="rgb(0,0,0)" />
<circle cx="4.68941" cy="15.8173" r="0.5" fill="rgb(0,0,0)" />
<circle cx="7.97884" cy="15.4805" r="0.5" fill="rgb(0,0,0)" />
<circle cx="1.95482" cy="15.9954" r="0.5" fill="rgb(0,0,0)" />
<circle cx="8.3716" cy="3.74736" r="0.5" fill="rgb(0,0,0)" />
<circle cx="1.34134" cy="15.6263" r="0.5" fill="rgb(0,0,0)" />
<circle cx="8.35154" cy="0.565801" r="0.5" fill="rgb(0,0,0)" />
<circle cx="3.62218" cy="3.5993" r="0.5" fill="rgb(0,0,0)" />
<circle cx="1.20988" cy="7.93277" r="0.5" fill="rgb(0,0,0)" />
<circle cx="5.67283" cy="16.078" r="0.5" fill="rgb(0,0,0)" />
<circle cx="12.8501" cy="11.3771" r="0.5" fill="rgb(0,0,0)" />
<circle cx="14.2708" cy="15.7164" r="0.5" fill="rgb(0,0,0)" />
<circle cx="12.0311" cy="15.5931" r="0.5" fill="rgb(0,0,0)" />
<circle cx="11.8671" cy="8.18696" r="0.5" fill="rgb(0,0,0)" />
<circle cx="13.2649" cy="15.773" r="0.5" fill="rgb(0,0,0)" />
<circle cx="3.31189" cy="15.9363" r="0.5" fill="rgb(0,0,0)" />
<circle cx="10.1168" cy="15.78" r="0.5" fill="rgb(0,0,0)" />
<circle cx="4.02344" cy="16.0524" r="0.5" fill="rgb(0,0,0)" />
<circle cx="1.36011" cy="16.7296" r="0.5" fill="rgb(0,0,0)" />
<circle cx="10.3386" cy="13.3727" r="0.5" fill="rgb(0,0,0)" />
<circle cx="8.85203" cy="16.2561" r="0.5" fill="rgb(0,0,0)" />
<circle cx="15.0527" cy="16.4572" r="0.5" fill="rgb(0,0,0)" />
<circle cx="16.3609" cy="16.3036" r="0.5" fill="rgb(0,0,0)" />
<circle cx="17.9393" cy="12.9123" r="0.5" fill="rgb(0,0,0)" />
<circle cx="0.777663" cy="15.1946" r="0.5" fill="rgb(0,0,0)" />
<circle cx="6.52247" cy="16.4644" r="0.5" fill="rgb(0,0,0)" />
<circle cx="6.60626" cy="6.89628" r="0.5" fill="rgb(0,0,0)" />
<circle cx="7.27863" cy="16.2174" r="0.5" fill="rgb(0,0,0)" />
<circle cx="5.57039" cy="11.1153" r="0.5" fill="rgb(0,0,0)" />
<circle cx="2.0385" cy="16.912" r="0.5" fill="rgb(0,0,0)" />
<circle cx="17.4422" cy="16.3951" r="0.5" fill="rgb(0,0,0)" />
<circle cx="1.41378" cy="17.3843" r="0.5" fill="rgb(0,0,0)" />
<circle cx="11.0548" cy="16.6335" r="0.5" fill="rgb(0,0,0)" />
<circle cx="4.66747" cy="16.7106" r="0.5" fill="rgb(0,0,0)" />
<circle cx="5.60045" cy="16.7507" r="0.5" fill="rgb(0,0,0)" />
<circle cx="15.9135" cy="2.51416" r="0.5" fill="rgb(0,0,0)" />
<circle cx="14.1155" cy="16.9091" r="0.5" fill="rgb(0,0,0)" />
<circle cx="18.3151" cy="16.1574" r="0.5" fill="rgb(0,0,0)" />
<circle cx="0.597529" cy="16.9708" r="0.5" fill="rgb(0,0,0)" />
<circle cx="5.41837" cy="7.47501" r="0.5" fill="rgb(0,0,0)" />
<circle cx="15.7603" cy="17.0944" r="0.5" fill="rgb(0,0,0)" />
<circle cx="12.3625" cy="17.3014" r="0.5" fill="rgb(0,0,0)" />
<circle cx="7.78026" cy="17.0658" r="0.5" fill="rgb(0,0,0)" />
<circle cx="16.3678" cy="1.59254" r="0.5" fill="rgb(0,0,0)" />
<circle cx="13.425" cy="17.2693" r="0.5" fill="rgb(0,0,0)" />
<circle cx="0.605748" cy="10.2013" r="0.5" fill="rgb(0,0,0)" />
<circle cx="16.9537" cy="17.3338" r="0.5" fill="rgb(0,0,0)" />
<circle cx="12.617" cy="1.27893" r="0.5" fill="rgb(0,0,0)" />
<circle cx="2.87905" cy="16.6889" r="0.5" fill="rgb(0,0,0)" />
<circle cx="5.95833" cy="17.2187" r="0.5" fill="rgb(0,0,0)" />
<circle cx="4.21376" cy="17.2671" r="0.5" fill="rgb(0,0,0)" />
<circle cx="1.55948" cy="3.69203" r="0.5" fill="rgb(0,0,0)" />
<circle cx="15.707" cy="10.567" r="0.5" fill="rgb(0,0,0)" />
<circle cx="14.2501" cy="17.9142" r="0.5" fill="rgb(0,0,0)" />
<circle cx="11.6632" cy="17.5349" r="0.5" fill="rgb(0,0,0)" />
<circle cx="3.25336" cy="10.4779" r="0.5" fill="rgb(0,0,0)" />
<circle cx="8.9119" cy="17.3587" r="0.5" fill="rgb(0,0,0)" />
<circle cx="15.9495" cy="17.8491" r="0.5" fill="rgb(0,0,0)" />
<circle cx="5.35528" cy="3.80146" r="0.5" fill="rgb(0,0,0)" />
<circle cx="15.0983" cy="18.0571" r="0.5" fill="rgb(0,0,0)" />
<circle cx="9.59303" cy="2.63178" r="0.5" fill="rgb(0,0,0)" />
<circle cx="1.90969" cy="17.7943" r="0.5" fill="rgb(0,0,0)" />
<circle cx="1.29067" cy="17.8634" r="0.5" fill="rgb(0,0,0)" />
<circle cx="9.95" cy="17.2813" r="0.5" fill="rgb(0,0,0)" />
<circle cx="15.2868" cy="7.59629" r="0.5" fill="rgb(0,0,0)" />
<circle cx="6.63802" cy="17.5919" r="0.5" fill="rgb(0,0,0)" />
<circle cx="10.9694" cy="17.8824" r="0.5" fill="rgb(0,0,0)" />
<circle cx="7.92747" cy="17.9434" r="0.5" fill="rgb(0,0,0)" />
<circle cx="5.98419" cy="3.30426" r="0.5" fill="rgb(0,0,0)" />
<circle cx="18.3765" cy="17.2647" r="0.5" fill="rgb(0,0,0)" />
<circle cx="12.999" cy="17.995" r="0.5" fill="rgb(0,0,0)" />
<circle cx="17.7656" cy="17.9766" r="0.5" fill="rgb(0,0,0)" />
<circle cx="2.59743" cy="17.7502" r="0.5" fill="rgb(0,0,0)" />
<circle cx="15.834" cy="9.58531" r="0.5" fill="rgb(0,0,0)" />
<circle cx="18.4105" cy="18.3621" r="0.5" fill="rgb(0,0,0)" />
<circle cx="18.5037" cy="4.50806" r="0.5" fill="rgb(0,0,0)" />
<circle cx="13.6405" cy="10.3074" r="0.5" fill="rgb(0,0,0)" />
<circle cx="7.29665" cy="11.8202" r="0.5" fill="rgb(0,0,0)" />
<circle cx="18.4416" cy="3.23595" r="0.5" fill="rgb(0,0,0)" />
<circle cx="16.8179" cy="2.62331" r="0.5" fill="rgb(0,0,0)" />
<circle cx="16.0547" cy="15.222" r="0.5" fill="rgb(0,0,0)" />
<circle cx="3.77699" cy="17.8386" r="0.5" fill="rgb(0,0,0)" />
<circle cx="4.07146" cy="9.56872" r="0.5" fill="rgb(0,0,0)" />
<circle cx="17.0818" cy="18.3968" r="0.5" fill="rgb(0,0,0)" />
<circle cx="13.5863" cy="18.4947" r="0.5" fill="rgb(0,0,0)" />
<circle cx="12.1748" cy="18.3496" r="0.5" fill="rgb(0,0,0)" />
<circle cx="5.1224" cy="18.2104" r="0.5" fill="rgb(0,0,0)" />
<circle cx="10.175" cy="14.0164" r="0.5" fill="rgb(0,0,0)" />
<circle cx="12.6738" cy="16.4148" r="0.5" fill="rgb(0,0,0)" />
<circle cx="0.413954" cy="11.6548" r="0.5" fill="rgb(0,0,0)" />
<circle cx="0.315555" cy="12.9805" r="0.5" fill="rgb(0,0,0)" />
<circle cx="16.4326" cy="18.5547" r="0.5" fill="rgb(0,0,0)" />
<circle cx="14.2432" cy="18.6297" r="0.5" fill="rgb(0,0,0)" />
<circle cx="14.7232" cy="18.6294" r="0.5" fill="rgb(0,0,0)" />
<circle cx="8.93486" cy="18.4558" r="0.5" fill="rgb(0,0,0)" />
<circle cx="10.5874" cy="2.61331" r="0.5" fill="rgb(0,0,0)" />
<circle cx="18.6288" cy="15.2346" r="0.5" fill="rgb(0,0,0)" />
<circle cx="18.5577" cy="13.2924" r="0.5" fill="rgb(0,0,0)" />
<circle cx="8.60435" cy="8.23866" r="0.5" fill="rgb(0,0,0)" />
<circle cx="10.1621" cy="18.4495" r="0.5" fill="rgb(0,0,0)" />
<circle cx="0.357876" cy="16.0771" r="0.5" fill="rgb(0,0,0)" />
<circle cx="0.385673" cy="14.4665" r="0.5" fill="rgb(0,0,0)" />
<circle cx="12.668" cy="18.7173" r="0.5" fill="rgb(0,0,0)" />
<circle cx="11.3327" cy="18.601" r="0.5" fill="rgb(0,0,0)" />
<circle cx="17.2379" cy="13.3096" r="0.5" fill="rgb(0,0,0)" />
<circle cx="7.68793" cy="18.5931" r="0.5" fill="rgb(0,0,0)" />
<circle cx="5.87497" cy="5.14176" r="0.5" fill="rgb(0,0,0)" />
<circle cx="13.0114" cy="9.78528" r="0.5" fill="rgb(0,0,0)" />
<circle cx="6.44114" cy="18.5083" r="0.5" fill="rgb(0,0,0)" />
<circle cx="15.1587" cy="18.6634" r="0.5" fill="rgb(0,0,0)" />
<circle cx="15.7723" cy="18.6052" r="0.5" fill="rgb(0,0,0)" />
<circle cx="2.50232" cy="15.1781" r="0.5" fill="rgb(0,0,0)" />
<circle cx="3.40482" cy="18.5392" r="0.5" fill="rgb(0,0,0)" />
<circle cx="18.8016" cy="8.09203" r="0.5" fill="rgb(0,0,0)" />
<circle cx="15.4086" cy="3.88112" r="0.5" fill="rgb(0,0,0)" />
<circle cx="2.58183" cy="11.0582" r="0.5" fill="rgb(0,0,0)" />
<circle cx="18.7305" cy="6.56821" r="0.5" fill="rgb(0,0,0)" />
<circle cx="4.38959" cy="6.62116" r="0.5" fill="rgb(0,0,0)" />
<circle cx="2.70426" cy="0.455908" r="0.5" fill="rgb(0,0,0)" />
<circle cx="5.40826" cy="4.58823" r="0.5" fill="rgb(0,0,0)" />
<circle cx="7.67384" cy="7.1846" r="0.5" fill="rgb(0,0,0)" />
<circle cx="0.23316" cy="2.58437" r="0.5" fill="rgb(0,0,0)" />
<circle cx="0.640016" cy="0.748734" r="0.5" fill="rgb(0,0,0)" />
<circle cx="0.207745" cy="17.7995" r="0.5" fill="rgb(0,0,0)" />
<circle cx="0.517615" cy="18.3576" r="0.5" fill="rgb(0,0,0)" />
<circle cx="7.33745" cy="9.71928" r="0.5" fill="rgb(0,0,0)" />
<circle cx="1.95329" cy="18.6182" r="0.5" fill="rgb(0,0,0)" />
<circle cx="8.75506" cy="2.88378" r="0.5" fill="rgb(0,0,0)" />
<circle cx="11.64" cy="5.83769" r="0.5" fill="rgb(0,0,0)" />
<circle cx="1.04326" cy="18.5425" r="0.5" fill="rgb(0,0,0)" />
<circle cx="9.17911" cy="4.9681" r="0.5" fill="rgb(0,0,0)" />
<circle cx="18.1003" cy="18.7406" r="0.5" fill="rgb(0,0,0)" />
<circle cx="18.7857" cy="18.2213" r="0.5" fill="rgb(0,0,0)" />
<circle cx="14.8678" cy="17.4425" r="0.5" fill="rgb(0,0,0)" />
<circle cx="18.5546" cy="0.44053" r="0.5" fill="rgb(0,0,0)" />
<circle cx="2.08588" cy="6.31834" r="0.5" fill="rgb(0,0,0)" />
<circle cx="6.52419" cy="13.1635" r="0.5" fill="rgb(0,0,0)" />
<circle cx="17.2085" cy="0.403704" r="0.5" fill="rgb(0,0,0)" />
</svg>
