<?xml version="1.0" ?>
<!DOCTYPE svg PUBLIC "-//W3C//DTD SVG 1.1//EN" "http://www.w3.org/Graphics/SVG/1.1/DTD/svg11.dtd">
<svg width="20" height="20" version="1.1" xmlns="http://www.w3.org/2000/svg">
<circle cx="16.7785" cy="0.630049" r="0.5" fill="rgb(0,0,0)" />
<circle cx="10.2902" cy="0.787446" r="0.5" fill="rgb(0,0,0)" />
<circle cx="5.40535" cy="1.11303" r="0.5" fill="rgb(0,0,0)" />
<circle cx="7.52494" cy="0.808822" r="0.5" fill="rgb(0,0,0)" />
<circle cx="18.3488" cy="0.593373" r="0.5" fill="rgb(0,0,0)" />
<circle cx="14.7915" cy="0.737187" r="0.5" fill="rgb(0,0,0)" />
<circle cx="8.40353" cy="2.40602" r="0.5" fill="rgb(0,0,0)" />
<circle cx="15.0418" cy="3.85669" r="0.5" fill="rgb(0,0,0)" />
<circle cx="12.4664" cy="2.09626" r="0.5" fill="rgb(0,0,0)" />
<circle cx="17.2754" cy="3.77081" r="0.5" fill="rgb(0,0,0)" />
<circle cx="7.05858" cy="4.62884" r="0.5" fill="rgb(0,0,0)" />
<circle cx="14.8755" cy="5.24852" r="0.5" fill="rgb(0,0,0)" />
<circle cx="2.70268" cy="4.90946" r="0.5" fill="rgb(0,0,0)" />
<circle cx="1.79446" cy="6.22131" r="0.5" fill="rgb(0,0,0)" />
<circle cx="15.7537" cy="6.33541" r="0.5" fill="rgb(0,0,0)" />
<circle cx="12.4866" cy="6.38341" r="0.5" fill="rgb(0,0,0)" />
<circle cx="8.37386" cy="6.56586" r="0.5" fill="rgb(0,0,0)" />
<circle cx="10.5779" cy="6.54623" r="0.5" fill="rgb(0,0,0)" />
<circle cx="16.7851" cy="7.29153" r="0.5" fill="rgb(0,0,0)" />
<circle cx="5.45118" cy="7.57444" r="0.5" fill="rgb(0,0,0)" />
<circle cx="3.52985" cy="7.02815" r="0.5" fill="rgb(0,0,0)" />
<circle cx="12.0754" cy="8.12358" r="0.5" fill="rgb(0,0,0)" />
<circle cx="9.52113" cy="8.47126" r="0.5" fill="rgb(0,0,0)" />
<circle cx="2.49171" cy="9.26153" r="0.5" fill="rgb(0,0,0)" />
<circle cx="18.0399" cy="1.85521" r="0.5" fill="rgb(0,0,0)" />
<circle cx="11.2972" cy="9.4426" r="0.5" fill="rgb(0,0,0)" />
<circle cx="4.25433" cy="10.0305" r="0.5" fill="rgb(0,0,0)" />
<circle cx="15.9878" cy="10.4102" r="0.5" fill="rgb(0,0,0)" />
<circle cx="8.94369" cy="10.5371" r="0.5" fill="rgb(0,0,0)" />
<circle cx="2.77062" cy="10.6388" r="0.5" fill="rgb(0,0,0)" />
<circle cx="6.41386" cy="10.6028" r="0.5" fill="rgb(0,0,0)" />
<circle cx="13.7699" cy="10.7238" r="0.5" fill="rgb(0,0,0)" />
<circle cx="13.8646" cy="8.68512" r="0.5" fill="rgb(0,0,0)" />
<circle cx="12.7248" cy="12.4563" r="0.5" fill="rgb(0,0,0)" />
<circle cx="15.5238" cy="12.2836" r="0.5" fill="rgb(0,0,0)" />
<circle cx="3.88022" cy="12.245" r="0.5" fill="rgb(0,0,0)" />
<circle cx="8.24415" cy="12.6899" r="0.5" fill="rgb(0,0,0)" />
<circle cx="12.2948" cy="14.0533" r="0.5" fill="rgb(0,0,0)" />
<circle cx="10.4011" cy="2.85218" r="0.5" fill="rgb(0,0,0)" />
<circle cx="3.93422" cy="2.84716" r="0.5" fill="rgb(0,0,0)" />
<circle cx="0.793425" cy="8.03174" r="0.5" fill="rgb(0,0,0)" />
<circle cx="15.083" cy="14.9474" r="0.5" fill="rgb(0,0,0)" />
<circle cx="6.26027" cy="12.9335" r="0.5" fill="rgb(0,0,0)" />
<circle cx="0.757987" cy="9.79419" r="0.5" fill="rgb(0,0,0)" />
<circle cx="16.9597" cy="5.5332" r="0.5" fill="rgb(0,0,0)" />
<circle cx="1.18196" cy="11.5338" r="0.5" fill="rgb(0,0,0)" />
<circle cx="13.2491" cy="3.59696" r="0.5" fill="rgb(0,0,0)" />
<circle cx="10.3063" cy="12.6451" r="0.5" fill="rgb(0,0,0)" />
<circle cx="16.3249" cy="14.3467" r="0.5" fill="rgb(0,0,0)" />
<circle cx="13.223" cy="15.2116" r="0.5" fill="rgb(0,0,0)" />
<circle cx="4.64392" cy="14.3602" r="0.5" fill="rgb(0,0,0)" />
<circle cx="11.3615" cy="11.0705" r="0.5" fill="rgb(0,0,0)" />
<circle cx="2.53883" cy="14.7125" r="0.5" fill="rgb(0,0,0)" />
<circle cx="14.1541" cy="15.8286" r="0.5" fill="rgb(0,0,0)" />
<circle cx="9.80533" cy="14.6607" r="0.5" fill="rgb(0,0,0)" />
<circle cx="5.14685" cy="15.826" r="0.5" fill="rgb(0,0,0)" />
<circle cx="11.1765" cy="15.3848" r="0.5" fill="rgb(0,0,0)" />
<circle cx="17.8747" cy="14.5699" r="0.5" fill="rgb(0,0,0)" />
<circle cx="11.5502" cy="4.26695" r="0.5" fill="rgb(0,0,0)" />
<circle cx="15.4062" cy="16.316" r="0.5" fill="rgb(0,0,0)" />
<circle cx="18.2306" cy="3.09594" r="0.5" fill="rgb(0,0,0)" />
<circle cx="12.1866" cy="16.4894" r="0.5" fill="rgb(0,0,0)" />
<circle cx="6.92493" cy="16.2991" r="0.5" fill="rgb(0,0,0)" />
<circle cx="13.7931" cy="17.0433" r="0.5" fill="rgb(0,0,0)" />
<circle cx="16.5719" cy="16.7396" r="0.5" fill="rgb(0,0,0)" />
<circle cx="1.98917" cy="2.01294" r="0.5" fill="rgb(0,0,0)" />
<circle cx="5.72145" cy="17.2576" r="0.5" fill="rgb(0,0,0)" />
<circle cx="4.5511" cy="5.3226" r="0.5" fill="rgb(0,0,0)" />
<circle cx="15.2859" cy="17.7527" r="0.5" fill="rgb(0,0,0)" />
<circle cx="12.6285" cy="0.600773" r="0.5" fill="rgb(0,0,0)" />
<circle cx="7.91122" cy="15.033" r="0.5" fill="rgb(0,0,0)" />
<circle cx="2.56288" cy="17.0544" r="0.5" fill="rgb(0,0,0)" />
<circle cx="15.4249" cy="2.46721" r="0.5" fill="rgb(0,0,0)" />
<circle cx="2.15594" cy="3.44509" r="0.5" fill="rgb(0,0,0)" />
<circle cx="17.2035" cy="17.8716" r="0.5" fill="rgb(0,0,0)" />
<circle cx="5.90842" cy="3.31185" r="0.5" fill="rgb(0,0,0)" />
<circle cx="9.32164" cy="4.67684" r="0.5" fill="rgb(0,0,0)" />
<circle cx="0.961655" cy="13.4515" r="0.5" fill="rgb(0,0,0)" />
<circle cx="0.937681" cy="16.0536" r="0.5" fill="rgb(0,0,0)" />
<circle cx="4.27961" cy="17.4572" r="0.5" fill="rgb(0,0,0)" />
<circle cx="8.6248" cy="17.4909" r="0.5" fill="rgb(0,0,0)" />
<circle cx="16.5075" cy="2.09732" r="0.5" fill="rgb(0,0,0)" />
<circle cx="14.3205" cy="13.5738" r="0.5" fill="rgb(0,0,0)" />
<circle cx="18.1921" cy="6.50095" r="0.5" fill="rgb(0,0,0)" />
<circle cx="2.583" cy="8.03158" r="0.5" fill="rgb(0,0,0)" />
<circle cx="5.03215" cy="8.90425" r="0.5" fill="rgb(0,0,0)" />
<circle cx="18.299" cy="4.88233" r="0.5" fill="rgb(0,0,0)" />
<circle cx="10.1493" cy="17.468" r="0.5" fill="rgb(0,0,0)" />
<circle cx="11.7344" cy="17.9822" r="0.5" fill="rgb(0,0,0)" />
<circle cx="12.9031" cy="18.3674" r="0.5" fill="rgb(0,0,0)" />
<circle cx="14.4536" cy="7.05177" r="0.5" fill="rgb(0,0,0)" />
<circle cx="15.9743" cy="18.5146" r="0.5" fill="rgb(0,0,0)" />
<circle cx="14.1817" cy="18.2888" r="0.5" fill="rgb(0,0,0)" />
<circle cx="17.8317" cy="12.3983" r="0.5" fill="rgb(0,0,0)" />
<circle cx="0.49827" cy="6.32027" r="0.5" fill="rgb(0,0,0)" />
<circle cx="0.66133" cy="4.06372" r="0.5" fill="rgb(0,0,0)" />
<circle cx="17.9796" cy="10.1419" r="0.5" fill="rgb(0,0,0)" />
<circle cx="16.0414" cy="8.59871" r="0.5" fill="rgb(0,0,0)" />
<circle cx="7.4042" cy="8.59206" r="0.5" fill="rgb(0,0,0)" />
<circle cx="7.64455" cy="18.3149" r="0.5" fill="rgb(0,0,0)" />
<circle cx="6.06341" cy="18.3268" r="0.5" fill="rgb(0,0,0)" />
<circle cx="13.3706" cy="5.11575" r="0.5" fill="rgb(0,0,0)" />
<circle cx="18.1555" cy="15.9621" r="0.5" fill="rgb(0,0,0)" />
<circle cx="16.22" cy="4.27518" r="0.5" fill="rgb(0,0,0)" />
<circle cx="0.682302" cy="1.11645" r="0.5" fill="rgb(0,0,0)" />
<circle cx="14.1901" cy="2.47412" r="0.5" fill="rgb(0,0,0)" />
<circle cx="3.06447" cy="0.681798" r="0.5" fill="rgb(0,0,0)" />
<circle cx="18.1152" cy="8.27602" r="0.5" fill="rgb(0,0,0)" />
<circle cx="3.00498" cy="18.449" r="0.5" fill="rgb(0,0,0)" />
<circle cx="0.728827" cy="17.9954" r="0.5" fill="rgb(0,0,0)" />
<circle cx="6.39448" cy="6.41513" r="0.5" fill="rgb(0,0,0)" />
<circle cx="18.1547" cy="18.5124" r="0.5" fill="rgb(0,0,0)" />
<circle cx="18.3825" cy="17.3083" r="0.5" fill="rgb(0,0,0)" />
</svg>
