<?xml version="1.0" ?>
<!DOCTYPE svg PUBLIC "-//W3C//DTD SVG 1.1//EN" "http://www.w3.org/Graphics/SVG/1.1/DTD/svg11.dtd">
<svg width="20" height="20" version="1.1" xmlns="http://www.w3.org/2000/svg">
<circle cx="14.2422" cy="0.779895" r="0.5" fill="rgb(0,0,0)" />
<circle cx="16.3775" cy="0.970992" r="0.5" fill="rgb(0,0,0)" />
<circle cx="10.0126" cy="1.08609" r="0.5" fill="rgb(0,0,0)" />
<circle cx="3.29984" cy="3.74799" r="0.5" fill="rgb(0,0,0)" />
<circle cx="14.9907" cy="4.43594" r="0.5" fill="rgb(0,0,0)" />
<circle cx="11.7632" cy="4.24055" r="0.5" fill="rgb(0,0,0)" />
<circle cx="15.6414" cy="7.5905" r="0.5" fill="rgb(0,0,0)" />
<circle cx="10.8728" cy="6.69357" r="0.5" fill="rgb(0,0,0)" />
<circle cx="17.8298" cy="3.40567" r="0.5" fill="rgb(0,0,0)" />
<circle cx="18.1436" cy="1.07582" r="0.5" fill="rgb(0,0,0)" />
<circle cx="9.07618" cy="8.62792" r="0.5" fill="rgb(0,0,0)" />
<circle cx="7.26772" cy="6.04071" r="0.5" fill="rgb(0,0,0)" />
<circle cx="15.7996" cy="10.2774" r="0.5" fill="rgb(0,0,0)" />
<circle cx="3.24194" cy="10.3235" r="0.5" fill="rgb(0,0,0)" />
<circle cx="15.7955" cy="2.72067" r="0.5" fill="rgb(0,0,0)" />
<circle cx="11.2516" cy="10.5402" r="0.5" fill="rgb(0,0,0)" />
<circle cx="13.6001" cy="6.11342" r="0.5" fill="rgb(0,0,0)" />
<circle cx="16.6199" cy="13.7142" r="0.5" fill="rgb(0,0,0)" />
<circle cx="13.6814" cy="2.94561" r="0.5" fill="rgb(0,0,0)" />
<circle cx="14.7676" cy="14.0816" r="0.5" fill="rgb(0,0,0)" />
<circle cx="13.2581" cy="8.84567" r="0.5" fill="rgb(0,0,0)" />
<circle cx="7.12745" cy="11.498" r="0.5" fill="rgb(0,0,0)" />
<circle cx="12.2511" cy="14.0777" r="0.5" fill="rgb(0,0,0)" />
<circle cx="6.0331" cy="8.91618" r="0.5" fill="rgb(0,0,0)" />
<circle cx="7.12603" cy="14.882" r="0.5" fill="rgb(0,0,0)" />
<circle cx="13.5737" cy="16.0253" r="0.5" fill="rgb(0,0,0)" />
<circle cx="3.88868" cy="6.76345" r="0.5" fill="rgb(0,0,0)" />
<circle cx="16.0931" cy="16.1465" r="0.5" fill="rgb(0,0,0)" />
<circle cx="9.71933" cy="12.6301" r="0.5" fill="rgb(0,0,0)" />
<circle cx="1.99202" cy="15.2184" r="0.5" fill="rgb(0,0,0)" />
<circle cx="16.4336" cy="5.50495" r="0.5" fill="rgb(0,0,0)" />
<circle cx="11.2151" cy="17.3147" r="0.5" fill="rgb(0,0,0)" />
<circle cx="14.2441" cy="17.8404" r="0.5" fill="rgb(0,0,0)" />
<circle cx="7.11664" cy="1.18312" r="0.5" fill="rgb(0,0,0)" />
<circle cx="4.53588" cy="13.4251" r="0.5" fill="rgb(0,0,0)" />
<circle cx="17.8675" cy="8.67103" r="0.5" fill="rgb(0,0,0)" />
<circle cx="18.0928" cy="5.92985" r="0.5" fill="rgb(0,0,0)" />
<circle cx="12.6146" cy="18.1043" r="0.5" fill="rgb(0,0,0)" />
<circle cx="17.7612" cy="11.8072" r="0.5" fill="rgb(0,0,0)" />
<circle cx="9.00525" cy="17.6113" r="0.5" fill="rgb(0,0,0)" />
<circle cx="18.1045" cy="14.994" r="0.5" fill="rgb(0,0,0)" />
<circle cx="1.19718" cy="12.4869" r="0.5" fill="rgb(0,0,0)" />
<circle cx="1.10007" cy="17.5552" r="0.5" fill="rgb(0,0,0)" />
<circle cx="10.0396" cy="15.1744" r="0.5" fill="rgb(0,0,0)" />
<circle cx="6.44949" cy="17.5428" r="0.5" fill="rgb(0,0,0)" />
<circle cx="5.86691" cy="3.64019" r="0.5" fill="rgb(0,0,0)" />
<circle cx="4.03642" cy="17.3666" r="0.5" fill="rgb(0,0,0)" />
<circle cx="12.0882" cy="1.48473" r="0.5" fill="rgb(0,0,0)" />
<circle cx="1.1156" cy="8.33467" r="0.5" fill="rgb(0,0,0)" />
<circle cx="13.8345" cy="11.8952" r="0.5" fill="rgb(0,0,0)" />
<circle cx="1.11329" cy="4.91322" r="0.5" fill="rgb(0,0,0)" />
<circle cx="1.14182" cy="1.47973" r="0.5" fill="rgb(0,0,0)" />
<circle cx="3.91201" cy="1.11179" r="0.5" fill="rgb(0,0,0)" />
<circle cx="9.15972" cy="3.72937" r="0.5" fill="rgb(0,0,0)" />
<circle cx="15.6773" cy="18.0998" r="0.5" fill="rgb(0,0,0)" />
<circle cx="17.1671" cy="18.0381" r="0.5" fill="rgb(0,0,0)" />
<circle cx="18.2821" cy="17.4365" r="0.5" fill="rgb(0,0,0)" />
</svg>
