<?xml version="1.0" ?>
<!DOCTYPE svg PUBLIC "-//W3C//DTD SVG 1.1//EN" "http://www.w3.org/Graphics/SVG/1.1/DTD/svg11.dtd">
<svg width="20" height="20" version="1.1" xmlns="http://www.w3.org/2000/svg">
<circle cx="8.12358" cy="0.532657" r="0.5" fill="rgb(0,0,0)" />
<circle cx="14.9413" cy="0.643651" r="0.5" fill="rgb(0,0,0)" />
<circle cx="10.4991" cy="0.77326" r="0.5" fill="rgb(0,0,0)" />
<circle cx="4.43059" cy="1.35698" r="0.5" fill="rgb(0,0,0)" />
<circle cx="13.9118" cy="1.81857" r="0.5" fill="rgb(0,0,0)" />
<circle cx="1.94189" cy="2.06742" r="0.5" fill="rgb(0,0,0)" />
<circle cx="12.1311" cy="2.08869" r="0.5" fill="rgb(0,0,0)" />
<circle cx="16.5127" cy="2.09663" r="0.5" fill="rgb(0,0,0)" />
<circle cx="15.4058" cy="2.39189" r="0.5" fill="rgb(0,0,0)" />
<circle cx="5.69033" cy="2.36131" r="0.5" fill="rgb(0,0,0)" />
<circle cx="18.0414" cy="1.85489" r="0.5" fill="rgb(0,0,0)" />
<circle cx="10.3074" cy="2.95243" r="0.5" fill="rgb(0,0,0)" />
<circle cx="3.58228" cy="2.75255" r="0.5" fill="rgb(0,0,0)" />
<circle cx="13.2016" cy="3.5483" r="0.5" fill="rgb(0,0,0)" />
<circle cx="2.09308" cy="3.47441" r="0.5" fill="rgb(0,0,0)" />
<circle cx="15.1854" cy="3.94785" r="0.5" fill="rgb(0,0,0)" />
<circle cx="17.274" cy="3.77027" r="0.5" fill="rgb(0,0,0)" />
<circle cx="6.8714" cy="3.43882" r="0.5" fill="rgb(0,0,0)" />
<circle cx="8.3539" cy="4.1627" r="0.5" fill="rgb(0,0,0)" />
<circle cx="11.6858" cy="4.13325" r="0.5" fill="rgb(0,0,0)" />
<circle cx="6.0939" cy="4.96368" r="0.5" fill="rgb(0,0,0)" />
<circle cx="12.7155" cy="0.595992" r="0.5" fill="rgb(0,0,0)" />
<circle cx="14.8748" cy="5.25247" r="0.5" fill="rgb(0,0,0)" />
<circle cx="2.74863" cy="4.88513" r="0.5" fill="rgb(0,0,0)" />
<circle cx="16.9593" cy="5.53254" r="0.5" fill="rgb(0,0,0)" />
<circle cx="13.3702" cy="5.12106" r="0.5" fill="rgb(0,0,0)" />
<circle cx="10.0382" cy="5.0316" r="0.5" fill="rgb(0,0,0)" />
<circle cx="1.66597" cy="5.76226" r="0.5" fill="rgb(0,0,0)" />
<circle cx="4.31801" cy="5.57084" r="0.5" fill="rgb(0,0,0)" />
<circle cx="7.41772" cy="5.891" r="0.5" fill="rgb(0,0,0)" />
<circle cx="15.755" cy="6.34473" r="0.5" fill="rgb(0,0,0)" />
<circle cx="8.53236" cy="6.55723" r="0.5" fill="rgb(0,0,0)" />
<circle cx="10.7498" cy="6.61586" r="0.5" fill="rgb(0,0,0)" />
<circle cx="1.67057" cy="7.27579" r="0.5" fill="rgb(0,0,0)" />
<circle cx="14.4628" cy="7.05464" r="0.5" fill="rgb(0,0,0)" />
<circle cx="3.59372" cy="7.05397" r="0.5" fill="rgb(0,0,0)" />
<circle cx="9.07832" cy="7.74718" r="0.5" fill="rgb(0,0,0)" />
<circle cx="12.1628" cy="8.07422" r="0.5" fill="rgb(0,0,0)" />
<circle cx="16.0934" cy="8.52374" r="0.5" fill="rgb(0,0,0)" />
<circle cx="10.3985" cy="8.42023" r="0.5" fill="rgb(0,0,0)" />
<circle cx="13.8788" cy="8.67225" r="0.5" fill="rgb(0,0,0)" />
<circle cx="2.43601" cy="9.27353" r="0.5" fill="rgb(0,0,0)" />
<circle cx="7.36254" cy="8.54177" r="0.5" fill="rgb(0,0,0)" />
<circle cx="4.22272" cy="9.99824" r="0.5" fill="rgb(0,0,0)" />
<circle cx="8.60952" cy="10.6157" r="0.5" fill="rgb(0,0,0)" />
<circle cx="6.40102" cy="10.4255" r="0.5" fill="rgb(0,0,0)" />
<circle cx="4.98483" cy="8.90612" r="0.5" fill="rgb(0,0,0)" />
<circle cx="13.7688" cy="10.6687" r="0.5" fill="rgb(0,0,0)" />
<circle cx="2.76853" cy="10.61" r="0.5" fill="rgb(0,0,0)" />
<circle cx="16.222" cy="11.7042" r="0.5" fill="rgb(0,0,0)" />
<circle cx="15.7816" cy="10.0534" r="0.5" fill="rgb(0,0,0)" />
<circle cx="10.0924" cy="11.9418" r="0.5" fill="rgb(0,0,0)" />
<circle cx="8.38" cy="12.4159" r="0.5" fill="rgb(0,0,0)" />
<circle cx="3.86361" cy="12.1506" r="0.5" fill="rgb(0,0,0)" />
<circle cx="10.6875" cy="13.3865" r="0.5" fill="rgb(0,0,0)" />
<circle cx="11.5069" cy="11.0277" r="0.5" fill="rgb(0,0,0)" />
<circle cx="6.4821" cy="12.4636" r="0.5" fill="rgb(0,0,0)" />
<circle cx="16.1414" cy="13.7378" r="0.5" fill="rgb(0,0,0)" />
<circle cx="4.77435" cy="3.8373" r="0.5" fill="rgb(0,0,0)" />
<circle cx="12.3984" cy="14.1089" r="0.5" fill="rgb(0,0,0)" />
<circle cx="5.32252" cy="13.7441" r="0.5" fill="rgb(0,0,0)" />
<circle cx="8.34036" cy="14.3115" r="0.5" fill="rgb(0,0,0)" />
<circle cx="1.16826" cy="11.4636" r="0.5" fill="rgb(0,0,0)" />
<circle cx="13.2181" cy="15.2387" r="0.5" fill="rgb(0,0,0)" />
<circle cx="14.094" cy="15.8457" r="0.5" fill="rgb(0,0,0)" />
<circle cx="16.4824" cy="15.4359" r="0.5" fill="rgb(0,0,0)" />
<circle cx="16.7981" cy="7.27342" r="0.5" fill="rgb(0,0,0)" />
<circle cx="5.05233" cy="15.2131" r="0.5" fill="rgb(0,0,0)" />
<circle cx="10.1348" cy="14.9778" r="0.5" fill="rgb(0,0,0)" />
<circle cx="7.09191" cy="1.64609" r="0.5" fill="rgb(0,0,0)" />
<circle cx="14.7077" cy="12.4226" r="0.5" fill="rgb(0,0,0)" />
<circle cx="3.52995" cy="15.0392" r="0.5" fill="rgb(0,0,0)" />
<circle cx="5.18111" cy="16.3131" r="0.5" fill="rgb(0,0,0)" />
<circle cx="11.3482" cy="15.5551" r="0.5" fill="rgb(0,0,0)" />
<circle cx="15.2743" cy="16.495" r="0.5" fill="rgb(0,0,0)" />
<circle cx="18.2355" cy="3.09999" r="0.5" fill="rgb(0,0,0)" />
<circle cx="7.42729" cy="15.5251" r="0.5" fill="rgb(0,0,0)" />
<circle cx="14.0983" cy="13.8457" r="0.5" fill="rgb(0,0,0)" />
<circle cx="12.2368" cy="16.4684" r="0.5" fill="rgb(0,0,0)" />
<circle cx="6.73051" cy="16.4115" r="0.5" fill="rgb(0,0,0)" />
<circle cx="12.656" cy="12.4595" r="0.5" fill="rgb(0,0,0)" />
<circle cx="9.17432" cy="16.4507" r="0.5" fill="rgb(0,0,0)" />
<circle cx="17.9361" cy="14.464" r="0.5" fill="rgb(0,0,0)" />
<circle cx="2.77203" cy="16.7465" r="0.5" fill="rgb(0,0,0)" />
<circle cx="13.8454" cy="17.0362" r="0.5" fill="rgb(0,0,0)" />
<circle cx="16.5202" cy="16.9913" r="0.5" fill="rgb(0,0,0)" />
<circle cx="5.77601" cy="17.3407" r="0.5" fill="rgb(0,0,0)" />
<circle cx="15.26" cy="17.8003" r="0.5" fill="rgb(0,0,0)" />
<circle cx="12.2124" cy="17.7242" r="0.5" fill="rgb(0,0,0)" />
<circle cx="14.3884" cy="3.20273" r="0.5" fill="rgb(0,0,0)" />
<circle cx="17.2232" cy="17.8676" r="0.5" fill="rgb(0,0,0)" />
<circle cx="18.3562" cy="0.596098" r="0.5" fill="rgb(0,0,0)" />
<circle cx="1.5281" cy="17.5628" r="0.5" fill="rgb(0,0,0)" />
<circle cx="16.834" cy="0.627607" r="0.5" fill="rgb(0,0,0)" />
<circle cx="18.1928" cy="6.50177" r="0.5" fill="rgb(0,0,0)" />
<circle cx="18.2989" cy="4.88224" r="0.5" fill="rgb(0,0,0)" />
<circle cx="4.39867" cy="17.7625" r="0.5" fill="rgb(0,0,0)" />
<circle cx="15.9533" cy="18.535" r="0.5" fill="rgb(0,0,0)" />
<circle cx="16.2388" cy="4.27858" r="0.5" fill="rgb(0,0,0)" />
<circle cx="14.169" cy="18.2937" r="0.5" fill="rgb(0,0,0)" />
<circle cx="8.64403" cy="17.9593" r="0.5" fill="rgb(0,0,0)" />
<circle cx="12.6993" cy="18.5191" r="0.5" fill="rgb(0,0,0)" />
<circle cx="10.5117" cy="17.8426" r="0.5" fill="rgb(0,0,0)" />
<circle cx="9.34963" cy="9.46685" r="0.5" fill="rgb(0,0,0)" />
<circle cx="0.994343" cy="13.1933" r="0.5" fill="rgb(0,0,0)" />
<circle cx="17.9735" cy="12.4886" r="0.5" fill="rgb(0,0,0)" />
<circle cx="17.9774" cy="10.1454" r="0.5" fill="rgb(0,0,0)" />
<circle cx="8.90666" cy="2.0694" r="0.5" fill="rgb(0,0,0)" />
<circle cx="11.6702" cy="9.54179" r="0.5" fill="rgb(0,0,0)" />
<circle cx="2.19464" cy="14.3755" r="0.5" fill="rgb(0,0,0)" />
<circle cx="18.1284" cy="8.27123" r="0.5" fill="rgb(0,0,0)" />
<circle cx="2.77242" cy="8.2145" r="0.5" fill="rgb(0,0,0)" />
<circle cx="0.774038" cy="9.82101" r="0.5" fill="rgb(0,0,0)" />
<circle cx="7.47373" cy="18.2158" r="0.5" fill="rgb(0,0,0)" />
<circle cx="6.16216" cy="18.2903" r="0.5" fill="rgb(0,0,0)" />
<circle cx="18.1365" cy="15.9729" r="0.5" fill="rgb(0,0,0)" />
<circle cx="0.651347" cy="8.25629" r="0.5" fill="rgb(0,0,0)" />
<circle cx="6.01574" cy="6.67123" r="0.5" fill="rgb(0,0,0)" />
<circle cx="0.642801" cy="4.01394" r="0.5" fill="rgb(0,0,0)" />
<circle cx="0.454453" cy="6.30401" r="0.5" fill="rgb(0,0,0)" />
<circle cx="0.751328" cy="15.7505" r="0.5" fill="rgb(0,0,0)" />
<circle cx="5.50347" cy="7.78616" r="0.5" fill="rgb(0,0,0)" />
<circle cx="5.55216" cy="0.494129" r="0.5" fill="rgb(0,0,0)" />
<circle cx="0.636868" cy="1.16001" r="0.5" fill="rgb(0,0,0)" />
<circle cx="2.68274" cy="0.634647" r="0.5" fill="rgb(0,0,0)" />
<circle cx="3.01836" cy="18.3786" r="0.5" fill="rgb(0,0,0)" />
<circle cx="15.0628" cy="15.0593" r="0.5" fill="rgb(0,0,0)" />
<circle cx="0.582802" cy="18.1585" r="0.5" fill="rgb(0,0,0)" />
<circle cx="18.1475" cy="18.512" r="0.5" fill="rgb(0,0,0)" />
<circle cx="12.5167" cy="6.3667" r="0.5" fill="rgb(0,0,0)" />
<circle cx="18.3763" cy="17.3146" r="0.5" fill="rgb(0,0,0)" />
</svg>
