<?xml version="1.0" ?>
<!DOCTYPE svg PUBLIC "-//W3C//DTD SVG 1.1//EN" "http://www.w3.org/Graphics/SVG/1.1/DTD/svg11.dtd">
<svg width="20" height="20" version="1.1" xmlns="http://www.w3.org/2000/svg">
<circle cx="16.8731" cy="0.582386" r="0.5" fill="rgb(0,0,0)" />
<circle cx="12.7214" cy="0.602393" r="0.5" fill="rgb(0,0,0)" />
<circle cx="8.30626" cy="0.571451" r="0.5" fill="rgb(0,0,0)" />
<circle cx="6.83975" cy="1.01849" r="0.5" fill="rgb(0,0,0)" />
<circle cx="16.301" cy="1.70602" r="0.5" fill="rgb(0,0,0)" />
<circle cx="13.9107" cy="1.81841" r="0.5" fill="rgb(0,0,0)" />
<circle cx="1.9432" cy="2.00731" r="0.5" fill="rgb(0,0,0)" />
<circle cx="12.1245" cy="2.09344" r="0.5" fill="rgb(0,0,0)" />
<circle cx="10.5872" cy="0.753525" r="0.5" fill="rgb(0,0,0)" />
<circle cx="18.3642" cy="0.609884" r="0.5" fill="rgb(0,0,0)" />
<circle cx="9.15047" cy="1.82321" r="0.5" fill="rgb(0,0,0)" />
<circle cx="3.11468" cy="3.07197" r="0.5" fill="rgb(0,0,0)" />
<circle cx="14.3787" cy="3.17091" r="0.5" fill="rgb(0,0,0)" />
<circle cx="13.2098" cy="3.52461" r="0.5" fill="rgb(0,0,0)" />
<circle cx="15.1469" cy="3.94962" r="0.5" fill="rgb(0,0,0)" />
<circle cx="5.27772" cy="3.64211" r="0.5" fill="rgb(0,0,0)" />
<circle cx="17.5393" cy="4.2617" r="0.5" fill="rgb(0,0,0)" />
<circle cx="16.1931" cy="4.54148" r="0.5" fill="rgb(0,0,0)" />
<circle cx="4.33893" cy="4.75827" r="0.5" fill="rgb(0,0,0)" />
<circle cx="11.7093" cy="4.09123" r="0.5" fill="rgb(0,0,0)" />
<circle cx="6.0827" cy="5.12149" r="0.5" fill="rgb(0,0,0)" />
<circle cx="14.9055" cy="0.622109" r="0.5" fill="rgb(0,0,0)" />
<circle cx="1.67765" cy="5.74767" r="0.5" fill="rgb(0,0,0)" />
<circle cx="15.7207" cy="6.0581" r="0.5" fill="rgb(0,0,0)" />
<circle cx="4.3592" cy="6.11429" r="0.5" fill="rgb(0,0,0)" />
<circle cx="17.9325" cy="6.77926" r="0.5" fill="rgb(0,0,0)" />
<circle cx="9.8855" cy="6.54145" r="0.5" fill="rgb(0,0,0)" />
<circle cx="6.06035" cy="6.66246" r="0.5" fill="rgb(0,0,0)" />
<circle cx="8.34962" cy="6.65397" r="0.5" fill="rgb(0,0,0)" />
<circle cx="14.114" cy="6.79687" r="0.5" fill="rgb(0,0,0)" />
<circle cx="1.73699" cy="7.13346" r="0.5" fill="rgb(0,0,0)" />
<circle cx="3.48887" cy="7.09503" r="0.5" fill="rgb(0,0,0)" />
<circle cx="2.54628" cy="8.12448" r="0.5" fill="rgb(0,0,0)" />
<circle cx="15.4418" cy="7.48081" r="0.5" fill="rgb(0,0,0)" />
<circle cx="7.82669" cy="2.7179" r="0.5" fill="rgb(0,0,0)" />
<circle cx="9.02799" cy="7.83295" r="0.5" fill="rgb(0,0,0)" />
<circle cx="10.4379" cy="8.2736" r="0.5" fill="rgb(0,0,0)" />
<circle cx="7.02207" cy="8.17611" r="0.5" fill="rgb(0,0,0)" />
<circle cx="2.3757" cy="9.08068" r="0.5" fill="rgb(0,0,0)" />
<circle cx="12.2886" cy="8.193" r="0.5" fill="rgb(0,0,0)" />
<circle cx="14.7656" cy="5.20442" r="0.5" fill="rgb(0,0,0)" />
<circle cx="13.3168" cy="5.04741" r="0.5" fill="rgb(0,0,0)" />
<circle cx="16.284" cy="8.66891" r="0.5" fill="rgb(0,0,0)" />
<circle cx="6.72774" cy="3.7741" r="0.5" fill="rgb(0,0,0)" />
<circle cx="5.19668" cy="8.91266" r="0.5" fill="rgb(0,0,0)" />
<circle cx="8.35525" cy="8.96418" r="0.5" fill="rgb(0,0,0)" />
<circle cx="3.867" cy="8.91804" r="0.5" fill="rgb(0,0,0)" />
<circle cx="13.9671" cy="8.60428" r="0.5" fill="rgb(0,0,0)" />
<circle cx="2.98443" cy="9.88974" r="0.5" fill="rgb(0,0,0)" />
<circle cx="1.51442" cy="9.86777" r="0.5" fill="rgb(0,0,0)" />
<circle cx="9.83767" cy="9.60103" r="0.5" fill="rgb(0,0,0)" />
<circle cx="15.8226" cy="9.97389" r="0.5" fill="rgb(0,0,0)" />
<circle cx="7.53333" cy="10.1061" r="0.5" fill="rgb(0,0,0)" />
<circle cx="14.8037" cy="11.1749" r="0.5" fill="rgb(0,0,0)" />
<circle cx="4.77317" cy="10.6553" r="0.5" fill="rgb(0,0,0)" />
<circle cx="5.88751" cy="2.41296" r="0.5" fill="rgb(0,0,0)" />
<circle cx="3.04718" cy="10.98" r="0.5" fill="rgb(0,0,0)" />
<circle cx="11.5181" cy="11.0619" r="0.5" fill="rgb(0,0,0)" />
<circle cx="10.4077" cy="12.0231" r="0.5" fill="rgb(0,0,0)" />
<circle cx="16.3148" cy="12.0634" r="0.5" fill="rgb(0,0,0)" />
<circle cx="14.6692" cy="12.6888" r="0.5" fill="rgb(0,0,0)" />
<circle cx="9.08128" cy="12.5021" r="0.5" fill="rgb(0,0,0)" />
<circle cx="3.65182" cy="12.4946" r="0.5" fill="rgb(0,0,0)" />
<circle cx="6.15389" cy="12.4558" r="0.5" fill="rgb(0,0,0)" />
<circle cx="10.7165" cy="13.465" r="0.5" fill="rgb(0,0,0)" />
<circle cx="0.436532" cy="9.56863" r="0.5" fill="rgb(0,0,0)" />
<circle cx="13.4" cy="10.4193" r="0.5" fill="rgb(0,0,0)" />
<circle cx="12.437" cy="14.0469" r="0.5" fill="rgb(0,0,0)" />
<circle cx="8.30752" cy="14.2654" r="0.5" fill="rgb(0,0,0)" />
<circle cx="14.0673" cy="13.909" r="0.5" fill="rgb(0,0,0)" />
<circle cx="15.0604" cy="15.0759" r="0.5" fill="rgb(0,0,0)" />
<circle cx="13.277" cy="15.1318" r="0.5" fill="rgb(0,0,0)" />
<circle cx="1.80352" cy="3.44929" r="0.5" fill="rgb(0,0,0)" />
<circle cx="12.5946" cy="6.3273" r="0.5" fill="rgb(0,0,0)" />
<circle cx="2.00154" cy="14.4318" r="0.5" fill="rgb(0,0,0)" />
<circle cx="4.88638" cy="15.0863" r="0.5" fill="rgb(0,0,0)" />
<circle cx="3.46995" cy="14.747" r="0.5" fill="rgb(0,0,0)" />
<circle cx="14.1058" cy="15.8212" r="0.5" fill="rgb(0,0,0)" />
<circle cx="16.7369" cy="3.167" r="0.5" fill="rgb(0,0,0)" />
<circle cx="16.4074" cy="15.3963" r="0.5" fill="rgb(0,0,0)" />
<circle cx="5.96085" cy="15.5308" r="0.5" fill="rgb(0,0,0)" />
<circle cx="16.0248" cy="13.8577" r="0.5" fill="rgb(0,0,0)" />
<circle cx="11.5151" cy="15.3361" r="0.5" fill="rgb(0,0,0)" />
<circle cx="7.54398" cy="15.5944" r="0.5" fill="rgb(0,0,0)" />
<circle cx="12.726" cy="12.4482" r="0.5" fill="rgb(0,0,0)" />
<circle cx="10.1623" cy="15.0738" r="0.5" fill="rgb(0,0,0)" />
<circle cx="15.3889" cy="2.42524" r="0.5" fill="rgb(0,0,0)" />
<circle cx="6.68824" cy="16.4929" r="0.5" fill="rgb(0,0,0)" />
<circle cx="15.3015" cy="16.4697" r="0.5" fill="rgb(0,0,0)" />
<circle cx="18.0135" cy="1.88018" r="0.5" fill="rgb(0,0,0)" />
<circle cx="12.4775" cy="16.319" r="0.5" fill="rgb(0,0,0)" />
<circle cx="4.27858" cy="16.4775" r="0.5" fill="rgb(0,0,0)" />
<circle cx="1.12222" cy="11.4687" r="0.5" fill="rgb(0,0,0)" />
<circle cx="9.19609" cy="16.3732" r="0.5" fill="rgb(0,0,0)" />
<circle cx="14.0387" cy="17.0073" r="0.5" fill="rgb(0,0,0)" />
<circle cx="2.88697" cy="16.8667" r="0.5" fill="rgb(0,0,0)" />
<circle cx="16.538" cy="16.9747" r="0.5" fill="rgb(0,0,0)" />
<circle cx="5.5859" cy="17.257" r="0.5" fill="rgb(0,0,0)" />
<circle cx="11.2996" cy="6.58485" r="0.5" fill="rgb(0,0,0)" />
<circle cx="12.8162" cy="17.4491" r="0.5" fill="rgb(0,0,0)" />
<circle cx="8.21139" cy="17.4842" r="0.5" fill="rgb(0,0,0)" />
<circle cx="10.1274" cy="4.9224" r="0.5" fill="rgb(0,0,0)" />
<circle cx="16.9301" cy="7.36073" r="0.5" fill="rgb(0,0,0)" />
<circle cx="15.2874" cy="17.7946" r="0.5" fill="rgb(0,0,0)" />
<circle cx="6.99841" cy="17.725" r="0.5" fill="rgb(0,0,0)" />
<circle cx="17.2076" cy="17.8893" r="0.5" fill="rgb(0,0,0)" />
<circle cx="11.2494" cy="17.5958" r="0.5" fill="rgb(0,0,0)" />
<circle cx="17.9416" cy="9.66538" r="0.5" fill="rgb(0,0,0)" />
<circle cx="0.944976" cy="13.1936" r="0.5" fill="rgb(0,0,0)" />
<circle cx="17.9184" cy="13.3705" r="0.5" fill="rgb(0,0,0)" />
<circle cx="17.9309" cy="11.3807" r="0.5" fill="rgb(0,0,0)" />
<circle cx="0.757411" cy="8.05839" r="0.5" fill="rgb(0,0,0)" />
<circle cx="11.6483" cy="9.52175" r="0.5" fill="rgb(0,0,0)" />
<circle cx="1.67758" cy="16.4136" r="0.5" fill="rgb(0,0,0)" />
<circle cx="18.3082" cy="3.12327" r="0.5" fill="rgb(0,0,0)" />
<circle cx="4.49419" cy="18.1312" r="0.5" fill="rgb(0,0,0)" />
<circle cx="8.38871" cy="4.41516" r="0.5" fill="rgb(0,0,0)" />
<circle cx="16.9794" cy="5.62506" r="0.5" fill="rgb(0,0,0)" />
<circle cx="9.11371" cy="10.7016" r="0.5" fill="rgb(0,0,0)" />
<circle cx="12.6718" cy="18.5339" r="0.5" fill="rgb(0,0,0)" />
<circle cx="4.01545" cy="3.56831" r="0.5" fill="rgb(0,0,0)" />
<circle cx="17.7971" cy="14.9053" r="0.5" fill="rgb(0,0,0)" />
<circle cx="15.9618" cy="18.5339" r="0.5" fill="rgb(0,0,0)" />
<circle cx="14.2082" cy="18.3051" r="0.5" fill="rgb(0,0,0)" />
<circle cx="3.89833" cy="1.69579" r="0.5" fill="rgb(0,0,0)" />
<circle cx="5.48625" cy="13.7717" r="0.5" fill="rgb(0,0,0)" />
<circle cx="9.9887" cy="17.9755" r="0.5" fill="rgb(0,0,0)" />
<circle cx="0.450242" cy="6.29891" r="0.5" fill="rgb(0,0,0)" />
<circle cx="0.598054" cy="4.0554" r="0.5" fill="rgb(0,0,0)" />
<circle cx="18.4004" cy="4.82577" r="0.5" fill="rgb(0,0,0)" />
<circle cx="2.64267" cy="4.94293" r="0.5" fill="rgb(0,0,0)" />
<circle cx="7.38945" cy="5.92618" r="0.5" fill="rgb(0,0,0)" />
<circle cx="18.2375" cy="8.12251" r="0.5" fill="rgb(0,0,0)" />
<circle cx="18.4464" cy="6.08109" r="0.5" fill="rgb(0,0,0)" />
<circle cx="6.25855" cy="10.4087" r="0.5" fill="rgb(0,0,0)" />
<circle cx="18.2421" cy="16.0043" r="0.5" fill="rgb(0,0,0)" />
<circle cx="5.27209" cy="1.44064" r="0.5" fill="rgb(0,0,0)" />
<circle cx="0.527644" cy="15.6033" r="0.5" fill="rgb(0,0,0)" />
<circle cx="5.37744" cy="7.69414" r="0.5" fill="rgb(0,0,0)" />
<circle cx="8.38398" cy="18.5486" r="0.5" fill="rgb(0,0,0)" />
<circle cx="6.08673" cy="18.4798" r="0.5" fill="rgb(0,0,0)" />
<circle cx="5.00665" cy="0.358266" r="0.5" fill="rgb(0,0,0)" />
<circle cx="7.67124" cy="12.2972" r="0.5" fill="rgb(0,0,0)" />
<circle cx="0.607457" cy="1.19882" r="0.5" fill="rgb(0,0,0)" />
<circle cx="2.51103" cy="0.569494" r="0.5" fill="rgb(0,0,0)" />
<circle cx="0.516867" cy="17.9391" r="0.5" fill="rgb(0,0,0)" />
<circle cx="3.2056" cy="18.3099" r="0.5" fill="rgb(0,0,0)" />
<circle cx="1.76417" cy="18.2199" r="0.5" fill="rgb(0,0,0)" />
<circle cx="10.256" cy="2.95364" r="0.5" fill="rgb(0,0,0)" />
<circle cx="18.1376" cy="18.5193" r="0.5" fill="rgb(0,0,0)" />
<circle cx="18.3535" cy="17.2965" r="0.5" fill="rgb(0,0,0)" />
</svg>
