<?xml version="1.0" ?>
<!DOCTYPE svg PUBLIC "-//W3C//DTD SVG 1.1//EN" "http://www.w3.org/Graphics/SVG/1.1/DTD/svg11.dtd">
<svg width="20" height="20" version="1.1" xmlns="http://www.w3.org/2000/svg">
<circle cx="12.1557" cy="0.481851" r="0.5" fill="rgb(0,0,0)" />
<circle cx="10.8452" cy="0.410579" r="0.5" fill="rgb(0,0,0)" />
<circle cx="14.8045" cy="0.398393" r="0.5" fill="rgb(0,0,0)" />
<circle cx="7.99366" cy="0.639985" r="0.5" fill="rgb(0,0,0)" />
<circle cx="13.4209" cy="0.511752" r="0.5" fill="rgb(0,0,0)" />
<circle cx="12.0114" cy="1.49672" r="0.5" fill="rgb(0,0,0)" />
<circle cx="10.5597" cy="1.38339" r="0.5" fill="rgb(0,0,0)" />
<circle cx="13.4612" cy="1.69196" r="0.5" fill="rgb(0,0,0)" />
<circle cx="3.24042" cy="1.57317" r="0.5" fill="rgb(0,0,0)" />
<circle cx="9.08335" cy="1.69609" r="0.5" fill="rgb(0,0,0)" />
<circle cx="12.7153" cy="1.9894" r="0.5" fill="rgb(0,0,0)" />
<circle cx="1.82663" cy="1.95758" r="0.5" fill="rgb(0,0,0)" />
<circle cx="16.4672" cy="2.09924" r="0.5" fill="rgb(0,0,0)" />
<circle cx="3.20316" cy="2.81643" r="0.5" fill="rgb(0,0,0)" />
<circle cx="17.8521" cy="2.64098" r="0.5" fill="rgb(0,0,0)" />
<circle cx="11.6715" cy="2.69573" r="0.5" fill="rgb(0,0,0)" />
<circle cx="14.6045" cy="3.1191" r="0.5" fill="rgb(0,0,0)" />
<circle cx="3.60937" cy="3.56784" r="0.5" fill="rgb(0,0,0)" />
<circle cx="6.14445" cy="3.57183" r="0.5" fill="rgb(0,0,0)" />
<circle cx="4.76412" cy="4.41015" r="0.5" fill="rgb(0,0,0)" />
<circle cx="16.7024" cy="4.40762" r="0.5" fill="rgb(0,0,0)" />
<circle cx="8.99635" cy="2.76499" r="0.5" fill="rgb(0,0,0)" />
<circle cx="10.6358" cy="3.90555" r="0.5" fill="rgb(0,0,0)" />
<circle cx="7.19941" cy="3.98628" r="0.5" fill="rgb(0,0,0)" />
<circle cx="10.103" cy="4.62799" r="0.5" fill="rgb(0,0,0)" />
<circle cx="5.53397" cy="4.60756" r="0.5" fill="rgb(0,0,0)" />
<circle cx="15.2601" cy="5.10689" r="0.5" fill="rgb(0,0,0)" />
<circle cx="18.4606" cy="0.571189" r="0.5" fill="rgb(0,0,0)" />
<circle cx="7.94087" cy="4.91607" r="0.5" fill="rgb(0,0,0)" />
<circle cx="9.39036" cy="5.03514" r="0.5" fill="rgb(0,0,0)" />
<circle cx="1.27254" cy="5.3194" r="0.5" fill="rgb(0,0,0)" />
<circle cx="8.88508" cy="5.80031" r="0.5" fill="rgb(0,0,0)" />
<circle cx="3.17563" cy="5.57812" r="0.5" fill="rgb(0,0,0)" />
<circle cx="15.6614" cy="6.02495" r="0.5" fill="rgb(0,0,0)" />
<circle cx="12.6884" cy="5.50445" r="0.5" fill="rgb(0,0,0)" />
<circle cx="6.98865" cy="1.41582" r="0.5" fill="rgb(0,0,0)" />
<circle cx="5.30128" cy="3.60824" r="0.5" fill="rgb(0,0,0)" />
<circle cx="1.89258" cy="6.20286" r="0.5" fill="rgb(0,0,0)" />
<circle cx="4.32484" cy="6.388" r="0.5" fill="rgb(0,0,0)" />
<circle cx="13.7086" cy="3.48211" r="0.5" fill="rgb(0,0,0)" />
<circle cx="18.1081" cy="7.10284" r="0.5" fill="rgb(0,0,0)" />
<circle cx="1.58693" cy="7.18162" r="0.5" fill="rgb(0,0,0)" />
<circle cx="2.94099" cy="7.03142" r="0.5" fill="rgb(0,0,0)" />
<circle cx="15.6611" cy="7.18986" r="0.5" fill="rgb(0,0,0)" />
<circle cx="12.6609" cy="7.005" r="0.5" fill="rgb(0,0,0)" />
<circle cx="10.2604" cy="7.24128" r="0.5" fill="rgb(0,0,0)" />
<circle cx="14.3637" cy="7.01686" r="0.5" fill="rgb(0,0,0)" />
<circle cx="2.18502" cy="4.83106" r="0.5" fill="rgb(0,0,0)" />
<circle cx="6.58546" cy="7.64833" r="0.5" fill="rgb(0,0,0)" />
<circle cx="5.71224" cy="6.28705" r="0.5" fill="rgb(0,0,0)" />
<circle cx="5.25478" cy="7.46228" r="0.5" fill="rgb(0,0,0)" />
<circle cx="11.3133" cy="7.21317" r="0.5" fill="rgb(0,0,0)" />
<circle cx="12.7421" cy="3.85597" r="0.5" fill="rgb(0,0,0)" />
<circle cx="17.0748" cy="7.72106" r="0.5" fill="rgb(0,0,0)" />
<circle cx="2.61265" cy="8.19698" r="0.5" fill="rgb(0,0,0)" />
<circle cx="4.39876" cy="3.55353" r="0.5" fill="rgb(0,0,0)" />
<circle cx="13.6683" cy="7.92548" r="0.5" fill="rgb(0,0,0)" />
<circle cx="5.73887" cy="1.4888" r="0.5" fill="rgb(0,0,0)" />
<circle cx="9.63096" cy="3.51824" r="0.5" fill="rgb(0,0,0)" />
<circle cx="9.35902" cy="7.99288" r="0.5" fill="rgb(0,0,0)" />
<circle cx="11.7053" cy="4.24255" r="0.5" fill="rgb(0,0,0)" />
<circle cx="10.3261" cy="8.50657" r="0.5" fill="rgb(0,0,0)" />
<circle cx="16.7485" cy="3.33196" r="0.5" fill="rgb(0,0,0)" />
<circle cx="14.9876" cy="8.56952" r="0.5" fill="rgb(0,0,0)" />
<circle cx="12.1648" cy="8.38863" r="0.5" fill="rgb(0,0,0)" />
<circle cx="1.48875" cy="9.12818" r="0.5" fill="rgb(0,0,0)" />
<circle cx="6.06779" cy="9.19759" r="0.5" fill="rgb(0,0,0)" />
<circle cx="13.3726" cy="9.09651" r="0.5" fill="rgb(0,0,0)" />
<circle cx="3.67709" cy="9.6621" r="0.5" fill="rgb(0,0,0)" />
<circle cx="17.0155" cy="9.22223" r="0.5" fill="rgb(0,0,0)" />
<circle cx="18.0926" cy="1.74755" r="0.5" fill="rgb(0,0,0)" />
<circle cx="9.07015" cy="9.80417" r="0.5" fill="rgb(0,0,0)" />
<circle cx="15.3264" cy="3.84573" r="0.5" fill="rgb(0,0,0)" />
<circle cx="8.13361" cy="9.89209" r="0.5" fill="rgb(0,0,0)" />
<circle cx="4.42602" cy="0.681524" r="0.5" fill="rgb(0,0,0)" />
<circle cx="9.84096" cy="9.39788" r="0.5" fill="rgb(0,0,0)" />
<circle cx="11.3723" cy="9.37797" r="0.5" fill="rgb(0,0,0)" />
<circle cx="14.5817" cy="9.84131" r="0.5" fill="rgb(0,0,0)" />
<circle cx="4.67196" cy="10.1694" r="0.5" fill="rgb(0,0,0)" />
<circle cx="1.8376" cy="10.2047" r="0.5" fill="rgb(0,0,0)" />
<circle cx="13.2802" cy="10.2185" r="0.5" fill="rgb(0,0,0)" />
<circle cx="15.9849" cy="0.767592" r="0.5" fill="rgb(0,0,0)" />
<circle cx="16.1469" cy="8.35713" r="0.5" fill="rgb(0,0,0)" />
<circle cx="15.7801" cy="9.91939" r="0.5" fill="rgb(0,0,0)" />
<circle cx="3.84954" cy="8.79542" r="0.5" fill="rgb(0,0,0)" />
<circle cx="6.16159" cy="10.3373" r="0.5" fill="rgb(0,0,0)" />
<circle cx="7.67478" cy="7.17288" r="0.5" fill="rgb(0,0,0)" />
<circle cx="3.25965" cy="10.5666" r="0.5" fill="rgb(0,0,0)" />
<circle cx="8.52685" cy="10.8202" r="0.5" fill="rgb(0,0,0)" />
<circle cx="18.5998" cy="6.44539" r="0.5" fill="rgb(0,0,0)" />
<circle cx="9.61841" cy="10.7467" r="0.5" fill="rgb(0,0,0)" />
<circle cx="16.9202" cy="10.6488" r="0.5" fill="rgb(0,0,0)" />
<circle cx="5.74106" cy="0.390257" r="0.5" fill="rgb(0,0,0)" />
<circle cx="15.0964" cy="11.1628" r="0.5" fill="rgb(0,0,0)" />
<circle cx="16.7663" cy="5.44983" r="0.5" fill="rgb(0,0,0)" />
<circle cx="12.2114" cy="10.94" r="0.5" fill="rgb(0,0,0)" />
<circle cx="3.94696" cy="11.5362" r="0.5" fill="rgb(0,0,0)" />
<circle cx="2.3268" cy="11.5498" r="0.5" fill="rgb(0,0,0)" />
<circle cx="4.79663" cy="11.2577" r="0.5" fill="rgb(0,0,0)" />
<circle cx="5.79256" cy="11.6038" r="0.5" fill="rgb(0,0,0)" />
<circle cx="16.2031" cy="12.0612" r="0.5" fill="rgb(0,0,0)" />
<circle cx="0.837354" cy="11.2783" r="0.5" fill="rgb(0,0,0)" />
<circle cx="17.3071" cy="0.691287" r="0.5" fill="rgb(0,0,0)" />
<circle cx="3.53172" cy="12.4082" r="0.5" fill="rgb(0,0,0)" />
<circle cx="6.81171" cy="2.79654" r="0.5" fill="rgb(0,0,0)" />
<circle cx="13.4572" cy="12.5145" r="0.5" fill="rgb(0,0,0)" />
<circle cx="6.23897" cy="12.8434" r="0.5" fill="rgb(0,0,0)" />
<circle cx="5.74538" cy="2.34806" r="0.5" fill="rgb(0,0,0)" />
<circle cx="2.77529" cy="4.02439" r="0.5" fill="rgb(0,0,0)" />
<circle cx="1.23086" cy="7.99206" r="0.5" fill="rgb(0,0,0)" />
<circle cx="9.22259" cy="12.1245" r="0.5" fill="rgb(0,0,0)" />
<circle cx="15.0821" cy="13.4724" r="0.5" fill="rgb(0,0,0)" />
<circle cx="7.338" cy="10.8275" r="0.5" fill="rgb(0,0,0)" />
<circle cx="12.1161" cy="12.7898" r="0.5" fill="rgb(0,0,0)" />
<circle cx="4.17645" cy="13.16" r="0.5" fill="rgb(0,0,0)" />
<circle cx="7.53417" cy="6.03066" r="0.5" fill="rgb(0,0,0)" />
<circle cx="10.5449" cy="13.393" r="0.5" fill="rgb(0,0,0)" />
<circle cx="4.07605" cy="7.62491" r="0.5" fill="rgb(0,0,0)" />
<circle cx="10.2726" cy="12.3458" r="0.5" fill="rgb(0,0,0)" />
<circle cx="4.94395" cy="13.6729" r="0.5" fill="rgb(0,0,0)" />
<circle cx="7.13557" cy="9.86997" r="0.5" fill="rgb(0,0,0)" />
<circle cx="13.4313" cy="13.8658" r="0.5" fill="rgb(0,0,0)" />
<circle cx="9.29105" cy="0.525684" r="0.5" fill="rgb(0,0,0)" />
<circle cx="6.10597" cy="14.059" r="0.5" fill="rgb(0,0,0)" />
<circle cx="8.59668" cy="6.86934" r="0.5" fill="rgb(0,0,0)" />
<circle cx="14.3531" cy="14.191" r="0.5" fill="rgb(0,0,0)" />
<circle cx="15.5544" cy="14.4731" r="0.5" fill="rgb(0,0,0)" />
<circle cx="7.68561" cy="14.0474" r="0.5" fill="rgb(0,0,0)" />
<circle cx="5.02773" cy="14.9168" r="0.5" fill="rgb(0,0,0)" />
<circle cx="8.96286" cy="14.5829" r="0.5" fill="rgb(0,0,0)" />
<circle cx="15.4204" cy="2.47345" r="0.5" fill="rgb(0,0,0)" />
<circle cx="2.31714" cy="13.1895" r="0.5" fill="rgb(0,0,0)" />
<circle cx="11.5447" cy="14.619" r="0.5" fill="rgb(0,0,0)" />
<circle cx="6.23297" cy="4.92234" r="0.5" fill="rgb(0,0,0)" />
<circle cx="9.68285" cy="6.51293" r="0.5" fill="rgb(0,0,0)" />
<circle cx="15.0601" cy="15.3146" r="0.5" fill="rgb(0,0,0)" />
<circle cx="7.34847" cy="8.13362" r="0.5" fill="rgb(0,0,0)" />
<circle cx="2.23426" cy="15.3508" r="0.5" fill="rgb(0,0,0)" />
<circle cx="4.02908" cy="14.7844" r="0.5" fill="rgb(0,0,0)" />
<circle cx="10.4181" cy="14.8928" r="0.5" fill="rgb(0,0,0)" />
<circle cx="17.6487" cy="14.9313" r="0.5" fill="rgb(0,0,0)" />
<circle cx="4.83006" cy="15.8375" r="0.5" fill="rgb(0,0,0)" />
<circle cx="13.0335" cy="2.74435" r="0.5" fill="rgb(0,0,0)" />
<circle cx="16.5291" cy="13.5524" r="0.5" fill="rgb(0,0,0)" />
<circle cx="14.2673" cy="15.7601" r="0.5" fill="rgb(0,0,0)" />
<circle cx="7.79211" cy="2.35523" r="0.5" fill="rgb(0,0,0)" />
<circle cx="14.2354" cy="5.7104" r="0.5" fill="rgb(0,0,0)" />
<circle cx="3.26207" cy="15.7891" r="0.5" fill="rgb(0,0,0)" />
<circle cx="14.8188" cy="12.5103" r="0.5" fill="rgb(0,0,0)" />
<circle cx="13.4635" cy="15.0094" r="0.5" fill="rgb(0,0,0)" />
<circle cx="16.3607" cy="15.4826" r="0.5" fill="rgb(0,0,0)" />
<circle cx="12.4768" cy="14.2451" r="0.5" fill="rgb(0,0,0)" />
<circle cx="7.49826" cy="15.5914" r="0.5" fill="rgb(0,0,0)" />
<circle cx="11.9794" cy="15.6372" r="0.5" fill="rgb(0,0,0)" />
<circle cx="13.2537" cy="15.8568" r="0.5" fill="rgb(0,0,0)" />
<circle cx="1.29968" cy="16.1306" r="0.5" fill="rgb(0,0,0)" />
<circle cx="6.64295" cy="16.4624" r="0.5" fill="rgb(0,0,0)" />
<circle cx="3.99183" cy="16.1511" r="0.5" fill="rgb(0,0,0)" />
<circle cx="10.4549" cy="2.59957" r="0.5" fill="rgb(0,0,0)" />
<circle cx="17.5976" cy="4.32404" r="0.5" fill="rgb(0,0,0)" />
<circle cx="9.25969" cy="16.0599" r="0.5" fill="rgb(0,0,0)" />
<circle cx="1.99883" cy="16.664" r="0.5" fill="rgb(0,0,0)" />
<circle cx="12.5619" cy="16.5982" r="0.5" fill="rgb(0,0,0)" />
<circle cx="6.61991" cy="6.80249" r="0.5" fill="rgb(0,0,0)" />
<circle cx="1.27961" cy="17.2615" r="0.5" fill="rgb(0,0,0)" />
<circle cx="6.88564" cy="0.341618" r="0.5" fill="rgb(0,0,0)" />
<circle cx="15.1231" cy="16.4908" r="0.5" fill="rgb(0,0,0)" />
<circle cx="2.2338" cy="3.04075" r="0.5" fill="rgb(0,0,0)" />
<circle cx="2.97884" cy="16.7192" r="0.5" fill="rgb(0,0,0)" />
<circle cx="10.8657" cy="16.5898" r="0.5" fill="rgb(0,0,0)" />
<circle cx="7.81071" cy="16.9759" r="0.5" fill="rgb(0,0,0)" />
<circle cx="1.96987" cy="17.7468" r="0.5" fill="rgb(0,0,0)" />
<circle cx="6.59984" cy="5.60206" r="0.5" fill="rgb(0,0,0)" />
<circle cx="3.13337" cy="14.3894" r="0.5" fill="rgb(0,0,0)" />
<circle cx="13.1829" cy="17.4627" r="0.5" fill="rgb(0,0,0)" />
<circle cx="8.47289" cy="8.0827" r="0.5" fill="rgb(0,0,0)" />
<circle cx="1.2144" cy="17.8887" r="0.5" fill="rgb(0,0,0)" />
<circle cx="17.8029" cy="17.4273" r="0.5" fill="rgb(0,0,0)" />
<circle cx="17.013" cy="6.4331" r="0.5" fill="rgb(0,0,0)" />
<circle cx="5.67152" cy="17.3888" r="0.5" fill="rgb(0,0,0)" />
<circle cx="5.00667" cy="2.82391" r="0.5" fill="rgb(0,0,0)" />
<circle cx="13.7041" cy="11.2917" r="0.5" fill="rgb(0,0,0)" />
<circle cx="2.81105" cy="17.702" r="0.5" fill="rgb(0,0,0)" />
<circle cx="6.14059" cy="15.2801" r="0.5" fill="rgb(0,0,0)" />
<circle cx="15.4389" cy="17.9682" r="0.5" fill="rgb(0,0,0)" />
<circle cx="4.2855" cy="2.17224" r="0.5" fill="rgb(0,0,0)" />
<circle cx="3.79993" cy="4.55503" r="0.5" fill="rgb(0,0,0)" />
<circle cx="6.77277" cy="17.723" r="0.5" fill="rgb(0,0,0)" />
<circle cx="8.23655" cy="18.0364" r="0.5" fill="rgb(0,0,0)" />
<circle cx="14.2986" cy="18.053" r="0.5" fill="rgb(0,0,0)" />
<circle cx="12.0478" cy="17.9274" r="0.5" fill="rgb(0,0,0)" />
<circle cx="10.9988" cy="18.3764" r="0.5" fill="rgb(0,0,0)" />
<circle cx="4.91492" cy="9.02738" r="0.5" fill="rgb(0,0,0)" />
<circle cx="9.91212" cy="17.9743" r="0.5" fill="rgb(0,0,0)" />
<circle cx="4.53504" cy="18.1206" r="0.5" fill="rgb(0,0,0)" />
<circle cx="9.04149" cy="17.3275" r="0.5" fill="rgb(0,0,0)" />
<circle cx="0.421155" cy="16.5959" r="0.5" fill="rgb(0,0,0)" />
<circle cx="15.9048" cy="17.0533" r="0.5" fill="rgb(0,0,0)" />
<circle cx="18.0559" cy="11.5884" r="0.5" fill="rgb(0,0,0)" />
<circle cx="2.80395" cy="9.75924" r="0.5" fill="rgb(0,0,0)" />
<circle cx="0.504633" cy="14.94" r="0.5" fill="rgb(0,0,0)" />
<circle cx="8.48462" cy="3.80341" r="0.5" fill="rgb(0,0,0)" />
<circle cx="18.0796" cy="13.4494" r="0.5" fill="rgb(0,0,0)" />
<circle cx="0.674721" cy="12.8095" r="0.5" fill="rgb(0,0,0)" />
<circle cx="8.15619" cy="11.627" r="0.5" fill="rgb(0,0,0)" />
<circle cx="0.467327" cy="10.0575" r="0.5" fill="rgb(0,0,0)" />
<circle cx="17.0334" cy="16.7677" r="0.5" fill="rgb(0,0,0)" />
<circle cx="18.3011" cy="9.61528" r="0.5" fill="rgb(0,0,0)" />
<circle cx="18.1503" cy="5.59618" r="0.5" fill="rgb(0,0,0)" />
<circle cx="18.367" cy="8.14465" r="0.5" fill="rgb(0,0,0)" />
<circle cx="18.5074" cy="4.52902" r="0.5" fill="rgb(0,0,0)" />
<circle cx="13.9997" cy="4.5261" r="0.5" fill="rgb(0,0,0)" />
<circle cx="18.3766" cy="15.8336" r="0.5" fill="rgb(0,0,0)" />
<circle cx="3.44762" cy="18.4167" r="0.5" fill="rgb(0,0,0)" />
<circle cx="15.0989" cy="18.6651" r="0.5" fill="rgb(0,0,0)" />
<circle cx="5.58008" cy="16.3766" r="0.5" fill="rgb(0,0,0)" />
<circle cx="13.242" cy="18.5281" r="0.5" fill="rgb(0,0,0)" />
<circle cx="8.10498" cy="18.6504" r="0.5" fill="rgb(0,0,0)" />
<circle cx="6.05951" cy="18.5091" r="0.5" fill="rgb(0,0,0)" />
<circle cx="1.48329" cy="3.69446" r="0.5" fill="rgb(0,0,0)" />
<circle cx="8.26367" cy="12.8847" r="0.5" fill="rgb(0,0,0)" />
<circle cx="0.467086" cy="6.82353" r="0.5" fill="rgb(0,0,0)" />
<circle cx="18.447" cy="3.24257" r="0.5" fill="rgb(0,0,0)" />
<circle cx="2.57622" cy="0.533931" r="0.5" fill="rgb(0,0,0)" />
<circle cx="14.4987" cy="1.30189" r="0.5" fill="rgb(0,0,0)" />
<circle cx="0.771326" cy="0.736266" r="0.5" fill="rgb(0,0,0)" />
<circle cx="4.491" cy="16.9738" r="0.5" fill="rgb(0,0,0)" />
<circle cx="0.568706" cy="2.37808" r="0.5" fill="rgb(0,0,0)" />
<circle cx="11.0125" cy="5.63875" r="0.5" fill="rgb(0,0,0)" />
<circle cx="0.403392" cy="5.15427" r="0.5" fill="rgb(0,0,0)" />
<circle cx="16.651" cy="18.3124" r="0.5" fill="rgb(0,0,0)" />
<circle cx="0.473501" cy="3.79556" r="0.5" fill="rgb(0,0,0)" />
<circle cx="1.47128" cy="14.2694" r="0.5" fill="rgb(0,0,0)" />
<circle cx="0.278948" cy="17.6546" r="0.5" fill="rgb(0,0,0)" />
<circle cx="14.2221" cy="2.26584" r="0.5" fill="rgb(0,0,0)" />
<circle cx="5.89824" cy="8.25142" r="0.5" fill="rgb(0,0,0)" />
<circle cx="8.45436" cy="8.98754" r="0.5" fill="rgb(0,0,0)" />
<circle cx="2.56716" cy="9.18853" r="0.5" fill="rgb(0,0,0)" />
<circle cx="14.1532" cy="16.9859" r="0.5" fill="rgb(0,0,0)" />
<circle cx="0.370721" cy="18.4709" r="0.5" fill="rgb(0,0,0)" />
<circle cx="15.942" cy="4.55104" r="0.5" fill="rgb(0,0,0)" />
<circle cx="4.68566" cy="5.38953" r="0.5" fill="rgb(0,0,0)" />
<circle cx="2.09471" cy="18.5955" r="0.5" fill="rgb(0,0,0)" />
<circle cx="7.2717" cy="9.04856" r="0.5" fill="rgb(0,0,0)" />
<circle cx="7.10546" cy="11.9383" r="0.5" fill="rgb(0,0,0)" />
<circle cx="1.08505" cy="18.5812" r="0.5" fill="rgb(0,0,0)" />
<circle cx="17.8128" cy="18.5834" r="0.5" fill="rgb(0,0,0)" />
<circle cx="18.5452" cy="18.3754" r="0.5" fill="rgb(0,0,0)" />
<circle cx="10.8332" cy="10.9602" r="0.5" fill="rgb(0,0,0)" />
<circle cx="0.432809" cy="8.63448" r="0.5" fill="rgb(0,0,0)" />
<circle cx="18.6573" cy="17.2968" r="0.5" fill="rgb(0,0,0)" />
</svg>
