<?xml version="1.0" ?>
<!DOCTYPE svg PUBLIC "-//W3C//DTD SVG 1.1//EN" "http://www.w3.org/Graphics/SVG/1.1/DTD/svg11.dtd">
<svg width="20" height="20" version="1.1" xmlns="http://www.w3.org/2000/svg">
<circle cx="16.834" cy="0.627589" r="0.5" fill="rgb(0,0,0)" />
<circle cx="8.12358" cy="0.532657" r="0.5" fill="rgb(0,0,0)" />
<circle cx="14.9413" cy="0.643659" r="0.5" fill="rgb(0,0,0)" />
<circle cx="10.4991" cy="0.77326" r="0.5" fill="rgb(0,0,0)" />
<circle cx="4.43059" cy="1.35698" r="0.5" fill="rgb(0,0,0)" />
<circle cx="13.9118" cy="1.81766" r="0.5" fill="rgb(0,0,0)" />
<circle cx="1.94189" cy="2.06742" r="0.5" fill="rgb(0,0,0)" />
<circle cx="12.1309" cy="2.0886" r="0.5" fill="rgb(0,0,0)" />
<circle cx="16.5126" cy="2.09697" r="0.5" fill="rgb(0,0,0)" />
<circle cx="15.4062" cy="2.39127" r="0.5" fill="rgb(0,0,0)" />
<circle cx="5.69033" cy="2.36131" r="0.5" fill="rgb(0,0,0)" />
<circle cx="18.0414" cy="1.85489" r="0.5" fill="rgb(0,0,0)" />
<circle cx="3.58228" cy="2.75255" r="0.5" fill="rgb(0,0,0)" />
<circle cx="14.3848" cy="3.18933" r="0.5" fill="rgb(0,0,0)" />
<circle cx="13.1962" cy="3.52916" r="0.5" fill="rgb(0,0,0)" />
<circle cx="15.2071" cy="3.92096" r="0.5" fill="rgb(0,0,0)" />
<circle cx="6.87022" cy="3.44022" r="0.5" fill="rgb(0,0,0)" />
<circle cx="16.2578" cy="4.2889" r="0.5" fill="rgb(0,0,0)" />
<circle cx="8.3805" cy="4.16536" r="0.5" fill="rgb(0,0,0)" />
<circle cx="11.6815" cy="4.12407" r="0.5" fill="rgb(0,0,0)" />
<circle cx="6.08622" cy="4.96551" r="0.5" fill="rgb(0,0,0)" />
<circle cx="2.74859" cy="4.88305" r="0.5" fill="rgb(0,0,0)" />
<circle cx="10.3084" cy="2.95121" r="0.5" fill="rgb(0,0,0)" />
<circle cx="10.0634" cy="5.01886" r="0.5" fill="rgb(0,0,0)" />
<circle cx="15.7115" cy="6.01265" r="0.5" fill="rgb(0,0,0)" />
<circle cx="5.97105" cy="6.63106" r="0.5" fill="rgb(0,0,0)" />
<circle cx="8.63114" cy="6.47743" r="0.5" fill="rgb(0,0,0)" />
<circle cx="12.4074" cy="6.32083" r="0.5" fill="rgb(0,0,0)" />
<circle cx="10.7353" cy="6.63774" r="0.5" fill="rgb(0,0,0)" />
<circle cx="14.0896" cy="6.8119" r="0.5" fill="rgb(0,0,0)" />
<circle cx="1.66992" cy="7.2742" r="0.5" fill="rgb(0,0,0)" />
<circle cx="17.0271" cy="7.29057" r="0.5" fill="rgb(0,0,0)" />
<circle cx="3.58023" cy="7.03884" r="0.5" fill="rgb(0,0,0)" />
<circle cx="15.4555" cy="7.47141" r="0.5" fill="rgb(0,0,0)" />
<circle cx="9.08643" cy="7.75537" r="0.5" fill="rgb(0,0,0)" />
<circle cx="12.7155" cy="0.595992" r="0.5" fill="rgb(0,0,0)" />
<circle cx="2.76371" cy="8.20771" r="0.5" fill="rgb(0,0,0)" />
<circle cx="5.47458" cy="7.77206" r="0.5" fill="rgb(0,0,0)" />
<circle cx="7.25953" cy="8.19409" r="0.5" fill="rgb(0,0,0)" />
<circle cx="10.4052" cy="8.38961" r="0.5" fill="rgb(0,0,0)" />
<circle cx="8.90666" cy="2.06706" r="0.5" fill="rgb(0,0,0)" />
<circle cx="7.40992" cy="5.9018" r="0.5" fill="rgb(0,0,0)" />
<circle cx="16.3017" cy="8.6998" r="0.5" fill="rgb(0,0,0)" />
<circle cx="17.2711" cy="3.77356" r="0.5" fill="rgb(0,0,0)" />
<circle cx="13.9165" cy="8.68791" r="0.5" fill="rgb(0,0,0)" />
<circle cx="2.42812" cy="9.27716" r="0.5" fill="rgb(0,0,0)" />
<circle cx="11.6724" cy="9.53591" r="0.5" fill="rgb(0,0,0)" />
<circle cx="9.33776" cy="9.40794" r="0.5" fill="rgb(0,0,0)" />
<circle cx="4.18671" cy="9.93889" r="0.5" fill="rgb(0,0,0)" />
<circle cx="17.0023" cy="5.56379" r="0.5" fill="rgb(0,0,0)" />
<circle cx="7.57956" cy="9.89845" r="0.5" fill="rgb(0,0,0)" />
<circle cx="9.07556" cy="10.7844" r="0.5" fill="rgb(0,0,0)" />
<circle cx="13.3246" cy="5.07509" r="0.5" fill="rgb(0,0,0)" />
<circle cx="2.77257" cy="10.6044" r="0.5" fill="rgb(0,0,0)" />
<circle cx="13.7654" cy="10.6723" r="0.5" fill="rgb(0,0,0)" />
<circle cx="4.31379" cy="5.56632" r="0.5" fill="rgb(0,0,0)" />
<circle cx="6.03874" cy="10.5687" r="0.5" fill="rgb(0,0,0)" />
<circle cx="11.539" cy="11.0418" r="0.5" fill="rgb(0,0,0)" />
<circle cx="16.2284" cy="11.7038" r="0.5" fill="rgb(0,0,0)" />
<circle cx="1.66391" cy="5.76226" r="0.5" fill="rgb(0,0,0)" />
<circle cx="12.6555" cy="12.463" r="0.5" fill="rgb(0,0,0)" />
<circle cx="7.09191" cy="1.64609" r="0.5" fill="rgb(0,0,0)" />
<circle cx="14.7095" cy="12.4176" r="0.5" fill="rgb(0,0,0)" />
<circle cx="8.35277" cy="12.3824" r="0.5" fill="rgb(0,0,0)" />
<circle cx="3.81404" cy="12.1765" r="0.5" fill="rgb(0,0,0)" />
<circle cx="10.6986" cy="13.4017" r="0.5" fill="rgb(0,0,0)" />
<circle cx="16.1406" cy="13.7366" r="0.5" fill="rgb(0,0,0)" />
<circle cx="4.77445" cy="3.83597" r="0.5" fill="rgb(0,0,0)" />
<circle cx="12.3987" cy="14.1126" r="0.5" fill="rgb(0,0,0)" />
<circle cx="5.32062" cy="13.7315" r="0.5" fill="rgb(0,0,0)" />
<circle cx="8.33272" cy="14.3136" r="0.5" fill="rgb(0,0,0)" />
<circle cx="1.17016" cy="11.46" r="0.5" fill="rgb(0,0,0)" />
<circle cx="2.20537" cy="14.3713" r="0.5" fill="rgb(0,0,0)" />
<circle cx="13.2181" cy="15.2387" r="0.5" fill="rgb(0,0,0)" />
<circle cx="10.1321" cy="12.067" r="0.5" fill="rgb(0,0,0)" />
<circle cx="14.094" cy="15.8457" r="0.5" fill="rgb(0,0,0)" />
<circle cx="16.4824" cy="15.4359" r="0.5" fill="rgb(0,0,0)" />
<circle cx="5.0706" cy="15.2041" r="0.5" fill="rgb(0,0,0)" />
<circle cx="10.1327" cy="14.9785" r="0.5" fill="rgb(0,0,0)" />
<circle cx="5.182" cy="16.3131" r="0.5" fill="rgb(0,0,0)" />
<circle cx="11.3482" cy="15.5553" r="0.5" fill="rgb(0,0,0)" />
<circle cx="15.2743" cy="16.495" r="0.5" fill="rgb(0,0,0)" />
<circle cx="18.235" cy="3.09646" r="0.5" fill="rgb(0,0,0)" />
<circle cx="12.1954" cy="8.07773" r="0.5" fill="rgb(0,0,0)" />
<circle cx="7.42787" cy="15.5258" r="0.5" fill="rgb(0,0,0)" />
<circle cx="14.0988" cy="13.8458" r="0.5" fill="rgb(0,0,0)" />
<circle cx="12.2368" cy="16.4684" r="0.5" fill="rgb(0,0,0)" />
<circle cx="6.73051" cy="16.4115" r="0.5" fill="rgb(0,0,0)" />
<circle cx="9.17432" cy="16.4494" r="0.5" fill="rgb(0,0,0)" />
<circle cx="17.9361" cy="14.466" r="0.5" fill="rgb(0,0,0)" />
<circle cx="2.77148" cy="16.7477" r="0.5" fill="rgb(0,0,0)" />
<circle cx="13.8454" cy="17.0362" r="0.5" fill="rgb(0,0,0)" />
<circle cx="16.5202" cy="16.9913" r="0.5" fill="rgb(0,0,0)" />
<circle cx="5.77601" cy="17.3407" r="0.5" fill="rgb(0,0,0)" />
<circle cx="15.26" cy="17.8003" r="0.5" fill="rgb(0,0,0)" />
<circle cx="12.2124" cy="17.7242" r="0.5" fill="rgb(0,0,0)" />
<circle cx="17.2232" cy="17.8676" r="0.5" fill="rgb(0,0,0)" />
<circle cx="4.39867" cy="17.7631" r="0.5" fill="rgb(0,0,0)" />
<circle cx="15.9533" cy="18.535" r="0.5" fill="rgb(0,0,0)" />
<circle cx="14.169" cy="18.2937" r="0.5" fill="rgb(0,0,0)" />
<circle cx="8.64403" cy="17.9593" r="0.5" fill="rgb(0,0,0)" />
<circle cx="18.2492" cy="6.47256" r="0.5" fill="rgb(0,0,0)" />
<circle cx="2.09308" cy="3.47441" r="0.5" fill="rgb(0,0,0)" />
<circle cx="14.8419" cy="5.16085" r="0.5" fill="rgb(0,0,0)" />
<circle cx="15.7547" cy="10.0726" r="0.5" fill="rgb(0,0,0)" />
<circle cx="18.3018" cy="4.8643" r="0.5" fill="rgb(0,0,0)" />
<circle cx="4.95519" cy="8.85118" r="0.5" fill="rgb(0,0,0)" />
<circle cx="12.6993" cy="18.5191" r="0.5" fill="rgb(0,0,0)" />
<circle cx="10.5117" cy="17.8426" r="0.5" fill="rgb(0,0,0)" />
<circle cx="0.991935" cy="13.1928" r="0.5" fill="rgb(0,0,0)" />
<circle cx="17.9713" cy="12.4899" r="0.5" fill="rgb(0,0,0)" />
<circle cx="17.9787" cy="10.1733" r="0.5" fill="rgb(0,0,0)" />
<circle cx="18.3562" cy="0.596098" r="0.5" fill="rgb(0,0,0)" />
<circle cx="1.5281" cy="17.5628" r="0.5" fill="rgb(0,0,0)" />
<circle cx="18.1728" cy="8.30281" r="0.5" fill="rgb(0,0,0)" />
<circle cx="0.773937" cy="9.82049" r="0.5" fill="rgb(0,0,0)" />
<circle cx="7.47373" cy="18.2158" r="0.5" fill="rgb(0,0,0)" />
<circle cx="6.16216" cy="18.2903" r="0.5" fill="rgb(0,0,0)" />
<circle cx="18.1365" cy="15.9729" r="0.5" fill="rgb(0,0,0)" />
<circle cx="0.658384" cy="8.26473" r="0.5" fill="rgb(0,0,0)" />
<circle cx="0.642801" cy="4.01394" r="0.5" fill="rgb(0,0,0)" />
<circle cx="0.454453" cy="6.30401" r="0.5" fill="rgb(0,0,0)" />
<circle cx="0.750844" cy="15.7513" r="0.5" fill="rgb(0,0,0)" />
<circle cx="5.55216" cy="0.494129" r="0.5" fill="rgb(0,0,0)" />
<circle cx="3.52876" cy="15.0503" r="0.5" fill="rgb(0,0,0)" />
<circle cx="0.636868" cy="1.16001" r="0.5" fill="rgb(0,0,0)" />
<circle cx="6.52697" cy="12.4795" r="0.5" fill="rgb(0,0,0)" />
<circle cx="2.68274" cy="0.634647" r="0.5" fill="rgb(0,0,0)" />
<circle cx="3.01836" cy="18.3786" r="0.5" fill="rgb(0,0,0)" />
<circle cx="15.0628" cy="15.0593" r="0.5" fill="rgb(0,0,0)" />
<circle cx="0.582802" cy="18.1585" r="0.5" fill="rgb(0,0,0)" />
<circle cx="18.1475" cy="18.512" r="0.5" fill="rgb(0,0,0)" />
<circle cx="18.3763" cy="17.3146" r="0.5" fill="rgb(0,0,0)" />
</svg>
