<?xml version="1.0" ?>
<!DOCTYPE svg PUBLIC "-//W3C//DTD SVG 1.1//EN" "http://www.w3.org/Graphics/SVG/1.1/DTD/svg11.dtd">
<svg width="20" height="20" version="1.1" xmlns="http://www.w3.org/2000/svg">
<circle cx="5.55533" cy="1.1272" r="0.5" fill="rgb(0,0,0)" />
<circle cx="16.5049" cy="1.74761" r="0.5" fill="rgb(0,0,0)" />
<circle cx="10.2428" cy="1.14883" r="0.5" fill="rgb(0,0,0)" />
<circle cx="15.5925" cy="2.55782" r="0.5" fill="rgb(0,0,0)" />
<circle cx="14.9549" cy="0.698527" r="0.5" fill="rgb(0,0,0)" />
<circle cx="14.1587" cy="2.41784" r="0.5" fill="rgb(0,0,0)" />
<circle cx="7.82012" cy="1.23879" r="0.5" fill="rgb(0,0,0)" />
<circle cx="1.97132" cy="2.62509" r="0.5" fill="rgb(0,0,0)" />
<circle cx="17.2753" cy="3.74794" r="0.5" fill="rgb(0,0,0)" />
<circle cx="16.244" cy="4.31004" r="0.5" fill="rgb(0,0,0)" />
<circle cx="16.9697" cy="5.58093" r="0.5" fill="rgb(0,0,0)" />
<circle cx="16.0356" cy="6.57679" r="0.5" fill="rgb(0,0,0)" />
<circle cx="1.84922" cy="6.13712" r="0.5" fill="rgb(0,0,0)" />
<circle cx="8.29957" cy="6.07949" r="0.5" fill="rgb(0,0,0)" />
<circle cx="10.4352" cy="6.15546" r="0.5" fill="rgb(0,0,0)" />
<circle cx="3.81854" cy="6.7311" r="0.5" fill="rgb(0,0,0)" />
<circle cx="2.62646" cy="8.27847" r="0.5" fill="rgb(0,0,0)" />
<circle cx="14.4925" cy="7.0524" r="0.5" fill="rgb(0,0,0)" />
<circle cx="9.51271" cy="8.34424" r="0.5" fill="rgb(0,0,0)" />
<circle cx="15.0135" cy="3.87931" r="0.5" fill="rgb(0,0,0)" />
<circle cx="7.39468" cy="8.39198" r="0.5" fill="rgb(0,0,0)" />
<circle cx="11.3257" cy="9.47501" r="0.5" fill="rgb(0,0,0)" />
<circle cx="3.84082" cy="2.842" r="0.5" fill="rgb(0,0,0)" />
<circle cx="16.2845" cy="8.28391" r="0.5" fill="rgb(0,0,0)" />
<circle cx="6.3559" cy="10.4505" r="0.5" fill="rgb(0,0,0)" />
<circle cx="13.1949" cy="3.61036" r="0.5" fill="rgb(0,0,0)" />
<circle cx="11.2027" cy="11.2214" r="0.5" fill="rgb(0,0,0)" />
<circle cx="15.5299" cy="12.2454" r="0.5" fill="rgb(0,0,0)" />
<circle cx="3.92845" cy="12.0772" r="0.5" fill="rgb(0,0,0)" />
<circle cx="5.83768" cy="3.53278" r="0.5" fill="rgb(0,0,0)" />
<circle cx="8.27765" cy="12.5714" r="0.5" fill="rgb(0,0,0)" />
<circle cx="14.3052" cy="13.5756" r="0.5" fill="rgb(0,0,0)" />
<circle cx="10.1067" cy="13.1484" r="0.5" fill="rgb(0,0,0)" />
<circle cx="6.29654" cy="12.9423" r="0.5" fill="rgb(0,0,0)" />
<circle cx="12.5524" cy="0.584518" r="0.5" fill="rgb(0,0,0)" />
<circle cx="15.1705" cy="15.06" r="0.5" fill="rgb(0,0,0)" />
<circle cx="15.9495" cy="10.2151" r="0.5" fill="rgb(0,0,0)" />
<circle cx="17.8324" cy="14.6411" r="0.5" fill="rgb(0,0,0)" />
<circle cx="11.2696" cy="3.89109" r="0.5" fill="rgb(0,0,0)" />
<circle cx="4.6617" cy="9.2069" r="0.5" fill="rgb(0,0,0)" />
<circle cx="1.24392" cy="11.4859" r="0.5" fill="rgb(0,0,0)" />
<circle cx="0.837684" cy="4.08377" r="0.5" fill="rgb(0,0,0)" />
<circle cx="13.2642" cy="15.2614" r="0.5" fill="rgb(0,0,0)" />
<circle cx="8.88831" cy="10.5084" r="0.5" fill="rgb(0,0,0)" />
<circle cx="4.67477" cy="14.3993" r="0.5" fill="rgb(0,0,0)" />
<circle cx="12.5086" cy="6.38104" r="0.5" fill="rgb(0,0,0)" />
<circle cx="13.9159" cy="8.69021" r="0.5" fill="rgb(0,0,0)" />
<circle cx="2.55462" cy="14.675" r="0.5" fill="rgb(0,0,0)" />
<circle cx="14.3485" cy="15.9181" r="0.5" fill="rgb(0,0,0)" />
<circle cx="16.174" cy="16.4725" r="0.5" fill="rgb(0,0,0)" />
<circle cx="11.9712" cy="16.3115" r="0.5" fill="rgb(0,0,0)" />
<circle cx="5.38779" cy="15.9539" r="0.5" fill="rgb(0,0,0)" />
<circle cx="8.96935" cy="3.5549" r="0.5" fill="rgb(0,0,0)" />
<circle cx="13.9565" cy="17.0141" r="0.5" fill="rgb(0,0,0)" />
<circle cx="14.9694" cy="5.37485" r="0.5" fill="rgb(0,0,0)" />
<circle cx="6.38761" cy="5.16915" r="0.5" fill="rgb(0,0,0)" />
<circle cx="2.98593" cy="10.1799" r="0.5" fill="rgb(0,0,0)" />
<circle cx="6.94758" cy="16.5861" r="0.5" fill="rgb(0,0,0)" />
<circle cx="5.71672" cy="7.24796" r="0.5" fill="rgb(0,0,0)" />
<circle cx="2.5802" cy="17.0539" r="0.5" fill="rgb(0,0,0)" />
<circle cx="3.2595" cy="4.79735" r="0.5" fill="rgb(0,0,0)" />
<circle cx="13.7396" cy="10.727" r="0.5" fill="rgb(0,0,0)" />
<circle cx="15.9301" cy="17.7924" r="0.5" fill="rgb(0,0,0)" />
<circle cx="0.516537" cy="6.29468" r="0.5" fill="rgb(0,0,0)" />
<circle cx="12.4019" cy="2.11189" r="0.5" fill="rgb(0,0,0)" />
<circle cx="0.89433" cy="9.74094" r="0.5" fill="rgb(0,0,0)" />
<circle cx="0.828213" cy="8.03074" r="0.5" fill="rgb(0,0,0)" />
<circle cx="10.4565" cy="15.061" r="0.5" fill="rgb(0,0,0)" />
<circle cx="0.975676" cy="13.413" r="0.5" fill="rgb(0,0,0)" />
<circle cx="16.3211" cy="14.271" r="0.5" fill="rgb(0,0,0)" />
<circle cx="0.938874" cy="16.0476" r="0.5" fill="rgb(0,0,0)" />
<circle cx="4.3833" cy="17.4308" r="0.5" fill="rgb(0,0,0)" />
<circle cx="14.2756" cy="18.195" r="0.5" fill="rgb(0,0,0)" />
<circle cx="8.02311" cy="15.0671" r="0.5" fill="rgb(0,0,0)" />
<circle cx="9.99273" cy="17.3713" r="0.5" fill="rgb(0,0,0)" />
<circle cx="18.0048" cy="6.68967" r="0.5" fill="rgb(0,0,0)" />
<circle cx="11.7094" cy="17.9616" r="0.5" fill="rgb(0,0,0)" />
<circle cx="12.5879" cy="12.513" r="0.5" fill="rgb(0,0,0)" />
<circle cx="17.8285" cy="12.4294" r="0.5" fill="rgb(0,0,0)" />
<circle cx="11.9417" cy="8.02088" r="0.5" fill="rgb(0,0,0)" />
<circle cx="17.3178" cy="17.9305" r="0.5" fill="rgb(0,0,0)" />
<circle cx="17.9692" cy="10.1509" r="0.5" fill="rgb(0,0,0)" />
<circle cx="18.1669" cy="8.22418" r="0.5" fill="rgb(0,0,0)" />
<circle cx="15.5374" cy="18.5862" r="0.5" fill="rgb(0,0,0)" />
<circle cx="6.14644" cy="18.173" r="0.5" fill="rgb(0,0,0)" />
<circle cx="12.9346" cy="18.3474" r="0.5" fill="rgb(0,0,0)" />
<circle cx="8.33589" cy="17.9331" r="0.5" fill="rgb(0,0,0)" />
<circle cx="18.4242" cy="17.8734" r="0.5" fill="rgb(0,0,0)" />
<circle cx="18.1719" cy="16.0358" r="0.5" fill="rgb(0,0,0)" />
<circle cx="0.753686" cy="1.13191" r="0.5" fill="rgb(0,0,0)" />
<circle cx="3.08324" cy="0.759471" r="0.5" fill="rgb(0,0,0)" />
<circle cx="3.03972" cy="18.4473" r="0.5" fill="rgb(0,0,0)" />
<circle cx="12.3036" cy="14.2016" r="0.5" fill="rgb(0,0,0)" />
<circle cx="0.732389" cy="17.9949" r="0.5" fill="rgb(0,0,0)" />
<circle cx="18.3306" cy="4.96364" r="0.5" fill="rgb(0,0,0)" />
<circle cx="18.2006" cy="2.98735" r="0.5" fill="rgb(0,0,0)" />
<circle cx="18.1297" cy="1.64555" r="0.5" fill="rgb(0,0,0)" />
<circle cx="13.3076" cy="5.09413" r="0.5" fill="rgb(0,0,0)" />
<circle cx="17.6154" cy="0.468306" r="0.5" fill="rgb(0,0,0)" />
</svg>
