<?xml version="1.0" ?>
<!DOCTYPE svg PUBLIC "-//W3C//DTD SVG 1.1//EN" "http://www.w3.org/Graphics/SVG/1.1/DTD/svg11.dtd">
<svg width="20" height="20" version="1.1" xmlns="http://www.w3.org/2000/svg">
<circle cx="16.4881" cy="1.75831" r="0.5" fill="rgb(0,0,0)" />
<circle cx="12.4448" cy="2.18446" r="0.5" fill="rgb(0,0,0)" />
<circle cx="14.0802" cy="2.53322" r="0.5" fill="rgb(0,0,0)" />
<circle cx="7.78992" cy="1.25938" r="0.5" fill="rgb(0,0,0)" />
<circle cx="14.9199" cy="4.09437" r="0.5" fill="rgb(0,0,0)" />
<circle cx="5.46422" cy="1.2331" r="0.5" fill="rgb(0,0,0)" />
<circle cx="16.1268" cy="4.35078" r="0.5" fill="rgb(0,0,0)" />
<circle cx="13.0531" cy="4.13975" r="0.5" fill="rgb(0,0,0)" />
<circle cx="3.62782" cy="3.72697" r="0.5" fill="rgb(0,0,0)" />
<circle cx="8.95956" cy="3.63804" r="0.5" fill="rgb(0,0,0)" />
<circle cx="5.79544" cy="3.63928" r="0.5" fill="rgb(0,0,0)" />
<circle cx="2.25503" cy="5.59919" r="0.5" fill="rgb(0,0,0)" />
<circle cx="15.8845" cy="6.34985" r="0.5" fill="rgb(0,0,0)" />
<circle cx="12.4292" cy="6.18919" r="0.5" fill="rgb(0,0,0)" />
<circle cx="9.98838" cy="6.07471" r="0.5" fill="rgb(0,0,0)" />
<circle cx="14.4586" cy="7.08321" r="0.5" fill="rgb(0,0,0)" />
<circle cx="3.96099" cy="6.40139" r="0.5" fill="rgb(0,0,0)" />
<circle cx="17.9577" cy="6.70573" r="0.5" fill="rgb(0,0,0)" />
<circle cx="5.66045" cy="7.50043" r="0.5" fill="rgb(0,0,0)" />
<circle cx="13.9" cy="8.69005" r="0.5" fill="rgb(0,0,0)" />
<circle cx="7.84247" cy="7.33361" r="0.5" fill="rgb(0,0,0)" />
<circle cx="9.4011" cy="8.47764" r="0.5" fill="rgb(0,0,0)" />
<circle cx="12.5436" cy="0.612371" r="0.5" fill="rgb(0,0,0)" />
<circle cx="4.00313" cy="9.45004" r="0.5" fill="rgb(0,0,0)" />
<circle cx="15.9549" cy="10.2029" r="0.5" fill="rgb(0,0,0)" />
<circle cx="13.7373" cy="10.7224" r="0.5" fill="rgb(0,0,0)" />
<circle cx="11.2434" cy="3.85177" r="0.5" fill="rgb(0,0,0)" />
<circle cx="11.1572" cy="11.207" r="0.5" fill="rgb(0,0,0)" />
<circle cx="16.9783" cy="5.54809" r="0.5" fill="rgb(0,0,0)" />
<circle cx="15.5299" cy="12.2427" r="0.5" fill="rgb(0,0,0)" />
<circle cx="6.91911" cy="5.22649" r="0.5" fill="rgb(0,0,0)" />
<circle cx="8.7501" cy="10.4484" r="0.5" fill="rgb(0,0,0)" />
<circle cx="3.92749" cy="11.8942" r="0.5" fill="rgb(0,0,0)" />
<circle cx="6.38203" cy="10.0091" r="0.5" fill="rgb(0,0,0)" />
<circle cx="8.26819" cy="12.5449" r="0.5" fill="rgb(0,0,0)" />
<circle cx="10.0913" cy="13.1456" r="0.5" fill="rgb(0,0,0)" />
<circle cx="16.2564" cy="8.23945" r="0.5" fill="rgb(0,0,0)" />
<circle cx="6.27349" cy="12.8324" r="0.5" fill="rgb(0,0,0)" />
<circle cx="16.3211" cy="14.271" r="0.5" fill="rgb(0,0,0)" />
<circle cx="15.1705" cy="15.06" r="0.5" fill="rgb(0,0,0)" />
<circle cx="17.8324" cy="14.6411" r="0.5" fill="rgb(0,0,0)" />
<circle cx="13.2642" cy="15.2614" r="0.5" fill="rgb(0,0,0)" />
<circle cx="10.4575" cy="15.0589" r="0.5" fill="rgb(0,0,0)" />
<circle cx="4.63186" cy="14.329" r="0.5" fill="rgb(0,0,0)" />
<circle cx="2.55101" cy="14.6359" r="0.5" fill="rgb(0,0,0)" />
<circle cx="14.3485" cy="15.9181" r="0.5" fill="rgb(0,0,0)" />
<circle cx="17.2548" cy="3.77334" r="0.5" fill="rgb(0,0,0)" />
<circle cx="8.01237" cy="15.055" r="0.5" fill="rgb(0,0,0)" />
<circle cx="16.174" cy="16.4725" r="0.5" fill="rgb(0,0,0)" />
<circle cx="11.3197" cy="9.46392" r="0.5" fill="rgb(0,0,0)" />
<circle cx="11.9712" cy="16.3115" r="0.5" fill="rgb(0,0,0)" />
<circle cx="5.37974" cy="15.9231" r="0.5" fill="rgb(0,0,0)" />
<circle cx="13.9565" cy="17.0141" r="0.5" fill="rgb(0,0,0)" />
<circle cx="6.94287" cy="16.5861" r="0.5" fill="rgb(0,0,0)" />
<circle cx="14.2537" cy="5.41428" r="0.5" fill="rgb(0,0,0)" />
<circle cx="14.3052" cy="13.5756" r="0.5" fill="rgb(0,0,0)" />
<circle cx="0.852582" cy="4.04399" r="0.5" fill="rgb(0,0,0)" />
<circle cx="2.57844" cy="17.0505" r="0.5" fill="rgb(0,0,0)" />
<circle cx="2.56415" cy="8.23955" r="0.5" fill="rgb(0,0,0)" />
<circle cx="15.9301" cy="17.7924" r="0.5" fill="rgb(0,0,0)" />
<circle cx="0.945177" cy="16.0392" r="0.5" fill="rgb(0,0,0)" />
<circle cx="14.2756" cy="18.195" r="0.5" fill="rgb(0,0,0)" />
<circle cx="9.99241" cy="17.3712" r="0.5" fill="rgb(0,0,0)" />
<circle cx="4.38117" cy="17.4388" r="0.5" fill="rgb(0,0,0)" />
<circle cx="11.7094" cy="17.9616" r="0.5" fill="rgb(0,0,0)" />
<circle cx="12.5839" cy="12.51" r="0.5" fill="rgb(0,0,0)" />
<circle cx="17.8285" cy="12.4292" r="0.5" fill="rgb(0,0,0)" />
<circle cx="1.07116" cy="9.74926" r="0.5" fill="rgb(0,0,0)" />
<circle cx="17.3178" cy="17.9305" r="0.5" fill="rgb(0,0,0)" />
<circle cx="17.9709" cy="10.1496" r="0.5" fill="rgb(0,0,0)" />
<circle cx="14.9504" cy="0.706785" r="0.5" fill="rgb(0,0,0)" />
<circle cx="18.1642" cy="8.21909" r="0.5" fill="rgb(0,0,0)" />
<circle cx="15.5374" cy="18.5862" r="0.5" fill="rgb(0,0,0)" />
<circle cx="6.14438" cy="18.1711" r="0.5" fill="rgb(0,0,0)" />
<circle cx="2.13252" cy="2.5478" r="0.5" fill="rgb(0,0,0)" />
<circle cx="12.9346" cy="18.3474" r="0.5" fill="rgb(0,0,0)" />
<circle cx="8.33589" cy="17.9324" r="0.5" fill="rgb(0,0,0)" />
<circle cx="10.2417" cy="1.1724" r="0.5" fill="rgb(0,0,0)" />
<circle cx="0.988657" cy="13.3752" r="0.5" fill="rgb(0,0,0)" />
<circle cx="0.797009" cy="8.0242" r="0.5" fill="rgb(0,0,0)" />
<circle cx="18.4242" cy="17.8734" r="0.5" fill="rgb(0,0,0)" />
<circle cx="1.40705" cy="11.402" r="0.5" fill="rgb(0,0,0)" />
<circle cx="18.1719" cy="16.0358" r="0.5" fill="rgb(0,0,0)" />
<circle cx="15.5819" cy="2.64759" r="0.5" fill="rgb(0,0,0)" />
<circle cx="11.8576" cy="7.93252" r="0.5" fill="rgb(0,0,0)" />
<circle cx="0.701905" cy="6.3088" r="0.5" fill="rgb(0,0,0)" />
<circle cx="0.756637" cy="1.1787" r="0.5" fill="rgb(0,0,0)" />
<circle cx="3.14374" cy="0.863616" r="0.5" fill="rgb(0,0,0)" />
<circle cx="3.04271" cy="18.4472" r="0.5" fill="rgb(0,0,0)" />
<circle cx="12.3028" cy="14.2013" r="0.5" fill="rgb(0,0,0)" />
<circle cx="0.73256" cy="17.9925" r="0.5" fill="rgb(0,0,0)" />
<circle cx="18.33" cy="4.94638" r="0.5" fill="rgb(0,0,0)" />
<circle cx="18.198" cy="2.98763" r="0.5" fill="rgb(0,0,0)" />
<circle cx="18.1296" cy="1.64515" r="0.5" fill="rgb(0,0,0)" />
<circle cx="17.6135" cy="0.468434" r="0.5" fill="rgb(0,0,0)" />
</svg>
