<?xml version="1.0" ?>
<!DOCTYPE svg PUBLIC "-//W3C//DTD SVG 1.1//EN" "http://www.w3.org/Graphics/SVG/1.1/DTD/svg11.dtd">
<svg width="20" height="20" version="1.1" xmlns="http://www.w3.org/2000/svg">
<circle cx="8.34036" cy="5.78214" r="0.5" fill="rgb(0,0,0)" />
<circle cx="13.3412" cy="10.3503" r="0.5" fill="rgb(0,0,0)" />
<circle cx="5.39443" cy="2.70052" r="0.5" fill="rgb(0,0,0)" />
<circle cx="11.1278" cy="8.02658" r="0.5" fill="rgb(0,0,0)" />
<circle cx="6.34198" cy="9.47848" r="0.5" fill="rgb(0,0,0)" />
<circle cx="15.1449" cy="13.1295" r="0.5" fill="rgb(0,0,0)" />
<circle cx="11.1318" cy="2.59756" r="0.5" fill="rgb(0,0,0)" />
<circle cx="8.14915" cy="12.4651" r="0.5" fill="rgb(0,0,0)" />
<circle cx="11.4878" cy="13.8424" r="0.5" fill="rgb(0,0,0)" />
<circle cx="2.55273" cy="12.6261" r="0.5" fill="rgb(0,0,0)" />
<circle cx="16.997" cy="7.13454" r="0.5" fill="rgb(0,0,0)" />
<circle cx="8.12651" cy="1.40577" r="0.5" fill="rgb(0,0,0)" />
<circle cx="1.7695" cy="16.7718" r="0.5" fill="rgb(0,0,0)" />
<circle cx="17.3169" cy="10.7661" r="0.5" fill="rgb(0,0,0)" />
<circle cx="1.72731" cy="8.78439" r="0.5" fill="rgb(0,0,0)" />
<circle cx="4.22271" cy="6.13183" r="0.5" fill="rgb(0,0,0)" />
<circle cx="9.04597" cy="17.0003" r="0.5" fill="rgb(0,0,0)" />
<circle cx="1.32165" cy="4.3667" r="0.5" fill="rgb(0,0,0)" />
<circle cx="2.21776" cy="1.21822" r="0.5" fill="rgb(0,0,0)" />
<circle cx="5.54874" cy="16.39" r="0.5" fill="rgb(0,0,0)" />
<circle cx="12.5458" cy="17.5787" r="0.5" fill="rgb(0,0,0)" />
<circle cx="14.6402" cy="15.9739" r="0.5" fill="rgb(0,0,0)" />
<circle cx="17.7131" cy="14.6938" r="0.5" fill="rgb(0,0,0)" />
<circle cx="14.1132" cy="5.20396" r="0.5" fill="rgb(0,0,0)" />
<circle cx="17.458" cy="2.44711" r="0.5" fill="rgb(0,0,0)" />
<circle cx="17.0913" cy="17.7166" r="0.5" fill="rgb(0,0,0)" />
<circle cx="14.2952" cy="1.35812" r="0.5" fill="rgb(0,0,0)" />
</svg>
