<?xml version="1.0" ?>
<!DOCTYPE svg PUBLIC "-//W3C//DTD SVG 1.1//EN" "http://www.w3.org/Graphics/SVG/1.1/DTD/svg11.dtd">
<svg width="20" height="20" version="1.1" xmlns="http://www.w3.org/2000/svg">
<circle cx="14.4934" cy="0.701942" r="0.5" fill="rgb(0,0,0)" />
<circle cx="16.5109" cy="1.47863" r="0.5" fill="rgb(0,0,0)" />
<circle cx="11.0669" cy="0.866958" r="0.5" fill="rgb(0,0,0)" />
<circle cx="5.66296" cy="1.18042" r="0.5" fill="rgb(0,0,0)" />
<circle cx="15.6112" cy="2.64929" r="0.5" fill="rgb(0,0,0)" />
<circle cx="8.32134" cy="1.30291" r="0.5" fill="rgb(0,0,0)" />
<circle cx="17.2303" cy="3.79765" r="0.5" fill="rgb(0,0,0)" />
<circle cx="3.31005" cy="3.50101" r="0.5" fill="rgb(0,0,0)" />
<circle cx="16.3539" cy="5.13942" r="0.5" fill="rgb(0,0,0)" />
<circle cx="12.0505" cy="4.39327" r="0.5" fill="rgb(0,0,0)" />
<circle cx="5.65833" cy="3.7868" r="0.5" fill="rgb(0,0,0)" />
<circle cx="14.0814" cy="5.58655" r="0.5" fill="rgb(0,0,0)" />
<circle cx="7.20029" cy="5.13299" r="0.5" fill="rgb(0,0,0)" />
<circle cx="3.5323" cy="6.42301" r="0.5" fill="rgb(0,0,0)" />
<circle cx="10.0849" cy="6.38269" r="0.5" fill="rgb(0,0,0)" />
<circle cx="12.2311" cy="7.02342" r="0.5" fill="rgb(0,0,0)" />
<circle cx="7.81839" cy="7.50018" r="0.5" fill="rgb(0,0,0)" />
<circle cx="14.9375" cy="7.85431" r="0.5" fill="rgb(0,0,0)" />
<circle cx="13.0697" cy="8.95232" r="0.5" fill="rgb(0,0,0)" />
<circle cx="16.9249" cy="9.85244" r="0.5" fill="rgb(0,0,0)" />
<circle cx="9.38504" cy="9.43098" r="0.5" fill="rgb(0,0,0)" />
<circle cx="2.58553" cy="9.70321" r="0.5" fill="rgb(0,0,0)" />
<circle cx="14.3871" cy="10.8585" r="0.5" fill="rgb(0,0,0)" />
<circle cx="4.10078" cy="11.3891" r="0.5" fill="rgb(0,0,0)" />
<circle cx="14.8334" cy="12.8137" r="0.5" fill="rgb(0,0,0)" />
<circle cx="16.3298" cy="14.1115" r="0.5" fill="rgb(0,0,0)" />
<circle cx="14.7224" cy="14.832" r="0.5" fill="rgb(0,0,0)" />
<circle cx="4.49658" cy="13.8112" r="0.5" fill="rgb(0,0,0)" />
<circle cx="13.9827" cy="16.2752" r="0.5" fill="rgb(0,0,0)" />
<circle cx="7.81474" cy="15.1258" r="0.5" fill="rgb(0,0,0)" />
<circle cx="16.0671" cy="16.4048" r="0.5" fill="rgb(0,0,0)" />
<circle cx="13.8576" cy="2.76988" r="0.5" fill="rgb(0,0,0)" />
<circle cx="5.499" cy="15.8616" r="0.5" fill="rgb(0,0,0)" />
<circle cx="2.26345" cy="15.6724" r="0.5" fill="rgb(0,0,0)" />
<circle cx="12.8007" cy="18.1644" r="0.5" fill="rgb(0,0,0)" />
<circle cx="11.3875" cy="17.5296" r="0.5" fill="rgb(0,0,0)" />
<circle cx="17.6453" cy="11.9798" r="0.5" fill="rgb(0,0,0)" />
<circle cx="14.2239" cy="17.8357" r="0.5" fill="rgb(0,0,0)" />
<circle cx="15.6764" cy="18.218" r="0.5" fill="rgb(0,0,0)" />
<circle cx="17.1209" cy="17.9175" r="0.5" fill="rgb(0,0,0)" />
<circle cx="9.57055" cy="3.52231" r="0.5" fill="rgb(0,0,0)" />
<circle cx="17.9774" cy="14.3079" r="0.5" fill="rgb(0,0,0)" />
<circle cx="11.3423" cy="10.6019" r="0.5" fill="rgb(0,0,0)" />
<circle cx="12.3613" cy="12.961" r="0.5" fill="rgb(0,0,0)" />
<circle cx="1.09345" cy="4.10657" r="0.5" fill="rgb(0,0,0)" />
<circle cx="7.58134" cy="12.4194" r="0.5" fill="rgb(0,0,0)" />
<circle cx="9.88467" cy="12.9177" r="0.5" fill="rgb(0,0,0)" />
<circle cx="10.3806" cy="15.3525" r="0.5" fill="rgb(0,0,0)" />
<circle cx="1.2358" cy="12.935" r="0.5" fill="rgb(0,0,0)" />
<circle cx="0.823338" cy="9.08869" r="0.5" fill="rgb(0,0,0)" />
<circle cx="12.5806" cy="15.2311" r="0.5" fill="rgb(0,0,0)" />
<circle cx="1.0795" cy="6.50568" r="0.5" fill="rgb(0,0,0)" />
<circle cx="9.18689" cy="17.6758" r="0.5" fill="rgb(0,0,0)" />
<circle cx="15.0409" cy="4.13761" r="0.5" fill="rgb(0,0,0)" />
<circle cx="18.4032" cy="17.9363" r="0.5" fill="rgb(0,0,0)" />
<circle cx="17.9987" cy="8.05679" r="0.5" fill="rgb(0,0,0)" />
<circle cx="6.75358" cy="17.8185" r="0.5" fill="rgb(0,0,0)" />
<circle cx="12.2797" cy="2.0889" r="0.5" fill="rgb(0,0,0)" />
<circle cx="18.1755" cy="5.51553" r="0.5" fill="rgb(0,0,0)" />
<circle cx="5.28896" cy="7.9827" r="0.5" fill="rgb(0,0,0)" />
<circle cx="0.959451" cy="1.40523" r="0.5" fill="rgb(0,0,0)" />
<circle cx="16.4283" cy="6.80703" r="0.5" fill="rgb(0,0,0)" />
<circle cx="3.15658" cy="1.01514" r="0.5" fill="rgb(0,0,0)" />
<circle cx="3.78277" cy="17.8495" r="0.5" fill="rgb(0,0,0)" />
<circle cx="0.91508" cy="17.4311" r="0.5" fill="rgb(0,0,0)" />
<circle cx="18.019" cy="16.0784" r="0.5" fill="rgb(0,0,0)" />
<circle cx="18.2162" cy="2.69006" r="0.5" fill="rgb(0,0,0)" />
<circle cx="6.53819" cy="10.3287" r="0.5" fill="rgb(0,0,0)" />
<circle cx="17.8599" cy="0.699366" r="0.5" fill="rgb(0,0,0)" />
</svg>
