<?xml version="1.0" ?>
<!DOCTYPE svg PUBLIC "-//W3C//DTD SVG 1.1//EN" "http://www.w3.org/Graphics/SVG/1.1/DTD/svg11.dtd">
<svg width="20" height="20" version="1.1" xmlns="http://www.w3.org/2000/svg">
<circle cx="6.00539" cy="0.412922" r="0.5" fill="rgb(0,0,0)" />
<circle cx="8.19208" cy="0.522966" r="0.5" fill="rgb(0,0,0)" />
<circle cx="16.9726" cy="0.614976" r="0.5" fill="rgb(0,0,0)" />
<circle cx="10.5716" cy="0.65225" r="0.5" fill="rgb(0,0,0)" />
<circle cx="5.68135" cy="1.45943" r="0.5" fill="rgb(0,0,0)" />
<circle cx="12.2483" cy="1.52523" r="0.5" fill="rgb(0,0,0)" />
<circle cx="14.0545" cy="1.80359" r="0.5" fill="rgb(0,0,0)" />
<circle cx="2.00731" cy="2.04855" r="0.5" fill="rgb(0,0,0)" />
<circle cx="5.92757" cy="2.41881" r="0.5" fill="rgb(0,0,0)" />
<circle cx="4.26117" cy="0.635748" r="0.5" fill="rgb(0,0,0)" />
<circle cx="9.21992" cy="1.6417" r="0.5" fill="rgb(0,0,0)" />
<circle cx="4.88069" cy="2.73801" r="0.5" fill="rgb(0,0,0)" />
<circle cx="18.3943" cy="0.600825" r="0.5" fill="rgb(0,0,0)" />
<circle cx="15.3878" cy="2.46764" r="0.5" fill="rgb(0,0,0)" />
<circle cx="16.7606" cy="3.23527" r="0.5" fill="rgb(0,0,0)" />
<circle cx="6.26247" cy="3.67179" r="0.5" fill="rgb(0,0,0)" />
<circle cx="4.05982" cy="3.56962" r="0.5" fill="rgb(0,0,0)" />
<circle cx="7.79792" cy="2.30436" r="0.5" fill="rgb(0,0,0)" />
<circle cx="14.4261" cy="3.15128" r="0.5" fill="rgb(0,0,0)" />
<circle cx="3.16138" cy="3.11699" r="0.5" fill="rgb(0,0,0)" />
<circle cx="15.172" cy="3.95462" r="0.5" fill="rgb(0,0,0)" />
<circle cx="13.2747" cy="3.70853" r="0.5" fill="rgb(0,0,0)" />
<circle cx="2.02265" cy="3.51357" r="0.5" fill="rgb(0,0,0)" />
<circle cx="10.0974" cy="3.72347" r="0.5" fill="rgb(0,0,0)" />
<circle cx="8.66378" cy="3.57418" r="0.5" fill="rgb(0,0,0)" />
<circle cx="17.5817" cy="4.27852" r="0.5" fill="rgb(0,0,0)" />
<circle cx="16.186" cy="4.54175" r="0.5" fill="rgb(0,0,0)" />
<circle cx="6.55067" cy="4.8506" r="0.5" fill="rgb(0,0,0)" />
<circle cx="11.8911" cy="4.54515" r="0.5" fill="rgb(0,0,0)" />
<circle cx="10.2726" cy="5.11975" r="0.5" fill="rgb(0,0,0)" />
<circle cx="13.0682" cy="2.54406" r="0.5" fill="rgb(0,0,0)" />
<circle cx="2.54674" cy="4.95051" r="0.5" fill="rgb(0,0,0)" />
<circle cx="15.6824" cy="5.98204" r="0.5" fill="rgb(0,0,0)" />
<circle cx="1.87957" cy="6.06034" r="0.5" fill="rgb(0,0,0)" />
<circle cx="4.16364" cy="5.89117" r="0.5" fill="rgb(0,0,0)" />
<circle cx="7.45715" cy="6.0289" r="0.5" fill="rgb(0,0,0)" />
<circle cx="8.11509" cy="4.84422" r="0.5" fill="rgb(0,0,0)" />
<circle cx="13.5915" cy="5.06298" r="0.5" fill="rgb(0,0,0)" />
<circle cx="6.24207" cy="6.7606" r="0.5" fill="rgb(0,0,0)" />
<circle cx="12.6936" cy="6.47106" r="0.5" fill="rgb(0,0,0)" />
<circle cx="5.23494" cy="3.67276" r="0.5" fill="rgb(0,0,0)" />
<circle cx="1.6946" cy="7.17705" r="0.5" fill="rgb(0,0,0)" />
<circle cx="3.98783" cy="4.65672" r="0.5" fill="rgb(0,0,0)" />
<circle cx="8.04789" cy="7.07199" r="0.5" fill="rgb(0,0,0)" />
<circle cx="11.3841" cy="6.72626" r="0.5" fill="rgb(0,0,0)" />
<circle cx="6.52886" cy="7.58032" r="0.5" fill="rgb(0,0,0)" />
<circle cx="4.81308" cy="7.31548" r="0.5" fill="rgb(0,0,0)" />
<circle cx="7.50531" cy="8.09053" r="0.5" fill="rgb(0,0,0)" />
<circle cx="16.9822" cy="7.31927" r="0.5" fill="rgb(0,0,0)" />
<circle cx="17.917" cy="6.71233" r="0.5" fill="rgb(0,0,0)" />
<circle cx="15.4967" cy="7.4065" r="0.5" fill="rgb(0,0,0)" />
<circle cx="2.57957" cy="8.20052" r="0.5" fill="rgb(0,0,0)" />
<circle cx="10.303" cy="8.40072" r="0.5" fill="rgb(0,0,0)" />
<circle cx="16.3071" cy="8.58912" r="0.5" fill="rgb(0,0,0)" />
<circle cx="12.8209" cy="0.505072" r="0.5" fill="rgb(0,0,0)" />
<circle cx="2.4487" cy="9.15357" r="0.5" fill="rgb(0,0,0)" />
<circle cx="5.99645" cy="8.61079" r="0.5" fill="rgb(0,0,0)" />
<circle cx="7.01443" cy="1.24934" r="0.5" fill="rgb(0,0,0)" />
<circle cx="7.13857" cy="9.18895" r="0.5" fill="rgb(0,0,0)" />
<circle cx="3.80114" cy="8.87023" r="0.5" fill="rgb(0,0,0)" />
<circle cx="4.98108" cy="9.02173" r="0.5" fill="rgb(0,0,0)" />
<circle cx="3.85645" cy="1.92344" r="0.5" fill="rgb(0,0,0)" />
<circle cx="13.6252" cy="8.30436" r="0.5" fill="rgb(0,0,0)" />
<circle cx="11.3998" cy="9.35886" r="0.5" fill="rgb(0,0,0)" />
<circle cx="2.98069" cy="9.75335" r="0.5" fill="rgb(0,0,0)" />
<circle cx="14.6059" cy="9.2903" r="0.5" fill="rgb(0,0,0)" />
<circle cx="1.62897" cy="9.82964" r="0.5" fill="rgb(0,0,0)" />
<circle cx="4.69539" cy="10.3037" r="0.5" fill="rgb(0,0,0)" />
<circle cx="14.9381" cy="0.627557" r="0.5" fill="rgb(0,0,0)" />
<circle cx="16.2932" cy="1.73716" r="0.5" fill="rgb(0,0,0)" />
<circle cx="17.9919" cy="1.8752" r="0.5" fill="rgb(0,0,0)" />
<circle cx="9.0525" cy="10.5935" r="0.5" fill="rgb(0,0,0)" />
<circle cx="7.65415" cy="10.4326" r="0.5" fill="rgb(0,0,0)" />
<circle cx="14.9777" cy="11.0834" r="0.5" fill="rgb(0,0,0)" />
<circle cx="9.15016" cy="6.1362" r="0.5" fill="rgb(0,0,0)" />
<circle cx="1.04251" cy="8.1382" r="0.5" fill="rgb(0,0,0)" />
<circle cx="13.577" cy="10.7119" r="0.5" fill="rgb(0,0,0)" />
<circle cx="7.14607" cy="3.35183" r="0.5" fill="rgb(0,0,0)" />
<circle cx="16.9429" cy="5.58262" r="0.5" fill="rgb(0,0,0)" />
<circle cx="9.71763" cy="9.49689" r="0.5" fill="rgb(0,0,0)" />
<circle cx="12.2448" cy="10.8208" r="0.5" fill="rgb(0,0,0)" />
<circle cx="10.7825" cy="10.9661" r="0.5" fill="rgb(0,0,0)" />
<circle cx="4.55644" cy="11.6598" r="0.5" fill="rgb(0,0,0)" />
<circle cx="14.3728" cy="12.5028" r="0.5" fill="rgb(0,0,0)" />
<circle cx="3.13077" cy="10.6735" r="0.5" fill="rgb(0,0,0)" />
<circle cx="6.19304" cy="12.4179" r="0.5" fill="rgb(0,0,0)" />
<circle cx="12.5835" cy="12.5896" r="0.5" fill="rgb(0,0,0)" />
<circle cx="15.6012" cy="13.3669" r="0.5" fill="rgb(0,0,0)" />
<circle cx="10.7201" cy="13.4326" r="0.5" fill="rgb(0,0,0)" />
<circle cx="4.29098" cy="13.2371" r="0.5" fill="rgb(0,0,0)" />
<circle cx="7.78669" cy="12.3528" r="0.5" fill="rgb(0,0,0)" />
<circle cx="15.893" cy="14.3009" r="0.5" fill="rgb(0,0,0)" />
<circle cx="3.25721" cy="7.05199" r="0.5" fill="rgb(0,0,0)" />
<circle cx="9.07187" cy="7.86448" r="0.5" fill="rgb(0,0,0)" />
<circle cx="16.3484" cy="10.1978" r="0.5" fill="rgb(0,0,0)" />
<circle cx="14.0903" cy="13.9755" r="0.5" fill="rgb(0,0,0)" />
<circle cx="12.5431" cy="14.1731" r="0.5" fill="rgb(0,0,0)" />
<circle cx="10.2307" cy="6.98526" r="0.5" fill="rgb(0,0,0)" />
<circle cx="3.281" cy="14.3173" r="0.5" fill="rgb(0,0,0)" />
<circle cx="6.38154" cy="14.1381" r="0.5" fill="rgb(0,0,0)" />
<circle cx="5.90637" cy="5.87476" r="0.5" fill="rgb(0,0,0)" />
<circle cx="15.0091" cy="15.1936" r="0.5" fill="rgb(0,0,0)" />
<circle cx="1.6851" cy="14.6881" r="0.5" fill="rgb(0,0,0)" />
<circle cx="4.99277" cy="14.9414" r="0.5" fill="rgb(0,0,0)" />
<circle cx="8.52457" cy="14.4455" r="0.5" fill="rgb(0,0,0)" />
<circle cx="13.3098" cy="15.1906" r="0.5" fill="rgb(0,0,0)" />
<circle cx="0.462336" cy="6.82883" r="0.5" fill="rgb(0,0,0)" />
<circle cx="11.654" cy="2.72288" r="0.5" fill="rgb(0,0,0)" />
<circle cx="14.1348" cy="15.7953" r="0.5" fill="rgb(0,0,0)" />
<circle cx="5.79936" cy="15.8597" r="0.5" fill="rgb(0,0,0)" />
<circle cx="16.3791" cy="15.4262" r="0.5" fill="rgb(0,0,0)" />
<circle cx="17.643" cy="15.0775" r="0.5" fill="rgb(0,0,0)" />
<circle cx="11.5596" cy="15.2951" r="0.5" fill="rgb(0,0,0)" />
<circle cx="6.60673" cy="16.4013" r="0.5" fill="rgb(0,0,0)" />
<circle cx="3.04123" cy="15.9105" r="0.5" fill="rgb(0,0,0)" />
<circle cx="7.5406" cy="15.8431" r="0.5" fill="rgb(0,0,0)" />
<circle cx="12.5186" cy="16.3201" r="0.5" fill="rgb(0,0,0)" />
<circle cx="15.2854" cy="16.5276" r="0.5" fill="rgb(0,0,0)" />
<circle cx="2.58749" cy="12.1769" r="0.5" fill="rgb(0,0,0)" />
<circle cx="1.64431" cy="16.4585" r="0.5" fill="rgb(0,0,0)" />
<circle cx="4.5444" cy="16.8428" r="0.5" fill="rgb(0,0,0)" />
<circle cx="14.0624" cy="17.0196" r="0.5" fill="rgb(0,0,0)" />
<circle cx="12.1599" cy="8.32754" r="0.5" fill="rgb(0,0,0)" />
<circle cx="4.20886" cy="15.8522" r="0.5" fill="rgb(0,0,0)" />
<circle cx="9.11745" cy="16.47" r="0.5" fill="rgb(0,0,0)" />
<circle cx="5.69306" cy="17.3256" r="0.5" fill="rgb(0,0,0)" />
<circle cx="16.4386" cy="17.0938" r="0.5" fill="rgb(0,0,0)" />
<circle cx="1.63308" cy="17.7558" r="0.5" fill="rgb(0,0,0)" />
<circle cx="12.8439" cy="17.4996" r="0.5" fill="rgb(0,0,0)" />
<circle cx="10.4114" cy="2.48551" r="0.5" fill="rgb(0,0,0)" />
<circle cx="15.2906" cy="17.8456" r="0.5" fill="rgb(0,0,0)" />
<circle cx="8.14422" cy="17.6568" r="0.5" fill="rgb(0,0,0)" />
<circle cx="2.82794" cy="17.2088" r="0.5" fill="rgb(0,0,0)" />
<circle cx="6.96978" cy="17.6309" r="0.5" fill="rgb(0,0,0)" />
<circle cx="0.46263" cy="9.24412" r="0.5" fill="rgb(0,0,0)" />
<circle cx="10.3033" cy="15.0574" r="0.5" fill="rgb(0,0,0)" />
<circle cx="0.859025" cy="11.1592" r="0.5" fill="rgb(0,0,0)" />
<circle cx="0.674554" cy="5.18454" r="0.5" fill="rgb(0,0,0)" />
<circle cx="17.866" cy="13.414" r="0.5" fill="rgb(0,0,0)" />
<circle cx="9.06991" cy="12.3031" r="0.5" fill="rgb(0,0,0)" />
<circle cx="17.2771" cy="17.8264" r="0.5" fill="rgb(0,0,0)" />
<circle cx="18.2954" cy="3.09194" r="0.5" fill="rgb(0,0,0)" />
<circle cx="0.652828" cy="3.51526" r="0.5" fill="rgb(0,0,0)" />
<circle cx="18.4014" cy="4.85984" r="0.5" fill="rgb(0,0,0)" />
<circle cx="15.8228" cy="18.5906" r="0.5" fill="rgb(0,0,0)" />
<circle cx="14.2579" cy="18.2317" r="0.5" fill="rgb(0,0,0)" />
<circle cx="10.2835" cy="12.3268" r="0.5" fill="rgb(0,0,0)" />
<circle cx="4.4793" cy="18.0701" r="0.5" fill="rgb(0,0,0)" />
<circle cx="12.8384" cy="18.5395" r="0.5" fill="rgb(0,0,0)" />
<circle cx="11.2607" cy="17.5966" r="0.5" fill="rgb(0,0,0)" />
<circle cx="9.9854" cy="17.9035" r="0.5" fill="rgb(0,0,0)" />
<circle cx="17.9448" cy="11.4523" r="0.5" fill="rgb(0,0,0)" />
<circle cx="18.0546" cy="9.54534" r="0.5" fill="rgb(0,0,0)" />
<circle cx="0.855965" cy="13.2412" r="0.5" fill="rgb(0,0,0)" />
<circle cx="18.3265" cy="15.928" r="0.5" fill="rgb(0,0,0)" />
<circle cx="3.27368" cy="18.384" r="0.5" fill="rgb(0,0,0)" />
<circle cx="18.3019" cy="8.03743" r="0.5" fill="rgb(0,0,0)" />
<circle cx="5.31759" cy="4.75348" r="0.5" fill="rgb(0,0,0)" />
<circle cx="18.4898" cy="6.09975" r="0.5" fill="rgb(0,0,0)" />
<circle cx="0.485758" cy="15.8538" r="0.5" fill="rgb(0,0,0)" />
<circle cx="14.2416" cy="6.77421" r="0.5" fill="rgb(0,0,0)" />
<circle cx="6.2194" cy="10.5033" r="0.5" fill="rgb(0,0,0)" />
<circle cx="8.37471" cy="18.5795" r="0.5" fill="rgb(0,0,0)" />
<circle cx="16.2155" cy="12.0939" r="0.5" fill="rgb(0,0,0)" />
<circle cx="6.06589" cy="18.484" r="0.5" fill="rgb(0,0,0)" />
<circle cx="0.550387" cy="1.29744" r="0.5" fill="rgb(0,0,0)" />
<circle cx="8.42981" cy="9.02929" r="0.5" fill="rgb(0,0,0)" />
<circle cx="2.1144" cy="0.581765" r="0.5" fill="rgb(0,0,0)" />
<circle cx="1.61672" cy="18.5938" r="0.5" fill="rgb(0,0,0)" />
<circle cx="14.9018" cy="5.21334" r="0.5" fill="rgb(0,0,0)" />
<circle cx="0.437989" cy="17.9897" r="0.5" fill="rgb(0,0,0)" />
<circle cx="18.1456" cy="18.5423" r="0.5" fill="rgb(0,0,0)" />
<circle cx="18.4596" cy="17.3852" r="0.5" fill="rgb(0,0,0)" />
</svg>
