<?xml version="1.0" ?>
<!DOCTYPE svg PUBLIC "-//W3C//DTD SVG 1.1//EN" "http://www.w3.org/Graphics/SVG/1.1/DTD/svg11.dtd">
<svg width="20" height="20" version="1.1" xmlns="http://www.w3.org/2000/svg">
<circle cx="10.9657" cy="0.998496" r="0.5" fill="rgb(0,0,0)" />
<circle cx="12.7167" cy="1.58847" r="0.5" fill="rgb(0,0,0)" />
<circle cx="5.69219" cy="1.20926" r="0.5" fill="rgb(0,0,0)" />
<circle cx="15.6765" cy="2.6412" r="0.5" fill="rgb(0,0,0)" />
<circle cx="17.2501" cy="3.8017" r="0.5" fill="rgb(0,0,0)" />
<circle cx="15.1894" cy="4.14886" r="0.5" fill="rgb(0,0,0)" />
<circle cx="13.009" cy="4.2252" r="0.5" fill="rgb(0,0,0)" />
<circle cx="16.5396" cy="1.55292" r="0.5" fill="rgb(0,0,0)" />
<circle cx="3.29472" cy="3.50232" r="0.5" fill="rgb(0,0,0)" />
<circle cx="8.98462" cy="3.35779" r="0.5" fill="rgb(0,0,0)" />
<circle cx="11.1825" cy="3.89497" r="0.5" fill="rgb(0,0,0)" />
<circle cx="16.4027" cy="5.15273" r="0.5" fill="rgb(0,0,0)" />
<circle cx="5.59424" cy="3.76666" r="0.5" fill="rgb(0,0,0)" />
<circle cx="7.03148" cy="5.23572" r="0.5" fill="rgb(0,0,0)" />
<circle cx="12.3691" cy="6.56702" r="0.5" fill="rgb(0,0,0)" />
<circle cx="16.4931" cy="6.76868" r="0.5" fill="rgb(0,0,0)" />
<circle cx="3.4711" cy="6.42658" r="0.5" fill="rgb(0,0,0)" />
<circle cx="7.80844" cy="7.3963" r="0.5" fill="rgb(0,0,0)" />
<circle cx="15.0845" cy="7.6974" r="0.5" fill="rgb(0,0,0)" />
<circle cx="5.22287" cy="7.846" r="0.5" fill="rgb(0,0,0)" />
<circle cx="9.16595" cy="9.24091" r="0.5" fill="rgb(0,0,0)" />
<circle cx="9.9463" cy="6.19347" r="0.5" fill="rgb(0,0,0)" />
<circle cx="17.0146" cy="9.83739" r="0.5" fill="rgb(0,0,0)" />
<circle cx="6.46209" cy="10.0676" r="0.5" fill="rgb(0,0,0)" />
<circle cx="2.52563" cy="9.70273" r="0.5" fill="rgb(0,0,0)" />
<circle cx="14.5082" cy="10.8375" r="0.5" fill="rgb(0,0,0)" />
<circle cx="11.4622" cy="8.71327" r="0.5" fill="rgb(0,0,0)" />
<circle cx="12.5563" cy="12.3233" r="0.5" fill="rgb(0,0,0)" />
<circle cx="8.46385" cy="11.7497" r="0.5" fill="rgb(0,0,0)" />
<circle cx="14.939" cy="12.8122" r="0.5" fill="rgb(0,0,0)" />
<circle cx="9.90373" cy="13.4066" r="0.5" fill="rgb(0,0,0)" />
<circle cx="12.4595" cy="14.1776" r="0.5" fill="rgb(0,0,0)" />
<circle cx="14.0227" cy="2.66188" r="0.5" fill="rgb(0,0,0)" />
<circle cx="16.3642" cy="14.1968" r="0.5" fill="rgb(0,0,0)" />
<circle cx="14.7155" cy="14.8091" r="0.5" fill="rgb(0,0,0)" />
<circle cx="14.1829" cy="16.1682" r="0.5" fill="rgb(0,0,0)" />
<circle cx="12.5588" cy="15.9289" r="0.5" fill="rgb(0,0,0)" />
<circle cx="3.72063" cy="14.1707" r="0.5" fill="rgb(0,0,0)" />
<circle cx="16.0858" cy="16.4368" r="0.5" fill="rgb(0,0,0)" />
<circle cx="8.2586" cy="1.1296" r="0.5" fill="rgb(0,0,0)" />
<circle cx="6.22284" cy="12.981" r="0.5" fill="rgb(0,0,0)" />
<circle cx="5.54434" cy="15.7952" r="0.5" fill="rgb(0,0,0)" />
<circle cx="2.09211" cy="15.8966" r="0.5" fill="rgb(0,0,0)" />
<circle cx="12.8143" cy="18.1631" r="0.5" fill="rgb(0,0,0)" />
<circle cx="15.6776" cy="18.2217" r="0.5" fill="rgb(0,0,0)" />
<circle cx="14.2856" cy="5.70377" r="0.5" fill="rgb(0,0,0)" />
<circle cx="17.1224" cy="17.9189" r="0.5" fill="rgb(0,0,0)" />
<circle cx="17.6746" cy="11.9812" r="0.5" fill="rgb(0,0,0)" />
<circle cx="1.09076" cy="4.10559" r="0.5" fill="rgb(0,0,0)" />
<circle cx="14.2241" cy="17.8412" r="0.5" fill="rgb(0,0,0)" />
<circle cx="18.0023" cy="14.2948" r="0.5" fill="rgb(0,0,0)" />
<circle cx="1.07302" cy="6.49319" r="0.5" fill="rgb(0,0,0)" />
<circle cx="0.8078" cy="9.02944" r="0.5" fill="rgb(0,0,0)" />
<circle cx="10.3732" cy="15.5602" r="0.5" fill="rgb(0,0,0)" />
<circle cx="1.15096" cy="12.9142" r="0.5" fill="rgb(0,0,0)" />
<circle cx="18.4033" cy="17.9375" r="0.5" fill="rgb(0,0,0)" />
<circle cx="18.0179" cy="16.0836" r="0.5" fill="rgb(0,0,0)" />
<circle cx="17.986" cy="8.01378" r="0.5" fill="rgb(0,0,0)" />
<circle cx="7.91873" cy="15.206" r="0.5" fill="rgb(0,0,0)" />
<circle cx="9.1625" cy="17.714" r="0.5" fill="rgb(0,0,0)" />
<circle cx="6.73717" cy="17.8185" r="0.5" fill="rgb(0,0,0)" />
<circle cx="18.1869" cy="5.50473" r="0.5" fill="rgb(0,0,0)" />
<circle cx="0.958873" cy="1.40526" r="0.5" fill="rgb(0,0,0)" />
<circle cx="3.15273" cy="1.006" r="0.5" fill="rgb(0,0,0)" />
<circle cx="11.1397" cy="10.9808" r="0.5" fill="rgb(0,0,0)" />
<circle cx="3.80544" cy="17.836" r="0.5" fill="rgb(0,0,0)" />
<circle cx="0.882478" cy="17.4666" r="0.5" fill="rgb(0,0,0)" />
<circle cx="13.7482" cy="8.90801" r="0.5" fill="rgb(0,0,0)" />
<circle cx="4.01056" cy="11.3213" r="0.5" fill="rgb(0,0,0)" />
<circle cx="11.289" cy="17.6754" r="0.5" fill="rgb(0,0,0)" />
<circle cx="18.2197" cy="2.6872" r="0.5" fill="rgb(0,0,0)" />
<circle cx="17.8553" cy="0.698085" r="0.5" fill="rgb(0,0,0)" />
<circle cx="14.7013" cy="0.664494" r="0.5" fill="rgb(0,0,0)" />
</svg>
