<?xml version="1.0" ?>
<!DOCTYPE svg PUBLIC "-//W3C//DTD SVG 1.1//EN" "http://www.w3.org/Graphics/SVG/1.1/DTD/svg11.dtd">
<svg width="20" height="20" version="1.1" xmlns="http://www.w3.org/2000/svg">
<circle cx="7.58647" cy="0.192088" r="0.5" fill="rgb(0,0,0)" />
<circle cx="10.3595" cy="0.298036" r="0.5" fill="rgb(0,0,0)" />
<circle cx="14.6306" cy="0.216865" r="0.5" fill="rgb(0,0,0)" />
<circle cx="12.5273" cy="0.369343" r="0.5" fill="rgb(0,0,0)" />
<circle cx="9.35309" cy="0.537967" r="0.5" fill="rgb(0,0,0)" />
<circle cx="4.37855" cy="0.47876" r="0.5" fill="rgb(0,0,0)" />
<circle cx="17.1174" cy="0.431155" r="0.5" fill="rgb(0,0,0)" />
<circle cx="12.0012" cy="0.791493" r="0.5" fill="rgb(0,0,0)" />
<circle cx="8.37994" cy="0.598633" r="0.5" fill="rgb(0,0,0)" />
<circle cx="11.2305" cy="0.660424" r="0.5" fill="rgb(0,0,0)" />
<circle cx="13.4526" cy="1.64429" r="0.5" fill="rgb(0,0,0)" />
<circle cx="14.6262" cy="1.427" r="0.5" fill="rgb(0,0,0)" />
<circle cx="1.78095" cy="1.27929" r="0.5" fill="rgb(0,0,0)" />
<circle cx="10.4297" cy="1.454" r="0.5" fill="rgb(0,0,0)" />
<circle cx="6.16498" cy="1.71174" r="0.5" fill="rgb(0,0,0)" />
<circle cx="4.56613" cy="1.56069" r="0.5" fill="rgb(0,0,0)" />
<circle cx="9.21116" cy="1.71477" r="0.5" fill="rgb(0,0,0)" />
<circle cx="7.94606" cy="1.71954" r="0.5" fill="rgb(0,0,0)" />
<circle cx="13.4652" cy="2.3163" r="0.5" fill="rgb(0,0,0)" />
<circle cx="14.2798" cy="2.20575" r="0.5" fill="rgb(0,0,0)" />
<circle cx="5.70836" cy="2.37565" r="0.5" fill="rgb(0,0,0)" />
<circle cx="12.5391" cy="2.31204" r="0.5" fill="rgb(0,0,0)" />
<circle cx="12.9878" cy="2.7645" r="0.5" fill="rgb(0,0,0)" />
<circle cx="5.01639" cy="2.80846" r="0.5" fill="rgb(0,0,0)" />
<circle cx="7.7849" cy="2.77487" r="0.5" fill="rgb(0,0,0)" />
<circle cx="14.9032" cy="0.756058" r="0.5" fill="rgb(0,0,0)" />
<circle cx="3.1737" cy="2.79207" r="0.5" fill="rgb(0,0,0)" />
<circle cx="8.7296" cy="2.82357" r="0.5" fill="rgb(0,0,0)" />
<circle cx="5.49401" cy="1.25874" r="0.5" fill="rgb(0,0,0)" />
<circle cx="10.6139" cy="2.61307" r="0.5" fill="rgb(0,0,0)" />
<circle cx="13.6062" cy="3.09156" r="0.5" fill="rgb(0,0,0)" />
<circle cx="14.5941" cy="3.05085" r="0.5" fill="rgb(0,0,0)" />
<circle cx="5.94629" cy="3.25899" r="0.5" fill="rgb(0,0,0)" />
<circle cx="4.40879" cy="3.58062" r="0.5" fill="rgb(0,0,0)" />
<circle cx="3.25879" cy="1.59266" r="0.5" fill="rgb(0,0,0)" />
<circle cx="13.8423" cy="3.68807" r="0.5" fill="rgb(0,0,0)" />
<circle cx="10.5109" cy="3.78318" r="0.5" fill="rgb(0,0,0)" />
<circle cx="15.4369" cy="3.75186" r="0.5" fill="rgb(0,0,0)" />
<circle cx="1.54214" cy="3.6937" r="0.5" fill="rgb(0,0,0)" />
<circle cx="6.39971" cy="3.8788" r="0.5" fill="rgb(0,0,0)" />
<circle cx="8.33771" cy="3.76421" r="0.5" fill="rgb(0,0,0)" />
<circle cx="17.6493" cy="3.90512" r="0.5" fill="rgb(0,0,0)" />
<circle cx="7.4376" cy="3.84167" r="0.5" fill="rgb(0,0,0)" />
<circle cx="11.6376" cy="3.80467" r="0.5" fill="rgb(0,0,0)" />
<circle cx="13.7852" cy="4.41974" r="0.5" fill="rgb(0,0,0)" />
<circle cx="16.7418" cy="4.39934" r="0.5" fill="rgb(0,0,0)" />
<circle cx="6.78774" cy="4.59044" r="0.5" fill="rgb(0,0,0)" />
<circle cx="14.6054" cy="4.21745" r="0.5" fill="rgb(0,0,0)" />
<circle cx="16.3308" cy="4.91334" r="0.5" fill="rgb(0,0,0)" />
<circle cx="4.16012" cy="2.48037" r="0.5" fill="rgb(0,0,0)" />
<circle cx="3.79925" cy="4.52055" r="0.5" fill="rgb(0,0,0)" />
<circle cx="10.8038" cy="4.74422" r="0.5" fill="rgb(0,0,0)" />
<circle cx="1.23378" cy="4.7858" r="0.5" fill="rgb(0,0,0)" />
<circle cx="5.89667" cy="5.1131" r="0.5" fill="rgb(0,0,0)" />
<circle cx="9.10721" cy="4.98404" r="0.5" fill="rgb(0,0,0)" />
<circle cx="17.499" cy="4.97162" r="0.5" fill="rgb(0,0,0)" />
<circle cx="2.26751" cy="4.84205" r="0.5" fill="rgb(0,0,0)" />
<circle cx="7.9715" cy="4.90319" r="0.5" fill="rgb(0,0,0)" />
<circle cx="13.9972" cy="5.19806" r="0.5" fill="rgb(0,0,0)" />
<circle cx="1.59304" cy="5.65195" r="0.5" fill="rgb(0,0,0)" />
<circle cx="4.9028" cy="5.88552" r="0.5" fill="rgb(0,0,0)" />
<circle cx="6.83981" cy="5.52217" r="0.5" fill="rgb(0,0,0)" />
<circle cx="12.6665" cy="3.58648" r="0.5" fill="rgb(0,0,0)" />
<circle cx="14.4804" cy="5.79297" r="0.5" fill="rgb(0,0,0)" />
<circle cx="3.12446" cy="5.41541" r="0.5" fill="rgb(0,0,0)" />
<circle cx="5.50582" cy="4.54106" r="0.5" fill="rgb(0,0,0)" />
<circle cx="0.518874" cy="3.52853" r="0.5" fill="rgb(0,0,0)" />
<circle cx="15.6369" cy="6.04287" r="0.5" fill="rgb(0,0,0)" />
<circle cx="10.7877" cy="5.80941" r="0.5" fill="rgb(0,0,0)" />
<circle cx="12.9624" cy="5.90331" r="0.5" fill="rgb(0,0,0)" />
<circle cx="7.55186" cy="6.08674" r="0.5" fill="rgb(0,0,0)" />
<circle cx="18.3148" cy="5.65177" r="0.5" fill="rgb(0,0,0)" />
<circle cx="11.7011" cy="5.85986" r="0.5" fill="rgb(0,0,0)" />
<circle cx="2.18848" cy="6.2649" r="0.5" fill="rgb(0,0,0)" />
<circle cx="3.69851" cy="6.16068" r="0.5" fill="rgb(0,0,0)" />
<circle cx="17.3031" cy="1.86004" r="0.5" fill="rgb(0,0,0)" />
<circle cx="10.4961" cy="6.58586" r="0.5" fill="rgb(0,0,0)" />
<circle cx="6.1227" cy="6.49208" r="0.5" fill="rgb(0,0,0)" />
<circle cx="5.31252" cy="3.65702" r="0.5" fill="rgb(0,0,0)" />
<circle cx="17.035" cy="6.62741" r="0.5" fill="rgb(0,0,0)" />
<circle cx="15.2533" cy="2.47923" r="0.5" fill="rgb(0,0,0)" />
<circle cx="9.04366" cy="4.0835" r="0.5" fill="rgb(0,0,0)" />
<circle cx="9.43626" cy="6.68886" r="0.5" fill="rgb(0,0,0)" />
<circle cx="8.55366" cy="6.91634" r="0.5" fill="rgb(0,0,0)" />
<circle cx="7.66691" cy="7.1416" r="0.5" fill="rgb(0,0,0)" />
<circle cx="13.5692" cy="6.92873" r="0.5" fill="rgb(0,0,0)" />
<circle cx="13.5272" cy="0.316728" r="0.5" fill="rgb(0,0,0)" />
<circle cx="1.61853" cy="7.19201" r="0.5" fill="rgb(0,0,0)" />
<circle cx="18.0874" cy="7.11418" r="0.5" fill="rgb(0,0,0)" />
<circle cx="2.33466" cy="3.11783" r="0.5" fill="rgb(0,0,0)" />
<circle cx="4.50417" cy="5.24287" r="0.5" fill="rgb(0,0,0)" />
<circle cx="6.59121" cy="7.60021" r="0.5" fill="rgb(0,0,0)" />
<circle cx="5.39629" cy="7.50005" r="0.5" fill="rgb(0,0,0)" />
<circle cx="12.3984" cy="7.09803" r="0.5" fill="rgb(0,0,0)" />
<circle cx="16.3164" cy="5.58308" r="0.5" fill="rgb(0,0,0)" />
<circle cx="10.1487" cy="7.49049" r="0.5" fill="rgb(0,0,0)" />
<circle cx="11.2312" cy="7.35535" r="0.5" fill="rgb(0,0,0)" />
<circle cx="15.8462" cy="4.41958" r="0.5" fill="rgb(0,0,0)" />
<circle cx="7.91473" cy="8.09225" r="0.5" fill="rgb(0,0,0)" />
<circle cx="3.42016" cy="7.8846" r="0.5" fill="rgb(0,0,0)" />
<circle cx="17.0593" cy="7.64874" r="0.5" fill="rgb(0,0,0)" />
<circle cx="6.03992" cy="8.17586" r="0.5" fill="rgb(0,0,0)" />
<circle cx="1.0953" cy="7.95648" r="0.5" fill="rgb(0,0,0)" />
<circle cx="8.71074" cy="8.08253" r="0.5" fill="rgb(0,0,0)" />
<circle cx="5.8483" cy="5.86786" r="0.5" fill="rgb(0,0,0)" />
<circle cx="9.37253" cy="8.03256" r="0.5" fill="rgb(0,0,0)" />
<circle cx="1.93751" cy="8.34581" r="0.5" fill="rgb(0,0,0)" />
<circle cx="2.82091" cy="8.45781" r="0.5" fill="rgb(0,0,0)" />
<circle cx="15.7388" cy="8.235" r="0.5" fill="rgb(0,0,0)" />
<circle cx="11.8555" cy="8.23817" r="0.5" fill="rgb(0,0,0)" />
<circle cx="16.7648" cy="8.40687" r="0.5" fill="rgb(0,0,0)" />
<circle cx="4.09123" cy="8.62204" r="0.5" fill="rgb(0,0,0)" />
<circle cx="14.649" cy="8.62964" r="0.5" fill="rgb(0,0,0)" />
<circle cx="5.1129" cy="8.54633" r="0.5" fill="rgb(0,0,0)" />
<circle cx="10.2372" cy="8.53648" r="0.5" fill="rgb(0,0,0)" />
<circle cx="6.71358" cy="0.289923" r="0.5" fill="rgb(0,0,0)" />
<circle cx="8.22595" cy="8.8345" r="0.5" fill="rgb(0,0,0)" />
<circle cx="7.32822" cy="9.00788" r="0.5" fill="rgb(0,0,0)" />
<circle cx="6.23265" cy="9.058" r="0.5" fill="rgb(0,0,0)" />
<circle cx="15.3333" cy="9.10644" r="0.5" fill="rgb(0,0,0)" />
<circle cx="8.70123" cy="9.26" r="0.5" fill="rgb(0,0,0)" />
<circle cx="3.41489" cy="9.35197" r="0.5" fill="rgb(0,0,0)" />
<circle cx="2.45886" cy="9.27136" r="0.5" fill="rgb(0,0,0)" />
<circle cx="4.11502" cy="9.56458" r="0.5" fill="rgb(0,0,0)" />
<circle cx="13.8484" cy="9.0819" r="0.5" fill="rgb(0,0,0)" />
<circle cx="1.41426" cy="9.23816" r="0.5" fill="rgb(0,0,0)" />
<circle cx="17.0702" cy="9.27414" r="0.5" fill="rgb(0,0,0)" />
<circle cx="14.6641" cy="7.68284" r="0.5" fill="rgb(0,0,0)" />
<circle cx="4.99079" cy="9.49611" r="0.5" fill="rgb(0,0,0)" />
<circle cx="7.27603" cy="9.80842" r="0.5" fill="rgb(0,0,0)" />
<circle cx="15.9851" cy="9.60871" r="0.5" fill="rgb(0,0,0)" />
<circle cx="9.82989" cy="9.37834" r="0.5" fill="rgb(0,0,0)" />
<circle cx="9.14775" cy="9.88771" r="0.5" fill="rgb(0,0,0)" />
<circle cx="2.82044" cy="9.88205" r="0.5" fill="rgb(0,0,0)" />
<circle cx="8.11101" cy="9.93017" r="0.5" fill="rgb(0,0,0)" />
<circle cx="5.60897" cy="10.003" r="0.5" fill="rgb(0,0,0)" />
<circle cx="14.6811" cy="9.88452" r="0.5" fill="rgb(0,0,0)" />
<circle cx="4.60851" cy="10.2646" r="0.5" fill="rgb(0,0,0)" />
<circle cx="3.77599" cy="10.2119" r="0.5" fill="rgb(0,0,0)" />
<circle cx="1.82844" cy="10.1133" r="0.5" fill="rgb(0,0,0)" />
<circle cx="12.9036" cy="9.83935" r="0.5" fill="rgb(0,0,0)" />
<circle cx="3.21068" cy="10.5372" r="0.5" fill="rgb(0,0,0)" />
<circle cx="6.87115" cy="10.4856" r="0.5" fill="rgb(0,0,0)" />
<circle cx="9.89361" cy="5.56829" r="0.5" fill="rgb(0,0,0)" />
<circle cx="7.45778" cy="10.8431" r="0.5" fill="rgb(0,0,0)" />
<circle cx="8.52699" cy="10.8071" r="0.5" fill="rgb(0,0,0)" />
<circle cx="17.14" cy="10.501" r="0.5" fill="rgb(0,0,0)" />
<circle cx="7.55153" cy="0.90859" r="0.5" fill="rgb(0,0,0)" />
<circle cx="11.946" cy="10.4211" r="0.5" fill="rgb(0,0,0)" />
<circle cx="4.46928" cy="11.0659" r="0.5" fill="rgb(0,0,0)" />
<circle cx="10.7703" cy="10.6779" r="0.5" fill="rgb(0,0,0)" />
<circle cx="1.16846" cy="10.901" r="0.5" fill="rgb(0,0,0)" />
<circle cx="6.89045" cy="2.10931" r="0.5" fill="rgb(0,0,0)" />
<circle cx="8.12508" cy="11.5157" r="0.5" fill="rgb(0,0,0)" />
<circle cx="3.50766" cy="11.3711" r="0.5" fill="rgb(0,0,0)" />
<circle cx="5.53447" cy="11.1379" r="0.5" fill="rgb(0,0,0)" />
<circle cx="12.1061" cy="4.78314" r="0.5" fill="rgb(0,0,0)" />
<circle cx="9.42768" cy="11.6298" r="0.5" fill="rgb(0,0,0)" />
<circle cx="6.30833" cy="11.6376" r="0.5" fill="rgb(0,0,0)" />
<circle cx="13.6072" cy="11.9852" r="0.5" fill="rgb(0,0,0)" />
<circle cx="12.4209" cy="11.6124" r="0.5" fill="rgb(0,0,0)" />
<circle cx="8.31942" cy="12.1835" r="0.5" fill="rgb(0,0,0)" />
<circle cx="2.07674" cy="11.8288" r="0.5" fill="rgb(0,0,0)" />
<circle cx="14.9798" cy="11.358" r="0.5" fill="rgb(0,0,0)" />
<circle cx="4.28095" cy="12.0725" r="0.5" fill="rgb(0,0,0)" />
<circle cx="10.805" cy="12.0408" r="0.5" fill="rgb(0,0,0)" />
<circle cx="15.8159" cy="12.1234" r="0.5" fill="rgb(0,0,0)" />
<circle cx="3.14187" cy="12.3965" r="0.5" fill="rgb(0,0,0)" />
<circle cx="9.56204" cy="12.5912" r="0.5" fill="rgb(0,0,0)" />
<circle cx="13.1149" cy="4.75587" r="0.5" fill="rgb(0,0,0)" />
<circle cx="1.46744" cy="12.4626" r="0.5" fill="rgb(0,0,0)" />
<circle cx="17.5032" cy="12.4931" r="0.5" fill="rgb(0,0,0)" />
<circle cx="14.2399" cy="12.8201" r="0.5" fill="rgb(0,0,0)" />
<circle cx="5.19085" cy="12.5092" r="0.5" fill="rgb(0,0,0)" />
<circle cx="6.84796" cy="12.6445" r="0.5" fill="rgb(0,0,0)" />
<circle cx="13.4946" cy="13.1336" r="0.5" fill="rgb(0,0,0)" />
<circle cx="6.15042" cy="13.1899" r="0.5" fill="rgb(0,0,0)" />
<circle cx="9.82377" cy="4.47519" r="0.5" fill="rgb(0,0,0)" />
<circle cx="8.28931" cy="13.0093" r="0.5" fill="rgb(0,0,0)" />
<circle cx="18.0559" cy="2.60064" r="0.5" fill="rgb(0,0,0)" />
<circle cx="15.033" cy="4.87885" r="0.5" fill="rgb(0,0,0)" />
<circle cx="10.4378" cy="13.2681" r="0.5" fill="rgb(0,0,0)" />
<circle cx="3.90135" cy="13.308" r="0.5" fill="rgb(0,0,0)" />
<circle cx="6.72928" cy="1.16215" r="0.5" fill="rgb(0,0,0)" />
<circle cx="4.26645" cy="6.62932" r="0.5" fill="rgb(0,0,0)" />
<circle cx="15.3746" cy="13.5327" r="0.5" fill="rgb(0,0,0)" />
<circle cx="11.1262" cy="9.24602" r="0.5" fill="rgb(0,0,0)" />
<circle cx="11.5759" cy="13.0453" r="0.5" fill="rgb(0,0,0)" />
<circle cx="5.73171" cy="0.363624" r="0.5" fill="rgb(0,0,0)" />
<circle cx="1.10956" cy="13.5084" r="0.5" fill="rgb(0,0,0)" />
<circle cx="2.52274" cy="13.4262" r="0.5" fill="rgb(0,0,0)" />
<circle cx="17.6893" cy="13.5778" r="0.5" fill="rgb(0,0,0)" />
<circle cx="14.1734" cy="10.9577" r="0.5" fill="rgb(0,0,0)" />
<circle cx="4.80674" cy="13.7174" r="0.5" fill="rgb(0,0,0)" />
<circle cx="16.2994" cy="13.4389" r="0.5" fill="rgb(0,0,0)" />
<circle cx="0.845847" cy="6.25741" r="0.5" fill="rgb(0,0,0)" />
<circle cx="13.4679" cy="14.1096" r="0.5" fill="rgb(0,0,0)" />
<circle cx="9.19401" cy="13.6792" r="0.5" fill="rgb(0,0,0)" />
<circle cx="7.58057" cy="13.7313" r="0.5" fill="rgb(0,0,0)" />
<circle cx="4.0408" cy="14.3811" r="0.5" fill="rgb(0,0,0)" />
<circle cx="5.52113" cy="14.1371" r="0.5" fill="rgb(0,0,0)" />
<circle cx="6.55397" cy="14.2196" r="0.5" fill="rgb(0,0,0)" />
<circle cx="6.68035" cy="6.82915" r="0.5" fill="rgb(0,0,0)" />
<circle cx="14.3672" cy="14.4355" r="0.5" fill="rgb(0,0,0)" />
<circle cx="17.8529" cy="1.08702" r="0.5" fill="rgb(0,0,0)" />
<circle cx="15.5434" cy="14.5034" r="0.5" fill="rgb(0,0,0)" />
<circle cx="14.5903" cy="6.67467" r="0.5" fill="rgb(0,0,0)" />
<circle cx="8.44803" cy="14.3911" r="0.5" fill="rgb(0,0,0)" />
<circle cx="1.84494" cy="2.41305" r="0.5" fill="rgb(0,0,0)" />
<circle cx="1.76024" cy="14.4003" r="0.5" fill="rgb(0,0,0)" />
<circle cx="16.9803" cy="14.2667" r="0.5" fill="rgb(0,0,0)" />
<circle cx="4.75329" cy="4.37472" r="0.5" fill="rgb(0,0,0)" />
<circle cx="12.4989" cy="14.4087" r="0.5" fill="rgb(0,0,0)" />
<circle cx="3.05103" cy="14.5709" r="0.5" fill="rgb(0,0,0)" />
<circle cx="15.0079" cy="12.5296" r="0.5" fill="rgb(0,0,0)" />
<circle cx="4.91661" cy="14.9543" r="0.5" fill="rgb(0,0,0)" />
<circle cx="10.0869" cy="14.8195" r="0.5" fill="rgb(0,0,0)" />
<circle cx="3.89691" cy="15.1956" r="0.5" fill="rgb(0,0,0)" />
<circle cx="11.0722" cy="14.3882" r="0.5" fill="rgb(0,0,0)" />
<circle cx="15.9344" cy="0.610192" r="0.5" fill="rgb(0,0,0)" />
<circle cx="5.62084" cy="15.2763" r="0.5" fill="rgb(0,0,0)" />
<circle cx="9.04284" cy="15.11" r="0.5" fill="rgb(0,0,0)" />
<circle cx="11.9917" cy="1.68798" r="0.5" fill="rgb(0,0,0)" />
<circle cx="11.551" cy="14.9688" r="0.5" fill="rgb(0,0,0)" />
<circle cx="9.67206" cy="3.43926" r="0.5" fill="rgb(0,0,0)" />
<circle cx="2.82602" cy="7.03488" r="0.5" fill="rgb(0,0,0)" />
<circle cx="7.66852" cy="15.1263" r="0.5" fill="rgb(0,0,0)" />
<circle cx="15.0766" cy="15.3247" r="0.5" fill="rgb(0,0,0)" />
<circle cx="2.34006" cy="15.4016" r="0.5" fill="rgb(0,0,0)" />
<circle cx="5.67595" cy="16.0629" r="0.5" fill="rgb(0,0,0)" />
<circle cx="16.7332" cy="11.7915" r="0.5" fill="rgb(0,0,0)" />
<circle cx="4.73014" cy="15.8061" r="0.5" fill="rgb(0,0,0)" />
<circle cx="12.4924" cy="8.99771" r="0.5" fill="rgb(0,0,0)" />
<circle cx="15.7591" cy="10.6332" r="0.5" fill="rgb(0,0,0)" />
<circle cx="16.3201" cy="15.3737" r="0.5" fill="rgb(0,0,0)" />
<circle cx="11.9918" cy="15.6742" r="0.5" fill="rgb(0,0,0)" />
<circle cx="3.25224" cy="15.9006" r="0.5" fill="rgb(0,0,0)" />
<circle cx="12.573" cy="13.1254" r="0.5" fill="rgb(0,0,0)" />
<circle cx="10.1459" cy="15.8674" r="0.5" fill="rgb(0,0,0)" />
<circle cx="4.25915" cy="7.49942" r="0.5" fill="rgb(0,0,0)" />
<circle cx="13.2614" cy="15.8577" r="0.5" fill="rgb(0,0,0)" />
<circle cx="16.6497" cy="3.50324" r="0.5" fill="rgb(0,0,0)" />
<circle cx="14.5221" cy="13.6044" r="0.5" fill="rgb(0,0,0)" />
<circle cx="1.29989" cy="16.4357" r="0.5" fill="rgb(0,0,0)" />
<circle cx="7.40746" cy="16.1146" r="0.5" fill="rgb(0,0,0)" />
<circle cx="15.7649" cy="7.02118" r="0.5" fill="rgb(0,0,0)" />
<circle cx="8.8149" cy="16.201" r="0.5" fill="rgb(0,0,0)" />
<circle cx="12.6633" cy="16.4542" r="0.5" fill="rgb(0,0,0)" />
<circle cx="3.96732" cy="16.1387" r="0.5" fill="rgb(0,0,0)" />
<circle cx="17.2393" cy="16.1595" r="0.5" fill="rgb(0,0,0)" />
<circle cx="6.54439" cy="16.5249" r="0.5" fill="rgb(0,0,0)" />
<circle cx="5.5367" cy="16.7538" r="0.5" fill="rgb(0,0,0)" />
<circle cx="2.00873" cy="16.5428" r="0.5" fill="rgb(0,0,0)" />
<circle cx="11.0867" cy="16.533" r="0.5" fill="rgb(0,0,0)" />
<circle cx="8.74222" cy="5.83201" r="0.5" fill="rgb(0,0,0)" />
<circle cx="15.0916" cy="16.4538" r="0.5" fill="rgb(0,0,0)" />
<circle cx="1.41543" cy="17.2862" r="0.5" fill="rgb(0,0,0)" />
<circle cx="15.8976" cy="16.8197" r="0.5" fill="rgb(0,0,0)" />
<circle cx="14.2105" cy="16.9474" r="0.5" fill="rgb(0,0,0)" />
<circle cx="0.514113" cy="16.984" r="0.5" fill="rgb(0,0,0)" />
<circle cx="4.38891" cy="16.8072" r="0.5" fill="rgb(0,0,0)" />
<circle cx="10.149" cy="14.0198" r="0.5" fill="rgb(0,0,0)" />
<circle cx="7.75456" cy="17.0295" r="0.5" fill="rgb(0,0,0)" />
<circle cx="2.98023" cy="16.7357" r="0.5" fill="rgb(0,0,0)" />
<circle cx="16.9192" cy="17.2018" r="0.5" fill="rgb(0,0,0)" />
<circle cx="12.4169" cy="17.2996" r="0.5" fill="rgb(0,0,0)" />
<circle cx="8.89652" cy="17.3152" r="0.5" fill="rgb(0,0,0)" />
<circle cx="5.82984" cy="17.4035" r="0.5" fill="rgb(0,0,0)" />
<circle cx="1.96946" cy="17.7439" r="0.5" fill="rgb(0,0,0)" />
<circle cx="11.6264" cy="2.6481" r="0.5" fill="rgb(0,0,0)" />
<circle cx="9.97104" cy="17.2279" r="0.5" fill="rgb(0,0,0)" />
<circle cx="1.22028" cy="17.8889" r="0.5" fill="rgb(0,0,0)" />
<circle cx="16.033" cy="17.8248" r="0.5" fill="rgb(0,0,0)" />
<circle cx="7.28633" cy="11.8424" r="0.5" fill="rgb(0,0,0)" />
<circle cx="14.3224" cy="17.8805" r="0.5" fill="rgb(0,0,0)" />
<circle cx="10.9056" cy="17.8192" r="0.5" fill="rgb(0,0,0)" />
<circle cx="2.81628" cy="17.7027" r="0.5" fill="rgb(0,0,0)" />
<circle cx="15.1481" cy="17.8754" r="0.5" fill="rgb(0,0,0)" />
<circle cx="17.6893" cy="17.8945" r="0.5" fill="rgb(0,0,0)" />
<circle cx="9.56658" cy="10.6542" r="0.5" fill="rgb(0,0,0)" />
<circle cx="11.6759" cy="17.4547" r="0.5" fill="rgb(0,0,0)" />
<circle cx="7.93706" cy="17.9137" r="0.5" fill="rgb(0,0,0)" />
<circle cx="6.72182" cy="17.6843" r="0.5" fill="rgb(0,0,0)" />
<circle cx="18.3638" cy="17.0465" r="0.5" fill="rgb(0,0,0)" />
<circle cx="18.4611" cy="15.7108" r="0.5" fill="rgb(0,0,0)" />
<circle cx="4.87742" cy="17.7052" r="0.5" fill="rgb(0,0,0)" />
<circle cx="5.21995" cy="6.65421" r="0.5" fill="rgb(0,0,0)" />
<circle cx="12.3104" cy="18.2686" r="0.5" fill="rgb(0,0,0)" />
<circle cx="9.64215" cy="2.55855" r="0.5" fill="rgb(0,0,0)" />
<circle cx="15.5099" cy="5.28775" r="0.5" fill="rgb(0,0,0)" />
<circle cx="18.7569" cy="18.1554" r="0.5" fill="rgb(0,0,0)" />
<circle cx="18.5458" cy="13.1337" r="0.5" fill="rgb(0,0,0)" />
<circle cx="18.2744" cy="11.2495" r="0.5" fill="rgb(0,0,0)" />
<circle cx="17.9707" cy="14.7975" r="0.5" fill="rgb(0,0,0)" />
<circle cx="18.5094" cy="1.78362" r="0.5" fill="rgb(0,0,0)" />
<circle cx="18.5006" cy="0.446565" r="0.5" fill="rgb(0,0,0)" />
<circle cx="18.3122" cy="9.43264" r="0.5" fill="rgb(0,0,0)" />
<circle cx="3.60027" cy="3.54802" r="0.5" fill="rgb(0,0,0)" />
<circle cx="7.12559" cy="8.13916" r="0.5" fill="rgb(0,0,0)" />
<circle cx="0.441835" cy="8.65298" r="0.5" fill="rgb(0,0,0)" />
<circle cx="1.14266" cy="15.4113" r="0.5" fill="rgb(0,0,0)" />
<circle cx="13.6188" cy="18.4576" r="0.5" fill="rgb(0,0,0)" />
<circle cx="13.3912" cy="8.06364" r="0.5" fill="rgb(0,0,0)" />
<circle cx="17.9687" cy="18.7067" r="0.5" fill="rgb(0,0,0)" />
<circle cx="17.051" cy="5.78984" r="0.5" fill="rgb(0,0,0)" />
<circle cx="16.9187" cy="18.4537" r="0.5" fill="rgb(0,0,0)" />
<circle cx="18.4918" cy="4.52497" r="0.5" fill="rgb(0,0,0)" />
<circle cx="18.4675" cy="3.29729" r="0.5" fill="rgb(0,0,0)" />
<circle cx="13.2937" cy="1.08202" r="0.5" fill="rgb(0,0,0)" />
<circle cx="0.337447" cy="15.9884" r="0.5" fill="rgb(0,0,0)" />
<circle cx="15.9324" cy="2.55341" r="0.5" fill="rgb(0,0,0)" />
<circle cx="13.3704" cy="17.3983" r="0.5" fill="rgb(0,0,0)" />
<circle cx="0.42719" cy="14.5189" r="0.5" fill="rgb(0,0,0)" />
<circle cx="0.443896" cy="10.0234" r="0.5" fill="rgb(0,0,0)" />
<circle cx="0.332647" cy="12.9706" r="0.5" fill="rgb(0,0,0)" />
<circle cx="0.435224" cy="11.6255" r="0.5" fill="rgb(0,0,0)" />
<circle cx="2.78436" cy="4.01128" r="0.5" fill="rgb(0,0,0)" />
<circle cx="0.546682" cy="2.30193" r="0.5" fill="rgb(0,0,0)" />
<circle cx="10.1285" cy="18.4332" r="0.5" fill="rgb(0,0,0)" />
<circle cx="18.3764" cy="8.10259" r="0.5" fill="rgb(0,0,0)" />
<circle cx="18.5933" cy="6.50828" r="0.5" fill="rgb(0,0,0)" />
<circle cx="16.8668" cy="2.65023" r="0.5" fill="rgb(0,0,0)" />
<circle cx="8.9317" cy="18.4593" r="0.5" fill="rgb(0,0,0)" />
<circle cx="13.4717" cy="15.0587" r="0.5" fill="rgb(0,0,0)" />
<circle cx="3.31134" cy="18.4625" r="0.5" fill="rgb(0,0,0)" />
<circle cx="16.3256" cy="1.56777" r="0.5" fill="rgb(0,0,0)" />
<circle cx="14.6936" cy="18.6328" r="0.5" fill="rgb(0,0,0)" />
<circle cx="15.9" cy="18.6145" r="0.5" fill="rgb(0,0,0)" />
<circle cx="7.51272" cy="18.5749" r="0.5" fill="rgb(0,0,0)" />
<circle cx="5.92171" cy="18.5005" r="0.5" fill="rgb(0,0,0)" />
<circle cx="12.7674" cy="18.615" r="0.5" fill="rgb(0,0,0)" />
<circle cx="6.79661" cy="2.98661" r="0.5" fill="rgb(0,0,0)" />
<circle cx="11.3601" cy="18.5662" r="0.5" fill="rgb(0,0,0)" />
<circle cx="0.327176" cy="7.08003" r="0.5" fill="rgb(0,0,0)" />
<circle cx="0.340112" cy="5.46271" r="0.5" fill="rgb(0,0,0)" />
<circle cx="6.325" cy="10.1258" r="0.5" fill="rgb(0,0,0)" />
<circle cx="0.408776" cy="4.35446" r="0.5" fill="rgb(0,0,0)" />
<circle cx="4.22954" cy="18.2118" r="0.5" fill="rgb(0,0,0)" />
<circle cx="0.644612" cy="0.663549" r="0.5" fill="rgb(0,0,0)" />
<circle cx="2.4983" cy="11.0156" r="0.5" fill="rgb(0,0,0)" />
<circle cx="18.4173" cy="18.378" r="0.5" fill="rgb(0,0,0)" />
<circle cx="2.66003" cy="0.4536" r="0.5" fill="rgb(0,0,0)" />
<circle cx="0.243505" cy="17.7275" r="0.5" fill="rgb(0,0,0)" />
<circle cx="0.371087" cy="18.4661" r="0.5" fill="rgb(0,0,0)" />
<circle cx="2.07064" cy="18.5958" r="0.5" fill="rgb(0,0,0)" />
<circle cx="13.5327" cy="10.3795" r="0.5" fill="rgb(0,0,0)" />
<circle cx="6.57342" cy="15.3139" r="0.5" fill="rgb(0,0,0)" />
<circle cx="14.2606" cy="15.7526" r="0.5" fill="rgb(0,0,0)" />
<circle cx="1.0949" cy="18.5792" r="0.5" fill="rgb(0,0,0)" />
</svg>
