<?xml version="1.0" ?>
<!DOCTYPE svg PUBLIC "-//W3C//DTD SVG 1.1//EN" "http://www.w3.org/Graphics/SVG/1.1/DTD/svg11.dtd">
<svg width="20" height="20" version="1.1" xmlns="http://www.w3.org/2000/svg">
<circle cx="10.0504" cy="1.09727" r="0.5" fill="rgb(0,0,0)" />
<circle cx="7.17254" cy="1.25712" r="0.5" fill="rgb(0,0,0)" />
<circle cx="14.528" cy="2.91185" r="0.5" fill="rgb(0,0,0)" />
<circle cx="3.27235" cy="3.78547" r="0.5" fill="rgb(0,0,0)" />
<circle cx="9.46258" cy="3.82688" r="0.5" fill="rgb(0,0,0)" />
<circle cx="6.00111" cy="3.82597" r="0.5" fill="rgb(0,0,0)" />
<circle cx="15.5321" cy="4.92591" r="0.5" fill="rgb(0,0,0)" />
<circle cx="12.5773" cy="4.75515" r="0.5" fill="rgb(0,0,0)" />
<circle cx="7.60644" cy="6.29986" r="0.5" fill="rgb(0,0,0)" />
<circle cx="15.0315" cy="7.45521" r="0.5" fill="rgb(0,0,0)" />
<circle cx="9.51184" cy="9.23552" r="0.5" fill="rgb(0,0,0)" />
<circle cx="17.538" cy="3.26364" r="0.5" fill="rgb(0,0,0)" />
<circle cx="2.72886" cy="10.6102" r="0.5" fill="rgb(0,0,0)" />
<circle cx="13.3002" cy="11.9696" r="0.5" fill="rgb(0,0,0)" />
<circle cx="6.38448" cy="11.8844" r="0.5" fill="rgb(0,0,0)" />
<circle cx="11.1184" cy="6.79305" r="0.5" fill="rgb(0,0,0)" />
<circle cx="15.652" cy="12.8417" r="0.5" fill="rgb(0,0,0)" />
<circle cx="9.82649" cy="12.2049" r="0.5" fill="rgb(0,0,0)" />
<circle cx="17.1756" cy="9.80887" r="0.5" fill="rgb(0,0,0)" />
<circle cx="17.8018" cy="6.4135" r="0.5" fill="rgb(0,0,0)" />
<circle cx="13.4668" cy="14.8921" r="0.5" fill="rgb(0,0,0)" />
<circle cx="3.99704" cy="6.83608" r="0.5" fill="rgb(0,0,0)" />
<circle cx="10.5141" cy="14.7276" r="0.5" fill="rgb(0,0,0)" />
<circle cx="16.0416" cy="15.5915" r="0.5" fill="rgb(0,0,0)" />
<circle cx="14.1829" cy="17.2676" r="0.5" fill="rgb(0,0,0)" />
<circle cx="7.8508" cy="17.1785" r="0.5" fill="rgb(0,0,0)" />
<circle cx="5.93933" cy="14.5561" r="0.5" fill="rgb(0,0,0)" />
<circle cx="12.5172" cy="17.7048" r="0.5" fill="rgb(0,0,0)" />
<circle cx="10.4458" cy="17.5422" r="0.5" fill="rgb(0,0,0)" />
<circle cx="17.9442" cy="12.8563" r="0.5" fill="rgb(0,0,0)" />
<circle cx="4.0245" cy="1.15349" r="0.5" fill="rgb(0,0,0)" />
<circle cx="1.15919" cy="1.47153" r="0.5" fill="rgb(0,0,0)" />
<circle cx="1.13599" cy="8.36465" r="0.5" fill="rgb(0,0,0)" />
<circle cx="13.0562" cy="9.38602" r="0.5" fill="rgb(0,0,0)" />
<circle cx="1.11402" cy="4.98346" r="0.5" fill="rgb(0,0,0)" />
<circle cx="6.09429" cy="9.0438" r="0.5" fill="rgb(0,0,0)" />
<circle cx="4.50842" cy="17.3215" r="0.5" fill="rgb(0,0,0)" />
<circle cx="1.42363" cy="16.9979" r="0.5" fill="rgb(0,0,0)" />
<circle cx="15.7237" cy="17.9979" r="0.5" fill="rgb(0,0,0)" />
<circle cx="1.8485" cy="13.4582" r="0.5" fill="rgb(0,0,0)" />
<circle cx="17.8661" cy="17.9529" r="0.5" fill="rgb(0,0,0)" />
<circle cx="12.3204" cy="1.67751" r="0.5" fill="rgb(0,0,0)" />
<circle cx="18.0238" cy="15.7632" r="0.5" fill="rgb(0,0,0)" />
<circle cx="17.6515" cy="0.990694" r="0.5" fill="rgb(0,0,0)" />
<circle cx="14.8985" cy="0.868548" r="0.5" fill="rgb(0,0,0)" />
</svg>
