<?xml version="1.0" ?>
<!DOCTYPE svg PUBLIC "-//W3C//DTD SVG 1.1//EN" "http://www.w3.org/Graphics/SVG/1.1/DTD/svg11.dtd">
<svg width="20" height="20" version="1.1" xmlns="http://www.w3.org/2000/svg">
<circle cx="14.6443" cy="0.379671" r="0.5" fill="rgb(0,0,0)" />
<circle cx="11.0617" cy="0.415377" r="0.5" fill="rgb(0,0,0)" />
<circle cx="12.851" cy="0.469652" r="0.5" fill="rgb(0,0,0)" />
<circle cx="9.30964" cy="0.555132" r="0.5" fill="rgb(0,0,0)" />
<circle cx="8.0049" cy="0.659303" r="0.5" fill="rgb(0,0,0)" />
<circle cx="17.3071" cy="0.691564" r="0.5" fill="rgb(0,0,0)" />
<circle cx="11.9898" cy="1.36471" r="0.5" fill="rgb(0,0,0)" />
<circle cx="5.71594" cy="1.4824" r="0.5" fill="rgb(0,0,0)" />
<circle cx="7.00396" cy="1.4355" r="0.5" fill="rgb(0,0,0)" />
<circle cx="10.5183" cy="1.35686" r="0.5" fill="rgb(0,0,0)" />
<circle cx="12.6799" cy="2.03064" r="0.5" fill="rgb(0,0,0)" />
<circle cx="5.74305" cy="2.35588" r="0.5" fill="rgb(0,0,0)" />
<circle cx="4.27356" cy="2.19563" r="0.5" fill="rgb(0,0,0)" />
<circle cx="5.01334" cy="2.83742" r="0.5" fill="rgb(0,0,0)" />
<circle cx="3.21172" cy="2.80549" r="0.5" fill="rgb(0,0,0)" />
<circle cx="18.4606" cy="0.571189" r="0.5" fill="rgb(0,0,0)" />
<circle cx="15.4207" cy="2.4685" r="0.5" fill="rgb(0,0,0)" />
<circle cx="2.24051" cy="2.99144" r="0.5" fill="rgb(0,0,0)" />
<circle cx="14.6053" cy="3.11872" r="0.5" fill="rgb(0,0,0)" />
<circle cx="4.37265" cy="3.55496" r="0.5" fill="rgb(0,0,0)" />
<circle cx="5.26355" cy="3.66898" r="0.5" fill="rgb(0,0,0)" />
<circle cx="6.12828" cy="3.57232" r="0.5" fill="rgb(0,0,0)" />
<circle cx="3.58455" cy="3.72241" r="0.5" fill="rgb(0,0,0)" />
<circle cx="8.49159" cy="3.68961" r="0.5" fill="rgb(0,0,0)" />
<circle cx="1.48295" cy="3.64909" r="0.5" fill="rgb(0,0,0)" />
<circle cx="10.5239" cy="3.85147" r="0.5" fill="rgb(0,0,0)" />
<circle cx="4.1978" cy="4.54969" r="0.5" fill="rgb(0,0,0)" />
<circle cx="15.3112" cy="5.07351" r="0.5" fill="rgb(0,0,0)" />
<circle cx="2.16124" cy="4.84231" r="0.5" fill="rgb(0,0,0)" />
<circle cx="16.815" cy="5.33242" r="0.5" fill="rgb(0,0,0)" />
<circle cx="1.26659" cy="5.32274" r="0.5" fill="rgb(0,0,0)" />
<circle cx="6.8205" cy="2.77736" r="0.5" fill="rgb(0,0,0)" />
<circle cx="9.98735" cy="4.50318" r="0.5" fill="rgb(0,0,0)" />
<circle cx="18.1494" cy="5.57995" r="0.5" fill="rgb(0,0,0)" />
<circle cx="15.677" cy="6.01852" r="0.5" fill="rgb(0,0,0)" />
<circle cx="10.9654" cy="5.6475" r="0.5" fill="rgb(0,0,0)" />
<circle cx="12.683" cy="5.50661" r="0.5" fill="rgb(0,0,0)" />
<circle cx="18.0921" cy="1.74864" r="0.5" fill="rgb(0,0,0)" />
<circle cx="7.50495" cy="6.04597" r="0.5" fill="rgb(0,0,0)" />
<circle cx="17.0072" cy="6.41492" r="0.5" fill="rgb(0,0,0)" />
<circle cx="18.5986" cy="6.44678" r="0.5" fill="rgb(0,0,0)" />
<circle cx="7.95324" cy="7.02491" r="0.5" fill="rgb(0,0,0)" />
<circle cx="13.7086" cy="3.48211" r="0.5" fill="rgb(0,0,0)" />
<circle cx="18.1069" cy="7.10147" r="0.5" fill="rgb(0,0,0)" />
<circle cx="15.6636" cy="7.17029" r="0.5" fill="rgb(0,0,0)" />
<circle cx="10.2107" cy="7.10073" r="0.5" fill="rgb(0,0,0)" />
<circle cx="12.7222" cy="7.06157" r="0.5" fill="rgb(0,0,0)" />
<circle cx="14.3126" cy="7.05874" r="0.5" fill="rgb(0,0,0)" />
<circle cx="1.62351" cy="7.176" r="0.5" fill="rgb(0,0,0)" />
<circle cx="3.11892" cy="7.21311" r="0.5" fill="rgb(0,0,0)" />
<circle cx="4.90442" cy="7.6167" r="0.5" fill="rgb(0,0,0)" />
<circle cx="8.47092" cy="7.94583" r="0.5" fill="rgb(0,0,0)" />
<circle cx="7.39316" cy="8.07303" r="0.5" fill="rgb(0,0,0)" />
<circle cx="2.5982" cy="8.21826" r="0.5" fill="rgb(0,0,0)" />
<circle cx="3.18786" cy="1.33177" r="0.5" fill="rgb(0,0,0)" />
<circle cx="13.6077" cy="8.28234" r="0.5" fill="rgb(0,0,0)" />
<circle cx="3.82902" cy="8.63719" r="0.5" fill="rgb(0,0,0)" />
<circle cx="12.2014" cy="8.47496" r="0.5" fill="rgb(0,0,0)" />
<circle cx="1.49078" cy="9.13694" r="0.5" fill="rgb(0,0,0)" />
<circle cx="6.00916" cy="9.20473" r="0.5" fill="rgb(0,0,0)" />
<circle cx="11.3286" cy="7.22089" r="0.5" fill="rgb(0,0,0)" />
<circle cx="17.0081" cy="9.25497" r="0.5" fill="rgb(0,0,0)" />
<circle cx="3.6935" cy="9.65802" r="0.5" fill="rgb(0,0,0)" />
<circle cx="8.31521" cy="9.87875" r="0.5" fill="rgb(0,0,0)" />
<circle cx="7.15769" cy="9.87022" r="0.5" fill="rgb(0,0,0)" />
<circle cx="11.3542" cy="9.38009" r="0.5" fill="rgb(0,0,0)" />
<circle cx="14.4401" cy="9.62431" r="0.5" fill="rgb(0,0,0)" />
<circle cx="13.1805" cy="9.84059" r="0.5" fill="rgb(0,0,0)" />
<circle cx="6.61929" cy="6.82099" r="0.5" fill="rgb(0,0,0)" />
<circle cx="4.73036" cy="10.2102" r="0.5" fill="rgb(0,0,0)" />
<circle cx="9.39738" cy="3.11405" r="0.5" fill="rgb(0,0,0)" />
<circle cx="4.22114" cy="6.66275" r="0.5" fill="rgb(0,0,0)" />
<circle cx="1.85249" cy="10.2303" r="0.5" fill="rgb(0,0,0)" />
<circle cx="5.64874" cy="6.3648" r="0.5" fill="rgb(0,0,0)" />
<circle cx="8.55076" cy="10.8586" r="0.5" fill="rgb(0,0,0)" />
<circle cx="16.9179" cy="10.6466" r="0.5" fill="rgb(0,0,0)" />
<circle cx="15.0633" cy="11.1187" r="0.5" fill="rgb(0,0,0)" />
<circle cx="13.6718" cy="11.1961" r="0.5" fill="rgb(0,0,0)" />
<circle cx="10.7851" cy="10.9327" r="0.5" fill="rgb(0,0,0)" />
<circle cx="4.48718" cy="11.5084" r="0.5" fill="rgb(0,0,0)" />
<circle cx="5.76111" cy="11.5661" r="0.5" fill="rgb(0,0,0)" />
<circle cx="16.2001" cy="12.0596" r="0.5" fill="rgb(0,0,0)" />
<circle cx="2.31744" cy="11.6777" r="0.5" fill="rgb(0,0,0)" />
<circle cx="13.4663" cy="12.5007" r="0.5" fill="rgb(0,0,0)" />
<circle cx="15.9521" cy="0.760237" r="0.5" fill="rgb(0,0,0)" />
<circle cx="16.145" cy="8.37391" r="0.5" fill="rgb(0,0,0)" />
<circle cx="9.25191" cy="12.0008" r="0.5" fill="rgb(0,0,0)" />
<circle cx="3.33029" cy="12.4173" r="0.5" fill="rgb(0,0,0)" />
<circle cx="0.815142" cy="11.2772" r="0.5" fill="rgb(0,0,0)" />
<circle cx="16.7668" cy="3.37872" r="0.5" fill="rgb(0,0,0)" />
<circle cx="10.2704" cy="12.3478" r="0.5" fill="rgb(0,0,0)" />
<circle cx="15.0821" cy="13.4724" r="0.5" fill="rgb(0,0,0)" />
<circle cx="10.5443" cy="13.3916" r="0.5" fill="rgb(0,0,0)" />
<circle cx="5.7356" cy="0.390349" r="0.5" fill="rgb(0,0,0)" />
<circle cx="4.93362" cy="13.5556" r="0.5" fill="rgb(0,0,0)" />
<circle cx="15.324" cy="3.87347" r="0.5" fill="rgb(0,0,0)" />
<circle cx="13.4325" cy="13.866" r="0.5" fill="rgb(0,0,0)" />
<circle cx="8.50069" cy="8.9689" r="0.5" fill="rgb(0,0,0)" />
<circle cx="6.10235" cy="14.0545" r="0.5" fill="rgb(0,0,0)" />
<circle cx="9.08531" cy="1.8759" r="0.5" fill="rgb(0,0,0)" />
<circle cx="14.3531" cy="14.1909" r="0.5" fill="rgb(0,0,0)" />
<circle cx="2.80335" cy="4.06207" r="0.5" fill="rgb(0,0,0)" />
<circle cx="9.3917" cy="5.03888" r="0.5" fill="rgb(0,0,0)" />
<circle cx="6.5934" cy="5.60943" r="0.5" fill="rgb(0,0,0)" />
<circle cx="1.89566" cy="13.8343" r="0.5" fill="rgb(0,0,0)" />
<circle cx="16.2183" cy="4.44502" r="0.5" fill="rgb(0,0,0)" />
<circle cx="7.6837" cy="14.0587" r="0.5" fill="rgb(0,0,0)" />
<circle cx="3.09709" cy="14.4099" r="0.5" fill="rgb(0,0,0)" />
<circle cx="2.56632" cy="9.19458" r="0.5" fill="rgb(0,0,0)" />
<circle cx="5.0182" cy="14.9149" r="0.5" fill="rgb(0,0,0)" />
<circle cx="15.6912" cy="9.9072" r="0.5" fill="rgb(0,0,0)" />
<circle cx="8.96286" cy="14.5829" r="0.5" fill="rgb(0,0,0)" />
<circle cx="11.5447" cy="14.6194" r="0.5" fill="rgb(0,0,0)" />
<circle cx="4.32461" cy="0.620728" r="0.5" fill="rgb(0,0,0)" />
<circle cx="6.22919" cy="4.92051" r="0.5" fill="rgb(0,0,0)" />
<circle cx="15.0601" cy="15.3146" r="0.5" fill="rgb(0,0,0)" />
<circle cx="3.29447" cy="10.6595" r="0.5" fill="rgb(0,0,0)" />
<circle cx="10.4181" cy="14.8928" r="0.5" fill="rgb(0,0,0)" />
<circle cx="17.6487" cy="14.9313" r="0.5" fill="rgb(0,0,0)" />
<circle cx="4.83005" cy="15.8522" r="0.5" fill="rgb(0,0,0)" />
<circle cx="13.0385" cy="2.74789" r="0.5" fill="rgb(0,0,0)" />
<circle cx="11.6891" cy="4.23069" r="0.5" fill="rgb(0,0,0)" />
<circle cx="15.0112" cy="8.50342" r="0.5" fill="rgb(0,0,0)" />
<circle cx="16.5291" cy="13.5524" r="0.5" fill="rgb(0,0,0)" />
<circle cx="14.2673" cy="15.7601" r="0.5" fill="rgb(0,0,0)" />
<circle cx="14.8186" cy="12.5055" r="0.5" fill="rgb(0,0,0)" />
<circle cx="13.4635" cy="15.0094" r="0.5" fill="rgb(0,0,0)" />
<circle cx="16.3607" cy="15.4826" r="0.5" fill="rgb(0,0,0)" />
<circle cx="12.4773" cy="14.2493" r="0.5" fill="rgb(0,0,0)" />
<circle cx="7.49826" cy="15.5914" r="0.5" fill="rgb(0,0,0)" />
<circle cx="11.9794" cy="15.6372" r="0.5" fill="rgb(0,0,0)" />
<circle cx="9.51815" cy="10.4836" r="0.5" fill="rgb(0,0,0)" />
<circle cx="13.2537" cy="15.8568" r="0.5" fill="rgb(0,0,0)" />
<circle cx="10.4381" cy="2.60133" r="0.5" fill="rgb(0,0,0)" />
<circle cx="1.29232" cy="16.205" r="0.5" fill="rgb(0,0,0)" />
<circle cx="5.57016" cy="16.3743" r="0.5" fill="rgb(0,0,0)" />
<circle cx="4.01168" cy="16.0918" r="0.5" fill="rgb(0,0,0)" />
<circle cx="1.73045" cy="2.00678" r="0.5" fill="rgb(0,0,0)" />
<circle cx="6.63775" cy="16.4626" r="0.5" fill="rgb(0,0,0)" />
<circle cx="6.16127" cy="10.3308" r="0.5" fill="rgb(0,0,0)" />
<circle cx="2.22323" cy="16.52" r="0.5" fill="rgb(0,0,0)" />
<circle cx="11.657" cy="2.66772" r="0.5" fill="rgb(0,0,0)" />
<circle cx="3.20545" cy="16.1401" r="0.5" fill="rgb(0,0,0)" />
<circle cx="6.56015" cy="7.62768" r="0.5" fill="rgb(0,0,0)" />
<circle cx="9.25969" cy="16.0599" r="0.5" fill="rgb(0,0,0)" />
<circle cx="12.5619" cy="16.5982" r="0.5" fill="rgb(0,0,0)" />
<circle cx="1.38033" cy="17.2262" r="0.5" fill="rgb(0,0,0)" />
<circle cx="4.66803" cy="5.5115" r="0.5" fill="rgb(0,0,0)" />
<circle cx="4.47517" cy="16.9594" r="0.5" fill="rgb(0,0,0)" />
<circle cx="10.8657" cy="16.5898" r="0.5" fill="rgb(0,0,0)" />
<circle cx="7.81071" cy="16.9759" r="0.5" fill="rgb(0,0,0)" />
<circle cx="7.84628" cy="2.39685" r="0.5" fill="rgb(0,0,0)" />
<circle cx="9.22844" cy="6.74811" r="0.5" fill="rgb(0,0,0)" />
<circle cx="13.1829" cy="17.4627" r="0.5" fill="rgb(0,0,0)" />
<circle cx="7.10207" cy="11.9408" r="0.5" fill="rgb(0,0,0)" />
<circle cx="1.20674" cy="17.8783" r="0.5" fill="rgb(0,0,0)" />
<circle cx="9.70048" cy="9.41988" r="0.5" fill="rgb(0,0,0)" />
<circle cx="2.96629" cy="17.3576" r="0.5" fill="rgb(0,0,0)" />
<circle cx="12.2189" cy="10.9644" r="0.5" fill="rgb(0,0,0)" />
<circle cx="17.8029" cy="17.4273" r="0.5" fill="rgb(0,0,0)" />
<circle cx="6.8862" cy="0.347015" r="0.5" fill="rgb(0,0,0)" />
<circle cx="3.21136" cy="5.50626" r="0.5" fill="rgb(0,0,0)" />
<circle cx="12.1245" cy="12.7933" r="0.5" fill="rgb(0,0,0)" />
<circle cx="15.1231" cy="16.4908" r="0.5" fill="rgb(0,0,0)" />
<circle cx="5.66204" cy="17.3896" r="0.5" fill="rgb(0,0,0)" />
<circle cx="2.13225" cy="17.8032" r="0.5" fill="rgb(0,0,0)" />
<circle cx="3.92564" cy="13.2518" r="0.5" fill="rgb(0,0,0)" />
<circle cx="6.13911" cy="15.2816" r="0.5" fill="rgb(0,0,0)" />
<circle cx="15.4389" cy="17.9682" r="0.5" fill="rgb(0,0,0)" />
<circle cx="6.77218" cy="17.7265" r="0.5" fill="rgb(0,0,0)" />
<circle cx="17.8473" cy="2.64143" r="0.5" fill="rgb(0,0,0)" />
<circle cx="4.0082" cy="14.8202" r="0.5" fill="rgb(0,0,0)" />
<circle cx="8.23655" cy="18.0364" r="0.5" fill="rgb(0,0,0)" />
<circle cx="6.22559" cy="12.8347" r="0.5" fill="rgb(0,0,0)" />
<circle cx="14.2986" cy="18.053" r="0.5" fill="rgb(0,0,0)" />
<circle cx="5.95396" cy="8.18966" r="0.5" fill="rgb(0,0,0)" />
<circle cx="12.0478" cy="17.9274" r="0.5" fill="rgb(0,0,0)" />
<circle cx="10.9988" cy="18.3764" r="0.5" fill="rgb(0,0,0)" />
<circle cx="12.731" cy="3.84455" r="0.5" fill="rgb(0,0,0)" />
<circle cx="17.0722" cy="7.71843" r="0.5" fill="rgb(0,0,0)" />
<circle cx="7.28268" cy="9.0341" r="0.5" fill="rgb(0,0,0)" />
<circle cx="0.794399" cy="12.824" r="0.5" fill="rgb(0,0,0)" />
<circle cx="0.590636" cy="14.8621" r="0.5" fill="rgb(0,0,0)" />
<circle cx="17.5142" cy="4.3262" r="0.5" fill="rgb(0,0,0)" />
<circle cx="1.95073" cy="6.2298" r="0.5" fill="rgb(0,0,0)" />
<circle cx="1.22332" cy="7.99151" r="0.5" fill="rgb(0,0,0)" />
<circle cx="9.04149" cy="17.3275" r="0.5" fill="rgb(0,0,0)" />
<circle cx="0.41821" cy="16.5952" r="0.5" fill="rgb(0,0,0)" />
<circle cx="15.9048" cy="17.0533" r="0.5" fill="rgb(0,0,0)" />
<circle cx="18.0559" cy="11.5884" r="0.5" fill="rgb(0,0,0)" />
<circle cx="5.42042" cy="4.6054" r="0.5" fill="rgb(0,0,0)" />
<circle cx="18.0796" cy="13.4494" r="0.5" fill="rgb(0,0,0)" />
<circle cx="7.19375" cy="3.99155" r="0.5" fill="rgb(0,0,0)" />
<circle cx="8.15347" cy="11.6369" r="0.5" fill="rgb(0,0,0)" />
<circle cx="2.15858" cy="15.3378" r="0.5" fill="rgb(0,0,0)" />
<circle cx="0.462066" cy="10.0567" r="0.5" fill="rgb(0,0,0)" />
<circle cx="9.40513" cy="8.02172" r="0.5" fill="rgb(0,0,0)" />
<circle cx="17.0334" cy="16.7677" r="0.5" fill="rgb(0,0,0)" />
<circle cx="18.3011" cy="9.61528" r="0.5" fill="rgb(0,0,0)" />
<circle cx="2.81636" cy="9.74715" r="0.5" fill="rgb(0,0,0)" />
<circle cx="18.367" cy="8.14465" r="0.5" fill="rgb(0,0,0)" />
<circle cx="15.5544" cy="14.4731" r="0.5" fill="rgb(0,0,0)" />
<circle cx="18.4943" cy="4.52653" r="0.5" fill="rgb(0,0,0)" />
<circle cx="8.94792" cy="5.85632" r="0.5" fill="rgb(0,0,0)" />
<circle cx="18.4467" cy="3.24362" r="0.5" fill="rgb(0,0,0)" />
<circle cx="13.9994" cy="4.52563" r="0.5" fill="rgb(0,0,0)" />
<circle cx="7.33537" cy="10.8073" r="0.5" fill="rgb(0,0,0)" />
<circle cx="18.3766" cy="15.8336" r="0.5" fill="rgb(0,0,0)" />
<circle cx="0.399177" cy="3.48431" r="0.5" fill="rgb(0,0,0)" />
<circle cx="9.91212" cy="17.9743" r="0.5" fill="rgb(0,0,0)" />
<circle cx="3.42459" cy="18.4346" r="0.5" fill="rgb(0,0,0)" />
<circle cx="15.0989" cy="18.6651" r="0.5" fill="rgb(0,0,0)" />
<circle cx="4.53676" cy="18.104" r="0.5" fill="rgb(0,0,0)" />
<circle cx="13.242" cy="18.5281" r="0.5" fill="rgb(0,0,0)" />
<circle cx="8.103" cy="18.6504" r="0.5" fill="rgb(0,0,0)" />
<circle cx="16.4824" cy="2.12838" r="0.5" fill="rgb(0,0,0)" />
<circle cx="7.96697" cy="4.9046" r="0.5" fill="rgb(0,0,0)" />
<circle cx="16.651" cy="18.3124" r="0.5" fill="rgb(0,0,0)" />
<circle cx="6.05503" cy="18.5181" r="0.5" fill="rgb(0,0,0)" />
<circle cx="8.28516" cy="12.8805" r="0.5" fill="rgb(0,0,0)" />
<circle cx="0.471294" cy="6.82353" r="0.5" fill="rgb(0,0,0)" />
<circle cx="0.408519" cy="5.11726" r="0.5" fill="rgb(0,0,0)" />
<circle cx="0.499592" cy="1.29492" r="0.5" fill="rgb(0,0,0)" />
<circle cx="14.3993" cy="1.22278" r="0.5" fill="rgb(0,0,0)" />
<circle cx="14.2402" cy="5.69868" r="0.5" fill="rgb(0,0,0)" />
<circle cx="1.88699" cy="0.488456" r="0.5" fill="rgb(0,0,0)" />
<circle cx="0.27538" cy="17.6651" r="0.5" fill="rgb(0,0,0)" />
<circle cx="14.2487" cy="2.24302" r="0.5" fill="rgb(0,0,0)" />
<circle cx="14.1532" cy="16.9859" r="0.5" fill="rgb(0,0,0)" />
<circle cx="0.370721" cy="18.4709" r="0.5" fill="rgb(0,0,0)" />
<circle cx="2.11263" cy="18.5996" r="0.5" fill="rgb(0,0,0)" />
<circle cx="4.85867" cy="8.93891" r="0.5" fill="rgb(0,0,0)" />
<circle cx="1.08776" cy="18.5812" r="0.5" fill="rgb(0,0,0)" />
<circle cx="13.4481" cy="1.6159" r="0.5" fill="rgb(0,0,0)" />
<circle cx="17.8128" cy="18.5834" r="0.5" fill="rgb(0,0,0)" />
<circle cx="10.3453" cy="8.53046" r="0.5" fill="rgb(0,0,0)" />
<circle cx="18.5452" cy="18.3754" r="0.5" fill="rgb(0,0,0)" />
<circle cx="0.432639" cy="8.63445" r="0.5" fill="rgb(0,0,0)" />
<circle cx="18.6573" cy="17.2968" r="0.5" fill="rgb(0,0,0)" />
</svg>
