<?xml version="1.0" ?>
<!DOCTYPE svg PUBLIC "-//W3C//DTD SVG 1.1//EN" "http://www.w3.org/Graphics/SVG/1.1/DTD/svg11.dtd">
<svg width="20" height="20" version="1.1" xmlns="http://www.w3.org/2000/svg">
<circle cx="7.54257" cy="1.29116" r="0.5" fill="rgb(0,0,0)" />
<circle cx="16.6597" cy="3.1756" r="0.5" fill="rgb(0,0,0)" />
<circle cx="13.3344" cy="3.23057" r="0.5" fill="rgb(0,0,0)" />
<circle cx="5.97258" cy="3.82859" r="0.5" fill="rgb(0,0,0)" />
<circle cx="11.5836" cy="5.81949" r="0.5" fill="rgb(0,0,0)" />
<circle cx="3.19638" cy="3.7713" r="0.5" fill="rgb(0,0,0)" />
<circle cx="7.89743" cy="5.91404" r="0.5" fill="rgb(0,0,0)" />
<circle cx="14.9104" cy="5.91677" r="0.5" fill="rgb(0,0,0)" />
<circle cx="13.2432" cy="8.64177" r="0.5" fill="rgb(0,0,0)" />
<circle cx="11.0189" cy="1.06667" r="0.5" fill="rgb(0,0,0)" />
<circle cx="2.85039" cy="10.5721" r="0.5" fill="rgb(0,0,0)" />
<circle cx="14.0826" cy="11.367" r="0.5" fill="rgb(0,0,0)" />
<circle cx="10.2257" cy="11.7235" r="0.5" fill="rgb(0,0,0)" />
<circle cx="16.2235" cy="13.5817" r="0.5" fill="rgb(0,0,0)" />
<circle cx="17.0768" cy="8.65654" r="0.5" fill="rgb(0,0,0)" />
<circle cx="17.7682" cy="5.5677" r="0.5" fill="rgb(0,0,0)" />
<circle cx="6.29055" cy="12.8597" r="0.5" fill="rgb(0,0,0)" />
<circle cx="10.3744" cy="14.6258" r="0.5" fill="rgb(0,0,0)" />
<circle cx="15.8387" cy="15.9671" r="0.5" fill="rgb(0,0,0)" />
<circle cx="9.75157" cy="8.66329" r="0.5" fill="rgb(0,0,0)" />
<circle cx="7.23384" cy="16.4079" r="0.5" fill="rgb(0,0,0)" />
<circle cx="9.81388" cy="3.42744" r="0.5" fill="rgb(0,0,0)" />
<circle cx="13.9353" cy="17.3622" r="0.5" fill="rgb(0,0,0)" />
<circle cx="1.87515" cy="13.4549" r="0.5" fill="rgb(0,0,0)" />
<circle cx="17.6088" cy="11.5369" r="0.5" fill="rgb(0,0,0)" />
<circle cx="11.9578" cy="17.4441" r="0.5" fill="rgb(0,0,0)" />
<circle cx="6.48367" cy="9.25702" r="0.5" fill="rgb(0,0,0)" />
<circle cx="13.4144" cy="14.3306" r="0.5" fill="rgb(0,0,0)" />
<circle cx="1.40954" cy="17.0694" r="0.5" fill="rgb(0,0,0)" />
<circle cx="4.47658" cy="16.8701" r="0.5" fill="rgb(0,0,0)" />
<circle cx="4.24392" cy="1.14197" r="0.5" fill="rgb(0,0,0)" />
<circle cx="1.21791" cy="1.45868" r="0.5" fill="rgb(0,0,0)" />
<circle cx="1.17928" cy="8.32419" r="0.5" fill="rgb(0,0,0)" />
<circle cx="1.11402" cy="4.99811" r="0.5" fill="rgb(0,0,0)" />
<circle cx="9.41094" cy="17.6506" r="0.5" fill="rgb(0,0,0)" />
<circle cx="15.7717" cy="18.0842" r="0.5" fill="rgb(0,0,0)" />
<circle cx="4.19996" cy="6.8946" r="0.5" fill="rgb(0,0,0)" />
<circle cx="18.0506" cy="15.1541" r="0.5" fill="rgb(0,0,0)" />
<circle cx="17.7036" cy="1.17355" r="0.5" fill="rgb(0,0,0)" />
<circle cx="17.8916" cy="17.7666" r="0.5" fill="rgb(0,0,0)" />
<circle cx="14.5252" cy="0.969503" r="0.5" fill="rgb(0,0,0)" />
</svg>
