<?xml version="1.0" ?>
<!DOCTYPE svg PUBLIC "-//W3C//DTD SVG 1.1//EN" "http://www.w3.org/Graphics/SVG/1.1/DTD/svg11.dtd">
<svg width="20" height="20" version="1.1" xmlns="http://www.w3.org/2000/svg">
<circle cx="7.58647" cy="0.192088" r="0.5" fill="rgb(0,0,0)" />
<circle cx="10.3595" cy="0.298036" r="0.5" fill="rgb(0,0,0)" />
<circle cx="14.6306" cy="0.216865" r="0.5" fill="rgb(0,0,0)" />
<circle cx="5.73171" cy="0.363624" r="0.5" fill="rgb(0,0,0)" />
<circle cx="12.5273" cy="0.369343" r="0.5" fill="rgb(0,0,0)" />
<circle cx="9.35309" cy="0.537967" r="0.5" fill="rgb(0,0,0)" />
<circle cx="4.37855" cy="0.47876" r="0.5" fill="rgb(0,0,0)" />
<circle cx="17.1174" cy="0.431155" r="0.5" fill="rgb(0,0,0)" />
<circle cx="12.0012" cy="0.791493" r="0.5" fill="rgb(0,0,0)" />
<circle cx="8.37994" cy="0.598633" r="0.5" fill="rgb(0,0,0)" />
<circle cx="13.2937" cy="1.08202" r="0.5" fill="rgb(0,0,0)" />
<circle cx="11.2305" cy="0.660424" r="0.5" fill="rgb(0,0,0)" />
<circle cx="13.4526" cy="1.64429" r="0.5" fill="rgb(0,0,0)" />
<circle cx="14.6262" cy="1.427" r="0.5" fill="rgb(0,0,0)" />
<circle cx="16.3256" cy="1.56777" r="0.5" fill="rgb(0,0,0)" />
<circle cx="1.78095" cy="1.27929" r="0.5" fill="rgb(0,0,0)" />
<circle cx="10.4297" cy="1.454" r="0.5" fill="rgb(0,0,0)" />
<circle cx="4.56613" cy="1.56069" r="0.5" fill="rgb(0,0,0)" />
<circle cx="9.21116" cy="1.71477" r="0.5" fill="rgb(0,0,0)" />
<circle cx="7.94606" cy="1.71954" r="0.5" fill="rgb(0,0,0)" />
<circle cx="13.4652" cy="2.3163" r="0.5" fill="rgb(0,0,0)" />
<circle cx="14.2798" cy="2.20575" r="0.5" fill="rgb(0,0,0)" />
<circle cx="5.70836" cy="2.37565" r="0.5" fill="rgb(0,0,0)" />
<circle cx="1.84494" cy="2.41305" r="0.5" fill="rgb(0,0,0)" />
<circle cx="5.01639" cy="2.80846" r="0.5" fill="rgb(0,0,0)" />
<circle cx="7.7849" cy="2.77487" r="0.5" fill="rgb(0,0,0)" />
<circle cx="14.9032" cy="0.756058" r="0.5" fill="rgb(0,0,0)" />
<circle cx="3.1737" cy="2.79207" r="0.5" fill="rgb(0,0,0)" />
<circle cx="15.9324" cy="2.55341" r="0.5" fill="rgb(0,0,0)" />
<circle cx="8.7296" cy="2.82357" r="0.5" fill="rgb(0,0,0)" />
<circle cx="5.49401" cy="1.25874" r="0.5" fill="rgb(0,0,0)" />
<circle cx="10.6139" cy="2.61307" r="0.5" fill="rgb(0,0,0)" />
<circle cx="13.6062" cy="3.09156" r="0.5" fill="rgb(0,0,0)" />
<circle cx="14.5941" cy="3.05085" r="0.5" fill="rgb(0,0,0)" />
<circle cx="5.94629" cy="3.25899" r="0.5" fill="rgb(0,0,0)" />
<circle cx="4.40879" cy="3.58062" r="0.5" fill="rgb(0,0,0)" />
<circle cx="3.25879" cy="1.59266" r="0.5" fill="rgb(0,0,0)" />
<circle cx="13.8423" cy="3.68807" r="0.5" fill="rgb(0,0,0)" />
<circle cx="10.5109" cy="3.78318" r="0.5" fill="rgb(0,0,0)" />
<circle cx="15.4369" cy="3.75186" r="0.5" fill="rgb(0,0,0)" />
<circle cx="1.54214" cy="3.6937" r="0.5" fill="rgb(0,0,0)" />
<circle cx="6.39971" cy="3.8788" r="0.5" fill="rgb(0,0,0)" />
<circle cx="8.33771" cy="3.76421" r="0.5" fill="rgb(0,0,0)" />
<circle cx="17.6493" cy="3.90512" r="0.5" fill="rgb(0,0,0)" />
<circle cx="7.4376" cy="3.84167" r="0.5" fill="rgb(0,0,0)" />
<circle cx="11.6376" cy="3.80467" r="0.5" fill="rgb(0,0,0)" />
<circle cx="13.7852" cy="4.41974" r="0.5" fill="rgb(0,0,0)" />
<circle cx="16.7418" cy="4.39934" r="0.5" fill="rgb(0,0,0)" />
<circle cx="6.78774" cy="4.59044" r="0.5" fill="rgb(0,0,0)" />
<circle cx="4.16012" cy="2.48037" r="0.5" fill="rgb(0,0,0)" />
<circle cx="3.79925" cy="4.52055" r="0.5" fill="rgb(0,0,0)" />
<circle cx="10.8038" cy="4.74422" r="0.5" fill="rgb(0,0,0)" />
<circle cx="1.23378" cy="4.7858" r="0.5" fill="rgb(0,0,0)" />
<circle cx="13.1149" cy="4.75587" r="0.5" fill="rgb(0,0,0)" />
<circle cx="5.89667" cy="5.1131" r="0.5" fill="rgb(0,0,0)" />
<circle cx="17.499" cy="4.97162" r="0.5" fill="rgb(0,0,0)" />
<circle cx="2.26751" cy="4.84205" r="0.5" fill="rgb(0,0,0)" />
<circle cx="7.9715" cy="4.90319" r="0.5" fill="rgb(0,0,0)" />
<circle cx="13.9972" cy="5.19806" r="0.5" fill="rgb(0,0,0)" />
<circle cx="1.59304" cy="5.65195" r="0.5" fill="rgb(0,0,0)" />
<circle cx="4.9028" cy="5.88552" r="0.5" fill="rgb(0,0,0)" />
<circle cx="6.83981" cy="5.52217" r="0.5" fill="rgb(0,0,0)" />
<circle cx="8.74222" cy="5.83201" r="0.5" fill="rgb(0,0,0)" />
<circle cx="12.6665" cy="3.58648" r="0.5" fill="rgb(0,0,0)" />
<circle cx="14.4804" cy="5.79297" r="0.5" fill="rgb(0,0,0)" />
<circle cx="3.12446" cy="5.41541" r="0.5" fill="rgb(0,0,0)" />
<circle cx="5.50582" cy="4.54106" r="0.5" fill="rgb(0,0,0)" />
<circle cx="0.518874" cy="3.52853" r="0.5" fill="rgb(0,0,0)" />
<circle cx="10.7877" cy="5.80941" r="0.5" fill="rgb(0,0,0)" />
<circle cx="12.9624" cy="5.90331" r="0.5" fill="rgb(0,0,0)" />
<circle cx="7.55186" cy="6.08674" r="0.5" fill="rgb(0,0,0)" />
<circle cx="18.3148" cy="5.65177" r="0.5" fill="rgb(0,0,0)" />
<circle cx="11.7011" cy="5.85986" r="0.5" fill="rgb(0,0,0)" />
<circle cx="2.18848" cy="6.2649" r="0.5" fill="rgb(0,0,0)" />
<circle cx="3.69851" cy="6.16068" r="0.5" fill="rgb(0,0,0)" />
<circle cx="17.3031" cy="1.86004" r="0.5" fill="rgb(0,0,0)" />
<circle cx="10.4961" cy="6.58586" r="0.5" fill="rgb(0,0,0)" />
<circle cx="6.1227" cy="6.49208" r="0.5" fill="rgb(0,0,0)" />
<circle cx="5.21995" cy="6.65421" r="0.5" fill="rgb(0,0,0)" />
<circle cx="5.31252" cy="3.65702" r="0.5" fill="rgb(0,0,0)" />
<circle cx="17.035" cy="6.62741" r="0.5" fill="rgb(0,0,0)" />
<circle cx="8.55366" cy="6.91634" r="0.5" fill="rgb(0,0,0)" />
<circle cx="7.66691" cy="7.1416" r="0.5" fill="rgb(0,0,0)" />
<circle cx="13.5272" cy="0.316728" r="0.5" fill="rgb(0,0,0)" />
<circle cx="1.61853" cy="7.19201" r="0.5" fill="rgb(0,0,0)" />
<circle cx="18.0874" cy="7.11418" r="0.5" fill="rgb(0,0,0)" />
<circle cx="5.39629" cy="7.50005" r="0.5" fill="rgb(0,0,0)" />
<circle cx="12.3984" cy="7.09803" r="0.5" fill="rgb(0,0,0)" />
<circle cx="16.3164" cy="5.58308" r="0.5" fill="rgb(0,0,0)" />
<circle cx="10.1487" cy="7.49049" r="0.5" fill="rgb(0,0,0)" />
<circle cx="11.2312" cy="7.35535" r="0.5" fill="rgb(0,0,0)" />
<circle cx="15.8462" cy="4.41958" r="0.5" fill="rgb(0,0,0)" />
<circle cx="7.91473" cy="8.09225" r="0.5" fill="rgb(0,0,0)" />
<circle cx="3.42016" cy="7.8846" r="0.5" fill="rgb(0,0,0)" />
<circle cx="17.0593" cy="7.64874" r="0.5" fill="rgb(0,0,0)" />
<circle cx="6.03992" cy="8.17586" r="0.5" fill="rgb(0,0,0)" />
<circle cx="1.0953" cy="7.95648" r="0.5" fill="rgb(0,0,0)" />
<circle cx="8.71074" cy="8.08253" r="0.5" fill="rgb(0,0,0)" />
<circle cx="1.93751" cy="8.34581" r="0.5" fill="rgb(0,0,0)" />
<circle cx="2.82091" cy="8.45781" r="0.5" fill="rgb(0,0,0)" />
<circle cx="15.7388" cy="8.235" r="0.5" fill="rgb(0,0,0)" />
<circle cx="11.8555" cy="8.23817" r="0.5" fill="rgb(0,0,0)" />
<circle cx="4.09123" cy="8.62204" r="0.5" fill="rgb(0,0,0)" />
<circle cx="14.649" cy="8.62964" r="0.5" fill="rgb(0,0,0)" />
<circle cx="5.1129" cy="8.54633" r="0.5" fill="rgb(0,0,0)" />
<circle cx="10.2372" cy="8.53648" r="0.5" fill="rgb(0,0,0)" />
<circle cx="6.71358" cy="0.289923" r="0.5" fill="rgb(0,0,0)" />
<circle cx="8.22595" cy="8.8345" r="0.5" fill="rgb(0,0,0)" />
<circle cx="7.32822" cy="9.00788" r="0.5" fill="rgb(0,0,0)" />
<circle cx="6.23265" cy="9.058" r="0.5" fill="rgb(0,0,0)" />
<circle cx="15.3333" cy="9.10644" r="0.5" fill="rgb(0,0,0)" />
<circle cx="8.70123" cy="9.26" r="0.5" fill="rgb(0,0,0)" />
<circle cx="3.41489" cy="9.35197" r="0.5" fill="rgb(0,0,0)" />
<circle cx="2.45886" cy="9.27136" r="0.5" fill="rgb(0,0,0)" />
<circle cx="4.11502" cy="9.56458" r="0.5" fill="rgb(0,0,0)" />
<circle cx="1.41426" cy="9.23816" r="0.5" fill="rgb(0,0,0)" />
<circle cx="17.0689" cy="9.26805" r="0.5" fill="rgb(0,0,0)" />
<circle cx="14.6641" cy="7.68284" r="0.5" fill="rgb(0,0,0)" />
<circle cx="4.99079" cy="9.49611" r="0.5" fill="rgb(0,0,0)" />
<circle cx="7.27603" cy="9.80842" r="0.5" fill="rgb(0,0,0)" />
<circle cx="15.9886" cy="9.59866" r="0.5" fill="rgb(0,0,0)" />
<circle cx="9.82989" cy="9.37834" r="0.5" fill="rgb(0,0,0)" />
<circle cx="9.14775" cy="9.88771" r="0.5" fill="rgb(0,0,0)" />
<circle cx="2.82044" cy="9.88205" r="0.5" fill="rgb(0,0,0)" />
<circle cx="8.11101" cy="9.93017" r="0.5" fill="rgb(0,0,0)" />
<circle cx="5.60897" cy="10.003" r="0.5" fill="rgb(0,0,0)" />
<circle cx="14.6811" cy="9.88452" r="0.5" fill="rgb(0,0,0)" />
<circle cx="4.60851" cy="10.2646" r="0.5" fill="rgb(0,0,0)" />
<circle cx="3.77599" cy="10.2119" r="0.5" fill="rgb(0,0,0)" />
<circle cx="1.82844" cy="10.1133" r="0.5" fill="rgb(0,0,0)" />
<circle cx="12.9036" cy="9.83935" r="0.5" fill="rgb(0,0,0)" />
<circle cx="3.21068" cy="10.5372" r="0.5" fill="rgb(0,0,0)" />
<circle cx="8.52699" cy="10.8071" r="0.5" fill="rgb(0,0,0)" />
<circle cx="12.9878" cy="2.7645" r="0.5" fill="rgb(0,0,0)" />
<circle cx="17.1457" cy="10.5015" r="0.5" fill="rgb(0,0,0)" />
<circle cx="12.4924" cy="8.99771" r="0.5" fill="rgb(0,0,0)" />
<circle cx="15.7579" cy="10.6332" r="0.5" fill="rgb(0,0,0)" />
<circle cx="7.55153" cy="0.90859" r="0.5" fill="rgb(0,0,0)" />
<circle cx="11.946" cy="10.4211" r="0.5" fill="rgb(0,0,0)" />
<circle cx="4.46928" cy="11.0679" r="0.5" fill="rgb(0,0,0)" />
<circle cx="14.1734" cy="10.9577" r="0.5" fill="rgb(0,0,0)" />
<circle cx="10.7703" cy="10.6779" r="0.5" fill="rgb(0,0,0)" />
<circle cx="1.17314" cy="10.9111" r="0.5" fill="rgb(0,0,0)" />
<circle cx="6.89045" cy="2.10931" r="0.5" fill="rgb(0,0,0)" />
<circle cx="8.12508" cy="11.5157" r="0.5" fill="rgb(0,0,0)" />
<circle cx="14.9798" cy="11.358" r="0.5" fill="rgb(0,0,0)" />
<circle cx="12.1061" cy="4.78314" r="0.5" fill="rgb(0,0,0)" />
<circle cx="9.42768" cy="11.6298" r="0.5" fill="rgb(0,0,0)" />
<circle cx="6.30881" cy="11.637" r="0.5" fill="rgb(0,0,0)" />
<circle cx="13.6072" cy="11.9852" r="0.5" fill="rgb(0,0,0)" />
<circle cx="12.4209" cy="11.6124" r="0.5" fill="rgb(0,0,0)" />
<circle cx="8.31942" cy="12.1835" r="0.5" fill="rgb(0,0,0)" />
<circle cx="7.28633" cy="11.8424" r="0.5" fill="rgb(0,0,0)" />
<circle cx="16.7648" cy="8.40687" r="0.5" fill="rgb(0,0,0)" />
<circle cx="2.08638" cy="11.8307" r="0.5" fill="rgb(0,0,0)" />
<circle cx="9.89361" cy="5.56829" r="0.5" fill="rgb(0,0,0)" />
<circle cx="7.45778" cy="10.8431" r="0.5" fill="rgb(0,0,0)" />
<circle cx="4.2745" cy="12.0596" r="0.5" fill="rgb(0,0,0)" />
<circle cx="10.805" cy="12.0408" r="0.5" fill="rgb(0,0,0)" />
<circle cx="6.16498" cy="1.71174" r="0.5" fill="rgb(0,0,0)" />
<circle cx="16.7197" cy="11.8233" r="0.5" fill="rgb(0,0,0)" />
<circle cx="15.815" cy="12.1222" r="0.5" fill="rgb(0,0,0)" />
<circle cx="15.0078" cy="12.5296" r="0.5" fill="rgb(0,0,0)" />
<circle cx="12.5391" cy="2.31204" r="0.5" fill="rgb(0,0,0)" />
<circle cx="1.43757" cy="12.4516" r="0.5" fill="rgb(0,0,0)" />
<circle cx="9.56204" cy="12.5912" r="0.5" fill="rgb(0,0,0)" />
<circle cx="3.13822" cy="12.4077" r="0.5" fill="rgb(0,0,0)" />
<circle cx="14.2399" cy="12.8201" r="0.5" fill="rgb(0,0,0)" />
<circle cx="6.84906" cy="12.6445" r="0.5" fill="rgb(0,0,0)" />
<circle cx="5.5342" cy="11.1372" r="0.5" fill="rgb(0,0,0)" />
<circle cx="18.1273" cy="12.7813" r="0.5" fill="rgb(0,0,0)" />
<circle cx="13.4946" cy="13.1336" r="0.5" fill="rgb(0,0,0)" />
<circle cx="6.15845" cy="13.1908" r="0.5" fill="rgb(0,0,0)" />
<circle cx="9.82377" cy="4.47519" r="0.5" fill="rgb(0,0,0)" />
<circle cx="8.28931" cy="13.0093" r="0.5" fill="rgb(0,0,0)" />
<circle cx="18.0559" cy="2.60064" r="0.5" fill="rgb(0,0,0)" />
<circle cx="15.033" cy="4.87885" r="0.5" fill="rgb(0,0,0)" />
<circle cx="10.4378" cy="13.2681" r="0.5" fill="rgb(0,0,0)" />
<circle cx="15.6369" cy="6.04287" r="0.5" fill="rgb(0,0,0)" />
<circle cx="3.96497" cy="13.2886" r="0.5" fill="rgb(0,0,0)" />
<circle cx="17.2057" cy="13.2928" r="0.5" fill="rgb(0,0,0)" />
<circle cx="6.72928" cy="1.16215" r="0.5" fill="rgb(0,0,0)" />
<circle cx="4.26645" cy="6.62932" r="0.5" fill="rgb(0,0,0)" />
<circle cx="15.3626" cy="13.5328" r="0.5" fill="rgb(0,0,0)" />
<circle cx="16.6497" cy="3.50324" r="0.5" fill="rgb(0,0,0)" />
<circle cx="14.5221" cy="13.6044" r="0.5" fill="rgb(0,0,0)" />
<circle cx="11.1262" cy="9.24602" r="0.5" fill="rgb(0,0,0)" />
<circle cx="11.5759" cy="13.0453" r="0.5" fill="rgb(0,0,0)" />
<circle cx="1.10251" cy="13.4977" r="0.5" fill="rgb(0,0,0)" />
<circle cx="2.44681" cy="13.3654" r="0.5" fill="rgb(0,0,0)" />
<circle cx="5.8483" cy="5.86786" r="0.5" fill="rgb(0,0,0)" />
<circle cx="9.37253" cy="8.03256" r="0.5" fill="rgb(0,0,0)" />
<circle cx="4.83994" cy="13.6879" r="0.5" fill="rgb(0,0,0)" />
<circle cx="9.19401" cy="13.6792" r="0.5" fill="rgb(0,0,0)" />
<circle cx="7.58057" cy="13.7313" r="0.5" fill="rgb(0,0,0)" />
<circle cx="16.2364" cy="13.4795" r="0.5" fill="rgb(0,0,0)" />
<circle cx="5.52361" cy="14.1459" r="0.5" fill="rgb(0,0,0)" />
<circle cx="6.55431" cy="14.2196" r="0.5" fill="rgb(0,0,0)" />
<circle cx="6.68035" cy="6.82915" r="0.5" fill="rgb(0,0,0)" />
<circle cx="14.3672" cy="14.4355" r="0.5" fill="rgb(0,0,0)" />
<circle cx="17.8529" cy="1.08702" r="0.5" fill="rgb(0,0,0)" />
<circle cx="15.5454" cy="14.4997" r="0.5" fill="rgb(0,0,0)" />
<circle cx="14.5903" cy="6.67467" r="0.5" fill="rgb(0,0,0)" />
<circle cx="8.44803" cy="14.3911" r="0.5" fill="rgb(0,0,0)" />
<circle cx="17.1101" cy="14.2444" r="0.5" fill="rgb(0,0,0)" />
<circle cx="1.74949" cy="14.3855" r="0.5" fill="rgb(0,0,0)" />
<circle cx="4.75329" cy="4.37472" r="0.5" fill="rgb(0,0,0)" />
<circle cx="12.4989" cy="14.4087" r="0.5" fill="rgb(0,0,0)" />
<circle cx="3.22568" cy="14.178" r="0.5" fill="rgb(0,0,0)" />
<circle cx="4.96884" cy="14.9784" r="0.5" fill="rgb(0,0,0)" />
<circle cx="10.0869" cy="14.8195" r="0.5" fill="rgb(0,0,0)" />
<circle cx="3.21659" cy="15.1197" r="0.5" fill="rgb(0,0,0)" />
<circle cx="11.0722" cy="14.3882" r="0.5" fill="rgb(0,0,0)" />
<circle cx="13.5692" cy="6.92873" r="0.5" fill="rgb(0,0,0)" />
<circle cx="3.98504" cy="15.1854" r="0.5" fill="rgb(0,0,0)" />
<circle cx="15.9344" cy="0.610192" r="0.5" fill="rgb(0,0,0)" />
<circle cx="5.6354" cy="15.2806" r="0.5" fill="rgb(0,0,0)" />
<circle cx="17.9267" cy="14.8587" r="0.5" fill="rgb(0,0,0)" />
<circle cx="9.04284" cy="15.11" r="0.5" fill="rgb(0,0,0)" />
<circle cx="11.9917" cy="1.68798" r="0.5" fill="rgb(0,0,0)" />
<circle cx="11.551" cy="14.9688" r="0.5" fill="rgb(0,0,0)" />
<circle cx="0.942078" cy="15.2656" r="0.5" fill="rgb(0,0,0)" />
<circle cx="9.67206" cy="3.43926" r="0.5" fill="rgb(0,0,0)" />
<circle cx="2.82602" cy="7.03488" r="0.5" fill="rgb(0,0,0)" />
<circle cx="7.66852" cy="15.1263" r="0.5" fill="rgb(0,0,0)" />
<circle cx="15.073" cy="15.323" r="0.5" fill="rgb(0,0,0)" />
<circle cx="2.42638" cy="15.1781" r="0.5" fill="rgb(0,0,0)" />
<circle cx="1.75514" cy="15.8576" r="0.5" fill="rgb(0,0,0)" />
<circle cx="5.67732" cy="16.0629" r="0.5" fill="rgb(0,0,0)" />
<circle cx="9.10721" cy="4.98404" r="0.5" fill="rgb(0,0,0)" />
<circle cx="4.73773" cy="15.8043" r="0.5" fill="rgb(0,0,0)" />
<circle cx="11.9918" cy="15.6742" r="0.5" fill="rgb(0,0,0)" />
<circle cx="12.573" cy="13.1254" r="0.5" fill="rgb(0,0,0)" />
<circle cx="10.1459" cy="15.8674" r="0.5" fill="rgb(0,0,0)" />
<circle cx="4.25915" cy="7.49942" r="0.5" fill="rgb(0,0,0)" />
<circle cx="13.2538" cy="15.8453" r="0.5" fill="rgb(0,0,0)" />
<circle cx="5.18918" cy="12.5031" r="0.5" fill="rgb(0,0,0)" />
<circle cx="7.40746" cy="16.1146" r="0.5" fill="rgb(0,0,0)" />
<circle cx="15.7649" cy="7.02118" r="0.5" fill="rgb(0,0,0)" />
<circle cx="8.8149" cy="16.201" r="0.5" fill="rgb(0,0,0)" />
<circle cx="13.8484" cy="9.0819" r="0.5" fill="rgb(0,0,0)" />
<circle cx="1.29535" cy="16.6097" r="0.5" fill="rgb(0,0,0)" />
<circle cx="3.97924" cy="16.1324" r="0.5" fill="rgb(0,0,0)" />
<circle cx="12.6602" cy="16.4542" r="0.5" fill="rgb(0,0,0)" />
<circle cx="17.2452" cy="16.175" r="0.5" fill="rgb(0,0,0)" />
<circle cx="6.54439" cy="16.5249" r="0.5" fill="rgb(0,0,0)" />
<circle cx="5.5391" cy="16.7542" r="0.5" fill="rgb(0,0,0)" />
<circle cx="0.845847" cy="6.25741" r="0.5" fill="rgb(0,0,0)" />
<circle cx="13.4679" cy="14.1096" r="0.5" fill="rgb(0,0,0)" />
<circle cx="2.09853" cy="16.7952" r="0.5" fill="rgb(0,0,0)" />
<circle cx="15.0903" cy="16.4478" r="0.5" fill="rgb(0,0,0)" />
<circle cx="11.0867" cy="16.533" r="0.5" fill="rgb(0,0,0)" />
<circle cx="14.1868" cy="16.922" r="0.5" fill="rgb(0,0,0)" />
<circle cx="1.37204" cy="17.3537" r="0.5" fill="rgb(0,0,0)" />
<circle cx="15.9053" cy="16.8186" r="0.5" fill="rgb(0,0,0)" />
<circle cx="0.506354" cy="16.9666" r="0.5" fill="rgb(0,0,0)" />
<circle cx="4.41958" cy="16.7983" r="0.5" fill="rgb(0,0,0)" />
<circle cx="10.149" cy="14.0198" r="0.5" fill="rgb(0,0,0)" />
<circle cx="7.75456" cy="17.0295" r="0.5" fill="rgb(0,0,0)" />
<circle cx="6.87115" cy="10.4856" r="0.5" fill="rgb(0,0,0)" />
<circle cx="3.00947" cy="16.7731" r="0.5" fill="rgb(0,0,0)" />
<circle cx="16.9196" cy="17.2036" r="0.5" fill="rgb(0,0,0)" />
<circle cx="12.4168" cy="17.3064" r="0.5" fill="rgb(0,0,0)" />
<circle cx="8.89652" cy="17.3152" r="0.5" fill="rgb(0,0,0)" />
<circle cx="13.3795" cy="17.3832" r="0.5" fill="rgb(0,0,0)" />
<circle cx="1.96128" cy="17.7927" r="0.5" fill="rgb(0,0,0)" />
<circle cx="5.82937" cy="17.4042" r="0.5" fill="rgb(0,0,0)" />
<circle cx="11.6264" cy="2.6481" r="0.5" fill="rgb(0,0,0)" />
<circle cx="9.97104" cy="17.2279" r="0.5" fill="rgb(0,0,0)" />
<circle cx="16.0451" cy="17.8202" r="0.5" fill="rgb(0,0,0)" />
<circle cx="15.1096" cy="17.7887" r="0.5" fill="rgb(0,0,0)" />
<circle cx="10.9056" cy="17.8192" r="0.5" fill="rgb(0,0,0)" />
<circle cx="2.80106" cy="17.7442" r="0.5" fill="rgb(0,0,0)" />
<circle cx="17.6871" cy="17.8949" r="0.5" fill="rgb(0,0,0)" />
<circle cx="9.56658" cy="10.6542" r="0.5" fill="rgb(0,0,0)" />
<circle cx="17.5868" cy="12.2706" r="0.5" fill="rgb(0,0,0)" />
<circle cx="11.6765" cy="17.4539" r="0.5" fill="rgb(0,0,0)" />
<circle cx="7.93706" cy="17.9137" r="0.5" fill="rgb(0,0,0)" />
<circle cx="6.72182" cy="17.6843" r="0.5" fill="rgb(0,0,0)" />
<circle cx="14.6054" cy="4.21745" r="0.5" fill="rgb(0,0,0)" />
<circle cx="16.3308" cy="4.91334" r="0.5" fill="rgb(0,0,0)" />
<circle cx="18.3651" cy="17.0717" r="0.5" fill="rgb(0,0,0)" />
<circle cx="16.3136" cy="15.3662" r="0.5" fill="rgb(0,0,0)" />
<circle cx="4.86978" cy="17.7061" r="0.5" fill="rgb(0,0,0)" />
<circle cx="12.2929" cy="18.2869" r="0.5" fill="rgb(0,0,0)" />
<circle cx="9.64215" cy="2.55855" r="0.5" fill="rgb(0,0,0)" />
<circle cx="15.5099" cy="5.28775" r="0.5" fill="rgb(0,0,0)" />
<circle cx="18.758" cy="18.1584" r="0.5" fill="rgb(0,0,0)" />
<circle cx="18.3057" cy="9.43103" r="0.5" fill="rgb(0,0,0)" />
<circle cx="18.5094" cy="1.78362" r="0.5" fill="rgb(0,0,0)" />
<circle cx="13.4957" cy="18.3961" r="0.5" fill="rgb(0,0,0)" />
<circle cx="18.5618" cy="13.5164" r="0.5" fill="rgb(0,0,0)" />
<circle cx="18.2844" cy="11.2292" r="0.5" fill="rgb(0,0,0)" />
<circle cx="3.60027" cy="3.54802" r="0.5" fill="rgb(0,0,0)" />
<circle cx="7.12559" cy="8.13916" r="0.5" fill="rgb(0,0,0)" />
<circle cx="0.441835" cy="8.65298" r="0.5" fill="rgb(0,0,0)" />
<circle cx="15.2533" cy="2.47923" r="0.5" fill="rgb(0,0,0)" />
<circle cx="9.04366" cy="4.0835" r="0.5" fill="rgb(0,0,0)" />
<circle cx="9.43626" cy="6.68886" r="0.5" fill="rgb(0,0,0)" />
<circle cx="18.4548" cy="15.7575" r="0.5" fill="rgb(0,0,0)" />
<circle cx="4.21778" cy="18.2078" r="0.5" fill="rgb(0,0,0)" />
<circle cx="13.3912" cy="8.06364" r="0.5" fill="rgb(0,0,0)" />
<circle cx="17.9687" cy="18.7067" r="0.5" fill="rgb(0,0,0)" />
<circle cx="17.051" cy="5.78984" r="0.5" fill="rgb(0,0,0)" />
<circle cx="16.9224" cy="18.4537" r="0.5" fill="rgb(0,0,0)" />
<circle cx="18.4918" cy="4.52497" r="0.5" fill="rgb(0,0,0)" />
<circle cx="18.4675" cy="3.29729" r="0.5" fill="rgb(0,0,0)" />
<circle cx="3.49881" cy="11.3682" r="0.5" fill="rgb(0,0,0)" />
<circle cx="14.2469" cy="18.5596" r="0.5" fill="rgb(0,0,0)" />
<circle cx="0.443896" cy="10.0234" r="0.5" fill="rgb(0,0,0)" />
<circle cx="0.434557" cy="11.6251" r="0.5" fill="rgb(0,0,0)" />
<circle cx="0.395984" cy="16.0208" r="0.5" fill="rgb(0,0,0)" />
<circle cx="2.78436" cy="4.01128" r="0.5" fill="rgb(0,0,0)" />
<circle cx="0.546682" cy="2.30193" r="0.5" fill="rgb(0,0,0)" />
<circle cx="1.21358" cy="17.8969" r="0.5" fill="rgb(0,0,0)" />
<circle cx="18.3764" cy="8.10165" r="0.5" fill="rgb(0,0,0)" />
<circle cx="18.5933" cy="6.50828" r="0.5" fill="rgb(0,0,0)" />
<circle cx="10.1285" cy="18.4332" r="0.5" fill="rgb(0,0,0)" />
<circle cx="0.403472" cy="14.4517" r="0.5" fill="rgb(0,0,0)" />
<circle cx="0.328808" cy="12.9595" r="0.5" fill="rgb(0,0,0)" />
<circle cx="16.8668" cy="2.65023" r="0.5" fill="rgb(0,0,0)" />
<circle cx="8.9317" cy="18.4593" r="0.5" fill="rgb(0,0,0)" />
<circle cx="2.33466" cy="3.11783" r="0.5" fill="rgb(0,0,0)" />
<circle cx="4.50417" cy="5.24287" r="0.5" fill="rgb(0,0,0)" />
<circle cx="6.59121" cy="7.60021" r="0.5" fill="rgb(0,0,0)" />
<circle cx="14.3596" cy="17.7544" r="0.5" fill="rgb(0,0,0)" />
<circle cx="15.0086" cy="18.6136" r="0.5" fill="rgb(0,0,0)" />
<circle cx="18.5006" cy="0.446565" r="0.5" fill="rgb(0,0,0)" />
<circle cx="15.9468" cy="18.6169" r="0.5" fill="rgb(0,0,0)" />
<circle cx="13.4717" cy="15.0587" r="0.5" fill="rgb(0,0,0)" />
<circle cx="3.31223" cy="18.4568" r="0.5" fill="rgb(0,0,0)" />
<circle cx="7.51272" cy="18.5749" r="0.5" fill="rgb(0,0,0)" />
<circle cx="5.92662" cy="18.5014" r="0.5" fill="rgb(0,0,0)" />
<circle cx="3.2072" cy="15.9655" r="0.5" fill="rgb(0,0,0)" />
<circle cx="12.7545" cy="18.6304" r="0.5" fill="rgb(0,0,0)" />
<circle cx="6.79661" cy="2.98661" r="0.5" fill="rgb(0,0,0)" />
<circle cx="11.3569" cy="18.5662" r="0.5" fill="rgb(0,0,0)" />
<circle cx="0.327176" cy="7.08003" r="0.5" fill="rgb(0,0,0)" />
<circle cx="0.340112" cy="5.46271" r="0.5" fill="rgb(0,0,0)" />
<circle cx="6.325" cy="10.1258" r="0.5" fill="rgb(0,0,0)" />
<circle cx="0.408776" cy="4.35446" r="0.5" fill="rgb(0,0,0)" />
<circle cx="0.644612" cy="0.663549" r="0.5" fill="rgb(0,0,0)" />
<circle cx="2.49738" cy="11.0166" r="0.5" fill="rgb(0,0,0)" />
<circle cx="18.4173" cy="18.3817" r="0.5" fill="rgb(0,0,0)" />
<circle cx="2.66003" cy="0.4536" r="0.5" fill="rgb(0,0,0)" />
<circle cx="4.28295" cy="14.4691" r="0.5" fill="rgb(0,0,0)" />
<circle cx="0.249456" cy="17.719" r="0.5" fill="rgb(0,0,0)" />
<circle cx="0.365884" cy="18.4809" r="0.5" fill="rgb(0,0,0)" />
<circle cx="2.07064" cy="18.5969" r="0.5" fill="rgb(0,0,0)" />
<circle cx="13.5327" cy="10.3795" r="0.5" fill="rgb(0,0,0)" />
<circle cx="6.57342" cy="15.3139" r="0.5" fill="rgb(0,0,0)" />
<circle cx="14.2598" cy="15.7512" r="0.5" fill="rgb(0,0,0)" />
<circle cx="1.09616" cy="18.5788" r="0.5" fill="rgb(0,0,0)" />
</svg>
