<?xml version="1.0" ?>
<!DOCTYPE svg PUBLIC "-//W3C//DTD SVG 1.1//EN" "http://www.w3.org/Graphics/SVG/1.1/DTD/svg11.dtd">
<svg width="20" height="20" version="1.1" xmlns="http://www.w3.org/2000/svg">
<circle cx="14.3447" cy="0.807032" r="0.5" fill="rgb(0,0,0)" />
<circle cx="9.99987" cy="1.06956" r="0.5" fill="rgb(0,0,0)" />
<circle cx="12.1128" cy="1.51357" r="0.5" fill="rgb(0,0,0)" />
<circle cx="15.9632" cy="2.88481" r="0.5" fill="rgb(0,0,0)" />
<circle cx="13.7167" cy="2.89728" r="0.5" fill="rgb(0,0,0)" />
<circle cx="11.8556" cy="4.3393" r="0.5" fill="rgb(0,0,0)" />
<circle cx="14.8525" cy="4.57232" r="0.5" fill="rgb(0,0,0)" />
<circle cx="9.18976" cy="3.6993" r="0.5" fill="rgb(0,0,0)" />
<circle cx="5.90199" cy="3.71361" r="0.5" fill="rgb(0,0,0)" />
<circle cx="13.6473" cy="6.47528" r="0.5" fill="rgb(0,0,0)" />
<circle cx="10.808" cy="6.67981" r="0.5" fill="rgb(0,0,0)" />
<circle cx="16.7007" cy="5.69294" r="0.5" fill="rgb(0,0,0)" />
<circle cx="3.94619" cy="6.77327" r="0.5" fill="rgb(0,0,0)" />
<circle cx="12.9128" cy="9.32299" r="0.5" fill="rgb(0,0,0)" />
<circle cx="6.15635" cy="9.01162" r="0.5" fill="rgb(0,0,0)" />
<circle cx="10.6903" cy="11.7" r="0.5" fill="rgb(0,0,0)" />
<circle cx="17.236" cy="10.5028" r="0.5" fill="rgb(0,0,0)" />
<circle cx="9.4415" cy="8.98408" r="0.5" fill="rgb(0,0,0)" />
<circle cx="9.81521" cy="14.515" r="0.5" fill="rgb(0,0,0)" />
<circle cx="4.52347" cy="13.4441" r="0.5" fill="rgb(0,0,0)" />
<circle cx="14.2197" cy="15.3089" r="0.5" fill="rgb(0,0,0)" />
<circle cx="15.5383" cy="8.2764" r="0.5" fill="rgb(0,0,0)" />
<circle cx="16.288" cy="15.8662" r="0.5" fill="rgb(0,0,0)" />
<circle cx="15.7667" cy="13.3138" r="0.5" fill="rgb(0,0,0)" />
<circle cx="11.292" cy="16.9988" r="0.5" fill="rgb(0,0,0)" />
<circle cx="3.26709" cy="3.75406" r="0.5" fill="rgb(0,0,0)" />
<circle cx="12.5807" cy="18.1559" r="0.5" fill="rgb(0,0,0)" />
<circle cx="14.1293" cy="17.444" r="0.5" fill="rgb(0,0,0)" />
<circle cx="1.98543" cy="15.2249" r="0.5" fill="rgb(0,0,0)" />
<circle cx="9.10477" cy="17.5676" r="0.5" fill="rgb(0,0,0)" />
<circle cx="17.977" cy="7.60233" r="0.5" fill="rgb(0,0,0)" />
<circle cx="17.9926" cy="3.90531" r="0.5" fill="rgb(0,0,0)" />
<circle cx="18.1239" cy="1.13638" r="0.5" fill="rgb(0,0,0)" />
<circle cx="7.08323" cy="14.9313" r="0.5" fill="rgb(0,0,0)" />
<circle cx="1.19526" cy="12.486" r="0.5" fill="rgb(0,0,0)" />
<circle cx="7.42324" cy="6.16328" r="0.5" fill="rgb(0,0,0)" />
<circle cx="1.09685" cy="17.5533" r="0.5" fill="rgb(0,0,0)" />
<circle cx="6.45864" cy="17.5467" r="0.5" fill="rgb(0,0,0)" />
<circle cx="17.9774" cy="13.2609" r="0.5" fill="rgb(0,0,0)" />
<circle cx="13.9994" cy="11.764" r="0.5" fill="rgb(0,0,0)" />
<circle cx="4.03119" cy="17.3729" r="0.5" fill="rgb(0,0,0)" />
<circle cx="15.7512" cy="18.0294" r="0.5" fill="rgb(0,0,0)" />
<circle cx="1.12865" cy="8.33421" r="0.5" fill="rgb(0,0,0)" />
<circle cx="3.2776" cy="10.3315" r="0.5" fill="rgb(0,0,0)" />
<circle cx="7.26592" cy="11.7458" r="0.5" fill="rgb(0,0,0)" />
<circle cx="1.11718" cy="4.92432" r="0.5" fill="rgb(0,0,0)" />
<circle cx="7.10356" cy="1.19247" r="0.5" fill="rgb(0,0,0)" />
<circle cx="1.14202" cy="1.4825" r="0.5" fill="rgb(0,0,0)" />
<circle cx="3.91742" cy="1.12211" r="0.5" fill="rgb(0,0,0)" />
<circle cx="17.8501" cy="18.0338" r="0.5" fill="rgb(0,0,0)" />
<circle cx="16.4827" cy="1.10698" r="0.5" fill="rgb(0,0,0)" />
<circle cx="12.4226" cy="14.283" r="0.5" fill="rgb(0,0,0)" />
<circle cx="18.0953" cy="16.004" r="0.5" fill="rgb(0,0,0)" />
</svg>
