<?xml version="1.0" ?>
<!DOCTYPE svg PUBLIC "-//W3C//DTD SVG 1.1//EN" "http://www.w3.org/Graphics/SVG/1.1/DTD/svg11.dtd">
<svg width="20" height="20" version="1.1" xmlns="http://www.w3.org/2000/svg">
<circle cx="15.7462" cy="2.69884" r="0.5" fill="rgb(0,0,0)" />
<circle cx="3.29599" cy="3.71529" r="0.5" fill="rgb(0,0,0)" />
<circle cx="11.8577" cy="4.26253" r="0.5" fill="rgb(0,0,0)" />
<circle cx="5.82705" cy="3.57719" r="0.5" fill="rgb(0,0,0)" />
<circle cx="18.1104" cy="1.03052" r="0.5" fill="rgb(0,0,0)" />
<circle cx="7.11659" cy="1.1653" r="0.5" fill="rgb(0,0,0)" />
<circle cx="7.16481" cy="5.91564" r="0.5" fill="rgb(0,0,0)" />
<circle cx="11.0059" cy="6.61604" r="0.5" fill="rgb(0,0,0)" />
<circle cx="3.85418" cy="6.76859" r="0.5" fill="rgb(0,0,0)" />
<circle cx="15.0469" cy="4.33379" r="0.5" fill="rgb(0,0,0)" />
<circle cx="13.2837" cy="8.53586" r="0.5" fill="rgb(0,0,0)" />
<circle cx="15.5931" cy="7.59347" r="0.5" fill="rgb(0,0,0)" />
<circle cx="6.08779" cy="8.92048" r="0.5" fill="rgb(0,0,0)" />
<circle cx="16.9977" cy="9.94046" r="0.5" fill="rgb(0,0,0)" />
<circle cx="10.8747" cy="10.3137" r="0.5" fill="rgb(0,0,0)" />
<circle cx="17.8093" cy="3.32986" r="0.5" fill="rgb(0,0,0)" />
<circle cx="3.14222" cy="10.2747" r="0.5" fill="rgb(0,0,0)" />
<circle cx="12.1961" cy="1.62811" r="0.5" fill="rgb(0,0,0)" />
<circle cx="15.008" cy="12.6636" r="0.5" fill="rgb(0,0,0)" />
<circle cx="12.1988" cy="12.8118" r="0.5" fill="rgb(0,0,0)" />
<circle cx="9.34773" cy="12.8753" r="0.5" fill="rgb(0,0,0)" />
<circle cx="16.6954" cy="14.1717" r="0.5" fill="rgb(0,0,0)" />
<circle cx="14.7321" cy="14.6416" r="0.5" fill="rgb(0,0,0)" />
<circle cx="9.02256" cy="8.26758" r="0.5" fill="rgb(0,0,0)" />
<circle cx="4.51578" cy="13.4272" r="0.5" fill="rgb(0,0,0)" />
<circle cx="10.1713" cy="1.00661" r="0.5" fill="rgb(0,0,0)" />
<circle cx="10.1022" cy="15.2555" r="0.5" fill="rgb(0,0,0)" />
<circle cx="13.6998" cy="5.97888" r="0.5" fill="rgb(0,0,0)" />
<circle cx="12.4708" cy="15.1644" r="0.5" fill="rgb(0,0,0)" />
<circle cx="7.05327" cy="15.0056" r="0.5" fill="rgb(0,0,0)" />
<circle cx="13.9682" cy="16.2436" r="0.5" fill="rgb(0,0,0)" />
<circle cx="16.1608" cy="16.3618" r="0.5" fill="rgb(0,0,0)" />
<circle cx="2.14532" cy="15.3523" r="0.5" fill="rgb(0,0,0)" />
<circle cx="11.2341" cy="17.5249" r="0.5" fill="rgb(0,0,0)" />
<circle cx="14.3112" cy="0.746786" r="0.5" fill="rgb(0,0,0)" />
<circle cx="17.7325" cy="12.1164" r="0.5" fill="rgb(0,0,0)" />
<circle cx="9.20841" cy="3.65431" r="0.5" fill="rgb(0,0,0)" />
<circle cx="18.1807" cy="5.51022" r="0.5" fill="rgb(0,0,0)" />
<circle cx="1.20342" cy="12.5972" r="0.5" fill="rgb(0,0,0)" />
<circle cx="18.1445" cy="15.0906" r="0.5" fill="rgb(0,0,0)" />
<circle cx="12.7436" cy="18.0588" r="0.5" fill="rgb(0,0,0)" />
<circle cx="17.9318" cy="7.89084" r="0.5" fill="rgb(0,0,0)" />
<circle cx="9.00557" cy="17.6157" r="0.5" fill="rgb(0,0,0)" />
<circle cx="1.0764" cy="8.22626" r="0.5" fill="rgb(0,0,0)" />
<circle cx="16.46" cy="1.06205" r="0.5" fill="rgb(0,0,0)" />
<circle cx="14.2346" cy="17.8771" r="0.5" fill="rgb(0,0,0)" />
<circle cx="1.11429" cy="4.83198" r="0.5" fill="rgb(0,0,0)" />
<circle cx="1.04233" cy="17.5072" r="0.5" fill="rgb(0,0,0)" />
<circle cx="6.44983" cy="17.5909" r="0.5" fill="rgb(0,0,0)" />
<circle cx="13.7671" cy="2.87836" r="0.5" fill="rgb(0,0,0)" />
<circle cx="14.1713" cy="10.7189" r="0.5" fill="rgb(0,0,0)" />
<circle cx="4.03942" cy="17.4358" r="0.5" fill="rgb(0,0,0)" />
<circle cx="7.07267" cy="11.4654" r="0.5" fill="rgb(0,0,0)" />
<circle cx="1.09543" cy="1.48031" r="0.5" fill="rgb(0,0,0)" />
<circle cx="3.80957" cy="1.08219" r="0.5" fill="rgb(0,0,0)" />
<circle cx="15.6862" cy="18.1822" r="0.5" fill="rgb(0,0,0)" />
<circle cx="16.4296" cy="5.47652" r="0.5" fill="rgb(0,0,0)" />
<circle cx="17.204" cy="17.9872" r="0.5" fill="rgb(0,0,0)" />
<circle cx="18.3187" cy="17.5023" r="0.5" fill="rgb(0,0,0)" />
</svg>
