<?xml version="1.0" ?>
<!DOCTYPE svg PUBLIC "-//W3C//DTD SVG 1.1//EN" "http://www.w3.org/Graphics/SVG/1.1/DTD/svg11.dtd">
<svg width="20" height="20" version="1.1" xmlns="http://www.w3.org/2000/svg">
<circle cx="6.07731" cy="0.411956" r="0.5" fill="rgb(0,0,0)" />
<circle cx="8.3138" cy="0.534982" r="0.5" fill="rgb(0,0,0)" />
<circle cx="5.53771" cy="1.44604" r="0.5" fill="rgb(0,0,0)" />
<circle cx="14.023" cy="1.70415" r="0.5" fill="rgb(0,0,0)" />
<circle cx="3.79446" cy="1.86104" r="0.5" fill="rgb(0,0,0)" />
<circle cx="6.08229" cy="2.49657" r="0.5" fill="rgb(0,0,0)" />
<circle cx="15.3996" cy="2.44587" r="0.5" fill="rgb(0,0,0)" />
<circle cx="9.16053" cy="1.84062" r="0.5" fill="rgb(0,0,0)" />
<circle cx="14.3507" cy="3.14291" r="0.5" fill="rgb(0,0,0)" />
<circle cx="10.25" cy="2.99296" r="0.5" fill="rgb(0,0,0)" />
<circle cx="3.90938" cy="3.76244" r="0.5" fill="rgb(0,0,0)" />
<circle cx="11.8213" cy="1.82525" r="0.5" fill="rgb(0,0,0)" />
<circle cx="15.1555" cy="3.93906" r="0.5" fill="rgb(0,0,0)" />
<circle cx="6.71435" cy="3.6291" r="0.5" fill="rgb(0,0,0)" />
<circle cx="3.12094" cy="3.02247" r="0.5" fill="rgb(0,0,0)" />
<circle cx="13.2541" cy="3.80002" r="0.5" fill="rgb(0,0,0)" />
<circle cx="2.01675" cy="3.62879" r="0.5" fill="rgb(0,0,0)" />
<circle cx="5.34275" cy="3.98256" r="0.5" fill="rgb(0,0,0)" />
<circle cx="17.5399" cy="4.26148" r="0.5" fill="rgb(0,0,0)" />
<circle cx="6.40218" cy="4.82892" r="0.5" fill="rgb(0,0,0)" />
<circle cx="4.34729" cy="4.81511" r="0.5" fill="rgb(0,0,0)" />
<circle cx="11.7047" cy="4.15562" r="0.5" fill="rgb(0,0,0)" />
<circle cx="10.1128" cy="4.9293" r="0.5" fill="rgb(0,0,0)" />
<circle cx="14.7902" cy="5.21351" r="0.5" fill="rgb(0,0,0)" />
<circle cx="2.6567" cy="4.94652" r="0.5" fill="rgb(0,0,0)" />
<circle cx="5.82505" cy="5.76566" r="0.5" fill="rgb(0,0,0)" />
<circle cx="1.97133" cy="6.04095" r="0.5" fill="rgb(0,0,0)" />
<circle cx="12.8938" cy="2.58062" r="0.5" fill="rgb(0,0,0)" />
<circle cx="17.9318" cy="6.77636" r="0.5" fill="rgb(0,0,0)" />
<circle cx="9.8866" cy="6.56229" r="0.5" fill="rgb(0,0,0)" />
<circle cx="12.594" cy="6.31701" r="0.5" fill="rgb(0,0,0)" />
<circle cx="1.77843" cy="7.18306" r="0.5" fill="rgb(0,0,0)" />
<circle cx="11.2987" cy="6.57621" r="0.5" fill="rgb(0,0,0)" />
<circle cx="14.1685" cy="6.75553" r="0.5" fill="rgb(0,0,0)" />
<circle cx="16.9349" cy="7.3417" r="0.5" fill="rgb(0,0,0)" />
<circle cx="2.57145" cy="8.12944" r="0.5" fill="rgb(0,0,0)" />
<circle cx="15.4059" cy="7.50775" r="0.5" fill="rgb(0,0,0)" />
<circle cx="16.8806" cy="0.582347" r="0.5" fill="rgb(0,0,0)" />
<circle cx="9.05107" cy="7.86496" r="0.5" fill="rgb(0,0,0)" />
<circle cx="6.33279" cy="7.56779" r="0.5" fill="rgb(0,0,0)" />
<circle cx="5.16747" cy="7.9033" r="0.5" fill="rgb(0,0,0)" />
<circle cx="13.3778" cy="5.1021" r="0.5" fill="rgb(0,0,0)" />
<circle cx="10.4272" cy="8.26149" r="0.5" fill="rgb(0,0,0)" />
<circle cx="7.15403" cy="1.36183" r="0.5" fill="rgb(0,0,0)" />
<circle cx="7.20024" cy="8.22003" r="0.5" fill="rgb(0,0,0)" />
<circle cx="16.3348" cy="8.6435" r="0.5" fill="rgb(0,0,0)" />
<circle cx="2.3463" cy="9.08559" r="0.5" fill="rgb(0,0,0)" />
<circle cx="12.1297" cy="8.17344" r="0.5" fill="rgb(0,0,0)" />
<circle cx="3.84623" cy="8.79971" r="0.5" fill="rgb(0,0,0)" />
<circle cx="0.91474" cy="8.16466" r="0.5" fill="rgb(0,0,0)" />
<circle cx="5.22203" cy="9.10319" r="0.5" fill="rgb(0,0,0)" />
<circle cx="8.38047" cy="9.02359" r="0.5" fill="rgb(0,0,0)" />
<circle cx="3.07268" cy="9.8004" r="0.5" fill="rgb(0,0,0)" />
<circle cx="14.6442" cy="9.32148" r="0.5" fill="rgb(0,0,0)" />
<circle cx="11.6638" cy="9.52587" r="0.5" fill="rgb(0,0,0)" />
<circle cx="9.8466" cy="9.59614" r="0.5" fill="rgb(0,0,0)" />
<circle cx="12.7977" cy="0.558512" r="0.5" fill="rgb(0,0,0)" />
<circle cx="1.58111" cy="9.94712" r="0.5" fill="rgb(0,0,0)" />
<circle cx="16.3928" cy="10.2455" r="0.5" fill="rgb(0,0,0)" />
<circle cx="9.09152" cy="10.718" r="0.5" fill="rgb(0,0,0)" />
<circle cx="6.25409" cy="10.4405" r="0.5" fill="rgb(0,0,0)" />
<circle cx="14.9441" cy="0.6037" r="0.5" fill="rgb(0,0,0)" />
<circle cx="13.2361" cy="10.6341" r="0.5" fill="rgb(0,0,0)" />
<circle cx="14.9265" cy="11.0169" r="0.5" fill="rgb(0,0,0)" />
<circle cx="11.421" cy="11.0363" r="0.5" fill="rgb(0,0,0)" />
<circle cx="10.404" cy="12.0276" r="0.5" fill="rgb(0,0,0)" />
<circle cx="14.3308" cy="12.4295" r="0.5" fill="rgb(0,0,0)" />
<circle cx="16.3077" cy="12.09" r="0.5" fill="rgb(0,0,0)" />
<circle cx="12.5459" cy="12.4707" r="0.5" fill="rgb(0,0,0)" />
<circle cx="4.54777" cy="12.0645" r="0.5" fill="rgb(0,0,0)" />
<circle cx="7.90652" cy="2.76421" r="0.5" fill="rgb(0,0,0)" />
<circle cx="9.07324" cy="12.4993" r="0.5" fill="rgb(0,0,0)" />
<circle cx="15.6406" cy="13.284" r="0.5" fill="rgb(0,0,0)" />
<circle cx="6.30998" cy="12.4833" r="0.5" fill="rgb(0,0,0)" />
<circle cx="14.0857" cy="13.9293" r="0.5" fill="rgb(0,0,0)" />
<circle cx="3.49216" cy="13.8547" r="0.5" fill="rgb(0,0,0)" />
<circle cx="5.81877" cy="13.8204" r="0.5" fill="rgb(0,0,0)" />
<circle cx="4.68163" cy="10.4126" r="0.5" fill="rgb(0,0,0)" />
<circle cx="0.497409" cy="6.80377" r="0.5" fill="rgb(0,0,0)" />
<circle cx="7.47402" cy="10.0774" r="0.5" fill="rgb(0,0,0)" />
<circle cx="0.685855" cy="5.15651" r="0.5" fill="rgb(0,0,0)" />
<circle cx="1.70683" cy="14.6178" r="0.5" fill="rgb(0,0,0)" />
<circle cx="4.18991" cy="0.597191" r="0.5" fill="rgb(0,0,0)" />
<circle cx="1.96602" cy="2.03649" r="0.5" fill="rgb(0,0,0)" />
<circle cx="15.0152" cy="15.1266" r="0.5" fill="rgb(0,0,0)" />
<circle cx="16.9776" cy="5.62263" r="0.5" fill="rgb(0,0,0)" />
<circle cx="15.7173" cy="6.06666" r="0.5" fill="rgb(0,0,0)" />
<circle cx="4.96729" cy="14.8486" r="0.5" fill="rgb(0,0,0)" />
<circle cx="5.90449" cy="15.6617" r="0.5" fill="rgb(0,0,0)" />
<circle cx="16.3011" cy="1.71003" r="0.5" fill="rgb(0,0,0)" />
<circle cx="16.4358" cy="15.492" r="0.5" fill="rgb(0,0,0)" />
<circle cx="4.19495" cy="15.6946" r="0.5" fill="rgb(0,0,0)" />
<circle cx="4.32037" cy="6.14583" r="0.5" fill="rgb(0,0,0)" />
<circle cx="2.94703" cy="15.6767" r="0.5" fill="rgb(0,0,0)" />
<circle cx="11.5099" cy="15.3446" r="0.5" fill="rgb(0,0,0)" />
<circle cx="7.51381" cy="15.566" r="0.5" fill="rgb(0,0,0)" />
<circle cx="10.1754" cy="15.0917" r="0.5" fill="rgb(0,0,0)" />
<circle cx="12.4607" cy="16.3253" r="0.5" fill="rgb(0,0,0)" />
<circle cx="4.47869" cy="16.8381" r="0.5" fill="rgb(0,0,0)" />
<circle cx="9.19967" cy="16.3733" r="0.5" fill="rgb(0,0,0)" />
<circle cx="18.0141" cy="1.88027" r="0.5" fill="rgb(0,0,0)" />
<circle cx="14.0379" cy="17.0087" r="0.5" fill="rgb(0,0,0)" />
<circle cx="16.0645" cy="14.2699" r="0.5" fill="rgb(0,0,0)" />
<circle cx="16.5366" cy="16.9949" r="0.5" fill="rgb(0,0,0)" />
<circle cx="7.71036" cy="12.249" r="0.5" fill="rgb(0,0,0)" />
<circle cx="5.66419" cy="17.3075" r="0.5" fill="rgb(0,0,0)" />
<circle cx="13.272" cy="15.1644" r="0.5" fill="rgb(0,0,0)" />
<circle cx="12.8163" cy="17.4466" r="0.5" fill="rgb(0,0,0)" />
<circle cx="1.64358" cy="17.6587" r="0.5" fill="rgb(0,0,0)" />
<circle cx="8.21257" cy="17.4769" r="0.5" fill="rgb(0,0,0)" />
<circle cx="8.35728" cy="14.2645" r="0.5" fill="rgb(0,0,0)" />
<circle cx="15.2863" cy="17.7949" r="0.5" fill="rgb(0,0,0)" />
<circle cx="7.00306" cy="17.7166" r="0.5" fill="rgb(0,0,0)" />
<circle cx="2.92338" cy="17.1442" r="0.5" fill="rgb(0,0,0)" />
<circle cx="17.2167" cy="17.8911" r="0.5" fill="rgb(0,0,0)" />
<circle cx="0.454395" cy="9.33815" r="0.5" fill="rgb(0,0,0)" />
<circle cx="0.841236" cy="11.2568" r="0.5" fill="rgb(0,0,0)" />
<circle cx="5.93728" cy="6.71179" r="0.5" fill="rgb(0,0,0)" />
<circle cx="7.47064" cy="5.90038" r="0.5" fill="rgb(0,0,0)" />
<circle cx="1.64447" cy="16.4016" r="0.5" fill="rgb(0,0,0)" />
<circle cx="11.2497" cy="17.5969" r="0.5" fill="rgb(0,0,0)" />
<circle cx="17.9376" cy="13.3908" r="0.5" fill="rgb(0,0,0)" />
<circle cx="16.7364" cy="3.16717" r="0.5" fill="rgb(0,0,0)" />
<circle cx="14.1092" cy="15.8129" r="0.5" fill="rgb(0,0,0)" />
<circle cx="4.53775" cy="18.1856" r="0.5" fill="rgb(0,0,0)" />
<circle cx="18.3645" cy="0.609882" r="0.5" fill="rgb(0,0,0)" />
<circle cx="18.3082" cy="3.12338" r="0.5" fill="rgb(0,0,0)" />
<circle cx="2.57869" cy="12.304" r="0.5" fill="rgb(0,0,0)" />
<circle cx="12.6718" cy="18.5339" r="0.5" fill="rgb(0,0,0)" />
<circle cx="10.6998" cy="13.4756" r="0.5" fill="rgb(0,0,0)" />
<circle cx="15.9612" cy="18.5346" r="0.5" fill="rgb(0,0,0)" />
<circle cx="9.98857" cy="17.9763" r="0.5" fill="rgb(0,0,0)" />
<circle cx="0.822637" cy="13.2597" r="0.5" fill="rgb(0,0,0)" />
<circle cx="15.3065" cy="16.478" r="0.5" fill="rgb(0,0,0)" />
<circle cx="18.0122" cy="11.4652" r="0.5" fill="rgb(0,0,0)" />
<circle cx="18.0299" cy="9.61775" r="0.5" fill="rgb(0,0,0)" />
<circle cx="0.598009" cy="3.3846" r="0.5" fill="rgb(0,0,0)" />
<circle cx="18.4005" cy="4.82577" r="0.5" fill="rgb(0,0,0)" />
<circle cx="8.38021" cy="6.6395" r="0.5" fill="rgb(0,0,0)" />
<circle cx="12.4318" cy="14.0789" r="0.5" fill="rgb(0,0,0)" />
<circle cx="3.22839" cy="18.36" r="0.5" fill="rgb(0,0,0)" />
<circle cx="3.10175" cy="10.868" r="0.5" fill="rgb(0,0,0)" />
<circle cx="18.2421" cy="8.08716" r="0.5" fill="rgb(0,0,0)" />
<circle cx="18.4463" cy="6.07755" r="0.5" fill="rgb(0,0,0)" />
<circle cx="18.2482" cy="15.9937" r="0.5" fill="rgb(0,0,0)" />
<circle cx="8.38202" cy="18.5483" r="0.5" fill="rgb(0,0,0)" />
<circle cx="16.1981" cy="4.54248" r="0.5" fill="rgb(0,0,0)" />
<circle cx="6.07873" cy="18.4848" r="0.5" fill="rgb(0,0,0)" />
<circle cx="14.2082" cy="18.3052" r="0.5" fill="rgb(0,0,0)" />
<circle cx="0.481438" cy="15.7375" r="0.5" fill="rgb(0,0,0)" />
<circle cx="10.5317" cy="0.702526" r="0.5" fill="rgb(0,0,0)" />
<circle cx="4.86729" cy="2.74377" r="0.5" fill="rgb(0,0,0)" />
<circle cx="3.48218" cy="7.10889" r="0.5" fill="rgb(0,0,0)" />
<circle cx="0.574523" cy="1.15118" r="0.5" fill="rgb(0,0,0)" />
<circle cx="8.39595" cy="4.40184" r="0.5" fill="rgb(0,0,0)" />
<circle cx="2.14341" cy="0.579926" r="0.5" fill="rgb(0,0,0)" />
<circle cx="13.6165" cy="8.29414" r="0.5" fill="rgb(0,0,0)" />
<circle cx="1.63059" cy="18.592" r="0.5" fill="rgb(0,0,0)" />
<circle cx="0.449852" cy="17.9427" r="0.5" fill="rgb(0,0,0)" />
<circle cx="17.7453" cy="14.9145" r="0.5" fill="rgb(0,0,0)" />
<circle cx="18.1385" cy="18.5196" r="0.5" fill="rgb(0,0,0)" />
<circle cx="6.69223" cy="16.4861" r="0.5" fill="rgb(0,0,0)" />
<circle cx="18.3542" cy="17.296" r="0.5" fill="rgb(0,0,0)" />
</svg>
