<?xml version="1.0" ?>
<!DOCTYPE svg PUBLIC "-//W3C//DTD SVG 1.1//EN" "http://www.w3.org/Graphics/SVG/1.1/DTD/svg11.dtd">
<svg width="20" height="20" version="1.1" xmlns="http://www.w3.org/2000/svg">
<circle cx="16.5379" cy="1.68172" r="0.5" fill="rgb(0,0,0)" />
<circle cx="12.7769" cy="1.75196" r="0.5" fill="rgb(0,0,0)" />
<circle cx="5.67256" cy="1.26616" r="0.5" fill="rgb(0,0,0)" />
<circle cx="8.2971" cy="1.10046" r="0.5" fill="rgb(0,0,0)" />
<circle cx="17.1387" cy="3.77172" r="0.5" fill="rgb(0,0,0)" />
<circle cx="15.2226" cy="4.13043" r="0.5" fill="rgb(0,0,0)" />
<circle cx="13.0748" cy="4.1878" r="0.5" fill="rgb(0,0,0)" />
<circle cx="3.28255" cy="3.45328" r="0.5" fill="rgb(0,0,0)" />
<circle cx="9.11484" cy="3.29825" r="0.5" fill="rgb(0,0,0)" />
<circle cx="11.2747" cy="3.90035" r="0.5" fill="rgb(0,0,0)" />
<circle cx="16.4462" cy="5.16564" r="0.5" fill="rgb(0,0,0)" />
<circle cx="5.5835" cy="3.77303" r="0.5" fill="rgb(0,0,0)" />
<circle cx="14.26" cy="5.57034" r="0.5" fill="rgb(0,0,0)" />
<circle cx="12.3992" cy="6.50798" r="0.5" fill="rgb(0,0,0)" />
<circle cx="3.4192" cy="6.3843" r="0.5" fill="rgb(0,0,0)" />
<circle cx="16.2326" cy="6.69452" r="0.5" fill="rgb(0,0,0)" />
<circle cx="14.908" cy="7.44626" r="0.5" fill="rgb(0,0,0)" />
<circle cx="7.88468" cy="7.34225" r="0.5" fill="rgb(0,0,0)" />
<circle cx="5.44984" cy="7.5715" r="0.5" fill="rgb(0,0,0)" />
<circle cx="13.6331" cy="8.81307" r="0.5" fill="rgb(0,0,0)" />
<circle cx="9.17482" cy="9.22846" r="0.5" fill="rgb(0,0,0)" />
<circle cx="6.47173" cy="10.0668" r="0.5" fill="rgb(0,0,0)" />
<circle cx="16.0424" cy="9.64624" r="0.5" fill="rgb(0,0,0)" />
<circle cx="11.1863" cy="11.0126" r="0.5" fill="rgb(0,0,0)" />
<circle cx="3.97536" cy="11.7162" r="0.5" fill="rgb(0,0,0)" />
<circle cx="12.5342" cy="12.4978" r="0.5" fill="rgb(0,0,0)" />
<circle cx="8.52845" cy="11.7375" r="0.5" fill="rgb(0,0,0)" />
<circle cx="14.0942" cy="2.64904" r="0.5" fill="rgb(0,0,0)" />
<circle cx="14.931" cy="12.9494" r="0.5" fill="rgb(0,0,0)" />
<circle cx="12.6827" cy="14.1462" r="0.5" fill="rgb(0,0,0)" />
<circle cx="9.80791" cy="13.3817" r="0.5" fill="rgb(0,0,0)" />
<circle cx="16.317" cy="14.3474" r="0.5" fill="rgb(0,0,0)" />
<circle cx="6.32298" cy="13.0029" r="0.5" fill="rgb(0,0,0)" />
<circle cx="14.845" cy="14.9316" r="0.5" fill="rgb(0,0,0)" />
<circle cx="17.8566" cy="14.5424" r="0.5" fill="rgb(0,0,0)" />
<circle cx="10.656" cy="15.1778" r="0.5" fill="rgb(0,0,0)" />
<circle cx="3.77273" cy="14.4471" r="0.5" fill="rgb(0,0,0)" />
<circle cx="11.1397" cy="0.923948" r="0.5" fill="rgb(0,0,0)" />
<circle cx="12.6944" cy="15.6904" r="0.5" fill="rgb(0,0,0)" />
<circle cx="14.1685" cy="16.1238" r="0.5" fill="rgb(0,0,0)" />
<circle cx="7.91611" cy="15.2615" r="0.5" fill="rgb(0,0,0)" />
<circle cx="5.57999" cy="15.7987" r="0.5" fill="rgb(0,0,0)" />
<circle cx="16.0444" cy="16.5527" r="0.5" fill="rgb(0,0,0)" />
<circle cx="1.0948" cy="4.1663" r="0.5" fill="rgb(0,0,0)" />
<circle cx="12.0839" cy="17.1052" r="0.5" fill="rgb(0,0,0)" />
<circle cx="11.5022" cy="8.76699" r="0.5" fill="rgb(0,0,0)" />
<circle cx="17.5469" cy="12.1876" r="0.5" fill="rgb(0,0,0)" />
<circle cx="18.0005" cy="9.64013" r="0.5" fill="rgb(0,0,0)" />
<circle cx="14.1813" cy="17.8492" r="0.5" fill="rgb(0,0,0)" />
<circle cx="2.64632" cy="17.2251" r="0.5" fill="rgb(0,0,0)" />
<circle cx="15.6119" cy="2.64168" r="0.5" fill="rgb(0,0,0)" />
<circle cx="12.3104" cy="18.4157" r="0.5" fill="rgb(0,0,0)" />
<circle cx="15.719" cy="18.2702" r="0.5" fill="rgb(0,0,0)" />
<circle cx="17.2059" cy="17.8914" r="0.5" fill="rgb(0,0,0)" />
<circle cx="0.863246" cy="17.8682" r="0.5" fill="rgb(0,0,0)" />
<circle cx="1.16579" cy="15.3769" r="0.5" fill="rgb(0,0,0)" />
<circle cx="7.06247" cy="5.14004" r="0.5" fill="rgb(0,0,0)" />
<circle cx="18.4009" cy="17.8805" r="0.5" fill="rgb(0,0,0)" />
<circle cx="18.1408" cy="16.0602" r="0.5" fill="rgb(0,0,0)" />
<circle cx="10.0704" cy="17.4057" r="0.5" fill="rgb(0,0,0)" />
<circle cx="8.32699" cy="17.8669" r="0.5" fill="rgb(0,0,0)" />
<circle cx="6.36718" cy="17.8423" r="0.5" fill="rgb(0,0,0)" />
<circle cx="10.0055" cy="6.20631" r="0.5" fill="rgb(0,0,0)" />
<circle cx="4.22208" cy="17.8203" r="0.5" fill="rgb(0,0,0)" />
<circle cx="3.51214" cy="9.40323" r="0.5" fill="rgb(0,0,0)" />
<circle cx="1.27845" cy="12.759" r="0.5" fill="rgb(0,0,0)" />
<circle cx="1.12081" cy="8.15803" r="0.5" fill="rgb(0,0,0)" />
<circle cx="1.03632" cy="6.20884" r="0.5" fill="rgb(0,0,0)" />
<circle cx="0.92366" cy="1.50894" r="0.5" fill="rgb(0,0,0)" />
<circle cx="17.9092" cy="7.22397" r="0.5" fill="rgb(0,0,0)" />
<circle cx="3.07222" cy="0.960234" r="0.5" fill="rgb(0,0,0)" />
<circle cx="18.2473" cy="5.08518" r="0.5" fill="rgb(0,0,0)" />
<circle cx="18.1915" cy="2.70265" r="0.5" fill="rgb(0,0,0)" />
<circle cx="14.281" cy="10.9756" r="0.5" fill="rgb(0,0,0)" />
<circle cx="1.16211" cy="10.2004" r="0.5" fill="rgb(0,0,0)" />
<circle cx="17.8356" cy="0.726927" r="0.5" fill="rgb(0,0,0)" />
<circle cx="14.7562" cy="0.658786" r="0.5" fill="rgb(0,0,0)" />
</svg>
