<?xml version="1.0" ?>
<!DOCTYPE svg PUBLIC "-//W3C//DTD SVG 1.1//EN" "http://www.w3.org/Graphics/SVG/1.1/DTD/svg11.dtd">
<svg width="20" height="20" version="1.1" xmlns="http://www.w3.org/2000/svg">
<circle cx="12.8384" cy="0.48992" r="0.5" fill="rgb(0,0,0)" />
<circle cx="11.054" cy="0.41572" r="0.5" fill="rgb(0,0,0)" />
<circle cx="9.26818" cy="0.55299" r="0.5" fill="rgb(0,0,0)" />
<circle cx="5.66585" cy="1.4644" r="0.5" fill="rgb(0,0,0)" />
<circle cx="10.5157" cy="1.35141" r="0.5" fill="rgb(0,0,0)" />
<circle cx="6.9496" cy="1.31998" r="0.5" fill="rgb(0,0,0)" />
<circle cx="14.1252" cy="2.15738" r="0.5" fill="rgb(0,0,0)" />
<circle cx="1.9886" cy="1.97151" r="0.5" fill="rgb(0,0,0)" />
<circle cx="15.3991" cy="2.4603" r="0.5" fill="rgb(0,0,0)" />
<circle cx="7.75371" cy="2.30831" r="0.5" fill="rgb(0,0,0)" />
<circle cx="3.15286" cy="2.67903" r="0.5" fill="rgb(0,0,0)" />
<circle cx="13.0147" cy="2.73657" r="0.5" fill="rgb(0,0,0)" />
<circle cx="18.0982" cy="1.74659" r="0.5" fill="rgb(0,0,0)" />
<circle cx="18.4606" cy="0.571189" r="0.5" fill="rgb(0,0,0)" />
<circle cx="11.6806" cy="2.70221" r="0.5" fill="rgb(0,0,0)" />
<circle cx="14.442" cy="3.13014" r="0.5" fill="rgb(0,0,0)" />
<circle cx="4.06853" cy="3.49101" r="0.5" fill="rgb(0,0,0)" />
<circle cx="4.88655" cy="2.73877" r="0.5" fill="rgb(0,0,0)" />
<circle cx="9.40011" cy="3.12602" r="0.5" fill="rgb(0,0,0)" />
<circle cx="6.27866" cy="3.64633" r="0.5" fill="rgb(0,0,0)" />
<circle cx="7.13681" cy="3.31782" r="0.5" fill="rgb(0,0,0)" />
<circle cx="15.3232" cy="3.87276" r="0.5" fill="rgb(0,0,0)" />
<circle cx="10.3766" cy="3.83011" r="0.5" fill="rgb(0,0,0)" />
<circle cx="1.93147" cy="3.38821" r="0.5" fill="rgb(0,0,0)" />
<circle cx="13.2399" cy="3.71793" r="0.5" fill="rgb(0,0,0)" />
<circle cx="8.5774" cy="3.78864" r="0.5" fill="rgb(0,0,0)" />
<circle cx="4.10719" cy="4.48764" r="0.5" fill="rgb(0,0,0)" />
<circle cx="16.2222" cy="4.44959" r="0.5" fill="rgb(0,0,0)" />
<circle cx="17.56" cy="4.29601" r="0.5" fill="rgb(0,0,0)" />
<circle cx="11.9524" cy="4.11409" r="0.5" fill="rgb(0,0,0)" />
<circle cx="6.44462" cy="4.76341" r="0.5" fill="rgb(0,0,0)" />
<circle cx="13.9932" cy="4.49806" r="0.5" fill="rgb(0,0,0)" />
<circle cx="7.90316" cy="4.75683" r="0.5" fill="rgb(0,0,0)" />
<circle cx="5.3416" cy="4.76032" r="0.5" fill="rgb(0,0,0)" />
<circle cx="17.3067" cy="0.691564" r="0.5" fill="rgb(0,0,0)" />
<circle cx="6.45538" cy="5.65554" r="0.5" fill="rgb(0,0,0)" />
<circle cx="10.8092" cy="4.85879" r="0.5" fill="rgb(0,0,0)" />
<circle cx="14.2947" cy="1.22912" r="0.5" fill="rgb(0,0,0)" />
<circle cx="4.16095" cy="5.46759" r="0.5" fill="rgb(0,0,0)" />
<circle cx="2.50985" cy="5.15896" r="0.5" fill="rgb(0,0,0)" />
<circle cx="5.24002" cy="3.66412" r="0.5" fill="rgb(0,0,0)" />
<circle cx="12.3683" cy="5.52028" r="0.5" fill="rgb(0,0,0)" />
<circle cx="15.6751" cy="6.03113" r="0.5" fill="rgb(0,0,0)" />
<circle cx="1.8292" cy="6.08376" r="0.5" fill="rgb(0,0,0)" />
<circle cx="17.0589" cy="6.36198" r="0.5" fill="rgb(0,0,0)" />
<circle cx="6.63438" cy="6.82656" r="0.5" fill="rgb(0,0,0)" />
<circle cx="5.5792" cy="6.32984" r="0.5" fill="rgb(0,0,0)" />
<circle cx="18.1773" cy="7.00556" r="0.5" fill="rgb(0,0,0)" />
<circle cx="10.2767" cy="6.87937" r="0.5" fill="rgb(0,0,0)" />
<circle cx="5.9634" cy="0.429682" r="0.5" fill="rgb(0,0,0)" />
<circle cx="12.7859" cy="7.00258" r="0.5" fill="rgb(0,0,0)" />
<circle cx="14.3282" cy="7.08735" r="0.5" fill="rgb(0,0,0)" />
<circle cx="15.6695" cy="7.27401" r="0.5" fill="rgb(0,0,0)" />
<circle cx="6.57708" cy="7.6031" r="0.5" fill="rgb(0,0,0)" />
<circle cx="4.89023" cy="7.60449" r="0.5" fill="rgb(0,0,0)" />
<circle cx="1.21708" cy="7.98244" r="0.5" fill="rgb(0,0,0)" />
<circle cx="5.97679" cy="8.18231" r="0.5" fill="rgb(0,0,0)" />
<circle cx="10.3043" cy="8.40216" r="0.5" fill="rgb(0,0,0)" />
<circle cx="4.25565" cy="0.631836" r="0.5" fill="rgb(0,0,0)" />
<circle cx="2.56534" cy="9.19445" r="0.5" fill="rgb(0,0,0)" />
<circle cx="4.8561" cy="8.94556" r="0.5" fill="rgb(0,0,0)" />
<circle cx="8.44818" cy="8.96603" r="0.5" fill="rgb(0,0,0)" />
<circle cx="9.05099" cy="1.89193" r="0.5" fill="rgb(0,0,0)" />
<circle cx="15.1217" cy="8.67532" r="0.5" fill="rgb(0,0,0)" />
<circle cx="9.09868" cy="5.66947" r="0.5" fill="rgb(0,0,0)" />
<circle cx="13.5663" cy="8.4144" r="0.5" fill="rgb(0,0,0)" />
<circle cx="12.1834" cy="8.45779" r="0.5" fill="rgb(0,0,0)" />
<circle cx="3.70921" cy="9.66577" r="0.5" fill="rgb(0,0,0)" />
<circle cx="3.93688" cy="1.86834" r="0.5" fill="rgb(0,0,0)" />
<circle cx="2.83774" cy="9.7547" r="0.5" fill="rgb(0,0,0)" />
<circle cx="11.3853" cy="9.37479" r="0.5" fill="rgb(0,0,0)" />
<circle cx="18.3631" cy="4.93363" r="0.5" fill="rgb(0,0,0)" />
<circle cx="17.0364" cy="7.69034" r="0.5" fill="rgb(0,0,0)" />
<circle cx="18.4507" cy="3.35509" r="0.5" fill="rgb(0,0,0)" />
<circle cx="4.77244" cy="10.2876" r="0.5" fill="rgb(0,0,0)" />
<circle cx="1.88966" cy="10.2946" r="0.5" fill="rgb(0,0,0)" />
<circle cx="16.4182" cy="10.234" r="0.5" fill="rgb(0,0,0)" />
<circle cx="9.28196" cy="10.6029" r="0.5" fill="rgb(0,0,0)" />
<circle cx="3.24391" cy="10.7107" r="0.5" fill="rgb(0,0,0)" />
<circle cx="13.5461" cy="10.6935" r="0.5" fill="rgb(0,0,0)" />
<circle cx="12.27" cy="10.7774" r="0.5" fill="rgb(0,0,0)" />
<circle cx="10.8163" cy="10.9373" r="0.5" fill="rgb(0,0,0)" />
<circle cx="16.228" cy="12.0019" r="0.5" fill="rgb(0,0,0)" />
<circle cx="16.844" cy="5.32483" r="0.5" fill="rgb(0,0,0)" />
<circle cx="7.75819" cy="12.0457" r="0.5" fill="rgb(0,0,0)" />
<circle cx="17.8579" cy="2.6515" r="0.5" fill="rgb(0,0,0)" />
<circle cx="2.55946" cy="11.9713" r="0.5" fill="rgb(0,0,0)" />
<circle cx="7.50297" cy="8.07329" r="0.5" fill="rgb(0,0,0)" />
<circle cx="6.16497" cy="12.3899" r="0.5" fill="rgb(0,0,0)" />
<circle cx="6.03079" cy="9.31572" r="0.5" fill="rgb(0,0,0)" />
<circle cx="10.2662" cy="12.3063" r="0.5" fill="rgb(0,0,0)" />
<circle cx="7.33288" cy="9.0465" r="0.5" fill="rgb(0,0,0)" />
<circle cx="15.0781" cy="13.4588" r="0.5" fill="rgb(0,0,0)" />
<circle cx="12.1195" cy="12.7941" r="0.5" fill="rgb(0,0,0)" />
<circle cx="10.5466" cy="13.4095" r="0.5" fill="rgb(0,0,0)" />
<circle cx="16.5335" cy="13.5758" r="0.5" fill="rgb(0,0,0)" />
<circle cx="1.93799" cy="13.8518" r="0.5" fill="rgb(0,0,0)" />
<circle cx="15.946" cy="0.760491" r="0.5" fill="rgb(0,0,0)" />
<circle cx="11.3253" cy="6.96649" r="0.5" fill="rgb(0,0,0)" />
<circle cx="15.5546" cy="14.4775" r="0.5" fill="rgb(0,0,0)" />
<circle cx="14.8019" cy="12.4662" r="0.5" fill="rgb(0,0,0)" />
<circle cx="3.48359" cy="14.5089" r="0.5" fill="rgb(0,0,0)" />
<circle cx="4.87558" cy="13.6788" r="0.5" fill="rgb(0,0,0)" />
<circle cx="6.19906" cy="14.1563" r="0.5" fill="rgb(0,0,0)" />
<circle cx="8.95466" cy="14.5711" r="0.5" fill="rgb(0,0,0)" />
<circle cx="15.033" cy="15.3312" r="0.5" fill="rgb(0,0,0)" />
<circle cx="14.3315" cy="14.213" r="0.5" fill="rgb(0,0,0)" />
<circle cx="2.20859" cy="15.3281" r="0.5" fill="rgb(0,0,0)" />
<circle cx="5.06096" cy="15.1475" r="0.5" fill="rgb(0,0,0)" />
<circle cx="7.17143" cy="10.0316" r="0.5" fill="rgb(0,0,0)" />
<circle cx="13.2591" cy="15.2669" r="0.5" fill="rgb(0,0,0)" />
<circle cx="14.6403" cy="0.379793" r="0.5" fill="rgb(0,0,0)" />
<circle cx="10.5409" cy="14.8161" r="0.5" fill="rgb(0,0,0)" />
<circle cx="10.0321" cy="5.30571" r="0.5" fill="rgb(0,0,0)" />
<circle cx="7.35627" cy="15.5715" r="0.5" fill="rgb(0,0,0)" />
<circle cx="3.72054" cy="13.005" r="0.5" fill="rgb(0,0,0)" />
<circle cx="14.1301" cy="15.7969" r="0.5" fill="rgb(0,0,0)" />
<circle cx="16.3569" cy="15.4323" r="0.5" fill="rgb(0,0,0)" />
<circle cx="5.79031" cy="15.9054" r="0.5" fill="rgb(0,0,0)" />
<circle cx="4.21413" cy="15.8387" r="0.5" fill="rgb(0,0,0)" />
<circle cx="6.63106" cy="16.4866" r="0.5" fill="rgb(0,0,0)" />
<circle cx="6.22708" cy="10.7603" r="0.5" fill="rgb(0,0,0)" />
<circle cx="1.93078" cy="16.3397" r="0.5" fill="rgb(0,0,0)" />
<circle cx="5.9261" cy="2.42601" r="0.5" fill="rgb(0,0,0)" />
<circle cx="14.2535" cy="9.61311" r="0.5" fill="rgb(0,0,0)" />
<circle cx="3.26721" cy="16.0631" r="0.5" fill="rgb(0,0,0)" />
<circle cx="7.60891" cy="6.01759" r="0.5" fill="rgb(0,0,0)" />
<circle cx="9.27637" cy="16.0607" r="0.5" fill="rgb(0,0,0)" />
<circle cx="1.41383" cy="17.0151" r="0.5" fill="rgb(0,0,0)" />
<circle cx="15.1783" cy="16.5447" r="0.5" fill="rgb(0,0,0)" />
<circle cx="12.3506" cy="14.2623" r="0.5" fill="rgb(0,0,0)" />
<circle cx="4.54131" cy="16.8489" r="0.5" fill="rgb(0,0,0)" />
<circle cx="1.65123" cy="7.14672" r="0.5" fill="rgb(0,0,0)" />
<circle cx="12.552" cy="16.3297" r="0.5" fill="rgb(0,0,0)" />
<circle cx="3.82457" cy="8.63119" r="0.5" fill="rgb(0,0,0)" />
<circle cx="14.1162" cy="17.0074" r="0.5" fill="rgb(0,0,0)" />
<circle cx="16.3569" cy="16.8773" r="0.5" fill="rgb(0,0,0)" />
<circle cx="11.996" cy="1.43127" r="0.5" fill="rgb(0,0,0)" />
<circle cx="10.9528" cy="16.6643" r="0.5" fill="rgb(0,0,0)" />
<circle cx="17.6609" cy="17.15" r="0.5" fill="rgb(0,0,0)" />
<circle cx="2.97381" cy="17.2745" r="0.5" fill="rgb(0,0,0)" />
<circle cx="7.80266" cy="16.9531" r="0.5" fill="rgb(0,0,0)" />
<circle cx="5.65008" cy="17.3065" r="0.5" fill="rgb(0,0,0)" />
<circle cx="12.9109" cy="17.4393" r="0.5" fill="rgb(0,0,0)" />
<circle cx="7.75709" cy="13.8467" r="0.5" fill="rgb(0,0,0)" />
<circle cx="1.21164" cy="17.8465" r="0.5" fill="rgb(0,0,0)" />
<circle cx="10.4495" cy="2.61103" r="0.5" fill="rgb(0,0,0)" />
<circle cx="2.10932" cy="17.7751" r="0.5" fill="rgb(0,0,0)" />
<circle cx="9.08563" cy="17.3462" r="0.5" fill="rgb(0,0,0)" />
<circle cx="15.4758" cy="17.8748" r="0.5" fill="rgb(0,0,0)" />
<circle cx="6.75388" cy="17.7304" r="0.5" fill="rgb(0,0,0)" />
<circle cx="14.2809" cy="18.0647" r="0.5" fill="rgb(0,0,0)" />
<circle cx="2.90525" cy="4.04723" r="0.5" fill="rgb(0,0,0)" />
<circle cx="14.1603" cy="5.70761" r="0.5" fill="rgb(0,0,0)" />
<circle cx="18.4083" cy="6.04239" r="0.5" fill="rgb(0,0,0)" />
<circle cx="0.661666" cy="5.17616" r="0.5" fill="rgb(0,0,0)" />
<circle cx="16.7646" cy="3.38226" r="0.5" fill="rgb(0,0,0)" />
<circle cx="9.10294" cy="6.7732" r="0.5" fill="rgb(0,0,0)" />
<circle cx="0.644851" cy="3.53549" r="0.5" fill="rgb(0,0,0)" />
<circle cx="17.577" cy="15.0618" r="0.5" fill="rgb(0,0,0)" />
<circle cx="4.52433" cy="18.0797" r="0.5" fill="rgb(0,0,0)" />
<circle cx="0.512038" cy="16.5301" r="0.5" fill="rgb(0,0,0)" />
<circle cx="9.07337" cy="12.25" r="0.5" fill="rgb(0,0,0)" />
<circle cx="17.9639" cy="11.472" r="0.5" fill="rgb(0,0,0)" />
<circle cx="16.722" cy="18.2116" r="0.5" fill="rgb(0,0,0)" />
<circle cx="0.620746" cy="14.8938" r="0.5" fill="rgb(0,0,0)" />
<circle cx="0.937376" cy="11.2929" r="0.5" fill="rgb(0,0,0)" />
<circle cx="0.736314" cy="12.818" r="0.5" fill="rgb(0,0,0)" />
<circle cx="16.5785" cy="8.74462" r="0.5" fill="rgb(0,0,0)" />
<circle cx="18.0895" cy="9.5851" r="0.5" fill="rgb(0,0,0)" />
<circle cx="18.3604" cy="8.13647" r="0.5" fill="rgb(0,0,0)" />
<circle cx="10.0345" cy="18.1367" r="0.5" fill="rgb(0,0,0)" />
<circle cx="18.0733" cy="13.3899" r="0.5" fill="rgb(0,0,0)" />
<circle cx="0.461081" cy="6.80611" r="0.5" fill="rgb(0,0,0)" />
<circle cx="0.464824" cy="10.0888" r="0.5" fill="rgb(0,0,0)" />
<circle cx="11.6516" cy="15.2146" r="0.5" fill="rgb(0,0,0)" />
<circle cx="0.431122" cy="8.63228" r="0.5" fill="rgb(0,0,0)" />
<circle cx="11.5938" cy="18.1685" r="0.5" fill="rgb(0,0,0)" />
<circle cx="2.59811" cy="8.21446" r="0.5" fill="rgb(0,0,0)" />
<circle cx="18.391" cy="15.7829" r="0.5" fill="rgb(0,0,0)" />
<circle cx="8.2476" cy="18.0234" r="0.5" fill="rgb(0,0,0)" />
<circle cx="3.40651" cy="18.4253" r="0.5" fill="rgb(0,0,0)" />
<circle cx="13.0653" cy="1.72413" r="0.5" fill="rgb(0,0,0)" />
<circle cx="15.1737" cy="18.6533" r="0.5" fill="rgb(0,0,0)" />
<circle cx="13.1884" cy="18.4919" r="0.5" fill="rgb(0,0,0)" />
<circle cx="4.18285" cy="6.67777" r="0.5" fill="rgb(0,0,0)" />
<circle cx="8.05298" cy="18.6407" r="0.5" fill="rgb(0,0,0)" />
<circle cx="16.4713" cy="2.11012" r="0.5" fill="rgb(0,0,0)" />
<circle cx="9.06911" cy="7.97208" r="0.5" fill="rgb(0,0,0)" />
<circle cx="13.4769" cy="12.397" r="0.5" fill="rgb(0,0,0)" />
<circle cx="6.0512" cy="18.5083" r="0.5" fill="rgb(0,0,0)" />
<circle cx="1.4886" cy="9.14196" r="0.5" fill="rgb(0,0,0)" />
<circle cx="0.54633" cy="1.29376" r="0.5" fill="rgb(0,0,0)" />
<circle cx="15.0062" cy="11.041" r="0.5" fill="rgb(0,0,0)" />
<circle cx="2.1144" cy="0.584264" r="0.5" fill="rgb(0,0,0)" />
<circle cx="3.08756" cy="7.11047" r="0.5" fill="rgb(0,0,0)" />
<circle cx="0.265025" cy="17.8474" r="0.5" fill="rgb(0,0,0)" />
<circle cx="9.68234" cy="9.4522" r="0.5" fill="rgb(0,0,0)" />
<circle cx="4.52347" cy="11.6561" r="0.5" fill="rgb(0,0,0)" />
<circle cx="2.03871" cy="18.6" r="0.5" fill="rgb(0,0,0)" />
<circle cx="0.697227" cy="18.5846" r="0.5" fill="rgb(0,0,0)" />
<circle cx="8.07114" cy="10.4215" r="0.5" fill="rgb(0,0,0)" />
<circle cx="17.7734" cy="18.582" r="0.5" fill="rgb(0,0,0)" />
<circle cx="7.77748" cy="0.557358" r="0.5" fill="rgb(0,0,0)" />
<circle cx="15.2876" cy="5.07334" r="0.5" fill="rgb(0,0,0)" />
<circle cx="13.4252" cy="13.9409" r="0.5" fill="rgb(0,0,0)" />
<circle cx="18.5061" cy="18.3492" r="0.5" fill="rgb(0,0,0)" />
<circle cx="8.00859" cy="7.1019" r="0.5" fill="rgb(0,0,0)" />
<circle cx="18.6052" cy="17.3289" r="0.5" fill="rgb(0,0,0)" />
</svg>
