<?xml version="1.0" ?>
<!DOCTYPE svg PUBLIC "-//W3C//DTD SVG 1.1//EN" "http://www.w3.org/Graphics/SVG/1.1/DTD/svg11.dtd">
<svg width="20" height="20" version="1.1" xmlns="http://www.w3.org/2000/svg">
<circle cx="7.58992" cy="0.187645" r="0.5" fill="rgb(0,0,0)" />
<circle cx="6.71446" cy="0.303399" r="0.5" fill="rgb(0,0,0)" />
<circle cx="10.3595" cy="0.298036" r="0.5" fill="rgb(0,0,0)" />
<circle cx="14.6207" cy="0.206488" r="0.5" fill="rgb(0,0,0)" />
<circle cx="13.53" cy="0.31662" r="0.5" fill="rgb(0,0,0)" />
<circle cx="5.7423" cy="0.369383" r="0.5" fill="rgb(0,0,0)" />
<circle cx="4.38036" cy="0.479186" r="0.5" fill="rgb(0,0,0)" />
<circle cx="8.38379" cy="0.618591" r="0.5" fill="rgb(0,0,0)" />
<circle cx="14.9903" cy="0.763073" r="0.5" fill="rgb(0,0,0)" />
<circle cx="17.8894" cy="1.09928" r="0.5" fill="rgb(0,0,0)" />
<circle cx="11.2305" cy="0.660424" r="0.5" fill="rgb(0,0,0)" />
<circle cx="9.34901" cy="0.538003" r="0.5" fill="rgb(0,0,0)" />
<circle cx="16.007" cy="0.756056" r="0.5" fill="rgb(0,0,0)" />
<circle cx="13.4537" cy="1.65498" r="0.5" fill="rgb(0,0,0)" />
<circle cx="5.53119" cy="1.29393" r="0.5" fill="rgb(0,0,0)" />
<circle cx="6.75325" cy="1.25063" r="0.5" fill="rgb(0,0,0)" />
<circle cx="1.78095" cy="1.27929" r="0.5" fill="rgb(0,0,0)" />
<circle cx="10.4297" cy="1.45386" r="0.5" fill="rgb(0,0,0)" />
<circle cx="11.9921" cy="1.68878" r="0.5" fill="rgb(0,0,0)" />
<circle cx="4.57528" cy="1.56561" r="0.5" fill="rgb(0,0,0)" />
<circle cx="6.35851" cy="1.84372" r="0.5" fill="rgb(0,0,0)" />
<circle cx="7.84302" cy="1.74027" r="0.5" fill="rgb(0,0,0)" />
<circle cx="3.25917" cy="1.59266" r="0.5" fill="rgb(0,0,0)" />
<circle cx="13.5074" cy="2.35791" r="0.5" fill="rgb(0,0,0)" />
<circle cx="14.2761" cy="2.22531" r="0.5" fill="rgb(0,0,0)" />
<circle cx="16.6747" cy="2.28906" r="0.5" fill="rgb(0,0,0)" />
<circle cx="12.5454" cy="2.30686" r="0.5" fill="rgb(0,0,0)" />
<circle cx="1.84494" cy="2.41305" r="0.5" fill="rgb(0,0,0)" />
<circle cx="12.5273" cy="0.369343" r="0.5" fill="rgb(0,0,0)" />
<circle cx="13.0699" cy="2.78833" r="0.5" fill="rgb(0,0,0)" />
<circle cx="7.66553" cy="2.67328" r="0.5" fill="rgb(0,0,0)" />
<circle cx="17.9578" cy="2.60808" r="0.5" fill="rgb(0,0,0)" />
<circle cx="3.1737" cy="2.79207" r="0.5" fill="rgb(0,0,0)" />
<circle cx="15.2925" cy="2.60129" r="0.5" fill="rgb(0,0,0)" />
<circle cx="10.6121" cy="2.61" r="0.5" fill="rgb(0,0,0)" />
<circle cx="8.68321" cy="2.79811" r="0.5" fill="rgb(0,0,0)" />
<circle cx="12.0012" cy="0.791493" r="0.5" fill="rgb(0,0,0)" />
<circle cx="13.7134" cy="3.31098" r="0.5" fill="rgb(0,0,0)" />
<circle cx="9.70284" cy="3.45595" r="0.5" fill="rgb(0,0,0)" />
<circle cx="16.69" cy="3.38887" r="0.5" fill="rgb(0,0,0)" />
<circle cx="4.40899" cy="3.58007" r="0.5" fill="rgb(0,0,0)" />
<circle cx="7.54104" cy="0.896894" r="0.5" fill="rgb(0,0,0)" />
<circle cx="5.29777" cy="3.65329" r="0.5" fill="rgb(0,0,0)" />
<circle cx="1.5361" cy="3.70038" r="0.5" fill="rgb(0,0,0)" />
<circle cx="6.42973" cy="3.84351" r="0.5" fill="rgb(0,0,0)" />
<circle cx="8.32463" cy="3.74161" r="0.5" fill="rgb(0,0,0)" />
<circle cx="13.7103" cy="4.15142" r="0.5" fill="rgb(0,0,0)" />
<circle cx="14.5676" cy="4.19917" r="0.5" fill="rgb(0,0,0)" />
<circle cx="9.92128" cy="4.44753" r="0.5" fill="rgb(0,0,0)" />
<circle cx="12.6702" cy="3.58579" r="0.5" fill="rgb(0,0,0)" />
<circle cx="16.7164" cy="4.41981" r="0.5" fill="rgb(0,0,0)" />
<circle cx="6.80866" cy="4.59278" r="0.5" fill="rgb(0,0,0)" />
<circle cx="10.6469" cy="3.98864" r="0.5" fill="rgb(0,0,0)" />
<circle cx="1.26076" cy="4.79744" r="0.5" fill="rgb(0,0,0)" />
<circle cx="5.89667" cy="5.1131" r="0.5" fill="rgb(0,0,0)" />
<circle cx="12.0545" cy="4.75511" r="0.5" fill="rgb(0,0,0)" />
<circle cx="2.25676" cy="4.86346" r="0.5" fill="rgb(0,0,0)" />
<circle cx="7.98306" cy="4.90904" r="0.5" fill="rgb(0,0,0)" />
<circle cx="13.9948" cy="5.15491" r="0.5" fill="rgb(0,0,0)" />
<circle cx="16.3416" cy="5.29881" r="0.5" fill="rgb(0,0,0)" />
<circle cx="4.9028" cy="5.88552" r="0.5" fill="rgb(0,0,0)" />
<circle cx="6.84024" cy="5.52208" r="0.5" fill="rgb(0,0,0)" />
<circle cx="5.94206" cy="3.27472" r="0.5" fill="rgb(0,0,0)" />
<circle cx="8.85503" cy="5.83468" r="0.5" fill="rgb(0,0,0)" />
<circle cx="3.09542" cy="5.42462" r="0.5" fill="rgb(0,0,0)" />
<circle cx="5.50583" cy="4.54049" r="0.5" fill="rgb(0,0,0)" />
<circle cx="0.518874" cy="3.52853" r="0.5" fill="rgb(0,0,0)" />
<circle cx="14.4582" cy="5.87156" r="0.5" fill="rgb(0,0,0)" />
<circle cx="1.30281" cy="5.83059" r="0.5" fill="rgb(0,0,0)" />
<circle cx="15.6732" cy="6.07115" r="0.5" fill="rgb(0,0,0)" />
<circle cx="7.56561" cy="6.08625" r="0.5" fill="rgb(0,0,0)" />
<circle cx="17.6364" cy="3.9192" r="0.5" fill="rgb(0,0,0)" />
<circle cx="11.6272" cy="5.71059" r="0.5" fill="rgb(0,0,0)" />
<circle cx="3.69784" cy="6.16812" r="0.5" fill="rgb(0,0,0)" />
<circle cx="10.4844" cy="6.54205" r="0.5" fill="rgb(0,0,0)" />
<circle cx="4.26491" cy="6.62932" r="0.5" fill="rgb(0,0,0)" />
<circle cx="6.68035" cy="6.82915" r="0.5" fill="rgb(0,0,0)" />
<circle cx="9.45067" cy="6.66219" r="0.5" fill="rgb(0,0,0)" />
<circle cx="15.4497" cy="3.75997" r="0.5" fill="rgb(0,0,0)" />
<circle cx="8.55121" cy="6.8999" r="0.5" fill="rgb(0,0,0)" />
<circle cx="7.66691" cy="7.1416" r="0.5" fill="rgb(0,0,0)" />
<circle cx="4.75329" cy="4.37472" r="0.5" fill="rgb(0,0,0)" />
<circle cx="14.6327" cy="6.9286" r="0.5" fill="rgb(0,0,0)" />
<circle cx="1.57911" cy="7.17784" r="0.5" fill="rgb(0,0,0)" />
<circle cx="13.6307" cy="6.96684" r="0.5" fill="rgb(0,0,0)" />
<circle cx="18.0784" cy="7.11459" r="0.5" fill="rgb(0,0,0)" />
<circle cx="2.33466" cy="3.11783" r="0.5" fill="rgb(0,0,0)" />
<circle cx="4.50796" cy="5.24594" r="0.5" fill="rgb(0,0,0)" />
<circle cx="6.59121" cy="7.60021" r="0.5" fill="rgb(0,0,0)" />
<circle cx="5.3963" cy="7.49998" r="0.5" fill="rgb(0,0,0)" />
<circle cx="12.4187" cy="7.08854" r="0.5" fill="rgb(0,0,0)" />
<circle cx="10.1786" cy="7.49667" r="0.5" fill="rgb(0,0,0)" />
<circle cx="9.19149" cy="1.7182" r="0.5" fill="rgb(0,0,0)" />
<circle cx="11.2431" cy="7.34686" r="0.5" fill="rgb(0,0,0)" />
<circle cx="7.91473" cy="8.09225" r="0.5" fill="rgb(0,0,0)" />
<circle cx="6.04775" cy="8.17988" r="0.5" fill="rgb(0,0,0)" />
<circle cx="3.60027" cy="3.54802" r="0.5" fill="rgb(0,0,0)" />
<circle cx="7.12559" cy="8.14144" r="0.5" fill="rgb(0,0,0)" />
<circle cx="2.80421" cy="6.99456" r="0.5" fill="rgb(0,0,0)" />
<circle cx="17.0829" cy="7.764" r="0.5" fill="rgb(0,0,0)" />
<circle cx="8.71074" cy="8.08253" r="0.5" fill="rgb(0,0,0)" />
<circle cx="1.94199" cy="8.34101" r="0.5" fill="rgb(0,0,0)" />
<circle cx="14.7615" cy="8.17765" r="0.5" fill="rgb(0,0,0)" />
<circle cx="16.9923" cy="5.78943" r="0.5" fill="rgb(0,0,0)" />
<circle cx="16.187" cy="8.30078" r="0.5" fill="rgb(0,0,0)" />
<circle cx="5.10371" cy="8.54759" r="0.5" fill="rgb(0,0,0)" />
<circle cx="10.2389" cy="8.53648" r="0.5" fill="rgb(0,0,0)" />
<circle cx="9.16836" cy="5.0077" r="0.5" fill="rgb(0,0,0)" />
<circle cx="8.70123" cy="9.26" r="0.5" fill="rgb(0,0,0)" />
<circle cx="6.1227" cy="6.49208" r="0.5" fill="rgb(0,0,0)" />
<circle cx="2.46754" cy="9.26688" r="0.5" fill="rgb(0,0,0)" />
<circle cx="13.9106" cy="9.07556" r="0.5" fill="rgb(0,0,0)" />
<circle cx="3.43128" cy="9.38355" r="0.5" fill="rgb(0,0,0)" />
<circle cx="12.52" cy="8.98886" r="0.5" fill="rgb(0,0,0)" />
<circle cx="1.41295" cy="9.23649" r="0.5" fill="rgb(0,0,0)" />
<circle cx="17.0644" cy="9.17764" r="0.5" fill="rgb(0,0,0)" />
<circle cx="4.0923" cy="8.63444" r="0.5" fill="rgb(0,0,0)" />
<circle cx="7.25526" cy="9.80538" r="0.5" fill="rgb(0,0,0)" />
<circle cx="11.1312" cy="9.24522" r="0.5" fill="rgb(0,0,0)" />
<circle cx="9.8301" cy="9.37922" r="0.5" fill="rgb(0,0,0)" />
<circle cx="9.14775" cy="9.88771" r="0.5" fill="rgb(0,0,0)" />
<circle cx="8.11" cy="9.93018" r="0.5" fill="rgb(0,0,0)" />
<circle cx="2.79965" cy="9.92095" r="0.5" fill="rgb(0,0,0)" />
<circle cx="14.69" cy="9.84435" r="0.5" fill="rgb(0,0,0)" />
<circle cx="4.44375" cy="10.2985" r="0.5" fill="rgb(0,0,0)" />
<circle cx="12.8931" cy="9.83179" r="0.5" fill="rgb(0,0,0)" />
<circle cx="2.07056" cy="6.25829" r="0.5" fill="rgb(0,0,0)" />
<circle cx="3.42625" cy="10.4611" r="0.5" fill="rgb(0,0,0)" />
<circle cx="6.27436" cy="10.2287" r="0.5" fill="rgb(0,0,0)" />
<circle cx="5.53257" cy="10.4172" r="0.5" fill="rgb(0,0,0)" />
<circle cx="6.87686" cy="10.4142" r="0.5" fill="rgb(0,0,0)" />
<circle cx="7.45684" cy="10.8392" r="0.5" fill="rgb(0,0,0)" />
<circle cx="13.5524" cy="10.3698" r="0.5" fill="rgb(0,0,0)" />
<circle cx="17.1307" cy="10.5035" r="0.5" fill="rgb(0,0,0)" />
<circle cx="4.15658" cy="2.47997" r="0.5" fill="rgb(0,0,0)" />
<circle cx="3.79643" cy="4.52424" r="0.5" fill="rgb(0,0,0)" />
<circle cx="10.7746" cy="10.678" r="0.5" fill="rgb(0,0,0)" />
<circle cx="1.07995" cy="7.92806" r="0.5" fill="rgb(0,0,0)" />
<circle cx="7.32955" cy="9.0092" r="0.5" fill="rgb(0,0,0)" />
<circle cx="15.9602" cy="9.62105" r="0.5" fill="rgb(0,0,0)" />
<circle cx="2.5995" cy="11.0397" r="0.5" fill="rgb(0,0,0)" />
<circle cx="14.8904" cy="11.4081" r="0.5" fill="rgb(0,0,0)" />
<circle cx="5.8483" cy="5.86786" r="0.5" fill="rgb(0,0,0)" />
<circle cx="9.37253" cy="8.02945" r="0.5" fill="rgb(0,0,0)" />
<circle cx="3.72933" cy="11.4585" r="0.5" fill="rgb(0,0,0)" />
<circle cx="9.42404" cy="11.6354" r="0.5" fill="rgb(0,0,0)" />
<circle cx="6.015" cy="11.5184" r="0.5" fill="rgb(0,0,0)" />
<circle cx="12.6642" cy="11.679" r="0.5" fill="rgb(0,0,0)" />
<circle cx="7.21261" cy="11.8024" r="0.5" fill="rgb(0,0,0)" />
<circle cx="2.82275" cy="8.44489" r="0.5" fill="rgb(0,0,0)" />
<circle cx="8.29782" cy="12.1861" r="0.5" fill="rgb(0,0,0)" />
<circle cx="2.1325" cy="11.8428" r="0.5" fill="rgb(0,0,0)" />
<circle cx="14.6195" cy="1.43011" r="0.5" fill="rgb(0,0,0)" />
<circle cx="11.6135" cy="3.85988" r="0.5" fill="rgb(0,0,0)" />
<circle cx="10.8303" cy="12.0285" r="0.5" fill="rgb(0,0,0)" />
<circle cx="16.7343" cy="11.7919" r="0.5" fill="rgb(0,0,0)" />
<circle cx="14.9889" cy="12.5329" r="0.5" fill="rgb(0,0,0)" />
<circle cx="9.57087" cy="12.5895" r="0.5" fill="rgb(0,0,0)" />
<circle cx="1.46218" cy="12.4619" r="0.5" fill="rgb(0,0,0)" />
<circle cx="8.52699" cy="10.8071" r="0.5" fill="rgb(0,0,0)" />
<circle cx="6.70964" cy="12.5835" r="0.5" fill="rgb(0,0,0)" />
<circle cx="4.98542" cy="12.3995" r="0.5" fill="rgb(0,0,0)" />
<circle cx="10.2514" cy="5.22677" r="0.5" fill="rgb(0,0,0)" />
<circle cx="12.5979" cy="13.1905" r="0.5" fill="rgb(0,0,0)" />
<circle cx="8.1169" cy="11.5112" r="0.5" fill="rgb(0,0,0)" />
<circle cx="10.4228" cy="13.3891" r="0.5" fill="rgb(0,0,0)" />
<circle cx="14.4532" cy="13.5286" r="0.5" fill="rgb(0,0,0)" />
<circle cx="15.7986" cy="12.1092" r="0.5" fill="rgb(0,0,0)" />
<circle cx="15.3665" cy="13.5169" r="0.5" fill="rgb(0,0,0)" />
<circle cx="11.5612" cy="13.0576" r="0.5" fill="rgb(0,0,0)" />
<circle cx="1.11546" cy="13.508" r="0.5" fill="rgb(0,0,0)" />
<circle cx="1.81379" cy="10.1235" r="0.5" fill="rgb(0,0,0)" />
<circle cx="3.88772" cy="13.446" r="0.5" fill="rgb(0,0,0)" />
<circle cx="6.21626" cy="13.3229" r="0.5" fill="rgb(0,0,0)" />
<circle cx="9.17862" cy="13.6731" r="0.5" fill="rgb(0,0,0)" />
<circle cx="4.81205" cy="13.8344" r="0.5" fill="rgb(0,0,0)" />
<circle cx="13.4835" cy="14.0276" r="0.5" fill="rgb(0,0,0)" />
<circle cx="2.51941" cy="13.3758" r="0.5" fill="rgb(0,0,0)" />
<circle cx="16.3044" cy="13.4396" r="0.5" fill="rgb(0,0,0)" />
<circle cx="7.44868" cy="13.8098" r="0.5" fill="rgb(0,0,0)" />
<circle cx="5.8637" cy="14.1961" r="0.5" fill="rgb(0,0,0)" />
<circle cx="14.3696" cy="14.4295" r="0.5" fill="rgb(0,0,0)" />
<circle cx="11.6195" cy="2.64265" r="0.5" fill="rgb(0,0,0)" />
<circle cx="17.6893" cy="13.5778" r="0.5" fill="rgb(0,0,0)" />
<circle cx="8.42873" cy="14.3666" r="0.5" fill="rgb(0,0,0)" />
<circle cx="3.41517" cy="7.8802" r="0.5" fill="rgb(0,0,0)" />
<circle cx="1.74568" cy="14.399" r="0.5" fill="rgb(0,0,0)" />
<circle cx="8.25955" cy="13.0476" r="0.5" fill="rgb(0,0,0)" />
<circle cx="16.9712" cy="14.267" r="0.5" fill="rgb(0,0,0)" />
<circle cx="12.5121" cy="14.4112" r="0.5" fill="rgb(0,0,0)" />
<circle cx="4.00407" cy="14.8824" r="0.5" fill="rgb(0,0,0)" />
<circle cx="15.7394" cy="10.6518" r="0.5" fill="rgb(0,0,0)" />
<circle cx="9.97104" cy="14.4137" r="0.5" fill="rgb(0,0,0)" />
<circle cx="10.8968" cy="14.527" r="0.5" fill="rgb(0,0,0)" />
<circle cx="4.69953" cy="11.1656" r="0.5" fill="rgb(0,0,0)" />
<circle cx="5.63087" cy="15.3133" r="0.5" fill="rgb(0,0,0)" />
<circle cx="17.9755" cy="14.8026" r="0.5" fill="rgb(0,0,0)" />
<circle cx="9.05838" cy="15.0799" r="0.5" fill="rgb(0,0,0)" />
<circle cx="6.57693" cy="15.0468" r="0.5" fill="rgb(0,0,0)" />
<circle cx="11.5683" cy="14.8455" r="0.5" fill="rgb(0,0,0)" />
<circle cx="10.7435" cy="5.74606" r="0.5" fill="rgb(0,0,0)" />
<circle cx="15.0673" cy="15.3268" r="0.5" fill="rgb(0,0,0)" />
<circle cx="6.75638" cy="2.75449" r="0.5" fill="rgb(0,0,0)" />
<circle cx="15.8886" cy="2.29289" r="0.5" fill="rgb(0,0,0)" />
<circle cx="2.35925" cy="15.3846" r="0.5" fill="rgb(0,0,0)" />
<circle cx="15.8593" cy="4.46306" r="0.5" fill="rgb(0,0,0)" />
<circle cx="5.68472" cy="16.0451" r="0.5" fill="rgb(0,0,0)" />
<circle cx="17.1883" cy="1.75577" r="0.5" fill="rgb(0,0,0)" />
<circle cx="11.8461" cy="8.21257" r="0.5" fill="rgb(0,0,0)" />
<circle cx="15.5417" cy="14.4981" r="0.5" fill="rgb(0,0,0)" />
<circle cx="4.72064" cy="15.8023" r="0.5" fill="rgb(0,0,0)" />
<circle cx="3.27301" cy="15.8096" r="0.5" fill="rgb(0,0,0)" />
<circle cx="11.9909" cy="15.6711" r="0.5" fill="rgb(0,0,0)" />
<circle cx="4.25982" cy="7.49177" r="0.5" fill="rgb(0,0,0)" />
<circle cx="13.4129" cy="12.7637" r="0.5" fill="rgb(0,0,0)" />
<circle cx="13.2524" cy="15.8513" r="0.5" fill="rgb(0,0,0)" />
<circle cx="1.29989" cy="16.4357" r="0.5" fill="rgb(0,0,0)" />
<circle cx="8.82329" cy="16.1907" r="0.5" fill="rgb(0,0,0)" />
<circle cx="18.3074" cy="5.65182" r="0.5" fill="rgb(0,0,0)" />
<circle cx="12.6302" cy="16.5114" r="0.5" fill="rgb(0,0,0)" />
<circle cx="17.4901" cy="4.97034" r="0.5" fill="rgb(0,0,0)" />
<circle cx="5.21995" cy="6.65421" r="0.5" fill="rgb(0,0,0)" />
<circle cx="3.95155" cy="16.1592" r="0.5" fill="rgb(0,0,0)" />
<circle cx="6.54432" cy="16.4801" r="0.5" fill="rgb(0,0,0)" />
<circle cx="17.5032" cy="12.4931" r="0.5" fill="rgb(0,0,0)" />
<circle cx="17.231" cy="16.1812" r="0.5" fill="rgb(0,0,0)" />
<circle cx="5.72301" cy="2.35295" r="0.5" fill="rgb(0,0,0)" />
<circle cx="2.00871" cy="16.5377" r="0.5" fill="rgb(0,0,0)" />
<circle cx="11.0847" cy="16.5309" r="0.5" fill="rgb(0,0,0)" />
<circle cx="1.41543" cy="17.2862" r="0.5" fill="rgb(0,0,0)" />
<circle cx="15.1515" cy="16.4623" r="0.5" fill="rgb(0,0,0)" />
<circle cx="14.2133" cy="16.9501" r="0.5" fill="rgb(0,0,0)" />
<circle cx="11.9623" cy="10.5471" r="0.5" fill="rgb(0,0,0)" />
<circle cx="0.514113" cy="16.984" r="0.5" fill="rgb(0,0,0)" />
<circle cx="13.1304" cy="4.75699" r="0.5" fill="rgb(0,0,0)" />
<circle cx="4.07201" cy="9.62099" r="0.5" fill="rgb(0,0,0)" />
<circle cx="4.38851" cy="16.8061" r="0.5" fill="rgb(0,0,0)" />
<circle cx="7.75304" cy="17.0269" r="0.5" fill="rgb(0,0,0)" />
<circle cx="5.06324" cy="9.53301" r="0.5" fill="rgb(0,0,0)" />
<circle cx="15.866" cy="17.0312" r="0.5" fill="rgb(0,0,0)" />
<circle cx="8.90018" cy="17.3141" r="0.5" fill="rgb(0,0,0)" />
<circle cx="14.1412" cy="12.5132" r="0.5" fill="rgb(0,0,0)" />
<circle cx="5.83291" cy="17.4016" r="0.5" fill="rgb(0,0,0)" />
<circle cx="1.96946" cy="17.7439" r="0.5" fill="rgb(0,0,0)" />
<circle cx="15.3299" cy="8.93772" r="0.5" fill="rgb(0,0,0)" />
<circle cx="12.551" cy="17.5183" r="0.5" fill="rgb(0,0,0)" />
<circle cx="13.3732" cy="17.3859" r="0.5" fill="rgb(0,0,0)" />
<circle cx="1.22028" cy="17.8889" r="0.5" fill="rgb(0,0,0)" />
<circle cx="11.7079" cy="17.4487" r="0.5" fill="rgb(0,0,0)" />
<circle cx="10.9096" cy="17.8248" r="0.5" fill="rgb(0,0,0)" />
<circle cx="12.9244" cy="5.91915" r="0.5" fill="rgb(0,0,0)" />
<circle cx="2.81632" cy="17.7028" r="0.5" fill="rgb(0,0,0)" />
<circle cx="9.57129" cy="10.6547" r="0.5" fill="rgb(0,0,0)" />
<circle cx="7.93706" cy="17.9137" r="0.5" fill="rgb(0,0,0)" />
<circle cx="6.72182" cy="17.6781" r="0.5" fill="rgb(0,0,0)" />
<circle cx="9.96862" cy="17.2043" r="0.5" fill="rgb(0,0,0)" />
<circle cx="18.337" cy="17.0456" r="0.5" fill="rgb(0,0,0)" />
<circle cx="18.4601" cy="15.7158" r="0.5" fill="rgb(0,0,0)" />
<circle cx="15.4451" cy="17.9574" r="0.5" fill="rgb(0,0,0)" />
<circle cx="17.6056" cy="17.9488" r="0.5" fill="rgb(0,0,0)" />
<circle cx="14.4126" cy="17.941" r="0.5" fill="rgb(0,0,0)" />
<circle cx="3.36136" cy="12.3973" r="0.5" fill="rgb(0,0,0)" />
<circle cx="4.87756" cy="17.7053" r="0.5" fill="rgb(0,0,0)" />
<circle cx="9.63858" cy="2.56179" r="0.5" fill="rgb(0,0,0)" />
<circle cx="18.7568" cy="18.1487" r="0.5" fill="rgb(0,0,0)" />
<circle cx="18.5047" cy="1.79804" r="0.5" fill="rgb(0,0,0)" />
<circle cx="18.5036" cy="0.447157" r="0.5" fill="rgb(0,0,0)" />
<circle cx="15.7226" cy="7.18019" r="0.5" fill="rgb(0,0,0)" />
<circle cx="18.2967" cy="9.43172" r="0.5" fill="rgb(0,0,0)" />
<circle cx="16.2993" cy="15.3923" r="0.5" fill="rgb(0,0,0)" />
<circle cx="18.5458" cy="13.1337" r="0.5" fill="rgb(0,0,0)" />
<circle cx="14.0729" cy="11.0421" r="0.5" fill="rgb(0,0,0)" />
<circle cx="3.1269" cy="14.5214" r="0.5" fill="rgb(0,0,0)" />
<circle cx="18.2747" cy="11.2498" r="0.5" fill="rgb(0,0,0)" />
<circle cx="16.854" cy="17.2615" r="0.5" fill="rgb(0,0,0)" />
<circle cx="18.4908" cy="4.52662" r="0.5" fill="rgb(0,0,0)" />
<circle cx="18.4778" cy="3.26986" r="0.5" fill="rgb(0,0,0)" />
<circle cx="17.8734" cy="18.7224" r="0.5" fill="rgb(0,0,0)" />
<circle cx="14.5777" cy="3.07013" r="0.5" fill="rgb(0,0,0)" />
<circle cx="1.15072" cy="15.4117" r="0.5" fill="rgb(0,0,0)" />
<circle cx="16.5675" cy="18.4277" r="0.5" fill="rgb(0,0,0)" />
<circle cx="15.091" cy="18.6635" r="0.5" fill="rgb(0,0,0)" />
<circle cx="7.70176" cy="15.1252" r="0.5" fill="rgb(0,0,0)" />
<circle cx="5.52548" cy="16.7476" r="0.5" fill="rgb(0,0,0)" />
<circle cx="13.6576" cy="18.4878" r="0.5" fill="rgb(0,0,0)" />
<circle cx="13.2928" cy="1.08202" r="0.5" fill="rgb(0,0,0)" />
<circle cx="0.337447" cy="15.9884" r="0.5" fill="rgb(0,0,0)" />
<circle cx="17.0167" cy="6.63574" r="0.5" fill="rgb(0,0,0)" />
<circle cx="6.19763" cy="9.11712" r="0.5" fill="rgb(0,0,0)" />
<circle cx="0.426768" cy="14.5189" r="0.5" fill="rgb(0,0,0)" />
<circle cx="15.029" cy="4.88748" r="0.5" fill="rgb(0,0,0)" />
<circle cx="13.4345" cy="8.0856" r="0.5" fill="rgb(0,0,0)" />
<circle cx="8.22595" cy="8.8345" r="0.5" fill="rgb(0,0,0)" />
<circle cx="0.43555" cy="8.62886" r="0.5" fill="rgb(0,0,0)" />
<circle cx="0.442357" cy="10.0199" r="0.5" fill="rgb(0,0,0)" />
<circle cx="4.89857" cy="14.9048" r="0.5" fill="rgb(0,0,0)" />
<circle cx="0.332647" cy="12.9706" r="0.5" fill="rgb(0,0,0)" />
<circle cx="0.435223" cy="11.6255" r="0.5" fill="rgb(0,0,0)" />
<circle cx="9.06603" cy="4.11118" r="0.5" fill="rgb(0,0,0)" />
<circle cx="2.7841" cy="4.0153" r="0.5" fill="rgb(0,0,0)" />
<circle cx="0.546682" cy="2.30193" r="0.5" fill="rgb(0,0,0)" />
<circle cx="17.1328" cy="0.430741" r="0.5" fill="rgb(0,0,0)" />
<circle cx="10.1352" cy="18.4433" r="0.5" fill="rgb(0,0,0)" />
<circle cx="18.376" cy="8.10476" r="0.5" fill="rgb(0,0,0)" />
<circle cx="18.5941" cy="6.50582" r="0.5" fill="rgb(0,0,0)" />
<circle cx="10.1437" cy="15.7333" r="0.5" fill="rgb(0,0,0)" />
<circle cx="8.93572" cy="18.4592" r="0.5" fill="rgb(0,0,0)" />
<circle cx="0.44829" cy="6.90387" r="0.5" fill="rgb(0,0,0)" />
<circle cx="13.4887" cy="15.0586" r="0.5" fill="rgb(0,0,0)" />
<circle cx="3.31134" cy="18.4625" r="0.5" fill="rgb(0,0,0)" />
<circle cx="11.4115" cy="18.5495" r="0.5" fill="rgb(0,0,0)" />
<circle cx="12.543" cy="18.5152" r="0.5" fill="rgb(0,0,0)" />
<circle cx="7.51272" cy="18.5749" r="0.5" fill="rgb(0,0,0)" />
<circle cx="1.19026" cy="10.9139" r="0.5" fill="rgb(0,0,0)" />
<circle cx="5.92171" cy="18.5005" r="0.5" fill="rgb(0,0,0)" />
<circle cx="5.0242" cy="2.78509" r="0.5" fill="rgb(0,0,0)" />
<circle cx="0.357003" cy="5.49215" r="0.5" fill="rgb(0,0,0)" />
<circle cx="15.4937" cy="5.29384" r="0.5" fill="rgb(0,0,0)" />
<circle cx="0.410048" cy="4.35779" r="0.5" fill="rgb(0,0,0)" />
<circle cx="7.38496" cy="16.0926" r="0.5" fill="rgb(0,0,0)" />
<circle cx="4.22954" cy="18.2119" r="0.5" fill="rgb(0,0,0)" />
<circle cx="0.644612" cy="0.663549" r="0.5" fill="rgb(0,0,0)" />
<circle cx="18.401" cy="18.3714" r="0.5" fill="rgb(0,0,0)" />
<circle cx="2.66003" cy="0.4536" r="0.5" fill="rgb(0,0,0)" />
<circle cx="0.243505" cy="17.7275" r="0.5" fill="rgb(0,0,0)" />
<circle cx="0.371087" cy="18.4661" r="0.5" fill="rgb(0,0,0)" />
<circle cx="7.42115" cy="3.7814" r="0.5" fill="rgb(0,0,0)" />
<circle cx="2.07064" cy="18.5958" r="0.5" fill="rgb(0,0,0)" />
<circle cx="14.2618" cy="15.7527" r="0.5" fill="rgb(0,0,0)" />
<circle cx="2.98399" cy="16.7266" r="0.5" fill="rgb(0,0,0)" />
<circle cx="1.0949" cy="18.5792" r="0.5" fill="rgb(0,0,0)" />
</svg>
