<?xml version="1.0" ?>
<!DOCTYPE svg PUBLIC "-//W3C//DTD SVG 1.1//EN" "http://www.w3.org/Graphics/SVG/1.1/DTD/svg11.dtd">
<svg width="20" height="20" version="1.1" xmlns="http://www.w3.org/2000/svg">
<circle cx="10.8684" cy="2.49198" r="0.5" fill="rgb(0,0,0)" />
<circle cx="6.70381" cy="5.14114" r="0.5" fill="rgb(0,0,0)" />
<circle cx="17.455" cy="2.23922" r="0.5" fill="rgb(0,0,0)" />
<circle cx="14.2013" cy="2.3687" r="0.5" fill="rgb(0,0,0)" />
<circle cx="13.3436" cy="10.5427" r="0.5" fill="rgb(0,0,0)" />
<circle cx="16.5231" cy="14.0234" r="0.5" fill="rgb(0,0,0)" />
<circle cx="6.92526" cy="8.95936" r="0.5" fill="rgb(0,0,0)" />
<circle cx="11.0471" cy="13.1368" r="0.5" fill="rgb(0,0,0)" />
<circle cx="17.2498" cy="10.4707" r="0.5" fill="rgb(0,0,0)" />
<circle cx="2.20651" cy="11.0109" r="0.5" fill="rgb(0,0,0)" />
<circle cx="11.3067" cy="7.13598" r="0.5" fill="rgb(0,0,0)" />
<circle cx="16.3773" cy="6.5712" r="0.5" fill="rgb(0,0,0)" />
<circle cx="17.1482" cy="17.3385" r="0.5" fill="rgb(0,0,0)" />
<circle cx="13.4266" cy="16.8417" r="0.5" fill="rgb(0,0,0)" />
<circle cx="9.4431" cy="16.9442" r="0.5" fill="rgb(0,0,0)" />
<circle cx="7.03878" cy="1.53849" r="0.5" fill="rgb(0,0,0)" />
<circle cx="2.14466" cy="6.29988" r="0.5" fill="rgb(0,0,0)" />
<circle cx="2.31967" cy="1.95885" r="0.5" fill="rgb(0,0,0)" />
<circle cx="5.46356" cy="16.8369" r="0.5" fill="rgb(0,0,0)" />
<circle cx="6.75108" cy="12.8645" r="0.5" fill="rgb(0,0,0)" />
<circle cx="1.79081" cy="16.0599" r="0.5" fill="rgb(0,0,0)" />
</svg>
