<?xml version="1.0" ?>
<!DOCTYPE svg PUBLIC "-//W3C//DTD SVG 1.1//EN" "http://www.w3.org/Graphics/SVG/1.1/DTD/svg11.dtd">
<svg width="20" height="20" version="1.1" xmlns="http://www.w3.org/2000/svg">
<circle cx="10.5834" cy="0.755353" r="0.5" fill="rgb(0,0,0)" />
<circle cx="4.37782" cy="1.26385" r="0.5" fill="rgb(0,0,0)" />
<circle cx="1.94748" cy="2.06795" r="0.5" fill="rgb(0,0,0)" />
<circle cx="12.1305" cy="2.09515" r="0.5" fill="rgb(0,0,0)" />
<circle cx="16.5126" cy="2.09697" r="0.5" fill="rgb(0,0,0)" />
<circle cx="5.52446" cy="2.39251" r="0.5" fill="rgb(0,0,0)" />
<circle cx="16.834" cy="0.627589" r="0.5" fill="rgb(0,0,0)" />
<circle cx="9.13651" cy="1.84547" r="0.5" fill="rgb(0,0,0)" />
<circle cx="10.2504" cy="2.96249" r="0.5" fill="rgb(0,0,0)" />
<circle cx="12.7203" cy="0.591559" r="0.5" fill="rgb(0,0,0)" />
<circle cx="3.57341" cy="2.75486" r="0.5" fill="rgb(0,0,0)" />
<circle cx="14.39" cy="3.19906" r="0.5" fill="rgb(0,0,0)" />
<circle cx="15.2089" cy="3.92096" r="0.5" fill="rgb(0,0,0)" />
<circle cx="17.2711" cy="3.77304" r="0.5" fill="rgb(0,0,0)" />
<circle cx="4.66024" cy="3.93631" r="0.5" fill="rgb(0,0,0)" />
<circle cx="16.2581" cy="4.29057" r="0.5" fill="rgb(0,0,0)" />
<circle cx="2.08212" cy="3.47503" r="0.5" fill="rgb(0,0,0)" />
<circle cx="11.7045" cy="4.08417" r="0.5" fill="rgb(0,0,0)" />
<circle cx="8.36456" cy="4.40812" r="0.5" fill="rgb(0,0,0)" />
<circle cx="2.72538" cy="4.88734" r="0.5" fill="rgb(0,0,0)" />
<circle cx="17.0098" cy="5.56516" r="0.5" fill="rgb(0,0,0)" />
<circle cx="1.67318" cy="5.76135" r="0.5" fill="rgb(0,0,0)" />
<circle cx="7.35873" cy="5.92078" r="0.5" fill="rgb(0,0,0)" />
<circle cx="5.95857" cy="6.64774" r="0.5" fill="rgb(0,0,0)" />
<circle cx="9.87258" cy="6.60211" r="0.5" fill="rgb(0,0,0)" />
<circle cx="8.33622" cy="6.64886" r="0.5" fill="rgb(0,0,0)" />
<circle cx="18.0414" cy="1.85489" r="0.5" fill="rgb(0,0,0)" />
<circle cx="12.5941" cy="6.32682" r="0.5" fill="rgb(0,0,0)" />
<circle cx="14.1279" cy="6.78452" r="0.5" fill="rgb(0,0,0)" />
<circle cx="11.3003" cy="6.59771" r="0.5" fill="rgb(0,0,0)" />
<circle cx="18.3562" cy="0.596098" r="0.5" fill="rgb(0,0,0)" />
<circle cx="3.56753" cy="7.01397" r="0.5" fill="rgb(0,0,0)" />
<circle cx="1.66195" cy="7.2693" r="0.5" fill="rgb(0,0,0)" />
<circle cx="17.0221" cy="7.26868" r="0.5" fill="rgb(0,0,0)" />
<circle cx="13.2037" cy="3.52983" r="0.5" fill="rgb(0,0,0)" />
<circle cx="6.50918" cy="3.67904" r="0.5" fill="rgb(0,0,0)" />
<circle cx="15.4485" cy="7.48741" r="0.5" fill="rgb(0,0,0)" />
<circle cx="5.47845" cy="7.73888" r="0.5" fill="rgb(0,0,0)" />
<circle cx="8.26094" cy="0.574788" r="0.5" fill="rgb(0,0,0)" />
<circle cx="8.87145" cy="8.03245" r="0.5" fill="rgb(0,0,0)" />
<circle cx="7.18059" cy="8.21807" r="0.5" fill="rgb(0,0,0)" />
<circle cx="10.3933" cy="8.34513" r="0.5" fill="rgb(0,0,0)" />
<circle cx="15.716" cy="6.01472" r="0.5" fill="rgb(0,0,0)" />
<circle cx="12.2714" cy="8.20174" r="0.5" fill="rgb(0,0,0)" />
<circle cx="16.3338" cy="8.63465" r="0.5" fill="rgb(0,0,0)" />
<circle cx="5.17711" cy="8.92263" r="0.5" fill="rgb(0,0,0)" />
<circle cx="2.14156" cy="9.20592" r="0.5" fill="rgb(0,0,0)" />
<circle cx="2.54521" cy="8.13005" r="0.5" fill="rgb(0,0,0)" />
<circle cx="13.9683" cy="8.60639" r="0.5" fill="rgb(0,0,0)" />
<circle cx="3.81011" cy="8.9535" r="0.5" fill="rgb(0,0,0)" />
<circle cx="11.544" cy="9.50624" r="0.5" fill="rgb(0,0,0)" />
<circle cx="9.42298" cy="9.48411" r="0.5" fill="rgb(0,0,0)" />
<circle cx="2.63939" cy="10.0475" r="0.5" fill="rgb(0,0,0)" />
<circle cx="7.66829" cy="9.83265" r="0.5" fill="rgb(0,0,0)" />
<circle cx="7.75651" cy="2.70678" r="0.5" fill="rgb(0,0,0)" />
<circle cx="9.04015" cy="10.8182" r="0.5" fill="rgb(0,0,0)" />
<circle cx="6.40734" cy="10.5135" r="0.5" fill="rgb(0,0,0)" />
<circle cx="14.8025" cy="11.1753" r="0.5" fill="rgb(0,0,0)" />
<circle cx="3.08708" cy="10.9891" r="0.5" fill="rgb(0,0,0)" />
<circle cx="4.81402" cy="10.7233" r="0.5" fill="rgb(0,0,0)" />
<circle cx="16.3145" cy="12.0636" r="0.5" fill="rgb(0,0,0)" />
<circle cx="12.7162" cy="12.4417" r="0.5" fill="rgb(0,0,0)" />
<circle cx="13.3905" cy="10.4205" r="0.5" fill="rgb(0,0,0)" />
<circle cx="14.6669" cy="12.693" r="0.5" fill="rgb(0,0,0)" />
<circle cx="8.3585" cy="12.3871" r="0.5" fill="rgb(0,0,0)" />
<circle cx="6.50251" cy="12.4618" r="0.5" fill="rgb(0,0,0)" />
<circle cx="10.7092" cy="13.4011" r="0.5" fill="rgb(0,0,0)" />
<circle cx="16.0222" cy="13.8583" r="0.5" fill="rgb(0,0,0)" />
<circle cx="15.4062" cy="2.39127" r="0.5" fill="rgb(0,0,0)" />
<circle cx="13.3401" cy="5.05699" r="0.5" fill="rgb(0,0,0)" />
<circle cx="14.0312" cy="13.922" r="0.5" fill="rgb(0,0,0)" />
<circle cx="10.1304" cy="4.93828" r="0.5" fill="rgb(0,0,0)" />
<circle cx="5.45758" cy="13.6667" r="0.5" fill="rgb(0,0,0)" />
<circle cx="12.3859" cy="14.1031" r="0.5" fill="rgb(0,0,0)" />
<circle cx="8.30425" cy="14.321" r="0.5" fill="rgb(0,0,0)" />
<circle cx="4.88693" cy="15.0755" r="0.5" fill="rgb(0,0,0)" />
<circle cx="3.68417" cy="12.4748" r="0.5" fill="rgb(0,0,0)" />
<circle cx="1.97838" cy="14.5319" r="0.5" fill="rgb(0,0,0)" />
<circle cx="13.1997" cy="15.2608" r="0.5" fill="rgb(0,0,0)" />
<circle cx="17.7971" cy="14.9054" r="0.5" fill="rgb(0,0,0)" />
<circle cx="1.10352" cy="11.4358" r="0.5" fill="rgb(0,0,0)" />
<circle cx="14.0965" cy="15.8373" r="0.5" fill="rgb(0,0,0)" />
<circle cx="6.79635" cy="1.12409" r="0.5" fill="rgb(0,0,0)" />
<circle cx="13.9112" cy="1.81776" r="0.5" fill="rgb(0,0,0)" />
<circle cx="16.3987" cy="15.4061" r="0.5" fill="rgb(0,0,0)" />
<circle cx="5.94093" cy="15.533" r="0.5" fill="rgb(0,0,0)" />
<circle cx="10.1307" cy="14.965" r="0.5" fill="rgb(0,0,0)" />
<circle cx="7.58636" cy="15.6393" r="0.5" fill="rgb(0,0,0)" />
<circle cx="11.3646" cy="15.5571" r="0.5" fill="rgb(0,0,0)" />
<circle cx="6.677" cy="16.4911" r="0.5" fill="rgb(0,0,0)" />
<circle cx="15.2761" cy="16.4963" r="0.5" fill="rgb(0,0,0)" />
<circle cx="18.235" cy="3.09646" r="0.5" fill="rgb(0,0,0)" />
<circle cx="12.2488" cy="16.4692" r="0.5" fill="rgb(0,0,0)" />
<circle cx="4.22281" cy="16.5028" r="0.5" fill="rgb(0,0,0)" />
<circle cx="13.847" cy="17.0341" r="0.5" fill="rgb(0,0,0)" />
<circle cx="16.5365" cy="16.9754" r="0.5" fill="rgb(0,0,0)" />
<circle cx="9.27244" cy="16.4617" r="0.5" fill="rgb(0,0,0)" />
<circle cx="5.58272" cy="17.2588" r="0.5" fill="rgb(0,0,0)" />
<circle cx="15.2589" cy="17.8001" r="0.5" fill="rgb(0,0,0)" />
<circle cx="14.9414" cy="0.643659" r="0.5" fill="rgb(0,0,0)" />
<circle cx="2.64445" cy="16.7014" r="0.5" fill="rgb(0,0,0)" />
<circle cx="8.2377" cy="17.5402" r="0.5" fill="rgb(0,0,0)" />
<circle cx="12.222" cy="17.7277" r="0.5" fill="rgb(0,0,0)" />
<circle cx="17.2155" cy="17.8908" r="0.5" fill="rgb(0,0,0)" />
<circle cx="18.2334" cy="6.46052" r="0.5" fill="rgb(0,0,0)" />
<circle cx="6.05418" cy="5.07809" r="0.5" fill="rgb(0,0,0)" />
<circle cx="14.8427" cy="5.15762" r="0.5" fill="rgb(0,0,0)" />
<circle cx="18.3023" cy="4.86346" r="0.5" fill="rgb(0,0,0)" />
<circle cx="17.9184" cy="13.3709" r="0.5" fill="rgb(0,0,0)" />
<circle cx="17.9312" cy="11.3799" r="0.5" fill="rgb(0,0,0)" />
<circle cx="17.9453" cy="9.65983" r="0.5" fill="rgb(0,0,0)" />
<circle cx="18.2273" cy="8.11871" r="0.5" fill="rgb(0,0,0)" />
<circle cx="10.5277" cy="17.8214" r="0.5" fill="rgb(0,0,0)" />
<circle cx="12.6977" cy="18.5194" r="0.5" fill="rgb(0,0,0)" />
<circle cx="15.9528" cy="18.5357" r="0.5" fill="rgb(0,0,0)" />
<circle cx="14.169" cy="18.2937" r="0.5" fill="rgb(0,0,0)" />
<circle cx="3.47235" cy="14.7309" r="0.5" fill="rgb(0,0,0)" />
<circle cx="4.39664" cy="18.139" r="0.5" fill="rgb(0,0,0)" />
<circle cx="0.979115" cy="13.2006" r="0.5" fill="rgb(0,0,0)" />
<circle cx="4.31551" cy="5.60091" r="0.5" fill="rgb(0,0,0)" />
<circle cx="1.51491" cy="17.5577" r="0.5" fill="rgb(0,0,0)" />
<circle cx="7.04592" cy="17.771" r="0.5" fill="rgb(0,0,0)" />
<circle cx="0.724436" cy="9.81624" r="0.5" fill="rgb(0,0,0)" />
<circle cx="0.633613" cy="8.25508" r="0.5" fill="rgb(0,0,0)" />
<circle cx="11.4474" cy="11.0762" r="0.5" fill="rgb(0,0,0)" />
<circle cx="15.0494" cy="15.0812" r="0.5" fill="rgb(0,0,0)" />
<circle cx="0.643905" cy="4.01687" r="0.5" fill="rgb(0,0,0)" />
<circle cx="0.456691" cy="6.31094" r="0.5" fill="rgb(0,0,0)" />
<circle cx="18.2421" cy="16.0043" r="0.5" fill="rgb(0,0,0)" />
<circle cx="15.8115" cy="9.9649" r="0.5" fill="rgb(0,0,0)" />
<circle cx="0.696135" cy="15.7966" r="0.5" fill="rgb(0,0,0)" />
<circle cx="6.06124" cy="18.4784" r="0.5" fill="rgb(0,0,0)" />
<circle cx="5.31525" cy="0.44916" r="0.5" fill="rgb(0,0,0)" />
<circle cx="0.626001" cy="1.17823" r="0.5" fill="rgb(0,0,0)" />
<circle cx="2.64536" cy="0.631058" r="0.5" fill="rgb(0,0,0)" />
<circle cx="8.7452" cy="18.5018" r="0.5" fill="rgb(0,0,0)" />
<circle cx="2.88712" cy="18.3459" r="0.5" fill="rgb(0,0,0)" />
<circle cx="10.116" cy="12.0626" r="0.5" fill="rgb(0,0,0)" />
<circle cx="0.566797" cy="18.1535" r="0.5" fill="rgb(0,0,0)" />
<circle cx="18.1376" cy="18.5193" r="0.5" fill="rgb(0,0,0)" />
<circle cx="18.3535" cy="17.2965" r="0.5" fill="rgb(0,0,0)" />
</svg>
