<?xml version="1.0" ?>
<!DOCTYPE svg PUBLIC "-//W3C//DTD SVG 1.1//EN" "http://www.w3.org/Graphics/SVG/1.1/DTD/svg11.dtd">
<svg width="20" height="20" version="1.1" xmlns="http://www.w3.org/2000/svg">
<circle cx="14.6712" cy="0.666716" r="0.5" fill="rgb(0,0,0)" />
<circle cx="15.5742" cy="2.61989" r="0.5" fill="rgb(0,0,0)" />
<circle cx="5.6786" cy="1.25285" r="0.5" fill="rgb(0,0,0)" />
<circle cx="14.9183" cy="4.084" r="0.5" fill="rgb(0,0,0)" />
<circle cx="16.1284" cy="4.34522" r="0.5" fill="rgb(0,0,0)" />
<circle cx="3.30835" cy="3.36798" r="0.5" fill="rgb(0,0,0)" />
<circle cx="9.11562" cy="3.28677" r="0.5" fill="rgb(0,0,0)" />
<circle cx="14.1675" cy="5.45055" r="0.5" fill="rgb(0,0,0)" />
<circle cx="16.9778" cy="5.55046" r="0.5" fill="rgb(0,0,0)" />
<circle cx="7.09286" cy="5.11954" r="0.5" fill="rgb(0,0,0)" />
<circle cx="11.1422" cy="0.922377" r="0.5" fill="rgb(0,0,0)" />
<circle cx="15.8692" cy="6.33069" r="0.5" fill="rgb(0,0,0)" />
<circle cx="2.29157" cy="5.5536" r="0.5" fill="rgb(0,0,0)" />
<circle cx="12.7465" cy="1.77329" r="0.5" fill="rgb(0,0,0)" />
<circle cx="17.9511" cy="6.69927" r="0.5" fill="rgb(0,0,0)" />
<circle cx="5.66056" cy="7.48884" r="0.5" fill="rgb(0,0,0)" />
<circle cx="13.7543" cy="8.65701" r="0.5" fill="rgb(0,0,0)" />
<circle cx="17.2494" cy="3.75605" r="0.5" fill="rgb(0,0,0)" />
<circle cx="9.4763" cy="8.53662" r="0.5" fill="rgb(0,0,0)" />
<circle cx="4.01556" cy="9.45593" r="0.5" fill="rgb(0,0,0)" />
<circle cx="15.9463" cy="10.2012" r="0.5" fill="rgb(0,0,0)" />
<circle cx="13.7413" cy="10.7302" r="0.5" fill="rgb(0,0,0)" />
<circle cx="11.1763" cy="10.9921" r="0.5" fill="rgb(0,0,0)" />
<circle cx="3.8303" cy="11.7659" r="0.5" fill="rgb(0,0,0)" />
<circle cx="12.5743" cy="12.4687" r="0.5" fill="rgb(0,0,0)" />
<circle cx="16.444" cy="1.67852" r="0.5" fill="rgb(0,0,0)" />
<circle cx="8.25954" cy="12.5422" r="0.5" fill="rgb(0,0,0)" />
<circle cx="14.2907" cy="13.5989" r="0.5" fill="rgb(0,0,0)" />
<circle cx="10.1406" cy="13.2019" r="0.5" fill="rgb(0,0,0)" />
<circle cx="6.14213" cy="12.9378" r="0.5" fill="rgb(0,0,0)" />
<circle cx="12.4568" cy="14.2264" r="0.5" fill="rgb(0,0,0)" />
<circle cx="8.29559" cy="1.09968" r="0.5" fill="rgb(0,0,0)" />
<circle cx="16.3083" cy="14.27" r="0.5" fill="rgb(0,0,0)" />
<circle cx="17.829" cy="14.6422" r="0.5" fill="rgb(0,0,0)" />
<circle cx="14.1875" cy="15.6776" r="0.5" fill="rgb(0,0,0)" />
<circle cx="10.6074" cy="15.2319" r="0.5" fill="rgb(0,0,0)" />
<circle cx="11.2828" cy="3.88349" r="0.5" fill="rgb(0,0,0)" />
<circle cx="6.37372" cy="10.052" r="0.5" fill="rgb(0,0,0)" />
<circle cx="12.6316" cy="15.7754" r="0.5" fill="rgb(0,0,0)" />
<circle cx="8.01965" cy="15.0737" r="0.5" fill="rgb(0,0,0)" />
<circle cx="16.1522" cy="16.4691" r="0.5" fill="rgb(0,0,0)" />
<circle cx="14.0677" cy="17.0032" r="0.5" fill="rgb(0,0,0)" />
<circle cx="6.90917" cy="16.6188" r="0.5" fill="rgb(0,0,0)" />
<circle cx="0.948811" cy="3.98227" r="0.5" fill="rgb(0,0,0)" />
<circle cx="11.9236" cy="17.1496" r="0.5" fill="rgb(0,0,0)" />
<circle cx="15.9265" cy="17.8004" r="0.5" fill="rgb(0,0,0)" />
<circle cx="2.52143" cy="8.33691" r="0.5" fill="rgb(0,0,0)" />
<circle cx="4.47075" cy="17.6483" r="0.5" fill="rgb(0,0,0)" />
<circle cx="3.95039" cy="6.37075" r="0.5" fill="rgb(0,0,0)" />
<circle cx="10.0655" cy="17.4456" r="0.5" fill="rgb(0,0,0)" />
<circle cx="15.1886" cy="15.0938" r="0.5" fill="rgb(0,0,0)" />
<circle cx="12.3403" cy="18.3935" r="0.5" fill="rgb(0,0,0)" />
<circle cx="17.8293" cy="12.4295" r="0.5" fill="rgb(0,0,0)" />
<circle cx="8.75554" cy="10.4516" r="0.5" fill="rgb(0,0,0)" />
<circle cx="1.29122" cy="13.1021" r="0.5" fill="rgb(0,0,0)" />
<circle cx="13.0268" cy="4.16962" r="0.5" fill="rgb(0,0,0)" />
<circle cx="12.3044" cy="6.53089" r="0.5" fill="rgb(0,0,0)" />
<circle cx="15.5298" cy="18.5843" r="0.5" fill="rgb(0,0,0)" />
<circle cx="11.5516" cy="8.81002" r="0.5" fill="rgb(0,0,0)" />
<circle cx="3.86285" cy="14.2995" r="0.5" fill="rgb(0,0,0)" />
<circle cx="17.3185" cy="17.9298" r="0.5" fill="rgb(0,0,0)" />
<circle cx="17.9655" cy="10.148" r="0.5" fill="rgb(0,0,0)" />
<circle cx="18.1604" cy="8.21662" r="0.5" fill="rgb(0,0,0)" />
<circle cx="1.20404" cy="10.6188" r="0.5" fill="rgb(0,0,0)" />
<circle cx="14.4631" cy="7.13162" r="0.5" fill="rgb(0,0,0)" />
<circle cx="1.04185" cy="15.4327" r="0.5" fill="rgb(0,0,0)" />
<circle cx="14.0899" cy="2.60454" r="0.5" fill="rgb(0,0,0)" />
<circle cx="16.2395" cy="8.24484" r="0.5" fill="rgb(0,0,0)" />
<circle cx="6.19953" cy="18.1551" r="0.5" fill="rgb(0,0,0)" />
<circle cx="8.3404" cy="17.9179" r="0.5" fill="rgb(0,0,0)" />
<circle cx="0.768205" cy="8.35105" r="0.5" fill="rgb(0,0,0)" />
<circle cx="14.1787" cy="18.239" r="0.5" fill="rgb(0,0,0)" />
<circle cx="0.7254" cy="6.35944" r="0.5" fill="rgb(0,0,0)" />
<circle cx="18.4245" cy="17.8732" r="0.5" fill="rgb(0,0,0)" />
<circle cx="18.1707" cy="16.0358" r="0.5" fill="rgb(0,0,0)" />
<circle cx="10.007" cy="6.05798" r="0.5" fill="rgb(0,0,0)" />
<circle cx="15.5227" cy="12.2534" r="0.5" fill="rgb(0,0,0)" />
<circle cx="0.929943" cy="1.40651" r="0.5" fill="rgb(0,0,0)" />
<circle cx="7.83777" cy="7.36051" r="0.5" fill="rgb(0,0,0)" />
<circle cx="3.07032" cy="0.954865" r="0.5" fill="rgb(0,0,0)" />
<circle cx="2.76956" cy="18.2506" r="0.5" fill="rgb(0,0,0)" />
<circle cx="0.809501" cy="17.8153" r="0.5" fill="rgb(0,0,0)" />
<circle cx="5.60835" cy="3.74181" r="0.5" fill="rgb(0,0,0)" />
<circle cx="5.43431" cy="15.6291" r="0.5" fill="rgb(0,0,0)" />
<circle cx="18.33" cy="4.94768" r="0.5" fill="rgb(0,0,0)" />
<circle cx="18.1923" cy="2.98763" r="0.5" fill="rgb(0,0,0)" />
<circle cx="2.79417" cy="16.3948" r="0.5" fill="rgb(0,0,0)" />
<circle cx="18.1304" cy="1.6395" r="0.5" fill="rgb(0,0,0)" />
<circle cx="17.5826" cy="0.46266" r="0.5" fill="rgb(0,0,0)" />
</svg>
