<?xml version="1.0" standalone="no" ?>
<!DOCTYPE svg PUBLIC "-//W3C//DTD SVG 1.1//EN" "http://www.w3.org/Graphics/SVG/1.1/DTD/svg11.dtd">
<svg width="445px" height="311px" xmlns="http://www.w3.org/2000/svg" version="1.1" >
	<circle cx="235" cy="200" r="2.01613" fill="rgb(148,148,148)" />
	<circle cx="148" cy="280" r="2.7933" fill="rgb(79,79,79)" />
	<circle cx="63" cy="228" r="2.14592" fill="rgb(133,133,133)" />
	<circle cx="293" cy="129" r="2.23214" fill="rgb(124,124,124)" />
	<circle cx="149" cy="257" r="2.33645" fill="rgb(114,114,114)" />
	<circle cx="250" cy="207" r="2.27273" fill="rgb(120,120,120)" />
	<circle cx="198" cy="248" r="2.24215" fill="rgb(123,123,123)" />
	<circle cx="254" cy="163" r="1.96078" fill="rgb(155,155,155)" />
	<circle cx="55" cy="105" r="1.78571" fill="rgb(180,180,180)" />
	<circle cx="191" cy="136" r="1.95312" fill="rgb(156,156,156)" />
	<circle cx="376" cy="149" r="4.85437" fill="rgb(3,3,3)" />
	<circle cx="205" cy="74" r="1.6129" fill="rgb(210,210,210)" />
	<circle cx="191" cy="175" r="1.96078" fill="rgb(155,155,155)" />
	<circle cx="187" cy="157" r="1.92308" fill="rgb(160,160,160)" />
	<circle cx="52" cy="281" r="2.5641" fill="rgb(95,95,95)" />
	<circle cx="170" cy="282" r="2.85714" fill="rgb(75,75,75)" />
	<circle cx="266" cy="94" r="4.7619" fill="rgb(5,5,5)" />
	<circle cx="280" cy="171" r="2.12766" fill="rgb(135,135,135)" />
	<circle cx="338" cy="180" r="2.10084" fill="rgb(138,138,138)" />
	<circle cx="92" cy="254" r="2.31481" fill="rgb(116,116,116)" />
	<circle cx="207" cy="233" r="2.04918" fill="rgb(144,144,144)" />
	<circle cx="216" cy="108" r="1.99203" fill="rgb(151,151,151)" />
	<circle cx="30" cy="222" r="2.15517" fill="rgb(132,132,132)" />
	<circle cx="316" cy="132" r="3.37838" fill="rgb(48,48,48)" />
	<circle cx="360" cy="275" r="2.55102" fill="rgb(96,96,96)" />
	<circle cx="214" cy="144" r="1.9084" fill="rgb(162,162,162)" />
	<circle cx="390" cy="268" r="2.25225" fill="rgb(122,122,122)" />
	<circle cx="120" cy="117" r="1.77305" fill="rgb(182,182,182)" />
	<circle cx="118" cy="232" r="2.5641" fill="rgb(95,95,95)" />
	<circle cx="332" cy="129" r="4.38596" fill="rgb(14,14,14)" />
	<circle cx="313" cy="212" r="2.29358" fill="rgb(118,118,118)" />
	<circle cx="371" cy="215" r="2.40385" fill="rgb(108,108,108)" />
	<circle cx="404" cy="193" r="2.35849" fill="rgb(112,112,112)" />
	<circle cx="201" cy="187" r="2.01613" fill="rgb(148,148,148)" />
	<circle cx="172" cy="220" r="2.02429" fill="rgb(147,147,147)" />
	<circle cx="148" cy="72" r="1.85185" fill="rgb(170,170,170)" />
	<circle cx="62" cy="255" r="2.31481" fill="rgb(116,116,116)" />
	<circle cx="348" cy="138" r="4.5045" fill="rgb(11,11,11)" />
	<circle cx="234" cy="160" r="2.15517" fill="rgb(132,132,132)" />
	<circle cx="330" cy="150" r="2.65957" fill="rgb(88,88,88)" />
	<circle cx="265" cy="108" r="2.95858" fill="rgb(69,69,69)" />
	<circle cx="290" cy="241" r="2.24215" fill="rgb(123,123,123)" />
	<circle cx="353" cy="163" r="3.62319" fill="rgb(38,38,38)" />
	<circle cx="303" cy="156" r="2.14592" fill="rgb(133,133,133)" />
	<circle cx="114" cy="178" r="1.88679" fill="rgb(165,165,165)" />
	<circle cx="270" cy="145" r="1.99203" fill="rgb(151,151,151)" />
	<circle cx="210" cy="211" r="1.9084" fill="rgb(162,162,162)" />
	<circle cx="126" cy="251" r="2.27273" fill="rgb(120,120,120)" />
	<circle cx="85" cy="202" r="1.98413" fill="rgb(152,152,152)" />
	<circle cx="152" cy="192" r="2.03252" fill="rgb(146,146,146)" />
	<circle cx="410" cy="235" r="1.98413" fill="rgb(152,152,152)" />
	<circle cx="242" cy="180" r="2.01613" fill="rgb(148,148,148)" />
	<circle cx="361" cy="245" r="2.39234" fill="rgb(109,109,109)" />
	<circle cx="272" cy="218" r="2.01613" fill="rgb(148,148,148)" />
	<circle cx="97" cy="228" r="2.32558" fill="rgb(115,115,115)" />
	<circle cx="318" cy="246" r="2.09205" fill="rgb(139,139,139)" />
	<circle cx="127" cy="277" r="3.01205" fill="rgb(66,66,66)" />
	<circle cx="176" cy="107" r="1.89394" fill="rgb(164,164,164)" />
	<circle cx="31" cy="251" r="2.22222" fill="rgb(125,125,125)" />
	<circle cx="145" cy="150" r="1.86567" fill="rgb(168,168,168)" />
	<circle cx="167" cy="173" r="1.9685" fill="rgb(154,154,154)" />
	<circle cx="237" cy="89" r="4.62963" fill="rgb(8,8,8)" />
	<circle cx="357" cy="196" r="2.5" fill="rgb(100,100,100)" />
	<circle cx="380" cy="165" r="3.24675" fill="rgb(54,54,54)" />
	<circle cx="394" cy="153" r="4.06504" fill="rgb(23,23,23)" />
	<circle cx="219" cy="172" r="1.97628" fill="rgb(153,153,153)" />
	<circle cx="134" cy="213" r="2.19298" fill="rgb(128,128,128)" />
	<circle cx="342" cy="217" r="2.38095" fill="rgb(110,110,110)" />
	<circle cx="264" cy="188" r="2.1097" fill="rgb(137,137,137)" />
	<circle cx="364" cy="141" r="4.62963" fill="rgb(8,8,8)" />
	<circle cx="248" cy="120" r="2.00803" fill="rgb(149,149,149)" />
	<circle cx="31" cy="276" r="2.77778" fill="rgb(80,80,80)" />
	<circle cx="106" cy="274" r="2.6178" fill="rgb(91,91,91)" />
	<circle cx="80" cy="281" r="2.76243" fill="rgb(81,81,81)" />
	<circle cx="170" cy="244" r="2.1645" fill="rgb(131,131,131)" />
	<circle cx="88" cy="109" r="1.79211" fill="rgb(179,179,179)" />
	<circle cx="241" cy="142" r="2.02429" fill="rgb(147,147,147)" />
	<circle cx="421" cy="185" r="4.80769" fill="rgb(4,4,4)" />
	<circle cx="222" cy="260" r="1.9685" fill="rgb(154,154,154)" />
	<circle cx="269" cy="262" r="2.02429" fill="rgb(147,147,147)" />
	<circle cx="253" cy="93" r="4.90196" fill="rgb(2,2,2)" />
	<circle cx="221" cy="192" r="1.4881" fill="rgb(236,236,236)" />
	<circle cx="278" cy="99" r="4.5045" fill="rgb(11,11,11)" />
	<circle cx="301" cy="113" r="4.54545" fill="rgb(10,10,10)" />
	<circle cx="68" cy="163" r="1.87266" fill="rgb(167,167,167)" />
	<circle cx="301" cy="186" r="2.08333" fill="rgb(140,140,140)" />
	<circle cx="243" cy="101" r="4.16667" fill="rgb(20,20,20)" />
	<circle cx="170" cy="142" r="1.9305" fill="rgb(159,159,159)" />
	<circle cx="332" cy="275" r="2.17391" fill="rgb(130,130,130)" />
	<circle cx="375" cy="185" r="2.25225" fill="rgb(122,122,122)" />
	<circle cx="182" cy="201" r="2.04918" fill="rgb(144,144,144)" />
	<circle cx="356" cy="154" r="4.7619" fill="rgb(5,5,5)" />
	<circle cx="235" cy="224" r="2.09205" fill="rgb(139,139,139)" />
	<circle cx="223" cy="191" r="2.09205" fill="rgb(139,139,139)" />
	<circle cx="146" cy="232" r="2.23214" fill="rgb(124,124,124)" />
	<circle cx="181" cy="266" r="2.08333" fill="rgb(140,140,140)" />
	<circle cx="286" cy="109" r="4.16667" fill="rgb(20,20,20)" />
	<circle cx="40" cy="188" r="1.97628" fill="rgb(153,153,153)" />
	<circle cx="407" cy="170" r="4.71698" fill="rgb(6,6,6)" />
	<circle cx="316" cy="118" r="4.38596" fill="rgb(14,14,14)" />
</svg>
