<?xml version="1.0" standalone="no" ?>
<!DOCTYPE svg PUBLIC "-//W3C//DTD SVG 1.1//EN" "http://www.w3.org/Graphics/SVG/1.1/DTD/svg11.dtd">
<svg width="445px" height="311px" xmlns="http://www.w3.org/2000/svg" version="1.1" >
	<circle cx="76" cy="64" r="1.78571" fill="rgb(180,180,180)" />
	<circle cx="366" cy="270" r="2.46305" fill="rgb(103,103,103)" />
	<circle cx="249" cy="202" r="2.15517" fill="rgb(132,132,132)" />
	<circle cx="83" cy="279" r="2.6738" fill="rgb(87,87,87)" />
	<circle cx="324" cy="199" r="2.26244" fill="rgb(121,121,121)" />
	<circle cx="293" cy="219" r="2.19298" fill="rgb(128,128,128)" />
	<circle cx="164" cy="159" r="1.96078" fill="rgb(155,155,155)" />
	<circle cx="189" cy="173" r="1.9305" fill="rgb(159,159,159)" />
	<circle cx="136" cy="238" r="2.30415" fill="rgb(117,117,117)" />
	<circle cx="81" cy="252" r="2.26244" fill="rgb(121,121,121)" />
	<circle cx="403" cy="248" r="1.98413" fill="rgb(152,152,152)" />
	<circle cx="350" cy="247" r="2.38095" fill="rgb(110,110,110)" />
	<circle cx="352" cy="214" r="2.35849" fill="rgb(112,112,112)" />
	<circle cx="379" cy="151" r="4.62963" fill="rgb(8,8,8)" />
	<circle cx="340" cy="172" r="2.22222" fill="rgb(125,125,125)" />
	<circle cx="338" cy="135" r="4.31034" fill="rgb(16,16,16)" />
	<circle cx="254" cy="118" r="2.12766" fill="rgb(135,135,135)" />
	<circle cx="262" cy="102" r="3.57143" fill="rgb(40,40,40)" />
	<circle cx="173" cy="253" r="2.14592" fill="rgb(133,133,133)" />
	<circle cx="210" cy="146" r="1.9305" fill="rgb(159,159,159)" />
	<circle cx="107" cy="285" r="4.5045" fill="rgb(11,11,11)" />
	<circle cx="288" cy="137" r="2.08333" fill="rgb(140,140,140)" />
	<circle cx="127" cy="270" r="2.5" fill="rgb(100,100,100)" />
	<circle cx="178" cy="76" r="1.93798" fill="rgb(158,158,158)" />
	<circle cx="85" cy="84" r="1.82482" fill="rgb(174,174,174)" />
	<circle cx="395" cy="160" r="3.7037" fill="rgb(35,35,35)" />
	<circle cx="240" cy="94" r="4.62963" fill="rgb(8,8,8)" />
	<circle cx="368" cy="243" r="2.43902" fill="rgb(105,105,105)" />
	<circle cx="150" cy="262" r="2.36967" fill="rgb(111,111,111)" />
	<circle cx="236" cy="123" r="1.96078" fill="rgb(155,155,155)" />
	<circle cx="93" cy="105" r="1.76678" fill="rgb(183,183,183)" />
	<circle cx="82" cy="226" r="2.22222" fill="rgb(125,125,125)" />
	<circle cx="210" cy="86" r="2.27273" fill="rgb(120,120,120)" />
	<circle cx="277" cy="99" r="4.6729" fill="rgb(7,7,7)" />
	<circle cx="53" cy="120" r="1.79211" fill="rgb(179,179,179)" />
	<circle cx="142" cy="282" r="3.10559" fill="rgb(61,61,61)" />
	<circle cx="181" cy="230" r="2.07469" fill="rgb(141,141,141)" />
	<circle cx="292" cy="243" r="2.24215" fill="rgb(123,123,123)" />
	<circle cx="417" cy="186" r="4.85437" fill="rgb(3,3,3)" />
	<circle cx="183" cy="200" r="2.03252" fill="rgb(146,146,146)" />
	<circle cx="260" cy="262" r="2.06612" fill="rgb(142,142,142)" />
	<circle cx="303" cy="280" r="1.5674" fill="rgb(219,219,219)" />
	<circle cx="386" cy="272" r="2.30415" fill="rgb(117,117,117)" />
	<circle cx="137" cy="81" r="1.77936" fill="rgb(181,181,181)" />
	<circle cx="419" cy="191" r="1.57729" fill="rgb(217,217,217)" />
	<circle cx="323" cy="245" r="2.04918" fill="rgb(144,144,144)" />
	<circle cx="337" cy="222" r="2.42718" fill="rgb(106,106,106)" />
	<circle cx="154" cy="228" r="2.1645" fill="rgb(131,131,131)" />
	<circle cx="319" cy="125" r="4.46429" fill="rgb(12,12,12)" />
	<circle cx="206" cy="115" r="1.9305" fill="rgb(159,159,159)" />
	<circle cx="271" cy="174" r="2.06612" fill="rgb(142,142,142)" />
	<circle cx="363" cy="151" r="4.80769" fill="rgb(4,4,4)" />
	<circle cx="100" cy="148" r="1.76056" fill="rgb(184,184,184)" />
	<circle cx="39" cy="212" r="2.05761" fill="rgb(143,143,143)" />
	<circle cx="223" cy="181" r="2.04918" fill="rgb(144,144,144)" />
	<circle cx="115" cy="190" r="1.96078" fill="rgb(155,155,155)" />
	<circle cx="110" cy="227" r="2.33645" fill="rgb(114,114,114)" />
	<circle cx="365" cy="199" r="2.40385" fill="rgb(108,108,108)" />
	<circle cx="395" cy="182" r="2.38095" fill="rgb(110,110,110)" />
	<circle cx="246" cy="157" r="2.03252" fill="rgb(146,146,146)" />
	<circle cx="25" cy="183" r="2.17391" fill="rgb(130,130,130)" />
	<circle cx="140" cy="119" r="1.79856" fill="rgb(178,178,178)" />
	<circle cx="52" cy="260" r="2.26244" fill="rgb(121,121,121)" />
	<circle cx="70" cy="289" r="1.5528" fill="rgb(222,222,222)" />
	<circle cx="147" cy="199" r="2.05761" fill="rgb(143,143,143)" />
	<circle cx="64" cy="278" r="2.57732" fill="rgb(94,94,94)" />
	<circle cx="44" cy="286" r="2.85714" fill="rgb(75,75,75)" />
	<circle cx="77" cy="167" r="1.89394" fill="rgb(164,164,164)" />
	<circle cx="368" cy="172" r="2.74725" fill="rgb(82,82,82)" />
	<circle cx="301" cy="115" r="4.5045" fill="rgb(11,11,11)" />
	<circle cx="79" cy="199" r="1.95312" fill="rgb(156,156,156)" />
	<circle cx="48" cy="151" r="1.88679" fill="rgb(165,165,165)" />
	<circle cx="317" cy="148" r="2.39234" fill="rgb(109,109,109)" />
	<circle cx="164" cy="281" r="2.84091" fill="rgb(76,76,76)" />
	<circle cx="213" cy="222" r="1.97628" fill="rgb(153,153,153)" />
	<circle cx="23" cy="249" r="2.18341" fill="rgb(129,129,129)" />
	<circle cx="163" cy="131" r="1.87266" fill="rgb(167,167,167)" />
	<circle cx="31" cy="271" r="2.73224" fill="rgb(83,83,83)" />
	<circle cx="350" cy="147" r="4.7619" fill="rgb(5,5,5)" />
	<circle cx="173" cy="106" r="1.84502" fill="rgb(171,171,171)" />
	<circle cx="212" cy="267" r="2.06612" fill="rgb(142,142,142)" />
	<circle cx="123" cy="283" r="4.23729" fill="rgb(18,18,18)" />
	<circle cx="291" cy="190" r="2.06612" fill="rgb(142,142,142)" />
	<circle cx="114" cy="247" r="2.40385" fill="rgb(108,108,108)" />
	<circle cx="380" cy="223" r="2.09205" fill="rgb(139,139,139)" />
	<circle cx="106" cy="270" r="2.47525" fill="rgb(102,102,102)" />
	<circle cx="49" cy="236" r="2.1645" fill="rgb(131,131,131)" />
	<circle cx="46" cy="181" r="1.94553" fill="rgb(157,157,157)" />
	<circle cx="182" cy="280" r="2.46305" fill="rgb(103,103,103)" />
	<circle cx="313" cy="223" r="2.40385" fill="rgb(108,108,108)" />
	<circle cx="341" cy="276" r="2.24215" fill="rgb(123,123,123)" />
	<circle cx="284" cy="110" r="3.96825" fill="rgb(26,26,26)" />
	<circle cx="412" cy="216" r="1.98413" fill="rgb(152,152,152)" />
	<circle cx="420" cy="270" r="2.1645" fill="rgb(131,131,131)" />
	<circle cx="134" cy="150" r="1.8315" fill="rgb(173,173,173)" />
	<circle cx="247" cy="231" r="1.98413" fill="rgb(152,152,152)" />
	<circle cx="119" cy="112" r="1.76056" fill="rgb(184,184,184)" />
	<circle cx="152" cy="58" r="2.1097" fill="rgb(137,137,137)" />
	<circle cx="131" cy="258" r="2.28311" fill="rgb(119,119,119)" />
	<circle cx="189" cy="97" r="1.46628" fill="rgb(241,241,241)" />
</svg>
