<?xml version="1.0" ?>
<!DOCTYPE svg PUBLIC "-//W3C//DTD SVG 1.1//EN" "http://www.w3.org/Graphics/SVG/1.1/DTD/svg11.dtd">
<svg width="20" height="20" version="1.1" xmlns="http://www.w3.org/2000/svg">
<circle cx="7.58992" cy="0.187645" r="0.5" fill="rgb(0,0,0)" />
<circle cx="6.71446" cy="0.303399" r="0.5" fill="rgb(0,0,0)" />
<circle cx="10.3595" cy="0.298036" r="0.5" fill="rgb(0,0,0)" />
<circle cx="13.579" cy="0.318215" r="0.5" fill="rgb(0,0,0)" />
<circle cx="5.73629" cy="0.369383" r="0.5" fill="rgb(0,0,0)" />
<circle cx="12.5458" cy="0.363346" r="0.5" fill="rgb(0,0,0)" />
<circle cx="9.34901" cy="0.538003" r="0.5" fill="rgb(0,0,0)" />
<circle cx="11.9942" cy="0.791508" r="0.5" fill="rgb(0,0,0)" />
<circle cx="17.3423" cy="0.589203" r="0.5" fill="rgb(0,0,0)" />
<circle cx="13.2747" cy="1.07855" r="0.5" fill="rgb(0,0,0)" />
<circle cx="11.2305" cy="0.660423" r="0.5" fill="rgb(0,0,0)" />
<circle cx="16.0142" cy="0.724504" r="0.5" fill="rgb(0,0,0)" />
<circle cx="13.4855" cy="1.64133" r="0.5" fill="rgb(0,0,0)" />
<circle cx="5.52088" cy="1.28644" r="0.5" fill="rgb(0,0,0)" />
<circle cx="6.75325" cy="1.25063" r="0.5" fill="rgb(0,0,0)" />
<circle cx="14.682" cy="1.34481" r="0.5" fill="rgb(0,0,0)" />
<circle cx="11.9922" cy="1.69003" r="0.5" fill="rgb(0,0,0)" />
<circle cx="4.54877" cy="1.5675" r="0.5" fill="rgb(0,0,0)" />
<circle cx="6.35851" cy="1.84372" r="0.5" fill="rgb(0,0,0)" />
<circle cx="7.84302" cy="1.74027" r="0.5" fill="rgb(0,0,0)" />
<circle cx="13.5079" cy="2.35748" r="0.5" fill="rgb(0,0,0)" />
<circle cx="14.2791" cy="2.21705" r="0.5" fill="rgb(0,0,0)" />
<circle cx="5.72119" cy="2.35295" r="0.5" fill="rgb(0,0,0)" />
<circle cx="1.8272" cy="1.96271" r="0.5" fill="rgb(0,0,0)" />
<circle cx="12.5454" cy="2.3067" r="0.5" fill="rgb(0,0,0)" />
<circle cx="13.07" cy="2.78843" r="0.5" fill="rgb(0,0,0)" />
<circle cx="4.34132" cy="0.482614" r="0.5" fill="rgb(0,0,0)" />
<circle cx="7.66553" cy="2.67328" r="0.5" fill="rgb(0,0,0)" />
<circle cx="6.75638" cy="2.75449" r="0.5" fill="rgb(0,0,0)" />
<circle cx="17.9768" cy="2.6048" r="0.5" fill="rgb(0,0,0)" />
<circle cx="3.19423" cy="1.56304" r="0.5" fill="rgb(0,0,0)" />
<circle cx="15.8858" cy="2.27656" r="0.5" fill="rgb(0,0,0)" />
<circle cx="15.2935" cy="2.60343" r="0.5" fill="rgb(0,0,0)" />
<circle cx="8.68321" cy="2.79811" r="0.5" fill="rgb(0,0,0)" />
<circle cx="14.5789" cy="3.0836" r="0.5" fill="rgb(0,0,0)" />
<circle cx="16.6738" cy="2.27623" r="0.5" fill="rgb(0,0,0)" />
<circle cx="13.7184" cy="3.31186" r="0.5" fill="rgb(0,0,0)" />
<circle cx="2.24506" cy="3.03407" r="0.5" fill="rgb(0,0,0)" />
<circle cx="9.70284" cy="3.45595" r="0.5" fill="rgb(0,0,0)" />
<circle cx="4.40893" cy="3.57307" r="0.5" fill="rgb(0,0,0)" />
<circle cx="7.54104" cy="0.896894" r="0.5" fill="rgb(0,0,0)" />
<circle cx="5.29775" cy="3.65337" r="0.5" fill="rgb(0,0,0)" />
<circle cx="1.53238" cy="3.66574" r="0.5" fill="rgb(0,0,0)" />
<circle cx="6.4297" cy="3.84356" r="0.5" fill="rgb(0,0,0)" />
<circle cx="8.32463" cy="3.74161" r="0.5" fill="rgb(0,0,0)" />
<circle cx="15.4612" cy="3.77194" r="0.5" fill="rgb(0,0,0)" />
<circle cx="17.6333" cy="3.99128" r="0.5" fill="rgb(0,0,0)" />
<circle cx="2.77924" cy="4.00677" r="0.5" fill="rgb(0,0,0)" />
<circle cx="4.75343" cy="4.3867" r="0.5" fill="rgb(0,0,0)" />
<circle cx="14.6334" cy="4.286" r="0.5" fill="rgb(0,0,0)" />
<circle cx="16.6818" cy="4.4547" r="0.5" fill="rgb(0,0,0)" />
<circle cx="15.8905" cy="4.51306" r="0.5" fill="rgb(0,0,0)" />
<circle cx="10.6469" cy="3.98864" r="0.5" fill="rgb(0,0,0)" />
<circle cx="5.50752" cy="4.54548" r="0.5" fill="rgb(0,0,0)" />
<circle cx="1.26845" cy="4.79228" r="0.5" fill="rgb(0,0,0)" />
<circle cx="12.0546" cy="4.75489" r="0.5" fill="rgb(0,0,0)" />
<circle cx="15.2761" cy="5.11279" r="0.5" fill="rgb(0,0,0)" />
<circle cx="9.16836" cy="5.0077" r="0.5" fill="rgb(0,0,0)" />
<circle cx="2.25391" cy="4.85026" r="0.5" fill="rgb(0,0,0)" />
<circle cx="7.98229" cy="4.91061" r="0.5" fill="rgb(0,0,0)" />
<circle cx="4.53654" cy="5.34982" r="0.5" fill="rgb(0,0,0)" />
<circle cx="17.2276" cy="1.74248" r="0.5" fill="rgb(0,0,0)" />
<circle cx="14.0187" cy="5.13435" r="0.5" fill="rgb(0,0,0)" />
<circle cx="5.79182" cy="5.82842" r="0.5" fill="rgb(0,0,0)" />
<circle cx="3.12315" cy="5.45478" r="0.5" fill="rgb(0,0,0)" />
<circle cx="10.7435" cy="5.74606" r="0.5" fill="rgb(0,0,0)" />
<circle cx="18.2884" cy="5.65405" r="0.5" fill="rgb(0,0,0)" />
<circle cx="1.30302" cy="5.83048" r="0.5" fill="rgb(0,0,0)" />
<circle cx="15.6527" cy="6.0392" r="0.5" fill="rgb(0,0,0)" />
<circle cx="10.6121" cy="2.61" r="0.5" fill="rgb(0,0,0)" />
<circle cx="7.55846" cy="6.09323" r="0.5" fill="rgb(0,0,0)" />
<circle cx="12.929" cy="5.92112" r="0.5" fill="rgb(0,0,0)" />
<circle cx="4.12978" cy="2.45109" r="0.5" fill="rgb(0,0,0)" />
<circle cx="11.6269" cy="5.71059" r="0.5" fill="rgb(0,0,0)" />
<circle cx="5.88703" cy="5.12089" r="0.5" fill="rgb(0,0,0)" />
<circle cx="10.4844" cy="6.54205" r="0.5" fill="rgb(0,0,0)" />
<circle cx="6.01507" cy="6.52684" r="0.5" fill="rgb(0,0,0)" />
<circle cx="3.79809" cy="6.31966" r="0.5" fill="rgb(0,0,0)" />
<circle cx="17.0334" cy="6.44645" r="0.5" fill="rgb(0,0,0)" />
<circle cx="9.45119" cy="6.66348" r="0.5" fill="rgb(0,0,0)" />
<circle cx="16.4387" cy="5.49492" r="0.5" fill="rgb(0,0,0)" />
<circle cx="8.53946" cy="6.87517" r="0.5" fill="rgb(0,0,0)" />
<circle cx="7.68096" cy="7.17545" r="0.5" fill="rgb(0,0,0)" />
<circle cx="14.635" cy="6.91607" r="0.5" fill="rgb(0,0,0)" />
<circle cx="1.57758" cy="7.17795" r="0.5" fill="rgb(0,0,0)" />
<circle cx="5.38023" cy="7.40622" r="0.5" fill="rgb(0,0,0)" />
<circle cx="15.7377" cy="7.18336" r="0.5" fill="rgb(0,0,0)" />
<circle cx="12.4192" cy="7.08987" r="0.5" fill="rgb(0,0,0)" />
<circle cx="6.61573" cy="7.61949" r="0.5" fill="rgb(0,0,0)" />
<circle cx="10.1774" cy="7.49667" r="0.5" fill="rgb(0,0,0)" />
<circle cx="9.19149" cy="1.7182" r="0.5" fill="rgb(0,0,0)" />
<circle cx="11.2431" cy="7.34686" r="0.5" fill="rgb(0,0,0)" />
<circle cx="2.78462" cy="7.00028" r="0.5" fill="rgb(0,0,0)" />
<circle cx="3.43354" cy="7.87328" r="0.5" fill="rgb(0,0,0)" />
<circle cx="1.07666" cy="7.92794" r="0.5" fill="rgb(0,0,0)" />
<circle cx="7.34755" cy="8.10889" r="0.5" fill="rgb(0,0,0)" />
<circle cx="8.49994" cy="8.05638" r="0.5" fill="rgb(0,0,0)" />
<circle cx="17.086" cy="7.7115" r="0.5" fill="rgb(0,0,0)" />
<circle cx="13.4347" cy="8.08499" r="0.5" fill="rgb(0,0,0)" />
<circle cx="9.31289" cy="8.02944" r="0.5" fill="rgb(0,0,0)" />
<circle cx="2.82401" cy="8.44531" r="0.5" fill="rgb(0,0,0)" />
<circle cx="14.7615" cy="8.17612" r="0.5" fill="rgb(0,0,0)" />
<circle cx="3.80139" cy="4.52844" r="0.5" fill="rgb(0,0,0)" />
<circle cx="16.1941" cy="8.31183" r="0.5" fill="rgb(0,0,0)" />
<circle cx="3.60865" cy="3.5618" r="0.5" fill="rgb(0,0,0)" />
<circle cx="4.09688" cy="8.61746" r="0.5" fill="rgb(0,0,0)" />
<circle cx="8.38379" cy="0.618591" r="0.5" fill="rgb(0,0,0)" />
<circle cx="5.10515" cy="8.53744" r="0.5" fill="rgb(0,0,0)" />
<circle cx="10.2264" cy="8.52935" r="0.5" fill="rgb(0,0,0)" />
<circle cx="8.11201" cy="8.73801" r="0.5" fill="rgb(0,0,0)" />
<circle cx="7.32425" cy="9.03414" r="0.5" fill="rgb(0,0,0)" />
<circle cx="15.3315" cy="8.93642" r="0.5" fill="rgb(0,0,0)" />
<circle cx="2.46524" cy="9.28755" r="0.5" fill="rgb(0,0,0)" />
<circle cx="6.19337" cy="9.11242" r="0.5" fill="rgb(0,0,0)" />
<circle cx="13.9106" cy="9.07791" r="0.5" fill="rgb(0,0,0)" />
<circle cx="12.5187" cy="8.98186" r="0.5" fill="rgb(0,0,0)" />
<circle cx="3.42727" cy="9.39689" r="0.5" fill="rgb(0,0,0)" />
<circle cx="9.06603" cy="4.11118" r="0.5" fill="rgb(0,0,0)" />
<circle cx="1.40543" cy="9.2438" r="0.5" fill="rgb(0,0,0)" />
<circle cx="7.25283" cy="9.81058" r="0.5" fill="rgb(0,0,0)" />
<circle cx="15.9664" cy="9.63263" r="0.5" fill="rgb(0,0,0)" />
<circle cx="9.13718" cy="9.88716" r="0.5" fill="rgb(0,0,0)" />
<circle cx="14.4783" cy="5.83632" r="0.5" fill="rgb(0,0,0)" />
<circle cx="14.6857" cy="9.8524" r="0.5" fill="rgb(0,0,0)" />
<circle cx="6.09757" cy="8.17412" r="0.5" fill="rgb(0,0,0)" />
<circle cx="12.9087" cy="9.8283" r="0.5" fill="rgb(0,0,0)" />
<circle cx="4.42854" cy="10.2988" r="0.5" fill="rgb(0,0,0)" />
<circle cx="6.27435" cy="10.2268" r="0.5" fill="rgb(0,0,0)" />
<circle cx="5.53257" cy="10.417" r="0.5" fill="rgb(0,0,0)" />
<circle cx="6.87624" cy="10.4136" r="0.5" fill="rgb(0,0,0)" />
<circle cx="7.45684" cy="10.8396" r="0.5" fill="rgb(0,0,0)" />
<circle cx="9.60679" cy="10.6781" r="0.5" fill="rgb(0,0,0)" />
<circle cx="12.6705" cy="3.58579" r="0.5" fill="rgb(0,0,0)" />
<circle cx="17.1029" cy="10.6069" r="0.5" fill="rgb(0,0,0)" />
<circle cx="14.892" cy="11.4273" r="0.5" fill="rgb(0,0,0)" />
<circle cx="0.510249" cy="3.52152" r="0.5" fill="rgb(0,0,0)" />
<circle cx="14.0355" cy="11.1155" r="0.5" fill="rgb(0,0,0)" />
<circle cx="3.72964" cy="11.4563" r="0.5" fill="rgb(0,0,0)" />
<circle cx="0.877142" cy="11.1988" r="0.5" fill="rgb(0,0,0)" />
<circle cx="1.78916" cy="10.2191" r="0.5" fill="rgb(0,0,0)" />
<circle cx="10.8451" cy="10.9086" r="0.5" fill="rgb(0,0,0)" />
<circle cx="6.01467" cy="11.5199" r="0.5" fill="rgb(0,0,0)" />
<circle cx="12.5084" cy="11.7327" r="0.5" fill="rgb(0,0,0)" />
<circle cx="11.6135" cy="3.85988" r="0.5" fill="rgb(0,0,0)" />
<circle cx="2.2645" cy="11.5018" r="0.5" fill="rgb(0,0,0)" />
<circle cx="7.21345" cy="11.8037" r="0.5" fill="rgb(0,0,0)" />
<circle cx="2.76811" cy="9.97562" r="0.5" fill="rgb(0,0,0)" />
<circle cx="14.9999" cy="12.4675" r="0.5" fill="rgb(0,0,0)" />
<circle cx="3.3151" cy="12.4104" r="0.5" fill="rgb(0,0,0)" />
<circle cx="8.53315" cy="10.8148" r="0.5" fill="rgb(0,0,0)" />
<circle cx="6.71325" cy="12.5835" r="0.5" fill="rgb(0,0,0)" />
<circle cx="17.0722" cy="9.17871" r="0.5" fill="rgb(0,0,0)" />
<circle cx="10.3633" cy="12.2071" r="0.5" fill="rgb(0,0,0)" />
<circle cx="4.97171" cy="12.3994" r="0.5" fill="rgb(0,0,0)" />
<circle cx="13.4299" cy="12.6586" r="0.5" fill="rgb(0,0,0)" />
<circle cx="11.0603" cy="12.9488" r="0.5" fill="rgb(0,0,0)" />
<circle cx="14.7914" cy="0.355946" r="0.5" fill="rgb(0,0,0)" />
<circle cx="1.32158" cy="12.9559" r="0.5" fill="rgb(0,0,0)" />
<circle cx="10.4297" cy="1.45386" r="0.5" fill="rgb(0,0,0)" />
<circle cx="3.86654" cy="13.4391" r="0.5" fill="rgb(0,0,0)" />
<circle cx="6.21576" cy="13.3216" r="0.5" fill="rgb(0,0,0)" />
<circle cx="2.48904" cy="13.3199" r="0.5" fill="rgb(0,0,0)" />
<circle cx="9.36493" cy="13.4751" r="0.5" fill="rgb(0,0,0)" />
<circle cx="4.81397" cy="13.8348" r="0.5" fill="rgb(0,0,0)" />
<circle cx="13.4772" cy="13.9942" r="0.5" fill="rgb(0,0,0)" />
<circle cx="16.2462" cy="13.4072" r="0.5" fill="rgb(0,0,0)" />
<circle cx="6.68819" cy="6.81989" r="0.5" fill="rgb(0,0,0)" />
<circle cx="17.4118" cy="12.466" r="0.5" fill="rgb(0,0,0)" />
<circle cx="7.44977" cy="13.8011" r="0.5" fill="rgb(0,0,0)" />
<circle cx="5.8637" cy="14.1961" r="0.5" fill="rgb(0,0,0)" />
<circle cx="14.3776" cy="14.309" r="0.5" fill="rgb(0,0,0)" />
<circle cx="9.84525" cy="9.40183" r="0.5" fill="rgb(0,0,0)" />
<circle cx="15.5615" cy="14.4857" r="0.5" fill="rgb(0,0,0)" />
<circle cx="17.0842" cy="14.0811" r="0.5" fill="rgb(0,0,0)" />
<circle cx="10.0632" cy="14.2769" r="0.5" fill="rgb(0,0,0)" />
<circle cx="3.10721" cy="14.5229" r="0.5" fill="rgb(0,0,0)" />
<circle cx="4.89857" cy="14.9048" r="0.5" fill="rgb(0,0,0)" />
<circle cx="12.5111" cy="14.3831" r="0.5" fill="rgb(0,0,0)" />
<circle cx="5.94206" cy="3.27472" r="0.5" fill="rgb(0,0,0)" />
<circle cx="8.85316" cy="5.83435" r="0.5" fill="rgb(0,0,0)" />
<circle cx="11.0932" cy="14.2428" r="0.5" fill="rgb(0,0,0)" />
<circle cx="1.64877" cy="14.3882" r="0.5" fill="rgb(0,0,0)" />
<circle cx="13.4878" cy="15.0498" r="0.5" fill="rgb(0,0,0)" />
<circle cx="4.00104" cy="14.8839" r="0.5" fill="rgb(0,0,0)" />
<circle cx="4.69942" cy="11.1637" r="0.5" fill="rgb(0,0,0)" />
<circle cx="5.63087" cy="15.3133" r="0.5" fill="rgb(0,0,0)" />
<circle cx="17.9356" cy="14.8247" r="0.5" fill="rgb(0,0,0)" />
<circle cx="6.57693" cy="15.0468" r="0.5" fill="rgb(0,0,0)" />
<circle cx="8.28633" cy="12.2086" r="0.5" fill="rgb(0,0,0)" />
<circle cx="15.0619" cy="15.3276" r="0.5" fill="rgb(0,0,0)" />
<circle cx="2.28495" cy="15.4075" r="0.5" fill="rgb(0,0,0)" />
<circle cx="8.68167" cy="9.2302" r="0.5" fill="rgb(0,0,0)" />
<circle cx="5.68472" cy="16.0451" r="0.5" fill="rgb(0,0,0)" />
<circle cx="11.8461" cy="8.21365" r="0.5" fill="rgb(0,0,0)" />
<circle cx="4.72064" cy="15.8023" r="0.5" fill="rgb(0,0,0)" />
<circle cx="4.97911" cy="6.32177" r="0.5" fill="rgb(0,0,0)" />
<circle cx="14.2541" cy="15.7424" r="0.5" fill="rgb(0,0,0)" />
<circle cx="15.1303" cy="13.5287" r="0.5" fill="rgb(0,0,0)" />
<circle cx="3.2749" cy="15.8071" r="0.5" fill="rgb(0,0,0)" />
<circle cx="9.92128" cy="4.44753" r="0.5" fill="rgb(0,0,0)" />
<circle cx="16.3143" cy="15.3793" r="0.5" fill="rgb(0,0,0)" />
<circle cx="11.9836" cy="15.6737" r="0.5" fill="rgb(0,0,0)" />
<circle cx="1.32695" cy="16.4482" r="0.5" fill="rgb(0,0,0)" />
<circle cx="11.4865" cy="14.9612" r="0.5" fill="rgb(0,0,0)" />
<circle cx="3.95155" cy="16.1592" r="0.5" fill="rgb(0,0,0)" />
<circle cx="8.84605" cy="16.2312" r="0.5" fill="rgb(0,0,0)" />
<circle cx="6.54782" cy="16.4874" r="0.5" fill="rgb(0,0,0)" />
<circle cx="15.7252" cy="10.6545" r="0.5" fill="rgb(0,0,0)" />
<circle cx="17.2334" cy="16.1839" r="0.5" fill="rgb(0,0,0)" />
<circle cx="7.70935" cy="15.1225" r="0.5" fill="rgb(0,0,0)" />
<circle cx="5.52548" cy="16.7476" r="0.5" fill="rgb(0,0,0)" />
<circle cx="4.29357" cy="7.36586" r="0.5" fill="rgb(0,0,0)" />
<circle cx="12.6164" cy="16.5393" r="0.5" fill="rgb(0,0,0)" />
<circle cx="2.01287" cy="16.5519" r="0.5" fill="rgb(0,0,0)" />
<circle cx="10.1392" cy="15.7681" r="0.5" fill="rgb(0,0,0)" />
<circle cx="10.9493" cy="16.6194" r="0.5" fill="rgb(0,0,0)" />
<circle cx="15.1384" cy="16.4755" r="0.5" fill="rgb(0,0,0)" />
<circle cx="1.314" cy="17.2967" r="0.5" fill="rgb(0,0,0)" />
<circle cx="13.1323" cy="4.76004" r="0.5" fill="rgb(0,0,0)" />
<circle cx="4.06748" cy="9.61314" r="0.5" fill="rgb(0,0,0)" />
<circle cx="4.38851" cy="16.8061" r="0.5" fill="rgb(0,0,0)" />
<circle cx="16.854" cy="17.2611" r="0.5" fill="rgb(0,0,0)" />
<circle cx="6.83605" cy="5.52393" r="0.5" fill="rgb(0,0,0)" />
<circle cx="5.06346" cy="9.53327" r="0.5" fill="rgb(0,0,0)" />
<circle cx="15.8661" cy="17.0316" r="0.5" fill="rgb(0,0,0)" />
<circle cx="1.96417" cy="17.7331" r="0.5" fill="rgb(0,0,0)" />
<circle cx="16.6916" cy="3.3971" r="0.5" fill="rgb(0,0,0)" />
<circle cx="10.2514" cy="5.22677" r="0.5" fill="rgb(0,0,0)" />
<circle cx="7.74792" cy="17.1303" r="0.5" fill="rgb(0,0,0)" />
<circle cx="5.84125" cy="17.4191" r="0.5" fill="rgb(0,0,0)" />
<circle cx="1.21234" cy="17.8894" r="0.5" fill="rgb(0,0,0)" />
<circle cx="11.1241" cy="9.27612" r="0.5" fill="rgb(0,0,0)" />
<circle cx="11.9832" cy="17.4952" r="0.5" fill="rgb(0,0,0)" />
<circle cx="18.1008" cy="7.09518" r="0.5" fill="rgb(0,0,0)" />
<circle cx="2.81664" cy="17.7037" r="0.5" fill="rgb(0,0,0)" />
<circle cx="14.2623" cy="12.8812" r="0.5" fill="rgb(0,0,0)" />
<circle cx="9.07408" cy="17.3401" r="0.5" fill="rgb(0,0,0)" />
<circle cx="11.009" cy="17.7921" r="0.5" fill="rgb(0,0,0)" />
<circle cx="11.6195" cy="2.64265" r="0.5" fill="rgb(0,0,0)" />
<circle cx="8.11166" cy="9.91892" r="0.5" fill="rgb(0,0,0)" />
<circle cx="12.3124" cy="13.1468" r="0.5" fill="rgb(0,0,0)" />
<circle cx="8.4487" cy="14.3646" r="0.5" fill="rgb(0,0,0)" />
<circle cx="18.337" cy="17.0439" r="0.5" fill="rgb(0,0,0)" />
<circle cx="18.4618" cy="15.7095" r="0.5" fill="rgb(0,0,0)" />
<circle cx="14.4086" cy="17.9228" r="0.5" fill="rgb(0,0,0)" />
<circle cx="13.1947" cy="17.4521" r="0.5" fill="rgb(0,0,0)" />
<circle cx="15.4419" cy="17.9586" r="0.5" fill="rgb(0,0,0)" />
<circle cx="2.05908" cy="6.26492" r="0.5" fill="rgb(0,0,0)" />
<circle cx="17.6058" cy="17.9487" r="0.5" fill="rgb(0,0,0)" />
<circle cx="6.79103" cy="17.7231" r="0.5" fill="rgb(0,0,0)" />
<circle cx="8.25988" cy="18.0353" r="0.5" fill="rgb(0,0,0)" />
<circle cx="13.2491" cy="15.8529" r="0.5" fill="rgb(0,0,0)" />
<circle cx="4.87755" cy="17.7331" r="0.5" fill="rgb(0,0,0)" />
<circle cx="18.4296" cy="1.68367" r="0.5" fill="rgb(0,0,0)" />
<circle cx="13.7263" cy="4.12859" r="0.5" fill="rgb(0,0,0)" />
<circle cx="8.12585" cy="11.514" r="0.5" fill="rgb(0,0,0)" />
<circle cx="8.32054" cy="13.0241" r="0.5" fill="rgb(0,0,0)" />
<circle cx="14.1548" cy="16.9691" r="0.5" fill="rgb(0,0,0)" />
<circle cx="18.4538" cy="0.487002" r="0.5" fill="rgb(0,0,0)" />
<circle cx="16.1269" cy="11.9835" r="0.5" fill="rgb(0,0,0)" />
<circle cx="18.401" cy="18.3711" r="0.5" fill="rgb(0,0,0)" />
<circle cx="9.63858" cy="2.56179" r="0.5" fill="rgb(0,0,0)" />
<circle cx="18.7567" cy="18.1485" r="0.5" fill="rgb(0,0,0)" />
<circle cx="18.3713" cy="13.3914" r="0.5" fill="rgb(0,0,0)" />
<circle cx="11.9629" cy="10.4793" r="0.5" fill="rgb(0,0,0)" />
<circle cx="18.1807" cy="11.358" r="0.5" fill="rgb(0,0,0)" />
<circle cx="9.79702" cy="17.9845" r="0.5" fill="rgb(0,0,0)" />
<circle cx="0.425338" cy="16.7083" r="0.5" fill="rgb(0,0,0)" />
<circle cx="7.3974" cy="16.1362" r="0.5" fill="rgb(0,0,0)" />
<circle cx="4.24228" cy="18.2384" r="0.5" fill="rgb(0,0,0)" />
<circle cx="17.8734" cy="18.7224" r="0.5" fill="rgb(0,0,0)" />
<circle cx="13.5374" cy="10.3893" r="0.5" fill="rgb(0,0,0)" />
<circle cx="16.5671" cy="18.4277" r="0.5" fill="rgb(0,0,0)" />
<circle cx="9.07138" cy="15.0701" r="0.5" fill="rgb(0,0,0)" />
<circle cx="18.3105" cy="9.49928" r="0.5" fill="rgb(0,0,0)" />
<circle cx="9.33917" cy="11.8592" r="0.5" fill="rgb(0,0,0)" />
<circle cx="0.443659" cy="10.0632" r="0.5" fill="rgb(0,0,0)" />
<circle cx="0.435197" cy="8.64724" r="0.5" fill="rgb(0,0,0)" />
<circle cx="3.16126" cy="2.82197" r="0.5" fill="rgb(0,0,0)" />
<circle cx="15.0927" cy="18.6621" r="0.5" fill="rgb(0,0,0)" />
<circle cx="13.6681" cy="18.4803" r="0.5" fill="rgb(0,0,0)" />
<circle cx="18.4816" cy="4.53854" r="0.5" fill="rgb(0,0,0)" />
<circle cx="18.4749" cy="3.27821" r="0.5" fill="rgb(0,0,0)" />
<circle cx="13.6328" cy="6.95815" r="0.5" fill="rgb(0,0,0)" />
<circle cx="10.8391" cy="18.5997" r="0.5" fill="rgb(0,0,0)" />
<circle cx="6.80853" cy="4.5942" r="0.5" fill="rgb(0,0,0)" />
<circle cx="12.3991" cy="18.4736" r="0.5" fill="rgb(0,0,0)" />
<circle cx="0.44097" cy="6.90536" r="0.5" fill="rgb(0,0,0)" />
<circle cx="18.3674" cy="8.11504" r="0.5" fill="rgb(0,0,0)" />
<circle cx="18.6035" cy="6.50272" r="0.5" fill="rgb(0,0,0)" />
<circle cx="0.439231" cy="14.3716" r="0.5" fill="rgb(0,0,0)" />
<circle cx="0.404544" cy="12.4314" r="0.5" fill="rgb(0,0,0)" />
<circle cx="3.31134" cy="18.4625" r="0.5" fill="rgb(0,0,0)" />
<circle cx="8.06873" cy="18.6492" r="0.5" fill="rgb(0,0,0)" />
<circle cx="3.29627" cy="10.5365" r="0.5" fill="rgb(0,0,0)" />
<circle cx="6.05594" cy="18.5176" r="0.5" fill="rgb(0,0,0)" />
<circle cx="5.0157" cy="2.78243" r="0.5" fill="rgb(0,0,0)" />
<circle cx="0.357003" cy="5.49215" r="0.5" fill="rgb(0,0,0)" />
<circle cx="0.760928" cy="15.6049" r="0.5" fill="rgb(0,0,0)" />
<circle cx="0.413247" cy="4.35768" r="0.5" fill="rgb(0,0,0)" />
<circle cx="2.51737" cy="0.538689" r="0.5" fill="rgb(0,0,0)" />
<circle cx="1.94195" cy="8.34228" r="0.5" fill="rgb(0,0,0)" />
<circle cx="0.568453" cy="2.30659" r="0.5" fill="rgb(0,0,0)" />
<circle cx="0.763777" cy="0.731258" r="0.5" fill="rgb(0,0,0)" />
<circle cx="17.4055" cy="5.2058" r="0.5" fill="rgb(0,0,0)" />
<circle cx="0.26175" cy="17.6854" r="0.5" fill="rgb(0,0,0)" />
<circle cx="0.370208" cy="18.4662" r="0.5" fill="rgb(0,0,0)" />
<circle cx="7.42115" cy="3.7814" r="0.5" fill="rgb(0,0,0)" />
<circle cx="2.07064" cy="18.5958" r="0.5" fill="rgb(0,0,0)" />
<circle cx="2.98853" cy="16.7277" r="0.5" fill="rgb(0,0,0)" />
<circle cx="1.08677" cy="18.5811" r="0.5" fill="rgb(0,0,0)" />
</svg>
