<?xml version="1.0" ?>
<!DOCTYPE svg PUBLIC "-//W3C//DTD SVG 1.1//EN" "http://www.w3.org/Graphics/SVG/1.1/DTD/svg11.dtd">
<svg width="20" height="20" version="1.1" xmlns="http://www.w3.org/2000/svg">
<circle cx="13.579" cy="0.318215" r="0.5" fill="rgb(0,0,0)" />
<circle cx="5.75358" cy="0.369846" r="0.5" fill="rgb(0,0,0)" />
<circle cx="14.7914" cy="0.355946" r="0.5" fill="rgb(0,0,0)" />
<circle cx="12.5458" cy="0.363346" r="0.5" fill="rgb(0,0,0)" />
<circle cx="4.34132" cy="0.482614" r="0.5" fill="rgb(0,0,0)" />
<circle cx="11.9942" cy="0.791508" r="0.5" fill="rgb(0,0,0)" />
<circle cx="17.3423" cy="0.589203" r="0.5" fill="rgb(0,0,0)" />
<circle cx="7.76677" cy="0.871977" r="0.5" fill="rgb(0,0,0)" />
<circle cx="9.15556" cy="0.565839" r="0.5" fill="rgb(0,0,0)" />
<circle cx="11.2285" cy="0.663959" r="0.5" fill="rgb(0,0,0)" />
<circle cx="13.4855" cy="1.64133" r="0.5" fill="rgb(0,0,0)" />
<circle cx="5.52242" cy="1.28667" r="0.5" fill="rgb(0,0,0)" />
<circle cx="6.78063" cy="1.22053" r="0.5" fill="rgb(0,0,0)" />
<circle cx="14.682" cy="1.34481" r="0.5" fill="rgb(0,0,0)" />
<circle cx="10.4119" cy="1.44262" r="0.5" fill="rgb(0,0,0)" />
<circle cx="11.9888" cy="1.69" r="0.5" fill="rgb(0,0,0)" />
<circle cx="4.54884" cy="1.56755" r="0.5" fill="rgb(0,0,0)" />
<circle cx="9.18509" cy="1.70091" r="0.5" fill="rgb(0,0,0)" />
<circle cx="17.2277" cy="1.74252" r="0.5" fill="rgb(0,0,0)" />
<circle cx="13.5079" cy="2.35748" r="0.5" fill="rgb(0,0,0)" />
<circle cx="7.84119" cy="1.74694" r="0.5" fill="rgb(0,0,0)" />
<circle cx="14.2791" cy="2.21705" r="0.5" fill="rgb(0,0,0)" />
<circle cx="5.71697" cy="2.35529" r="0.5" fill="rgb(0,0,0)" />
<circle cx="1.82015" cy="1.95828" r="0.5" fill="rgb(0,0,0)" />
<circle cx="13.052" cy="2.80133" r="0.5" fill="rgb(0,0,0)" />
<circle cx="15.2883" cy="2.60207" r="0.5" fill="rgb(0,0,0)" />
<circle cx="3.19423" cy="1.56304" r="0.5" fill="rgb(0,0,0)" />
<circle cx="15.8867" cy="2.28388" r="0.5" fill="rgb(0,0,0)" />
<circle cx="11.6235" cy="2.66967" r="0.5" fill="rgb(0,0,0)" />
<circle cx="8.64568" cy="2.81889" r="0.5" fill="rgb(0,0,0)" />
<circle cx="10.61" cy="2.61958" r="0.5" fill="rgb(0,0,0)" />
<circle cx="7.65893" cy="2.72221" r="0.5" fill="rgb(0,0,0)" />
<circle cx="14.5789" cy="3.0836" r="0.5" fill="rgb(0,0,0)" />
<circle cx="16.6739" cy="2.28423" r="0.5" fill="rgb(0,0,0)" />
<circle cx="13.7159" cy="3.31165" r="0.5" fill="rgb(0,0,0)" />
<circle cx="2.24156" cy="3.03183" r="0.5" fill="rgb(0,0,0)" />
<circle cx="16.7675" cy="3.40082" r="0.5" fill="rgb(0,0,0)" />
<circle cx="9.61596" cy="3.53145" r="0.5" fill="rgb(0,0,0)" />
<circle cx="6.0265" cy="3.38552" r="0.5" fill="rgb(0,0,0)" />
<circle cx="15.4735" cy="3.77603" r="0.5" fill="rgb(0,0,0)" />
<circle cx="6.36193" cy="1.83961" r="0.5" fill="rgb(0,0,0)" />
<circle cx="11.6848" cy="3.89861" r="0.5" fill="rgb(0,0,0)" />
<circle cx="2.77925" cy="4.02322" r="0.5" fill="rgb(0,0,0)" />
<circle cx="9.63533" cy="2.5696" r="0.5" fill="rgb(0,0,0)" />
<circle cx="10.6272" cy="3.93319" r="0.5" fill="rgb(0,0,0)" />
<circle cx="16.7227" cy="4.44853" r="0.5" fill="rgb(0,0,0)" />
<circle cx="14.6357" cy="4.29191" r="0.5" fill="rgb(0,0,0)" />
<circle cx="6.58577" cy="4.26953" r="0.5" fill="rgb(0,0,0)" />
<circle cx="3.80283" cy="4.55161" r="0.5" fill="rgb(0,0,0)" />
<circle cx="15.9247" cy="4.55625" r="0.5" fill="rgb(0,0,0)" />
<circle cx="17.5925" cy="4.33969" r="0.5" fill="rgb(0,0,0)" />
<circle cx="5.4887" cy="4.60666" r="0.5" fill="rgb(0,0,0)" />
<circle cx="13.013" cy="4.75894" r="0.5" fill="rgb(0,0,0)" />
<circle cx="9.15558" cy="4.95879" r="0.5" fill="rgb(0,0,0)" />
<circle cx="6.01836" cy="5.12021" r="0.5" fill="rgb(0,0,0)" />
<circle cx="7.87097" cy="4.93839" r="0.5" fill="rgb(0,0,0)" />
<circle cx="12.6639" cy="3.6031" r="0.5" fill="rgb(0,0,0)" />
<circle cx="14.0094" cy="5.13815" r="0.5" fill="rgb(0,0,0)" />
<circle cx="4.65584" cy="5.38644" r="0.5" fill="rgb(0,0,0)" />
<circle cx="16.7606" cy="5.44836" r="0.5" fill="rgb(0,0,0)" />
<circle cx="10.317" cy="5.20529" r="0.5" fill="rgb(0,0,0)" />
<circle cx="6.66585" cy="5.57543" r="0.5" fill="rgb(0,0,0)" />
<circle cx="11.8448" cy="5.11159" r="0.5" fill="rgb(0,0,0)" />
<circle cx="14.4678" cy="5.84952" r="0.5" fill="rgb(0,0,0)" />
<circle cx="3.17165" cy="5.55501" r="0.5" fill="rgb(0,0,0)" />
<circle cx="1.23647" cy="5.85275" r="0.5" fill="rgb(0,0,0)" />
<circle cx="7.52218" cy="6.04293" r="0.5" fill="rgb(0,0,0)" />
<circle cx="2.26573" cy="4.8553" r="0.5" fill="rgb(0,0,0)" />
<circle cx="4.32063" cy="6.31765" r="0.5" fill="rgb(0,0,0)" />
<circle cx="6.61879" cy="6.80327" r="0.5" fill="rgb(0,0,0)" />
<circle cx="9.64156" cy="6.56205" r="0.5" fill="rgb(0,0,0)" />
<circle cx="8.59717" cy="6.87776" r="0.5" fill="rgb(0,0,0)" />
<circle cx="3.60865" cy="3.56457" r="0.5" fill="rgb(0,0,0)" />
<circle cx="18.5998" cy="6.44539" r="0.5" fill="rgb(0,0,0)" />
<circle cx="14.3637" cy="6.89135" r="0.5" fill="rgb(0,0,0)" />
<circle cx="1.58221" cy="7.18106" r="0.5" fill="rgb(0,0,0)" />
<circle cx="18.1079" cy="7.10376" r="0.5" fill="rgb(0,0,0)" />
<circle cx="2.91551" cy="6.97472" r="0.5" fill="rgb(0,0,0)" />
<circle cx="15.6745" cy="7.15142" r="0.5" fill="rgb(0,0,0)" />
<circle cx="10.236" cy="7.29872" r="0.5" fill="rgb(0,0,0)" />
<circle cx="12.6081" cy="7.0866" r="0.5" fill="rgb(0,0,0)" />
<circle cx="6.58559" cy="7.65426" r="0.5" fill="rgb(0,0,0)" />
<circle cx="5.27914" cy="7.48522" r="0.5" fill="rgb(0,0,0)" />
<circle cx="4.27688" cy="7.37709" r="0.5" fill="rgb(0,0,0)" />
<circle cx="8.866" cy="5.8243" r="0.5" fill="rgb(0,0,0)" />
<circle cx="1.07098" cy="7.92438" r="0.5" fill="rgb(0,0,0)" />
<circle cx="4.12987" cy="2.45109" r="0.5" fill="rgb(0,0,0)" />
<circle cx="7.32214" cy="8.12271" r="0.5" fill="rgb(0,0,0)" />
<circle cx="5.01275" cy="2.77687" r="0.5" fill="rgb(0,0,0)" />
<circle cx="8.50508" cy="8.0511" r="0.5" fill="rgb(0,0,0)" />
<circle cx="5.89507" cy="8.22721" r="0.5" fill="rgb(0,0,0)" />
<circle cx="3.683" cy="8.12094" r="0.5" fill="rgb(0,0,0)" />
<circle cx="7.4331" cy="3.85165" r="0.5" fill="rgb(0,0,0)" />
<circle cx="11.0295" cy="6.03779" r="0.5" fill="rgb(0,0,0)" />
<circle cx="1.93691" cy="8.34384" r="0.5" fill="rgb(0,0,0)" />
<circle cx="2.83104" cy="8.41397" r="0.5" fill="rgb(0,0,0)" />
<circle cx="14.7606" cy="8.20793" r="0.5" fill="rgb(0,0,0)" />
<circle cx="11.927" cy="8.21282" r="0.5" fill="rgb(0,0,0)" />
<circle cx="17.0137" cy="6.44154" r="0.5" fill="rgb(0,0,0)" />
<circle cx="13.5752" cy="7.8403" r="0.5" fill="rgb(0,0,0)" />
<circle cx="10.264" cy="8.47957" r="0.5" fill="rgb(0,0,0)" />
<circle cx="8.11515" cy="8.75606" r="0.5" fill="rgb(0,0,0)" />
<circle cx="7.27248" cy="9.01347" r="0.5" fill="rgb(0,0,0)" />
<circle cx="15.3217" cy="8.94716" r="0.5" fill="rgb(0,0,0)" />
<circle cx="8.68187" cy="9.22972" r="0.5" fill="rgb(0,0,0)" />
<circle cx="6.11055" cy="9.11502" r="0.5" fill="rgb(0,0,0)" />
<circle cx="15.7146" cy="6.01784" r="0.5" fill="rgb(0,0,0)" />
<circle cx="4.0413" cy="9.19299" r="0.5" fill="rgb(0,0,0)" />
<circle cx="7.68157" cy="7.16492" r="0.5" fill="rgb(0,0,0)" />
<circle cx="13.7997" cy="9.05121" r="0.5" fill="rgb(0,0,0)" />
<circle cx="1.49501" cy="3.61138" r="0.5" fill="rgb(0,0,0)" />
<circle cx="1.40643" cy="9.23888" r="0.5" fill="rgb(0,0,0)" />
<circle cx="3.44923" cy="9.47298" r="0.5" fill="rgb(0,0,0)" />
<circle cx="17.0766" cy="9.17459" r="0.5" fill="rgb(0,0,0)" />
<circle cx="13.2747" cy="1.07855" r="0.5" fill="rgb(0,0,0)" />
<circle cx="7.25587" cy="9.81754" r="0.5" fill="rgb(0,0,0)" />
<circle cx="12.6491" cy="9.19521" r="0.5" fill="rgb(0,0,0)" />
<circle cx="9.16458" cy="9.9078" r="0.5" fill="rgb(0,0,0)" />
<circle cx="9.85196" cy="9.41216" r="0.5" fill="rgb(0,0,0)" />
<circle cx="4.46673" cy="10.1505" r="0.5" fill="rgb(0,0,0)" />
<circle cx="1.79898" cy="10.2216" r="0.5" fill="rgb(0,0,0)" />
<circle cx="3.30787" cy="10.5256" r="0.5" fill="rgb(0,0,0)" />
<circle cx="5.49755" cy="10.3224" r="0.5" fill="rgb(0,0,0)" />
<circle cx="6.88112" cy="10.4235" r="0.5" fill="rgb(0,0,0)" />
<circle cx="16.1947" cy="8.29577" r="0.5" fill="rgb(0,0,0)" />
<circle cx="7.45778" cy="10.8548" r="0.5" fill="rgb(0,0,0)" />
<circle cx="13.3703" cy="10.3144" r="0.5" fill="rgb(0,0,0)" />
<circle cx="8.53249" cy="10.8193" r="0.5" fill="rgb(0,0,0)" />
<circle cx="9.60094" cy="10.7845" r="0.5" fill="rgb(0,0,0)" />
<circle cx="17.1554" cy="10.6027" r="0.5" fill="rgb(0,0,0)" />
<circle cx="4.69595" cy="11.1525" r="0.5" fill="rgb(0,0,0)" />
<circle cx="14.0182" cy="11.0856" r="0.5" fill="rgb(0,0,0)" />
<circle cx="3.72509" cy="11.4592" r="0.5" fill="rgb(0,0,0)" />
<circle cx="10.8397" cy="10.9478" r="0.5" fill="rgb(0,0,0)" />
<circle cx="6.00544" cy="11.513" r="0.5" fill="rgb(0,0,0)" />
<circle cx="7.20221" cy="11.7858" r="0.5" fill="rgb(0,0,0)" />
<circle cx="2.26647" cy="11.5334" r="0.5" fill="rgb(0,0,0)" />
<circle cx="12.4647" cy="11.7501" r="0.5" fill="rgb(0,0,0)" />
<circle cx="15.0041" cy="12.4701" r="0.5" fill="rgb(0,0,0)" />
<circle cx="0.834844" cy="11.2886" r="0.5" fill="rgb(0,0,0)" />
<circle cx="4.99069" cy="12.4181" r="0.5" fill="rgb(0,0,0)" />
<circle cx="6.71118" cy="12.5833" r="0.5" fill="rgb(0,0,0)" />
<circle cx="3.31267" cy="12.4211" r="0.5" fill="rgb(0,0,0)" />
<circle cx="13.4327" cy="12.6504" r="0.5" fill="rgb(0,0,0)" />
<circle cx="4.90214" cy="8.95432" r="0.5" fill="rgb(0,0,0)" />
<circle cx="15.141" cy="13.5319" r="0.5" fill="rgb(0,0,0)" />
<circle cx="3.82419" cy="13.454" r="0.5" fill="rgb(0,0,0)" />
<circle cx="2.25779" cy="13.2429" r="0.5" fill="rgb(0,0,0)" />
<circle cx="4.81913" cy="13.8391" r="0.5" fill="rgb(0,0,0)" />
<circle cx="6.30956" cy="13.3752" r="0.5" fill="rgb(0,0,0)" />
<circle cx="7.92521" cy="13.6967" r="0.5" fill="rgb(0,0,0)" />
<circle cx="2.78703" cy="9.9048" r="0.5" fill="rgb(0,0,0)" />
<circle cx="18.5072" cy="4.53031" r="0.5" fill="rgb(0,0,0)" />
<circle cx="8.29166" cy="12.6847" r="0.5" fill="rgb(0,0,0)" />
<circle cx="18.3832" cy="3.35407" r="0.5" fill="rgb(0,0,0)" />
<circle cx="5.84961" cy="14.2021" r="0.5" fill="rgb(0,0,0)" />
<circle cx="14.3776" cy="14.3089" r="0.5" fill="rgb(0,0,0)" />
<circle cx="17.1051" cy="14.067" r="0.5" fill="rgb(0,0,0)" />
<circle cx="12.5268" cy="14.3724" r="0.5" fill="rgb(0,0,0)" />
<circle cx="5.31042" cy="3.67564" r="0.5" fill="rgb(0,0,0)" />
<circle cx="3.07242" cy="14.4967" r="0.5" fill="rgb(0,0,0)" />
<circle cx="11.2769" cy="7.23905" r="0.5" fill="rgb(0,0,0)" />
<circle cx="4.96155" cy="14.9222" r="0.5" fill="rgb(0,0,0)" />
<circle cx="10.7297" cy="14.3512" r="0.5" fill="rgb(0,0,0)" />
<circle cx="13.4878" cy="15.0498" r="0.5" fill="rgb(0,0,0)" />
<circle cx="4.003" cy="14.8738" r="0.5" fill="rgb(0,0,0)" />
<circle cx="9.15324" cy="14.4418" r="0.5" fill="rgb(0,0,0)" />
<circle cx="11.1307" cy="9.25373" r="0.5" fill="rgb(0,0,0)" />
<circle cx="17.9906" cy="14.7793" r="0.5" fill="rgb(0,0,0)" />
<circle cx="16.0142" cy="0.724504" r="0.5" fill="rgb(0,0,0)" />
<circle cx="6.60938" cy="15.0078" r="0.5" fill="rgb(0,0,0)" />
<circle cx="15.3066" cy="5.11501" r="0.5" fill="rgb(0,0,0)" />
<circle cx="7.7733" cy="14.9874" r="0.5" fill="rgb(0,0,0)" />
<circle cx="15.0619" cy="15.3275" r="0.5" fill="rgb(0,0,0)" />
<circle cx="15.7125" cy="10.6488" r="0.5" fill="rgb(0,0,0)" />
<circle cx="5.66226" cy="15.5287" r="0.5" fill="rgb(0,0,0)" />
<circle cx="15.9674" cy="9.63337" r="0.5" fill="rgb(0,0,0)" />
<circle cx="2.21876" cy="15.3676" r="0.5" fill="rgb(0,0,0)" />
<circle cx="4.71379" cy="15.8442" r="0.5" fill="rgb(0,0,0)" />
<circle cx="14.2541" cy="15.7424" r="0.5" fill="rgb(0,0,0)" />
<circle cx="3.25627" cy="15.804" r="0.5" fill="rgb(0,0,0)" />
<circle cx="16.3152" cy="15.3774" r="0.5" fill="rgb(0,0,0)" />
<circle cx="11.9728" cy="15.6726" r="0.5" fill="rgb(0,0,0)" />
<circle cx="4.75333" cy="4.40227" r="0.5" fill="rgb(0,0,0)" />
<circle cx="1.29968" cy="16.1306" r="0.5" fill="rgb(0,0,0)" />
<circle cx="7.40599" cy="16.0951" r="0.5" fill="rgb(0,0,0)" />
<circle cx="5.54198" cy="16.5386" r="0.5" fill="rgb(0,0,0)" />
<circle cx="8.86475" cy="16.1576" r="0.5" fill="rgb(0,0,0)" />
<circle cx="9.35709" cy="7.99593" r="0.5" fill="rgb(0,0,0)" />
<circle cx="17.2333" cy="16.1829" r="0.5" fill="rgb(0,0,0)" />
<circle cx="1.26239" cy="4.77281" r="0.5" fill="rgb(0,0,0)" />
<circle cx="15.5687" cy="14.4744" r="0.5" fill="rgb(0,0,0)" />
<circle cx="3.96968" cy="16.1728" r="0.5" fill="rgb(0,0,0)" />
<circle cx="6.54226" cy="16.4715" r="0.5" fill="rgb(0,0,0)" />
<circle cx="12.6153" cy="16.5393" r="0.5" fill="rgb(0,0,0)" />
<circle cx="13.249" cy="15.8529" r="0.5" fill="rgb(0,0,0)" />
<circle cx="10.0845" cy="15.6846" r="0.5" fill="rgb(0,0,0)" />
<circle cx="16.3356" cy="13.3465" r="0.5" fill="rgb(0,0,0)" />
<circle cx="1.99883" cy="16.664" r="0.5" fill="rgb(0,0,0)" />
<circle cx="6.2713" cy="10.187" r="0.5" fill="rgb(0,0,0)" />
<circle cx="10.9444" cy="16.6049" r="0.5" fill="rgb(0,0,0)" />
<circle cx="1.27961" cy="17.2615" r="0.5" fill="rgb(0,0,0)" />
<circle cx="15.1385" cy="16.4755" r="0.5" fill="rgb(0,0,0)" />
<circle cx="2.97632" cy="16.7185" r="0.5" fill="rgb(0,0,0)" />
<circle cx="4.46683" cy="16.982" r="0.5" fill="rgb(0,0,0)" />
<circle cx="16.854" cy="17.2611" r="0.5" fill="rgb(0,0,0)" />
<circle cx="15.8661" cy="17.0315" r="0.5" fill="rgb(0,0,0)" />
<circle cx="2.43787" cy="9.27712" r="0.5" fill="rgb(0,0,0)" />
<circle cx="1.96987" cy="17.7468" r="0.5" fill="rgb(0,0,0)" />
<circle cx="7.74816" cy="17.1354" r="0.5" fill="rgb(0,0,0)" />
<circle cx="1.2144" cy="17.8887" r="0.5" fill="rgb(0,0,0)" />
<circle cx="12.0047" cy="10.4474" r="0.5" fill="rgb(0,0,0)" />
<circle cx="5.67495" cy="17.4152" r="0.5" fill="rgb(0,0,0)" />
<circle cx="9.24416" cy="12.1446" r="0.5" fill="rgb(0,0,0)" />
<circle cx="11.983" cy="17.4944" r="0.5" fill="rgb(0,0,0)" />
<circle cx="14.2621" cy="12.887" r="0.5" fill="rgb(0,0,0)" />
<circle cx="1.47171" cy="14.2763" r="0.5" fill="rgb(0,0,0)" />
<circle cx="9.06663" cy="17.3418" r="0.5" fill="rgb(0,0,0)" />
<circle cx="17.9985" cy="2.60051" r="0.5" fill="rgb(0,0,0)" />
<circle cx="11.009" cy="17.7932" r="0.5" fill="rgb(0,0,0)" />
<circle cx="2.81031" cy="17.702" r="0.5" fill="rgb(0,0,0)" />
<circle cx="18.1227" cy="13.1781" r="0.5" fill="rgb(0,0,0)" />
<circle cx="18.0658" cy="11.6078" r="0.5" fill="rgb(0,0,0)" />
<circle cx="8.10838" cy="9.91764" r="0.5" fill="rgb(0,0,0)" />
<circle cx="18.337" cy="17.0439" r="0.5" fill="rgb(0,0,0)" />
<circle cx="14.6702" cy="9.82645" r="0.5" fill="rgb(0,0,0)" />
<circle cx="18.4608" cy="15.7105" r="0.5" fill="rgb(0,0,0)" />
<circle cx="14.4086" cy="17.9228" r="0.5" fill="rgb(0,0,0)" />
<circle cx="13.1947" cy="17.4521" r="0.5" fill="rgb(0,0,0)" />
<circle cx="15.4419" cy="17.9586" r="0.5" fill="rgb(0,0,0)" />
<circle cx="6.75035" cy="2.83335" r="0.5" fill="rgb(0,0,0)" />
<circle cx="2.07007" cy="6.25979" r="0.5" fill="rgb(0,0,0)" />
<circle cx="17.6058" cy="17.9487" r="0.5" fill="rgb(0,0,0)" />
<circle cx="4.40758" cy="3.57517" r="0.5" fill="rgb(0,0,0)" />
<circle cx="6.763" cy="17.725" r="0.5" fill="rgb(0,0,0)" />
<circle cx="8.60518" cy="3.9318" r="0.5" fill="rgb(0,0,0)" />
<circle cx="8.23724" cy="18.0444" r="0.5" fill="rgb(0,0,0)" />
<circle cx="18.401" cy="18.3711" r="0.5" fill="rgb(0,0,0)" />
<circle cx="18.7567" cy="18.1485" r="0.5" fill="rgb(0,0,0)" />
<circle cx="16.2276" cy="12.0214" r="0.5" fill="rgb(0,0,0)" />
<circle cx="11.5263" cy="14.8189" r="0.5" fill="rgb(0,0,0)" />
<circle cx="9.79486" cy="17.9746" r="0.5" fill="rgb(0,0,0)" />
<circle cx="4.53341" cy="18.1266" r="0.5" fill="rgb(0,0,0)" />
<circle cx="0.421155" cy="16.5959" r="0.5" fill="rgb(0,0,0)" />
<circle cx="18.4296" cy="1.68838" r="0.5" fill="rgb(0,0,0)" />
<circle cx="13.7248" cy="4.12745" r="0.5" fill="rgb(0,0,0)" />
<circle cx="14.1548" cy="16.9691" r="0.5" fill="rgb(0,0,0)" />
<circle cx="18.4538" cy="0.487002" r="0.5" fill="rgb(0,0,0)" />
<circle cx="17.0719" cy="7.70584" r="0.5" fill="rgb(0,0,0)" />
<circle cx="10.5168" cy="13.2979" r="0.5" fill="rgb(0,0,0)" />
<circle cx="17.8734" cy="18.7224" r="0.5" fill="rgb(0,0,0)" />
<circle cx="16.5671" cy="18.4277" r="0.5" fill="rgb(0,0,0)" />
<circle cx="10.3077" cy="0.299052" r="0.5" fill="rgb(0,0,0)" />
<circle cx="5.72333" cy="6.31516" r="0.5" fill="rgb(0,0,0)" />
<circle cx="0.504633" cy="14.94" r="0.5" fill="rgb(0,0,0)" />
<circle cx="0.676716" cy="12.8095" r="0.5" fill="rgb(0,0,0)" />
<circle cx="8.18834" cy="11.6235" r="0.5" fill="rgb(0,0,0)" />
<circle cx="0.444493" cy="10.0698" r="0.5" fill="rgb(0,0,0)" />
<circle cx="0.435197" cy="8.64487" r="0.5" fill="rgb(0,0,0)" />
<circle cx="12.5454" cy="2.31122" r="0.5" fill="rgb(0,0,0)" />
<circle cx="0.462297" cy="3.78725" r="0.5" fill="rgb(0,0,0)" />
<circle cx="18.3206" cy="9.60558" r="0.5" fill="rgb(0,0,0)" />
<circle cx="9.79154" cy="4.39601" r="0.5" fill="rgb(0,0,0)" />
<circle cx="18.1505" cy="5.59611" r="0.5" fill="rgb(0,0,0)" />
<circle cx="18.36" cy="8.14121" r="0.5" fill="rgb(0,0,0)" />
<circle cx="3.16126" cy="2.82197" r="0.5" fill="rgb(0,0,0)" />
<circle cx="14.8853" cy="11.4285" r="0.5" fill="rgb(0,0,0)" />
<circle cx="15.0927" cy="18.6621" r="0.5" fill="rgb(0,0,0)" />
<circle cx="13.6681" cy="18.4803" r="0.5" fill="rgb(0,0,0)" />
<circle cx="10.8405" cy="18.5998" r="0.5" fill="rgb(0,0,0)" />
<circle cx="12.3991" cy="18.4736" r="0.5" fill="rgb(0,0,0)" />
<circle cx="0.435112" cy="6.85353" r="0.5" fill="rgb(0,0,0)" />
<circle cx="13.4661" cy="13.9871" r="0.5" fill="rgb(0,0,0)" />
<circle cx="0.336922" cy="5.20542" r="0.5" fill="rgb(0,0,0)" />
<circle cx="3.44762" cy="18.4167" r="0.5" fill="rgb(0,0,0)" />
<circle cx="12.9329" cy="5.97481" r="0.5" fill="rgb(0,0,0)" />
<circle cx="8.09319" cy="18.6458" r="0.5" fill="rgb(0,0,0)" />
<circle cx="10.3543" cy="12.2833" r="0.5" fill="rgb(0,0,0)" />
<circle cx="6.06129" cy="18.5178" r="0.5" fill="rgb(0,0,0)" />
<circle cx="6.83842" cy="0.300143" r="0.5" fill="rgb(0,0,0)" />
<circle cx="8.11763" cy="0.263664" r="0.5" fill="rgb(0,0,0)" />
<circle cx="2.51737" cy="0.538689" r="0.5" fill="rgb(0,0,0)" />
<circle cx="0.566295" cy="2.37432" r="0.5" fill="rgb(0,0,0)" />
<circle cx="0.763777" cy="0.736289" r="0.5" fill="rgb(0,0,0)" />
<circle cx="0.278948" cy="17.6546" r="0.5" fill="rgb(0,0,0)" />
<circle cx="0.370721" cy="18.4709" r="0.5" fill="rgb(0,0,0)" />
<circle cx="12.1698" cy="13.1194" r="0.5" fill="rgb(0,0,0)" />
<circle cx="2.09471" cy="18.5955" r="0.5" fill="rgb(0,0,0)" />
<circle cx="1.08505" cy="18.5812" r="0.5" fill="rgb(0,0,0)" />
</svg>
