<?xml version="1.0" ?>
<!DOCTYPE svg PUBLIC "-//W3C//DTD SVG 1.1//EN" "http://www.w3.org/Graphics/SVG/1.1/DTD/svg11.dtd">
<svg width="20" height="20" version="1.1" xmlns="http://www.w3.org/2000/svg">
<circle cx="14.6712" cy="0.666716" r="0.5" fill="rgb(0,0,0)" />
<circle cx="15.5742" cy="2.61989" r="0.5" fill="rgb(0,0,0)" />
<circle cx="5.6786" cy="1.25285" r="0.5" fill="rgb(0,0,0)" />
<circle cx="8.29559" cy="1.09968" r="0.5" fill="rgb(0,0,0)" />
<circle cx="14.9183" cy="4.084" r="0.5" fill="rgb(0,0,0)" />
<circle cx="16.1284" cy="4.34522" r="0.5" fill="rgb(0,0,0)" />
<circle cx="3.30835" cy="3.36798" r="0.5" fill="rgb(0,0,0)" />
<circle cx="9.11562" cy="3.28677" r="0.5" fill="rgb(0,0,0)" />
<circle cx="16.9778" cy="5.55046" r="0.5" fill="rgb(0,0,0)" />
<circle cx="7.09286" cy="5.11954" r="0.5" fill="rgb(0,0,0)" />
<circle cx="13.0268" cy="4.16962" r="0.5" fill="rgb(0,0,0)" />
<circle cx="12.3044" cy="6.53089" r="0.5" fill="rgb(0,0,0)" />
<circle cx="3.95039" cy="6.37075" r="0.5" fill="rgb(0,0,0)" />
<circle cx="14.4631" cy="7.13162" r="0.5" fill="rgb(0,0,0)" />
<circle cx="5.66056" cy="7.48884" r="0.5" fill="rgb(0,0,0)" />
<circle cx="14.0899" cy="2.60454" r="0.5" fill="rgb(0,0,0)" />
<circle cx="16.2395" cy="8.24484" r="0.5" fill="rgb(0,0,0)" />
<circle cx="13.7543" cy="8.65701" r="0.5" fill="rgb(0,0,0)" />
<circle cx="2.52143" cy="8.33691" r="0.5" fill="rgb(0,0,0)" />
<circle cx="17.2494" cy="3.75605" r="0.5" fill="rgb(0,0,0)" />
<circle cx="9.4763" cy="8.53662" r="0.5" fill="rgb(0,0,0)" />
<circle cx="4.01556" cy="9.45481" r="0.5" fill="rgb(0,0,0)" />
<circle cx="8.75554" cy="10.4519" r="0.5" fill="rgb(0,0,0)" />
<circle cx="11.176" cy="10.9917" r="0.5" fill="rgb(0,0,0)" />
<circle cx="11.5516" cy="8.81002" r="0.5" fill="rgb(0,0,0)" />
<circle cx="15.517" cy="12.2603" r="0.5" fill="rgb(0,0,0)" />
<circle cx="15.9463" cy="10.2014" r="0.5" fill="rgb(0,0,0)" />
<circle cx="12.5832" cy="12.4704" r="0.5" fill="rgb(0,0,0)" />
<circle cx="16.444" cy="1.67852" r="0.5" fill="rgb(0,0,0)" />
<circle cx="8.25603" cy="12.5383" r="0.5" fill="rgb(0,0,0)" />
<circle cx="10.1416" cy="13.2027" r="0.5" fill="rgb(0,0,0)" />
<circle cx="14.2961" cy="13.6436" r="0.5" fill="rgb(0,0,0)" />
<circle cx="12.446" cy="14.2171" r="0.5" fill="rgb(0,0,0)" />
<circle cx="14.1675" cy="5.45055" r="0.5" fill="rgb(0,0,0)" />
<circle cx="16.2999" cy="14.2896" r="0.5" fill="rgb(0,0,0)" />
<circle cx="2.29157" cy="5.5536" r="0.5" fill="rgb(0,0,0)" />
<circle cx="15.0292" cy="15.1008" r="0.5" fill="rgb(0,0,0)" />
<circle cx="3.82119" cy="11.76" r="0.5" fill="rgb(0,0,0)" />
<circle cx="3.77118" cy="14.4168" r="0.5" fill="rgb(0,0,0)" />
<circle cx="6.12566" cy="12.9757" r="0.5" fill="rgb(0,0,0)" />
<circle cx="12.7165" cy="15.672" r="0.5" fill="rgb(0,0,0)" />
<circle cx="8.03339" cy="15.0844" r="0.5" fill="rgb(0,0,0)" />
<circle cx="14.1429" cy="16.0936" r="0.5" fill="rgb(0,0,0)" />
<circle cx="12.7465" cy="1.77329" r="0.5" fill="rgb(0,0,0)" />
<circle cx="17.9511" cy="6.69927" r="0.5" fill="rgb(0,0,0)" />
<circle cx="16.0859" cy="16.4456" r="0.5" fill="rgb(0,0,0)" />
<circle cx="5.31796" cy="15.7819" r="0.5" fill="rgb(0,0,0)" />
<circle cx="6.88535" cy="16.5975" r="0.5" fill="rgb(0,0,0)" />
<circle cx="12.1226" cy="17.07" r="0.5" fill="rgb(0,0,0)" />
<circle cx="0.948811" cy="3.98227" r="0.5" fill="rgb(0,0,0)" />
<circle cx="11.2828" cy="3.88349" r="0.5" fill="rgb(0,0,0)" />
<circle cx="6.37517" cy="10.0711" r="0.5" fill="rgb(0,0,0)" />
<circle cx="14.1095" cy="17.7792" r="0.5" fill="rgb(0,0,0)" />
<circle cx="13.7414" cy="10.7303" r="0.5" fill="rgb(0,0,0)" />
<circle cx="15.1734" cy="18.549" r="0.5" fill="rgb(0,0,0)" />
<circle cx="16.025" cy="17.9796" r="0.5" fill="rgb(0,0,0)" />
<circle cx="2.66009" cy="17.1843" r="0.5" fill="rgb(0,0,0)" />
<circle cx="11.1422" cy="0.922377" r="0.5" fill="rgb(0,0,0)" />
<circle cx="15.8692" cy="6.33069" r="0.5" fill="rgb(0,0,0)" />
<circle cx="12.2994" cy="18.421" r="0.5" fill="rgb(0,0,0)" />
<circle cx="10.1216" cy="17.4576" r="0.5" fill="rgb(0,0,0)" />
<circle cx="17.3035" cy="17.8831" r="0.5" fill="rgb(0,0,0)" />
<circle cx="17.9655" cy="10.148" r="0.5" fill="rgb(0,0,0)" />
<circle cx="1.2726" cy="13.0897" r="0.5" fill="rgb(0,0,0)" />
<circle cx="18.1604" cy="8.21662" r="0.5" fill="rgb(0,0,0)" />
<circle cx="1.20366" cy="10.6162" r="0.5" fill="rgb(0,0,0)" />
<circle cx="10.6119" cy="15.2447" r="0.5" fill="rgb(0,0,0)" />
<circle cx="8.3627" cy="17.9165" r="0.5" fill="rgb(0,0,0)" />
<circle cx="17.8118" cy="14.6468" r="0.5" fill="rgb(0,0,0)" />
<circle cx="4.15263" cy="17.8965" r="0.5" fill="rgb(0,0,0)" />
<circle cx="0.877044" cy="17.8972" r="0.5" fill="rgb(0,0,0)" />
<circle cx="18.4245" cy="17.8807" r="0.5" fill="rgb(0,0,0)" />
<circle cx="1.16172" cy="15.4808" r="0.5" fill="rgb(0,0,0)" />
<circle cx="18.1498" cy="16.0359" r="0.5" fill="rgb(0,0,0)" />
<circle cx="0.768205" cy="8.35105" r="0.5" fill="rgb(0,0,0)" />
<circle cx="0.7254" cy="6.35944" r="0.5" fill="rgb(0,0,0)" />
<circle cx="10.007" cy="6.05798" r="0.5" fill="rgb(0,0,0)" />
<circle cx="0.929943" cy="1.40651" r="0.5" fill="rgb(0,0,0)" />
<circle cx="7.83777" cy="7.36051" r="0.5" fill="rgb(0,0,0)" />
<circle cx="3.07032" cy="0.954865" r="0.5" fill="rgb(0,0,0)" />
<circle cx="5.60835" cy="3.74181" r="0.5" fill="rgb(0,0,0)" />
<circle cx="18.33" cy="4.94768" r="0.5" fill="rgb(0,0,0)" />
<circle cx="17.8291" cy="12.4373" r="0.5" fill="rgb(0,0,0)" />
<circle cx="18.1923" cy="2.98763" r="0.5" fill="rgb(0,0,0)" />
<circle cx="6.12717" cy="18.113" r="0.5" fill="rgb(0,0,0)" />
<circle cx="18.1304" cy="1.6395" r="0.5" fill="rgb(0,0,0)" />
<circle cx="17.5826" cy="0.46266" r="0.5" fill="rgb(0,0,0)" />
</svg>
