<?xml version="1.0" ?>
<!DOCTYPE svg PUBLIC "-//W3C//DTD SVG 1.1//EN" "http://www.w3.org/Graphics/SVG/1.1/DTD/svg11.dtd">
<svg width="20" height="20" version="1.1" xmlns="http://www.w3.org/2000/svg">
<circle cx="10.4948" cy="0.77317" r="0.5" fill="rgb(0,0,0)" />
<circle cx="13.9118" cy="1.81857" r="0.5" fill="rgb(0,0,0)" />
<circle cx="1.91882" cy="2.06111" r="0.5" fill="rgb(0,0,0)" />
<circle cx="15.4058" cy="2.39189" r="0.5" fill="rgb(0,0,0)" />
<circle cx="18.0414" cy="1.85489" r="0.5" fill="rgb(0,0,0)" />
<circle cx="10.307" cy="2.95406" r="0.5" fill="rgb(0,0,0)" />
<circle cx="13.2014" cy="3.54824" r="0.5" fill="rgb(0,0,0)" />
<circle cx="2.11788" cy="3.46916" r="0.5" fill="rgb(0,0,0)" />
<circle cx="15.1855" cy="3.94785" r="0.5" fill="rgb(0,0,0)" />
<circle cx="6.72908" cy="3.30853" r="0.5" fill="rgb(0,0,0)" />
<circle cx="17.274" cy="3.77027" r="0.5" fill="rgb(0,0,0)" />
<circle cx="4.83057" cy="3.76496" r="0.5" fill="rgb(0,0,0)" />
<circle cx="11.6848" cy="4.13404" r="0.5" fill="rgb(0,0,0)" />
<circle cx="6.10144" cy="4.94474" r="0.5" fill="rgb(0,0,0)" />
<circle cx="12.7155" cy="0.595992" r="0.5" fill="rgb(0,0,0)" />
<circle cx="14.8746" cy="5.25252" r="0.5" fill="rgb(0,0,0)" />
<circle cx="16.2388" cy="4.27858" r="0.5" fill="rgb(0,0,0)" />
<circle cx="13.3719" cy="5.1219" r="0.5" fill="rgb(0,0,0)" />
<circle cx="10.0122" cy="5.04751" r="0.5" fill="rgb(0,0,0)" />
<circle cx="1.66633" cy="5.76138" r="0.5" fill="rgb(0,0,0)" />
<circle cx="4.32368" cy="5.53101" r="0.5" fill="rgb(0,0,0)" />
<circle cx="7.47026" cy="5.9064" r="0.5" fill="rgb(0,0,0)" />
<circle cx="8.58152" cy="6.74303" r="0.5" fill="rgb(0,0,0)" />
<circle cx="10.7872" cy="6.65898" r="0.5" fill="rgb(0,0,0)" />
<circle cx="14.4602" cy="7.05543" r="0.5" fill="rgb(0,0,0)" />
<circle cx="16.9593" cy="5.53254" r="0.5" fill="rgb(0,0,0)" />
<circle cx="9.70964" cy="7.92764" r="0.5" fill="rgb(0,0,0)" />
<circle cx="4.98289" cy="8.91543" r="0.5" fill="rgb(0,0,0)" />
<circle cx="16.2169" cy="11.7071" r="0.5" fill="rgb(0,0,0)" />
<circle cx="16.5127" cy="2.09663" r="0.5" fill="rgb(0,0,0)" />
<circle cx="12.5092" cy="12.4818" r="0.5" fill="rgb(0,0,0)" />
<circle cx="13.8681" cy="8.67813" r="0.5" fill="rgb(0,0,0)" />
<circle cx="10.3148" cy="12.191" r="0.5" fill="rgb(0,0,0)" />
<circle cx="6.49669" cy="12.4795" r="0.5" fill="rgb(0,0,0)" />
<circle cx="5.35394" cy="13.7563" r="0.5" fill="rgb(0,0,0)" />
<circle cx="6.43179" cy="10.4366" r="0.5" fill="rgb(0,0,0)" />
<circle cx="2.7758" cy="10.6169" r="0.5" fill="rgb(0,0,0)" />
<circle cx="16.1398" cy="13.7373" r="0.5" fill="rgb(0,0,0)" />
<circle cx="1.16774" cy="11.4663" r="0.5" fill="rgb(0,0,0)" />
<circle cx="12.1164" cy="8.11751" r="0.5" fill="rgb(0,0,0)" />
<circle cx="13.7307" cy="10.6624" r="0.5" fill="rgb(0,0,0)" />
<circle cx="13.2133" cy="15.2219" r="0.5" fill="rgb(0,0,0)" />
<circle cx="14.081" cy="15.8413" r="0.5" fill="rgb(0,0,0)" />
<circle cx="16.4824" cy="15.4359" r="0.5" fill="rgb(0,0,0)" />
<circle cx="8.32094" cy="4.1639" r="0.5" fill="rgb(0,0,0)" />
<circle cx="7.89447" cy="15.0294" r="0.5" fill="rgb(0,0,0)" />
<circle cx="3.55084" cy="14.9968" r="0.5" fill="rgb(0,0,0)" />
<circle cx="9.90186" cy="15.4254" r="0.5" fill="rgb(0,0,0)" />
<circle cx="5.02155" cy="15.2524" r="0.5" fill="rgb(0,0,0)" />
<circle cx="15.2698" cy="16.4951" r="0.5" fill="rgb(0,0,0)" />
<circle cx="2.43121" cy="9.27334" r="0.5" fill="rgb(0,0,0)" />
<circle cx="4.23088" cy="9.9901" r="0.5" fill="rgb(0,0,0)" />
<circle cx="11.4086" cy="15.2315" r="0.5" fill="rgb(0,0,0)" />
<circle cx="12.1481" cy="16.4958" r="0.5" fill="rgb(0,0,0)" />
<circle cx="16.0927" cy="8.52375" r="0.5" fill="rgb(0,0,0)" />
<circle cx="6.9351" cy="16.2329" r="0.5" fill="rgb(0,0,0)" />
<circle cx="17.9361" cy="14.464" r="0.5" fill="rgb(0,0,0)" />
<circle cx="13.7836" cy="17.0591" r="0.5" fill="rgb(0,0,0)" />
<circle cx="14.9413" cy="0.643651" r="0.5" fill="rgb(0,0,0)" />
<circle cx="2.78457" cy="16.7215" r="0.5" fill="rgb(0,0,0)" />
<circle cx="16.5202" cy="16.9913" r="0.5" fill="rgb(0,0,0)" />
<circle cx="6.01746" cy="6.67188" r="0.5" fill="rgb(0,0,0)" />
<circle cx="15.7802" cy="10.054" r="0.5" fill="rgb(0,0,0)" />
<circle cx="5.77131" cy="17.3158" r="0.5" fill="rgb(0,0,0)" />
<circle cx="15.755" cy="6.3447" r="0.5" fill="rgb(0,0,0)" />
<circle cx="9.85627" cy="13.7884" r="0.5" fill="rgb(0,0,0)" />
<circle cx="15.2558" cy="17.8026" r="0.5" fill="rgb(0,0,0)" />
<circle cx="14.3884" cy="3.20263" r="0.5" fill="rgb(0,0,0)" />
<circle cx="12.2787" cy="14.0175" r="0.5" fill="rgb(0,0,0)" />
<circle cx="17.2232" cy="17.8676" r="0.5" fill="rgb(0,0,0)" />
<circle cx="8.89557" cy="2.06645" r="0.5" fill="rgb(0,0,0)" />
<circle cx="18.3562" cy="0.596098" r="0.5" fill="rgb(0,0,0)" />
<circle cx="3.5972" cy="7.05017" r="0.5" fill="rgb(0,0,0)" />
<circle cx="1.52975" cy="17.5644" r="0.5" fill="rgb(0,0,0)" />
<circle cx="8.6165" cy="17.4961" r="0.5" fill="rgb(0,0,0)" />
<circle cx="16.834" cy="0.627607" r="0.5" fill="rgb(0,0,0)" />
<circle cx="18.1928" cy="6.50177" r="0.5" fill="rgb(0,0,0)" />
<circle cx="18.2989" cy="4.88224" r="0.5" fill="rgb(0,0,0)" />
<circle cx="4.40271" cy="17.7506" r="0.5" fill="rgb(0,0,0)" />
<circle cx="7.41132" cy="8.53158" r="0.5" fill="rgb(0,0,0)" />
<circle cx="9.3277" cy="9.33708" r="0.5" fill="rgb(0,0,0)" />
<circle cx="14.676" cy="12.432" r="0.5" fill="rgb(0,0,0)" />
<circle cx="18.2355" cy="3.09999" r="0.5" fill="rgb(0,0,0)" />
<circle cx="10.1963" cy="17.6449" r="0.5" fill="rgb(0,0,0)" />
<circle cx="11.4742" cy="10.9431" r="0.5" fill="rgb(0,0,0)" />
<circle cx="11.7707" cy="17.962" r="0.5" fill="rgb(0,0,0)" />
<circle cx="12.874" cy="18.3781" r="0.5" fill="rgb(0,0,0)" />
<circle cx="11.419" cy="9.39358" r="0.5" fill="rgb(0,0,0)" />
<circle cx="15.9505" cy="18.535" r="0.5" fill="rgb(0,0,0)" />
<circle cx="1.67146" cy="7.27578" r="0.5" fill="rgb(0,0,0)" />
<circle cx="14.1765" cy="18.2894" r="0.5" fill="rgb(0,0,0)" />
<circle cx="5.51261" cy="7.8034" r="0.5" fill="rgb(0,0,0)" />
<circle cx="5.28276" cy="16.2712" r="0.5" fill="rgb(0,0,0)" />
<circle cx="0.643794" cy="4.01142" r="0.5" fill="rgb(0,0,0)" />
<circle cx="1.00389" cy="13.1933" r="0.5" fill="rgb(0,0,0)" />
<circle cx="17.9735" cy="12.4886" r="0.5" fill="rgb(0,0,0)" />
<circle cx="8.28439" cy="12.7392" r="0.5" fill="rgb(0,0,0)" />
<circle cx="17.9774" cy="10.1454" r="0.5" fill="rgb(0,0,0)" />
<circle cx="2.74855" cy="4.87136" r="0.5" fill="rgb(0,0,0)" />
<circle cx="18.1284" cy="8.27123" r="0.5" fill="rgb(0,0,0)" />
<circle cx="2.77118" cy="8.21364" r="0.5" fill="rgb(0,0,0)" />
<circle cx="0.775326" cy="9.82326" r="0.5" fill="rgb(0,0,0)" />
<circle cx="6.18158" cy="18.2911" r="0.5" fill="rgb(0,0,0)" />
<circle cx="14.084" cy="13.8468" r="0.5" fill="rgb(0,0,0)" />
<circle cx="2.18542" cy="14.3749" r="0.5" fill="rgb(0,0,0)" />
<circle cx="18.1365" cy="15.9729" r="0.5" fill="rgb(0,0,0)" />
<circle cx="3.61199" cy="2.65241" r="0.5" fill="rgb(0,0,0)" />
<circle cx="16.7981" cy="7.27342" r="0.5" fill="rgb(0,0,0)" />
<circle cx="3.88089" cy="12.1518" r="0.5" fill="rgb(0,0,0)" />
<circle cx="0.651347" cy="8.25629" r="0.5" fill="rgb(0,0,0)" />
<circle cx="0.454454" cy="6.30399" r="0.5" fill="rgb(0,0,0)" />
<circle cx="0.64076" cy="1.14505" r="0.5" fill="rgb(0,0,0)" />
<circle cx="12.1312" cy="2.08871" r="0.5" fill="rgb(0,0,0)" />
<circle cx="2.76722" cy="0.676624" r="0.5" fill="rgb(0,0,0)" />
<circle cx="7.01637" cy="1.68521" r="0.5" fill="rgb(0,0,0)" />
<circle cx="3.02011" cy="18.3763" r="0.5" fill="rgb(0,0,0)" />
<circle cx="5.16776" cy="1.99127" r="0.5" fill="rgb(0,0,0)" />
<circle cx="12.5033" cy="6.36923" r="0.5" fill="rgb(0,0,0)" />
<circle cx="15.0639" cy="15.0587" r="0.5" fill="rgb(0,0,0)" />
<circle cx="0.582802" cy="18.1585" r="0.5" fill="rgb(0,0,0)" />
<circle cx="18.1475" cy="18.512" r="0.5" fill="rgb(0,0,0)" />
<circle cx="18.3763" cy="17.3146" r="0.5" fill="rgb(0,0,0)" />
<circle cx="8.6699" cy="10.7077" r="0.5" fill="rgb(0,0,0)" />
<circle cx="7.63931" cy="18.3166" r="0.5" fill="rgb(0,0,0)" />
<circle cx="8.06191" cy="0.538771" r="0.5" fill="rgb(0,0,0)" />
<circle cx="0.747319" cy="15.7504" r="0.5" fill="rgb(0,0,0)" />
<circle cx="5.2211" cy="0.537656" r="0.5" fill="rgb(0,0,0)" />
</svg>
