<?xml version="1.0" ?>
<!DOCTYPE svg PUBLIC "-//W3C//DTD SVG 1.1//EN" "http://www.w3.org/Graphics/SVG/1.1/DTD/svg11.dtd">
<svg width="20" height="20" version="1.1" xmlns="http://www.w3.org/2000/svg">
<circle cx="7.58647" cy="0.192088" r="0.5" fill="rgb(0,0,0)" />
<circle cx="12.487" cy="0.271412" r="0.5" fill="rgb(0,0,0)" />
<circle cx="14.6213" cy="0.218993" r="0.5" fill="rgb(0,0,0)" />
<circle cx="10.3487" cy="0.296454" r="0.5" fill="rgb(0,0,0)" />
<circle cx="5.73171" cy="0.363624" r="0.5" fill="rgb(0,0,0)" />
<circle cx="9.35255" cy="0.537831" r="0.5" fill="rgb(0,0,0)" />
<circle cx="4.37855" cy="0.47876" r="0.5" fill="rgb(0,0,0)" />
<circle cx="17.1174" cy="0.431155" r="0.5" fill="rgb(0,0,0)" />
<circle cx="13.5588" cy="0.976991" r="0.5" fill="rgb(0,0,0)" />
<circle cx="8.37994" cy="0.598633" r="0.5" fill="rgb(0,0,0)" />
<circle cx="14.922" cy="0.750277" r="0.5" fill="rgb(0,0,0)" />
<circle cx="12.6268" cy="1.26837" r="0.5" fill="rgb(0,0,0)" />
<circle cx="15.9358" cy="0.607479" r="0.5" fill="rgb(0,0,0)" />
<circle cx="16.3233" cy="1.55871" r="0.5" fill="rgb(0,0,0)" />
<circle cx="1.78095" cy="1.27929" r="0.5" fill="rgb(0,0,0)" />
<circle cx="10.4121" cy="1.45233" r="0.5" fill="rgb(0,0,0)" />
<circle cx="4.56613" cy="1.56069" r="0.5" fill="rgb(0,0,0)" />
<circle cx="9.20959" cy="1.71477" r="0.5" fill="rgb(0,0,0)" />
<circle cx="7.94606" cy="1.71954" r="0.5" fill="rgb(0,0,0)" />
<circle cx="6.89045" cy="2.10931" r="0.5" fill="rgb(0,0,0)" />
<circle cx="14.285" cy="2.20925" r="0.5" fill="rgb(0,0,0)" />
<circle cx="5.70836" cy="2.37565" r="0.5" fill="rgb(0,0,0)" />
<circle cx="1.84494" cy="2.41305" r="0.5" fill="rgb(0,0,0)" />
<circle cx="7.7849" cy="2.77487" r="0.5" fill="rgb(0,0,0)" />
<circle cx="3.1737" cy="2.79207" r="0.5" fill="rgb(0,0,0)" />
<circle cx="11.6246" cy="2.73921" r="0.5" fill="rgb(0,0,0)" />
<circle cx="8.7296" cy="2.82357" r="0.5" fill="rgb(0,0,0)" />
<circle cx="5.49401" cy="1.25874" r="0.5" fill="rgb(0,0,0)" />
<circle cx="10.6234" cy="2.61558" r="0.5" fill="rgb(0,0,0)" />
<circle cx="13.6062" cy="3.09053" r="0.5" fill="rgb(0,0,0)" />
<circle cx="14.5944" cy="3.05332" r="0.5" fill="rgb(0,0,0)" />
<circle cx="5.94629" cy="3.25899" r="0.5" fill="rgb(0,0,0)" />
<circle cx="13.5168" cy="0.283573" r="0.5" fill="rgb(0,0,0)" />
<circle cx="4.40879" cy="3.58062" r="0.5" fill="rgb(0,0,0)" />
<circle cx="5.31252" cy="3.65702" r="0.5" fill="rgb(0,0,0)" />
<circle cx="10.5109" cy="3.78318" r="0.5" fill="rgb(0,0,0)" />
<circle cx="15.4369" cy="3.75186" r="0.5" fill="rgb(0,0,0)" />
<circle cx="1.54214" cy="3.6937" r="0.5" fill="rgb(0,0,0)" />
<circle cx="6.39971" cy="3.8788" r="0.5" fill="rgb(0,0,0)" />
<circle cx="8.33771" cy="3.76421" r="0.5" fill="rgb(0,0,0)" />
<circle cx="17.6493" cy="3.90512" r="0.5" fill="rgb(0,0,0)" />
<circle cx="7.4376" cy="3.84167" r="0.5" fill="rgb(0,0,0)" />
<circle cx="11.6376" cy="3.81298" r="0.5" fill="rgb(0,0,0)" />
<circle cx="13.7852" cy="4.41974" r="0.5" fill="rgb(0,0,0)" />
<circle cx="16.7418" cy="4.39934" r="0.5" fill="rgb(0,0,0)" />
<circle cx="6.78774" cy="4.59044" r="0.5" fill="rgb(0,0,0)" />
<circle cx="4.16012" cy="2.48037" r="0.5" fill="rgb(0,0,0)" />
<circle cx="3.79925" cy="4.52055" r="0.5" fill="rgb(0,0,0)" />
<circle cx="10.8038" cy="4.74422" r="0.5" fill="rgb(0,0,0)" />
<circle cx="1.23378" cy="4.7858" r="0.5" fill="rgb(0,0,0)" />
<circle cx="13.1149" cy="4.75587" r="0.5" fill="rgb(0,0,0)" />
<circle cx="5.89667" cy="5.1131" r="0.5" fill="rgb(0,0,0)" />
<circle cx="17.499" cy="4.97162" r="0.5" fill="rgb(0,0,0)" />
<circle cx="2.26751" cy="4.84205" r="0.5" fill="rgb(0,0,0)" />
<circle cx="7.9715" cy="4.90319" r="0.5" fill="rgb(0,0,0)" />
<circle cx="4.9028" cy="5.88552" r="0.5" fill="rgb(0,0,0)" />
<circle cx="6.83981" cy="5.52217" r="0.5" fill="rgb(0,0,0)" />
<circle cx="12.6755" cy="3.59326" r="0.5" fill="rgb(0,0,0)" />
<circle cx="14.4741" cy="5.78763" r="0.5" fill="rgb(0,0,0)" />
<circle cx="3.12446" cy="5.41541" r="0.5" fill="rgb(0,0,0)" />
<circle cx="5.50582" cy="4.54106" r="0.5" fill="rgb(0,0,0)" />
<circle cx="0.518874" cy="3.52853" r="0.5" fill="rgb(0,0,0)" />
<circle cx="17.0452" cy="5.78492" r="0.5" fill="rgb(0,0,0)" />
<circle cx="15.6082" cy="5.96426" r="0.5" fill="rgb(0,0,0)" />
<circle cx="12.9624" cy="5.90307" r="0.5" fill="rgb(0,0,0)" />
<circle cx="7.55186" cy="6.08674" r="0.5" fill="rgb(0,0,0)" />
<circle cx="18.3148" cy="5.65137" r="0.5" fill="rgb(0,0,0)" />
<circle cx="11.7011" cy="5.85986" r="0.5" fill="rgb(0,0,0)" />
<circle cx="2.18848" cy="6.2649" r="0.5" fill="rgb(0,0,0)" />
<circle cx="3.69851" cy="6.16068" r="0.5" fill="rgb(0,0,0)" />
<circle cx="17.3031" cy="1.86004" r="0.5" fill="rgb(0,0,0)" />
<circle cx="10.4961" cy="6.58586" r="0.5" fill="rgb(0,0,0)" />
<circle cx="6.1227" cy="6.49208" r="0.5" fill="rgb(0,0,0)" />
<circle cx="5.21995" cy="6.65421" r="0.5" fill="rgb(0,0,0)" />
<circle cx="17.0471" cy="6.65347" r="0.5" fill="rgb(0,0,0)" />
<circle cx="3.25879" cy="1.59266" r="0.5" fill="rgb(0,0,0)" />
<circle cx="13.8423" cy="3.68807" r="0.5" fill="rgb(0,0,0)" />
<circle cx="15.6727" cy="6.7794" r="0.5" fill="rgb(0,0,0)" />
<circle cx="18.5941" cy="6.50059" r="0.5" fill="rgb(0,0,0)" />
<circle cx="8.55366" cy="6.91634" r="0.5" fill="rgb(0,0,0)" />
<circle cx="7.66691" cy="7.1416" r="0.5" fill="rgb(0,0,0)" />
<circle cx="9.67206" cy="3.43926" r="0.5" fill="rgb(0,0,0)" />
<circle cx="2.82602" cy="7.03481" r="0.5" fill="rgb(0,0,0)" />
<circle cx="5.39629" cy="7.50005" r="0.5" fill="rgb(0,0,0)" />
<circle cx="12.3983" cy="7.09743" r="0.5" fill="rgb(0,0,0)" />
<circle cx="16.3184" cy="5.59409" r="0.5" fill="rgb(0,0,0)" />
<circle cx="10.1487" cy="7.49049" r="0.5" fill="rgb(0,0,0)" />
<circle cx="11.2312" cy="7.35535" r="0.5" fill="rgb(0,0,0)" />
<circle cx="3.42016" cy="7.8846" r="0.5" fill="rgb(0,0,0)" />
<circle cx="6.03992" cy="8.17586" r="0.5" fill="rgb(0,0,0)" />
<circle cx="1.14875" cy="7.93371" r="0.5" fill="rgb(0,0,0)" />
<circle cx="8.71074" cy="8.08253" r="0.5" fill="rgb(0,0,0)" />
<circle cx="13.3837" cy="8.0633" r="0.5" fill="rgb(0,0,0)" />
<circle cx="17.2786" cy="7.72872" r="0.5" fill="rgb(0,0,0)" />
<circle cx="5.8483" cy="5.86786" r="0.5" fill="rgb(0,0,0)" />
<circle cx="9.37253" cy="8.03256" r="0.5" fill="rgb(0,0,0)" />
<circle cx="1.95279" cy="8.34472" r="0.5" fill="rgb(0,0,0)" />
<circle cx="11.8544" cy="8.23817" r="0.5" fill="rgb(0,0,0)" />
<circle cx="15.7378" cy="8.44007" r="0.5" fill="rgb(0,0,0)" />
<circle cx="11.1875" cy="0.638229" r="0.5" fill="rgb(0,0,0)" />
<circle cx="4.09123" cy="8.62204" r="0.5" fill="rgb(0,0,0)" />
<circle cx="16.7898" cy="8.43313" r="0.5" fill="rgb(0,0,0)" />
<circle cx="5.1129" cy="8.54633" r="0.5" fill="rgb(0,0,0)" />
<circle cx="10.2372" cy="8.53648" r="0.5" fill="rgb(0,0,0)" />
<circle cx="6.71358" cy="0.289923" r="0.5" fill="rgb(0,0,0)" />
<circle cx="8.21711" cy="8.84609" r="0.5" fill="rgb(0,0,0)" />
<circle cx="7.32878" cy="8.96875" r="0.5" fill="rgb(0,0,0)" />
<circle cx="6.22287" cy="9.05707" r="0.5" fill="rgb(0,0,0)" />
<circle cx="2.47187" cy="9.25775" r="0.5" fill="rgb(0,0,0)" />
<circle cx="8.69873" cy="9.25681" r="0.5" fill="rgb(0,0,0)" />
<circle cx="3.41895" cy="9.35043" r="0.5" fill="rgb(0,0,0)" />
<circle cx="4.11502" cy="9.56458" r="0.5" fill="rgb(0,0,0)" />
<circle cx="1.42065" cy="9.24206" r="0.5" fill="rgb(0,0,0)" />
<circle cx="13.9972" cy="5.19806" r="0.5" fill="rgb(0,0,0)" />
<circle cx="17.0563" cy="9.3008" r="0.5" fill="rgb(0,0,0)" />
<circle cx="4.99079" cy="9.49611" r="0.5" fill="rgb(0,0,0)" />
<circle cx="15.9605" cy="9.63185" r="0.5" fill="rgb(0,0,0)" />
<circle cx="9.82989" cy="9.37834" r="0.5" fill="rgb(0,0,0)" />
<circle cx="9.14377" cy="9.8868" r="0.5" fill="rgb(0,0,0)" />
<circle cx="6.72963" cy="9.9415" r="0.5" fill="rgb(0,0,0)" />
<circle cx="8.08719" cy="9.92764" r="0.5" fill="rgb(0,0,0)" />
<circle cx="2.84039" cy="9.87288" r="0.5" fill="rgb(0,0,0)" />
<circle cx="5.60711" cy="9.99149" r="0.5" fill="rgb(0,0,0)" />
<circle cx="14.6777" cy="9.88155" r="0.5" fill="rgb(0,0,0)" />
<circle cx="4.60851" cy="10.2646" r="0.5" fill="rgb(0,0,0)" />
<circle cx="3.76603" cy="10.2138" r="0.5" fill="rgb(0,0,0)" />
<circle cx="1.89325" cy="10.1184" r="0.5" fill="rgb(0,0,0)" />
<circle cx="12.9036" cy="9.83935" r="0.5" fill="rgb(0,0,0)" />
<circle cx="0.454496" cy="8.49631" r="0.5" fill="rgb(0,0,0)" />
<circle cx="7.04982" cy="10.5676" r="0.5" fill="rgb(0,0,0)" />
<circle cx="7.55134" cy="10.8966" r="0.5" fill="rgb(0,0,0)" />
<circle cx="8.52892" cy="10.7902" r="0.5" fill="rgb(0,0,0)" />
<circle cx="12.9867" cy="2.76963" r="0.5" fill="rgb(0,0,0)" />
<circle cx="17.146" cy="10.5069" r="0.5" fill="rgb(0,0,0)" />
<circle cx="12.4924" cy="8.99852" r="0.5" fill="rgb(0,0,0)" />
<circle cx="15.7658" cy="10.6305" r="0.5" fill="rgb(0,0,0)" />
<circle cx="7.55153" cy="0.90859" r="0.5" fill="rgb(0,0,0)" />
<circle cx="11.946" cy="10.4211" r="0.5" fill="rgb(0,0,0)" />
<circle cx="11.7544" cy="1.82711" r="0.5" fill="rgb(0,0,0)" />
<circle cx="14.1734" cy="10.9577" r="0.5" fill="rgb(0,0,0)" />
<circle cx="5.51599" cy="11.148" r="0.5" fill="rgb(0,0,0)" />
<circle cx="0.323318" cy="9.43574" r="0.5" fill="rgb(0,0,0)" />
<circle cx="14.9798" cy="11.358" r="0.5" fill="rgb(0,0,0)" />
<circle cx="12.1061" cy="4.78314" r="0.5" fill="rgb(0,0,0)" />
<circle cx="9.42165" cy="11.6347" r="0.5" fill="rgb(0,0,0)" />
<circle cx="8.74222" cy="5.83201" r="0.5" fill="rgb(0,0,0)" />
<circle cx="6.33119" cy="11.6189" r="0.5" fill="rgb(0,0,0)" />
<circle cx="13.6072" cy="11.9852" r="0.5" fill="rgb(0,0,0)" />
<circle cx="12.4209" cy="11.6124" r="0.5" fill="rgb(0,0,0)" />
<circle cx="7.29309" cy="11.8345" r="0.5" fill="rgb(0,0,0)" />
<circle cx="1.59304" cy="5.65195" r="0.5" fill="rgb(0,0,0)" />
<circle cx="2.1345" cy="11.8662" r="0.5" fill="rgb(0,0,0)" />
<circle cx="9.89361" cy="5.56829" r="0.5" fill="rgb(0,0,0)" />
<circle cx="4.26935" cy="12.0583" r="0.5" fill="rgb(0,0,0)" />
<circle cx="10.805" cy="12.0408" r="0.5" fill="rgb(0,0,0)" />
<circle cx="6.16498" cy="1.71174" r="0.5" fill="rgb(0,0,0)" />
<circle cx="16.7197" cy="11.8233" r="0.5" fill="rgb(0,0,0)" />
<circle cx="15.815" cy="12.1222" r="0.5" fill="rgb(0,0,0)" />
<circle cx="15.0078" cy="12.5296" r="0.5" fill="rgb(0,0,0)" />
<circle cx="3.21467" cy="10.5318" r="0.5" fill="rgb(0,0,0)" />
<circle cx="1.4401" cy="12.4481" r="0.5" fill="rgb(0,0,0)" />
<circle cx="5.13191" cy="12.4514" r="0.5" fill="rgb(0,0,0)" />
<circle cx="3.16713" cy="12.4205" r="0.5" fill="rgb(0,0,0)" />
<circle cx="14.2399" cy="12.8201" r="0.5" fill="rgb(0,0,0)" />
<circle cx="15.9324" cy="2.55341" r="0.5" fill="rgb(0,0,0)" />
<circle cx="6.86166" cy="12.6601" r="0.5" fill="rgb(0,0,0)" />
<circle cx="18.1273" cy="12.7813" r="0.5" fill="rgb(0,0,0)" />
<circle cx="8.27358" cy="12.9934" r="0.5" fill="rgb(0,0,0)" />
<circle cx="13.4946" cy="13.1336" r="0.5" fill="rgb(0,0,0)" />
<circle cx="5.9571" cy="13.0554" r="0.5" fill="rgb(0,0,0)" />
<circle cx="18.0559" cy="2.60064" r="0.5" fill="rgb(0,0,0)" />
<circle cx="15.033" cy="4.87885" r="0.5" fill="rgb(0,0,0)" />
<circle cx="10.4413" cy="13.2681" r="0.5" fill="rgb(0,0,0)" />
<circle cx="3.96322" cy="13.2886" r="0.5" fill="rgb(0,0,0)" />
<circle cx="17.2057" cy="13.2928" r="0.5" fill="rgb(0,0,0)" />
<circle cx="16.6497" cy="3.50324" r="0.5" fill="rgb(0,0,0)" />
<circle cx="14.5221" cy="13.6044" r="0.5" fill="rgb(0,0,0)" />
<circle cx="11.1262" cy="9.24602" r="0.5" fill="rgb(0,0,0)" />
<circle cx="11.5759" cy="13.0453" r="0.5" fill="rgb(0,0,0)" />
<circle cx="1.10085" cy="13.4997" r="0.5" fill="rgb(0,0,0)" />
<circle cx="2.45019" cy="13.3635" r="0.5" fill="rgb(0,0,0)" />
<circle cx="5.01639" cy="2.80846" r="0.5" fill="rgb(0,0,0)" />
<circle cx="4.81967" cy="13.681" r="0.5" fill="rgb(0,0,0)" />
<circle cx="7.81774" cy="13.7593" r="0.5" fill="rgb(0,0,0)" />
<circle cx="2.82345" cy="8.44456" r="0.5" fill="rgb(0,0,0)" />
<circle cx="9.20793" cy="13.6887" r="0.5" fill="rgb(0,0,0)" />
<circle cx="16.2364" cy="13.4795" r="0.5" fill="rgb(0,0,0)" />
<circle cx="5.44076" cy="14.0906" r="0.5" fill="rgb(0,0,0)" />
<circle cx="6.72928" cy="1.16215" r="0.5" fill="rgb(0,0,0)" />
<circle cx="4.26645" cy="6.62932" r="0.5" fill="rgb(0,0,0)" />
<circle cx="15.3626" cy="13.5328" r="0.5" fill="rgb(0,0,0)" />
<circle cx="6.15406" cy="14.4031" r="0.5" fill="rgb(0,0,0)" />
<circle cx="6.68035" cy="6.82915" r="0.5" fill="rgb(0,0,0)" />
<circle cx="14.3672" cy="14.4355" r="0.5" fill="rgb(0,0,0)" />
<circle cx="17.8529" cy="1.08702" r="0.5" fill="rgb(0,0,0)" />
<circle cx="15.5454" cy="14.4997" r="0.5" fill="rgb(0,0,0)" />
<circle cx="8.47623" cy="14.4596" r="0.5" fill="rgb(0,0,0)" />
<circle cx="17.1101" cy="14.2444" r="0.5" fill="rgb(0,0,0)" />
<circle cx="1.74949" cy="14.3855" r="0.5" fill="rgb(0,0,0)" />
<circle cx="4.75329" cy="4.37472" r="0.5" fill="rgb(0,0,0)" />
<circle cx="12.4989" cy="14.4087" r="0.5" fill="rgb(0,0,0)" />
<circle cx="8.14915" cy="11.5087" r="0.5" fill="rgb(0,0,0)" />
<circle cx="3.22568" cy="14.178" r="0.5" fill="rgb(0,0,0)" />
<circle cx="4.97788" cy="14.9817" r="0.5" fill="rgb(0,0,0)" />
<circle cx="10.0885" cy="14.8198" r="0.5" fill="rgb(0,0,0)" />
<circle cx="11.0722" cy="14.3882" r="0.5" fill="rgb(0,0,0)" />
<circle cx="3.98504" cy="15.1854" r="0.5" fill="rgb(0,0,0)" />
<circle cx="15.8462" cy="4.41958" r="0.5" fill="rgb(0,0,0)" />
<circle cx="7.91493" cy="8.09018" r="0.5" fill="rgb(0,0,0)" />
<circle cx="5.6219" cy="15.3215" r="0.5" fill="rgb(0,0,0)" />
<circle cx="17.9267" cy="14.8587" r="0.5" fill="rgb(0,0,0)" />
<circle cx="4.46928" cy="11.0679" r="0.5" fill="rgb(0,0,0)" />
<circle cx="9.04523" cy="15.1169" r="0.5" fill="rgb(0,0,0)" />
<circle cx="3.60027" cy="3.54802" r="0.5" fill="rgb(0,0,0)" />
<circle cx="7.12559" cy="8.13565" r="0.5" fill="rgb(0,0,0)" />
<circle cx="6.60191" cy="15.3028" r="0.5" fill="rgb(0,0,0)" />
<circle cx="11.551" cy="14.9688" r="0.5" fill="rgb(0,0,0)" />
<circle cx="0.942078" cy="15.2656" r="0.5" fill="rgb(0,0,0)" />
<circle cx="7.68014" cy="15.1401" r="0.5" fill="rgb(0,0,0)" />
<circle cx="15.073" cy="15.323" r="0.5" fill="rgb(0,0,0)" />
<circle cx="2.42638" cy="15.1781" r="0.5" fill="rgb(0,0,0)" />
<circle cx="1.75514" cy="15.8576" r="0.5" fill="rgb(0,0,0)" />
<circle cx="9.10721" cy="4.98404" r="0.5" fill="rgb(0,0,0)" />
<circle cx="4.73952" cy="15.809" r="0.5" fill="rgb(0,0,0)" />
<circle cx="10.7877" cy="5.80941" r="0.5" fill="rgb(0,0,0)" />
<circle cx="6.24783" cy="10.3104" r="0.5" fill="rgb(0,0,0)" />
<circle cx="5.67458" cy="16.064" r="0.5" fill="rgb(0,0,0)" />
<circle cx="11.9918" cy="15.6742" r="0.5" fill="rgb(0,0,0)" />
<circle cx="12.573" cy="13.1254" r="0.5" fill="rgb(0,0,0)" />
<circle cx="10.1462" cy="15.8674" r="0.5" fill="rgb(0,0,0)" />
<circle cx="4.25915" cy="7.49942" r="0.5" fill="rgb(0,0,0)" />
<circle cx="13.2538" cy="15.8453" r="0.5" fill="rgb(0,0,0)" />
<circle cx="3.21659" cy="15.1197" r="0.5" fill="rgb(0,0,0)" />
<circle cx="7.40175" cy="16.1374" r="0.5" fill="rgb(0,0,0)" />
<circle cx="15.2857" cy="9.12353" r="0.5" fill="rgb(0,0,0)" />
<circle cx="8.81742" cy="16.2028" r="0.5" fill="rgb(0,0,0)" />
<circle cx="13.8446" cy="9.08868" r="0.5" fill="rgb(0,0,0)" />
<circle cx="2.53295" cy="11.0455" r="0.5" fill="rgb(0,0,0)" />
<circle cx="1.29535" cy="16.6097" r="0.5" fill="rgb(0,0,0)" />
<circle cx="12.6602" cy="16.4542" r="0.5" fill="rgb(0,0,0)" />
<circle cx="17.2466" cy="16.1723" r="0.5" fill="rgb(0,0,0)" />
<circle cx="6.54835" cy="16.5225" r="0.5" fill="rgb(0,0,0)" />
<circle cx="12.5482" cy="2.32071" r="0.5" fill="rgb(0,0,0)" />
<circle cx="0.843036" cy="6.24994" r="0.5" fill="rgb(0,0,0)" />
<circle cx="13.4679" cy="14.1096" r="0.5" fill="rgb(0,0,0)" />
<circle cx="2.09853" cy="16.7952" r="0.5" fill="rgb(0,0,0)" />
<circle cx="14.6605" cy="1.44484" r="0.5" fill="rgb(0,0,0)" />
<circle cx="15.0872" cy="16.4465" r="0.5" fill="rgb(0,0,0)" />
<circle cx="11.0867" cy="16.533" r="0.5" fill="rgb(0,0,0)" />
<circle cx="15.911" cy="16.8006" r="0.5" fill="rgb(0,0,0)" />
<circle cx="14.6428" cy="8.62139" r="0.5" fill="rgb(0,0,0)" />
<circle cx="14.1859" cy="16.922" r="0.5" fill="rgb(0,0,0)" />
<circle cx="1.37204" cy="17.3537" r="0.5" fill="rgb(0,0,0)" />
<circle cx="0.506354" cy="16.9666" r="0.5" fill="rgb(0,0,0)" />
<circle cx="4.41956" cy="16.7983" r="0.5" fill="rgb(0,0,0)" />
<circle cx="10.1528" cy="14.0216" r="0.5" fill="rgb(0,0,0)" />
<circle cx="7.75506" cy="17.0323" r="0.5" fill="rgb(0,0,0)" />
<circle cx="1.29371" cy="11.0139" r="0.5" fill="rgb(0,0,0)" />
<circle cx="3.00947" cy="16.7731" r="0.5" fill="rgb(0,0,0)" />
<circle cx="7.33188" cy="9.73638" r="0.5" fill="rgb(0,0,0)" />
<circle cx="16.9258" cy="17.2129" r="0.5" fill="rgb(0,0,0)" />
<circle cx="12.4168" cy="17.3064" r="0.5" fill="rgb(0,0,0)" />
<circle cx="8.89652" cy="17.3154" r="0.5" fill="rgb(0,0,0)" />
<circle cx="13.3795" cy="17.3832" r="0.5" fill="rgb(0,0,0)" />
<circle cx="1.96128" cy="17.7927" r="0.5" fill="rgb(0,0,0)" />
<circle cx="2.33466" cy="3.11783" r="0.5" fill="rgb(0,0,0)" />
<circle cx="4.50417" cy="5.24287" r="0.5" fill="rgb(0,0,0)" />
<circle cx="6.59121" cy="7.60021" r="0.5" fill="rgb(0,0,0)" />
<circle cx="14.3563" cy="17.754" r="0.5" fill="rgb(0,0,0)" />
<circle cx="5.82868" cy="17.4046" r="0.5" fill="rgb(0,0,0)" />
<circle cx="9.82377" cy="4.47519" r="0.5" fill="rgb(0,0,0)" />
<circle cx="16.0174" cy="17.8061" r="0.5" fill="rgb(0,0,0)" />
<circle cx="15.1102" cy="17.7802" r="0.5" fill="rgb(0,0,0)" />
<circle cx="1.21358" cy="17.8969" r="0.5" fill="rgb(0,0,0)" />
<circle cx="17.7513" cy="17.8769" r="0.5" fill="rgb(0,0,0)" />
<circle cx="10.9056" cy="17.8192" r="0.5" fill="rgb(0,0,0)" />
<circle cx="2.80106" cy="17.7442" r="0.5" fill="rgb(0,0,0)" />
<circle cx="18.1332" cy="7.09382" r="0.5" fill="rgb(0,0,0)" />
<circle cx="9.56855" cy="10.6542" r="0.5" fill="rgb(0,0,0)" />
<circle cx="0.55874" cy="10.2862" r="0.5" fill="rgb(0,0,0)" />
<circle cx="17.5868" cy="12.2706" r="0.5" fill="rgb(0,0,0)" />
<circle cx="11.6765" cy="17.4539" r="0.5" fill="rgb(0,0,0)" />
<circle cx="7.93706" cy="17.9137" r="0.5" fill="rgb(0,0,0)" />
<circle cx="6.72182" cy="17.6856" r="0.5" fill="rgb(0,0,0)" />
<circle cx="14.6054" cy="4.21745" r="0.5" fill="rgb(0,0,0)" />
<circle cx="16.3308" cy="4.91334" r="0.5" fill="rgb(0,0,0)" />
<circle cx="18.3671" cy="17.0712" r="0.5" fill="rgb(0,0,0)" />
<circle cx="16.3215" cy="15.3699" r="0.5" fill="rgb(0,0,0)" />
<circle cx="4.86978" cy="17.7061" r="0.5" fill="rgb(0,0,0)" />
<circle cx="12.2929" cy="18.2869" r="0.5" fill="rgb(0,0,0)" />
<circle cx="9.64212" cy="2.5592" r="0.5" fill="rgb(0,0,0)" />
<circle cx="15.5099" cy="5.27412" r="0.5" fill="rgb(0,0,0)" />
<circle cx="18.758" cy="18.1584" r="0.5" fill="rgb(0,0,0)" />
<circle cx="1.61108" cy="7.19062" r="0.5" fill="rgb(0,0,0)" />
<circle cx="14.6484" cy="7.69463" r="0.5" fill="rgb(0,0,0)" />
<circle cx="18.3139" cy="9.4251" r="0.5" fill="rgb(0,0,0)" />
<circle cx="18.4239" cy="8.10117" r="0.5" fill="rgb(0,0,0)" />
<circle cx="10.7703" cy="10.6779" r="0.5" fill="rgb(0,0,0)" />
<circle cx="9.56387" cy="12.5875" r="0.5" fill="rgb(0,0,0)" />
<circle cx="17.9922" cy="18.7034" r="0.5" fill="rgb(0,0,0)" />
<circle cx="13.4666" cy="2.31191" r="0.5" fill="rgb(0,0,0)" />
<circle cx="13.5627" cy="6.92759" r="0.5" fill="rgb(0,0,0)" />
<circle cx="9.97107" cy="17.2279" r="0.5" fill="rgb(0,0,0)" />
<circle cx="17.0957" cy="18.3823" r="0.5" fill="rgb(0,0,0)" />
<circle cx="18.5094" cy="1.78362" r="0.5" fill="rgb(0,0,0)" />
<circle cx="6.92822" cy="13.948" r="0.5" fill="rgb(0,0,0)" />
<circle cx="18.5006" cy="0.446565" r="0.5" fill="rgb(0,0,0)" />
<circle cx="8.31627" cy="12.171" r="0.5" fill="rgb(0,0,0)" />
<circle cx="18.5618" cy="13.5164" r="0.5" fill="rgb(0,0,0)" />
<circle cx="13.4882" cy="1.69381" r="0.5" fill="rgb(0,0,0)" />
<circle cx="15.9759" cy="7.53659" r="0.5" fill="rgb(0,0,0)" />
<circle cx="18.2844" cy="11.2275" r="0.5" fill="rgb(0,0,0)" />
<circle cx="13.4957" cy="18.3961" r="0.5" fill="rgb(0,0,0)" />
<circle cx="15.2546" cy="2.48476" r="0.5" fill="rgb(0,0,0)" />
<circle cx="9.04366" cy="4.0835" r="0.5" fill="rgb(0,0,0)" />
<circle cx="9.43626" cy="6.68886" r="0.5" fill="rgb(0,0,0)" />
<circle cx="18.4548" cy="15.7575" r="0.5" fill="rgb(0,0,0)" />
<circle cx="4.21778" cy="18.2078" r="0.5" fill="rgb(0,0,0)" />
<circle cx="18.4918" cy="4.52497" r="0.5" fill="rgb(0,0,0)" />
<circle cx="18.4675" cy="3.29729" r="0.5" fill="rgb(0,0,0)" />
<circle cx="11.8651" cy="0.72459" r="0.5" fill="rgb(0,0,0)" />
<circle cx="3.50945" cy="11.3682" r="0.5" fill="rgb(0,0,0)" />
<circle cx="14.2398" cy="18.5596" r="0.5" fill="rgb(0,0,0)" />
<circle cx="14.5545" cy="6.69101" r="0.5" fill="rgb(0,0,0)" />
<circle cx="0.395984" cy="16.0208" r="0.5" fill="rgb(0,0,0)" />
<circle cx="2.78436" cy="4.01128" r="0.5" fill="rgb(0,0,0)" />
<circle cx="0.455572" cy="11.6393" r="0.5" fill="rgb(0,0,0)" />
<circle cx="0.546682" cy="2.30193" r="0.5" fill="rgb(0,0,0)" />
<circle cx="16.4609" cy="18.5495" r="0.5" fill="rgb(0,0,0)" />
<circle cx="10.1285" cy="18.4332" r="0.5" fill="rgb(0,0,0)" />
<circle cx="0.403472" cy="14.4505" r="0.5" fill="rgb(0,0,0)" />
<circle cx="0.328351" cy="12.9569" r="0.5" fill="rgb(0,0,0)" />
<circle cx="3.97924" cy="16.1324" r="0.5" fill="rgb(0,0,0)" />
<circle cx="14.9462" cy="18.607" r="0.5" fill="rgb(0,0,0)" />
<circle cx="5.53826" cy="16.7559" r="0.5" fill="rgb(0,0,0)" />
<circle cx="15.6693" cy="18.5615" r="0.5" fill="rgb(0,0,0)" />
<circle cx="0.379254" cy="7.06247" r="0.5" fill="rgb(0,0,0)" />
<circle cx="16.8668" cy="2.65023" r="0.5" fill="rgb(0,0,0)" />
<circle cx="8.9317" cy="18.4593" r="0.5" fill="rgb(0,0,0)" />
<circle cx="13.4717" cy="15.0587" r="0.5" fill="rgb(0,0,0)" />
<circle cx="3.31223" cy="18.4568" r="0.5" fill="rgb(0,0,0)" />
<circle cx="7.51272" cy="18.5749" r="0.5" fill="rgb(0,0,0)" />
<circle cx="5.92662" cy="18.5014" r="0.5" fill="rgb(0,0,0)" />
<circle cx="3.2072" cy="15.9655" r="0.5" fill="rgb(0,0,0)" />
<circle cx="12.7545" cy="18.6304" r="0.5" fill="rgb(0,0,0)" />
<circle cx="6.79661" cy="2.98661" r="0.5" fill="rgb(0,0,0)" />
<circle cx="11.3569" cy="18.5662" r="0.5" fill="rgb(0,0,0)" />
<circle cx="0.340112" cy="5.458" r="0.5" fill="rgb(0,0,0)" />
<circle cx="0.408776" cy="4.35446" r="0.5" fill="rgb(0,0,0)" />
<circle cx="0.644612" cy="0.663549" r="0.5" fill="rgb(0,0,0)" />
<circle cx="18.4142" cy="18.3599" r="0.5" fill="rgb(0,0,0)" />
<circle cx="2.66003" cy="0.4536" r="0.5" fill="rgb(0,0,0)" />
<circle cx="4.27612" cy="14.4699" r="0.5" fill="rgb(0,0,0)" />
<circle cx="0.249456" cy="17.719" r="0.5" fill="rgb(0,0,0)" />
<circle cx="0.365884" cy="18.4809" r="0.5" fill="rgb(0,0,0)" />
<circle cx="2.07064" cy="18.5969" r="0.5" fill="rgb(0,0,0)" />
<circle cx="13.5327" cy="10.3795" r="0.5" fill="rgb(0,0,0)" />
<circle cx="14.2598" cy="15.7512" r="0.5" fill="rgb(0,0,0)" />
<circle cx="1.09616" cy="18.5788" r="0.5" fill="rgb(0,0,0)" />
</svg>
