<?xml version="1.0" ?>
<!DOCTYPE svg PUBLIC "-//W3C//DTD SVG 1.1//EN" "http://www.w3.org/Graphics/SVG/1.1/DTD/svg11.dtd">
<svg width="20" height="20" version="1.1" xmlns="http://www.w3.org/2000/svg">
<circle cx="8.05344" cy="0.277217" r="0.5" fill="rgb(0,0,0)" />
<circle cx="5.74829" cy="0.465828" r="0.5" fill="rgb(0,0,0)" />
<circle cx="12.1561" cy="0.481851" r="0.5" fill="rgb(0,0,0)" />
<circle cx="14.8045" cy="0.398393" r="0.5" fill="rgb(0,0,0)" />
<circle cx="9.28736" cy="0.53399" r="0.5" fill="rgb(0,0,0)" />
<circle cx="4.34183" cy="0.5704" r="0.5" fill="rgb(0,0,0)" />
<circle cx="17.3071" cy="0.691287" r="0.5" fill="rgb(0,0,0)" />
<circle cx="15.9849" cy="0.767592" r="0.5" fill="rgb(0,0,0)" />
<circle cx="7.94418" cy="1.13874" r="0.5" fill="rgb(0,0,0)" />
<circle cx="10.8437" cy="0.410773" r="0.5" fill="rgb(0,0,0)" />
<circle cx="5.14098" cy="1.4925" r="0.5" fill="rgb(0,0,0)" />
<circle cx="6.95802" cy="1.3653" r="0.5" fill="rgb(0,0,0)" />
<circle cx="10.5637" cy="1.37157" r="0.5" fill="rgb(0,0,0)" />
<circle cx="6.22066" cy="1.6602" r="0.5" fill="rgb(0,0,0)" />
<circle cx="13.4527" cy="1.68943" r="0.5" fill="rgb(0,0,0)" />
<circle cx="12.7152" cy="1.98753" r="0.5" fill="rgb(0,0,0)" />
<circle cx="1.8263" cy="1.96118" r="0.5" fill="rgb(0,0,0)" />
<circle cx="16.4672" cy="2.09924" r="0.5" fill="rgb(0,0,0)" />
<circle cx="13.0292" cy="2.74025" r="0.5" fill="rgb(0,0,0)" />
<circle cx="8.99413" cy="2.7578" r="0.5" fill="rgb(0,0,0)" />
<circle cx="3.18352" cy="2.81469" r="0.5" fill="rgb(0,0,0)" />
<circle cx="18.0926" cy="1.74755" r="0.5" fill="rgb(0,0,0)" />
<circle cx="18.4606" cy="0.571189" r="0.5" fill="rgb(0,0,0)" />
<circle cx="10.4634" cy="2.60679" r="0.5" fill="rgb(0,0,0)" />
<circle cx="3.25098" cy="1.56169" r="0.5" fill="rgb(0,0,0)" />
<circle cx="6.81456" cy="2.83599" r="0.5" fill="rgb(0,0,0)" />
<circle cx="11.6704" cy="2.69654" r="0.5" fill="rgb(0,0,0)" />
<circle cx="2.23279" cy="3.04136" r="0.5" fill="rgb(0,0,0)" />
<circle cx="16.7705" cy="3.32643" r="0.5" fill="rgb(0,0,0)" />
<circle cx="4.40299" cy="3.54813" r="0.5" fill="rgb(0,0,0)" />
<circle cx="5.30639" cy="3.66605" r="0.5" fill="rgb(0,0,0)" />
<circle cx="3.61062" cy="3.57244" r="0.5" fill="rgb(0,0,0)" />
<circle cx="6.03654" cy="3.38749" r="0.5" fill="rgb(0,0,0)" />
<circle cx="13.7107" cy="3.46731" r="0.5" fill="rgb(0,0,0)" />
<circle cx="15.4581" cy="3.80858" r="0.5" fill="rgb(0,0,0)" />
<circle cx="7.46187" cy="3.80332" r="0.5" fill="rgb(0,0,0)" />
<circle cx="5.78689" cy="2.39744" r="0.5" fill="rgb(0,0,0)" />
<circle cx="8.58586" cy="3.82705" r="0.5" fill="rgb(0,0,0)" />
<circle cx="2.77638" cy="4.02493" r="0.5" fill="rgb(0,0,0)" />
<circle cx="12.7099" cy="3.79786" r="0.5" fill="rgb(0,0,0)" />
<circle cx="16.7024" cy="4.40762" r="0.5" fill="rgb(0,0,0)" />
<circle cx="10.6365" cy="3.90541" r="0.5" fill="rgb(0,0,0)" />
<circle cx="17.5976" cy="4.32404" r="0.5" fill="rgb(0,0,0)" />
<circle cx="11.711" cy="4.23494" r="0.5" fill="rgb(0,0,0)" />
<circle cx="5.4887" cy="4.60701" r="0.5" fill="rgb(0,0,0)" />
<circle cx="10.1028" cy="4.62423" r="0.5" fill="rgb(0,0,0)" />
<circle cx="2.18502" cy="4.83106" r="0.5" fill="rgb(0,0,0)" />
<circle cx="6.01836" cy="5.12021" r="0.5" fill="rgb(0,0,0)" />
<circle cx="7.9267" cy="4.94053" r="0.5" fill="rgb(0,0,0)" />
<circle cx="13.4209" cy="0.511752" r="0.5" fill="rgb(0,0,0)" />
<circle cx="12.0118" cy="1.49684" r="0.5" fill="rgb(0,0,0)" />
<circle cx="13.5808" cy="4.81275" r="0.5" fill="rgb(0,0,0)" />
<circle cx="9.38212" cy="5.03726" r="0.5" fill="rgb(0,0,0)" />
<circle cx="4.65463" cy="5.38996" r="0.5" fill="rgb(0,0,0)" />
<circle cx="16.761" cy="5.44398" r="0.5" fill="rgb(0,0,0)" />
<circle cx="6.6781" cy="5.56497" r="0.5" fill="rgb(0,0,0)" />
<circle cx="1.27254" cy="5.3194" r="0.5" fill="rgb(0,0,0)" />
<circle cx="8.88661" cy="5.79754" r="0.5" fill="rgb(0,0,0)" />
<circle cx="15.2764" cy="5.10975" r="0.5" fill="rgb(0,0,0)" />
<circle cx="3.17275" cy="5.57812" r="0.5" fill="rgb(0,0,0)" />
<circle cx="7.53485" cy="6.04602" r="0.5" fill="rgb(0,0,0)" />
<circle cx="15.692" cy="6.03089" r="0.5" fill="rgb(0,0,0)" />
<circle cx="12.6075" cy="5.57289" r="0.5" fill="rgb(0,0,0)" />
<circle cx="14.3053" cy="5.75507" r="0.5" fill="rgb(0,0,0)" />
<circle cx="1.89258" cy="6.20286" r="0.5" fill="rgb(0,0,0)" />
<circle cx="4.32954" cy="6.39198" r="0.5" fill="rgb(0,0,0)" />
<circle cx="6.62143" cy="6.80314" r="0.5" fill="rgb(0,0,0)" />
<circle cx="9.68108" cy="6.51358" r="0.5" fill="rgb(0,0,0)" />
<circle cx="7.67478" cy="7.17288" r="0.5" fill="rgb(0,0,0)" />
<circle cx="18.1081" cy="7.10284" r="0.5" fill="rgb(0,0,0)" />
<circle cx="5.01032" cy="2.79286" r="0.5" fill="rgb(0,0,0)" />
<circle cx="1.58693" cy="7.18162" r="0.5" fill="rgb(0,0,0)" />
<circle cx="2.94099" cy="7.03142" r="0.5" fill="rgb(0,0,0)" />
<circle cx="15.6678" cy="7.17475" r="0.5" fill="rgb(0,0,0)" />
<circle cx="17.8521" cy="2.64098" r="0.5" fill="rgb(0,0,0)" />
<circle cx="12.6679" cy="7.03697" r="0.5" fill="rgb(0,0,0)" />
<circle cx="10.26" cy="7.24289" r="0.5" fill="rgb(0,0,0)" />
<circle cx="14.3603" cy="7.03194" r="0.5" fill="rgb(0,0,0)" />
<circle cx="6.58546" cy="7.64833" r="0.5" fill="rgb(0,0,0)" />
<circle cx="5.25478" cy="7.46004" r="0.5" fill="rgb(0,0,0)" />
<circle cx="11.3188" cy="7.20063" r="0.5" fill="rgb(0,0,0)" />
<circle cx="10.9771" cy="5.64112" r="0.5" fill="rgb(0,0,0)" />
<circle cx="7.34847" cy="8.13362" r="0.5" fill="rgb(0,0,0)" />
<circle cx="17.0767" cy="7.70805" r="0.5" fill="rgb(0,0,0)" />
<circle cx="2.61265" cy="8.19698" r="0.5" fill="rgb(0,0,0)" />
<circle cx="13.6635" cy="7.92689" r="0.5" fill="rgb(0,0,0)" />
<circle cx="9.64034" cy="3.51846" r="0.5" fill="rgb(0,0,0)" />
<circle cx="9.35902" cy="7.99288" r="0.5" fill="rgb(0,0,0)" />
<circle cx="14.9301" cy="8.512" r="0.5" fill="rgb(0,0,0)" />
<circle cx="10.3261" cy="8.50657" r="0.5" fill="rgb(0,0,0)" />
<circle cx="3.84954" cy="8.79542" r="0.5" fill="rgb(0,0,0)" />
<circle cx="12.1588" cy="8.40089" r="0.5" fill="rgb(0,0,0)" />
<circle cx="1.48875" cy="9.12818" r="0.5" fill="rgb(0,0,0)" />
<circle cx="4.91492" cy="9.02738" r="0.5" fill="rgb(0,0,0)" />
<circle cx="6.06779" cy="9.19759" r="0.5" fill="rgb(0,0,0)" />
<circle cx="13.3583" cy="9.08623" r="0.5" fill="rgb(0,0,0)" />
<circle cx="3.67709" cy="9.6621" r="0.5" fill="rgb(0,0,0)" />
<circle cx="9.07015" cy="9.80417" r="0.5" fill="rgb(0,0,0)" />
<circle cx="8.13361" cy="9.89209" r="0.5" fill="rgb(0,0,0)" />
<circle cx="9.84096" cy="9.39788" r="0.5" fill="rgb(0,0,0)" />
<circle cx="11.3702" cy="9.37778" r="0.5" fill="rgb(0,0,0)" />
<circle cx="14.602" cy="9.79747" r="0.5" fill="rgb(0,0,0)" />
<circle cx="4.67196" cy="10.1694" r="0.5" fill="rgb(0,0,0)" />
<circle cx="1.8376" cy="10.2047" r="0.5" fill="rgb(0,0,0)" />
<circle cx="3.8005" cy="4.55066" r="0.5" fill="rgb(0,0,0)" />
<circle cx="15.8468" cy="9.51828" r="0.5" fill="rgb(0,0,0)" />
<circle cx="13.3015" cy="10.2162" r="0.5" fill="rgb(0,0,0)" />
<circle cx="6.16159" cy="10.3373" r="0.5" fill="rgb(0,0,0)" />
<circle cx="7.338" cy="10.8275" r="0.5" fill="rgb(0,0,0)" />
<circle cx="3.25965" cy="10.5666" r="0.5" fill="rgb(0,0,0)" />
<circle cx="15.703" cy="10.6348" r="0.5" fill="rgb(0,0,0)" />
<circle cx="8.52685" cy="10.8202" r="0.5" fill="rgb(0,0,0)" />
<circle cx="18.5998" cy="6.44539" r="0.5" fill="rgb(0,0,0)" />
<circle cx="9.61841" cy="10.7467" r="0.5" fill="rgb(0,0,0)" />
<circle cx="17.143" cy="10.6033" r="0.5" fill="rgb(0,0,0)" />
<circle cx="13.6705" cy="11.2847" r="0.5" fill="rgb(0,0,0)" />
<circle cx="10.8326" cy="10.9602" r="0.5" fill="rgb(0,0,0)" />
<circle cx="6.85387" cy="0.348464" r="0.5" fill="rgb(0,0,0)" />
<circle cx="3.94696" cy="11.5362" r="0.5" fill="rgb(0,0,0)" />
<circle cx="2.3268" cy="11.5498" r="0.5" fill="rgb(0,0,0)" />
<circle cx="4.79663" cy="11.2577" r="0.5" fill="rgb(0,0,0)" />
<circle cx="5.79256" cy="11.6038" r="0.5" fill="rgb(0,0,0)" />
<circle cx="16.1863" cy="12.0294" r="0.5" fill="rgb(0,0,0)" />
<circle cx="0.837354" cy="11.2783" r="0.5" fill="rgb(0,0,0)" />
<circle cx="3.53172" cy="12.4082" r="0.5" fill="rgb(0,0,0)" />
<circle cx="14.8203" cy="12.5632" r="0.5" fill="rgb(0,0,0)" />
<circle cx="13.4645" cy="12.5156" r="0.5" fill="rgb(0,0,0)" />
<circle cx="6.23897" cy="12.8434" r="0.5" fill="rgb(0,0,0)" />
<circle cx="4.07605" cy="7.62491" r="0.5" fill="rgb(0,0,0)" />
<circle cx="10.2726" cy="12.3458" r="0.5" fill="rgb(0,0,0)" />
<circle cx="1.23086" cy="7.99206" r="0.5" fill="rgb(0,0,0)" />
<circle cx="9.22259" cy="12.1245" r="0.5" fill="rgb(0,0,0)" />
<circle cx="12.1152" cy="12.7895" r="0.5" fill="rgb(0,0,0)" />
<circle cx="15.0142" cy="13.499" r="0.5" fill="rgb(0,0,0)" />
<circle cx="4.17645" cy="13.16" r="0.5" fill="rgb(0,0,0)" />
<circle cx="2.31714" cy="13.1895" r="0.5" fill="rgb(0,0,0)" />
<circle cx="10.5449" cy="13.393" r="0.5" fill="rgb(0,0,0)" />
<circle cx="4.94395" cy="13.6729" r="0.5" fill="rgb(0,0,0)" />
<circle cx="7.13557" cy="9.86997" r="0.5" fill="rgb(0,0,0)" />
<circle cx="13.4311" cy="13.8668" r="0.5" fill="rgb(0,0,0)" />
<circle cx="12.2052" cy="10.9408" r="0.5" fill="rgb(0,0,0)" />
<circle cx="16.3406" cy="13.3549" r="0.5" fill="rgb(0,0,0)" />
<circle cx="14.586" cy="3.04977" r="0.5" fill="rgb(0,0,0)" />
<circle cx="6.10597" cy="14.059" r="0.5" fill="rgb(0,0,0)" />
<circle cx="14.2202" cy="2.24928" r="0.5" fill="rgb(0,0,0)" />
<circle cx="8.59668" cy="6.86934" r="0.5" fill="rgb(0,0,0)" />
<circle cx="14.3572" cy="14.2122" r="0.5" fill="rgb(0,0,0)" />
<circle cx="15.5718" cy="14.4779" r="0.5" fill="rgb(0,0,0)" />
<circle cx="3.13337" cy="14.3894" r="0.5" fill="rgb(0,0,0)" />
<circle cx="7.68561" cy="14.0474" r="0.5" fill="rgb(0,0,0)" />
<circle cx="13.4635" cy="15.0094" r="0.5" fill="rgb(0,0,0)" />
<circle cx="4.02908" cy="14.7844" r="0.5" fill="rgb(0,0,0)" />
<circle cx="1.47128" cy="14.2694" r="0.5" fill="rgb(0,0,0)" />
<circle cx="5.02773" cy="14.9168" r="0.5" fill="rgb(0,0,0)" />
<circle cx="8.96286" cy="14.5829" r="0.5" fill="rgb(0,0,0)" />
<circle cx="15.4137" cy="2.47414" r="0.5" fill="rgb(0,0,0)" />
<circle cx="11.5447" cy="14.619" r="0.5" fill="rgb(0,0,0)" />
<circle cx="6.14059" cy="15.2801" r="0.5" fill="rgb(0,0,0)" />
<circle cx="15.0555" cy="15.3126" r="0.5" fill="rgb(0,0,0)" />
<circle cx="2.23426" cy="15.3508" r="0.5" fill="rgb(0,0,0)" />
<circle cx="10.4181" cy="14.8928" r="0.5" fill="rgb(0,0,0)" />
<circle cx="4.83006" cy="15.8375" r="0.5" fill="rgb(0,0,0)" />
<circle cx="17.7313" cy="15.1587" r="0.5" fill="rgb(0,0,0)" />
<circle cx="14.2672" cy="15.76" r="0.5" fill="rgb(0,0,0)" />
<circle cx="4.19482" cy="2.2524" r="0.5" fill="rgb(0,0,0)" />
<circle cx="3.26207" cy="15.7891" r="0.5" fill="rgb(0,0,0)" />
<circle cx="16.3507" cy="15.4716" r="0.5" fill="rgb(0,0,0)" />
<circle cx="12.4768" cy="14.2451" r="0.5" fill="rgb(0,0,0)" />
<circle cx="7.49826" cy="15.5914" r="0.5" fill="rgb(0,0,0)" />
<circle cx="11.9794" cy="15.6372" r="0.5" fill="rgb(0,0,0)" />
<circle cx="13.2537" cy="15.8568" r="0.5" fill="rgb(0,0,0)" />
<circle cx="4.75257" cy="4.39861" r="0.5" fill="rgb(0,0,0)" />
<circle cx="1.29968" cy="16.1306" r="0.5" fill="rgb(0,0,0)" />
<circle cx="5.58008" cy="16.3766" r="0.5" fill="rgb(0,0,0)" />
<circle cx="6.64295" cy="16.4624" r="0.5" fill="rgb(0,0,0)" />
<circle cx="7.78926" cy="2.40032" r="0.5" fill="rgb(0,0,0)" />
<circle cx="3.99183" cy="16.1511" r="0.5" fill="rgb(0,0,0)" />
<circle cx="9.25969" cy="16.0599" r="0.5" fill="rgb(0,0,0)" />
<circle cx="1.99883" cy="16.664" r="0.5" fill="rgb(0,0,0)" />
<circle cx="12.5619" cy="16.5982" r="0.5" fill="rgb(0,0,0)" />
<circle cx="1.27961" cy="17.2615" r="0.5" fill="rgb(0,0,0)" />
<circle cx="15.1229" cy="16.4912" r="0.5" fill="rgb(0,0,0)" />
<circle cx="8.45436" cy="8.98754" r="0.5" fill="rgb(0,0,0)" />
<circle cx="2.56716" cy="9.18853" r="0.5" fill="rgb(0,0,0)" />
<circle cx="14.1531" cy="16.9859" r="0.5" fill="rgb(0,0,0)" />
<circle cx="2.97884" cy="16.7192" r="0.5" fill="rgb(0,0,0)" />
<circle cx="4.491" cy="16.9738" r="0.5" fill="rgb(0,0,0)" />
<circle cx="10.8657" cy="16.5898" r="0.5" fill="rgb(0,0,0)" />
<circle cx="16.1438" cy="8.29303" r="0.5" fill="rgb(0,0,0)" />
<circle cx="17.024" cy="16.7786" r="0.5" fill="rgb(0,0,0)" />
<circle cx="15.9024" cy="17.0538" r="0.5" fill="rgb(0,0,0)" />
<circle cx="9.14457" cy="1.73001" r="0.5" fill="rgb(0,0,0)" />
<circle cx="7.81071" cy="16.9759" r="0.5" fill="rgb(0,0,0)" />
<circle cx="1.96987" cy="17.7468" r="0.5" fill="rgb(0,0,0)" />
<circle cx="13.1829" cy="17.4627" r="0.5" fill="rgb(0,0,0)" />
<circle cx="18.045" cy="11.6187" r="0.5" fill="rgb(0,0,0)" />
<circle cx="8.47289" cy="8.0827" r="0.5" fill="rgb(0,0,0)" />
<circle cx="1.2144" cy="17.8887" r="0.5" fill="rgb(0,0,0)" />
<circle cx="17.8048" cy="17.4188" r="0.5" fill="rgb(0,0,0)" />
<circle cx="17.015" cy="6.4331" r="0.5" fill="rgb(0,0,0)" />
<circle cx="5.67152" cy="17.3888" r="0.5" fill="rgb(0,0,0)" />
<circle cx="2.81105" cy="17.702" r="0.5" fill="rgb(0,0,0)" />
<circle cx="15.4387" cy="17.9683" r="0.5" fill="rgb(0,0,0)" />
<circle cx="6.77277" cy="17.723" r="0.5" fill="rgb(0,0,0)" />
<circle cx="14.4855" cy="4.27075" r="0.5" fill="rgb(0,0,0)" />
<circle cx="8.23655" cy="18.0364" r="0.5" fill="rgb(0,0,0)" />
<circle cx="6.59422" cy="4.28242" r="0.5" fill="rgb(0,0,0)" />
<circle cx="14.2986" cy="18.053" r="0.5" fill="rgb(0,0,0)" />
<circle cx="12.0478" cy="17.9274" r="0.5" fill="rgb(0,0,0)" />
<circle cx="10.9988" cy="18.3764" r="0.5" fill="rgb(0,0,0)" />
<circle cx="9.91212" cy="17.9743" r="0.5" fill="rgb(0,0,0)" />
<circle cx="4.53504" cy="18.1206" r="0.5" fill="rgb(0,0,0)" />
<circle cx="9.04149" cy="17.3275" r="0.5" fill="rgb(0,0,0)" />
<circle cx="0.421155" cy="16.5959" r="0.5" fill="rgb(0,0,0)" />
<circle cx="5.73667" cy="6.30442" r="0.5" fill="rgb(0,0,0)" />
<circle cx="2.80395" cy="9.75924" r="0.5" fill="rgb(0,0,0)" />
<circle cx="0.504633" cy="14.94" r="0.5" fill="rgb(0,0,0)" />
<circle cx="0.674721" cy="12.8095" r="0.5" fill="rgb(0,0,0)" />
<circle cx="8.15619" cy="11.627" r="0.5" fill="rgb(0,0,0)" />
<circle cx="0.467327" cy="10.0575" r="0.5" fill="rgb(0,0,0)" />
<circle cx="18.1969" cy="13.289" r="0.5" fill="rgb(0,0,0)" />
<circle cx="18.3182" cy="9.60538" r="0.5" fill="rgb(0,0,0)" />
<circle cx="18.1503" cy="5.59618" r="0.5" fill="rgb(0,0,0)" />
<circle cx="18.361" cy="8.14121" r="0.5" fill="rgb(0,0,0)" />
<circle cx="18.5074" cy="4.52902" r="0.5" fill="rgb(0,0,0)" />
<circle cx="18.447" cy="3.24257" r="0.5" fill="rgb(0,0,0)" />
<circle cx="18.4301" cy="15.8263" r="0.5" fill="rgb(0,0,0)" />
<circle cx="3.44762" cy="18.4167" r="0.5" fill="rgb(0,0,0)" />
<circle cx="15.0989" cy="18.6651" r="0.5" fill="rgb(0,0,0)" />
<circle cx="13.242" cy="18.5281" r="0.5" fill="rgb(0,0,0)" />
<circle cx="8.10498" cy="18.6504" r="0.5" fill="rgb(0,0,0)" />
<circle cx="6.05951" cy="18.5091" r="0.5" fill="rgb(0,0,0)" />
<circle cx="1.48329" cy="3.69446" r="0.5" fill="rgb(0,0,0)" />
<circle cx="8.26367" cy="12.8847" r="0.5" fill="rgb(0,0,0)" />
<circle cx="0.467086" cy="6.82353" r="0.5" fill="rgb(0,0,0)" />
<circle cx="17.1942" cy="14.0975" r="0.5" fill="rgb(0,0,0)" />
<circle cx="2.53302" cy="0.544311" r="0.5" fill="rgb(0,0,0)" />
<circle cx="14.4987" cy="1.30118" r="0.5" fill="rgb(0,0,0)" />
<circle cx="0.767561" cy="0.736266" r="0.5" fill="rgb(0,0,0)" />
<circle cx="0.568706" cy="2.37808" r="0.5" fill="rgb(0,0,0)" />
<circle cx="14.8431" cy="11.3096" r="0.5" fill="rgb(0,0,0)" />
<circle cx="0.403392" cy="5.15427" r="0.5" fill="rgb(0,0,0)" />
<circle cx="16.651" cy="18.3139" r="0.5" fill="rgb(0,0,0)" />
<circle cx="0.473501" cy="3.79556" r="0.5" fill="rgb(0,0,0)" />
<circle cx="0.278948" cy="17.6546" r="0.5" fill="rgb(0,0,0)" />
<circle cx="5.89824" cy="8.25142" r="0.5" fill="rgb(0,0,0)" />
<circle cx="0.370721" cy="18.4709" r="0.5" fill="rgb(0,0,0)" />
<circle cx="15.9359" cy="4.55131" r="0.5" fill="rgb(0,0,0)" />
<circle cx="2.09471" cy="18.5955" r="0.5" fill="rgb(0,0,0)" />
<circle cx="7.2717" cy="9.04856" r="0.5" fill="rgb(0,0,0)" />
<circle cx="7.10546" cy="11.9383" r="0.5" fill="rgb(0,0,0)" />
<circle cx="1.08505" cy="18.5812" r="0.5" fill="rgb(0,0,0)" />
<circle cx="17.8128" cy="18.5834" r="0.5" fill="rgb(0,0,0)" />
<circle cx="17.0721" cy="9.17409" r="0.5" fill="rgb(0,0,0)" />
<circle cx="18.5452" cy="18.3754" r="0.5" fill="rgb(0,0,0)" />
<circle cx="0.432809" cy="8.63448" r="0.5" fill="rgb(0,0,0)" />
<circle cx="18.6573" cy="17.2979" r="0.5" fill="rgb(0,0,0)" />
</svg>
