<?xml version="1.0" ?>
<!DOCTYPE svg PUBLIC "-//W3C//DTD SVG 1.1//EN" "http://www.w3.org/Graphics/SVG/1.1/DTD/svg11.dtd">
<svg width="20" height="20" version="1.1" xmlns="http://www.w3.org/2000/svg">
<circle cx="12.1557" cy="0.481851" r="0.5" fill="rgb(0,0,0)" />
<circle cx="14.8045" cy="0.398393" r="0.5" fill="rgb(0,0,0)" />
<circle cx="7.99366" cy="0.639985" r="0.5" fill="rgb(0,0,0)" />
<circle cx="4.42602" cy="0.685149" r="0.5" fill="rgb(0,0,0)" />
<circle cx="17.3071" cy="0.691287" r="0.5" fill="rgb(0,0,0)" />
<circle cx="6.98865" cy="1.41582" r="0.5" fill="rgb(0,0,0)" />
<circle cx="10.5597" cy="1.38339" r="0.5" fill="rgb(0,0,0)" />
<circle cx="3.24332" cy="1.57247" r="0.5" fill="rgb(0,0,0)" />
<circle cx="9.08335" cy="1.69609" r="0.5" fill="rgb(0,0,0)" />
<circle cx="4.28426" cy="2.20016" r="0.5" fill="rgb(0,0,0)" />
<circle cx="16.4672" cy="2.09924" r="0.5" fill="rgb(0,0,0)" />
<circle cx="5.01351" cy="2.83749" r="0.5" fill="rgb(0,0,0)" />
<circle cx="3.22771" cy="2.82637" r="0.5" fill="rgb(0,0,0)" />
<circle cx="6.81171" cy="2.79654" r="0.5" fill="rgb(0,0,0)" />
<circle cx="7.79211" cy="2.35523" r="0.5" fill="rgb(0,0,0)" />
<circle cx="17.8521" cy="2.64098" r="0.5" fill="rgb(0,0,0)" />
<circle cx="11.6715" cy="2.69573" r="0.5" fill="rgb(0,0,0)" />
<circle cx="2.23638" cy="3.04446" r="0.5" fill="rgb(0,0,0)" />
<circle cx="16.7485" cy="3.33196" r="0.5" fill="rgb(0,0,0)" />
<circle cx="14.6045" cy="3.1191" r="0.5" fill="rgb(0,0,0)" />
<circle cx="4.37266" cy="3.5551" r="0.5" fill="rgb(0,0,0)" />
<circle cx="5.26355" cy="3.66898" r="0.5" fill="rgb(0,0,0)" />
<circle cx="3.58448" cy="3.72247" r="0.5" fill="rgb(0,0,0)" />
<circle cx="2.81349" cy="4.0651" r="0.5" fill="rgb(0,0,0)" />
<circle cx="16.7024" cy="4.40762" r="0.5" fill="rgb(0,0,0)" />
<circle cx="8.99635" cy="2.76499" r="0.5" fill="rgb(0,0,0)" />
<circle cx="10.6358" cy="3.90555" r="0.5" fill="rgb(0,0,0)" />
<circle cx="11.7053" cy="4.24254" r="0.5" fill="rgb(0,0,0)" />
<circle cx="10.103" cy="4.62799" r="0.5" fill="rgb(0,0,0)" />
<circle cx="15.2606" cy="5.10715" r="0.5" fill="rgb(0,0,0)" />
<circle cx="2.17315" cy="4.84396" r="0.5" fill="rgb(0,0,0)" />
<circle cx="18.4606" cy="0.571189" r="0.5" fill="rgb(0,0,0)" />
<circle cx="7.94087" cy="4.91607" r="0.5" fill="rgb(0,0,0)" />
<circle cx="9.39036" cy="5.03514" r="0.5" fill="rgb(0,0,0)" />
<circle cx="4.67919" cy="5.38799" r="0.5" fill="rgb(0,0,0)" />
<circle cx="16.7663" cy="5.44977" r="0.5" fill="rgb(0,0,0)" />
<circle cx="1.2721" cy="5.31985" r="0.5" fill="rgb(0,0,0)" />
<circle cx="8.88508" cy="5.80031" r="0.5" fill="rgb(0,0,0)" />
<circle cx="6.12448" cy="3.57343" r="0.5" fill="rgb(0,0,0)" />
<circle cx="3.19887" cy="5.49854" r="0.5" fill="rgb(0,0,0)" />
<circle cx="14.2362" cy="5.70017" r="0.5" fill="rgb(0,0,0)" />
<circle cx="7.19941" cy="3.98628" r="0.5" fill="rgb(0,0,0)" />
<circle cx="15.6599" cy="6.02651" r="0.5" fill="rgb(0,0,0)" />
<circle cx="12.688" cy="5.50661" r="0.5" fill="rgb(0,0,0)" />
<circle cx="1.91593" cy="6.19885" r="0.5" fill="rgb(0,0,0)" />
<circle cx="13.7086" cy="3.48211" r="0.5" fill="rgb(0,0,0)" />
<circle cx="18.1081" cy="7.10284" r="0.5" fill="rgb(0,0,0)" />
<circle cx="1.58732" cy="7.18097" r="0.5" fill="rgb(0,0,0)" />
<circle cx="13.4209" cy="0.511752" r="0.5" fill="rgb(0,0,0)" />
<circle cx="12.0114" cy="1.49672" r="0.5" fill="rgb(0,0,0)" />
<circle cx="15.6625" cy="7.17773" r="0.5" fill="rgb(0,0,0)" />
<circle cx="4.18436" cy="4.5355" r="0.5" fill="rgb(0,0,0)" />
<circle cx="10.2584" cy="7.24083" r="0.5" fill="rgb(0,0,0)" />
<circle cx="6.58546" cy="7.64833" r="0.5" fill="rgb(0,0,0)" />
<circle cx="5.71197" cy="6.28684" r="0.5" fill="rgb(0,0,0)" />
<circle cx="12.7217" cy="7.06157" r="0.5" fill="rgb(0,0,0)" />
<circle cx="5.25476" cy="7.46217" r="0.5" fill="rgb(0,0,0)" />
<circle cx="11.3437" cy="7.22421" r="0.5" fill="rgb(0,0,0)" />
<circle cx="7.34847" cy="8.13362" r="0.5" fill="rgb(0,0,0)" />
<circle cx="2.61265" cy="8.19666" r="0.5" fill="rgb(0,0,0)" />
<circle cx="5.73637" cy="1.4888" r="0.5" fill="rgb(0,0,0)" />
<circle cx="9.63096" cy="3.51824" r="0.5" fill="rgb(0,0,0)" />
<circle cx="9.3605" cy="7.99429" r="0.5" fill="rgb(0,0,0)" />
<circle cx="13.6077" cy="8.28234" r="0.5" fill="rgb(0,0,0)" />
<circle cx="15.9849" cy="0.767592" r="0.5" fill="rgb(0,0,0)" />
<circle cx="16.145" cy="8.37391" r="0.5" fill="rgb(0,0,0)" />
<circle cx="3.84954" cy="8.79601" r="0.5" fill="rgb(0,0,0)" />
<circle cx="7.67478" cy="7.17288" r="0.5" fill="rgb(0,0,0)" />
<circle cx="12.2014" cy="8.47405" r="0.5" fill="rgb(0,0,0)" />
<circle cx="6.06799" cy="9.19578" r="0.5" fill="rgb(0,0,0)" />
<circle cx="17.0081" cy="9.25497" r="0.5" fill="rgb(0,0,0)" />
<circle cx="1.82705" cy="1.95758" r="0.5" fill="rgb(0,0,0)" />
<circle cx="3.6921" cy="9.67075" r="0.5" fill="rgb(0,0,0)" />
<circle cx="18.0926" cy="1.74755" r="0.5" fill="rgb(0,0,0)" />
<circle cx="4.3175" cy="6.38637" r="0.5" fill="rgb(0,0,0)" />
<circle cx="9.07013" cy="9.80198" r="0.5" fill="rgb(0,0,0)" />
<circle cx="15.3264" cy="3.84573" r="0.5" fill="rgb(0,0,0)" />
<circle cx="8.13361" cy="9.89193" r="0.5" fill="rgb(0,0,0)" />
<circle cx="1.49021" cy="9.13681" r="0.5" fill="rgb(0,0,0)" />
<circle cx="2.81556" cy="9.74758" r="0.5" fill="rgb(0,0,0)" />
<circle cx="14.4401" cy="9.62431" r="0.5" fill="rgb(0,0,0)" />
<circle cx="13.1809" cy="9.84059" r="0.5" fill="rgb(0,0,0)" />
<circle cx="12.7153" cy="1.9894" r="0.5" fill="rgb(0,0,0)" />
<circle cx="4.70622" cy="10.2452" r="0.5" fill="rgb(0,0,0)" />
<circle cx="10.8452" cy="0.410579" r="0.5" fill="rgb(0,0,0)" />
<circle cx="2.94093" cy="7.02646" r="0.5" fill="rgb(0,0,0)" />
<circle cx="6.1615" cy="10.3321" r="0.5" fill="rgb(0,0,0)" />
<circle cx="7.33848" cy="10.8272" r="0.5" fill="rgb(0,0,0)" />
<circle cx="10.3367" cy="8.51256" r="0.5" fill="rgb(0,0,0)" />
<circle cx="8.52724" cy="10.8202" r="0.5" fill="rgb(0,0,0)" />
<circle cx="18.5998" cy="6.44539" r="0.5" fill="rgb(0,0,0)" />
<circle cx="9.61856" cy="10.7467" r="0.5" fill="rgb(0,0,0)" />
<circle cx="16.9179" cy="10.6466" r="0.5" fill="rgb(0,0,0)" />
<circle cx="15.0633" cy="11.1187" r="0.5" fill="rgb(0,0,0)" />
<circle cx="13.6718" cy="11.1961" r="0.5" fill="rgb(0,0,0)" />
<circle cx="10.8364" cy="10.9604" r="0.5" fill="rgb(0,0,0)" />
<circle cx="4.48677" cy="11.5143" r="0.5" fill="rgb(0,0,0)" />
<circle cx="5.76093" cy="11.5662" r="0.5" fill="rgb(0,0,0)" />
<circle cx="16.2001" cy="12.0596" r="0.5" fill="rgb(0,0,0)" />
<circle cx="2.31744" cy="11.6734" r="0.5" fill="rgb(0,0,0)" />
<circle cx="13.4663" cy="12.5007" r="0.5" fill="rgb(0,0,0)" />
<circle cx="3.33413" cy="12.416" r="0.5" fill="rgb(0,0,0)" />
<circle cx="4.07572" cy="7.62522" r="0.5" fill="rgb(0,0,0)" />
<circle cx="10.2761" cy="12.3459" r="0.5" fill="rgb(0,0,0)" />
<circle cx="5.74761" cy="2.35588" r="0.5" fill="rgb(0,0,0)" />
<circle cx="1.23086" cy="7.99206" r="0.5" fill="rgb(0,0,0)" />
<circle cx="9.22259" cy="12.1245" r="0.5" fill="rgb(0,0,0)" />
<circle cx="15.0821" cy="13.4724" r="0.5" fill="rgb(0,0,0)" />
<circle cx="7.53417" cy="6.03066" r="0.5" fill="rgb(0,0,0)" />
<circle cx="10.5443" cy="13.3916" r="0.5" fill="rgb(0,0,0)" />
<circle cx="5.74106" cy="0.390257" r="0.5" fill="rgb(0,0,0)" />
<circle cx="4.92818" cy="13.5526" r="0.5" fill="rgb(0,0,0)" />
<circle cx="7.13465" cy="9.87072" r="0.5" fill="rgb(0,0,0)" />
<circle cx="13.4325" cy="13.866" r="0.5" fill="rgb(0,0,0)" />
<circle cx="9.29105" cy="0.525684" r="0.5" fill="rgb(0,0,0)" />
<circle cx="9.8438" cy="9.40463" r="0.5" fill="rgb(0,0,0)" />
<circle cx="6.10235" cy="14.0545" r="0.5" fill="rgb(0,0,0)" />
<circle cx="1.89788" cy="13.8096" r="0.5" fill="rgb(0,0,0)" />
<circle cx="8.59668" cy="6.86934" r="0.5" fill="rgb(0,0,0)" />
<circle cx="14.3531" cy="14.1909" r="0.5" fill="rgb(0,0,0)" />
<circle cx="15.5544" cy="14.4731" r="0.5" fill="rgb(0,0,0)" />
<circle cx="3.09205" cy="14.3704" r="0.5" fill="rgb(0,0,0)" />
<circle cx="7.6837" cy="14.0587" r="0.5" fill="rgb(0,0,0)" />
<circle cx="5.02186" cy="14.9151" r="0.5" fill="rgb(0,0,0)" />
<circle cx="15.4204" cy="2.47345" r="0.5" fill="rgb(0,0,0)" />
<circle cx="11.5447" cy="14.6194" r="0.5" fill="rgb(0,0,0)" />
<circle cx="6.23069" cy="4.92234" r="0.5" fill="rgb(0,0,0)" />
<circle cx="9.68285" cy="6.51293" r="0.5" fill="rgb(0,0,0)" />
<circle cx="15.0601" cy="15.3146" r="0.5" fill="rgb(0,0,0)" />
<circle cx="3.29724" cy="10.6509" r="0.5" fill="rgb(0,0,0)" />
<circle cx="10.4181" cy="14.8928" r="0.5" fill="rgb(0,0,0)" />
<circle cx="17.6487" cy="14.9313" r="0.5" fill="rgb(0,0,0)" />
<circle cx="4.83057" cy="15.8378" r="0.5" fill="rgb(0,0,0)" />
<circle cx="13.0335" cy="2.74435" r="0.5" fill="rgb(0,0,0)" />
<circle cx="15.0112" cy="8.50342" r="0.5" fill="rgb(0,0,0)" />
<circle cx="11.3702" cy="9.38753" r="0.5" fill="rgb(0,0,0)" />
<circle cx="16.5291" cy="13.5524" r="0.5" fill="rgb(0,0,0)" />
<circle cx="14.2673" cy="15.7601" r="0.5" fill="rgb(0,0,0)" />
<circle cx="3.24942" cy="15.7664" r="0.5" fill="rgb(0,0,0)" />
<circle cx="14.8186" cy="12.5055" r="0.5" fill="rgb(0,0,0)" />
<circle cx="13.4635" cy="15.0094" r="0.5" fill="rgb(0,0,0)" />
<circle cx="4.03557" cy="14.7882" r="0.5" fill="rgb(0,0,0)" />
<circle cx="16.3607" cy="15.4826" r="0.5" fill="rgb(0,0,0)" />
<circle cx="12.4773" cy="14.2493" r="0.5" fill="rgb(0,0,0)" />
<circle cx="7.49826" cy="15.5914" r="0.5" fill="rgb(0,0,0)" />
<circle cx="11.9794" cy="15.6372" r="0.5" fill="rgb(0,0,0)" />
<circle cx="13.2537" cy="15.8568" r="0.5" fill="rgb(0,0,0)" />
<circle cx="15.6912" cy="9.9072" r="0.5" fill="rgb(0,0,0)" />
<circle cx="8.96286" cy="14.5829" r="0.5" fill="rgb(0,0,0)" />
<circle cx="1.29242" cy="16.1476" r="0.5" fill="rgb(0,0,0)" />
<circle cx="6.64295" cy="16.4624" r="0.5" fill="rgb(0,0,0)" />
<circle cx="3.99028" cy="16.1532" r="0.5" fill="rgb(0,0,0)" />
<circle cx="10.4549" cy="2.59957" r="0.5" fill="rgb(0,0,0)" />
<circle cx="17.5976" cy="4.32404" r="0.5" fill="rgb(0,0,0)" />
<circle cx="9.25969" cy="16.0599" r="0.5" fill="rgb(0,0,0)" />
<circle cx="13.4612" cy="1.69196" r="0.5" fill="rgb(0,0,0)" />
<circle cx="1.99875" cy="16.6706" r="0.5" fill="rgb(0,0,0)" />
<circle cx="12.5619" cy="16.5982" r="0.5" fill="rgb(0,0,0)" />
<circle cx="6.61991" cy="6.80249" r="0.5" fill="rgb(0,0,0)" />
<circle cx="1.27953" cy="17.2615" r="0.5" fill="rgb(0,0,0)" />
<circle cx="6.88564" cy="0.341618" r="0.5" fill="rgb(0,0,0)" />
<circle cx="12.1245" cy="12.7933" r="0.5" fill="rgb(0,0,0)" />
<circle cx="15.1231" cy="16.4908" r="0.5" fill="rgb(0,0,0)" />
<circle cx="2.97899" cy="16.7141" r="0.5" fill="rgb(0,0,0)" />
<circle cx="10.8657" cy="16.5898" r="0.5" fill="rgb(0,0,0)" />
<circle cx="7.81071" cy="16.9759" r="0.5" fill="rgb(0,0,0)" />
<circle cx="1.96987" cy="17.7469" r="0.5" fill="rgb(0,0,0)" />
<circle cx="6.59984" cy="5.60206" r="0.5" fill="rgb(0,0,0)" />
<circle cx="13.1829" cy="17.4627" r="0.5" fill="rgb(0,0,0)" />
<circle cx="8.47289" cy="8.0827" r="0.5" fill="rgb(0,0,0)" />
<circle cx="7.10207" cy="11.9417" r="0.5" fill="rgb(0,0,0)" />
<circle cx="1.2144" cy="17.8887" r="0.5" fill="rgb(0,0,0)" />
<circle cx="12.2258" cy="10.9644" r="0.5" fill="rgb(0,0,0)" />
<circle cx="17.8029" cy="17.4273" r="0.5" fill="rgb(0,0,0)" />
<circle cx="17.0126" cy="6.4331" r="0.5" fill="rgb(0,0,0)" />
<circle cx="5.67152" cy="17.3888" r="0.5" fill="rgb(0,0,0)" />
<circle cx="2.81106" cy="17.7021" r="0.5" fill="rgb(0,0,0)" />
<circle cx="3.93488" cy="13.2482" r="0.5" fill="rgb(0,0,0)" />
<circle cx="6.14059" cy="15.2801" r="0.5" fill="rgb(0,0,0)" />
<circle cx="15.4389" cy="17.9682" r="0.5" fill="rgb(0,0,0)" />
<circle cx="6.77277" cy="17.723" r="0.5" fill="rgb(0,0,0)" />
<circle cx="8.23655" cy="18.0364" r="0.5" fill="rgb(0,0,0)" />
<circle cx="6.22559" cy="12.8347" r="0.5" fill="rgb(0,0,0)" />
<circle cx="14.2986" cy="18.053" r="0.5" fill="rgb(0,0,0)" />
<circle cx="12.0478" cy="17.9274" r="0.5" fill="rgb(0,0,0)" />
<circle cx="2.15774" cy="15.3057" r="0.5" fill="rgb(0,0,0)" />
<circle cx="10.9988" cy="18.3764" r="0.5" fill="rgb(0,0,0)" />
<circle cx="4.91277" cy="9.03128" r="0.5" fill="rgb(0,0,0)" />
<circle cx="9.91212" cy="17.9743" r="0.5" fill="rgb(0,0,0)" />
<circle cx="4.53504" cy="18.1206" r="0.5" fill="rgb(0,0,0)" />
<circle cx="12.7421" cy="3.85596" r="0.5" fill="rgb(0,0,0)" />
<circle cx="17.0722" cy="7.72106" r="0.5" fill="rgb(0,0,0)" />
<circle cx="0.790405" cy="12.8225" r="0.5" fill="rgb(0,0,0)" />
<circle cx="1.85259" cy="10.2303" r="0.5" fill="rgb(0,0,0)" />
<circle cx="0.593148" cy="14.8613" r="0.5" fill="rgb(0,0,0)" />
<circle cx="9.04149" cy="17.3275" r="0.5" fill="rgb(0,0,0)" />
<circle cx="0.414305" cy="16.5778" r="0.5" fill="rgb(0,0,0)" />
<circle cx="15.9048" cy="17.0533" r="0.5" fill="rgb(0,0,0)" />
<circle cx="18.0559" cy="11.5884" r="0.5" fill="rgb(0,0,0)" />
<circle cx="8.48462" cy="3.80341" r="0.5" fill="rgb(0,0,0)" />
<circle cx="5.42287" cy="4.60405" r="0.5" fill="rgb(0,0,0)" />
<circle cx="18.0796" cy="13.4494" r="0.5" fill="rgb(0,0,0)" />
<circle cx="8.15646" cy="11.627" r="0.5" fill="rgb(0,0,0)" />
<circle cx="0.462044" cy="10.0567" r="0.5" fill="rgb(0,0,0)" />
<circle cx="17.0334" cy="16.7677" r="0.5" fill="rgb(0,0,0)" />
<circle cx="18.3011" cy="9.61528" r="0.5" fill="rgb(0,0,0)" />
<circle cx="18.1503" cy="5.59618" r="0.5" fill="rgb(0,0,0)" />
<circle cx="18.367" cy="8.14465" r="0.5" fill="rgb(0,0,0)" />
<circle cx="18.5074" cy="4.52902" r="0.5" fill="rgb(0,0,0)" />
<circle cx="13.9997" cy="4.52563" r="0.5" fill="rgb(0,0,0)" />
<circle cx="18.3766" cy="15.8336" r="0.5" fill="rgb(0,0,0)" />
<circle cx="3.44762" cy="18.4167" r="0.5" fill="rgb(0,0,0)" />
<circle cx="15.0989" cy="18.6651" r="0.5" fill="rgb(0,0,0)" />
<circle cx="5.58008" cy="16.3766" r="0.5" fill="rgb(0,0,0)" />
<circle cx="13.242" cy="18.5281" r="0.5" fill="rgb(0,0,0)" />
<circle cx="8.10498" cy="18.6504" r="0.5" fill="rgb(0,0,0)" />
<circle cx="0.815142" cy="11.2772" r="0.5" fill="rgb(0,0,0)" />
<circle cx="6.05951" cy="18.5091" r="0.5" fill="rgb(0,0,0)" />
<circle cx="1.48636" cy="3.6944" r="0.5" fill="rgb(0,0,0)" />
<circle cx="8.26202" cy="12.8847" r="0.5" fill="rgb(0,0,0)" />
<circle cx="0.467257" cy="6.82353" r="0.5" fill="rgb(0,0,0)" />
<circle cx="18.447" cy="3.24257" r="0.5" fill="rgb(0,0,0)" />
<circle cx="2.57622" cy="0.533931" r="0.5" fill="rgb(0,0,0)" />
<circle cx="14.4987" cy="1.30189" r="0.5" fill="rgb(0,0,0)" />
<circle cx="0.771326" cy="0.736266" r="0.5" fill="rgb(0,0,0)" />
<circle cx="4.49111" cy="16.9738" r="0.5" fill="rgb(0,0,0)" />
<circle cx="0.568706" cy="2.37808" r="0.5" fill="rgb(0,0,0)" />
<circle cx="11.0138" cy="5.64015" r="0.5" fill="rgb(0,0,0)" />
<circle cx="0.403392" cy="5.15427" r="0.5" fill="rgb(0,0,0)" />
<circle cx="16.651" cy="18.3124" r="0.5" fill="rgb(0,0,0)" />
<circle cx="0.473501" cy="3.79556" r="0.5" fill="rgb(0,0,0)" />
<circle cx="0.278948" cy="17.6546" r="0.5" fill="rgb(0,0,0)" />
<circle cx="14.2221" cy="2.26584" r="0.5" fill="rgb(0,0,0)" />
<circle cx="5.89824" cy="8.25142" r="0.5" fill="rgb(0,0,0)" />
<circle cx="8.45579" cy="8.98754" r="0.5" fill="rgb(0,0,0)" />
<circle cx="2.56701" cy="9.18911" r="0.5" fill="rgb(0,0,0)" />
<circle cx="14.1532" cy="16.9859" r="0.5" fill="rgb(0,0,0)" />
<circle cx="0.370721" cy="18.4709" r="0.5" fill="rgb(0,0,0)" />
<circle cx="15.942" cy="4.55104" r="0.5" fill="rgb(0,0,0)" />
<circle cx="14.3119" cy="7.05884" r="0.5" fill="rgb(0,0,0)" />
<circle cx="2.09471" cy="18.5955" r="0.5" fill="rgb(0,0,0)" />
<circle cx="7.2717" cy="9.04856" r="0.5" fill="rgb(0,0,0)" />
<circle cx="1.08505" cy="18.5812" r="0.5" fill="rgb(0,0,0)" />
<circle cx="17.8128" cy="18.5834" r="0.5" fill="rgb(0,0,0)" />
<circle cx="18.5452" cy="18.3754" r="0.5" fill="rgb(0,0,0)" />
<circle cx="0.432809" cy="8.63448" r="0.5" fill="rgb(0,0,0)" />
<circle cx="18.6573" cy="17.2968" r="0.5" fill="rgb(0,0,0)" />
</svg>
