<?xml version="1.0" ?>
<!DOCTYPE svg PUBLIC "-//W3C//DTD SVG 1.1//EN" "http://www.w3.org/Graphics/SVG/1.1/DTD/svg11.dtd">
<svg width="20" height="20" version="1.1" xmlns="http://www.w3.org/2000/svg">
<circle cx="12.6722" cy="0.601398" r="0.5" fill="rgb(0,0,0)" />
<circle cx="16.7785" cy="0.630049" r="0.5" fill="rgb(0,0,0)" />
<circle cx="4.91959" cy="1.10973" r="0.5" fill="rgb(0,0,0)" />
<circle cx="1.98195" cy="2.02321" r="0.5" fill="rgb(0,0,0)" />
<circle cx="6.70656" cy="1.31934" r="0.5" fill="rgb(0,0,0)" />
<circle cx="8.69381" cy="2.12596" r="0.5" fill="rgb(0,0,0)" />
<circle cx="8.20303" cy="0.582744" r="0.5" fill="rgb(0,0,0)" />
<circle cx="18.0399" cy="1.85521" r="0.5" fill="rgb(0,0,0)" />
<circle cx="18.3488" cy="0.593373" r="0.5" fill="rgb(0,0,0)" />
<circle cx="10.3443" cy="2.89743" r="0.5" fill="rgb(0,0,0)" />
<circle cx="13.2713" cy="3.5908" r="0.5" fill="rgb(0,0,0)" />
<circle cx="3.83604" cy="2.93637" r="0.5" fill="rgb(0,0,0)" />
<circle cx="17.2754" cy="3.77081" r="0.5" fill="rgb(0,0,0)" />
<circle cx="16.22" cy="4.27518" r="0.5" fill="rgb(0,0,0)" />
<circle cx="8.02294" cy="3.98114" r="0.5" fill="rgb(0,0,0)" />
<circle cx="15.0486" cy="3.85668" r="0.5" fill="rgb(0,0,0)" />
<circle cx="6.43916" cy="5.00252" r="0.5" fill="rgb(0,0,0)" />
<circle cx="4.44605" cy="5.40513" r="0.5" fill="rgb(0,0,0)" />
<circle cx="1.78132" cy="6.22182" r="0.5" fill="rgb(0,0,0)" />
<circle cx="15.7537" cy="6.33507" r="0.5" fill="rgb(0,0,0)" />
<circle cx="14.8739" cy="5.2484" r="0.5" fill="rgb(0,0,0)" />
<circle cx="12.4298" cy="6.34061" r="0.5" fill="rgb(0,0,0)" />
<circle cx="6.44541" cy="6.6029" r="0.5" fill="rgb(0,0,0)" />
<circle cx="8.43672" cy="6.5025" r="0.5" fill="rgb(0,0,0)" />
<circle cx="16.7854" cy="7.29153" r="0.5" fill="rgb(0,0,0)" />
<circle cx="10.579" cy="6.86585" r="0.5" fill="rgb(0,0,0)" />
<circle cx="12.1544" cy="8.15028" r="0.5" fill="rgb(0,0,0)" />
<circle cx="13.8795" cy="8.69122" r="0.5" fill="rgb(0,0,0)" />
<circle cx="2.49171" cy="9.26153" r="0.5" fill="rgb(0,0,0)" />
<circle cx="5.03522" cy="8.90204" r="0.5" fill="rgb(0,0,0)" />
<circle cx="11.2904" cy="9.43484" r="0.5" fill="rgb(0,0,0)" />
<circle cx="4.2547" cy="10.0315" r="0.5" fill="rgb(0,0,0)" />
<circle cx="15.9878" cy="10.4102" r="0.5" fill="rgb(0,0,0)" />
<circle cx="8.93803" cy="10.5377" r="0.5" fill="rgb(0,0,0)" />
<circle cx="2.77062" cy="10.6388" r="0.5" fill="rgb(0,0,0)" />
<circle cx="6.41407" cy="10.6074" r="0.5" fill="rgb(0,0,0)" />
<circle cx="13.7693" cy="10.7239" r="0.5" fill="rgb(0,0,0)" />
<circle cx="12.7248" cy="12.4563" r="0.5" fill="rgb(0,0,0)" />
<circle cx="15.5238" cy="12.2836" r="0.5" fill="rgb(0,0,0)" />
<circle cx="3.87995" cy="12.245" r="0.5" fill="rgb(0,0,0)" />
<circle cx="8.24424" cy="12.69" r="0.5" fill="rgb(0,0,0)" />
<circle cx="12.2948" cy="14.0533" r="0.5" fill="rgb(0,0,0)" />
<circle cx="0.793425" cy="8.03174" r="0.5" fill="rgb(0,0,0)" />
<circle cx="15.083" cy="14.9474" r="0.5" fill="rgb(0,0,0)" />
<circle cx="6.26027" cy="12.9344" r="0.5" fill="rgb(0,0,0)" />
<circle cx="0.757987" cy="9.79419" r="0.5" fill="rgb(0,0,0)" />
<circle cx="2.68488" cy="4.91911" r="0.5" fill="rgb(0,0,0)" />
<circle cx="16.9597" cy="5.5332" r="0.5" fill="rgb(0,0,0)" />
<circle cx="1.18196" cy="11.5338" r="0.5" fill="rgb(0,0,0)" />
<circle cx="10.3063" cy="12.6451" r="0.5" fill="rgb(0,0,0)" />
<circle cx="16.3249" cy="14.3467" r="0.5" fill="rgb(0,0,0)" />
<circle cx="13.223" cy="15.2116" r="0.5" fill="rgb(0,0,0)" />
<circle cx="4.64392" cy="14.3602" r="0.5" fill="rgb(0,0,0)" />
<circle cx="11.3614" cy="11.0658" r="0.5" fill="rgb(0,0,0)" />
<circle cx="2.53883" cy="14.7125" r="0.5" fill="rgb(0,0,0)" />
<circle cx="12.472" cy="2.08392" r="0.5" fill="rgb(0,0,0)" />
<circle cx="14.1541" cy="15.8286" r="0.5" fill="rgb(0,0,0)" />
<circle cx="9.80533" cy="14.6607" r="0.5" fill="rgb(0,0,0)" />
<circle cx="5.14685" cy="15.826" r="0.5" fill="rgb(0,0,0)" />
<circle cx="3.52965" cy="7.05364" r="0.5" fill="rgb(0,0,0)" />
<circle cx="11.1765" cy="15.3848" r="0.5" fill="rgb(0,0,0)" />
<circle cx="14.1903" cy="2.47116" r="0.5" fill="rgb(0,0,0)" />
<circle cx="17.8747" cy="14.5699" r="0.5" fill="rgb(0,0,0)" />
<circle cx="5.73288" cy="3.36296" r="0.5" fill="rgb(0,0,0)" />
<circle cx="11.7091" cy="4.07267" r="0.5" fill="rgb(0,0,0)" />
<circle cx="9.49217" cy="8.53827" r="0.5" fill="rgb(0,0,0)" />
<circle cx="15.4062" cy="16.316" r="0.5" fill="rgb(0,0,0)" />
<circle cx="18.2306" cy="3.09594" r="0.5" fill="rgb(0,0,0)" />
<circle cx="12.1866" cy="16.4894" r="0.5" fill="rgb(0,0,0)" />
<circle cx="6.92493" cy="16.2991" r="0.5" fill="rgb(0,0,0)" />
<circle cx="7.38421" cy="8.59695" r="0.5" fill="rgb(0,0,0)" />
<circle cx="13.7931" cy="17.0433" r="0.5" fill="rgb(0,0,0)" />
<circle cx="16.5719" cy="16.7396" r="0.5" fill="rgb(0,0,0)" />
<circle cx="5.72145" cy="17.2576" r="0.5" fill="rgb(0,0,0)" />
<circle cx="15.2859" cy="17.7527" r="0.5" fill="rgb(0,0,0)" />
<circle cx="7.91122" cy="15.033" r="0.5" fill="rgb(0,0,0)" />
<circle cx="2.56288" cy="17.0544" r="0.5" fill="rgb(0,0,0)" />
<circle cx="15.4249" cy="2.46721" r="0.5" fill="rgb(0,0,0)" />
<circle cx="17.2035" cy="17.8716" r="0.5" fill="rgb(0,0,0)" />
<circle cx="10.5199" cy="0.826301" r="0.5" fill="rgb(0,0,0)" />
<circle cx="2.11003" cy="3.43888" r="0.5" fill="rgb(0,0,0)" />
<circle cx="0.961655" cy="13.4515" r="0.5" fill="rgb(0,0,0)" />
<circle cx="0.937681" cy="16.0536" r="0.5" fill="rgb(0,0,0)" />
<circle cx="4.27961" cy="17.4572" r="0.5" fill="rgb(0,0,0)" />
<circle cx="8.6248" cy="17.4909" r="0.5" fill="rgb(0,0,0)" />
<circle cx="16.5075" cy="2.09732" r="0.5" fill="rgb(0,0,0)" />
<circle cx="14.3205" cy="13.5738" r="0.5" fill="rgb(0,0,0)" />
<circle cx="18.1921" cy="6.50095" r="0.5" fill="rgb(0,0,0)" />
<circle cx="2.57742" cy="8.03894" r="0.5" fill="rgb(0,0,0)" />
<circle cx="18.299" cy="4.88233" r="0.5" fill="rgb(0,0,0)" />
<circle cx="10.1493" cy="17.468" r="0.5" fill="rgb(0,0,0)" />
<circle cx="11.7344" cy="17.9822" r="0.5" fill="rgb(0,0,0)" />
<circle cx="12.9031" cy="18.3674" r="0.5" fill="rgb(0,0,0)" />
<circle cx="14.7956" cy="0.737187" r="0.5" fill="rgb(0,0,0)" />
<circle cx="15.9743" cy="18.5146" r="0.5" fill="rgb(0,0,0)" />
<circle cx="14.1817" cy="18.2888" r="0.5" fill="rgb(0,0,0)" />
<circle cx="17.8317" cy="12.3983" r="0.5" fill="rgb(0,0,0)" />
<circle cx="0.49827" cy="6.32027" r="0.5" fill="rgb(0,0,0)" />
<circle cx="0.659612" cy="4.06399" r="0.5" fill="rgb(0,0,0)" />
<circle cx="17.9796" cy="10.1419" r="0.5" fill="rgb(0,0,0)" />
<circle cx="16.0413" cy="8.59885" r="0.5" fill="rgb(0,0,0)" />
<circle cx="7.64455" cy="18.3149" r="0.5" fill="rgb(0,0,0)" />
<circle cx="13.3609" cy="5.13533" r="0.5" fill="rgb(0,0,0)" />
<circle cx="6.06341" cy="18.3268" r="0.5" fill="rgb(0,0,0)" />
<circle cx="18.1555" cy="15.9621" r="0.5" fill="rgb(0,0,0)" />
<circle cx="0.670787" cy="1.12899" r="0.5" fill="rgb(0,0,0)" />
<circle cx="18.1152" cy="8.27602" r="0.5" fill="rgb(0,0,0)" />
<circle cx="3.00498" cy="18.449" r="0.5" fill="rgb(0,0,0)" />
<circle cx="10.0053" cy="5.01998" r="0.5" fill="rgb(0,0,0)" />
<circle cx="0.728827" cy="17.9954" r="0.5" fill="rgb(0,0,0)" />
<circle cx="2.93778" cy="0.668853" r="0.5" fill="rgb(0,0,0)" />
<circle cx="18.1547" cy="18.5124" r="0.5" fill="rgb(0,0,0)" />
<circle cx="14.4435" cy="7.05184" r="0.5" fill="rgb(0,0,0)" />
<circle cx="5.43711" cy="7.55935" r="0.5" fill="rgb(0,0,0)" />
<circle cx="18.3825" cy="17.3083" r="0.5" fill="rgb(0,0,0)" />
</svg>
