<?xml version="1.0" ?>
<!DOCTYPE svg PUBLIC "-//W3C//DTD SVG 1.1//EN" "http://www.w3.org/Graphics/SVG/1.1/DTD/svg11.dtd">
<svg width="20" height="20" version="1.1" xmlns="http://www.w3.org/2000/svg">
<circle cx="14.3131" cy="0.746347" r="0.5" fill="rgb(0,0,0)" />
<circle cx="15.7471" cy="2.69778" r="0.5" fill="rgb(0,0,0)" />
<circle cx="3.37263" cy="3.82659" r="0.5" fill="rgb(0,0,0)" />
<circle cx="13.7052" cy="5.97948" r="0.5" fill="rgb(0,0,0)" />
<circle cx="12.1982" cy="1.62362" r="0.5" fill="rgb(0,0,0)" />
<circle cx="11.0177" cy="6.56534" r="0.5" fill="rgb(0,0,0)" />
<circle cx="4.06162" cy="6.85841" r="0.5" fill="rgb(0,0,0)" />
<circle cx="15.5893" cy="7.59218" r="0.5" fill="rgb(0,0,0)" />
<circle cx="13.2751" cy="8.52627" r="0.5" fill="rgb(0,0,0)" />
<circle cx="7.10888" cy="1.16778" r="0.5" fill="rgb(0,0,0)" />
<circle cx="6.39258" cy="8.67305" r="0.5" fill="rgb(0,0,0)" />
<circle cx="17.0021" cy="9.93537" r="0.5" fill="rgb(0,0,0)" />
<circle cx="18.1104" cy="1.03052" r="0.5" fill="rgb(0,0,0)" />
<circle cx="14.1876" cy="10.7185" r="0.5" fill="rgb(0,0,0)" />
<circle cx="15.0492" cy="4.33395" r="0.5" fill="rgb(0,0,0)" />
<circle cx="7.54484" cy="11.5246" r="0.5" fill="rgb(0,0,0)" />
<circle cx="12.2513" cy="12.8288" r="0.5" fill="rgb(0,0,0)" />
<circle cx="7.29308" cy="5.80035" r="0.5" fill="rgb(0,0,0)" />
<circle cx="14.714" cy="14.6434" r="0.5" fill="rgb(0,0,0)" />
<circle cx="1.28492" cy="6.53477" r="0.5" fill="rgb(0,0,0)" />
<circle cx="10.1696" cy="1.00011" r="0.5" fill="rgb(0,0,0)" />
<circle cx="16.4298" cy="5.47826" r="0.5" fill="rgb(0,0,0)" />
<circle cx="9.56316" cy="12.9579" r="0.5" fill="rgb(0,0,0)" />
<circle cx="4.62139" cy="14.2102" r="0.5" fill="rgb(0,0,0)" />
<circle cx="9.17877" cy="8.25296" r="0.5" fill="rgb(0,0,0)" />
<circle cx="10.1274" cy="15.3061" r="0.5" fill="rgb(0,0,0)" />
<circle cx="13.7689" cy="2.87727" r="0.5" fill="rgb(0,0,0)" />
<circle cx="16.6884" cy="14.1794" r="0.5" fill="rgb(0,0,0)" />
<circle cx="12.4649" cy="15.1758" r="0.5" fill="rgb(0,0,0)" />
<circle cx="7.31064" cy="14.9213" r="0.5" fill="rgb(0,0,0)" />
<circle cx="16.161" cy="16.361" r="0.5" fill="rgb(0,0,0)" />
<circle cx="1.98802" cy="15.5046" r="0.5" fill="rgb(0,0,0)" />
<circle cx="16.46" cy="1.06205" r="0.5" fill="rgb(0,0,0)" />
<circle cx="11.866" cy="4.24612" r="0.5" fill="rgb(0,0,0)" />
<circle cx="14.2349" cy="17.8774" r="0.5" fill="rgb(0,0,0)" />
<circle cx="11.2379" cy="17.5348" r="0.5" fill="rgb(0,0,0)" />
<circle cx="17.7318" cy="12.1173" r="0.5" fill="rgb(0,0,0)" />
<circle cx="2.78174" cy="9.91279" r="0.5" fill="rgb(0,0,0)" />
<circle cx="0.888197" cy="9.2152" r="0.5" fill="rgb(0,0,0)" />
<circle cx="5.81237" cy="3.54305" r="0.5" fill="rgb(0,0,0)" />
<circle cx="12.7475" cy="18.0601" r="0.5" fill="rgb(0,0,0)" />
<circle cx="17.9311" cy="7.88814" r="0.5" fill="rgb(0,0,0)" />
<circle cx="18.1807" cy="5.51017" r="0.5" fill="rgb(0,0,0)" />
<circle cx="1.08141" cy="4.0818" r="0.5" fill="rgb(0,0,0)" />
<circle cx="9.00435" cy="17.6154" r="0.5" fill="rgb(0,0,0)" />
<circle cx="6.44521" cy="17.5433" r="0.5" fill="rgb(0,0,0)" />
<circle cx="3.89616" cy="17.5737" r="0.5" fill="rgb(0,0,0)" />
<circle cx="4.718" cy="11.2213" r="0.5" fill="rgb(0,0,0)" />
<circle cx="1.01208" cy="17.5667" r="0.5" fill="rgb(0,0,0)" />
<circle cx="9.23524" cy="3.60574" r="0.5" fill="rgb(0,0,0)" />
<circle cx="17.8096" cy="3.32986" r="0.5" fill="rgb(0,0,0)" />
<circle cx="10.9697" cy="10.3338" r="0.5" fill="rgb(0,0,0)" />
<circle cx="15.0095" cy="12.6669" r="0.5" fill="rgb(0,0,0)" />
<circle cx="1.13301" cy="1.29919" r="0.5" fill="rgb(0,0,0)" />
<circle cx="3.82379" cy="1.09958" r="0.5" fill="rgb(0,0,0)" />
<circle cx="15.6862" cy="18.1822" r="0.5" fill="rgb(0,0,0)" />
<circle cx="13.9715" cy="16.2451" r="0.5" fill="rgb(0,0,0)" />
<circle cx="1.36374" cy="12.8359" r="0.5" fill="rgb(0,0,0)" />
<circle cx="17.204" cy="17.9872" r="0.5" fill="rgb(0,0,0)" />
<circle cx="18.1446" cy="15.0909" r="0.5" fill="rgb(0,0,0)" />
<circle cx="18.3187" cy="17.5023" r="0.5" fill="rgb(0,0,0)" />
</svg>
