<?xml version="1.0" ?>
<!DOCTYPE svg PUBLIC "-//W3C//DTD SVG 1.1//EN" "http://www.w3.org/Graphics/SVG/1.1/DTD/svg11.dtd">
<svg width="20" height="20" version="1.1" xmlns="http://www.w3.org/2000/svg">
<circle cx="7.76569" cy="0.872124" r="0.5" fill="rgb(0,0,0)" />
<circle cx="9.15566" cy="0.565839" r="0.5" fill="rgb(0,0,0)" />
<circle cx="12.56" cy="0.382106" r="0.5" fill="rgb(0,0,0)" />
<circle cx="17.3341" cy="0.630207" r="0.5" fill="rgb(0,0,0)" />
<circle cx="13.3" cy="1.22268" r="0.5" fill="rgb(0,0,0)" />
<circle cx="14.6925" cy="1.33989" r="0.5" fill="rgb(0,0,0)" />
<circle cx="4.34163" cy="0.58044" r="0.5" fill="rgb(0,0,0)" />
<circle cx="6.77802" cy="1.23477" r="0.5" fill="rgb(0,0,0)" />
<circle cx="5.15274" cy="1.49233" r="0.5" fill="rgb(0,0,0)" />
<circle cx="11.966" cy="1.71037" r="0.5" fill="rgb(0,0,0)" />
<circle cx="7.83388" cy="1.74842" r="0.5" fill="rgb(0,0,0)" />
<circle cx="13.4553" cy="2.09823" r="0.5" fill="rgb(0,0,0)" />
<circle cx="5.7745" cy="2.39572" r="0.5" fill="rgb(0,0,0)" />
<circle cx="17.0586" cy="1.89824" r="0.5" fill="rgb(0,0,0)" />
<circle cx="13.0706" cy="2.77841" r="0.5" fill="rgb(0,0,0)" />
<circle cx="11.9965" cy="0.782955" r="0.5" fill="rgb(0,0,0)" />
<circle cx="3.18352" cy="2.81449" r="0.5" fill="rgb(0,0,0)" />
<circle cx="17.9875" cy="2.58685" r="0.5" fill="rgb(0,0,0)" />
<circle cx="6.26378" cy="1.76079" r="0.5" fill="rgb(0,0,0)" />
<circle cx="5.01044" cy="2.79243" r="0.5" fill="rgb(0,0,0)" />
<circle cx="15.3331" cy="2.51851" r="0.5" fill="rgb(0,0,0)" />
<circle cx="8.64594" cy="2.81724" r="0.5" fill="rgb(0,0,0)" />
<circle cx="7.65938" cy="2.72374" r="0.5" fill="rgb(0,0,0)" />
<circle cx="11.6345" cy="2.74299" r="0.5" fill="rgb(0,0,0)" />
<circle cx="2.24219" cy="3.02985" r="0.5" fill="rgb(0,0,0)" />
<circle cx="16.7962" cy="3.34249" r="0.5" fill="rgb(0,0,0)" />
<circle cx="4.40299" cy="3.54813" r="0.5" fill="rgb(0,0,0)" />
<circle cx="5.30639" cy="3.66605" r="0.5" fill="rgb(0,0,0)" />
<circle cx="3.61089" cy="3.57238" r="0.5" fill="rgb(0,0,0)" />
<circle cx="1.49501" cy="3.61145" r="0.5" fill="rgb(0,0,0)" />
<circle cx="12.6286" cy="3.59308" r="0.5" fill="rgb(0,0,0)" />
<circle cx="15.4566" cy="3.79993" r="0.5" fill="rgb(0,0,0)" />
<circle cx="7.4412" cy="3.85631" r="0.5" fill="rgb(0,0,0)" />
<circle cx="14.2575" cy="2.17611" r="0.5" fill="rgb(0,0,0)" />
<circle cx="2.78094" cy="4.02307" r="0.5" fill="rgb(0,0,0)" />
<circle cx="14.4583" cy="4.22234" r="0.5" fill="rgb(0,0,0)" />
<circle cx="10.6433" cy="3.92071" r="0.5" fill="rgb(0,0,0)" />
<circle cx="6.58436" cy="4.27978" r="0.5" fill="rgb(0,0,0)" />
<circle cx="3.25098" cy="1.56169" r="0.5" fill="rgb(0,0,0)" />
<circle cx="17.5962" cy="4.33274" r="0.5" fill="rgb(0,0,0)" />
<circle cx="15.9347" cy="4.56209" r="0.5" fill="rgb(0,0,0)" />
<circle cx="5.4887" cy="4.60701" r="0.5" fill="rgb(0,0,0)" />
<circle cx="11.7267" cy="4.267" r="0.5" fill="rgb(0,0,0)" />
<circle cx="6.75986" cy="2.81145" r="0.5" fill="rgb(0,0,0)" />
<circle cx="10.0855" cy="4.61731" r="0.5" fill="rgb(0,0,0)" />
<circle cx="2.26592" cy="4.85518" r="0.5" fill="rgb(0,0,0)" />
<circle cx="6.01836" cy="5.12021" r="0.5" fill="rgb(0,0,0)" />
<circle cx="7.93591" cy="4.94332" r="0.5" fill="rgb(0,0,0)" />
<circle cx="9.41241" cy="5.07285" r="0.5" fill="rgb(0,0,0)" />
<circle cx="4.65577" cy="5.38662" r="0.5" fill="rgb(0,0,0)" />
<circle cx="13.7125" cy="3.435" r="0.5" fill="rgb(0,0,0)" />
<circle cx="16.7634" cy="5.45061" r="0.5" fill="rgb(0,0,0)" />
<circle cx="13.9354" cy="5.15299" r="0.5" fill="rgb(0,0,0)" />
<circle cx="6.68647" cy="5.56512" r="0.5" fill="rgb(0,0,0)" />
<circle cx="8.90201" cy="5.81555" r="0.5" fill="rgb(0,0,0)" />
<circle cx="3.18195" cy="5.55894" r="0.5" fill="rgb(0,0,0)" />
<circle cx="1.23631" cy="5.85204" r="0.5" fill="rgb(0,0,0)" />
<circle cx="7.53485" cy="6.04707" r="0.5" fill="rgb(0,0,0)" />
<circle cx="15.7039" cy="6.02993" r="0.5" fill="rgb(0,0,0)" />
<circle cx="10.9615" cy="5.6455" r="0.5" fill="rgb(0,0,0)" />
<circle cx="12.5824" cy="5.67704" r="0.5" fill="rgb(0,0,0)" />
<circle cx="4.31526" cy="6.31818" r="0.5" fill="rgb(0,0,0)" />
<circle cx="17.015" cy="6.4331" r="0.5" fill="rgb(0,0,0)" />
<circle cx="6.61912" cy="6.80314" r="0.5" fill="rgb(0,0,0)" />
<circle cx="9.6802" cy="6.51916" r="0.5" fill="rgb(0,0,0)" />
<circle cx="8.59668" cy="6.86934" r="0.5" fill="rgb(0,0,0)" />
<circle cx="7.67478" cy="7.17262" r="0.5" fill="rgb(0,0,0)" />
<circle cx="18.1081" cy="7.10284" r="0.5" fill="rgb(0,0,0)" />
<circle cx="15.6682" cy="7.17476" r="0.5" fill="rgb(0,0,0)" />
<circle cx="10.2585" cy="7.24365" r="0.5" fill="rgb(0,0,0)" />
<circle cx="1.8263" cy="1.95472" r="0.5" fill="rgb(0,0,0)" />
<circle cx="14.3591" cy="7.03102" r="0.5" fill="rgb(0,0,0)" />
<circle cx="12.5886" cy="2.24715" r="0.5" fill="rgb(0,0,0)" />
<circle cx="8.64243" cy="3.98488" r="0.5" fill="rgb(0,0,0)" />
<circle cx="6.58793" cy="7.65482" r="0.5" fill="rgb(0,0,0)" />
<circle cx="5.27898" cy="7.48776" r="0.5" fill="rgb(0,0,0)" />
<circle cx="4.2753" cy="7.40147" r="0.5" fill="rgb(0,0,0)" />
<circle cx="7.34342" cy="8.13472" r="0.5" fill="rgb(0,0,0)" />
<circle cx="17.0767" cy="7.70805" r="0.5" fill="rgb(0,0,0)" />
<circle cx="5.89197" cy="8.23137" r="0.5" fill="rgb(0,0,0)" />
<circle cx="13.665" cy="7.92686" r="0.5" fill="rgb(0,0,0)" />
<circle cx="3.56776" cy="8.13004" r="0.5" fill="rgb(0,0,0)" />
<circle cx="2.2554" cy="8.24128" r="0.5" fill="rgb(0,0,0)" />
<circle cx="14.5812" cy="3.05404" r="0.5" fill="rgb(0,0,0)" />
<circle cx="9.35902" cy="7.99288" r="0.5" fill="rgb(0,0,0)" />
<circle cx="16.1438" cy="8.29303" r="0.5" fill="rgb(0,0,0)" />
<circle cx="10.3261" cy="8.50657" r="0.5" fill="rgb(0,0,0)" />
<circle cx="8.45305" cy="8.98754" r="0.5" fill="rgb(0,0,0)" />
<circle cx="7.29785" cy="9.01336" r="0.5" fill="rgb(0,0,0)" />
<circle cx="4.04128" cy="9.17778" r="0.5" fill="rgb(0,0,0)" />
<circle cx="12.1505" cy="8.39027" r="0.5" fill="rgb(0,0,0)" />
<circle cx="4.90626" cy="8.96979" r="0.5" fill="rgb(0,0,0)" />
<circle cx="1.45955" cy="9.16934" r="0.5" fill="rgb(0,0,0)" />
<circle cx="16.1358" cy="2.28756" r="0.5" fill="rgb(0,0,0)" />
<circle cx="3.4699" cy="9.48309" r="0.5" fill="rgb(0,0,0)" />
<circle cx="13.3582" cy="9.08623" r="0.5" fill="rgb(0,0,0)" />
<circle cx="9.07015" cy="9.80417" r="0.5" fill="rgb(0,0,0)" />
<circle cx="8.13855" cy="9.88777" r="0.5" fill="rgb(0,0,0)" />
<circle cx="9.84096" cy="9.39788" r="0.5" fill="rgb(0,0,0)" />
<circle cx="11.3702" cy="9.37562" r="0.5" fill="rgb(0,0,0)" />
<circle cx="4.48689" cy="10.1547" r="0.5" fill="rgb(0,0,0)" />
<circle cx="1.80045" cy="10.1999" r="0.5" fill="rgb(0,0,0)" />
<circle cx="3.80272" cy="4.54975" r="0.5" fill="rgb(0,0,0)" />
<circle cx="15.8469" cy="9.51756" r="0.5" fill="rgb(0,0,0)" />
<circle cx="13.2836" cy="10.2114" r="0.5" fill="rgb(0,0,0)" />
<circle cx="5.64415" cy="10.2748" r="0.5" fill="rgb(0,0,0)" />
<circle cx="3.30544" cy="10.5302" r="0.5" fill="rgb(0,0,0)" />
<circle cx="6.67598" cy="10.3478" r="0.5" fill="rgb(0,0,0)" />
<circle cx="7.43713" cy="10.8456" r="0.5" fill="rgb(0,0,0)" />
<circle cx="15.7031" cy="10.6341" r="0.5" fill="rgb(0,0,0)" />
<circle cx="8.53827" cy="10.813" r="0.5" fill="rgb(0,0,0)" />
<circle cx="17.1437" cy="10.5999" r="0.5" fill="rgb(0,0,0)" />
<circle cx="9.18537" cy="1.70086" r="0.5" fill="rgb(0,0,0)" />
<circle cx="4.70568" cy="11.1483" r="0.5" fill="rgb(0,0,0)" />
<circle cx="14.8554" cy="11.3246" r="0.5" fill="rgb(0,0,0)" />
<circle cx="9.63082" cy="2.5664" r="0.5" fill="rgb(0,0,0)" />
<circle cx="13.7345" cy="11.2641" r="0.5" fill="rgb(0,0,0)" />
<circle cx="18.5998" cy="6.44539" r="0.5" fill="rgb(0,0,0)" />
<circle cx="9.61264" cy="10.7533" r="0.5" fill="rgb(0,0,0)" />
<circle cx="3.73631" cy="11.4616" r="0.5" fill="rgb(0,0,0)" />
<circle cx="12.1896" cy="10.9234" r="0.5" fill="rgb(0,0,0)" />
<circle cx="2.06696" cy="6.26367" r="0.5" fill="rgb(0,0,0)" />
<circle cx="6.01961" cy="11.5273" r="0.5" fill="rgb(0,0,0)" />
<circle cx="10.8374" cy="10.9597" r="0.5" fill="rgb(0,0,0)" />
<circle cx="7.1322" cy="11.8762" r="0.5" fill="rgb(0,0,0)" />
<circle cx="16.2266" cy="12.0107" r="0.5" fill="rgb(0,0,0)" />
<circle cx="3.32292" cy="12.413" r="0.5" fill="rgb(0,0,0)" />
<circle cx="14.9301" cy="8.51201" r="0.5" fill="rgb(0,0,0)" />
<circle cx="13.2113" cy="12.3" r="0.5" fill="rgb(0,0,0)" />
<circle cx="5.00252" cy="12.4471" r="0.5" fill="rgb(0,0,0)" />
<circle cx="14.1271" cy="13.0058" r="0.5" fill="rgb(0,0,0)" />
<circle cx="8.28142" cy="12.7145" r="0.5" fill="rgb(0,0,0)" />
<circle cx="6.55295" cy="12.9307" r="0.5" fill="rgb(0,0,0)" />
<circle cx="12.0551" cy="12.8584" r="0.5" fill="rgb(0,0,0)" />
<circle cx="3.82566" cy="13.4526" r="0.5" fill="rgb(0,0,0)" />
<circle cx="17.0721" cy="9.17409" r="0.5" fill="rgb(0,0,0)" />
<circle cx="10.5075" cy="13.3276" r="0.5" fill="rgb(0,0,0)" />
<circle cx="2.2576" cy="13.243" r="0.5" fill="rgb(0,0,0)" />
<circle cx="14.9672" cy="12.4563" r="0.5" fill="rgb(0,0,0)" />
<circle cx="0.835634" cy="11.2856" r="0.5" fill="rgb(0,0,0)" />
<circle cx="13.4289" cy="13.8601" r="0.5" fill="rgb(0,0,0)" />
<circle cx="4.79606" cy="13.8815" r="0.5" fill="rgb(0,0,0)" />
<circle cx="7.85475" cy="13.711" r="0.5" fill="rgb(0,0,0)" />
<circle cx="6.03064" cy="13.9682" r="0.5" fill="rgb(0,0,0)" />
<circle cx="14.3705" cy="14.3382" r="0.5" fill="rgb(0,0,0)" />
<circle cx="2.26692" cy="11.5358" r="0.5" fill="rgb(0,0,0)" />
<circle cx="17.1049" cy="14.0654" r="0.5" fill="rgb(0,0,0)" />
<circle cx="12.4765" cy="14.253" r="0.5" fill="rgb(0,0,0)" />
<circle cx="10.6297" cy="2.62859" r="0.5" fill="rgb(0,0,0)" />
<circle cx="3.07269" cy="14.4971" r="0.5" fill="rgb(0,0,0)" />
<circle cx="4.99367" cy="14.9054" r="0.5" fill="rgb(0,0,0)" />
<circle cx="10.7294" cy="14.3652" r="0.5" fill="rgb(0,0,0)" />
<circle cx="13.4565" cy="15.0246" r="0.5" fill="rgb(0,0,0)" />
<circle cx="4.0006" cy="14.8741" r="0.5" fill="rgb(0,0,0)" />
<circle cx="6.03289" cy="3.38338" r="0.5" fill="rgb(0,0,0)" />
<circle cx="9.13511" cy="14.4211" r="0.5" fill="rgb(0,0,0)" />
<circle cx="12.6763" cy="7.06231" r="0.5" fill="rgb(0,0,0)" />
<circle cx="18.002" cy="14.7939" r="0.5" fill="rgb(0,0,0)" />
<circle cx="6.57942" cy="15.0137" r="0.5" fill="rgb(0,0,0)" />
<circle cx="11.5229" cy="14.8239" r="0.5" fill="rgb(0,0,0)" />
<circle cx="7.79984" cy="14.9968" r="0.5" fill="rgb(0,0,0)" />
<circle cx="5.72032" cy="0.458709" r="0.5" fill="rgb(0,0,0)" />
<circle cx="15.0651" cy="15.3274" r="0.5" fill="rgb(0,0,0)" />
<circle cx="5.66728" cy="15.5311" r="0.5" fill="rgb(0,0,0)" />
<circle cx="2.21876" cy="15.3676" r="0.5" fill="rgb(0,0,0)" />
<circle cx="4.72093" cy="15.8375" r="0.5" fill="rgb(0,0,0)" />
<circle cx="14.6019" cy="9.79711" r="0.5" fill="rgb(0,0,0)" />
<circle cx="14.2541" cy="15.7423" r="0.5" fill="rgb(0,0,0)" />
<circle cx="4.19511" cy="2.2524" r="0.5" fill="rgb(0,0,0)" />
<circle cx="3.25627" cy="15.804" r="0.5" fill="rgb(0,0,0)" />
<circle cx="16.3258" cy="15.3816" r="0.5" fill="rgb(0,0,0)" />
<circle cx="11.9729" cy="15.6643" r="0.5" fill="rgb(0,0,0)" />
<circle cx="4.75257" cy="4.39861" r="0.5" fill="rgb(0,0,0)" />
<circle cx="1.29968" cy="16.1306" r="0.5" fill="rgb(0,0,0)" />
<circle cx="7.3965" cy="16.0985" r="0.5" fill="rgb(0,0,0)" />
<circle cx="17.2679" cy="16.2052" r="0.5" fill="rgb(0,0,0)" />
<circle cx="5.54198" cy="16.5383" r="0.5" fill="rgb(0,0,0)" />
<circle cx="8.86475" cy="16.1557" r="0.5" fill="rgb(0,0,0)" />
<circle cx="1.26239" cy="4.77281" r="0.5" fill="rgb(0,0,0)" />
<circle cx="15.5689" cy="14.4758" r="0.5" fill="rgb(0,0,0)" />
<circle cx="3.96968" cy="16.1728" r="0.5" fill="rgb(0,0,0)" />
<circle cx="16.0097" cy="0.739178" r="0.5" fill="rgb(0,0,0)" />
<circle cx="6.54919" cy="16.4736" r="0.5" fill="rgb(0,0,0)" />
<circle cx="12.6153" cy="16.5393" r="0.5" fill="rgb(0,0,0)" />
<circle cx="13.249" cy="15.8529" r="0.5" fill="rgb(0,0,0)" />
<circle cx="10.0817" cy="15.6839" r="0.5" fill="rgb(0,0,0)" />
<circle cx="10.9444" cy="16.6049" r="0.5" fill="rgb(0,0,0)" />
<circle cx="1.27961" cy="17.2615" r="0.5" fill="rgb(0,0,0)" />
<circle cx="10.3031" cy="12.3149" r="0.5" fill="rgb(0,0,0)" />
<circle cx="15.1381" cy="16.4754" r="0.5" fill="rgb(0,0,0)" />
<circle cx="2.97632" cy="16.7185" r="0.5" fill="rgb(0,0,0)" />
<circle cx="4.46683" cy="16.982" r="0.5" fill="rgb(0,0,0)" />
<circle cx="15.8897" cy="17.0299" r="0.5" fill="rgb(0,0,0)" />
<circle cx="16.8353" cy="17.3009" r="0.5" fill="rgb(0,0,0)" />
<circle cx="1.96987" cy="17.7468" r="0.5" fill="rgb(0,0,0)" />
<circle cx="7.26823" cy="9.82705" r="0.5" fill="rgb(0,0,0)" />
<circle cx="7.74816" cy="17.1354" r="0.5" fill="rgb(0,0,0)" />
<circle cx="18.5081" cy="4.53126" r="0.5" fill="rgb(0,0,0)" />
<circle cx="18.3893" cy="3.35025" r="0.5" fill="rgb(0,0,0)" />
<circle cx="8.47319" cy="8.0827" r="0.5" fill="rgb(0,0,0)" />
<circle cx="15.1465" cy="13.5284" r="0.5" fill="rgb(0,0,0)" />
<circle cx="1.2144" cy="17.8887" r="0.5" fill="rgb(0,0,0)" />
<circle cx="14.1548" cy="16.9691" r="0.5" fill="rgb(0,0,0)" />
<circle cx="18.4431" cy="0.493222" r="0.5" fill="rgb(0,0,0)" />
<circle cx="17.8291" cy="17.4566" r="0.5" fill="rgb(0,0,0)" />
<circle cx="5.67495" cy="17.4152" r="0.5" fill="rgb(0,0,0)" />
<circle cx="6.12791" cy="9.14277" r="0.5" fill="rgb(0,0,0)" />
<circle cx="11.983" cy="17.4944" r="0.5" fill="rgb(0,0,0)" />
<circle cx="1.47171" cy="14.2763" r="0.5" fill="rgb(0,0,0)" />
<circle cx="9.06663" cy="17.3418" r="0.5" fill="rgb(0,0,0)" />
<circle cx="11.009" cy="17.7932" r="0.5" fill="rgb(0,0,0)" />
<circle cx="2.81031" cy="17.702" r="0.5" fill="rgb(0,0,0)" />
<circle cx="18.1227" cy="13.178" r="0.5" fill="rgb(0,0,0)" />
<circle cx="9.62773" cy="3.58557" r="0.5" fill="rgb(0,0,0)" />
<circle cx="18.0657" cy="11.6078" r="0.5" fill="rgb(0,0,0)" />
<circle cx="14.4086" cy="17.9228" r="0.5" fill="rgb(0,0,0)" />
<circle cx="10.4061" cy="1.44702" r="0.5" fill="rgb(0,0,0)" />
<circle cx="13.1947" cy="17.4521" r="0.5" fill="rgb(0,0,0)" />
<circle cx="15.4485" cy="17.9636" r="0.5" fill="rgb(0,0,0)" />
<circle cx="6.763" cy="17.725" r="0.5" fill="rgb(0,0,0)" />
<circle cx="8.23724" cy="18.0444" r="0.5" fill="rgb(0,0,0)" />
<circle cx="2.67698" cy="9.05999" r="0.5" fill="rgb(0,0,0)" />
<circle cx="9.79486" cy="17.9746" r="0.5" fill="rgb(0,0,0)" />
<circle cx="4.53341" cy="18.1266" r="0.5" fill="rgb(0,0,0)" />
<circle cx="0.421155" cy="16.5959" r="0.5" fill="rgb(0,0,0)" />
<circle cx="16.6448" cy="18.4112" r="0.5" fill="rgb(0,0,0)" />
<circle cx="8.17842" cy="11.6253" r="0.5" fill="rgb(0,0,0)" />
<circle cx="0.448366" cy="10.0691" r="0.5" fill="rgb(0,0,0)" />
<circle cx="0.429169" cy="8.64586" r="0.5" fill="rgb(0,0,0)" />
<circle cx="10.3087" cy="0.299372" r="0.5" fill="rgb(0,0,0)" />
<circle cx="5.72317" cy="6.31516" r="0.5" fill="rgb(0,0,0)" />
<circle cx="0.504633" cy="14.94" r="0.5" fill="rgb(0,0,0)" />
<circle cx="0.676702" cy="12.8095" r="0.5" fill="rgb(0,0,0)" />
<circle cx="15.2876" cy="5.11613" r="0.5" fill="rgb(0,0,0)" />
<circle cx="0.462297" cy="3.78725" r="0.5" fill="rgb(0,0,0)" />
<circle cx="1.5552" cy="7.16626" r="0.5" fill="rgb(0,0,0)" />
<circle cx="18.3182" cy="9.60538" r="0.5" fill="rgb(0,0,0)" />
<circle cx="18.1503" cy="5.59641" r="0.5" fill="rgb(0,0,0)" />
<circle cx="18.361" cy="8.14121" r="0.5" fill="rgb(0,0,0)" />
<circle cx="15.1043" cy="18.6621" r="0.5" fill="rgb(0,0,0)" />
<circle cx="2.90832" cy="7.0121" r="0.5" fill="rgb(0,0,0)" />
<circle cx="13.6681" cy="18.4803" r="0.5" fill="rgb(0,0,0)" />
<circle cx="10.8405" cy="18.5998" r="0.5" fill="rgb(0,0,0)" />
<circle cx="12.3991" cy="18.4736" r="0.5" fill="rgb(0,0,0)" />
<circle cx="11.2241" cy="0.6656" r="0.5" fill="rgb(0,0,0)" />
<circle cx="0.434352" cy="6.854" r="0.5" fill="rgb(0,0,0)" />
<circle cx="3.44762" cy="18.4167" r="0.5" fill="rgb(0,0,0)" />
<circle cx="13.1459" cy="4.55225" r="0.5" fill="rgb(0,0,0)" />
<circle cx="9.22586" cy="12.1343" r="0.5" fill="rgb(0,0,0)" />
<circle cx="18.4611" cy="15.8222" r="0.5" fill="rgb(0,0,0)" />
<circle cx="8.09319" cy="18.6458" r="0.5" fill="rgb(0,0,0)" />
<circle cx="6.06129" cy="18.5178" r="0.5" fill="rgb(0,0,0)" />
<circle cx="6.83324" cy="0.305266" r="0.5" fill="rgb(0,0,0)" />
<circle cx="18.3786" cy="1.67052" r="0.5" fill="rgb(0,0,0)" />
<circle cx="8.11763" cy="0.263664" r="0.5" fill="rgb(0,0,0)" />
<circle cx="2.53302" cy="0.544311" r="0.5" fill="rgb(0,0,0)" />
<circle cx="0.566216" cy="2.37432" r="0.5" fill="rgb(0,0,0)" />
<circle cx="0.767561" cy="0.736266" r="0.5" fill="rgb(0,0,0)" />
<circle cx="14.3681" cy="5.88938" r="0.5" fill="rgb(0,0,0)" />
<circle cx="0.278948" cy="17.6546" r="0.5" fill="rgb(0,0,0)" />
<circle cx="0.370721" cy="18.4709" r="0.5" fill="rgb(0,0,0)" />
<circle cx="2.09471" cy="18.5955" r="0.5" fill="rgb(0,0,0)" />
<circle cx="1.08505" cy="18.5812" r="0.5" fill="rgb(0,0,0)" />
<circle cx="16.3352" cy="13.3463" r="0.5" fill="rgb(0,0,0)" />
<circle cx="1.99883" cy="16.664" r="0.5" fill="rgb(0,0,0)" />
<circle cx="17.8261" cy="18.5988" r="0.5" fill="rgb(0,0,0)" />
<circle cx="2.74241" cy="9.90671" r="0.5" fill="rgb(0,0,0)" />
<circle cx="18.5632" cy="18.3851" r="0.5" fill="rgb(0,0,0)" />
<circle cx="18.6098" cy="17.2738" r="0.5" fill="rgb(0,0,0)" />
<circle cx="11.3195" cy="7.20695" r="0.5" fill="rgb(0,0,0)" />
<circle cx="1.11835" cy="7.96552" r="0.5" fill="rgb(0,0,0)" />
<circle cx="0.336922" cy="5.20542" r="0.5" fill="rgb(0,0,0)" />
<circle cx="14.8058" cy="0.354583" r="0.5" fill="rgb(0,0,0)" />
<circle cx="16.7173" cy="4.43263" r="0.5" fill="rgb(0,0,0)" />
<circle cx="13.5623" cy="0.343755" r="0.5" fill="rgb(0,0,0)" />
</svg>
