<?xml version="1.0" ?>
<!DOCTYPE svg PUBLIC "-//W3C//DTD SVG 1.1//EN" "http://www.w3.org/Graphics/SVG/1.1/DTD/svg11.dtd">
<svg width="20" height="20" version="1.1" xmlns="http://www.w3.org/2000/svg">
<circle cx="14.946" cy="0.715371" r="0.5" fill="rgb(0,0,0)" />
<circle cx="16.4881" cy="1.75831" r="0.5" fill="rgb(0,0,0)" />
<circle cx="5.46417" cy="1.23365" r="0.5" fill="rgb(0,0,0)" />
<circle cx="10.2422" cy="1.1732" r="0.5" fill="rgb(0,0,0)" />
<circle cx="12.452" cy="2.19512" r="0.5" fill="rgb(0,0,0)" />
<circle cx="7.7943" cy="1.26221" r="0.5" fill="rgb(0,0,0)" />
<circle cx="17.2562" cy="3.77334" r="0.5" fill="rgb(0,0,0)" />
<circle cx="3.62712" cy="3.72702" r="0.5" fill="rgb(0,0,0)" />
<circle cx="14.1733" cy="5.4505" r="0.5" fill="rgb(0,0,0)" />
<circle cx="16.9778" cy="5.55046" r="0.5" fill="rgb(0,0,0)" />
<circle cx="6.92978" cy="5.22951" r="0.5" fill="rgb(0,0,0)" />
<circle cx="2.2551" cy="5.59919" r="0.5" fill="rgb(0,0,0)" />
<circle cx="14.4664" cy="7.13186" r="0.5" fill="rgb(0,0,0)" />
<circle cx="17.9511" cy="6.69927" r="0.5" fill="rgb(0,0,0)" />
<circle cx="5.66159" cy="7.49238" r="0.5" fill="rgb(0,0,0)" />
<circle cx="2.56413" cy="8.23947" r="0.5" fill="rgb(0,0,0)" />
<circle cx="9.46334" cy="8.56051" r="0.5" fill="rgb(0,0,0)" />
<circle cx="11.2348" cy="3.88489" r="0.5" fill="rgb(0,0,0)" />
<circle cx="11.5612" cy="8.82261" r="0.5" fill="rgb(0,0,0)" />
<circle cx="12.5433" cy="0.612782" r="0.5" fill="rgb(0,0,0)" />
<circle cx="12.3458" cy="6.51448" r="0.5" fill="rgb(0,0,0)" />
<circle cx="4.00341" cy="9.45004" r="0.5" fill="rgb(0,0,0)" />
<circle cx="14.9174" cy="4.0833" r="0.5" fill="rgb(0,0,0)" />
<circle cx="15.9464" cy="10.2012" r="0.5" fill="rgb(0,0,0)" />
<circle cx="13.0279" cy="4.20264" r="0.5" fill="rgb(0,0,0)" />
<circle cx="13.742" cy="10.7306" r="0.5" fill="rgb(0,0,0)" />
<circle cx="11.1763" cy="10.9936" r="0.5" fill="rgb(0,0,0)" />
<circle cx="3.95629" cy="6.40266" r="0.5" fill="rgb(0,0,0)" />
<circle cx="15.5227" cy="12.2534" r="0.5" fill="rgb(0,0,0)" />
<circle cx="12.5753" cy="12.4687" r="0.5" fill="rgb(0,0,0)" />
<circle cx="3.92753" cy="11.8941" r="0.5" fill="rgb(0,0,0)" />
<circle cx="2.13252" cy="2.5478" r="0.5" fill="rgb(0,0,0)" />
<circle cx="14.2907" cy="13.5989" r="0.5" fill="rgb(0,0,0)" />
<circle cx="10.1415" cy="13.2022" r="0.5" fill="rgb(0,0,0)" />
<circle cx="16.2395" cy="8.24484" r="0.5" fill="rgb(0,0,0)" />
<circle cx="6.27448" cy="12.8337" r="0.5" fill="rgb(0,0,0)" />
<circle cx="13.758" cy="8.65444" r="0.5" fill="rgb(0,0,0)" />
<circle cx="12.4563" cy="14.2264" r="0.5" fill="rgb(0,0,0)" />
<circle cx="1.40705" cy="11.402" r="0.5" fill="rgb(0,0,0)" />
<circle cx="16.3083" cy="14.27" r="0.5" fill="rgb(0,0,0)" />
<circle cx="17.829" cy="14.6422" r="0.5" fill="rgb(0,0,0)" />
<circle cx="14.1875" cy="15.6776" r="0.5" fill="rgb(0,0,0)" />
<circle cx="14.0679" cy="2.54104" r="0.5" fill="rgb(0,0,0)" />
<circle cx="15.8695" cy="6.33047" r="0.5" fill="rgb(0,0,0)" />
<circle cx="2.55087" cy="14.6359" r="0.5" fill="rgb(0,0,0)" />
<circle cx="16.1286" cy="4.34753" r="0.5" fill="rgb(0,0,0)" />
<circle cx="10.6107" cy="15.2382" r="0.5" fill="rgb(0,0,0)" />
<circle cx="12.6333" cy="15.7754" r="0.5" fill="rgb(0,0,0)" />
<circle cx="16.1522" cy="16.4691" r="0.5" fill="rgb(0,0,0)" />
<circle cx="5.37514" cy="15.9325" r="0.5" fill="rgb(0,0,0)" />
<circle cx="8.02155" cy="15.0449" r="0.5" fill="rgb(0,0,0)" />
<circle cx="14.0677" cy="17.0032" r="0.5" fill="rgb(0,0,0)" />
<circle cx="8.28458" cy="12.5446" r="0.5" fill="rgb(0,0,0)" />
<circle cx="0.852582" cy="4.04399" r="0.5" fill="rgb(0,0,0)" />
<circle cx="11.926" cy="17.1494" r="0.5" fill="rgb(0,0,0)" />
<circle cx="2.57844" cy="17.0505" r="0.5" fill="rgb(0,0,0)" />
<circle cx="15.9265" cy="17.8004" r="0.5" fill="rgb(0,0,0)" />
<circle cx="4.38152" cy="17.4388" r="0.5" fill="rgb(0,0,0)" />
<circle cx="5.798" cy="3.64585" r="0.5" fill="rgb(0,0,0)" />
<circle cx="0.945177" cy="16.0392" r="0.5" fill="rgb(0,0,0)" />
<circle cx="10.0723" cy="17.4499" r="0.5" fill="rgb(0,0,0)" />
<circle cx="15.1886" cy="15.0938" r="0.5" fill="rgb(0,0,0)" />
<circle cx="6.94918" cy="16.5788" r="0.5" fill="rgb(0,0,0)" />
<circle cx="12.3422" cy="18.3935" r="0.5" fill="rgb(0,0,0)" />
<circle cx="14.1787" cy="18.239" r="0.5" fill="rgb(0,0,0)" />
<circle cx="17.8293" cy="12.4295" r="0.5" fill="rgb(0,0,0)" />
<circle cx="1.07116" cy="9.74926" r="0.5" fill="rgb(0,0,0)" />
<circle cx="15.5298" cy="18.5843" r="0.5" fill="rgb(0,0,0)" />
<circle cx="17.3185" cy="17.9298" r="0.5" fill="rgb(0,0,0)" />
<circle cx="17.9655" cy="10.148" r="0.5" fill="rgb(0,0,0)" />
<circle cx="18.1604" cy="8.21662" r="0.5" fill="rgb(0,0,0)" />
<circle cx="6.14893" cy="18.1703" r="0.5" fill="rgb(0,0,0)" />
<circle cx="7.86823" cy="7.32976" r="0.5" fill="rgb(0,0,0)" />
<circle cx="8.33669" cy="17.9201" r="0.5" fill="rgb(0,0,0)" />
<circle cx="8.97359" cy="3.6423" r="0.5" fill="rgb(0,0,0)" />
<circle cx="0.988657" cy="13.3752" r="0.5" fill="rgb(0,0,0)" />
<circle cx="0.797009" cy="8.0242" r="0.5" fill="rgb(0,0,0)" />
<circle cx="18.4245" cy="17.8732" r="0.5" fill="rgb(0,0,0)" />
<circle cx="4.6276" cy="14.3233" r="0.5" fill="rgb(0,0,0)" />
<circle cx="18.1707" cy="16.0358" r="0.5" fill="rgb(0,0,0)" />
<circle cx="15.5939" cy="2.65109" r="0.5" fill="rgb(0,0,0)" />
<circle cx="0.701905" cy="6.3088" r="0.5" fill="rgb(0,0,0)" />
<circle cx="0.756637" cy="1.1787" r="0.5" fill="rgb(0,0,0)" />
<circle cx="3.14374" cy="0.863616" r="0.5" fill="rgb(0,0,0)" />
<circle cx="3.04271" cy="18.4472" r="0.5" fill="rgb(0,0,0)" />
<circle cx="0.73256" cy="17.9925" r="0.5" fill="rgb(0,0,0)" />
<circle cx="18.33" cy="4.94768" r="0.5" fill="rgb(0,0,0)" />
<circle cx="10.0864" cy="6.16209" r="0.5" fill="rgb(0,0,0)" />
<circle cx="6.38377" cy="10.0091" r="0.5" fill="rgb(0,0,0)" />
<circle cx="8.7535" cy="10.4527" r="0.5" fill="rgb(0,0,0)" />
<circle cx="18.198" cy="2.98763" r="0.5" fill="rgb(0,0,0)" />
<circle cx="18.1296" cy="1.64515" r="0.5" fill="rgb(0,0,0)" />
<circle cx="17.6135" cy="0.468434" r="0.5" fill="rgb(0,0,0)" />
</svg>
