<?xml version="1.0" ?>
<!DOCTYPE svg PUBLIC "-//W3C//DTD SVG 1.1//EN" "http://www.w3.org/Graphics/SVG/1.1/DTD/svg11.dtd">
<svg width="20" height="20" version="1.1" xmlns="http://www.w3.org/2000/svg">
<circle cx="9.93103" cy="1.10271" r="0.5" fill="rgb(0,0,0)" />
<circle cx="7.1349" cy="1.25307" r="0.5" fill="rgb(0,0,0)" />
<circle cx="12.1095" cy="1.59115" r="0.5" fill="rgb(0,0,0)" />
<circle cx="3.26472" cy="3.77132" r="0.5" fill="rgb(0,0,0)" />
<circle cx="15.494" cy="4.97523" r="0.5" fill="rgb(0,0,0)" />
<circle cx="7.58687" cy="6.31939" r="0.5" fill="rgb(0,0,0)" />
<circle cx="11.092" cy="6.84197" r="0.5" fill="rgb(0,0,0)" />
<circle cx="4.00125" cy="6.80931" r="0.5" fill="rgb(0,0,0)" />
<circle cx="9.53952" cy="9.17124" r="0.5" fill="rgb(0,0,0)" />
<circle cx="6.19464" cy="9.09665" r="0.5" fill="rgb(0,0,0)" />
<circle cx="3.37642" cy="10.4609" r="0.5" fill="rgb(0,0,0)" />
<circle cx="7.0836" cy="11.965" r="0.5" fill="rgb(0,0,0)" />
<circle cx="15.7182" cy="12.8919" r="0.5" fill="rgb(0,0,0)" />
<circle cx="15.005" cy="7.50438" r="0.5" fill="rgb(0,0,0)" />
<circle cx="17.1747" cy="9.85308" r="0.5" fill="rgb(0,0,0)" />
<circle cx="15.8054" cy="2.40861" r="0.5" fill="rgb(0,0,0)" />
<circle cx="4.21993" cy="13.8751" r="0.5" fill="rgb(0,0,0)" />
<circle cx="16.041" cy="15.6012" r="0.5" fill="rgb(0,0,0)" />
<circle cx="6.00703" cy="3.81468" r="0.5" fill="rgb(0,0,0)" />
<circle cx="13.0543" cy="9.37967" r="0.5" fill="rgb(0,0,0)" />
<circle cx="7.26091" cy="15.0962" r="0.5" fill="rgb(0,0,0)" />
<circle cx="13.4799" cy="14.8878" r="0.5" fill="rgb(0,0,0)" />
<circle cx="12.6469" cy="17.8724" r="0.5" fill="rgb(0,0,0)" />
<circle cx="10.7344" cy="17.4246" r="0.5" fill="rgb(0,0,0)" />
<circle cx="8.13884" cy="17.628" r="0.5" fill="rgb(0,0,0)" />
<circle cx="12.4449" cy="4.93231" r="0.5" fill="rgb(0,0,0)" />
<circle cx="17.9442" cy="12.8694" r="0.5" fill="rgb(0,0,0)" />
<circle cx="4.00907" cy="1.14776" r="0.5" fill="rgb(0,0,0)" />
<circle cx="10.3438" cy="12.0177" r="0.5" fill="rgb(0,0,0)" />
<circle cx="17.7642" cy="6.55175" r="0.5" fill="rgb(0,0,0)" />
<circle cx="1.15755" cy="1.47956" r="0.5" fill="rgb(0,0,0)" />
<circle cx="1.11229" cy="5.02745" r="0.5" fill="rgb(0,0,0)" />
<circle cx="10.6525" cy="14.7011" r="0.5" fill="rgb(0,0,0)" />
<circle cx="1.16508" cy="8.53462" r="0.5" fill="rgb(0,0,0)" />
<circle cx="1.24316" cy="12.8875" r="0.5" fill="rgb(0,0,0)" />
<circle cx="9.42961" cy="3.84008" r="0.5" fill="rgb(0,0,0)" />
<circle cx="4.6301" cy="17.3939" r="0.5" fill="rgb(0,0,0)" />
<circle cx="1.4492" cy="16.8915" r="0.5" fill="rgb(0,0,0)" />
<circle cx="14.1595" cy="17.1635" r="0.5" fill="rgb(0,0,0)" />
<circle cx="15.6988" cy="18.0089" r="0.5" fill="rgb(0,0,0)" />
<circle cx="13.7794" cy="3.12701" r="0.5" fill="rgb(0,0,0)" />
<circle cx="17.8635" cy="17.9544" r="0.5" fill="rgb(0,0,0)" />
<circle cx="18.0236" cy="15.7646" r="0.5" fill="rgb(0,0,0)" />
<circle cx="17.7918" cy="3.48148" r="0.5" fill="rgb(0,0,0)" />
<circle cx="13.5544" cy="11.9112" r="0.5" fill="rgb(0,0,0)" />
<circle cx="17.661" cy="0.947549" r="0.5" fill="rgb(0,0,0)" />
<circle cx="14.582" cy="0.747459" r="0.5" fill="rgb(0,0,0)" />
</svg>
