<?xml version="1.0" ?>
<!DOCTYPE svg PUBLIC "-//W3C//DTD SVG 1.1//EN" "http://www.w3.org/Graphics/SVG/1.1/DTD/svg11.dtd">
<svg width="20" height="20" version="1.1" xmlns="http://www.w3.org/2000/svg">
<circle cx="10.5686" cy="0.646814" r="0.5" fill="rgb(0,0,0)" />
<circle cx="12.1127" cy="1.47234" r="0.5" fill="rgb(0,0,0)" />
<circle cx="14.0436" cy="1.68423" r="0.5" fill="rgb(0,0,0)" />
<circle cx="3.77115" cy="1.84472" r="0.5" fill="rgb(0,0,0)" />
<circle cx="9.12463" cy="1.68561" r="0.5" fill="rgb(0,0,0)" />
<circle cx="4.83675" cy="2.63269" r="0.5" fill="rgb(0,0,0)" />
<circle cx="13.04" cy="2.53808" r="0.5" fill="rgb(0,0,0)" />
<circle cx="4.05467" cy="3.58146" r="0.5" fill="rgb(0,0,0)" />
<circle cx="5.3564" cy="3.65144" r="0.5" fill="rgb(0,0,0)" />
<circle cx="14.3611" cy="3.16786" r="0.5" fill="rgb(0,0,0)" />
<circle cx="3.12316" cy="3.11727" r="0.5" fill="rgb(0,0,0)" />
<circle cx="6.74251" cy="3.60557" r="0.5" fill="rgb(0,0,0)" />
<circle cx="15.1634" cy="3.93812" r="0.5" fill="rgb(0,0,0)" />
<circle cx="13.2205" cy="3.76797" r="0.5" fill="rgb(0,0,0)" />
<circle cx="10.1369" cy="3.75085" r="0.5" fill="rgb(0,0,0)" />
<circle cx="1.97508" cy="2.03636" r="0.5" fill="rgb(0,0,0)" />
<circle cx="8.68647" cy="3.53319" r="0.5" fill="rgb(0,0,0)" />
<circle cx="16.2015" cy="4.54349" r="0.5" fill="rgb(0,0,0)" />
<circle cx="6.62592" cy="4.8743" r="0.5" fill="rgb(0,0,0)" />
<circle cx="5.28281" cy="4.84046" r="0.5" fill="rgb(0,0,0)" />
<circle cx="11.8532" cy="4.5998" r="0.5" fill="rgb(0,0,0)" />
<circle cx="14.8446" cy="5.21429" r="0.5" fill="rgb(0,0,0)" />
<circle cx="17.5399" cy="4.26154" r="0.5" fill="rgb(0,0,0)" />
<circle cx="13.5227" cy="5.1159" r="0.5" fill="rgb(0,0,0)" />
<circle cx="10.3041" cy="5.14393" r="0.5" fill="rgb(0,0,0)" />
<circle cx="2.56038" cy="4.96052" r="0.5" fill="rgb(0,0,0)" />
<circle cx="5.8688" cy="5.80474" r="0.5" fill="rgb(0,0,0)" />
<circle cx="16.9777" cy="5.62265" r="0.5" fill="rgb(0,0,0)" />
<circle cx="16.8807" cy="0.582347" r="0.5" fill="rgb(0,0,0)" />
<circle cx="15.7174" cy="6.06983" r="0.5" fill="rgb(0,0,0)" />
<circle cx="7.3947" cy="6.06923" r="0.5" fill="rgb(0,0,0)" />
<circle cx="5.87892" cy="6.71263" r="0.5" fill="rgb(0,0,0)" />
<circle cx="12.7051" cy="6.46276" r="0.5" fill="rgb(0,0,0)" />
<circle cx="10.2104" cy="6.94337" r="0.5" fill="rgb(0,0,0)" />
<circle cx="1.7698" cy="7.19001" r="0.5" fill="rgb(0,0,0)" />
<circle cx="11.664" cy="2.813" r="0.5" fill="rgb(0,0,0)" />
<circle cx="8.14373" cy="4.80568" r="0.5" fill="rgb(0,0,0)" />
<circle cx="14.1859" cy="6.75851" r="0.5" fill="rgb(0,0,0)" />
<circle cx="8.03489" cy="7.0771" r="0.5" fill="rgb(0,0,0)" />
<circle cx="3.47329" cy="7.12017" r="0.5" fill="rgb(0,0,0)" />
<circle cx="7.14518" cy="1.29885" r="0.5" fill="rgb(0,0,0)" />
<circle cx="1.97205" cy="6.05173" r="0.5" fill="rgb(0,0,0)" />
<circle cx="16.9348" cy="7.34167" r="0.5" fill="rgb(0,0,0)" />
<circle cx="2.568" cy="8.13144" r="0.5" fill="rgb(0,0,0)" />
<circle cx="7.3515" cy="8.01788" r="0.5" fill="rgb(0,0,0)" />
<circle cx="9.06888" cy="7.84706" r="0.5" fill="rgb(0,0,0)" />
<circle cx="2.00232" cy="3.62044" r="0.5" fill="rgb(0,0,0)" />
<circle cx="5.09031" cy="7.8588" r="0.5" fill="rgb(0,0,0)" />
<circle cx="10.3898" cy="8.36759" r="0.5" fill="rgb(0,0,0)" />
<circle cx="16.3359" cy="8.64334" r="0.5" fill="rgb(0,0,0)" />
<circle cx="2.34527" cy="9.08603" r="0.5" fill="rgb(0,0,0)" />
<circle cx="5.1401" cy="9.09851" r="0.5" fill="rgb(0,0,0)" />
<circle cx="6.80256" cy="9.13841" r="0.5" fill="rgb(0,0,0)" />
<circle cx="0.914496" cy="8.16475" r="0.5" fill="rgb(0,0,0)" />
<circle cx="13.641" cy="8.31827" r="0.5" fill="rgb(0,0,0)" />
<circle cx="12.1707" cy="8.30472" r="0.5" fill="rgb(0,0,0)" />
<circle cx="14.6593" cy="9.31651" r="0.5" fill="rgb(0,0,0)" />
<circle cx="11.4632" cy="9.45019" r="0.5" fill="rgb(0,0,0)" />
<circle cx="4.65128" cy="10.3021" r="0.5" fill="rgb(0,0,0)" />
<circle cx="1.59012" cy="9.94919" r="0.5" fill="rgb(0,0,0)" />
<circle cx="16.3977" cy="10.2457" r="0.5" fill="rgb(0,0,0)" />
<circle cx="9.06864" cy="10.6635" r="0.5" fill="rgb(0,0,0)" />
<circle cx="6.1396" cy="10.4903" r="0.5" fill="rgb(0,0,0)" />
<circle cx="7.66404" cy="10.535" r="0.5" fill="rgb(0,0,0)" />
<circle cx="3.92779" cy="4.76788" r="0.5" fill="rgb(0,0,0)" />
<circle cx="3.08714" cy="10.8378" r="0.5" fill="rgb(0,0,0)" />
<circle cx="12.2439" cy="10.8076" r="0.5" fill="rgb(0,0,0)" />
<circle cx="4.57421" cy="11.7037" r="0.5" fill="rgb(0,0,0)" />
<circle cx="3.83596" cy="8.80478" r="0.5" fill="rgb(0,0,0)" />
<circle cx="16.3136" cy="12.0939" r="0.5" fill="rgb(0,0,0)" />
<circle cx="10.4279" cy="12.2646" r="0.5" fill="rgb(0,0,0)" />
<circle cx="12.5116" cy="12.5085" r="0.5" fill="rgb(0,0,0)" />
<circle cx="6.12631" cy="12.4076" r="0.5" fill="rgb(0,0,0)" />
<circle cx="9.05157" cy="12.4597" r="0.5" fill="rgb(0,0,0)" />
<circle cx="7.71689" cy="12.4327" r="0.5" fill="rgb(0,0,0)" />
<circle cx="15.4057" cy="7.50714" r="0.5" fill="rgb(0,0,0)" />
<circle cx="8.40539" cy="9.06322" r="0.5" fill="rgb(0,0,0)" />
<circle cx="4.37132" cy="13.2286" r="0.5" fill="rgb(0,0,0)" />
<circle cx="0.497467" cy="6.80294" r="0.5" fill="rgb(0,0,0)" />
<circle cx="5.55462" cy="1.43571" r="0.5" fill="rgb(0,0,0)" />
<circle cx="0.690479" cy="5.15968" r="0.5" fill="rgb(0,0,0)" />
<circle cx="15.0014" cy="11.0254" r="0.5" fill="rgb(0,0,0)" />
<circle cx="16.0645" cy="14.27" r="0.5" fill="rgb(0,0,0)" />
<circle cx="14.0831" cy="13.9333" r="0.5" fill="rgb(0,0,0)" />
<circle cx="3.20871" cy="14.2336" r="0.5" fill="rgb(0,0,0)" />
<circle cx="4.951" cy="14.7731" r="0.5" fill="rgb(0,0,0)" />
<circle cx="12.4494" cy="14.0999" r="0.5" fill="rgb(0,0,0)" />
<circle cx="1.65482" cy="14.6016" r="0.5" fill="rgb(0,0,0)" />
<circle cx="8.53195" cy="14.3383" r="0.5" fill="rgb(0,0,0)" />
<circle cx="13.2723" cy="15.1654" r="0.5" fill="rgb(0,0,0)" />
<circle cx="14.9395" cy="0.605737" r="0.5" fill="rgb(0,0,0)" />
<circle cx="17.9318" cy="6.77636" r="0.5" fill="rgb(0,0,0)" />
<circle cx="14.1092" cy="15.8129" r="0.5" fill="rgb(0,0,0)" />
<circle cx="16.3012" cy="1.71016" r="0.5" fill="rgb(0,0,0)" />
<circle cx="16.4358" cy="15.492" r="0.5" fill="rgb(0,0,0)" />
<circle cx="5.80288" cy="15.7662" r="0.5" fill="rgb(0,0,0)" />
<circle cx="4.19524" cy="15.7912" r="0.5" fill="rgb(0,0,0)" />
<circle cx="6.47919" cy="14.1146" r="0.5" fill="rgb(0,0,0)" />
<circle cx="2.95278" cy="15.8346" r="0.5" fill="rgb(0,0,0)" />
<circle cx="6.07132" cy="0.410501" r="0.5" fill="rgb(0,0,0)" />
<circle cx="12.8718" cy="0.500035" r="0.5" fill="rgb(0,0,0)" />
<circle cx="11.516" cy="15.351" r="0.5" fill="rgb(0,0,0)" />
<circle cx="10.1938" cy="15.1475" r="0.5" fill="rgb(0,0,0)" />
<circle cx="7.62333" cy="15.7543" r="0.5" fill="rgb(0,0,0)" />
<circle cx="6.67256" cy="16.4208" r="0.5" fill="rgb(0,0,0)" />
<circle cx="15.0152" cy="15.1266" r="0.5" fill="rgb(0,0,0)" />
<circle cx="12.461" cy="16.3253" r="0.5" fill="rgb(0,0,0)" />
<circle cx="4.4919" cy="16.859" r="0.5" fill="rgb(0,0,0)" />
<circle cx="8.27747" cy="0.512738" r="0.5" fill="rgb(0,0,0)" />
<circle cx="18.0141" cy="1.88025" r="0.5" fill="rgb(0,0,0)" />
<circle cx="13.5429" cy="10.6778" r="0.5" fill="rgb(0,0,0)" />
<circle cx="14.0379" cy="17.0086" r="0.5" fill="rgb(0,0,0)" />
<circle cx="16.5366" cy="16.9949" r="0.5" fill="rgb(0,0,0)" />
<circle cx="15.6359" cy="13.2878" r="0.5" fill="rgb(0,0,0)" />
<circle cx="2.91243" cy="17.1926" r="0.5" fill="rgb(0,0,0)" />
<circle cx="4.25809" cy="6.1174" r="0.5" fill="rgb(0,0,0)" />
<circle cx="10.7245" cy="13.5158" r="0.5" fill="rgb(0,0,0)" />
<circle cx="5.67965" cy="17.3189" r="0.5" fill="rgb(0,0,0)" />
<circle cx="3.07424" cy="9.79166" r="0.5" fill="rgb(0,0,0)" />
<circle cx="12.8163" cy="17.4466" r="0.5" fill="rgb(0,0,0)" />
<circle cx="11.4099" cy="6.65617" r="0.5" fill="rgb(0,0,0)" />
<circle cx="1.63964" cy="17.6605" r="0.5" fill="rgb(0,0,0)" />
<circle cx="6.04307" cy="2.47177" r="0.5" fill="rgb(0,0,0)" />
<circle cx="8.21948" cy="17.4932" r="0.5" fill="rgb(0,0,0)" />
<circle cx="15.2863" cy="17.7949" r="0.5" fill="rgb(0,0,0)" />
<circle cx="7.00235" cy="17.7312" r="0.5" fill="rgb(0,0,0)" />
<circle cx="17.2167" cy="17.8911" r="0.5" fill="rgb(0,0,0)" />
<circle cx="16.737" cy="3.1672" r="0.5" fill="rgb(0,0,0)" />
<circle cx="11.2468" cy="17.6102" r="0.5" fill="rgb(0,0,0)" />
<circle cx="0.44733" cy="9.3516" r="0.5" fill="rgb(0,0,0)" />
<circle cx="0.820226" cy="11.2387" r="0.5" fill="rgb(0,0,0)" />
<circle cx="17.9376" cy="13.3908" r="0.5" fill="rgb(0,0,0)" />
<circle cx="10.775" cy="10.9496" r="0.5" fill="rgb(0,0,0)" />
<circle cx="4.53641" cy="18.1844" r="0.5" fill="rgb(0,0,0)" />
<circle cx="18.3645" cy="0.609882" r="0.5" fill="rgb(0,0,0)" />
<circle cx="18.3083" cy="3.12338" r="0.5" fill="rgb(0,0,0)" />
<circle cx="14.3205" cy="12.4634" r="0.5" fill="rgb(0,0,0)" />
<circle cx="12.6718" cy="18.5339" r="0.5" fill="rgb(0,0,0)" />
<circle cx="15.4048" cy="2.44425" r="0.5" fill="rgb(0,0,0)" />
<circle cx="15.9612" cy="18.5346" r="0.5" fill="rgb(0,0,0)" />
<circle cx="10.3509" cy="2.38793" r="0.5" fill="rgb(0,0,0)" />
<circle cx="1.6275" cy="16.4005" r="0.5" fill="rgb(0,0,0)" />
<circle cx="14.2082" cy="18.3052" r="0.5" fill="rgb(0,0,0)" />
<circle cx="9.98875" cy="17.9791" r="0.5" fill="rgb(0,0,0)" />
<circle cx="0.81504" cy="13.2566" r="0.5" fill="rgb(0,0,0)" />
<circle cx="7.64892" cy="2.57629" r="0.5" fill="rgb(0,0,0)" />
<circle cx="15.3065" cy="16.478" r="0.5" fill="rgb(0,0,0)" />
<circle cx="18.0121" cy="11.4652" r="0.5" fill="rgb(0,0,0)" />
<circle cx="0.59572" cy="3.3867" r="0.5" fill="rgb(0,0,0)" />
<circle cx="18.4005" cy="4.82577" r="0.5" fill="rgb(0,0,0)" />
<circle cx="3.23256" cy="18.3681" r="0.5" fill="rgb(0,0,0)" />
<circle cx="18.2422" cy="8.08716" r="0.5" fill="rgb(0,0,0)" />
<circle cx="18.4463" cy="6.07755" r="0.5" fill="rgb(0,0,0)" />
<circle cx="9.7747" cy="9.52293" r="0.5" fill="rgb(0,0,0)" />
<circle cx="9.23328" cy="16.3967" r="0.5" fill="rgb(0,0,0)" />
<circle cx="18.2482" cy="15.9937" r="0.5" fill="rgb(0,0,0)" />
<circle cx="9.13549" cy="6.04878" r="0.5" fill="rgb(0,0,0)" />
<circle cx="2.54701" cy="12.2853" r="0.5" fill="rgb(0,0,0)" />
<circle cx="8.39272" cy="18.5485" r="0.5" fill="rgb(0,0,0)" />
<circle cx="6.0685" cy="18.4836" r="0.5" fill="rgb(0,0,0)" />
<circle cx="0.47589" cy="15.7372" r="0.5" fill="rgb(0,0,0)" />
<circle cx="4.19018" cy="0.596326" r="0.5" fill="rgb(0,0,0)" />
<circle cx="6.27869" cy="7.62753" r="0.5" fill="rgb(0,0,0)" />
<circle cx="0.574521" cy="1.15104" r="0.5" fill="rgb(0,0,0)" />
<circle cx="2.14332" cy="0.579762" r="0.5" fill="rgb(0,0,0)" />
<circle cx="1.63059" cy="18.592" r="0.5" fill="rgb(0,0,0)" />
<circle cx="18.0298" cy="9.61775" r="0.5" fill="rgb(0,0,0)" />
<circle cx="0.449848" cy="17.9427" r="0.5" fill="rgb(0,0,0)" />
<circle cx="17.7453" cy="14.9145" r="0.5" fill="rgb(0,0,0)" />
<circle cx="18.1385" cy="18.5196" r="0.5" fill="rgb(0,0,0)" />
<circle cx="18.3542" cy="17.296" r="0.5" fill="rgb(0,0,0)" />
</svg>
