<?xml version="1.0" ?>
<!DOCTYPE svg PUBLIC "-//W3C//DTD SVG 1.1//EN" "http://www.w3.org/Graphics/SVG/1.1/DTD/svg11.dtd">
<svg width="20" height="20" version="1.1" xmlns="http://www.w3.org/2000/svg">
<circle cx="16.7785" cy="0.630049" r="0.5" fill="rgb(0,0,0)" />
<circle cx="12.6834" cy="0.602604" r="0.5" fill="rgb(0,0,0)" />
<circle cx="5.18291" cy="0.606449" r="0.5" fill="rgb(0,0,0)" />
<circle cx="5.32261" cy="2.01533" r="0.5" fill="rgb(0,0,0)" />
<circle cx="8.01094" cy="0.543134" r="0.5" fill="rgb(0,0,0)" />
<circle cx="12.4835" cy="2.08654" r="0.5" fill="rgb(0,0,0)" />
<circle cx="1.99491" cy="2.06673" r="0.5" fill="rgb(0,0,0)" />
<circle cx="18.0399" cy="1.85521" r="0.5" fill="rgb(0,0,0)" />
<circle cx="18.3488" cy="0.593373" r="0.5" fill="rgb(0,0,0)" />
<circle cx="10.3511" cy="2.92491" r="0.5" fill="rgb(0,0,0)" />
<circle cx="13.2713" cy="3.59105" r="0.5" fill="rgb(0,0,0)" />
<circle cx="15.0486" cy="3.85668" r="0.5" fill="rgb(0,0,0)" />
<circle cx="5.60024" cy="3.64503" r="0.5" fill="rgb(0,0,0)" />
<circle cx="8.08664" cy="4.06911" r="0.5" fill="rgb(0,0,0)" />
<circle cx="10.5396" cy="0.813982" r="0.5" fill="rgb(0,0,0)" />
<circle cx="3.7992" cy="2.84188" r="0.5" fill="rgb(0,0,0)" />
<circle cx="6.44964" cy="5.02219" r="0.5" fill="rgb(0,0,0)" />
<circle cx="16.9597" cy="5.5332" r="0.5" fill="rgb(0,0,0)" />
<circle cx="13.3609" cy="5.13533" r="0.5" fill="rgb(0,0,0)" />
<circle cx="4.43014" cy="5.42732" r="0.5" fill="rgb(0,0,0)" />
<circle cx="1.78127" cy="6.22322" r="0.5" fill="rgb(0,0,0)" />
<circle cx="15.7537" cy="6.33507" r="0.5" fill="rgb(0,0,0)" />
<circle cx="14.8739" cy="5.2484" r="0.5" fill="rgb(0,0,0)" />
<circle cx="12.4296" cy="6.34061" r="0.5" fill="rgb(0,0,0)" />
<circle cx="6.4536" cy="6.60763" r="0.5" fill="rgb(0,0,0)" />
<circle cx="16.7854" cy="7.29153" r="0.5" fill="rgb(0,0,0)" />
<circle cx="2.1245" cy="3.45272" r="0.5" fill="rgb(0,0,0)" />
<circle cx="10.5786" cy="6.86496" r="0.5" fill="rgb(0,0,0)" />
<circle cx="12.1544" cy="8.15028" r="0.5" fill="rgb(0,0,0)" />
<circle cx="2.49121" cy="9.26142" r="0.5" fill="rgb(0,0,0)" />
<circle cx="5.03551" cy="8.9022" r="0.5" fill="rgb(0,0,0)" />
<circle cx="11.2904" cy="9.43484" r="0.5" fill="rgb(0,0,0)" />
<circle cx="4.25155" cy="10.0236" r="0.5" fill="rgb(0,0,0)" />
<circle cx="8.42758" cy="6.51031" r="0.5" fill="rgb(0,0,0)" />
<circle cx="15.9878" cy="10.4102" r="0.5" fill="rgb(0,0,0)" />
<circle cx="8.93813" cy="10.5377" r="0.5" fill="rgb(0,0,0)" />
<circle cx="2.77021" cy="10.6446" r="0.5" fill="rgb(0,0,0)" />
<circle cx="13.7693" cy="10.7239" r="0.5" fill="rgb(0,0,0)" />
<circle cx="11.3614" cy="11.0658" r="0.5" fill="rgb(0,0,0)" />
<circle cx="12.7248" cy="12.4563" r="0.5" fill="rgb(0,0,0)" />
<circle cx="15.5238" cy="12.2836" r="0.5" fill="rgb(0,0,0)" />
<circle cx="3.92305" cy="12.2129" r="0.5" fill="rgb(0,0,0)" />
<circle cx="8.24427" cy="12.6898" r="0.5" fill="rgb(0,0,0)" />
<circle cx="12.2948" cy="14.0533" r="0.5" fill="rgb(0,0,0)" />
<circle cx="0.793424" cy="8.0316" r="0.5" fill="rgb(0,0,0)" />
<circle cx="15.083" cy="14.9474" r="0.5" fill="rgb(0,0,0)" />
<circle cx="0.757909" cy="9.7902" r="0.5" fill="rgb(0,0,0)" />
<circle cx="2.6661" cy="14.5316" r="0.5" fill="rgb(0,0,0)" />
<circle cx="13.223" cy="15.2116" r="0.5" fill="rgb(0,0,0)" />
<circle cx="14.1541" cy="15.8286" r="0.5" fill="rgb(0,0,0)" />
<circle cx="9.80555" cy="14.6607" r="0.5" fill="rgb(0,0,0)" />
<circle cx="16.22" cy="4.27518" r="0.5" fill="rgb(0,0,0)" />
<circle cx="5.14714" cy="15.8631" r="0.5" fill="rgb(0,0,0)" />
<circle cx="6.27179" cy="12.93" r="0.5" fill="rgb(0,0,0)" />
<circle cx="7.91428" cy="15.0266" r="0.5" fill="rgb(0,0,0)" />
<circle cx="3.52963" cy="7.05524" r="0.5" fill="rgb(0,0,0)" />
<circle cx="11.1765" cy="15.3848" r="0.5" fill="rgb(0,0,0)" />
<circle cx="14.1905" cy="2.47133" r="0.5" fill="rgb(0,0,0)" />
<circle cx="10.0279" cy="5.03267" r="0.5" fill="rgb(0,0,0)" />
<circle cx="17.8747" cy="14.5699" r="0.5" fill="rgb(0,0,0)" />
<circle cx="11.7121" cy="4.07346" r="0.5" fill="rgb(0,0,0)" />
<circle cx="9.49217" cy="8.53806" r="0.5" fill="rgb(0,0,0)" />
<circle cx="15.4062" cy="16.316" r="0.5" fill="rgb(0,0,0)" />
<circle cx="12.1866" cy="16.4894" r="0.5" fill="rgb(0,0,0)" />
<circle cx="6.92428" cy="16.298" r="0.5" fill="rgb(0,0,0)" />
<circle cx="7.38421" cy="8.59785" r="0.5" fill="rgb(0,0,0)" />
<circle cx="13.7931" cy="17.0433" r="0.5" fill="rgb(0,0,0)" />
<circle cx="13.8795" cy="8.69122" r="0.5" fill="rgb(0,0,0)" />
<circle cx="2.83764" cy="16.5772" r="0.5" fill="rgb(0,0,0)" />
<circle cx="16.5719" cy="16.7396" r="0.5" fill="rgb(0,0,0)" />
<circle cx="5.7418" cy="17.2787" r="0.5" fill="rgb(0,0,0)" />
<circle cx="15.2859" cy="17.7527" r="0.5" fill="rgb(0,0,0)" />
<circle cx="15.4249" cy="2.46721" r="0.5" fill="rgb(0,0,0)" />
<circle cx="17.2035" cy="17.8716" r="0.5" fill="rgb(0,0,0)" />
<circle cx="17.2754" cy="3.77081" r="0.5" fill="rgb(0,0,0)" />
<circle cx="1.5562" cy="17.5795" r="0.5" fill="rgb(0,0,0)" />
<circle cx="6.41651" cy="10.6075" r="0.5" fill="rgb(0,0,0)" />
<circle cx="10.3063" cy="12.6451" r="0.5" fill="rgb(0,0,0)" />
<circle cx="16.3249" cy="14.3467" r="0.5" fill="rgb(0,0,0)" />
<circle cx="4.36307" cy="17.5952" r="0.5" fill="rgb(0,0,0)" />
<circle cx="2.68896" cy="4.90496" r="0.5" fill="rgb(0,0,0)" />
<circle cx="8.6248" cy="17.4913" r="0.5" fill="rgb(0,0,0)" />
<circle cx="16.5075" cy="2.09732" r="0.5" fill="rgb(0,0,0)" />
<circle cx="8.94442" cy="2.02715" r="0.5" fill="rgb(0,0,0)" />
<circle cx="14.3205" cy="13.5738" r="0.5" fill="rgb(0,0,0)" />
<circle cx="18.1921" cy="6.50095" r="0.5" fill="rgb(0,0,0)" />
<circle cx="4.75131" cy="14.3651" r="0.5" fill="rgb(0,0,0)" />
<circle cx="10.1494" cy="17.468" r="0.5" fill="rgb(0,0,0)" />
<circle cx="11.7344" cy="17.9822" r="0.5" fill="rgb(0,0,0)" />
<circle cx="7.06298" cy="1.99419" r="0.5" fill="rgb(0,0,0)" />
<circle cx="12.9031" cy="18.3674" r="0.5" fill="rgb(0,0,0)" />
<circle cx="14.7968" cy="0.737187" r="0.5" fill="rgb(0,0,0)" />
<circle cx="15.9743" cy="18.5146" r="0.5" fill="rgb(0,0,0)" />
<circle cx="17.8317" cy="12.3983" r="0.5" fill="rgb(0,0,0)" />
<circle cx="1.1633" cy="11.486" r="0.5" fill="rgb(0,0,0)" />
<circle cx="0.49827" cy="6.32155" r="0.5" fill="rgb(0,0,0)" />
<circle cx="2.57742" cy="8.03891" r="0.5" fill="rgb(0,0,0)" />
<circle cx="18.299" cy="4.88233" r="0.5" fill="rgb(0,0,0)" />
<circle cx="0.660304" cy="4.07069" r="0.5" fill="rgb(0,0,0)" />
<circle cx="1.03273" cy="13.2969" r="0.5" fill="rgb(0,0,0)" />
<circle cx="17.9796" cy="10.1419" r="0.5" fill="rgb(0,0,0)" />
<circle cx="18.1152" cy="8.27602" r="0.5" fill="rgb(0,0,0)" />
<circle cx="16.0413" cy="8.59885" r="0.5" fill="rgb(0,0,0)" />
<circle cx="3.11025" cy="18.3844" r="0.5" fill="rgb(0,0,0)" />
<circle cx="7.64473" cy="18.3149" r="0.5" fill="rgb(0,0,0)" />
<circle cx="6.08147" cy="18.3234" r="0.5" fill="rgb(0,0,0)" />
<circle cx="18.1555" cy="15.9621" r="0.5" fill="rgb(0,0,0)" />
<circle cx="0.549935" cy="18.1456" r="0.5" fill="rgb(0,0,0)" />
<circle cx="14.1817" cy="18.2888" r="0.5" fill="rgb(0,0,0)" />
<circle cx="0.802201" cy="15.6916" r="0.5" fill="rgb(0,0,0)" />
<circle cx="0.643426" cy="1.15646" r="0.5" fill="rgb(0,0,0)" />
<circle cx="18.2306" cy="3.09594" r="0.5" fill="rgb(0,0,0)" />
<circle cx="2.7579" cy="0.670665" r="0.5" fill="rgb(0,0,0)" />
<circle cx="18.1547" cy="18.5124" r="0.5" fill="rgb(0,0,0)" />
<circle cx="14.4435" cy="7.05184" r="0.5" fill="rgb(0,0,0)" />
<circle cx="5.43373" cy="7.5628" r="0.5" fill="rgb(0,0,0)" />
<circle cx="18.3825" cy="17.3083" r="0.5" fill="rgb(0,0,0)" />
</svg>
