<?xml version="1.0" ?>
<!DOCTYPE svg PUBLIC "-//W3C//DTD SVG 1.1//EN" "http://www.w3.org/Graphics/SVG/1.1/DTD/svg11.dtd">
<svg width="20" height="20" version="1.1" xmlns="http://www.w3.org/2000/svg">
<circle cx="7.58992" cy="0.187645" r="0.5" fill="rgb(0,0,0)" />
<circle cx="6.71446" cy="0.303399" r="0.5" fill="rgb(0,0,0)" />
<circle cx="10.3595" cy="0.298036" r="0.5" fill="rgb(0,0,0)" />
<circle cx="5.7423" cy="0.369383" r="0.5" fill="rgb(0,0,0)" />
<circle cx="17.1328" cy="0.430741" r="0.5" fill="rgb(0,0,0)" />
<circle cx="4.38036" cy="0.479186" r="0.5" fill="rgb(0,0,0)" />
<circle cx="14.9903" cy="0.763073" r="0.5" fill="rgb(0,0,0)" />
<circle cx="13.2928" cy="1.08202" r="0.5" fill="rgb(0,0,0)" />
<circle cx="17.8894" cy="1.09928" r="0.5" fill="rgb(0,0,0)" />
<circle cx="11.2305" cy="0.660424" r="0.5" fill="rgb(0,0,0)" />
<circle cx="9.34901" cy="0.538003" r="0.5" fill="rgb(0,0,0)" />
<circle cx="16.007" cy="0.756056" r="0.5" fill="rgb(0,0,0)" />
<circle cx="13.4537" cy="1.65498" r="0.5" fill="rgb(0,0,0)" />
<circle cx="5.53119" cy="1.29393" r="0.5" fill="rgb(0,0,0)" />
<circle cx="6.75325" cy="1.25063" r="0.5" fill="rgb(0,0,0)" />
<circle cx="1.78095" cy="1.27929" r="0.5" fill="rgb(0,0,0)" />
<circle cx="11.9921" cy="1.68878" r="0.5" fill="rgb(0,0,0)" />
<circle cx="4.57528" cy="1.56561" r="0.5" fill="rgb(0,0,0)" />
<circle cx="6.35851" cy="1.84372" r="0.5" fill="rgb(0,0,0)" />
<circle cx="7.84302" cy="1.74027" r="0.5" fill="rgb(0,0,0)" />
<circle cx="3.25917" cy="1.59266" r="0.5" fill="rgb(0,0,0)" />
<circle cx="13.5074" cy="2.35791" r="0.5" fill="rgb(0,0,0)" />
<circle cx="14.2761" cy="2.22531" r="0.5" fill="rgb(0,0,0)" />
<circle cx="5.72301" cy="2.35295" r="0.5" fill="rgb(0,0,0)" />
<circle cx="16.6747" cy="2.28906" r="0.5" fill="rgb(0,0,0)" />
<circle cx="12.5454" cy="2.30686" r="0.5" fill="rgb(0,0,0)" />
<circle cx="12.5273" cy="0.369343" r="0.5" fill="rgb(0,0,0)" />
<circle cx="13.0699" cy="2.78833" r="0.5" fill="rgb(0,0,0)" />
<circle cx="7.66553" cy="2.67328" r="0.5" fill="rgb(0,0,0)" />
<circle cx="17.9578" cy="2.60808" r="0.5" fill="rgb(0,0,0)" />
<circle cx="6.75638" cy="2.75449" r="0.5" fill="rgb(0,0,0)" />
<circle cx="15.8886" cy="2.29289" r="0.5" fill="rgb(0,0,0)" />
<circle cx="8.68321" cy="2.79811" r="0.5" fill="rgb(0,0,0)" />
<circle cx="12.0012" cy="0.791493" r="0.5" fill="rgb(0,0,0)" />
<circle cx="13.7134" cy="3.31098" r="0.5" fill="rgb(0,0,0)" />
<circle cx="2.33464" cy="3.1199" r="0.5" fill="rgb(0,0,0)" />
<circle cx="9.70284" cy="3.45595" r="0.5" fill="rgb(0,0,0)" />
<circle cx="16.69" cy="3.38887" r="0.5" fill="rgb(0,0,0)" />
<circle cx="4.40893" cy="3.58012" r="0.5" fill="rgb(0,0,0)" />
<circle cx="7.54104" cy="0.896894" r="0.5" fill="rgb(0,0,0)" />
<circle cx="5.29775" cy="3.65337" r="0.5" fill="rgb(0,0,0)" />
<circle cx="15.4497" cy="3.75997" r="0.5" fill="rgb(0,0,0)" />
<circle cx="1.53742" cy="3.70062" r="0.5" fill="rgb(0,0,0)" />
<circle cx="6.4297" cy="3.84356" r="0.5" fill="rgb(0,0,0)" />
<circle cx="8.32463" cy="3.74161" r="0.5" fill="rgb(0,0,0)" />
<circle cx="13.7103" cy="4.15142" r="0.5" fill="rgb(0,0,0)" />
<circle cx="14.5676" cy="4.19917" r="0.5" fill="rgb(0,0,0)" />
<circle cx="2.78982" cy="4.01685" r="0.5" fill="rgb(0,0,0)" />
<circle cx="9.92128" cy="4.44753" r="0.5" fill="rgb(0,0,0)" />
<circle cx="12.6702" cy="3.58579" r="0.5" fill="rgb(0,0,0)" />
<circle cx="16.7164" cy="4.41981" r="0.5" fill="rgb(0,0,0)" />
<circle cx="6.80853" cy="4.5942" r="0.5" fill="rgb(0,0,0)" />
<circle cx="10.6469" cy="3.98864" r="0.5" fill="rgb(0,0,0)" />
<circle cx="5.50752" cy="4.54548" r="0.5" fill="rgb(0,0,0)" />
<circle cx="1.26174" cy="4.79744" r="0.5" fill="rgb(0,0,0)" />
<circle cx="12.0545" cy="4.75511" r="0.5" fill="rgb(0,0,0)" />
<circle cx="9.16836" cy="5.0077" r="0.5" fill="rgb(0,0,0)" />
<circle cx="2.26106" cy="4.86275" r="0.5" fill="rgb(0,0,0)" />
<circle cx="7.98229" cy="4.91061" r="0.5" fill="rgb(0,0,0)" />
<circle cx="16.3416" cy="5.29881" r="0.5" fill="rgb(0,0,0)" />
<circle cx="4.53654" cy="5.34982" r="0.5" fill="rgb(0,0,0)" />
<circle cx="10.2514" cy="5.22677" r="0.5" fill="rgb(0,0,0)" />
<circle cx="0.518874" cy="3.52853" r="0.5" fill="rgb(0,0,0)" />
<circle cx="13.9948" cy="5.15491" r="0.5" fill="rgb(0,0,0)" />
<circle cx="3.12315" cy="5.45478" r="0.5" fill="rgb(0,0,0)" />
<circle cx="10.7435" cy="5.74606" r="0.5" fill="rgb(0,0,0)" />
<circle cx="1.30302" cy="5.83048" r="0.5" fill="rgb(0,0,0)" />
<circle cx="10.6121" cy="2.61" r="0.5" fill="rgb(0,0,0)" />
<circle cx="7.55846" cy="6.09323" r="0.5" fill="rgb(0,0,0)" />
<circle cx="17.6364" cy="3.9192" r="0.5" fill="rgb(0,0,0)" />
<circle cx="11.6272" cy="5.71059" r="0.5" fill="rgb(0,0,0)" />
<circle cx="5.88703" cy="5.12089" r="0.5" fill="rgb(0,0,0)" />
<circle cx="10.4844" cy="6.54205" r="0.5" fill="rgb(0,0,0)" />
<circle cx="6.01507" cy="6.52684" r="0.5" fill="rgb(0,0,0)" />
<circle cx="3.79809" cy="6.31966" r="0.5" fill="rgb(0,0,0)" />
<circle cx="17.0167" cy="6.63574" r="0.5" fill="rgb(0,0,0)" />
<circle cx="8.53946" cy="6.87517" r="0.5" fill="rgb(0,0,0)" />
<circle cx="15.6732" cy="6.07115" r="0.5" fill="rgb(0,0,0)" />
<circle cx="7.68096" cy="7.17545" r="0.5" fill="rgb(0,0,0)" />
<circle cx="4.75343" cy="4.3867" r="0.5" fill="rgb(0,0,0)" />
<circle cx="14.6327" cy="6.9286" r="0.5" fill="rgb(0,0,0)" />
<circle cx="1.57758" cy="7.17795" r="0.5" fill="rgb(0,0,0)" />
<circle cx="13.6307" cy="6.96684" r="0.5" fill="rgb(0,0,0)" />
<circle cx="18.0784" cy="7.11459" r="0.5" fill="rgb(0,0,0)" />
<circle cx="4.15658" cy="2.47997" r="0.5" fill="rgb(0,0,0)" />
<circle cx="5.38023" cy="7.40622" r="0.5" fill="rgb(0,0,0)" />
<circle cx="12.4187" cy="7.08854" r="0.5" fill="rgb(0,0,0)" />
<circle cx="6.61573" cy="7.61949" r="0.5" fill="rgb(0,0,0)" />
<circle cx="1.84494" cy="2.41305" r="0.5" fill="rgb(0,0,0)" />
<circle cx="4.29357" cy="7.36586" r="0.5" fill="rgb(0,0,0)" />
<circle cx="10.1774" cy="7.49667" r="0.5" fill="rgb(0,0,0)" />
<circle cx="9.19149" cy="1.7182" r="0.5" fill="rgb(0,0,0)" />
<circle cx="11.2431" cy="7.34686" r="0.5" fill="rgb(0,0,0)" />
<circle cx="7.34755" cy="8.10889" r="0.5" fill="rgb(0,0,0)" />
<circle cx="8.49994" cy="8.05638" r="0.5" fill="rgb(0,0,0)" />
<circle cx="17.0829" cy="7.764" r="0.5" fill="rgb(0,0,0)" />
<circle cx="9.31289" cy="8.02944" r="0.5" fill="rgb(0,0,0)" />
<circle cx="1.9419" cy="8.34146" r="0.5" fill="rgb(0,0,0)" />
<circle cx="2.82401" cy="8.44531" r="0.5" fill="rgb(0,0,0)" />
<circle cx="14.7615" cy="8.17765" r="0.5" fill="rgb(0,0,0)" />
<circle cx="3.80139" cy="4.52844" r="0.5" fill="rgb(0,0,0)" />
<circle cx="16.9923" cy="5.78943" r="0.5" fill="rgb(0,0,0)" />
<circle cx="16.187" cy="8.30078" r="0.5" fill="rgb(0,0,0)" />
<circle cx="3.60104" cy="3.54926" r="0.5" fill="rgb(0,0,0)" />
<circle cx="4.09688" cy="8.61746" r="0.5" fill="rgb(0,0,0)" />
<circle cx="8.38379" cy="0.618591" r="0.5" fill="rgb(0,0,0)" />
<circle cx="5.10515" cy="8.53744" r="0.5" fill="rgb(0,0,0)" />
<circle cx="10.2264" cy="8.52935" r="0.5" fill="rgb(0,0,0)" />
<circle cx="8.11201" cy="8.73801" r="0.5" fill="rgb(0,0,0)" />
<circle cx="13.53" cy="0.31662" r="0.5" fill="rgb(0,0,0)" />
<circle cx="7.32425" cy="9.03414" r="0.5" fill="rgb(0,0,0)" />
<circle cx="2.46665" cy="9.28483" r="0.5" fill="rgb(0,0,0)" />
<circle cx="6.19337" cy="9.11242" r="0.5" fill="rgb(0,0,0)" />
<circle cx="13.9106" cy="9.07791" r="0.5" fill="rgb(0,0,0)" />
<circle cx="12.5187" cy="8.98186" r="0.5" fill="rgb(0,0,0)" />
<circle cx="3.42727" cy="9.39689" r="0.5" fill="rgb(0,0,0)" />
<circle cx="1.4181" cy="9.23501" r="0.5" fill="rgb(0,0,0)" />
<circle cx="17.0644" cy="9.17764" r="0.5" fill="rgb(0,0,0)" />
<circle cx="7.25283" cy="9.81058" r="0.5" fill="rgb(0,0,0)" />
<circle cx="11.1241" cy="9.27612" r="0.5" fill="rgb(0,0,0)" />
<circle cx="1.07995" cy="7.92806" r="0.5" fill="rgb(0,0,0)" />
<circle cx="15.9602" cy="9.62105" r="0.5" fill="rgb(0,0,0)" />
<circle cx="9.13718" cy="9.88716" r="0.5" fill="rgb(0,0,0)" />
<circle cx="9.84525" cy="9.40183" r="0.5" fill="rgb(0,0,0)" />
<circle cx="14.6879" cy="9.85042" r="0.5" fill="rgb(0,0,0)" />
<circle cx="6.09757" cy="8.17412" r="0.5" fill="rgb(0,0,0)" />
<circle cx="12.9087" cy="9.8283" r="0.5" fill="rgb(0,0,0)" />
<circle cx="4.42854" cy="10.2988" r="0.5" fill="rgb(0,0,0)" />
<circle cx="2.77226" cy="9.97067" r="0.5" fill="rgb(0,0,0)" />
<circle cx="1.8199" cy="10.1697" r="0.5" fill="rgb(0,0,0)" />
<circle cx="3.29314" cy="10.5357" r="0.5" fill="rgb(0,0,0)" />
<circle cx="5.53257" cy="10.417" r="0.5" fill="rgb(0,0,0)" />
<circle cx="6.87624" cy="10.4136" r="0.5" fill="rgb(0,0,0)" />
<circle cx="7.45684" cy="10.8396" r="0.5" fill="rgb(0,0,0)" />
<circle cx="17.1307" cy="10.5035" r="0.5" fill="rgb(0,0,0)" />
<circle cx="15.7359" cy="10.6498" r="0.5" fill="rgb(0,0,0)" />
<circle cx="9.60679" cy="10.6781" r="0.5" fill="rgb(0,0,0)" />
<circle cx="15.2925" cy="2.60129" r="0.5" fill="rgb(0,0,0)" />
<circle cx="11.9629" cy="10.4793" r="0.5" fill="rgb(0,0,0)" />
<circle cx="1.25201" cy="11.0746" r="0.5" fill="rgb(0,0,0)" />
<circle cx="2.78462" cy="7.00028" r="0.5" fill="rgb(0,0,0)" />
<circle cx="3.43354" cy="7.87328" r="0.5" fill="rgb(0,0,0)" />
<circle cx="14.87" cy="11.3942" r="0.5" fill="rgb(0,0,0)" />
<circle cx="14.0317" cy="11.1155" r="0.5" fill="rgb(0,0,0)" />
<circle cx="3.73153" cy="11.4563" r="0.5" fill="rgb(0,0,0)" />
<circle cx="10.8451" cy="10.9086" r="0.5" fill="rgb(0,0,0)" />
<circle cx="6.01467" cy="11.5199" r="0.5" fill="rgb(0,0,0)" />
<circle cx="14.6195" cy="1.43011" r="0.5" fill="rgb(0,0,0)" />
<circle cx="11.6135" cy="3.85988" r="0.5" fill="rgb(0,0,0)" />
<circle cx="2.33099" cy="11.5091" r="0.5" fill="rgb(0,0,0)" />
<circle cx="7.21345" cy="11.8037" r="0.5" fill="rgb(0,0,0)" />
<circle cx="3.17371" cy="2.79155" r="0.5" fill="rgb(0,0,0)" />
<circle cx="9.33917" cy="11.8592" r="0.5" fill="rgb(0,0,0)" />
<circle cx="16.7371" cy="11.7924" r="0.5" fill="rgb(0,0,0)" />
<circle cx="15.7976" cy="12.1052" r="0.5" fill="rgb(0,0,0)" />
<circle cx="3.30749" cy="12.4149" r="0.5" fill="rgb(0,0,0)" />
<circle cx="8.53315" cy="10.8148" r="0.5" fill="rgb(0,0,0)" />
<circle cx="6.71325" cy="12.5835" r="0.5" fill="rgb(0,0,0)" />
<circle cx="10.3633" cy="12.2071" r="0.5" fill="rgb(0,0,0)" />
<circle cx="13.4299" cy="12.6586" r="0.5" fill="rgb(0,0,0)" />
<circle cx="8.12585" cy="11.514" r="0.5" fill="rgb(0,0,0)" />
<circle cx="8.32054" cy="13.0241" r="0.5" fill="rgb(0,0,0)" />
<circle cx="11.0603" cy="12.9488" r="0.5" fill="rgb(0,0,0)" />
<circle cx="1.45699" cy="12.7801" r="0.5" fill="rgb(0,0,0)" />
<circle cx="15.1239" cy="13.5358" r="0.5" fill="rgb(0,0,0)" />
<circle cx="10.4297" cy="1.45386" r="0.5" fill="rgb(0,0,0)" />
<circle cx="3.86654" cy="13.4391" r="0.5" fill="rgb(0,0,0)" />
<circle cx="6.21576" cy="13.3216" r="0.5" fill="rgb(0,0,0)" />
<circle cx="2.50371" cy="13.3639" r="0.5" fill="rgb(0,0,0)" />
<circle cx="9.36493" cy="13.4751" r="0.5" fill="rgb(0,0,0)" />
<circle cx="4.81397" cy="13.8348" r="0.5" fill="rgb(0,0,0)" />
<circle cx="14.6207" cy="0.206488" r="0.5" fill="rgb(0,0,0)" />
<circle cx="13.4772" cy="13.9942" r="0.5" fill="rgb(0,0,0)" />
<circle cx="6.68819" cy="6.81989" r="0.5" fill="rgb(0,0,0)" />
<circle cx="7.44977" cy="13.8011" r="0.5" fill="rgb(0,0,0)" />
<circle cx="5.8637" cy="14.1961" r="0.5" fill="rgb(0,0,0)" />
<circle cx="14.3771" cy="14.3088" r="0.5" fill="rgb(0,0,0)" />
<circle cx="15.5537" cy="14.4945" r="0.5" fill="rgb(0,0,0)" />
<circle cx="11.6195" cy="2.64265" r="0.5" fill="rgb(0,0,0)" />
<circle cx="8.11166" cy="9.91892" r="0.5" fill="rgb(0,0,0)" />
<circle cx="12.3124" cy="13.1468" r="0.5" fill="rgb(0,0,0)" />
<circle cx="17.6932" cy="13.5777" r="0.5" fill="rgb(0,0,0)" />
<circle cx="8.4487" cy="14.3646" r="0.5" fill="rgb(0,0,0)" />
<circle cx="10.0632" cy="14.2695" r="0.5" fill="rgb(0,0,0)" />
<circle cx="16.976" cy="14.2665" r="0.5" fill="rgb(0,0,0)" />
<circle cx="5.94206" cy="3.27472" r="0.5" fill="rgb(0,0,0)" />
<circle cx="8.85316" cy="5.83435" r="0.5" fill="rgb(0,0,0)" />
<circle cx="11.094" cy="14.2354" r="0.5" fill="rgb(0,0,0)" />
<circle cx="3.10721" cy="14.5229" r="0.5" fill="rgb(0,0,0)" />
<circle cx="4.89857" cy="14.9048" r="0.5" fill="rgb(0,0,0)" />
<circle cx="12.511" cy="14.3837" r="0.5" fill="rgb(0,0,0)" />
<circle cx="1.62733" cy="14.3793" r="0.5" fill="rgb(0,0,0)" />
<circle cx="13.4873" cy="15.0486" r="0.5" fill="rgb(0,0,0)" />
<circle cx="4.00104" cy="14.8839" r="0.5" fill="rgb(0,0,0)" />
<circle cx="4.69942" cy="11.1637" r="0.5" fill="rgb(0,0,0)" />
<circle cx="5.63087" cy="15.3133" r="0.5" fill="rgb(0,0,0)" />
<circle cx="17.9755" cy="14.8026" r="0.5" fill="rgb(0,0,0)" />
<circle cx="9.07606" cy="15.07" r="0.5" fill="rgb(0,0,0)" />
<circle cx="6.57693" cy="15.0468" r="0.5" fill="rgb(0,0,0)" />
<circle cx="8.28633" cy="12.2086" r="0.5" fill="rgb(0,0,0)" />
<circle cx="15.0599" cy="15.3286" r="0.5" fill="rgb(0,0,0)" />
<circle cx="2.28495" cy="15.4075" r="0.5" fill="rgb(0,0,0)" />
<circle cx="15.8593" cy="4.46306" r="0.5" fill="rgb(0,0,0)" />
<circle cx="8.68167" cy="9.2302" r="0.5" fill="rgb(0,0,0)" />
<circle cx="5.68472" cy="16.0451" r="0.5" fill="rgb(0,0,0)" />
<circle cx="17.1883" cy="1.75577" r="0.5" fill="rgb(0,0,0)" />
<circle cx="11.8461" cy="8.21365" r="0.5" fill="rgb(0,0,0)" />
<circle cx="4.72064" cy="15.8023" r="0.5" fill="rgb(0,0,0)" />
<circle cx="4.97911" cy="6.32177" r="0.5" fill="rgb(0,0,0)" />
<circle cx="14.2478" cy="15.7357" r="0.5" fill="rgb(0,0,0)" />
<circle cx="3.2749" cy="15.8071" r="0.5" fill="rgb(0,0,0)" />
<circle cx="10.1726" cy="15.6838" r="0.5" fill="rgb(0,0,0)" />
<circle cx="13.2588" cy="15.8484" r="0.5" fill="rgb(0,0,0)" />
<circle cx="1.32695" cy="16.4482" r="0.5" fill="rgb(0,0,0)" />
<circle cx="18.3074" cy="5.65182" r="0.5" fill="rgb(0,0,0)" />
<circle cx="12.6304" cy="16.5107" r="0.5" fill="rgb(0,0,0)" />
<circle cx="8.82459" cy="16.2295" r="0.5" fill="rgb(0,0,0)" />
<circle cx="17.4901" cy="4.97034" r="0.5" fill="rgb(0,0,0)" />
<circle cx="11.4975" cy="14.9521" r="0.5" fill="rgb(0,0,0)" />
<circle cx="3.95155" cy="16.1592" r="0.5" fill="rgb(0,0,0)" />
<circle cx="6.54767" cy="16.4864" r="0.5" fill="rgb(0,0,0)" />
<circle cx="17.5027" cy="12.4942" r="0.5" fill="rgb(0,0,0)" />
<circle cx="17.231" cy="16.1812" r="0.5" fill="rgb(0,0,0)" />
<circle cx="2.01287" cy="16.5519" r="0.5" fill="rgb(0,0,0)" />
<circle cx="14.4582" cy="5.87156" r="0.5" fill="rgb(0,0,0)" />
<circle cx="11.0825" cy="16.5306" r="0.5" fill="rgb(0,0,0)" />
<circle cx="16.2484" cy="13.4138" r="0.5" fill="rgb(0,0,0)" />
<circle cx="15.1503" cy="16.4616" r="0.5" fill="rgb(0,0,0)" />
<circle cx="1.314" cy="17.2967" r="0.5" fill="rgb(0,0,0)" />
<circle cx="12.5084" cy="11.7327" r="0.5" fill="rgb(0,0,0)" />
<circle cx="14.2133" cy="16.9502" r="0.5" fill="rgb(0,0,0)" />
<circle cx="13.1304" cy="4.75699" r="0.5" fill="rgb(0,0,0)" />
<circle cx="4.06748" cy="9.61314" r="0.5" fill="rgb(0,0,0)" />
<circle cx="4.38851" cy="16.8061" r="0.5" fill="rgb(0,0,0)" />
<circle cx="6.27435" cy="10.2268" r="0.5" fill="rgb(0,0,0)" />
<circle cx="9.95035" cy="17.1512" r="0.5" fill="rgb(0,0,0)" />
<circle cx="6.83605" cy="5.52393" r="0.5" fill="rgb(0,0,0)" />
<circle cx="5.06346" cy="9.53327" r="0.5" fill="rgb(0,0,0)" />
<circle cx="15.866" cy="17.0312" r="0.5" fill="rgb(0,0,0)" />
<circle cx="1.96417" cy="17.7331" r="0.5" fill="rgb(0,0,0)" />
<circle cx="15.3299" cy="8.93772" r="0.5" fill="rgb(0,0,0)" />
<circle cx="12.551" cy="17.5183" r="0.5" fill="rgb(0,0,0)" />
<circle cx="13.3732" cy="17.3859" r="0.5" fill="rgb(0,0,0)" />
<circle cx="7.75533" cy="17.1453" r="0.5" fill="rgb(0,0,0)" />
<circle cx="5.84014" cy="17.4131" r="0.5" fill="rgb(0,0,0)" />
<circle cx="1.21234" cy="17.8894" r="0.5" fill="rgb(0,0,0)" />
<circle cx="11.7048" cy="17.4509" r="0.5" fill="rgb(0,0,0)" />
<circle cx="12.9244" cy="5.91915" r="0.5" fill="rgb(0,0,0)" />
<circle cx="2.81664" cy="17.7037" r="0.5" fill="rgb(0,0,0)" />
<circle cx="10.8684" cy="17.8497" r="0.5" fill="rgb(0,0,0)" />
<circle cx="18.337" cy="17.0456" r="0.5" fill="rgb(0,0,0)" />
<circle cx="18.4601" cy="15.7158" r="0.5" fill="rgb(0,0,0)" />
<circle cx="6.7615" cy="17.7125" r="0.5" fill="rgb(0,0,0)" />
<circle cx="15.4451" cy="17.9574" r="0.5" fill="rgb(0,0,0)" />
<circle cx="2.05908" cy="6.26492" r="0.5" fill="rgb(0,0,0)" />
<circle cx="17.6056" cy="17.9488" r="0.5" fill="rgb(0,0,0)" />
<circle cx="14.4126" cy="17.941" r="0.5" fill="rgb(0,0,0)" />
<circle cx="4.87525" cy="17.7274" r="0.5" fill="rgb(0,0,0)" />
<circle cx="4.97171" cy="12.3994" r="0.5" fill="rgb(0,0,0)" />
<circle cx="8.39172" cy="18.1469" r="0.5" fill="rgb(0,0,0)" />
<circle cx="9.63858" cy="2.56179" r="0.5" fill="rgb(0,0,0)" />
<circle cx="18.7568" cy="18.1487" r="0.5" fill="rgb(0,0,0)" />
<circle cx="18.5047" cy="1.79804" r="0.5" fill="rgb(0,0,0)" />
<circle cx="18.5036" cy="0.447157" r="0.5" fill="rgb(0,0,0)" />
<circle cx="15.7226" cy="7.18019" r="0.5" fill="rgb(0,0,0)" />
<circle cx="18.2967" cy="9.43172" r="0.5" fill="rgb(0,0,0)" />
<circle cx="16.2986" cy="15.3893" r="0.5" fill="rgb(0,0,0)" />
<circle cx="18.5458" cy="13.1337" r="0.5" fill="rgb(0,0,0)" />
<circle cx="18.2747" cy="11.2498" r="0.5" fill="rgb(0,0,0)" />
<circle cx="0.425338" cy="16.7083" r="0.5" fill="rgb(0,0,0)" />
<circle cx="16.854" cy="17.2615" r="0.5" fill="rgb(0,0,0)" />
<circle cx="18.4908" cy="4.52662" r="0.5" fill="rgb(0,0,0)" />
<circle cx="11.994" cy="15.6693" r="0.5" fill="rgb(0,0,0)" />
<circle cx="18.4778" cy="3.26986" r="0.5" fill="rgb(0,0,0)" />
<circle cx="17.8734" cy="18.7224" r="0.5" fill="rgb(0,0,0)" />
<circle cx="14.5777" cy="3.07013" r="0.5" fill="rgb(0,0,0)" />
<circle cx="13.5374" cy="10.3893" r="0.5" fill="rgb(0,0,0)" />
<circle cx="16.5675" cy="18.4277" r="0.5" fill="rgb(0,0,0)" />
<circle cx="15.091" cy="18.6635" r="0.5" fill="rgb(0,0,0)" />
<circle cx="7.70205" cy="15.126" r="0.5" fill="rgb(0,0,0)" />
<circle cx="5.52548" cy="16.7476" r="0.5" fill="rgb(0,0,0)" />
<circle cx="13.6576" cy="18.4878" r="0.5" fill="rgb(0,0,0)" />
<circle cx="9.06603" cy="4.11118" r="0.5" fill="rgb(0,0,0)" />
<circle cx="0.546682" cy="2.30193" r="0.5" fill="rgb(0,0,0)" />
<circle cx="0.461253" cy="11.6639" r="0.5" fill="rgb(0,0,0)" />
<circle cx="0.458309" cy="10.047" r="0.5" fill="rgb(0,0,0)" />
<circle cx="15.029" cy="4.88748" r="0.5" fill="rgb(0,0,0)" />
<circle cx="13.4345" cy="8.0856" r="0.5" fill="rgb(0,0,0)" />
<circle cx="14.9361" cy="12.4777" r="0.5" fill="rgb(0,0,0)" />
<circle cx="0.43555" cy="8.63082" r="0.5" fill="rgb(0,0,0)" />
<circle cx="0.455166" cy="14.5266" r="0.5" fill="rgb(0,0,0)" />
<circle cx="5.79182" cy="5.82842" r="0.5" fill="rgb(0,0,0)" />
<circle cx="0.420259" cy="13.1104" r="0.5" fill="rgb(0,0,0)" />
<circle cx="18.376" cy="8.10476" r="0.5" fill="rgb(0,0,0)" />
<circle cx="14.2646" cy="12.8905" r="0.5" fill="rgb(0,0,0)" />
<circle cx="18.5941" cy="6.50582" r="0.5" fill="rgb(0,0,0)" />
<circle cx="9.45119" cy="6.66348" r="0.5" fill="rgb(0,0,0)" />
<circle cx="9.85395" cy="18.4758" r="0.5" fill="rgb(0,0,0)" />
<circle cx="0.44829" cy="6.90387" r="0.5" fill="rgb(0,0,0)" />
<circle cx="3.31134" cy="18.4625" r="0.5" fill="rgb(0,0,0)" />
<circle cx="11.3722" cy="18.5602" r="0.5" fill="rgb(0,0,0)" />
<circle cx="12.5393" cy="18.5152" r="0.5" fill="rgb(0,0,0)" />
<circle cx="7.76191" cy="18.5875" r="0.5" fill="rgb(0,0,0)" />
<circle cx="6.0057" cy="18.5053" r="0.5" fill="rgb(0,0,0)" />
<circle cx="5.0242" cy="2.78509" r="0.5" fill="rgb(0,0,0)" />
<circle cx="0.357003" cy="5.49215" r="0.5" fill="rgb(0,0,0)" />
<circle cx="15.4937" cy="5.29384" r="0.5" fill="rgb(0,0,0)" />
<circle cx="0.771179" cy="15.608" r="0.5" fill="rgb(0,0,0)" />
<circle cx="0.410048" cy="4.35779" r="0.5" fill="rgb(0,0,0)" />
<circle cx="7.40029" cy="16.1224" r="0.5" fill="rgb(0,0,0)" />
<circle cx="4.24225" cy="18.2268" r="0.5" fill="rgb(0,0,0)" />
<circle cx="0.644612" cy="0.663549" r="0.5" fill="rgb(0,0,0)" />
<circle cx="18.401" cy="18.3714" r="0.5" fill="rgb(0,0,0)" />
<circle cx="2.66003" cy="0.4536" r="0.5" fill="rgb(0,0,0)" />
<circle cx="0.26175" cy="17.6854" r="0.5" fill="rgb(0,0,0)" />
<circle cx="9.01062" cy="17.5037" r="0.5" fill="rgb(0,0,0)" />
<circle cx="0.370208" cy="18.4662" r="0.5" fill="rgb(0,0,0)" />
<circle cx="7.42115" cy="3.7814" r="0.5" fill="rgb(0,0,0)" />
<circle cx="2.07064" cy="18.5958" r="0.5" fill="rgb(0,0,0)" />
<circle cx="2.98853" cy="16.7277" r="0.5" fill="rgb(0,0,0)" />
<circle cx="1.08677" cy="18.5811" r="0.5" fill="rgb(0,0,0)" />
</svg>
