<?xml version="1.0" ?>
<!DOCTYPE svg PUBLIC "-//W3C//DTD SVG 1.1//EN" "http://www.w3.org/Graphics/SVG/1.1/DTD/svg11.dtd">
<svg width="20" height="20" version="1.1" xmlns="http://www.w3.org/2000/svg">
<circle cx="8.46124" cy="1.43447" r="0.5" fill="rgb(0,0,0)" />
<circle cx="14.3118" cy="4.68783" r="0.5" fill="rgb(0,0,0)" />
<circle cx="10.8526" cy="4.06285" r="0.5" fill="rgb(0,0,0)" />
<circle cx="3.62261" cy="4.7658" r="0.5" fill="rgb(0,0,0)" />
<circle cx="8.2189" cy="6.08246" r="0.5" fill="rgb(0,0,0)" />
<circle cx="10.5151" cy="8.51785" r="0.5" fill="rgb(0,0,0)" />
<circle cx="13.4315" cy="10.9012" r="0.5" fill="rgb(0,0,0)" />
<circle cx="9.559" cy="12.3748" r="0.5" fill="rgb(0,0,0)" />
<circle cx="5.88789" cy="13.0627" r="0.5" fill="rgb(0,0,0)" />
<circle cx="14.791" cy="15.6181" r="0.5" fill="rgb(0,0,0)" />
<circle cx="2.03938" cy="12.9614" r="0.5" fill="rgb(0,0,0)" />
<circle cx="17.29" cy="6.75286" r="0.5" fill="rgb(0,0,0)" />
<circle cx="8.73254" cy="16.694" r="0.5" fill="rgb(0,0,0)" />
<circle cx="7.08183" cy="9.54021" r="0.5" fill="rgb(0,0,0)" />
<circle cx="17.3133" cy="10.5498" r="0.5" fill="rgb(0,0,0)" />
<circle cx="11.7869" cy="17.4539" r="0.5" fill="rgb(0,0,0)" />
<circle cx="4.26455" cy="8.43517" r="0.5" fill="rgb(0,0,0)" />
<circle cx="5.34854" cy="16.9451" r="0.5" fill="rgb(0,0,0)" />
<circle cx="15.5563" cy="13.0775" r="0.5" fill="rgb(0,0,0)" />
<circle cx="1.68435" cy="16.8891" r="0.5" fill="rgb(0,0,0)" />
<circle cx="4.5961" cy="1.3446" r="0.5" fill="rgb(0,0,0)" />
<circle cx="6.24647" cy="4.13591" r="0.5" fill="rgb(0,0,0)" />
<circle cx="1.38792" cy="1.68265" r="0.5" fill="rgb(0,0,0)" />
<circle cx="1.35111" cy="9.3769" r="0.5" fill="rgb(0,0,0)" />
<circle cx="1.17383" cy="5.57609" r="0.5" fill="rgb(0,0,0)" />
<circle cx="14.7563" cy="17.9452" r="0.5" fill="rgb(0,0,0)" />
<circle cx="17.5694" cy="17.5447" r="0.5" fill="rgb(0,0,0)" />
<circle cx="17.7623" cy="14.5731" r="0.5" fill="rgb(0,0,0)" />
<circle cx="17.8315" cy="2.53564" r="0.5" fill="rgb(0,0,0)" />
<circle cx="15.6585" cy="1.53267" r="0.5" fill="rgb(0,0,0)" />
<circle cx="13.7188" cy="7.71722" r="0.5" fill="rgb(0,0,0)" />
<circle cx="12.0303" cy="14.213" r="0.5" fill="rgb(0,0,0)" />
<circle cx="12.5282" cy="1.32417" r="0.5" fill="rgb(0,0,0)" />
</svg>
