<?xml version="1.0" ?>
<!DOCTYPE svg PUBLIC "-//W3C//DTD SVG 1.1//EN" "http://www.w3.org/Graphics/SVG/1.1/DTD/svg11.dtd">
<svg width="20" height="20" version="1.1" xmlns="http://www.w3.org/2000/svg">
<circle cx="16.4251" cy="1.26089" r="0.5" fill="rgb(0,0,0)" />
<circle cx="10.3534" cy="0.873212" r="0.5" fill="rgb(0,0,0)" />
<circle cx="7.06603" cy="1.09518" r="0.5" fill="rgb(0,0,0)" />
<circle cx="15.5772" cy="2.61467" r="0.5" fill="rgb(0,0,0)" />
<circle cx="12.1976" cy="1.75371" r="0.5" fill="rgb(0,0,0)" />
<circle cx="13.7286" cy="2.87944" r="0.5" fill="rgb(0,0,0)" />
<circle cx="17.2454" cy="3.77226" r="0.5" fill="rgb(0,0,0)" />
<circle cx="14.978" cy="4.16311" r="0.5" fill="rgb(0,0,0)" />
<circle cx="9.17507" cy="3.13274" r="0.5" fill="rgb(0,0,0)" />
<circle cx="5.74144" cy="3.3371" r="0.5" fill="rgb(0,0,0)" />
<circle cx="11.7298" cy="4.34507" r="0.5" fill="rgb(0,0,0)" />
<circle cx="3.38642" cy="3.88753" r="0.5" fill="rgb(0,0,0)" />
<circle cx="16.2837" cy="5.17603" r="0.5" fill="rgb(0,0,0)" />
<circle cx="7.00558" cy="5.29046" r="0.5" fill="rgb(0,0,0)" />
<circle cx="4.04182" cy="6.90389" r="0.5" fill="rgb(0,0,0)" />
<circle cx="14.94" cy="8.01976" r="0.5" fill="rgb(0,0,0)" />
<circle cx="13.0243" cy="9.01139" r="0.5" fill="rgb(0,0,0)" />
<circle cx="9.24513" cy="9.2295" r="0.5" fill="rgb(0,0,0)" />
<circle cx="14.3229" cy="0.709777" r="0.5" fill="rgb(0,0,0)" />
<circle cx="17.0339" cy="9.98776" r="0.5" fill="rgb(0,0,0)" />
<circle cx="2.8579" cy="9.72208" r="0.5" fill="rgb(0,0,0)" />
<circle cx="6.13388" cy="10.0299" r="0.5" fill="rgb(0,0,0)" />
<circle cx="14.3831" cy="10.8073" r="0.5" fill="rgb(0,0,0)" />
<circle cx="15.0231" cy="12.7209" r="0.5" fill="rgb(0,0,0)" />
<circle cx="7.41212" cy="12.2854" r="0.5" fill="rgb(0,0,0)" />
<circle cx="9.61755" cy="6.22609" r="0.5" fill="rgb(0,0,0)" />
<circle cx="6.81364" cy="7.73838" r="0.5" fill="rgb(0,0,0)" />
<circle cx="12.3811" cy="12.8963" r="0.5" fill="rgb(0,0,0)" />
<circle cx="11.2396" cy="10.5982" r="0.5" fill="rgb(0,0,0)" />
<circle cx="9.72955" cy="12.8931" r="0.5" fill="rgb(0,0,0)" />
<circle cx="16.6826" cy="14.1921" r="0.5" fill="rgb(0,0,0)" />
<circle cx="14.7203" cy="14.6565" r="0.5" fill="rgb(0,0,0)" />
<circle cx="11.9605" cy="7.10878" r="0.5" fill="rgb(0,0,0)" />
<circle cx="1.28888" cy="6.54686" r="0.5" fill="rgb(0,0,0)" />
<circle cx="4.64718" cy="14.3478" r="0.5" fill="rgb(0,0,0)" />
<circle cx="10.1387" cy="15.3195" r="0.5" fill="rgb(0,0,0)" />
<circle cx="12.4612" cy="15.1849" r="0.5" fill="rgb(0,0,0)" />
<circle cx="4.14071" cy="11.7601" r="0.5" fill="rgb(0,0,0)" />
<circle cx="13.9635" cy="16.2449" r="0.5" fill="rgb(0,0,0)" />
<circle cx="7.32847" cy="15.1368" r="0.5" fill="rgb(0,0,0)" />
<circle cx="16.1598" cy="16.3674" r="0.5" fill="rgb(0,0,0)" />
<circle cx="14.2356" cy="17.8753" r="0.5" fill="rgb(0,0,0)" />
<circle cx="12.7492" cy="18.0622" r="0.5" fill="rgb(0,0,0)" />
<circle cx="11.2377" cy="17.5351" r="0.5" fill="rgb(0,0,0)" />
<circle cx="2.04825" cy="15.508" r="0.5" fill="rgb(0,0,0)" />
<circle cx="17.7416" cy="12.1549" r="0.5" fill="rgb(0,0,0)" />
<circle cx="1.26055" cy="12.8875" r="0.5" fill="rgb(0,0,0)" />
<circle cx="17.9925" cy="8.11938" r="0.5" fill="rgb(0,0,0)" />
<circle cx="0.849481" cy="9.28351" r="0.5" fill="rgb(0,0,0)" />
<circle cx="1.0835" cy="4.07787" r="0.5" fill="rgb(0,0,0)" />
<circle cx="13.9455" cy="5.67346" r="0.5" fill="rgb(0,0,0)" />
<circle cx="9.03017" cy="17.6412" r="0.5" fill="rgb(0,0,0)" />
<circle cx="6.44878" cy="17.5901" r="0.5" fill="rgb(0,0,0)" />
<circle cx="18.1622" cy="5.57144" r="0.5" fill="rgb(0,0,0)" />
<circle cx="3.87659" cy="17.5896" r="0.5" fill="rgb(0,0,0)" />
<circle cx="1.01124" cy="17.5444" r="0.5" fill="rgb(0,0,0)" />
<circle cx="1.12169" cy="1.30245" r="0.5" fill="rgb(0,0,0)" />
<circle cx="18.1376" cy="15.0995" r="0.5" fill="rgb(0,0,0)" />
<circle cx="3.76157" cy="1.09558" r="0.5" fill="rgb(0,0,0)" />
<circle cx="15.6849" cy="18.1826" r="0.5" fill="rgb(0,0,0)" />
<circle cx="17.2033" cy="17.9883" r="0.5" fill="rgb(0,0,0)" />
<circle cx="18.3195" cy="17.5063" r="0.5" fill="rgb(0,0,0)" />
<circle cx="18.205" cy="2.66664" r="0.5" fill="rgb(0,0,0)" />
<circle cx="16.4156" cy="6.87452" r="0.5" fill="rgb(0,0,0)" />
<circle cx="17.9403" cy="0.712736" r="0.5" fill="rgb(0,0,0)" />
</svg>
