<?xml version="1.0" ?>
<!DOCTYPE svg PUBLIC "-//W3C//DTD SVG 1.1//EN" "http://www.w3.org/Graphics/SVG/1.1/DTD/svg11.dtd">
<svg width="20" height="20" version="1.1" xmlns="http://www.w3.org/2000/svg">
<circle cx="16.7745" cy="0.630049" r="0.5" fill="rgb(0,0,0)" />
<circle cx="12.5384" cy="0.604995" r="0.5" fill="rgb(0,0,0)" />
<circle cx="5.50768" cy="1.07505" r="0.5" fill="rgb(0,0,0)" />
<circle cx="1.98369" cy="2.01451" r="0.5" fill="rgb(0,0,0)" />
<circle cx="7.79866" cy="1.18709" r="0.5" fill="rgb(0,0,0)" />
<circle cx="18.0399" cy="1.85521" r="0.5" fill="rgb(0,0,0)" />
<circle cx="9.35963" cy="2.70834" r="0.5" fill="rgb(0,0,0)" />
<circle cx="2.16467" cy="3.44296" r="0.5" fill="rgb(0,0,0)" />
<circle cx="15.038" cy="3.85569" r="0.5" fill="rgb(0,0,0)" />
<circle cx="5.93905" cy="3.32516" r="0.5" fill="rgb(0,0,0)" />
<circle cx="3.96548" cy="2.80734" r="0.5" fill="rgb(0,0,0)" />
<circle cx="16.22" cy="4.27518" r="0.5" fill="rgb(0,0,0)" />
<circle cx="7.09111" cy="4.54106" r="0.5" fill="rgb(0,0,0)" />
<circle cx="14.8691" cy="5.24787" r="0.5" fill="rgb(0,0,0)" />
<circle cx="18.3488" cy="0.593373" r="0.5" fill="rgb(0,0,0)" />
<circle cx="2.70401" cy="4.90707" r="0.5" fill="rgb(0,0,0)" />
<circle cx="12.3719" cy="2.10698" r="0.5" fill="rgb(0,0,0)" />
<circle cx="14.1692" cy="2.46167" r="0.5" fill="rgb(0,0,0)" />
<circle cx="16.9597" cy="5.5332" r="0.5" fill="rgb(0,0,0)" />
<circle cx="13.2157" cy="3.61624" r="0.5" fill="rgb(0,0,0)" />
<circle cx="1.79581" cy="6.26076" r="0.5" fill="rgb(0,0,0)" />
<circle cx="15.7537" cy="6.33541" r="0.5" fill="rgb(0,0,0)" />
<circle cx="12.4573" cy="6.35379" r="0.5" fill="rgb(0,0,0)" />
<circle cx="6.40477" cy="6.41233" r="0.5" fill="rgb(0,0,0)" />
<circle cx="10.5809" cy="6.5059" r="0.5" fill="rgb(0,0,0)" />
<circle cx="14.4482" cy="7.05076" r="0.5" fill="rgb(0,0,0)" />
<circle cx="16.7851" cy="7.29153" r="0.5" fill="rgb(0,0,0)" />
<circle cx="5.45108" cy="7.57836" r="0.5" fill="rgb(0,0,0)" />
<circle cx="16.0412" cy="8.59967" r="0.5" fill="rgb(0,0,0)" />
<circle cx="12.0668" cy="8.117" r="0.5" fill="rgb(0,0,0)" />
<circle cx="9.52792" cy="8.46927" r="0.5" fill="rgb(0,0,0)" />
<circle cx="7.40237" cy="8.59216" r="0.5" fill="rgb(0,0,0)" />
<circle cx="9.30501" cy="4.66388" r="0.5" fill="rgb(0,0,0)" />
<circle cx="11.3094" cy="9.44877" r="0.5" fill="rgb(0,0,0)" />
<circle cx="4.21925" cy="10.0516" r="0.5" fill="rgb(0,0,0)" />
<circle cx="15.9861" cy="10.4082" r="0.5" fill="rgb(0,0,0)" />
<circle cx="6.4156" cy="10.5987" r="0.5" fill="rgb(0,0,0)" />
<circle cx="12.5908" cy="12.5098" r="0.5" fill="rgb(0,0,0)" />
<circle cx="3.85819" cy="12.2024" r="0.5" fill="rgb(0,0,0)" />
<circle cx="8.28374" cy="12.5444" r="0.5" fill="rgb(0,0,0)" />
<circle cx="14.2913" cy="13.5404" r="0.5" fill="rgb(0,0,0)" />
<circle cx="10.2815" cy="0.905338" r="0.5" fill="rgb(0,0,0)" />
<circle cx="10.1196" cy="13.1425" r="0.5" fill="rgb(0,0,0)" />
<circle cx="6.2968" cy="12.9519" r="0.5" fill="rgb(0,0,0)" />
<circle cx="15.4261" cy="2.46417" r="0.5" fill="rgb(0,0,0)" />
<circle cx="12.2985" cy="14.201" r="0.5" fill="rgb(0,0,0)" />
<circle cx="15.0771" cy="14.9222" r="0.5" fill="rgb(0,0,0)" />
<circle cx="1.21641" cy="11.5192" r="0.5" fill="rgb(0,0,0)" />
<circle cx="11.3603" cy="3.96455" r="0.5" fill="rgb(0,0,0)" />
<circle cx="4.65649" cy="14.3493" r="0.5" fill="rgb(0,0,0)" />
<circle cx="14.1379" cy="15.8148" r="0.5" fill="rgb(0,0,0)" />
<circle cx="13.2252" cy="15.217" r="0.5" fill="rgb(0,0,0)" />
<circle cx="10.4657" cy="15.0647" r="0.5" fill="rgb(0,0,0)" />
<circle cx="2.54353" cy="14.7017" r="0.5" fill="rgb(0,0,0)" />
<circle cx="5.15572" cy="15.817" r="0.5" fill="rgb(0,0,0)" />
<circle cx="8.11947" cy="14.9762" r="0.5" fill="rgb(0,0,0)" />
<circle cx="11.9708" cy="16.2905" r="0.5" fill="rgb(0,0,0)" />
<circle cx="18.2306" cy="3.09594" r="0.5" fill="rgb(0,0,0)" />
<circle cx="0.805441" cy="9.7566" r="0.5" fill="rgb(0,0,0)" />
<circle cx="13.8638" cy="8.69017" r="0.5" fill="rgb(0,0,0)" />
<circle cx="0.816493" cy="8.0318" r="0.5" fill="rgb(0,0,0)" />
<circle cx="8.37739" cy="6.56671" r="0.5" fill="rgb(0,0,0)" />
<circle cx="6.94652" cy="16.2387" r="0.5" fill="rgb(0,0,0)" />
<circle cx="17.2754" cy="3.77081" r="0.5" fill="rgb(0,0,0)" />
<circle cx="13.7542" cy="17.0334" r="0.5" fill="rgb(0,0,0)" />
<circle cx="2.58065" cy="8.40924" r="0.5" fill="rgb(0,0,0)" />
<circle cx="16.6994" cy="16.8641" r="0.5" fill="rgb(0,0,0)" />
<circle cx="16.3345" cy="14.3764" r="0.5" fill="rgb(0,0,0)" />
<circle cx="5.74342" cy="17.2482" r="0.5" fill="rgb(0,0,0)" />
<circle cx="4.53909" cy="5.32976" r="0.5" fill="rgb(0,0,0)" />
<circle cx="15.3042" cy="17.7183" r="0.5" fill="rgb(0,0,0)" />
<circle cx="2.5627" cy="17.0544" r="0.5" fill="rgb(0,0,0)" />
<circle cx="0.961934" cy="13.4443" r="0.5" fill="rgb(0,0,0)" />
<circle cx="0.937734" cy="16.0529" r="0.5" fill="rgb(0,0,0)" />
<circle cx="4.281" cy="17.4575" r="0.5" fill="rgb(0,0,0)" />
<circle cx="16.5062" cy="2.09577" r="0.5" fill="rgb(0,0,0)" />
<circle cx="18.1921" cy="6.50095" r="0.5" fill="rgb(0,0,0)" />
<circle cx="5.03865" cy="8.90376" r="0.5" fill="rgb(0,0,0)" />
<circle cx="2.6556" cy="10.2384" r="0.5" fill="rgb(0,0,0)" />
<circle cx="8.62887" cy="17.5632" r="0.5" fill="rgb(0,0,0)" />
<circle cx="10.1219" cy="17.39" r="0.5" fill="rgb(0,0,0)" />
<circle cx="11.7281" cy="17.9665" r="0.5" fill="rgb(0,0,0)" />
<circle cx="3.48975" cy="7.06269" r="0.5" fill="rgb(0,0,0)" />
<circle cx="13.7348" cy="10.7417" r="0.5" fill="rgb(0,0,0)" />
<circle cx="12.8961" cy="18.3609" r="0.5" fill="rgb(0,0,0)" />
<circle cx="14.1809" cy="18.299" r="0.5" fill="rgb(0,0,0)" />
<circle cx="17.8332" cy="12.4009" r="0.5" fill="rgb(0,0,0)" />
<circle cx="14.7606" cy="0.737172" r="0.5" fill="rgb(0,0,0)" />
<circle cx="15.5139" cy="12.2824" r="0.5" fill="rgb(0,0,0)" />
<circle cx="0.507266" cy="6.31804" r="0.5" fill="rgb(0,0,0)" />
<circle cx="0.661978" cy="4.06547" r="0.5" fill="rgb(0,0,0)" />
<circle cx="17.9791" cy="10.1443" r="0.5" fill="rgb(0,0,0)" />
<circle cx="8.96065" cy="10.5348" r="0.5" fill="rgb(0,0,0)" />
<circle cx="17.8911" cy="14.5799" r="0.5" fill="rgb(0,0,0)" />
<circle cx="7.59431" cy="18.303" r="0.5" fill="rgb(0,0,0)" />
<circle cx="6.0599" cy="18.3223" r="0.5" fill="rgb(0,0,0)" />
<circle cx="15.4512" cy="16.3088" r="0.5" fill="rgb(0,0,0)" />
<circle cx="18.158" cy="16.0337" r="0.5" fill="rgb(0,0,0)" />
<circle cx="0.684563" cy="1.1136" r="0.5" fill="rgb(0,0,0)" />
<circle cx="11.2209" cy="11.2282" r="0.5" fill="rgb(0,0,0)" />
<circle cx="18.1152" cy="8.27636" r="0.5" fill="rgb(0,0,0)" />
<circle cx="3.00518" cy="18.449" r="0.5" fill="rgb(0,0,0)" />
<circle cx="0.728827" cy="17.9954" r="0.5" fill="rgb(0,0,0)" />
<circle cx="18.299" cy="4.88233" r="0.5" fill="rgb(0,0,0)" />
<circle cx="15.9261" cy="18.4806" r="0.5" fill="rgb(0,0,0)" />
<circle cx="3.1102" cy="0.685054" r="0.5" fill="rgb(0,0,0)" />
<circle cx="17.4171" cy="18.2676" r="0.5" fill="rgb(0,0,0)" />
<circle cx="13.3315" cy="5.08449" r="0.5" fill="rgb(0,0,0)" />
<circle cx="18.4059" cy="17.7255" r="0.5" fill="rgb(0,0,0)" />
</svg>
