<?xml version="1.0" ?>
<!DOCTYPE svg PUBLIC "-//W3C//DTD SVG 1.1//EN" "http://www.w3.org/Graphics/SVG/1.1/DTD/svg11.dtd">
<svg width="20" height="20" version="1.1" xmlns="http://www.w3.org/2000/svg">
<circle cx="7.58992" cy="0.187645" r="0.5" fill="rgb(0,0,0)" />
<circle cx="10.3595" cy="0.298036" r="0.5" fill="rgb(0,0,0)" />
<circle cx="13.53" cy="0.31662" r="0.5" fill="rgb(0,0,0)" />
<circle cx="5.7423" cy="0.369383" r="0.5" fill="rgb(0,0,0)" />
<circle cx="12.5273" cy="0.369343" r="0.5" fill="rgb(0,0,0)" />
<circle cx="4.38036" cy="0.479186" r="0.5" fill="rgb(0,0,0)" />
<circle cx="12.0012" cy="0.791493" r="0.5" fill="rgb(0,0,0)" />
<circle cx="8.38379" cy="0.618591" r="0.5" fill="rgb(0,0,0)" />
<circle cx="14.9903" cy="0.763073" r="0.5" fill="rgb(0,0,0)" />
<circle cx="17.8894" cy="1.09928" r="0.5" fill="rgb(0,0,0)" />
<circle cx="11.2305" cy="0.660424" r="0.5" fill="rgb(0,0,0)" />
<circle cx="13.4518" cy="1.64459" r="0.5" fill="rgb(0,0,0)" />
<circle cx="9.34901" cy="0.538003" r="0.5" fill="rgb(0,0,0)" />
<circle cx="16.007" cy="0.756056" r="0.5" fill="rgb(0,0,0)" />
<circle cx="14.6195" cy="1.42753" r="0.5" fill="rgb(0,0,0)" />
<circle cx="1.78095" cy="1.27929" r="0.5" fill="rgb(0,0,0)" />
<circle cx="10.4297" cy="1.454" r="0.5" fill="rgb(0,0,0)" />
<circle cx="4.57528" cy="1.56561" r="0.5" fill="rgb(0,0,0)" />
<circle cx="9.19149" cy="1.7182" r="0.5" fill="rgb(0,0,0)" />
<circle cx="13.4652" cy="2.3163" r="0.5" fill="rgb(0,0,0)" />
<circle cx="14.2901" cy="2.20684" r="0.5" fill="rgb(0,0,0)" />
<circle cx="16.6747" cy="2.28906" r="0.5" fill="rgb(0,0,0)" />
<circle cx="12.5391" cy="2.31204" r="0.5" fill="rgb(0,0,0)" />
<circle cx="12.9878" cy="2.7645" r="0.5" fill="rgb(0,0,0)" />
<circle cx="7.66553" cy="2.67328" r="0.5" fill="rgb(0,0,0)" />
<circle cx="6.75638" cy="2.75449" r="0.5" fill="rgb(0,0,0)" />
<circle cx="15.8888" cy="2.28267" r="0.5" fill="rgb(0,0,0)" />
<circle cx="3.1737" cy="2.79207" r="0.5" fill="rgb(0,0,0)" />
<circle cx="15.2961" cy="2.60578" r="0.5" fill="rgb(0,0,0)" />
<circle cx="8.68187" cy="2.79613" r="0.5" fill="rgb(0,0,0)" />
<circle cx="10.6139" cy="2.61307" r="0.5" fill="rgb(0,0,0)" />
<circle cx="13.6062" cy="3.09156" r="0.5" fill="rgb(0,0,0)" />
<circle cx="14.5856" cy="3.05491" r="0.5" fill="rgb(0,0,0)" />
<circle cx="4.40899" cy="3.58007" r="0.5" fill="rgb(0,0,0)" />
<circle cx="7.54104" cy="0.896894" r="0.5" fill="rgb(0,0,0)" />
<circle cx="5.29777" cy="3.65329" r="0.5" fill="rgb(0,0,0)" />
<circle cx="3.25917" cy="1.59266" r="0.5" fill="rgb(0,0,0)" />
<circle cx="13.8423" cy="3.68807" r="0.5" fill="rgb(0,0,0)" />
<circle cx="10.5109" cy="3.78318" r="0.5" fill="rgb(0,0,0)" />
<circle cx="15.4435" cy="3.76176" r="0.5" fill="rgb(0,0,0)" />
<circle cx="12.6665" cy="3.58648" r="0.5" fill="rgb(0,0,0)" />
<circle cx="1.5361" cy="3.70038" r="0.5" fill="rgb(0,0,0)" />
<circle cx="8.32069" cy="3.74119" r="0.5" fill="rgb(0,0,0)" />
<circle cx="17.6487" cy="3.91171" r="0.5" fill="rgb(0,0,0)" />
<circle cx="11.6376" cy="3.80467" r="0.5" fill="rgb(0,0,0)" />
<circle cx="13.7852" cy="4.41974" r="0.5" fill="rgb(0,0,0)" />
<circle cx="16.7328" cy="4.37466" r="0.5" fill="rgb(0,0,0)" />
<circle cx="6.80793" cy="4.59278" r="0.5" fill="rgb(0,0,0)" />
<circle cx="14.6055" cy="4.21746" r="0.5" fill="rgb(0,0,0)" />
<circle cx="16.3308" cy="4.91334" r="0.5" fill="rgb(0,0,0)" />
<circle cx="4.15658" cy="2.47997" r="0.5" fill="rgb(0,0,0)" />
<circle cx="3.79643" cy="4.52424" r="0.5" fill="rgb(0,0,0)" />
<circle cx="1.26076" cy="4.79744" r="0.5" fill="rgb(0,0,0)" />
<circle cx="10.8038" cy="4.74422" r="0.5" fill="rgb(0,0,0)" />
<circle cx="5.89667" cy="5.1131" r="0.5" fill="rgb(0,0,0)" />
<circle cx="9.10721" cy="4.98404" r="0.5" fill="rgb(0,0,0)" />
<circle cx="17.499" cy="4.97162" r="0.5" fill="rgb(0,0,0)" />
<circle cx="7.84302" cy="1.74027" r="0.5" fill="rgb(0,0,0)" />
<circle cx="7.9715" cy="4.90023" r="0.5" fill="rgb(0,0,0)" />
<circle cx="14.009" cy="5.19045" r="0.5" fill="rgb(0,0,0)" />
<circle cx="6.83981" cy="5.52217" r="0.5" fill="rgb(0,0,0)" />
<circle cx="3.09542" cy="5.42462" r="0.5" fill="rgb(0,0,0)" />
<circle cx="5.50583" cy="4.54049" r="0.5" fill="rgb(0,0,0)" />
<circle cx="0.518874" cy="3.52853" r="0.5" fill="rgb(0,0,0)" />
<circle cx="14.4662" cy="5.87089" r="0.5" fill="rgb(0,0,0)" />
<circle cx="10.7877" cy="5.80941" r="0.5" fill="rgb(0,0,0)" />
<circle cx="7.55186" cy="6.08674" r="0.5" fill="rgb(0,0,0)" />
<circle cx="18.3148" cy="5.65177" r="0.5" fill="rgb(0,0,0)" />
<circle cx="12.9757" cy="5.92299" r="0.5" fill="rgb(0,0,0)" />
<circle cx="11.7047" cy="5.86161" r="0.5" fill="rgb(0,0,0)" />
<circle cx="2.07056" cy="6.25829" r="0.5" fill="rgb(0,0,0)" />
<circle cx="3.69784" cy="6.16812" r="0.5" fill="rgb(0,0,0)" />
<circle cx="10.4961" cy="6.58586" r="0.5" fill="rgb(0,0,0)" />
<circle cx="6.1227" cy="6.49208" r="0.5" fill="rgb(0,0,0)" />
<circle cx="9.03944" cy="4.08016" r="0.5" fill="rgb(0,0,0)" />
<circle cx="9.43626" cy="6.68886" r="0.5" fill="rgb(0,0,0)" />
<circle cx="8.55366" cy="6.91634" r="0.5" fill="rgb(0,0,0)" />
<circle cx="7.66691" cy="7.1416" r="0.5" fill="rgb(0,0,0)" />
<circle cx="14.6372" cy="6.93077" r="0.5" fill="rgb(0,0,0)" />
<circle cx="1.57911" cy="7.17784" r="0.5" fill="rgb(0,0,0)" />
<circle cx="18.0777" cy="7.11364" r="0.5" fill="rgb(0,0,0)" />
<circle cx="2.33466" cy="3.11783" r="0.5" fill="rgb(0,0,0)" />
<circle cx="4.50796" cy="5.24594" r="0.5" fill="rgb(0,0,0)" />
<circle cx="6.59121" cy="7.60021" r="0.5" fill="rgb(0,0,0)" />
<circle cx="5.39629" cy="7.50005" r="0.5" fill="rgb(0,0,0)" />
<circle cx="4.9028" cy="5.88552" r="0.5" fill="rgb(0,0,0)" />
<circle cx="15.7234" cy="7.17403" r="0.5" fill="rgb(0,0,0)" />
<circle cx="12.4166" cy="7.1109" r="0.5" fill="rgb(0,0,0)" />
<circle cx="16.3148" cy="5.58375" r="0.5" fill="rgb(0,0,0)" />
<circle cx="10.1487" cy="7.49049" r="0.5" fill="rgb(0,0,0)" />
<circle cx="11.2333" cy="7.35783" r="0.5" fill="rgb(0,0,0)" />
<circle cx="15.8549" cy="4.42069" r="0.5" fill="rgb(0,0,0)" />
<circle cx="7.91473" cy="8.09225" r="0.5" fill="rgb(0,0,0)" />
<circle cx="3.41092" cy="7.87198" r="0.5" fill="rgb(0,0,0)" />
<circle cx="6.03992" cy="8.17586" r="0.5" fill="rgb(0,0,0)" />
<circle cx="3.60027" cy="3.54802" r="0.5" fill="rgb(0,0,0)" />
<circle cx="7.12559" cy="8.13916" r="0.5" fill="rgb(0,0,0)" />
<circle cx="2.80421" cy="6.99345" r="0.5" fill="rgb(0,0,0)" />
<circle cx="17.0824" cy="7.76467" r="0.5" fill="rgb(0,0,0)" />
<circle cx="8.71074" cy="8.08253" r="0.5" fill="rgb(0,0,0)" />
<circle cx="5.8483" cy="5.86786" r="0.5" fill="rgb(0,0,0)" />
<circle cx="9.37253" cy="8.03256" r="0.5" fill="rgb(0,0,0)" />
<circle cx="1.93985" cy="8.34035" r="0.5" fill="rgb(0,0,0)" />
<circle cx="2.82091" cy="8.45406" r="0.5" fill="rgb(0,0,0)" />
<circle cx="4.09123" cy="8.62204" r="0.5" fill="rgb(0,0,0)" />
<circle cx="16.187" cy="8.30005" r="0.5" fill="rgb(0,0,0)" />
<circle cx="5.1129" cy="8.54633" r="0.5" fill="rgb(0,0,0)" />
<circle cx="10.2389" cy="8.53648" r="0.5" fill="rgb(0,0,0)" />
<circle cx="15.3299" cy="8.93747" r="0.5" fill="rgb(0,0,0)" />
<circle cx="3.41489" cy="9.35367" r="0.5" fill="rgb(0,0,0)" />
<circle cx="2.45886" cy="9.27136" r="0.5" fill="rgb(0,0,0)" />
<circle cx="4.11427" cy="9.56297" r="0.5" fill="rgb(0,0,0)" />
<circle cx="13.9105" cy="9.07509" r="0.5" fill="rgb(0,0,0)" />
<circle cx="12.52" cy="8.97759" r="0.5" fill="rgb(0,0,0)" />
<circle cx="1.41781" cy="9.23181" r="0.5" fill="rgb(0,0,0)" />
<circle cx="17.0644" cy="9.17764" r="0.5" fill="rgb(0,0,0)" />
<circle cx="4.99558" cy="9.49024" r="0.5" fill="rgb(0,0,0)" />
<circle cx="6.35851" cy="1.84372" r="0.5" fill="rgb(0,0,0)" />
<circle cx="7.27599" cy="9.80842" r="0.5" fill="rgb(0,0,0)" />
<circle cx="1.07995" cy="7.92806" r="0.5" fill="rgb(0,0,0)" />
<circle cx="7.32822" cy="9.00788" r="0.5" fill="rgb(0,0,0)" />
<circle cx="6.23265" cy="9.05804" r="0.5" fill="rgb(0,0,0)" />
<circle cx="15.9683" cy="9.62208" r="0.5" fill="rgb(0,0,0)" />
<circle cx="9.82989" cy="9.37834" r="0.5" fill="rgb(0,0,0)" />
<circle cx="9.14775" cy="9.88771" r="0.5" fill="rgb(0,0,0)" />
<circle cx="8.11101" cy="9.93017" r="0.5" fill="rgb(0,0,0)" />
<circle cx="2.81016" cy="9.87635" r="0.5" fill="rgb(0,0,0)" />
<circle cx="5.6078" cy="10.0014" r="0.5" fill="rgb(0,0,0)" />
<circle cx="14.6207" cy="0.206488" r="0.5" fill="rgb(0,0,0)" />
<circle cx="14.6918" cy="9.8219" r="0.5" fill="rgb(0,0,0)" />
<circle cx="3.7746" cy="10.2454" r="0.5" fill="rgb(0,0,0)" />
<circle cx="1.83099" cy="10.1232" r="0.5" fill="rgb(0,0,0)" />
<circle cx="6.32602" cy="10.1292" r="0.5" fill="rgb(0,0,0)" />
<circle cx="3.2291" cy="10.5597" r="0.5" fill="rgb(0,0,0)" />
<circle cx="6.86292" cy="10.4873" r="0.5" fill="rgb(0,0,0)" />
<circle cx="9.89361" cy="5.56829" r="0.5" fill="rgb(0,0,0)" />
<circle cx="1.30281" cy="5.83059" r="0.5" fill="rgb(0,0,0)" />
<circle cx="7.45548" cy="10.8431" r="0.5" fill="rgb(0,0,0)" />
<circle cx="8.52699" cy="10.8071" r="0.5" fill="rgb(0,0,0)" />
<circle cx="15.7498" cy="10.6344" r="0.5" fill="rgb(0,0,0)" />
<circle cx="11.9461" cy="10.4194" r="0.5" fill="rgb(0,0,0)" />
<circle cx="14.1773" cy="10.9542" r="0.5" fill="rgb(0,0,0)" />
<circle cx="10.7703" cy="10.6779" r="0.5" fill="rgb(0,0,0)" />
<circle cx="1.18771" cy="10.912" r="0.5" fill="rgb(0,0,0)" />
<circle cx="8.12508" cy="11.5157" r="0.5" fill="rgb(0,0,0)" />
<circle cx="2.57869" cy="11.0623" r="0.5" fill="rgb(0,0,0)" />
<circle cx="4.52836" cy="11.1757" r="0.5" fill="rgb(0,0,0)" />
<circle cx="16.6973" cy="3.3866" r="0.5" fill="rgb(0,0,0)" />
<circle cx="5.56524" cy="11.1419" r="0.5" fill="rgb(0,0,0)" />
<circle cx="17.9578" cy="2.60808" r="0.5" fill="rgb(0,0,0)" />
<circle cx="14.9791" cy="11.3534" r="0.5" fill="rgb(0,0,0)" />
<circle cx="8.70123" cy="9.26" r="0.5" fill="rgb(0,0,0)" />
<circle cx="3.72801" cy="11.4927" r="0.5" fill="rgb(0,0,0)" />
<circle cx="12.1071" cy="4.77661" r="0.5" fill="rgb(0,0,0)" />
<circle cx="9.42768" cy="11.6298" r="0.5" fill="rgb(0,0,0)" />
<circle cx="6.2923" cy="11.6456" r="0.5" fill="rgb(0,0,0)" />
<circle cx="13.6072" cy="11.9849" r="0.5" fill="rgb(0,0,0)" />
<circle cx="12.4211" cy="11.6123" r="0.5" fill="rgb(0,0,0)" />
<circle cx="17.0084" cy="6.63351" r="0.5" fill="rgb(0,0,0)" />
<circle cx="8.31942" cy="12.1835" r="0.5" fill="rgb(0,0,0)" />
<circle cx="14.7616" cy="8.17752" r="0.5" fill="rgb(0,0,0)" />
<circle cx="10.805" cy="12.0408" r="0.5" fill="rgb(0,0,0)" />
<circle cx="15.8159" cy="12.1234" r="0.5" fill="rgb(0,0,0)" />
<circle cx="9.56204" cy="12.5912" r="0.5" fill="rgb(0,0,0)" />
<circle cx="13.1149" cy="4.7553" r="0.5" fill="rgb(0,0,0)" />
<circle cx="1.45947" cy="12.4612" r="0.5" fill="rgb(0,0,0)" />
<circle cx="17.5032" cy="12.4931" r="0.5" fill="rgb(0,0,0)" />
<circle cx="4.97572" cy="12.3702" r="0.5" fill="rgb(0,0,0)" />
<circle cx="14.2399" cy="12.8201" r="0.5" fill="rgb(0,0,0)" />
<circle cx="6.85929" cy="12.652" r="0.5" fill="rgb(0,0,0)" />
<circle cx="13.4946" cy="13.1336" r="0.5" fill="rgb(0,0,0)" />
<circle cx="6.0881" cy="13.1563" r="0.5" fill="rgb(0,0,0)" />
<circle cx="9.82377" cy="4.47519" r="0.5" fill="rgb(0,0,0)" />
<circle cx="12.9118" cy="9.82814" r="0.5" fill="rgb(0,0,0)" />
<circle cx="8.29028" cy="13.0093" r="0.5" fill="rgb(0,0,0)" />
<circle cx="15.033" cy="4.88671" r="0.5" fill="rgb(0,0,0)" />
<circle cx="10.4378" cy="13.2681" r="0.5" fill="rgb(0,0,0)" />
<circle cx="3.33163" cy="12.3658" r="0.5" fill="rgb(0,0,0)" />
<circle cx="3.91915" cy="13.3076" r="0.5" fill="rgb(0,0,0)" />
<circle cx="4.26491" cy="6.62932" r="0.5" fill="rgb(0,0,0)" />
<circle cx="15.3746" cy="13.5327" r="0.5" fill="rgb(0,0,0)" />
<circle cx="11.1286" cy="9.24359" r="0.5" fill="rgb(0,0,0)" />
<circle cx="11.5759" cy="13.0453" r="0.5" fill="rgb(0,0,0)" />
<circle cx="1.11501" cy="13.5084" r="0.5" fill="rgb(0,0,0)" />
<circle cx="2.52999" cy="13.3981" r="0.5" fill="rgb(0,0,0)" />
<circle cx="17.6893" cy="13.5778" r="0.5" fill="rgb(0,0,0)" />
<circle cx="4.81821" cy="13.7058" r="0.5" fill="rgb(0,0,0)" />
<circle cx="16.2994" cy="13.4389" r="0.5" fill="rgb(0,0,0)" />
<circle cx="13.4679" cy="14.1096" r="0.5" fill="rgb(0,0,0)" />
<circle cx="9.19401" cy="13.6792" r="0.5" fill="rgb(0,0,0)" />
<circle cx="7.57598" cy="13.7321" r="0.5" fill="rgb(0,0,0)" />
<circle cx="4.03753" cy="14.3796" r="0.5" fill="rgb(0,0,0)" />
<circle cx="5.52598" cy="14.1378" r="0.5" fill="rgb(0,0,0)" />
<circle cx="6.55397" cy="14.2095" r="0.5" fill="rgb(0,0,0)" />
<circle cx="6.68035" cy="6.82915" r="0.5" fill="rgb(0,0,0)" />
<circle cx="14.3672" cy="14.4355" r="0.5" fill="rgb(0,0,0)" />
<circle cx="17.1883" cy="1.75577" r="0.5" fill="rgb(0,0,0)" />
<circle cx="11.8474" cy="8.21194" r="0.5" fill="rgb(0,0,0)" />
<circle cx="15.5434" cy="14.5034" r="0.5" fill="rgb(0,0,0)" />
<circle cx="8.44803" cy="14.3911" r="0.5" fill="rgb(0,0,0)" />
<circle cx="1.84494" cy="2.41305" r="0.5" fill="rgb(0,0,0)" />
<circle cx="1.76072" cy="14.3968" r="0.5" fill="rgb(0,0,0)" />
<circle cx="16.9803" cy="14.2667" r="0.5" fill="rgb(0,0,0)" />
<circle cx="4.75329" cy="4.37472" r="0.5" fill="rgb(0,0,0)" />
<circle cx="12.4989" cy="14.4087" r="0.5" fill="rgb(0,0,0)" />
<circle cx="3.05115" cy="14.5695" r="0.5" fill="rgb(0,0,0)" />
<circle cx="15.0079" cy="12.5296" r="0.5" fill="rgb(0,0,0)" />
<circle cx="4.91637" cy="14.9546" r="0.5" fill="rgb(0,0,0)" />
<circle cx="10.0869" cy="14.8195" r="0.5" fill="rgb(0,0,0)" />
<circle cx="3.89656" cy="15.1954" r="0.5" fill="rgb(0,0,0)" />
<circle cx="6.42973" cy="3.84351" r="0.5" fill="rgb(0,0,0)" />
<circle cx="11.0722" cy="14.3882" r="0.5" fill="rgb(0,0,0)" />
<circle cx="5.62084" cy="15.2763" r="0.5" fill="rgb(0,0,0)" />
<circle cx="17.9707" cy="14.7975" r="0.5" fill="rgb(0,0,0)" />
<circle cx="9.04284" cy="15.11" r="0.5" fill="rgb(0,0,0)" />
<circle cx="11.9917" cy="1.68798" r="0.5" fill="rgb(0,0,0)" />
<circle cx="11.551" cy="14.9688" r="0.5" fill="rgb(0,0,0)" />
<circle cx="9.66801" cy="3.43926" r="0.5" fill="rgb(0,0,0)" />
<circle cx="7.66852" cy="15.1263" r="0.5" fill="rgb(0,0,0)" />
<circle cx="15.0766" cy="15.3247" r="0.5" fill="rgb(0,0,0)" />
<circle cx="2.34027" cy="15.4016" r="0.5" fill="rgb(0,0,0)" />
<circle cx="5.67595" cy="16.0629" r="0.5" fill="rgb(0,0,0)" />
<circle cx="16.7332" cy="11.7917" r="0.5" fill="rgb(0,0,0)" />
<circle cx="4.73014" cy="15.8061" r="0.5" fill="rgb(0,0,0)" />
<circle cx="16.3201" cy="15.3737" r="0.5" fill="rgb(0,0,0)" />
<circle cx="11.9918" cy="15.6742" r="0.5" fill="rgb(0,0,0)" />
<circle cx="3.25224" cy="15.9003" r="0.5" fill="rgb(0,0,0)" />
<circle cx="12.573" cy="13.1254" r="0.5" fill="rgb(0,0,0)" />
<circle cx="10.1459" cy="15.8674" r="0.5" fill="rgb(0,0,0)" />
<circle cx="4.25982" cy="7.49173" r="0.5" fill="rgb(0,0,0)" />
<circle cx="13.2614" cy="15.8577" r="0.5" fill="rgb(0,0,0)" />
<circle cx="14.5221" cy="13.6044" r="0.5" fill="rgb(0,0,0)" />
<circle cx="1.29989" cy="16.4357" r="0.5" fill="rgb(0,0,0)" />
<circle cx="7.40746" cy="16.1146" r="0.5" fill="rgb(0,0,0)" />
<circle cx="8.8149" cy="16.201" r="0.5" fill="rgb(0,0,0)" />
<circle cx="12.6633" cy="16.4542" r="0.5" fill="rgb(0,0,0)" />
<circle cx="3.96732" cy="16.1387" r="0.5" fill="rgb(0,0,0)" />
<circle cx="17.2393" cy="16.1595" r="0.5" fill="rgb(0,0,0)" />
<circle cx="6.71446" cy="0.303399" r="0.5" fill="rgb(0,0,0)" />
<circle cx="6.54439" cy="16.5249" r="0.5" fill="rgb(0,0,0)" />
<circle cx="5.5367" cy="16.7538" r="0.5" fill="rgb(0,0,0)" />
<circle cx="5.72301" cy="2.35295" r="0.5" fill="rgb(0,0,0)" />
<circle cx="2.12502" cy="11.8483" r="0.5" fill="rgb(0,0,0)" />
<circle cx="2.00873" cy="16.5428" r="0.5" fill="rgb(0,0,0)" />
<circle cx="11.0867" cy="16.533" r="0.5" fill="rgb(0,0,0)" />
<circle cx="8.74222" cy="5.83201" r="0.5" fill="rgb(0,0,0)" />
<circle cx="15.0916" cy="16.4538" r="0.5" fill="rgb(0,0,0)" />
<circle cx="1.41543" cy="17.2862" r="0.5" fill="rgb(0,0,0)" />
<circle cx="15.8976" cy="16.8197" r="0.5" fill="rgb(0,0,0)" />
<circle cx="14.2105" cy="16.9474" r="0.5" fill="rgb(0,0,0)" />
<circle cx="0.514113" cy="16.984" r="0.5" fill="rgb(0,0,0)" />
<circle cx="4.38891" cy="16.8072" r="0.5" fill="rgb(0,0,0)" />
<circle cx="10.149" cy="14.0198" r="0.5" fill="rgb(0,0,0)" />
<circle cx="7.75456" cy="17.0295" r="0.5" fill="rgb(0,0,0)" />
<circle cx="2.98023" cy="16.7357" r="0.5" fill="rgb(0,0,0)" />
<circle cx="16.9192" cy="17.2018" r="0.5" fill="rgb(0,0,0)" />
<circle cx="2.25676" cy="4.86346" r="0.5" fill="rgb(0,0,0)" />
<circle cx="12.4169" cy="17.2996" r="0.5" fill="rgb(0,0,0)" />
<circle cx="8.89652" cy="17.3152" r="0.5" fill="rgb(0,0,0)" />
<circle cx="5.82984" cy="17.4035" r="0.5" fill="rgb(0,0,0)" />
<circle cx="1.96946" cy="17.7439" r="0.5" fill="rgb(0,0,0)" />
<circle cx="5.53119" cy="1.29393" r="0.5" fill="rgb(0,0,0)" />
<circle cx="11.6264" cy="2.6481" r="0.5" fill="rgb(0,0,0)" />
<circle cx="9.97104" cy="17.2279" r="0.5" fill="rgb(0,0,0)" />
<circle cx="1.22028" cy="17.8889" r="0.5" fill="rgb(0,0,0)" />
<circle cx="16.033" cy="17.8248" r="0.5" fill="rgb(0,0,0)" />
<circle cx="7.28721" cy="11.8414" r="0.5" fill="rgb(0,0,0)" />
<circle cx="14.3224" cy="17.8805" r="0.5" fill="rgb(0,0,0)" />
<circle cx="6.75325" cy="1.25063" r="0.5" fill="rgb(0,0,0)" />
<circle cx="10.9056" cy="17.8192" r="0.5" fill="rgb(0,0,0)" />
<circle cx="2.81628" cy="17.7027" r="0.5" fill="rgb(0,0,0)" />
<circle cx="17.1348" cy="10.5035" r="0.5" fill="rgb(0,0,0)" />
<circle cx="15.1481" cy="17.8754" r="0.5" fill="rgb(0,0,0)" />
<circle cx="17.6893" cy="17.8945" r="0.5" fill="rgb(0,0,0)" />
<circle cx="9.56658" cy="10.6542" r="0.5" fill="rgb(0,0,0)" />
<circle cx="11.6759" cy="17.4547" r="0.5" fill="rgb(0,0,0)" />
<circle cx="7.93706" cy="17.9137" r="0.5" fill="rgb(0,0,0)" />
<circle cx="6.72182" cy="17.6843" r="0.5" fill="rgb(0,0,0)" />
<circle cx="18.3638" cy="17.0465" r="0.5" fill="rgb(0,0,0)" />
<circle cx="18.4611" cy="15.7108" r="0.5" fill="rgb(0,0,0)" />
<circle cx="4.87742" cy="17.7052" r="0.5" fill="rgb(0,0,0)" />
<circle cx="5.21995" cy="6.65421" r="0.5" fill="rgb(0,0,0)" />
<circle cx="12.3104" cy="18.2686" r="0.5" fill="rgb(0,0,0)" />
<circle cx="9.63882" cy="2.55667" r="0.5" fill="rgb(0,0,0)" />
<circle cx="15.5034" cy="5.28922" r="0.5" fill="rgb(0,0,0)" />
<circle cx="18.7569" cy="18.1554" r="0.5" fill="rgb(0,0,0)" />
<circle cx="18.5047" cy="1.79804" r="0.5" fill="rgb(0,0,0)" />
<circle cx="18.5036" cy="0.447157" r="0.5" fill="rgb(0,0,0)" />
<circle cx="18.5458" cy="13.1337" r="0.5" fill="rgb(0,0,0)" />
<circle cx="18.2747" cy="11.2498" r="0.5" fill="rgb(0,0,0)" />
<circle cx="13.5363" cy="10.3792" r="0.5" fill="rgb(0,0,0)" />
<circle cx="1.14266" cy="15.4113" r="0.5" fill="rgb(0,0,0)" />
<circle cx="13.6188" cy="18.4576" r="0.5" fill="rgb(0,0,0)" />
<circle cx="17.9687" cy="18.7067" r="0.5" fill="rgb(0,0,0)" />
<circle cx="17.0541" cy="5.78877" r="0.5" fill="rgb(0,0,0)" />
<circle cx="13.6325" cy="6.97214" r="0.5" fill="rgb(0,0,0)" />
<circle cx="16.9187" cy="18.4537" r="0.5" fill="rgb(0,0,0)" />
<circle cx="18.4918" cy="4.52497" r="0.5" fill="rgb(0,0,0)" />
<circle cx="18.4778" cy="3.26986" r="0.5" fill="rgb(0,0,0)" />
<circle cx="13.2928" cy="1.08202" r="0.5" fill="rgb(0,0,0)" />
<circle cx="0.337447" cy="15.9884" r="0.5" fill="rgb(0,0,0)" />
<circle cx="13.3704" cy="17.3983" r="0.5" fill="rgb(0,0,0)" />
<circle cx="0.42719" cy="14.5189" r="0.5" fill="rgb(0,0,0)" />
<circle cx="13.4346" cy="8.08598" r="0.5" fill="rgb(0,0,0)" />
<circle cx="8.22595" cy="8.8345" r="0.5" fill="rgb(0,0,0)" />
<circle cx="0.43555" cy="8.62886" r="0.5" fill="rgb(0,0,0)" />
<circle cx="0.443896" cy="10.0199" r="0.5" fill="rgb(0,0,0)" />
<circle cx="0.332647" cy="12.9706" r="0.5" fill="rgb(0,0,0)" />
<circle cx="0.435224" cy="11.6255" r="0.5" fill="rgb(0,0,0)" />
<circle cx="2.7841" cy="4.0153" r="0.5" fill="rgb(0,0,0)" />
<circle cx="0.546682" cy="2.30193" r="0.5" fill="rgb(0,0,0)" />
<circle cx="17.1328" cy="0.430741" r="0.5" fill="rgb(0,0,0)" />
<circle cx="10.1285" cy="18.4332" r="0.5" fill="rgb(0,0,0)" />
<circle cx="18.376" cy="8.10476" r="0.5" fill="rgb(0,0,0)" />
<circle cx="18.5933" cy="6.50828" r="0.5" fill="rgb(0,0,0)" />
<circle cx="8.9317" cy="18.4593" r="0.5" fill="rgb(0,0,0)" />
<circle cx="0.44829" cy="6.90387" r="0.5" fill="rgb(0,0,0)" />
<circle cx="13.4717" cy="15.0587" r="0.5" fill="rgb(0,0,0)" />
<circle cx="3.31134" cy="18.4625" r="0.5" fill="rgb(0,0,0)" />
<circle cx="4.60644" cy="10.2466" r="0.5" fill="rgb(0,0,0)" />
<circle cx="14.6936" cy="18.6328" r="0.5" fill="rgb(0,0,0)" />
<circle cx="18.2967" cy="9.43172" r="0.5" fill="rgb(0,0,0)" />
<circle cx="15.9" cy="18.6145" r="0.5" fill="rgb(0,0,0)" />
<circle cx="15.6269" cy="6.0806" r="0.5" fill="rgb(0,0,0)" />
<circle cx="7.51272" cy="18.5749" r="0.5" fill="rgb(0,0,0)" />
<circle cx="5.92171" cy="18.5005" r="0.5" fill="rgb(0,0,0)" />
<circle cx="12.7674" cy="18.615" r="0.5" fill="rgb(0,0,0)" />
<circle cx="5.94206" cy="3.27472" r="0.5" fill="rgb(0,0,0)" />
<circle cx="11.3601" cy="18.5662" r="0.5" fill="rgb(0,0,0)" />
<circle cx="5.0242" cy="2.78509" r="0.5" fill="rgb(0,0,0)" />
<circle cx="0.357003" cy="5.49215" r="0.5" fill="rgb(0,0,0)" />
<circle cx="0.410048" cy="4.35779" r="0.5" fill="rgb(0,0,0)" />
<circle cx="4.22954" cy="18.2118" r="0.5" fill="rgb(0,0,0)" />
<circle cx="0.644612" cy="0.663549" r="0.5" fill="rgb(0,0,0)" />
<circle cx="18.4173" cy="18.378" r="0.5" fill="rgb(0,0,0)" />
<circle cx="2.66003" cy="0.4536" r="0.5" fill="rgb(0,0,0)" />
<circle cx="0.243505" cy="17.7275" r="0.5" fill="rgb(0,0,0)" />
<circle cx="0.371087" cy="18.4661" r="0.5" fill="rgb(0,0,0)" />
<circle cx="7.42114" cy="3.78087" r="0.5" fill="rgb(0,0,0)" />
<circle cx="2.07064" cy="18.5958" r="0.5" fill="rgb(0,0,0)" />
<circle cx="6.57342" cy="15.3139" r="0.5" fill="rgb(0,0,0)" />
<circle cx="14.2606" cy="15.7526" r="0.5" fill="rgb(0,0,0)" />
<circle cx="1.0949" cy="18.5792" r="0.5" fill="rgb(0,0,0)" />
</svg>
