<?xml version="1.0" ?>
<!DOCTYPE svg PUBLIC "-//W3C//DTD SVG 1.1//EN" "http://www.w3.org/Graphics/SVG/1.1/DTD/svg11.dtd">
<svg width="20" height="20" version="1.1" xmlns="http://www.w3.org/2000/svg">
<circle cx="12.8384" cy="0.48992" r="0.5" fill="rgb(0,0,0)" />
<circle cx="11.054" cy="0.41572" r="0.5" fill="rgb(0,0,0)" />
<circle cx="9.26818" cy="0.55299" r="0.5" fill="rgb(0,0,0)" />
<circle cx="14.2947" cy="1.22912" r="0.5" fill="rgb(0,0,0)" />
<circle cx="5.66692" cy="1.4644" r="0.5" fill="rgb(0,0,0)" />
<circle cx="10.5157" cy="1.35141" r="0.5" fill="rgb(0,0,0)" />
<circle cx="11.996" cy="1.43127" r="0.5" fill="rgb(0,0,0)" />
<circle cx="6.9496" cy="1.31998" r="0.5" fill="rgb(0,0,0)" />
<circle cx="14.1252" cy="2.15738" r="0.5" fill="rgb(0,0,0)" />
<circle cx="7.75371" cy="2.30831" r="0.5" fill="rgb(0,0,0)" />
<circle cx="15.3991" cy="2.4603" r="0.5" fill="rgb(0,0,0)" />
<circle cx="3.23725" cy="2.65978" r="0.5" fill="rgb(0,0,0)" />
<circle cx="13.0147" cy="2.73657" r="0.5" fill="rgb(0,0,0)" />
<circle cx="18.4606" cy="0.571189" r="0.5" fill="rgb(0,0,0)" />
<circle cx="11.6806" cy="2.70221" r="0.5" fill="rgb(0,0,0)" />
<circle cx="14.442" cy="3.13014" r="0.5" fill="rgb(0,0,0)" />
<circle cx="16.7646" cy="3.38226" r="0.5" fill="rgb(0,0,0)" />
<circle cx="4.88759" cy="2.74002" r="0.5" fill="rgb(0,0,0)" />
<circle cx="9.40011" cy="3.12602" r="0.5" fill="rgb(0,0,0)" />
<circle cx="6.27866" cy="3.64633" r="0.5" fill="rgb(0,0,0)" />
<circle cx="7.13681" cy="3.31782" r="0.5" fill="rgb(0,0,0)" />
<circle cx="15.3232" cy="3.87276" r="0.5" fill="rgb(0,0,0)" />
<circle cx="10.3766" cy="3.83011" r="0.5" fill="rgb(0,0,0)" />
<circle cx="8.5774" cy="3.78812" r="0.5" fill="rgb(0,0,0)" />
<circle cx="4.11091" cy="4.49045" r="0.5" fill="rgb(0,0,0)" />
<circle cx="16.2222" cy="4.44959" r="0.5" fill="rgb(0,0,0)" />
<circle cx="17.56" cy="4.29601" r="0.5" fill="rgb(0,0,0)" />
<circle cx="6.44462" cy="4.76341" r="0.5" fill="rgb(0,0,0)" />
<circle cx="13.9932" cy="4.49806" r="0.5" fill="rgb(0,0,0)" />
<circle cx="7.90253" cy="4.75671" r="0.5" fill="rgb(0,0,0)" />
<circle cx="5.34248" cy="4.75993" r="0.5" fill="rgb(0,0,0)" />
<circle cx="16.844" cy="5.32483" r="0.5" fill="rgb(0,0,0)" />
<circle cx="10.0314" cy="5.30807" r="0.5" fill="rgb(0,0,0)" />
<circle cx="2.55431" cy="5.20793" r="0.5" fill="rgb(0,0,0)" />
<circle cx="5.24238" cy="3.66397" r="0.5" fill="rgb(0,0,0)" />
<circle cx="12.3683" cy="5.52028" r="0.5" fill="rgb(0,0,0)" />
<circle cx="1.80742" cy="6.08635" r="0.5" fill="rgb(0,0,0)" />
<circle cx="1.99594" cy="1.91719" r="0.5" fill="rgb(0,0,0)" />
<circle cx="4.18168" cy="5.46748" r="0.5" fill="rgb(0,0,0)" />
<circle cx="17.0589" cy="6.36198" r="0.5" fill="rgb(0,0,0)" />
<circle cx="6.61275" cy="6.80957" r="0.5" fill="rgb(0,0,0)" />
<circle cx="5.57879" cy="6.3327" r="0.5" fill="rgb(0,0,0)" />
<circle cx="7.93871" cy="7.01708" r="0.5" fill="rgb(0,0,0)" />
<circle cx="1.65178" cy="7.14629" r="0.5" fill="rgb(0,0,0)" />
<circle cx="18.1773" cy="7.00556" r="0.5" fill="rgb(0,0,0)" />
<circle cx="10.3124" cy="6.82198" r="0.5" fill="rgb(0,0,0)" />
<circle cx="4.17026" cy="6.66797" r="0.5" fill="rgb(0,0,0)" />
<circle cx="5.9634" cy="0.429682" r="0.5" fill="rgb(0,0,0)" />
<circle cx="12.7859" cy="7.00258" r="0.5" fill="rgb(0,0,0)" />
<circle cx="15.6695" cy="7.27401" r="0.5" fill="rgb(0,0,0)" />
<circle cx="6.56627" cy="7.62866" r="0.5" fill="rgb(0,0,0)" />
<circle cx="8.46851" cy="7.95294" r="0.5" fill="rgb(0,0,0)" />
<circle cx="1.21708" cy="7.98244" r="0.5" fill="rgb(0,0,0)" />
<circle cx="7.39659" cy="8.07432" r="0.5" fill="rgb(0,0,0)" />
<circle cx="3.82408" cy="8.63173" r="0.5" fill="rgb(0,0,0)" />
<circle cx="10.3803" cy="8.45066" r="0.5" fill="rgb(0,0,0)" />
<circle cx="7.29031" cy="9.0541" r="0.5" fill="rgb(0,0,0)" />
<circle cx="4.25653" cy="0.630364" r="0.5" fill="rgb(0,0,0)" />
<circle cx="2.56534" cy="9.19445" r="0.5" fill="rgb(0,0,0)" />
<circle cx="2.22197" cy="3.02876" r="0.5" fill="rgb(0,0,0)" />
<circle cx="5.9532" cy="8.19236" r="0.5" fill="rgb(0,0,0)" />
<circle cx="4.85203" cy="8.94965" r="0.5" fill="rgb(0,0,0)" />
<circle cx="13.5663" cy="8.4144" r="0.5" fill="rgb(0,0,0)" />
<circle cx="3.69972" cy="9.66239" r="0.5" fill="rgb(0,0,0)" />
<circle cx="2.83774" cy="9.7547" r="0.5" fill="rgb(0,0,0)" />
<circle cx="14.3282" cy="7.08735" r="0.5" fill="rgb(0,0,0)" />
<circle cx="11.3932" cy="9.38603" r="0.5" fill="rgb(0,0,0)" />
<circle cx="4.08116" cy="3.50151" r="0.5" fill="rgb(0,0,0)" />
<circle cx="12.1858" cy="8.46166" r="0.5" fill="rgb(0,0,0)" />
<circle cx="9.71183" cy="9.45682" r="0.5" fill="rgb(0,0,0)" />
<circle cx="5.9261" cy="2.42601" r="0.5" fill="rgb(0,0,0)" />
<circle cx="14.2535" cy="9.61311" r="0.5" fill="rgb(0,0,0)" />
<circle cx="15.6751" cy="6.03113" r="0.5" fill="rgb(0,0,0)" />
<circle cx="7.1694" cy="9.99607" r="0.5" fill="rgb(0,0,0)" />
<circle cx="0.65726" cy="5.15981" r="0.5" fill="rgb(0,0,0)" />
<circle cx="18.3631" cy="4.93363" r="0.5" fill="rgb(0,0,0)" />
<circle cx="17.0364" cy="7.69034" r="0.5" fill="rgb(0,0,0)" />
<circle cx="18.4507" cy="3.35509" r="0.5" fill="rgb(0,0,0)" />
<circle cx="1.88966" cy="10.2946" r="0.5" fill="rgb(0,0,0)" />
<circle cx="16.4182" cy="10.234" r="0.5" fill="rgb(0,0,0)" />
<circle cx="9.29984" cy="10.5964" r="0.5" fill="rgb(0,0,0)" />
<circle cx="9.05099" cy="1.89193" r="0.5" fill="rgb(0,0,0)" />
<circle cx="15.1217" cy="8.67532" r="0.5" fill="rgb(0,0,0)" />
<circle cx="8.13481" cy="10.4075" r="0.5" fill="rgb(0,0,0)" />
<circle cx="6.08162" cy="10.6408" r="0.5" fill="rgb(0,0,0)" />
<circle cx="13.5461" cy="10.6935" r="0.5" fill="rgb(0,0,0)" />
<circle cx="15.0062" cy="11.041" r="0.5" fill="rgb(0,0,0)" />
<circle cx="12.2698" cy="10.7769" r="0.5" fill="rgb(0,0,0)" />
<circle cx="2.8905" cy="4.04802" r="0.5" fill="rgb(0,0,0)" />
<circle cx="10.8247" cy="10.9417" r="0.5" fill="rgb(0,0,0)" />
<circle cx="16.228" cy="12.0019" r="0.5" fill="rgb(0,0,0)" />
<circle cx="17.8579" cy="2.6515" r="0.5" fill="rgb(0,0,0)" />
<circle cx="2.57857" cy="11.9851" r="0.5" fill="rgb(0,0,0)" />
<circle cx="4.89392" cy="7.59087" r="0.5" fill="rgb(0,0,0)" />
<circle cx="6.02232" cy="12.438" r="0.5" fill="rgb(0,0,0)" />
<circle cx="10.2833" cy="12.3129" r="0.5" fill="rgb(0,0,0)" />
<circle cx="11.9524" cy="4.11409" r="0.5" fill="rgb(0,0,0)" />
<circle cx="8.08747" cy="12.4753" r="0.5" fill="rgb(0,0,0)" />
<circle cx="0.937376" cy="11.2926" r="0.5" fill="rgb(0,0,0)" />
<circle cx="9.176" cy="12.1863" r="0.5" fill="rgb(0,0,0)" />
<circle cx="10.8092" cy="4.85879" r="0.5" fill="rgb(0,0,0)" />
<circle cx="3.73724" cy="13.0166" r="0.5" fill="rgb(0,0,0)" />
<circle cx="15.0781" cy="13.4588" r="0.5" fill="rgb(0,0,0)" />
<circle cx="12.1267" cy="12.7877" r="0.5" fill="rgb(0,0,0)" />
<circle cx="10.5242" cy="13.4016" r="0.5" fill="rgb(0,0,0)" />
<circle cx="13.4384" cy="13.941" r="0.5" fill="rgb(0,0,0)" />
<circle cx="4.86234" cy="13.6907" r="0.5" fill="rgb(0,0,0)" />
<circle cx="16.5335" cy="13.5758" r="0.5" fill="rgb(0,0,0)" />
<circle cx="1.95328" cy="13.8463" r="0.5" fill="rgb(0,0,0)" />
<circle cx="14.3385" cy="14.199" r="0.5" fill="rgb(0,0,0)" />
<circle cx="15.946" cy="0.760491" r="0.5" fill="rgb(0,0,0)" />
<circle cx="11.3321" cy="6.97411" r="0.5" fill="rgb(0,0,0)" />
<circle cx="15.5546" cy="14.4775" r="0.5" fill="rgb(0,0,0)" />
<circle cx="12.4748" cy="14.2487" r="0.5" fill="rgb(0,0,0)" />
<circle cx="7.70177" cy="13.8893" r="0.5" fill="rgb(0,0,0)" />
<circle cx="3.48965" cy="14.519" r="0.5" fill="rgb(0,0,0)" />
<circle cx="6.20632" cy="14.1621" r="0.5" fill="rgb(0,0,0)" />
<circle cx="11.5436" cy="14.6304" r="0.5" fill="rgb(0,0,0)" />
<circle cx="8.94681" cy="14.56" r="0.5" fill="rgb(0,0,0)" />
<circle cx="6.01797" cy="9.25766" r="0.5" fill="rgb(0,0,0)" />
<circle cx="15.0285" cy="15.3308" r="0.5" fill="rgb(0,0,0)" />
<circle cx="17.3067" cy="0.691564" r="0.5" fill="rgb(0,0,0)" />
<circle cx="6.45359" cy="5.65415" r="0.5" fill="rgb(0,0,0)" />
<circle cx="7.59633" cy="5.99683" r="0.5" fill="rgb(0,0,0)" />
<circle cx="10.4014" cy="14.8975" r="0.5" fill="rgb(0,0,0)" />
<circle cx="14.8019" cy="12.4662" r="0.5" fill="rgb(0,0,0)" />
<circle cx="4.74921" cy="15.7928" r="0.5" fill="rgb(0,0,0)" />
<circle cx="13.3284" cy="15.297" r="0.5" fill="rgb(0,0,0)" />
<circle cx="7.35261" cy="15.5685" r="0.5" fill="rgb(0,0,0)" />
<circle cx="9.09573" cy="5.66598" r="0.5" fill="rgb(0,0,0)" />
<circle cx="16.3569" cy="15.4323" r="0.5" fill="rgb(0,0,0)" />
<circle cx="5.85455" cy="15.8956" r="0.5" fill="rgb(0,0,0)" />
<circle cx="14.1603" cy="5.70761" r="0.5" fill="rgb(0,0,0)" />
<circle cx="18.4083" cy="6.04239" r="0.5" fill="rgb(0,0,0)" />
<circle cx="11.9738" cy="15.6354" r="0.5" fill="rgb(0,0,0)" />
<circle cx="4.74479" cy="10.294" r="0.5" fill="rgb(0,0,0)" />
<circle cx="17.577" cy="15.0618" r="0.5" fill="rgb(0,0,0)" />
<circle cx="9.09533" cy="6.78014" r="0.5" fill="rgb(0,0,0)" />
<circle cx="1.28779" cy="16.1875" r="0.5" fill="rgb(0,0,0)" />
<circle cx="3.22242" cy="15.9961" r="0.5" fill="rgb(0,0,0)" />
<circle cx="18.0982" cy="1.74659" r="0.5" fill="rgb(0,0,0)" />
<circle cx="4.49949" cy="11.6342" r="0.5" fill="rgb(0,0,0)" />
<circle cx="6.63288" cy="16.4948" r="0.5" fill="rgb(0,0,0)" />
<circle cx="3.97992" cy="15.999" r="0.5" fill="rgb(0,0,0)" />
<circle cx="2.25299" cy="16.5035" r="0.5" fill="rgb(0,0,0)" />
<circle cx="9.27134" cy="16.066" r="0.5" fill="rgb(0,0,0)" />
<circle cx="3.94508" cy="1.88179" r="0.5" fill="rgb(0,0,0)" />
<circle cx="15.1797" cy="16.5448" r="0.5" fill="rgb(0,0,0)" />
<circle cx="13.2399" cy="3.71793" r="0.5" fill="rgb(0,0,0)" />
<circle cx="12.7407" cy="16.4918" r="0.5" fill="rgb(0,0,0)" />
<circle cx="3.23987" cy="10.7091" r="0.5" fill="rgb(0,0,0)" />
<circle cx="4.53131" cy="16.9213" r="0.5" fill="rgb(0,0,0)" />
<circle cx="14.1238" cy="17.0054" r="0.5" fill="rgb(0,0,0)" />
<circle cx="16.3569" cy="16.8773" r="0.5" fill="rgb(0,0,0)" />
<circle cx="10.9382" cy="16.6687" r="0.5" fill="rgb(0,0,0)" />
<circle cx="7.80302" cy="16.9535" r="0.5" fill="rgb(0,0,0)" />
<circle cx="17.6609" cy="17.15" r="0.5" fill="rgb(0,0,0)" />
<circle cx="14.6403" cy="0.379793" r="0.5" fill="rgb(0,0,0)" />
<circle cx="3.01081" cy="17.3364" r="0.5" fill="rgb(0,0,0)" />
<circle cx="5.6497" cy="17.2876" r="0.5" fill="rgb(0,0,0)" />
<circle cx="12.9235" cy="17.5051" r="0.5" fill="rgb(0,0,0)" />
<circle cx="1.20994" cy="17.9266" r="0.5" fill="rgb(0,0,0)" />
<circle cx="1.52245" cy="3.74544" r="0.5" fill="rgb(0,0,0)" />
<circle cx="2.13797" cy="17.8207" r="0.5" fill="rgb(0,0,0)" />
<circle cx="10.4495" cy="2.61103" r="0.5" fill="rgb(0,0,0)" />
<circle cx="9.08437" cy="17.3462" r="0.5" fill="rgb(0,0,0)" />
<circle cx="15.4758" cy="17.8748" r="0.5" fill="rgb(0,0,0)" />
<circle cx="6.75172" cy="17.7312" r="0.5" fill="rgb(0,0,0)" />
<circle cx="14.2792" cy="18.0739" r="0.5" fill="rgb(0,0,0)" />
<circle cx="17.9639" cy="11.472" r="0.5" fill="rgb(0,0,0)" />
<circle cx="16.722" cy="18.2116" r="0.5" fill="rgb(0,0,0)" />
<circle cx="16.5785" cy="8.74462" r="0.5" fill="rgb(0,0,0)" />
<circle cx="7.24045" cy="11.5022" r="0.5" fill="rgb(0,0,0)" />
<circle cx="18.0895" cy="9.5851" r="0.5" fill="rgb(0,0,0)" />
<circle cx="18.3604" cy="8.13647" r="0.5" fill="rgb(0,0,0)" />
<circle cx="0.593747" cy="14.8594" r="0.5" fill="rgb(0,0,0)" />
<circle cx="0.40742" cy="16.618" r="0.5" fill="rgb(0,0,0)" />
<circle cx="10.0278" cy="18.1452" r="0.5" fill="rgb(0,0,0)" />
<circle cx="5.14954" cy="14.9769" r="0.5" fill="rgb(0,0,0)" />
<circle cx="18.0733" cy="13.3899" r="0.5" fill="rgb(0,0,0)" />
<circle cx="0.46118" cy="6.80161" r="0.5" fill="rgb(0,0,0)" />
<circle cx="0.464824" cy="10.0888" r="0.5" fill="rgb(0,0,0)" />
<circle cx="1.40707" cy="17.2274" r="0.5" fill="rgb(0,0,0)" />
<circle cx="0.431122" cy="8.63228" r="0.5" fill="rgb(0,0,0)" />
<circle cx="11.5916" cy="18.1694" r="0.5" fill="rgb(0,0,0)" />
<circle cx="2.59763" cy="8.21484" r="0.5" fill="rgb(0,0,0)" />
<circle cx="18.391" cy="15.7829" r="0.5" fill="rgb(0,0,0)" />
<circle cx="8.2476" cy="18.0234" r="0.5" fill="rgb(0,0,0)" />
<circle cx="3.41644" cy="18.4366" r="0.5" fill="rgb(0,0,0)" />
<circle cx="13.0653" cy="1.72413" r="0.5" fill="rgb(0,0,0)" />
<circle cx="15.1737" cy="18.6533" r="0.5" fill="rgb(0,0,0)" />
<circle cx="2.19104" cy="15.3045" r="0.5" fill="rgb(0,0,0)" />
<circle cx="13.1962" cy="18.5034" r="0.5" fill="rgb(0,0,0)" />
<circle cx="8.05298" cy="18.6407" r="0.5" fill="rgb(0,0,0)" />
<circle cx="16.4713" cy="2.11012" r="0.5" fill="rgb(0,0,0)" />
<circle cx="13.4776" cy="12.3975" r="0.5" fill="rgb(0,0,0)" />
<circle cx="6.05117" cy="18.5072" r="0.5" fill="rgb(0,0,0)" />
<circle cx="1.4886" cy="9.14196" r="0.5" fill="rgb(0,0,0)" />
<circle cx="2.14456" cy="0.569336" r="0.5" fill="rgb(0,0,0)" />
<circle cx="0.456726" cy="3.51342" r="0.5" fill="rgb(0,0,0)" />
<circle cx="0.54911" cy="1.26566" r="0.5" fill="rgb(0,0,0)" />
<circle cx="0.273303" cy="17.8744" r="0.5" fill="rgb(0,0,0)" />
<circle cx="4.53624" cy="18.101" r="0.5" fill="rgb(0,0,0)" />
<circle cx="0.73637" cy="12.8117" r="0.5" fill="rgb(0,0,0)" />
<circle cx="2.03871" cy="18.6019" r="0.5" fill="rgb(0,0,0)" />
<circle cx="3.09486" cy="7.0857" r="0.5" fill="rgb(0,0,0)" />
<circle cx="9.47017" cy="7.94881" r="0.5" fill="rgb(0,0,0)" />
<circle cx="0.696292" cy="18.5859" r="0.5" fill="rgb(0,0,0)" />
<circle cx="17.7734" cy="18.582" r="0.5" fill="rgb(0,0,0)" />
<circle cx="7.77748" cy="0.557358" r="0.5" fill="rgb(0,0,0)" />
<circle cx="15.2876" cy="5.07334" r="0.5" fill="rgb(0,0,0)" />
<circle cx="14.1415" cy="15.8113" r="0.5" fill="rgb(0,0,0)" />
<circle cx="18.5061" cy="18.3492" r="0.5" fill="rgb(0,0,0)" />
<circle cx="8.50276" cy="9.11425" r="0.5" fill="rgb(0,0,0)" />
<circle cx="18.6052" cy="17.3289" r="0.5" fill="rgb(0,0,0)" />
</svg>
