<?xml version="1.0" ?>
<!DOCTYPE svg PUBLIC "-//W3C//DTD SVG 1.1//EN" "http://www.w3.org/Graphics/SVG/1.1/DTD/svg11.dtd">
<svg width="20" height="20" version="1.1" xmlns="http://www.w3.org/2000/svg">
<circle cx="8.02765" cy="0.281633" r="0.5" fill="rgb(0,0,0)" />
<circle cx="6.85387" cy="0.348464" r="0.5" fill="rgb(0,0,0)" />
<circle cx="14.8018" cy="0.394718" r="0.5" fill="rgb(0,0,0)" />
<circle cx="5.74829" cy="0.465828" r="0.5" fill="rgb(0,0,0)" />
<circle cx="12.3869" cy="0.49177" r="0.5" fill="rgb(0,0,0)" />
<circle cx="17.3289" cy="0.630207" r="0.5" fill="rgb(0,0,0)" />
<circle cx="7.93243" cy="1.1376" r="0.5" fill="rgb(0,0,0)" />
<circle cx="15.9803" cy="0.758546" r="0.5" fill="rgb(0,0,0)" />
<circle cx="11.3906" cy="0.716156" r="0.5" fill="rgb(0,0,0)" />
<circle cx="14.5014" cy="1.29795" r="0.5" fill="rgb(0,0,0)" />
<circle cx="10.3452" cy="0.303619" r="0.5" fill="rgb(0,0,0)" />
<circle cx="5.14098" cy="1.4925" r="0.5" fill="rgb(0,0,0)" />
<circle cx="12.1013" cy="1.58495" r="0.5" fill="rgb(0,0,0)" />
<circle cx="6.22066" cy="1.6602" r="0.5" fill="rgb(0,0,0)" />
<circle cx="13.4518" cy="1.67773" r="0.5" fill="rgb(0,0,0)" />
<circle cx="12.7277" cy="2.08351" r="0.5" fill="rgb(0,0,0)" />
<circle cx="17.0575" cy="1.89631" r="0.5" fill="rgb(0,0,0)" />
<circle cx="1.8263" cy="1.96118" r="0.5" fill="rgb(0,0,0)" />
<circle cx="13.0381" cy="2.74682" r="0.5" fill="rgb(0,0,0)" />
<circle cx="8.99477" cy="2.77099" r="0.5" fill="rgb(0,0,0)" />
<circle cx="3.18352" cy="2.81469" r="0.5" fill="rgb(0,0,0)" />
<circle cx="16.1379" cy="2.30003" r="0.5" fill="rgb(0,0,0)" />
<circle cx="15.3216" cy="2.45848" r="0.5" fill="rgb(0,0,0)" />
<circle cx="10.4665" cy="2.56909" r="0.5" fill="rgb(0,0,0)" />
<circle cx="14.5763" cy="3.06616" r="0.5" fill="rgb(0,0,0)" />
<circle cx="2.23279" cy="3.04136" r="0.5" fill="rgb(0,0,0)" />
<circle cx="16.7915" cy="3.34249" r="0.5" fill="rgb(0,0,0)" />
<circle cx="4.40299" cy="3.54813" r="0.5" fill="rgb(0,0,0)" />
<circle cx="5.30639" cy="3.66605" r="0.5" fill="rgb(0,0,0)" />
<circle cx="3.61062" cy="3.57244" r="0.5" fill="rgb(0,0,0)" />
<circle cx="6.03654" cy="3.38749" r="0.5" fill="rgb(0,0,0)" />
<circle cx="13.7108" cy="3.46722" r="0.5" fill="rgb(0,0,0)" />
<circle cx="15.4514" cy="3.79879" r="0.5" fill="rgb(0,0,0)" />
<circle cx="5.78689" cy="2.39744" r="0.5" fill="rgb(0,0,0)" />
<circle cx="8.58562" cy="3.82717" r="0.5" fill="rgb(0,0,0)" />
<circle cx="12.7113" cy="3.79728" r="0.5" fill="rgb(0,0,0)" />
<circle cx="16.7173" cy="4.43263" r="0.5" fill="rgb(0,0,0)" />
<circle cx="10.6362" cy="3.89492" r="0.5" fill="rgb(0,0,0)" />
<circle cx="3.25098" cy="1.56169" r="0.5" fill="rgb(0,0,0)" />
<circle cx="6.81456" cy="2.83599" r="0.5" fill="rgb(0,0,0)" />
<circle cx="17.5962" cy="4.33274" r="0.5" fill="rgb(0,0,0)" />
<circle cx="15.9381" cy="4.56309" r="0.5" fill="rgb(0,0,0)" />
<circle cx="5.4887" cy="4.60701" r="0.5" fill="rgb(0,0,0)" />
<circle cx="10.1024" cy="4.62425" r="0.5" fill="rgb(0,0,0)" />
<circle cx="2.18502" cy="4.83106" r="0.5" fill="rgb(0,0,0)" />
<circle cx="6.01836" cy="5.12021" r="0.5" fill="rgb(0,0,0)" />
<circle cx="13.5809" cy="4.81276" r="0.5" fill="rgb(0,0,0)" />
<circle cx="9.38212" cy="5.03742" r="0.5" fill="rgb(0,0,0)" />
<circle cx="4.65463" cy="5.38996" r="0.5" fill="rgb(0,0,0)" />
<circle cx="16.7697" cy="5.44838" r="0.5" fill="rgb(0,0,0)" />
<circle cx="6.6781" cy="5.56497" r="0.5" fill="rgb(0,0,0)" />
<circle cx="8.88661" cy="5.79754" r="0.5" fill="rgb(0,0,0)" />
<circle cx="15.2637" cy="5.11078" r="0.5" fill="rgb(0,0,0)" />
<circle cx="3.17275" cy="5.57812" r="0.5" fill="rgb(0,0,0)" />
<circle cx="7.53485" cy="6.04602" r="0.5" fill="rgb(0,0,0)" />
<circle cx="15.692" cy="6.03089" r="0.5" fill="rgb(0,0,0)" />
<circle cx="12.6074" cy="5.57296" r="0.5" fill="rgb(0,0,0)" />
<circle cx="14.3053" cy="5.75507" r="0.5" fill="rgb(0,0,0)" />
<circle cx="1.89258" cy="6.20286" r="0.5" fill="rgb(0,0,0)" />
<circle cx="4.32954" cy="6.39198" r="0.5" fill="rgb(0,0,0)" />
<circle cx="17.015" cy="6.4331" r="0.5" fill="rgb(0,0,0)" />
<circle cx="6.62143" cy="6.80314" r="0.5" fill="rgb(0,0,0)" />
<circle cx="9.68108" cy="6.51358" r="0.5" fill="rgb(0,0,0)" />
<circle cx="9.1573" cy="0.545549" r="0.5" fill="rgb(0,0,0)" />
<circle cx="7.67478" cy="7.17288" r="0.5" fill="rgb(0,0,0)" />
<circle cx="18.1081" cy="7.10284" r="0.5" fill="rgb(0,0,0)" />
<circle cx="5.01032" cy="2.79286" r="0.5" fill="rgb(0,0,0)" />
<circle cx="1.58693" cy="7.18162" r="0.5" fill="rgb(0,0,0)" />
<circle cx="2.94099" cy="7.03142" r="0.5" fill="rgb(0,0,0)" />
<circle cx="15.6678" cy="7.17475" r="0.5" fill="rgb(0,0,0)" />
<circle cx="12.6679" cy="7.03697" r="0.5" fill="rgb(0,0,0)" />
<circle cx="10.26" cy="7.24289" r="0.5" fill="rgb(0,0,0)" />
<circle cx="6.58546" cy="7.64833" r="0.5" fill="rgb(0,0,0)" />
<circle cx="5.25478" cy="7.46004" r="0.5" fill="rgb(0,0,0)" />
<circle cx="11.3188" cy="7.20063" r="0.5" fill="rgb(0,0,0)" />
<circle cx="1.23086" cy="7.99206" r="0.5" fill="rgb(0,0,0)" />
<circle cx="10.9771" cy="5.64052" r="0.5" fill="rgb(0,0,0)" />
<circle cx="7.34847" cy="8.13362" r="0.5" fill="rgb(0,0,0)" />
<circle cx="17.0767" cy="7.70805" r="0.5" fill="rgb(0,0,0)" />
<circle cx="2.61265" cy="8.19698" r="0.5" fill="rgb(0,0,0)" />
<circle cx="13.6635" cy="7.92689" r="0.5" fill="rgb(0,0,0)" />
<circle cx="9.35902" cy="7.99288" r="0.5" fill="rgb(0,0,0)" />
<circle cx="16.1438" cy="8.29303" r="0.5" fill="rgb(0,0,0)" />
<circle cx="14.9301" cy="8.512" r="0.5" fill="rgb(0,0,0)" />
<circle cx="10.3261" cy="8.50657" r="0.5" fill="rgb(0,0,0)" />
<circle cx="3.84954" cy="8.79205" r="0.5" fill="rgb(0,0,0)" />
<circle cx="8.45436" cy="8.98754" r="0.5" fill="rgb(0,0,0)" />
<circle cx="2.56716" cy="9.18853" r="0.5" fill="rgb(0,0,0)" />
<circle cx="12.1588" cy="8.40089" r="0.5" fill="rgb(0,0,0)" />
<circle cx="1.48875" cy="9.12818" r="0.5" fill="rgb(0,0,0)" />
<circle cx="4.91637" cy="9.01456" r="0.5" fill="rgb(0,0,0)" />
<circle cx="6.0752" cy="9.19259" r="0.5" fill="rgb(0,0,0)" />
<circle cx="17.0721" cy="9.17409" r="0.5" fill="rgb(0,0,0)" />
<circle cx="13.3583" cy="9.08623" r="0.5" fill="rgb(0,0,0)" />
<circle cx="9.07015" cy="9.80417" r="0.5" fill="rgb(0,0,0)" />
<circle cx="8.13361" cy="9.89145" r="0.5" fill="rgb(0,0,0)" />
<circle cx="9.84096" cy="9.39788" r="0.5" fill="rgb(0,0,0)" />
<circle cx="11.3702" cy="9.37778" r="0.5" fill="rgb(0,0,0)" />
<circle cx="4.69254" cy="10.1185" r="0.5" fill="rgb(0,0,0)" />
<circle cx="14.602" cy="9.79747" r="0.5" fill="rgb(0,0,0)" />
<circle cx="1.8329" cy="10.2" r="0.5" fill="rgb(0,0,0)" />
<circle cx="6.14852" cy="10.28" r="0.5" fill="rgb(0,0,0)" />
<circle cx="3.8005" cy="4.55066" r="0.5" fill="rgb(0,0,0)" />
<circle cx="15.8468" cy="9.51828" r="0.5" fill="rgb(0,0,0)" />
<circle cx="13.3015" cy="10.2162" r="0.5" fill="rgb(0,0,0)" />
<circle cx="11.6493" cy="2.67562" r="0.5" fill="rgb(0,0,0)" />
<circle cx="7.34914" cy="10.8253" r="0.5" fill="rgb(0,0,0)" />
<circle cx="17.9875" cy="2.58685" r="0.5" fill="rgb(0,0,0)" />
<circle cx="15.703" cy="10.6348" r="0.5" fill="rgb(0,0,0)" />
<circle cx="8.52875" cy="10.82" r="0.5" fill="rgb(0,0,0)" />
<circle cx="18.5998" cy="6.44539" r="0.5" fill="rgb(0,0,0)" />
<circle cx="9.61841" cy="10.7455" r="0.5" fill="rgb(0,0,0)" />
<circle cx="17.143" cy="10.6033" r="0.5" fill="rgb(0,0,0)" />
<circle cx="4.75531" cy="11.1273" r="0.5" fill="rgb(0,0,0)" />
<circle cx="13.6705" cy="11.2847" r="0.5" fill="rgb(0,0,0)" />
<circle cx="1.27254" cy="5.3194" r="0.5" fill="rgb(0,0,0)" />
<circle cx="3.26372" cy="10.5105" r="0.5" fill="rgb(0,0,0)" />
<circle cx="3.74866" cy="11.443" r="0.5" fill="rgb(0,0,0)" />
<circle cx="9.07648" cy="1.7381" r="0.5" fill="rgb(0,0,0)" />
<circle cx="6.00028" cy="11.4615" r="0.5" fill="rgb(0,0,0)" />
<circle cx="10.8328" cy="10.9536" r="0.5" fill="rgb(0,0,0)" />
<circle cx="2.77638" cy="4.02493" r="0.5" fill="rgb(0,0,0)" />
<circle cx="2.26137" cy="11.5359" r="0.5" fill="rgb(0,0,0)" />
<circle cx="7.9267" cy="4.94053" r="0.5" fill="rgb(0,0,0)" />
<circle cx="7.11715" cy="11.8746" r="0.5" fill="rgb(0,0,0)" />
<circle cx="16.1915" cy="12.0242" r="0.5" fill="rgb(0,0,0)" />
<circle cx="0.834527" cy="11.2835" r="0.5" fill="rgb(0,0,0)" />
<circle cx="3.32449" cy="12.4098" r="0.5" fill="rgb(0,0,0)" />
<circle cx="14.8202" cy="12.5632" r="0.5" fill="rgb(0,0,0)" />
<circle cx="7.46187" cy="3.80332" r="0.5" fill="rgb(0,0,0)" />
<circle cx="5.02682" cy="12.4568" r="0.5" fill="rgb(0,0,0)" />
<circle cx="13.4645" cy="12.5156" r="0.5" fill="rgb(0,0,0)" />
<circle cx="4.34183" cy="0.5704" r="0.5" fill="rgb(0,0,0)" />
<circle cx="10.3175" cy="12.3294" r="0.5" fill="rgb(0,0,0)" />
<circle cx="8.26949" cy="12.7197" r="0.5" fill="rgb(0,0,0)" />
<circle cx="15.0174" cy="13.4932" r="0.5" fill="rgb(0,0,0)" />
<circle cx="6.54255" cy="12.9059" r="0.5" fill="rgb(0,0,0)" />
<circle cx="14.3603" cy="7.03194" r="0.5" fill="rgb(0,0,0)" />
<circle cx="3.83431" cy="13.4527" r="0.5" fill="rgb(0,0,0)" />
<circle cx="10.5669" cy="13.3807" r="0.5" fill="rgb(0,0,0)" />
<circle cx="4.79591" cy="13.884" r="0.5" fill="rgb(0,0,0)" />
<circle cx="7.13661" cy="9.86716" r="0.5" fill="rgb(0,0,0)" />
<circle cx="13.4311" cy="13.8668" r="0.5" fill="rgb(0,0,0)" />
<circle cx="2.25162" cy="13.2506" r="0.5" fill="rgb(0,0,0)" />
<circle cx="16.3295" cy="13.3536" r="0.5" fill="rgb(0,0,0)" />
<circle cx="7.92615" cy="13.7189" r="0.5" fill="rgb(0,0,0)" />
<circle cx="12.1184" cy="12.7895" r="0.5" fill="rgb(0,0,0)" />
<circle cx="6.0368" cy="13.9694" r="0.5" fill="rgb(0,0,0)" />
<circle cx="14.2134" cy="2.25588" r="0.5" fill="rgb(0,0,0)" />
<circle cx="8.59668" cy="6.86934" r="0.5" fill="rgb(0,0,0)" />
<circle cx="14.3518" cy="14.212" r="0.5" fill="rgb(0,0,0)" />
<circle cx="17.1042" cy="14.0659" r="0.5" fill="rgb(0,0,0)" />
<circle cx="12.4768" cy="14.2451" r="0.5" fill="rgb(0,0,0)" />
<circle cx="3.07269" cy="14.4971" r="0.5" fill="rgb(0,0,0)" />
<circle cx="4.99367" cy="14.9054" r="0.5" fill="rgb(0,0,0)" />
<circle cx="13.4635" cy="15.0094" r="0.5" fill="rgb(0,0,0)" />
<circle cx="4.0006" cy="14.8741" r="0.5" fill="rgb(0,0,0)" />
<circle cx="9.19575" cy="14.4719" r="0.5" fill="rgb(0,0,0)" />
<circle cx="18.002" cy="14.7939" r="0.5" fill="rgb(0,0,0)" />
<circle cx="6.58511" cy="15.0101" r="0.5" fill="rgb(0,0,0)" />
<circle cx="11.536" cy="14.625" r="0.5" fill="rgb(0,0,0)" />
<circle cx="1.47171" cy="14.2763" r="0.5" fill="rgb(0,0,0)" />
<circle cx="15.043" cy="15.3073" r="0.5" fill="rgb(0,0,0)" />
<circle cx="5.66728" cy="15.5311" r="0.5" fill="rgb(0,0,0)" />
<circle cx="2.21876" cy="15.3676" r="0.5" fill="rgb(0,0,0)" />
<circle cx="7.85433" cy="15.0346" r="0.5" fill="rgb(0,0,0)" />
<circle cx="6.95802" cy="1.3653" r="0.5" fill="rgb(0,0,0)" />
<circle cx="10.4628" cy="14.9217" r="0.5" fill="rgb(0,0,0)" />
<circle cx="4.72093" cy="15.8375" r="0.5" fill="rgb(0,0,0)" />
<circle cx="4.19482" cy="2.2524" r="0.5" fill="rgb(0,0,0)" />
<circle cx="3.25627" cy="15.804" r="0.5" fill="rgb(0,0,0)" />
<circle cx="16.3262" cy="15.3816" r="0.5" fill="rgb(0,0,0)" />
<circle cx="11.9707" cy="15.64" r="0.5" fill="rgb(0,0,0)" />
<circle cx="13.2536" cy="15.8571" r="0.5" fill="rgb(0,0,0)" />
<circle cx="4.75257" cy="4.39861" r="0.5" fill="rgb(0,0,0)" />
<circle cx="1.29968" cy="16.1306" r="0.5" fill="rgb(0,0,0)" />
<circle cx="7.46447" cy="16.0998" r="0.5" fill="rgb(0,0,0)" />
<circle cx="17.2679" cy="16.2052" r="0.5" fill="rgb(0,0,0)" />
<circle cx="5.54198" cy="16.5383" r="0.5" fill="rgb(0,0,0)" />
<circle cx="7.79333" cy="2.40551" r="0.5" fill="rgb(0,0,0)" />
<circle cx="3.96968" cy="16.1728" r="0.5" fill="rgb(0,0,0)" />
<circle cx="11.7027" cy="4.23931" r="0.5" fill="rgb(0,0,0)" />
<circle cx="6.55378" cy="16.4736" r="0.5" fill="rgb(0,0,0)" />
<circle cx="9.28188" cy="16.0776" r="0.5" fill="rgb(0,0,0)" />
<circle cx="12.5627" cy="16.5982" r="0.5" fill="rgb(0,0,0)" />
<circle cx="1.27961" cy="17.2615" r="0.5" fill="rgb(0,0,0)" />
<circle cx="15.1431" cy="16.4758" r="0.5" fill="rgb(0,0,0)" />
<circle cx="14.1617" cy="16.9778" r="0.5" fill="rgb(0,0,0)" />
<circle cx="2.97632" cy="16.7185" r="0.5" fill="rgb(0,0,0)" />
<circle cx="12.2052" cy="10.9408" r="0.5" fill="rgb(0,0,0)" />
<circle cx="4.46683" cy="16.982" r="0.5" fill="rgb(0,0,0)" />
<circle cx="10.8692" cy="16.5947" r="0.5" fill="rgb(0,0,0)" />
<circle cx="15.8897" cy="17.0299" r="0.5" fill="rgb(0,0,0)" />
<circle cx="16.8353" cy="17.3009" r="0.5" fill="rgb(0,0,0)" />
<circle cx="7.83015" cy="17.0687" r="0.5" fill="rgb(0,0,0)" />
<circle cx="1.96987" cy="17.7468" r="0.5" fill="rgb(0,0,0)" />
<circle cx="13.1777" cy="17.4546" r="0.5" fill="rgb(0,0,0)" />
<circle cx="10.4003" cy="1.44263" r="0.5" fill="rgb(0,0,0)" />
<circle cx="18.5081" cy="4.53126" r="0.5" fill="rgb(0,0,0)" />
<circle cx="18.3893" cy="3.35025" r="0.5" fill="rgb(0,0,0)" />
<circle cx="8.47289" cy="8.0827" r="0.5" fill="rgb(0,0,0)" />
<circle cx="1.2144" cy="17.8887" r="0.5" fill="rgb(0,0,0)" />
<circle cx="14.268" cy="15.7562" r="0.5" fill="rgb(0,0,0)" />
<circle cx="18.3786" cy="1.67052" r="0.5" fill="rgb(0,0,0)" />
<circle cx="3.66972" cy="9.65382" r="0.5" fill="rgb(0,0,0)" />
<circle cx="18.4431" cy="0.493222" r="0.5" fill="rgb(0,0,0)" />
<circle cx="17.8291" cy="17.4566" r="0.5" fill="rgb(0,0,0)" />
<circle cx="15.5349" cy="14.4604" r="0.5" fill="rgb(0,0,0)" />
<circle cx="5.67495" cy="17.4152" r="0.5" fill="rgb(0,0,0)" />
<circle cx="2.81031" cy="17.702" r="0.5" fill="rgb(0,0,0)" />
<circle cx="9.04626" cy="17.3323" r="0.5" fill="rgb(0,0,0)" />
<circle cx="18.1233" cy="13.178" r="0.5" fill="rgb(0,0,0)" />
<circle cx="15.4441" cy="17.9706" r="0.5" fill="rgb(0,0,0)" />
<circle cx="6.77584" cy="17.7252" r="0.5" fill="rgb(0,0,0)" />
<circle cx="14.4845" cy="4.27075" r="0.5" fill="rgb(0,0,0)" />
<circle cx="8.23777" cy="18.0416" r="0.5" fill="rgb(0,0,0)" />
<circle cx="6.59422" cy="4.28242" r="0.5" fill="rgb(0,0,0)" />
<circle cx="14.2986" cy="18.0458" r="0.5" fill="rgb(0,0,0)" />
<circle cx="12.0479" cy="17.9277" r="0.5" fill="rgb(0,0,0)" />
<circle cx="10.9998" cy="18.3765" r="0.5" fill="rgb(0,0,0)" />
<circle cx="18.0613" cy="11.6082" r="0.5" fill="rgb(0,0,0)" />
<circle cx="9.91114" cy="17.9769" r="0.5" fill="rgb(0,0,0)" />
<circle cx="4.53341" cy="18.1266" r="0.5" fill="rgb(0,0,0)" />
<circle cx="0.421155" cy="16.5959" r="0.5" fill="rgb(0,0,0)" />
<circle cx="16.6427" cy="18.4112" r="0.5" fill="rgb(0,0,0)" />
<circle cx="5.73667" cy="6.30442" r="0.5" fill="rgb(0,0,0)" />
<circle cx="2.81449" cy="9.747" r="0.5" fill="rgb(0,0,0)" />
<circle cx="0.504633" cy="14.94" r="0.5" fill="rgb(0,0,0)" />
<circle cx="0.677021" cy="12.8095" r="0.5" fill="rgb(0,0,0)" />
<circle cx="8.16659" cy="11.6132" r="0.5" fill="rgb(0,0,0)" />
<circle cx="0.467327" cy="10.0575" r="0.5" fill="rgb(0,0,0)" />
<circle cx="9.63842" cy="3.51334" r="0.5" fill="rgb(0,0,0)" />
<circle cx="0.432809" cy="8.63448" r="0.5" fill="rgb(0,0,0)" />
<circle cx="18.3182" cy="9.60538" r="0.5" fill="rgb(0,0,0)" />
<circle cx="18.1503" cy="5.59641" r="0.5" fill="rgb(0,0,0)" />
<circle cx="18.361" cy="8.14121" r="0.5" fill="rgb(0,0,0)" />
<circle cx="3.44762" cy="18.4167" r="0.5" fill="rgb(0,0,0)" />
<circle cx="4.07605" cy="7.62491" r="0.5" fill="rgb(0,0,0)" />
<circle cx="9.23084" cy="12.1303" r="0.5" fill="rgb(0,0,0)" />
<circle cx="18.4611" cy="15.8222" r="0.5" fill="rgb(0,0,0)" />
<circle cx="15.0874" cy="18.6667" r="0.5" fill="rgb(0,0,0)" />
<circle cx="13.242" cy="18.5281" r="0.5" fill="rgb(0,0,0)" />
<circle cx="8.10439" cy="18.6507" r="0.5" fill="rgb(0,0,0)" />
<circle cx="6.06344" cy="18.5178" r="0.5" fill="rgb(0,0,0)" />
<circle cx="1.48329" cy="3.69446" r="0.5" fill="rgb(0,0,0)" />
<circle cx="0.467086" cy="6.82353" r="0.5" fill="rgb(0,0,0)" />
<circle cx="2.53302" cy="0.544311" r="0.5" fill="rgb(0,0,0)" />
<circle cx="0.767561" cy="0.736266" r="0.5" fill="rgb(0,0,0)" />
<circle cx="0.568706" cy="2.37808" r="0.5" fill="rgb(0,0,0)" />
<circle cx="13.4806" cy="0.493888" r="0.5" fill="rgb(0,0,0)" />
<circle cx="14.8431" cy="11.3096" r="0.5" fill="rgb(0,0,0)" />
<circle cx="0.403392" cy="5.15427" r="0.5" fill="rgb(0,0,0)" />
<circle cx="0.473501" cy="3.79556" r="0.5" fill="rgb(0,0,0)" />
<circle cx="0.278948" cy="17.6546" r="0.5" fill="rgb(0,0,0)" />
<circle cx="5.89824" cy="8.25142" r="0.5" fill="rgb(0,0,0)" />
<circle cx="0.370721" cy="18.4709" r="0.5" fill="rgb(0,0,0)" />
<circle cx="2.09471" cy="18.5955" r="0.5" fill="rgb(0,0,0)" />
<circle cx="7.2717" cy="9.04856" r="0.5" fill="rgb(0,0,0)" />
<circle cx="1.08505" cy="18.5812" r="0.5" fill="rgb(0,0,0)" />
<circle cx="1.99883" cy="16.664" r="0.5" fill="rgb(0,0,0)" />
<circle cx="17.8261" cy="18.5988" r="0.5" fill="rgb(0,0,0)" />
<circle cx="18.5632" cy="18.3851" r="0.5" fill="rgb(0,0,0)" />
<circle cx="18.6098" cy="17.2738" r="0.5" fill="rgb(0,0,0)" />
</svg>
