<?xml version="1.0" ?>
<!DOCTYPE svg PUBLIC "-//W3C//DTD SVG 1.1//EN" "http://www.w3.org/Graphics/SVG/1.1/DTD/svg11.dtd">
<svg width="20" height="20" version="1.1" xmlns="http://www.w3.org/2000/svg">
<circle cx="8.0049" cy="0.659303" r="0.5" fill="rgb(0,0,0)" />
<circle cx="14.2947" cy="1.22912" r="0.5" fill="rgb(0,0,0)" />
<circle cx="7.00335" cy="1.4355" r="0.5" fill="rgb(0,0,0)" />
<circle cx="11.996" cy="1.43127" r="0.5" fill="rgb(0,0,0)" />
<circle cx="14.1252" cy="2.15738" r="0.5" fill="rgb(0,0,0)" />
<circle cx="9.08587" cy="1.88644" r="0.5" fill="rgb(0,0,0)" />
<circle cx="4.27012" cy="2.18718" r="0.5" fill="rgb(0,0,0)" />
<circle cx="14.6403" cy="0.379793" r="0.5" fill="rgb(0,0,0)" />
<circle cx="4.99941" cy="2.85635" r="0.5" fill="rgb(0,0,0)" />
<circle cx="18.0921" cy="1.74864" r="0.5" fill="rgb(0,0,0)" />
<circle cx="18.4606" cy="0.571189" r="0.5" fill="rgb(0,0,0)" />
<circle cx="15.399" cy="2.46029" r="0.5" fill="rgb(0,0,0)" />
<circle cx="13.0147" cy="2.73657" r="0.5" fill="rgb(0,0,0)" />
<circle cx="11.6806" cy="2.70228" r="0.5" fill="rgb(0,0,0)" />
<circle cx="3.3624" cy="3.00698" r="0.5" fill="rgb(0,0,0)" />
<circle cx="14.442" cy="3.13014" r="0.5" fill="rgb(0,0,0)" />
<circle cx="16.7664" cy="3.37872" r="0.5" fill="rgb(0,0,0)" />
<circle cx="4.31639" cy="0.622805" r="0.5" fill="rgb(0,0,0)" />
<circle cx="9.42046" cy="3.13049" r="0.5" fill="rgb(0,0,0)" />
<circle cx="15.323" cy="3.87276" r="0.5" fill="rgb(0,0,0)" />
<circle cx="1.52789" cy="3.71915" r="0.5" fill="rgb(0,0,0)" />
<circle cx="8.59403" cy="3.80132" r="0.5" fill="rgb(0,0,0)" />
<circle cx="4.12923" cy="4.50517" r="0.5" fill="rgb(0,0,0)" />
<circle cx="16.2182" cy="4.44518" r="0.5" fill="rgb(0,0,0)" />
<circle cx="13.9932" cy="4.49806" r="0.5" fill="rgb(0,0,0)" />
<circle cx="5.34916" cy="4.68823" r="0.5" fill="rgb(0,0,0)" />
<circle cx="16.8148" cy="5.33242" r="0.5" fill="rgb(0,0,0)" />
<circle cx="10.7929" cy="4.82229" r="0.5" fill="rgb(0,0,0)" />
<circle cx="6.81941" cy="2.77711" r="0.5" fill="rgb(0,0,0)" />
<circle cx="18.1494" cy="5.57995" r="0.5" fill="rgb(0,0,0)" />
<circle cx="15.6684" cy="6.01833" r="0.5" fill="rgb(0,0,0)" />
<circle cx="12.368" cy="5.52028" r="0.5" fill="rgb(0,0,0)" />
<circle cx="7.56726" cy="6.01922" r="0.5" fill="rgb(0,0,0)" />
<circle cx="6.61566" cy="6.8141" r="0.5" fill="rgb(0,0,0)" />
<circle cx="2.28605" cy="2.99462" r="0.5" fill="rgb(0,0,0)" />
<circle cx="18.5986" cy="6.44678" r="0.5" fill="rgb(0,0,0)" />
<circle cx="7.93871" cy="7.00897" r="0.5" fill="rgb(0,0,0)" />
<circle cx="1.6271" cy="7.17035" r="0.5" fill="rgb(0,0,0)" />
<circle cx="10.315" cy="6.84008" r="0.5" fill="rgb(0,0,0)" />
<circle cx="15.6621" cy="7.17501" r="0.5" fill="rgb(0,0,0)" />
<circle cx="12.7859" cy="7.00259" r="0.5" fill="rgb(0,0,0)" />
<circle cx="6.56629" cy="7.62883" r="0.5" fill="rgb(0,0,0)" />
<circle cx="4.89499" cy="7.58809" r="0.5" fill="rgb(0,0,0)" />
<circle cx="17.5142" cy="4.3262" r="0.5" fill="rgb(0,0,0)" />
<circle cx="1.22116" cy="7.98801" r="0.5" fill="rgb(0,0,0)" />
<circle cx="7.39639" cy="8.07406" r="0.5" fill="rgb(0,0,0)" />
<circle cx="3.16419" cy="1.43395" r="0.5" fill="rgb(0,0,0)" />
<circle cx="5.95304" cy="8.18887" r="0.5" fill="rgb(0,0,0)" />
<circle cx="11.0605" cy="0.41572" r="0.5" fill="rgb(0,0,0)" />
<circle cx="16.1317" cy="8.37797" r="0.5" fill="rgb(0,0,0)" />
<circle cx="3.82457" cy="8.63265" r="0.5" fill="rgb(0,0,0)" />
<circle cx="10.3815" cy="8.45038" r="0.5" fill="rgb(0,0,0)" />
<circle cx="7.27655" cy="9.05233" r="0.5" fill="rgb(0,0,0)" />
<circle cx="5.71483" cy="1.48304" r="0.5" fill="rgb(0,0,0)" />
<circle cx="1.49093" cy="9.13674" r="0.5" fill="rgb(0,0,0)" />
<circle cx="8.50261" cy="9.0835" r="0.5" fill="rgb(0,0,0)" />
<circle cx="13.531" cy="8.38043" r="0.5" fill="rgb(0,0,0)" />
<circle cx="6.01533" cy="9.23892" r="0.5" fill="rgb(0,0,0)" />
<circle cx="17.0144" cy="9.25785" r="0.5" fill="rgb(0,0,0)" />
<circle cx="12.1825" cy="8.46166" r="0.5" fill="rgb(0,0,0)" />
<circle cx="3.69204" cy="9.6512" r="0.5" fill="rgb(0,0,0)" />
<circle cx="6.12546" cy="3.57697" r="0.5" fill="rgb(0,0,0)" />
<circle cx="9.71588" cy="9.44502" r="0.5" fill="rgb(0,0,0)" />
<circle cx="11.3934" cy="9.38596" r="0.5" fill="rgb(0,0,0)" />
<circle cx="14.0868" cy="9.56518" r="0.5" fill="rgb(0,0,0)" />
<circle cx="8.17694" cy="10.1482" r="0.5" fill="rgb(0,0,0)" />
<circle cx="4.74247" cy="10.2098" r="0.5" fill="rgb(0,0,0)" />
<circle cx="15.6225" cy="9.94633" r="0.5" fill="rgb(0,0,0)" />
<circle cx="9.37768" cy="10.5337" r="0.5" fill="rgb(0,0,0)" />
<circle cx="6.17199" cy="4.93283" r="0.5" fill="rgb(0,0,0)" />
<circle cx="3.29527" cy="10.6595" r="0.5" fill="rgb(0,0,0)" />
<circle cx="16.9164" cy="10.6342" r="0.5" fill="rgb(0,0,0)" />
<circle cx="4.84995" cy="8.93967" r="0.5" fill="rgb(0,0,0)" />
<circle cx="13.5351" cy="10.6694" r="0.5" fill="rgb(0,0,0)" />
<circle cx="12.8384" cy="0.48992" r="0.5" fill="rgb(0,0,0)" />
<circle cx="8.20484" cy="11.253" r="0.5" fill="rgb(0,0,0)" />
<circle cx="14.9059" cy="11.1534" r="0.5" fill="rgb(0,0,0)" />
<circle cx="12.261" cy="10.8017" r="0.5" fill="rgb(0,0,0)" />
<circle cx="5.73465" cy="11.5571" r="0.5" fill="rgb(0,0,0)" />
<circle cx="16.1913" cy="12.0321" r="0.5" fill="rgb(0,0,0)" />
<circle cx="2.31744" cy="11.6777" r="0.5" fill="rgb(0,0,0)" />
<circle cx="3.33029" cy="12.4173" r="0.5" fill="rgb(0,0,0)" />
<circle cx="9.24116" cy="12.0486" r="0.5" fill="rgb(0,0,0)" />
<circle cx="0.815142" cy="11.2772" r="0.5" fill="rgb(0,0,0)" />
<circle cx="6.27368" cy="12.8154" r="0.5" fill="rgb(0,0,0)" />
<circle cx="15.0836" cy="13.4724" r="0.5" fill="rgb(0,0,0)" />
<circle cx="1.97386" cy="6.23266" r="0.5" fill="rgb(0,0,0)" />
<circle cx="12.1241" cy="12.7877" r="0.5" fill="rgb(0,0,0)" />
<circle cx="10.5381" cy="13.4012" r="0.5" fill="rgb(0,0,0)" />
<circle cx="5.73476" cy="0.390892" r="0.5" fill="rgb(0,0,0)" />
<circle cx="4.94092" cy="13.54" r="0.5" fill="rgb(0,0,0)" />
<circle cx="7.85038" cy="2.40514" r="0.5" fill="rgb(0,0,0)" />
<circle cx="6.25367" cy="10.3823" r="0.5" fill="rgb(0,0,0)" />
<circle cx="13.4382" cy="13.9445" r="0.5" fill="rgb(0,0,0)" />
<circle cx="11.9522" cy="4.11426" r="0.5" fill="rgb(0,0,0)" />
<circle cx="16.5348" cy="13.5528" r="0.5" fill="rgb(0,0,0)" />
<circle cx="14.3145" cy="7.07536" r="0.5" fill="rgb(0,0,0)" />
<circle cx="6.09997" cy="14.0537" r="0.5" fill="rgb(0,0,0)" />
<circle cx="14.3383" cy="14.2013" r="0.5" fill="rgb(0,0,0)" />
<circle cx="5.214" cy="3.6724" r="0.5" fill="rgb(0,0,0)" />
<circle cx="6.62049" cy="5.58857" r="0.5" fill="rgb(0,0,0)" />
<circle cx="1.89445" cy="13.8343" r="0.5" fill="rgb(0,0,0)" />
<circle cx="15.946" cy="0.760491" r="0.5" fill="rgb(0,0,0)" />
<circle cx="4.15811" cy="3.56959" r="0.5" fill="rgb(0,0,0)" />
<circle cx="11.3358" cy="6.98391" r="0.5" fill="rgb(0,0,0)" />
<circle cx="15.552" cy="14.478" r="0.5" fill="rgb(0,0,0)" />
<circle cx="12.4748" cy="14.2487" r="0.5" fill="rgb(0,0,0)" />
<circle cx="7.7018" cy="14.0369" r="0.5" fill="rgb(0,0,0)" />
<circle cx="3.09709" cy="14.4099" r="0.5" fill="rgb(0,0,0)" />
<circle cx="17.8473" cy="2.64143" r="0.5" fill="rgb(0,0,0)" />
<circle cx="4.0082" cy="14.8202" r="0.5" fill="rgb(0,0,0)" />
<circle cx="2.5662" cy="9.1935" r="0.5" fill="rgb(0,0,0)" />
<circle cx="5.0182" cy="14.9149" r="0.5" fill="rgb(0,0,0)" />
<circle cx="8.96063" cy="14.5788" r="0.5" fill="rgb(0,0,0)" />
<circle cx="11.5436" cy="14.6304" r="0.5" fill="rgb(0,0,0)" />
<circle cx="3.92564" cy="13.2518" r="0.5" fill="rgb(0,0,0)" />
<circle cx="6.13903" cy="15.2816" r="0.5" fill="rgb(0,0,0)" />
<circle cx="8.11297" cy="4.96323" r="0.5" fill="rgb(0,0,0)" />
<circle cx="15.0285" cy="15.3308" r="0.5" fill="rgb(0,0,0)" />
<circle cx="13.3284" cy="15.297" r="0.5" fill="rgb(0,0,0)" />
<circle cx="17.3067" cy="0.691564" r="0.5" fill="rgb(0,0,0)" />
<circle cx="10.3965" cy="14.9077" r="0.5" fill="rgb(0,0,0)" />
<circle cx="4.83005" cy="15.8522" r="0.5" fill="rgb(0,0,0)" />
<circle cx="7.49842" cy="15.5917" r="0.5" fill="rgb(0,0,0)" />
<circle cx="16.3569" cy="15.4345" r="0.5" fill="rgb(0,0,0)" />
<circle cx="14.1607" cy="5.70762" r="0.5" fill="rgb(0,0,0)" />
<circle cx="11.9738" cy="15.6354" r="0.5" fill="rgb(0,0,0)" />
<circle cx="17.5728" cy="15.0786" r="0.5" fill="rgb(0,0,0)" />
<circle cx="9.30965" cy="0.555135" r="0.5" fill="rgb(0,0,0)" />
<circle cx="2.85089" cy="4.10335" r="0.5" fill="rgb(0,0,0)" />
<circle cx="9.09062" cy="6.78229" r="0.5" fill="rgb(0,0,0)" />
<circle cx="1.2862" cy="16.1899" r="0.5" fill="rgb(0,0,0)" />
<circle cx="4.16551" cy="6.62614" r="0.5" fill="rgb(0,0,0)" />
<circle cx="5.57016" cy="16.3743" r="0.5" fill="rgb(0,0,0)" />
<circle cx="4.01168" cy="16.0918" r="0.5" fill="rgb(0,0,0)" />
<circle cx="1.7204" cy="2.0185" r="0.5" fill="rgb(0,0,0)" />
<circle cx="5.60697" cy="6.32262" r="0.5" fill="rgb(0,0,0)" />
<circle cx="8.22765" cy="12.8063" r="0.5" fill="rgb(0,0,0)" />
<circle cx="6.63775" cy="16.4626" r="0.5" fill="rgb(0,0,0)" />
<circle cx="7.23143" cy="10.0476" r="0.5" fill="rgb(0,0,0)" />
<circle cx="2.23327" cy="16.5215" r="0.5" fill="rgb(0,0,0)" />
<circle cx="8.46851" cy="7.9516" r="0.5" fill="rgb(0,0,0)" />
<circle cx="3.20545" cy="16.1401" r="0.5" fill="rgb(0,0,0)" />
<circle cx="9.19153" cy="5.72163" r="0.5" fill="rgb(0,0,0)" />
<circle cx="15.1797" cy="16.5448" r="0.5" fill="rgb(0,0,0)" />
<circle cx="4.24112" cy="5.46638" r="0.5" fill="rgb(0,0,0)" />
<circle cx="14.8037" cy="12.5276" r="0.5" fill="rgb(0,0,0)" />
<circle cx="1.40627" cy="17.2278" r="0.5" fill="rgb(0,0,0)" />
<circle cx="13.2399" cy="3.71793" r="0.5" fill="rgb(0,0,0)" />
<circle cx="12.7407" cy="16.4918" r="0.5" fill="rgb(0,0,0)" />
<circle cx="4.47517" cy="16.9594" r="0.5" fill="rgb(0,0,0)" />
<circle cx="13.4838" cy="12.3951" r="0.5" fill="rgb(0,0,0)" />
<circle cx="14.1238" cy="17.0054" r="0.5" fill="rgb(0,0,0)" />
<circle cx="16.3569" cy="16.8773" r="0.5" fill="rgb(0,0,0)" />
<circle cx="7.81084" cy="16.977" r="0.5" fill="rgb(0,0,0)" />
<circle cx="17.6609" cy="17.15" r="0.5" fill="rgb(0,0,0)" />
<circle cx="2.96582" cy="17.3587" r="0.5" fill="rgb(0,0,0)" />
<circle cx="10.8279" cy="10.9404" r="0.5" fill="rgb(0,0,0)" />
<circle cx="12.9235" cy="17.5051" r="0.5" fill="rgb(0,0,0)" />
<circle cx="1.20994" cy="17.9266" r="0.5" fill="rgb(0,0,0)" />
<circle cx="2.13475" cy="17.8215" r="0.5" fill="rgb(0,0,0)" />
<circle cx="10.4509" cy="2.61153" r="0.5" fill="rgb(0,0,0)" />
<circle cx="9.08749" cy="17.3639" r="0.5" fill="rgb(0,0,0)" />
<circle cx="4.48174" cy="11.5073" r="0.5" fill="rgb(0,0,0)" />
<circle cx="15.4758" cy="17.8748" r="0.5" fill="rgb(0,0,0)" />
<circle cx="5.74176" cy="2.34393" r="0.5" fill="rgb(0,0,0)" />
<circle cx="6.77246" cy="17.7245" r="0.5" fill="rgb(0,0,0)" />
<circle cx="3.12573" cy="7.14061" r="0.5" fill="rgb(0,0,0)" />
<circle cx="14.2792" cy="18.0739" r="0.5" fill="rgb(0,0,0)" />
<circle cx="18.1069" cy="7.10147" r="0.5" fill="rgb(0,0,0)" />
<circle cx="16.722" cy="18.2116" r="0.5" fill="rgb(0,0,0)" />
<circle cx="18.0559" cy="11.5926" r="0.5" fill="rgb(0,0,0)" />
<circle cx="6.8862" cy="0.347015" r="0.5" fill="rgb(0,0,0)" />
<circle cx="5.66204" cy="17.3896" r="0.5" fill="rgb(0,0,0)" />
<circle cx="0.587752" cy="14.8599" r="0.5" fill="rgb(0,0,0)" />
<circle cx="10.0626" cy="5.31369" r="0.5" fill="rgb(0,0,0)" />
<circle cx="0.40742" cy="16.6238" r="0.5" fill="rgb(0,0,0)" />
<circle cx="18.0803" cy="13.4909" r="0.5" fill="rgb(0,0,0)" />
<circle cx="10.0278" cy="18.1452" r="0.5" fill="rgb(0,0,0)" />
<circle cx="7.20531" cy="4.00347" r="0.5" fill="rgb(0,0,0)" />
<circle cx="2.161" cy="15.3378" r="0.5" fill="rgb(0,0,0)" />
<circle cx="9.26503" cy="16.068" r="0.5" fill="rgb(0,0,0)" />
<circle cx="0.462066" cy="10.0567" r="0.5" fill="rgb(0,0,0)" />
<circle cx="2.7306" cy="5.25379" r="0.5" fill="rgb(0,0,0)" />
<circle cx="0.432639" cy="8.63268" r="0.5" fill="rgb(0,0,0)" />
<circle cx="1.85249" cy="10.2303" r="0.5" fill="rgb(0,0,0)" />
<circle cx="11.5916" cy="18.1694" r="0.5" fill="rgb(0,0,0)" />
<circle cx="18.3011" cy="9.61528" r="0.5" fill="rgb(0,0,0)" />
<circle cx="2.81636" cy="9.74715" r="0.5" fill="rgb(0,0,0)" />
<circle cx="18.367" cy="8.14465" r="0.5" fill="rgb(0,0,0)" />
<circle cx="18.4943" cy="4.52653" r="0.5" fill="rgb(0,0,0)" />
<circle cx="18.4467" cy="3.24362" r="0.5" fill="rgb(0,0,0)" />
<circle cx="2.59822" cy="8.21257" r="0.5" fill="rgb(0,0,0)" />
<circle cx="18.401" cy="15.7754" r="0.5" fill="rgb(0,0,0)" />
<circle cx="0.45647" cy="3.48379" r="0.5" fill="rgb(0,0,0)" />
<circle cx="8.2476" cy="18.0286" r="0.5" fill="rgb(0,0,0)" />
<circle cx="3.41644" cy="18.4346" r="0.5" fill="rgb(0,0,0)" />
<circle cx="13.0653" cy="1.72413" r="0.5" fill="rgb(0,0,0)" />
<circle cx="1.35887" cy="5.21404" r="0.5" fill="rgb(0,0,0)" />
<circle cx="17.0722" cy="7.71843" r="0.5" fill="rgb(0,0,0)" />
<circle cx="0.794399" cy="12.825" r="0.5" fill="rgb(0,0,0)" />
<circle cx="15.1737" cy="18.6533" r="0.5" fill="rgb(0,0,0)" />
<circle cx="13.1962" cy="18.5034" r="0.5" fill="rgb(0,0,0)" />
<circle cx="17.0072" cy="6.41492" r="0.5" fill="rgb(0,0,0)" />
<circle cx="14.9943" cy="8.54016" r="0.5" fill="rgb(0,0,0)" />
<circle cx="10.9374" cy="16.6687" r="0.5" fill="rgb(0,0,0)" />
<circle cx="0.47523" cy="6.80793" r="0.5" fill="rgb(0,0,0)" />
<circle cx="0.409856" cy="5.13272" r="0.5" fill="rgb(0,0,0)" />
<circle cx="15.2843" cy="5.07417" r="0.5" fill="rgb(0,0,0)" />
<circle cx="8.05298" cy="18.6407" r="0.5" fill="rgb(0,0,0)" />
<circle cx="16.4805" cy="2.11827" r="0.5" fill="rgb(0,0,0)" />
<circle cx="6.05117" cy="18.5181" r="0.5" fill="rgb(0,0,0)" />
<circle cx="0.499592" cy="1.29492" r="0.5" fill="rgb(0,0,0)" />
<circle cx="10.5193" cy="1.35478" r="0.5" fill="rgb(0,0,0)" />
<circle cx="1.90755" cy="0.488943" r="0.5" fill="rgb(0,0,0)" />
<circle cx="0.273303" cy="17.8744" r="0.5" fill="rgb(0,0,0)" />
<circle cx="4.53676" cy="18.104" r="0.5" fill="rgb(0,0,0)" />
<circle cx="2.03871" cy="18.6019" r="0.5" fill="rgb(0,0,0)" />
<circle cx="9.47018" cy="7.94749" r="0.5" fill="rgb(0,0,0)" />
<circle cx="0.696292" cy="18.5859" r="0.5" fill="rgb(0,0,0)" />
<circle cx="7.13086" cy="11.6752" r="0.5" fill="rgb(0,0,0)" />
<circle cx="10.2811" cy="12.3369" r="0.5" fill="rgb(0,0,0)" />
<circle cx="17.7734" cy="18.582" r="0.5" fill="rgb(0,0,0)" />
<circle cx="14.1415" cy="15.8113" r="0.5" fill="rgb(0,0,0)" />
<circle cx="18.5061" cy="18.3492" r="0.5" fill="rgb(0,0,0)" />
<circle cx="10.3732" cy="3.8256" r="0.5" fill="rgb(0,0,0)" />
<circle cx="18.6052" cy="17.3289" r="0.5" fill="rgb(0,0,0)" />
</svg>
