<?xml version="1.0" ?>
<!DOCTYPE svg PUBLIC "-//W3C//DTD SVG 1.1//EN" "http://www.w3.org/Graphics/SVG/1.1/DTD/svg11.dtd">
<svg width="20" height="20" version="1.1" xmlns="http://www.w3.org/2000/svg">
<circle cx="16.5375" cy="1.68311" r="0.5" fill="rgb(0,0,0)" />
<circle cx="5.67257" cy="1.25849" r="0.5" fill="rgb(0,0,0)" />
<circle cx="14.0943" cy="2.65202" r="0.5" fill="rgb(0,0,0)" />
<circle cx="13.0537" cy="4.1827" r="0.5" fill="rgb(0,0,0)" />
<circle cx="11.2863" cy="3.8858" r="0.5" fill="rgb(0,0,0)" />
<circle cx="7.09327" cy="5.10302" r="0.5" fill="rgb(0,0,0)" />
<circle cx="16.0751" cy="6.4115" r="0.5" fill="rgb(0,0,0)" />
<circle cx="3.55309" cy="6.07703" r="0.5" fill="rgb(0,0,0)" />
<circle cx="12.7778" cy="1.75022" r="0.5" fill="rgb(0,0,0)" />
<circle cx="14.5098" cy="7.12802" r="0.5" fill="rgb(0,0,0)" />
<circle cx="15.2432" cy="4.11073" r="0.5" fill="rgb(0,0,0)" />
<circle cx="5.49452" cy="7.37929" r="0.5" fill="rgb(0,0,0)" />
<circle cx="16.227" cy="8.30689" r="0.5" fill="rgb(0,0,0)" />
<circle cx="7.824" cy="7.36046" r="0.5" fill="rgb(0,0,0)" />
<circle cx="13.75" cy="8.8222" r="0.5" fill="rgb(0,0,0)" />
<circle cx="4.00888" cy="9.43433" r="0.5" fill="rgb(0,0,0)" />
<circle cx="6.37525" cy="10.0601" r="0.5" fill="rgb(0,0,0)" />
<circle cx="8.76443" cy="10.4636" r="0.5" fill="rgb(0,0,0)" />
<circle cx="15.9773" cy="10.41" r="0.5" fill="rgb(0,0,0)" />
<circle cx="14.0543" cy="10.9521" r="0.5" fill="rgb(0,0,0)" />
<circle cx="11.2275" cy="11.0213" r="0.5" fill="rgb(0,0,0)" />
<circle cx="3.83087" cy="11.753" r="0.5" fill="rgb(0,0,0)" />
<circle cx="17.1229" cy="3.77164" r="0.5" fill="rgb(0,0,0)" />
<circle cx="12.5461" cy="12.5256" r="0.5" fill="rgb(0,0,0)" />
<circle cx="14.9327" cy="12.9368" r="0.5" fill="rgb(0,0,0)" />
<circle cx="8.26845" cy="12.5672" r="0.5" fill="rgb(0,0,0)" />
<circle cx="6.1448" cy="12.9779" r="0.5" fill="rgb(0,0,0)" />
<circle cx="14.837" cy="14.9313" r="0.5" fill="rgb(0,0,0)" />
<circle cx="17.849" cy="14.6028" r="0.5" fill="rgb(0,0,0)" />
<circle cx="3.79501" cy="14.482" r="0.5" fill="rgb(0,0,0)" />
<circle cx="11.1397" cy="0.922851" r="0.5" fill="rgb(0,0,0)" />
<circle cx="12.314" cy="6.53859" r="0.5" fill="rgb(0,0,0)" />
<circle cx="2.58223" cy="8.28845" r="0.5" fill="rgb(0,0,0)" />
<circle cx="12.6974" cy="15.6962" r="0.5" fill="rgb(0,0,0)" />
<circle cx="14.1685" cy="16.1238" r="0.5" fill="rgb(0,0,0)" />
<circle cx="7.91367" cy="15.2973" r="0.5" fill="rgb(0,0,0)" />
<circle cx="5.59014" cy="15.8112" r="0.5" fill="rgb(0,0,0)" />
<circle cx="16.0421" cy="16.553" r="0.5" fill="rgb(0,0,0)" />
<circle cx="10.0734" cy="13.2744" r="0.5" fill="rgb(0,0,0)" />
<circle cx="1.09266" cy="4.13863" r="0.5" fill="rgb(0,0,0)" />
<circle cx="12.0821" cy="17.1072" r="0.5" fill="rgb(0,0,0)" />
<circle cx="16.4873" cy="5.10581" r="0.5" fill="rgb(0,0,0)" />
<circle cx="14.2336" cy="5.41791" r="0.5" fill="rgb(0,0,0)" />
<circle cx="17.6058" cy="12.4048" r="0.5" fill="rgb(0,0,0)" />
<circle cx="14.1813" cy="17.8492" r="0.5" fill="rgb(0,0,0)" />
<circle cx="15.6129" cy="2.63618" r="0.5" fill="rgb(0,0,0)" />
<circle cx="12.3081" cy="18.4157" r="0.5" fill="rgb(0,0,0)" />
<circle cx="10.0691" cy="17.4022" r="0.5" fill="rgb(0,0,0)" />
<circle cx="9.48525" cy="8.53271" r="0.5" fill="rgb(0,0,0)" />
<circle cx="15.719" cy="18.2702" r="0.5" fill="rgb(0,0,0)" />
<circle cx="10.6407" cy="15.2021" r="0.5" fill="rgb(0,0,0)" />
<circle cx="17.2059" cy="17.8914" r="0.5" fill="rgb(0,0,0)" />
<circle cx="5.59815" cy="3.71485" r="0.5" fill="rgb(0,0,0)" />
<circle cx="0.870533" cy="17.8915" r="0.5" fill="rgb(0,0,0)" />
<circle cx="1.17191" cy="15.482" r="0.5" fill="rgb(0,0,0)" />
<circle cx="1.27324" cy="13.0794" r="0.5" fill="rgb(0,0,0)" />
<circle cx="11.5782" cy="8.81947" r="0.5" fill="rgb(0,0,0)" />
<circle cx="1.21109" cy="10.5845" r="0.5" fill="rgb(0,0,0)" />
<circle cx="16.3069" cy="14.3909" r="0.5" fill="rgb(0,0,0)" />
<circle cx="18.0021" cy="10.15" r="0.5" fill="rgb(0,0,0)" />
<circle cx="0.771547" cy="8.28987" r="0.5" fill="rgb(0,0,0)" />
<circle cx="8.29707" cy="1.10001" r="0.5" fill="rgb(0,0,0)" />
<circle cx="18.1583" cy="8.1773" r="0.5" fill="rgb(0,0,0)" />
<circle cx="1.01509" cy="6.2125" r="0.5" fill="rgb(0,0,0)" />
<circle cx="18.4009" cy="17.8805" r="0.5" fill="rgb(0,0,0)" />
<circle cx="18.1432" cy="16.0601" r="0.5" fill="rgb(0,0,0)" />
<circle cx="17.909" cy="6.56833" r="0.5" fill="rgb(0,0,0)" />
<circle cx="8.32625" cy="17.8795" r="0.5" fill="rgb(0,0,0)" />
<circle cx="6.36687" cy="17.8514" r="0.5" fill="rgb(0,0,0)" />
<circle cx="2.6757" cy="17.2181" r="0.5" fill="rgb(0,0,0)" />
<circle cx="4.22897" cy="17.8345" r="0.5" fill="rgb(0,0,0)" />
<circle cx="0.920187" cy="1.50471" r="0.5" fill="rgb(0,0,0)" />
<circle cx="10.0068" cy="6.05541" r="0.5" fill="rgb(0,0,0)" />
<circle cx="3.07222" cy="0.949982" r="0.5" fill="rgb(0,0,0)" />
<circle cx="3.27709" cy="3.39421" r="0.5" fill="rgb(0,0,0)" />
<circle cx="12.7029" cy="14.1561" r="0.5" fill="rgb(0,0,0)" />
<circle cx="18.2779" cy="4.92443" r="0.5" fill="rgb(0,0,0)" />
<circle cx="9.11623" cy="3.28516" r="0.5" fill="rgb(0,0,0)" />
<circle cx="17.8356" cy="0.726565" r="0.5" fill="rgb(0,0,0)" />
<circle cx="18.1831" cy="2.68473" r="0.5" fill="rgb(0,0,0)" />
<circle cx="14.7562" cy="0.658786" r="0.5" fill="rgb(0,0,0)" />
</svg>
