<?xml version="1.0" ?>
<!DOCTYPE svg PUBLIC "-//W3C//DTD SVG 1.1//EN" "http://www.w3.org/Graphics/SVG/1.1/DTD/svg11.dtd">
<svg width="20" height="20" version="1.1" xmlns="http://www.w3.org/2000/svg">
<circle cx="16.8731" cy="0.582386" r="0.5" fill="rgb(0,0,0)" />
<circle cx="12.7214" cy="0.602393" r="0.5" fill="rgb(0,0,0)" />
<circle cx="8.30626" cy="0.571451" r="0.5" fill="rgb(0,0,0)" />
<circle cx="6.83975" cy="1.01849" r="0.5" fill="rgb(0,0,0)" />
<circle cx="16.301" cy="1.70599" r="0.5" fill="rgb(0,0,0)" />
<circle cx="13.9107" cy="1.81841" r="0.5" fill="rgb(0,0,0)" />
<circle cx="3.89833" cy="1.69579" r="0.5" fill="rgb(0,0,0)" />
<circle cx="1.9432" cy="2.00731" r="0.5" fill="rgb(0,0,0)" />
<circle cx="18.0135" cy="1.87744" r="0.5" fill="rgb(0,0,0)" />
<circle cx="10.5872" cy="0.753525" r="0.5" fill="rgb(0,0,0)" />
<circle cx="18.3642" cy="0.609884" r="0.5" fill="rgb(0,0,0)" />
<circle cx="9.15047" cy="1.82321" r="0.5" fill="rgb(0,0,0)" />
<circle cx="16.7403" cy="3.17897" r="0.5" fill="rgb(0,0,0)" />
<circle cx="3.11468" cy="3.07197" r="0.5" fill="rgb(0,0,0)" />
<circle cx="13.2098" cy="3.52461" r="0.5" fill="rgb(0,0,0)" />
<circle cx="15.1473" cy="3.95009" r="0.5" fill="rgb(0,0,0)" />
<circle cx="17.5675" cy="4.26961" r="0.5" fill="rgb(0,0,0)" />
<circle cx="4.33893" cy="4.75827" r="0.5" fill="rgb(0,0,0)" />
<circle cx="16.204" cy="4.55177" r="0.5" fill="rgb(0,0,0)" />
<circle cx="11.7093" cy="4.09123" r="0.5" fill="rgb(0,0,0)" />
<circle cx="14.765" cy="5.20564" r="0.5" fill="rgb(0,0,0)" />
<circle cx="17.0025" cy="5.65692" r="0.5" fill="rgb(0,0,0)" />
<circle cx="15.7197" cy="6.0598" r="0.5" fill="rgb(0,0,0)" />
<circle cx="2.64267" cy="4.94293" r="0.5" fill="rgb(0,0,0)" />
<circle cx="7.38945" cy="5.92618" r="0.5" fill="rgb(0,0,0)" />
<circle cx="4.3592" cy="6.11429" r="0.5" fill="rgb(0,0,0)" />
<circle cx="6.06035" cy="6.66246" r="0.5" fill="rgb(0,0,0)" />
<circle cx="8.34962" cy="6.65397" r="0.5" fill="rgb(0,0,0)" />
<circle cx="11.2996" cy="6.58485" r="0.5" fill="rgb(0,0,0)" />
<circle cx="1.73699" cy="7.13346" r="0.5" fill="rgb(0,0,0)" />
<circle cx="3.48887" cy="7.09503" r="0.5" fill="rgb(0,0,0)" />
<circle cx="17.0333" cy="7.26894" r="0.5" fill="rgb(0,0,0)" />
<circle cx="2.54628" cy="8.12448" r="0.5" fill="rgb(0,0,0)" />
<circle cx="7.82669" cy="2.7179" r="0.5" fill="rgb(0,0,0)" />
<circle cx="9.02799" cy="7.83295" r="0.5" fill="rgb(0,0,0)" />
<circle cx="10.4379" cy="8.2736" r="0.5" fill="rgb(0,0,0)" />
<circle cx="2.3757" cy="9.08068" r="0.5" fill="rgb(0,0,0)" />
<circle cx="12.2887" cy="8.19298" r="0.5" fill="rgb(0,0,0)" />
<circle cx="6.72774" cy="3.7741" r="0.5" fill="rgb(0,0,0)" />
<circle cx="5.19668" cy="8.91266" r="0.5" fill="rgb(0,0,0)" />
<circle cx="8.35525" cy="8.96418" r="0.5" fill="rgb(0,0,0)" />
<circle cx="3.867" cy="8.91804" r="0.5" fill="rgb(0,0,0)" />
<circle cx="13.9687" cy="8.60739" r="0.5" fill="rgb(0,0,0)" />
<circle cx="2.98443" cy="9.88974" r="0.5" fill="rgb(0,0,0)" />
<circle cx="1.51442" cy="9.86777" r="0.5" fill="rgb(0,0,0)" />
<circle cx="9.83767" cy="9.60103" r="0.5" fill="rgb(0,0,0)" />
<circle cx="7.53333" cy="10.1052" r="0.5" fill="rgb(0,0,0)" />
<circle cx="8.38871" cy="4.41516" r="0.5" fill="rgb(0,0,0)" />
<circle cx="9.11415" cy="10.7023" r="0.5" fill="rgb(0,0,0)" />
<circle cx="12.1245" cy="2.09344" r="0.5" fill="rgb(0,0,0)" />
<circle cx="13.3996" cy="10.4204" r="0.5" fill="rgb(0,0,0)" />
<circle cx="14.803" cy="11.1756" r="0.5" fill="rgb(0,0,0)" />
<circle cx="4.7731" cy="10.655" r="0.5" fill="rgb(0,0,0)" />
<circle cx="5.88751" cy="2.41296" r="0.5" fill="rgb(0,0,0)" />
<circle cx="3.04718" cy="10.98" r="0.5" fill="rgb(0,0,0)" />
<circle cx="11.5122" cy="11.0639" r="0.5" fill="rgb(0,0,0)" />
<circle cx="14.9055" cy="0.622109" r="0.5" fill="rgb(0,0,0)" />
<circle cx="1.67765" cy="5.74767" r="0.5" fill="rgb(0,0,0)" />
<circle cx="10.3909" cy="12.0205" r="0.5" fill="rgb(0,0,0)" />
<circle cx="12.72" cy="12.4364" r="0.5" fill="rgb(0,0,0)" />
<circle cx="14.668" cy="12.6931" r="0.5" fill="rgb(0,0,0)" />
<circle cx="14.1164" cy="6.79919" r="0.5" fill="rgb(0,0,0)" />
<circle cx="9.07943" cy="12.5114" r="0.5" fill="rgb(0,0,0)" />
<circle cx="3.65139" cy="12.4945" r="0.5" fill="rgb(0,0,0)" />
<circle cx="5.37744" cy="7.69414" r="0.5" fill="rgb(0,0,0)" />
<circle cx="7.67834" cy="12.2995" r="0.5" fill="rgb(0,0,0)" />
<circle cx="16.3145" cy="12.0636" r="0.5" fill="rgb(0,0,0)" />
<circle cx="6.15393" cy="12.4535" r="0.5" fill="rgb(0,0,0)" />
<circle cx="16.0222" cy="13.8583" r="0.5" fill="rgb(0,0,0)" />
<circle cx="0.436532" cy="9.56863" r="0.5" fill="rgb(0,0,0)" />
<circle cx="1.12222" cy="11.4687" r="0.5" fill="rgb(0,0,0)" />
<circle cx="14.0313" cy="13.9226" r="0.5" fill="rgb(0,0,0)" />
<circle cx="13.3171" cy="5.04764" r="0.5" fill="rgb(0,0,0)" />
<circle cx="5.4808" cy="13.7708" r="0.5" fill="rgb(0,0,0)" />
<circle cx="6.0827" cy="5.12149" r="0.5" fill="rgb(0,0,0)" />
<circle cx="12.3932" cy="14.1035" r="0.5" fill="rgb(0,0,0)" />
<circle cx="7.02207" cy="8.17611" r="0.5" fill="rgb(0,0,0)" />
<circle cx="15.0494" cy="15.0812" r="0.5" fill="rgb(0,0,0)" />
<circle cx="5.27772" cy="3.64211" r="0.5" fill="rgb(0,0,0)" />
<circle cx="8.28937" cy="14.2871" r="0.5" fill="rgb(0,0,0)" />
<circle cx="1.80352" cy="3.44929" r="0.5" fill="rgb(0,0,0)" />
<circle cx="12.5951" cy="6.32739" r="0.5" fill="rgb(0,0,0)" />
<circle cx="2.00154" cy="14.4318" r="0.5" fill="rgb(0,0,0)" />
<circle cx="4.88665" cy="15.0876" r="0.5" fill="rgb(0,0,0)" />
<circle cx="3.4697" cy="14.747" r="0.5" fill="rgb(0,0,0)" />
<circle cx="18.2429" cy="6.47198" r="0.5" fill="rgb(0,0,0)" />
<circle cx="4.01545" cy="3.56831" r="0.5" fill="rgb(0,0,0)" />
<circle cx="17.7971" cy="14.9054" r="0.5" fill="rgb(0,0,0)" />
<circle cx="14.0965" cy="15.8373" r="0.5" fill="rgb(0,0,0)" />
<circle cx="16.3987" cy="15.4061" r="0.5" fill="rgb(0,0,0)" />
<circle cx="13.1997" cy="15.2608" r="0.5" fill="rgb(0,0,0)" />
<circle cx="5.9671" cy="15.5222" r="0.5" fill="rgb(0,0,0)" />
<circle cx="10.1286" cy="14.967" r="0.5" fill="rgb(0,0,0)" />
<circle cx="11.3671" cy="15.5628" r="0.5" fill="rgb(0,0,0)" />
<circle cx="15.3889" cy="2.42513" r="0.5" fill="rgb(0,0,0)" />
<circle cx="6.67842" cy="16.4957" r="0.5" fill="rgb(0,0,0)" />
<circle cx="14.3787" cy="3.17111" r="0.5" fill="rgb(0,0,0)" />
<circle cx="15.2761" cy="16.4963" r="0.5" fill="rgb(0,0,0)" />
<circle cx="12.2488" cy="16.4692" r="0.5" fill="rgb(0,0,0)" />
<circle cx="0.757411" cy="8.05839" r="0.5" fill="rgb(0,0,0)" />
<circle cx="11.6482" cy="9.52175" r="0.5" fill="rgb(0,0,0)" />
<circle cx="1.67758" cy="16.4136" r="0.5" fill="rgb(0,0,0)" />
<circle cx="2.88697" cy="16.8667" r="0.5" fill="rgb(0,0,0)" />
<circle cx="7.59555" cy="15.6382" r="0.5" fill="rgb(0,0,0)" />
<circle cx="13.847" cy="17.0341" r="0.5" fill="rgb(0,0,0)" />
<circle cx="16.5365" cy="16.9754" r="0.5" fill="rgb(0,0,0)" />
<circle cx="16.3338" cy="8.6331" r="0.5" fill="rgb(0,0,0)" />
<circle cx="10.7401" cy="13.4427" r="0.5" fill="rgb(0,0,0)" />
<circle cx="9.27022" cy="16.4616" r="0.5" fill="rgb(0,0,0)" />
<circle cx="5.59193" cy="17.2534" r="0.5" fill="rgb(0,0,0)" />
<circle cx="15.2589" cy="17.8001" r="0.5" fill="rgb(0,0,0)" />
<circle cx="8.23596" cy="17.5394" r="0.5" fill="rgb(0,0,0)" />
<circle cx="12.222" cy="17.7277" r="0.5" fill="rgb(0,0,0)" />
<circle cx="4.27858" cy="16.4775" r="0.5" fill="rgb(0,0,0)" />
<circle cx="7.04654" cy="17.7708" r="0.5" fill="rgb(0,0,0)" />
<circle cx="17.2155" cy="17.8908" r="0.5" fill="rgb(0,0,0)" />
<circle cx="0.944976" cy="13.1936" r="0.5" fill="rgb(0,0,0)" />
<circle cx="17.9184" cy="13.3709" r="0.5" fill="rgb(0,0,0)" />
<circle cx="17.9312" cy="11.3799" r="0.5" fill="rgb(0,0,0)" />
<circle cx="17.9453" cy="9.65983" r="0.5" fill="rgb(0,0,0)" />
<circle cx="18.2266" cy="8.11913" r="0.5" fill="rgb(0,0,0)" />
<circle cx="4.49187" cy="18.1312" r="0.5" fill="rgb(0,0,0)" />
<circle cx="9.8855" cy="6.54145" r="0.5" fill="rgb(0,0,0)" />
<circle cx="18.4007" cy="4.9946" r="0.5" fill="rgb(0,0,0)" />
<circle cx="15.8118" cy="9.9649" r="0.5" fill="rgb(0,0,0)" />
<circle cx="18.2958" cy="3.14046" r="0.5" fill="rgb(0,0,0)" />
<circle cx="12.6977" cy="18.5194" r="0.5" fill="rgb(0,0,0)" />
<circle cx="15.9528" cy="18.5357" r="0.5" fill="rgb(0,0,0)" />
<circle cx="14.169" cy="18.2937" r="0.5" fill="rgb(0,0,0)" />
<circle cx="0.450242" cy="6.29891" r="0.5" fill="rgb(0,0,0)" />
<circle cx="0.598054" cy="4.0554" r="0.5" fill="rgb(0,0,0)" />
<circle cx="6.2583" cy="10.4082" r="0.5" fill="rgb(0,0,0)" />
<circle cx="18.2421" cy="16.0043" r="0.5" fill="rgb(0,0,0)" />
<circle cx="5.27209" cy="1.44064" r="0.5" fill="rgb(0,0,0)" />
<circle cx="15.4518" cy="7.4864" r="0.5" fill="rgb(0,0,0)" />
<circle cx="0.527644" cy="15.6033" r="0.5" fill="rgb(0,0,0)" />
<circle cx="10.5285" cy="17.8211" r="0.5" fill="rgb(0,0,0)" />
<circle cx="5.00665" cy="0.358266" r="0.5" fill="rgb(0,0,0)" />
<circle cx="0.607457" cy="1.19882" r="0.5" fill="rgb(0,0,0)" />
<circle cx="2.51103" cy="0.569494" r="0.5" fill="rgb(0,0,0)" />
<circle cx="0.516867" cy="17.9391" r="0.5" fill="rgb(0,0,0)" />
<circle cx="3.2056" cy="18.3099" r="0.5" fill="rgb(0,0,0)" />
<circle cx="1.76417" cy="18.2199" r="0.5" fill="rgb(0,0,0)" />
<circle cx="10.1274" cy="4.9224" r="0.5" fill="rgb(0,0,0)" />
<circle cx="8.74552" cy="18.5026" r="0.5" fill="rgb(0,0,0)" />
<circle cx="6.07868" cy="18.4799" r="0.5" fill="rgb(0,0,0)" />
<circle cx="10.256" cy="2.95364" r="0.5" fill="rgb(0,0,0)" />
<circle cx="18.1376" cy="18.5193" r="0.5" fill="rgb(0,0,0)" />
<circle cx="18.3535" cy="17.2965" r="0.5" fill="rgb(0,0,0)" />
</svg>
