<?xml version="1.0" ?>
<!DOCTYPE svg PUBLIC "-//W3C//DTD SVG 1.1//EN" "http://www.w3.org/Graphics/SVG/1.1/DTD/svg11.dtd">
<svg width="20" height="20" version="1.1" xmlns="http://www.w3.org/2000/svg">
<circle cx="12.7769" cy="1.75196" r="0.5" fill="rgb(0,0,0)" />
<circle cx="15.6119" cy="2.64168" r="0.5" fill="rgb(0,0,0)" />
<circle cx="14.0942" cy="2.64904" r="0.5" fill="rgb(0,0,0)" />
<circle cx="17.1387" cy="3.77172" r="0.5" fill="rgb(0,0,0)" />
<circle cx="15.2226" cy="4.13043" r="0.5" fill="rgb(0,0,0)" />
<circle cx="11.275" cy="3.9005" r="0.5" fill="rgb(0,0,0)" />
<circle cx="5.58644" cy="3.76636" r="0.5" fill="rgb(0,0,0)" />
<circle cx="14.26" cy="5.57034" r="0.5" fill="rgb(0,0,0)" />
<circle cx="16.2326" cy="6.69452" r="0.5" fill="rgb(0,0,0)" />
<circle cx="14.908" cy="7.44626" r="0.5" fill="rgb(0,0,0)" />
<circle cx="3.41245" cy="6.48354" r="0.5" fill="rgb(0,0,0)" />
<circle cx="5.28667" cy="7.79829" r="0.5" fill="rgb(0,0,0)" />
<circle cx="9.18828" cy="9.22783" r="0.5" fill="rgb(0,0,0)" />
<circle cx="2.46891" cy="9.61082" r="0.5" fill="rgb(0,0,0)" />
<circle cx="9.10828" cy="3.30807" r="0.5" fill="rgb(0,0,0)" />
<circle cx="6.49922" cy="10.0691" r="0.5" fill="rgb(0,0,0)" />
<circle cx="16.0482" cy="9.64827" r="0.5" fill="rgb(0,0,0)" />
<circle cx="14.2992" cy="10.9809" r="0.5" fill="rgb(0,0,0)" />
<circle cx="11.1847" cy="11.0006" r="0.5" fill="rgb(0,0,0)" />
<circle cx="11.1397" cy="0.923951" r="0.5" fill="rgb(0,0,0)" />
<circle cx="7.8659" cy="7.33826" r="0.5" fill="rgb(0,0,0)" />
<circle cx="12.5469" cy="12.4587" r="0.5" fill="rgb(0,0,0)" />
<circle cx="16.4462" cy="5.16564" r="0.5" fill="rgb(0,0,0)" />
<circle cx="14.8943" cy="12.9628" r="0.5" fill="rgb(0,0,0)" />
<circle cx="6.23777" cy="12.9627" r="0.5" fill="rgb(0,0,0)" />
<circle cx="9.90187" cy="13.4088" r="0.5" fill="rgb(0,0,0)" />
<circle cx="12.4783" cy="14.2193" r="0.5" fill="rgb(0,0,0)" />
<circle cx="16.3153" cy="14.3457" r="0.5" fill="rgb(0,0,0)" />
<circle cx="13.0748" cy="4.1878" r="0.5" fill="rgb(0,0,0)" />
<circle cx="14.7989" cy="14.9318" r="0.5" fill="rgb(0,0,0)" />
<circle cx="17.9092" cy="7.22397" r="0.5" fill="rgb(0,0,0)" />
<circle cx="7.00829" cy="5.17363" r="0.5" fill="rgb(0,0,0)" />
<circle cx="17.8557" cy="14.544" r="0.5" fill="rgb(0,0,0)" />
<circle cx="13.6343" cy="8.81308" r="0.5" fill="rgb(0,0,0)" />
<circle cx="12.6689" cy="15.8606" r="0.5" fill="rgb(0,0,0)" />
<circle cx="7.92573" cy="15.2508" r="0.5" fill="rgb(0,0,0)" />
<circle cx="3.76374" cy="14.334" r="0.5" fill="rgb(0,0,0)" />
<circle cx="16.0377" cy="16.5583" r="0.5" fill="rgb(0,0,0)" />
<circle cx="5.64705" cy="15.7888" r="0.5" fill="rgb(0,0,0)" />
<circle cx="1.09189" cy="4.17547" r="0.5" fill="rgb(0,0,0)" />
<circle cx="5.67209" cy="1.26372" r="0.5" fill="rgb(0,0,0)" />
<circle cx="17.5419" cy="12.1876" r="0.5" fill="rgb(0,0,0)" />
<circle cx="18.0005" cy="9.64013" r="0.5" fill="rgb(0,0,0)" />
<circle cx="14.2006" cy="17.7807" r="0.5" fill="rgb(0,0,0)" />
<circle cx="8.29709" cy="1.09997" r="0.5" fill="rgb(0,0,0)" />
<circle cx="2.6648" cy="17.2367" r="0.5" fill="rgb(0,0,0)" />
<circle cx="12.8423" cy="18.2531" r="0.5" fill="rgb(0,0,0)" />
<circle cx="11.4619" cy="17.6177" r="0.5" fill="rgb(0,0,0)" />
<circle cx="0.864239" cy="17.8642" r="0.5" fill="rgb(0,0,0)" />
<circle cx="10.0022" cy="6.20568" r="0.5" fill="rgb(0,0,0)" />
<circle cx="15.6921" cy="18.2704" r="0.5" fill="rgb(0,0,0)" />
<circle cx="17.2046" cy="17.8891" r="0.5" fill="rgb(0,0,0)" />
<circle cx="1.17087" cy="15.3463" r="0.5" fill="rgb(0,0,0)" />
<circle cx="1.25554" cy="12.4978" r="0.5" fill="rgb(0,0,0)" />
<circle cx="3.28061" cy="3.47124" r="0.5" fill="rgb(0,0,0)" />
<circle cx="8.51256" cy="11.777" r="0.5" fill="rgb(0,0,0)" />
<circle cx="9.252" cy="17.7235" r="0.5" fill="rgb(0,0,0)" />
<circle cx="14.164" cy="16.1364" r="0.5" fill="rgb(0,0,0)" />
<circle cx="0.811142" cy="8.85633" r="0.5" fill="rgb(0,0,0)" />
<circle cx="12.3991" cy="6.50743" r="0.5" fill="rgb(0,0,0)" />
<circle cx="1.04102" cy="6.40449" r="0.5" fill="rgb(0,0,0)" />
<circle cx="18.4009" cy="17.8805" r="0.5" fill="rgb(0,0,0)" />
<circle cx="18.138" cy="16.0602" r="0.5" fill="rgb(0,0,0)" />
<circle cx="6.8142" cy="17.8494" r="0.5" fill="rgb(0,0,0)" />
<circle cx="4.32525" cy="17.8192" r="0.5" fill="rgb(0,0,0)" />
<circle cx="10.4492" cy="15.5519" r="0.5" fill="rgb(0,0,0)" />
<circle cx="0.923956" cy="1.50871" r="0.5" fill="rgb(0,0,0)" />
<circle cx="16.5379" cy="1.68172" r="0.5" fill="rgb(0,0,0)" />
<circle cx="3.07212" cy="0.961056" r="0.5" fill="rgb(0,0,0)" />
<circle cx="18.2473" cy="5.08518" r="0.5" fill="rgb(0,0,0)" />
<circle cx="4.00888" cy="11.2238" r="0.5" fill="rgb(0,0,0)" />
<circle cx="18.1915" cy="2.70265" r="0.5" fill="rgb(0,0,0)" />
<circle cx="17.8356" cy="0.726927" r="0.5" fill="rgb(0,0,0)" />
<circle cx="11.506" cy="8.76201" r="0.5" fill="rgb(0,0,0)" />
<circle cx="14.7562" cy="0.658786" r="0.5" fill="rgb(0,0,0)" />
</svg>
