<?xml version="1.0" ?>
<!DOCTYPE svg PUBLIC "-//W3C//DTD SVG 1.1//EN" "http://www.w3.org/Graphics/SVG/1.1/DTD/svg11.dtd">
<svg width="20" height="20" version="1.1" xmlns="http://www.w3.org/2000/svg">
<circle cx="14.9441" cy="0.6037" r="0.5" fill="rgb(0,0,0)" />
<circle cx="12.7956" cy="0.558512" r="0.5" fill="rgb(0,0,0)" />
<circle cx="5.2687" cy="1.44416" r="0.5" fill="rgb(0,0,0)" />
<circle cx="8.29503" cy="0.573333" r="0.5" fill="rgb(0,0,0)" />
<circle cx="10.5243" cy="0.707619" r="0.5" fill="rgb(0,0,0)" />
<circle cx="14.023" cy="1.70415" r="0.5" fill="rgb(0,0,0)" />
<circle cx="16.3011" cy="1.71003" r="0.5" fill="rgb(0,0,0)" />
<circle cx="3.77599" cy="1.52614" r="0.5" fill="rgb(0,0,0)" />
<circle cx="15.3996" cy="2.44337" r="0.5" fill="rgb(0,0,0)" />
<circle cx="12.8936" cy="2.58069" r="0.5" fill="rgb(0,0,0)" />
<circle cx="7.84992" cy="2.71905" r="0.5" fill="rgb(0,0,0)" />
<circle cx="14.3498" cy="3.14562" r="0.5" fill="rgb(0,0,0)" />
<circle cx="10.2508" cy="2.98243" r="0.5" fill="rgb(0,0,0)" />
<circle cx="15.1603" cy="3.94062" r="0.5" fill="rgb(0,0,0)" />
<circle cx="13.2553" cy="3.79686" r="0.5" fill="rgb(0,0,0)" />
<circle cx="1.80588" cy="3.45145" r="0.5" fill="rgb(0,0,0)" />
<circle cx="6.71541" cy="3.77923" r="0.5" fill="rgb(0,0,0)" />
<circle cx="17.5394" cy="4.26171" r="0.5" fill="rgb(0,0,0)" />
<circle cx="16.1939" cy="4.54224" r="0.5" fill="rgb(0,0,0)" />
<circle cx="6.15598" cy="2.3805" r="0.5" fill="rgb(0,0,0)" />
<circle cx="4.29003" cy="4.79969" r="0.5" fill="rgb(0,0,0)" />
<circle cx="11.7045" cy="4.1584" r="0.5" fill="rgb(0,0,0)" />
<circle cx="8.38194" cy="4.41711" r="0.5" fill="rgb(0,0,0)" />
<circle cx="6.11021" cy="5.18305" r="0.5" fill="rgb(0,0,0)" />
<circle cx="2.61965" cy="4.96073" r="0.5" fill="rgb(0,0,0)" />
<circle cx="13.3614" cy="5.0983" r="0.5" fill="rgb(0,0,0)" />
<circle cx="1.67761" cy="5.74853" r="0.5" fill="rgb(0,0,0)" />
<circle cx="5.38877" cy="3.98935" r="0.5" fill="rgb(0,0,0)" />
<circle cx="15.7186" cy="6.05873" r="0.5" fill="rgb(0,0,0)" />
<circle cx="7.39962" cy="5.92797" r="0.5" fill="rgb(0,0,0)" />
<circle cx="17.9325" cy="6.77926" r="0.5" fill="rgb(0,0,0)" />
<circle cx="9.89053" cy="6.55337" r="0.5" fill="rgb(0,0,0)" />
<circle cx="6.06128" cy="6.67033" r="0.5" fill="rgb(0,0,0)" />
<circle cx="8.35206" cy="6.6517" r="0.5" fill="rgb(0,0,0)" />
<circle cx="1.73699" cy="7.13346" r="0.5" fill="rgb(0,0,0)" />
<circle cx="3.48839" cy="7.09405" r="0.5" fill="rgb(0,0,0)" />
<circle cx="2.54628" cy="8.12448" r="0.5" fill="rgb(0,0,0)" />
<circle cx="10.1066" cy="4.92208" r="0.5" fill="rgb(0,0,0)" />
<circle cx="15.4454" cy="7.48067" r="0.5" fill="rgb(0,0,0)" />
<circle cx="9.0353" cy="7.8409" r="0.5" fill="rgb(0,0,0)" />
<circle cx="16.7376" cy="3.1676" r="0.5" fill="rgb(0,0,0)" />
<circle cx="7.02207" cy="8.1765" r="0.5" fill="rgb(0,0,0)" />
<circle cx="4.81711" cy="2.75976" r="0.5" fill="rgb(0,0,0)" />
<circle cx="2.3757" cy="9.08068" r="0.5" fill="rgb(0,0,0)" />
<circle cx="16.2841" cy="8.66891" r="0.5" fill="rgb(0,0,0)" />
<circle cx="14.1168" cy="6.8122" r="0.5" fill="rgb(0,0,0)" />
<circle cx="5.19668" cy="8.91266" r="0.5" fill="rgb(0,0,0)" />
<circle cx="8.35525" cy="8.96418" r="0.5" fill="rgb(0,0,0)" />
<circle cx="3.867" cy="8.91804" r="0.5" fill="rgb(0,0,0)" />
<circle cx="13.9673" cy="8.6086" r="0.5" fill="rgb(0,0,0)" />
<circle cx="2.98443" cy="9.88974" r="0.5" fill="rgb(0,0,0)" />
<circle cx="1.51442" cy="9.86777" r="0.5" fill="rgb(0,0,0)" />
<circle cx="9.83767" cy="9.60103" r="0.5" fill="rgb(0,0,0)" />
<circle cx="15.8227" cy="9.97393" r="0.5" fill="rgb(0,0,0)" />
<circle cx="4.34828" cy="6.11328" r="0.5" fill="rgb(0,0,0)" />
<circle cx="7.53333" cy="10.1061" r="0.5" fill="rgb(0,0,0)" />
<circle cx="16.8806" cy="0.582347" r="0.5" fill="rgb(0,0,0)" />
<circle cx="14.8037" cy="11.1749" r="0.5" fill="rgb(0,0,0)" />
<circle cx="4.77317" cy="10.6553" r="0.5" fill="rgb(0,0,0)" />
<circle cx="3.04718" cy="10.98" r="0.5" fill="rgb(0,0,0)" />
<circle cx="11.5181" cy="11.0619" r="0.5" fill="rgb(0,0,0)" />
<circle cx="10.4077" cy="12.0231" r="0.5" fill="rgb(0,0,0)" />
<circle cx="16.3148" cy="12.0634" r="0.5" fill="rgb(0,0,0)" />
<circle cx="1.94867" cy="2.01191" r="0.5" fill="rgb(0,0,0)" />
<circle cx="14.6692" cy="12.6888" r="0.5" fill="rgb(0,0,0)" />
<circle cx="9.1531" cy="1.81346" r="0.5" fill="rgb(0,0,0)" />
<circle cx="9.08128" cy="12.5021" r="0.5" fill="rgb(0,0,0)" />
<circle cx="7.67124" cy="12.2972" r="0.5" fill="rgb(0,0,0)" />
<circle cx="18.0141" cy="1.88027" r="0.5" fill="rgb(0,0,0)" />
<circle cx="3.65182" cy="12.4946" r="0.5" fill="rgb(0,0,0)" />
<circle cx="6.15389" cy="12.4558" r="0.5" fill="rgb(0,0,0)" />
<circle cx="10.7165" cy="13.465" r="0.5" fill="rgb(0,0,0)" />
<circle cx="0.436532" cy="9.56863" r="0.5" fill="rgb(0,0,0)" />
<circle cx="13.4" cy="10.4197" r="0.5" fill="rgb(0,0,0)" />
<circle cx="12.437" cy="14.0469" r="0.5" fill="rgb(0,0,0)" />
<circle cx="8.30752" cy="14.2654" r="0.5" fill="rgb(0,0,0)" />
<circle cx="14.0673" cy="13.909" r="0.5" fill="rgb(0,0,0)" />
<circle cx="15.0604" cy="15.0759" r="0.5" fill="rgb(0,0,0)" />
<circle cx="13.277" cy="15.1318" r="0.5" fill="rgb(0,0,0)" />
<circle cx="12.6139" cy="6.34415" r="0.5" fill="rgb(0,0,0)" />
<circle cx="2.00154" cy="14.4318" r="0.5" fill="rgb(0,0,0)" />
<circle cx="4.88638" cy="15.0863" r="0.5" fill="rgb(0,0,0)" />
<circle cx="3.46995" cy="14.747" r="0.5" fill="rgb(0,0,0)" />
<circle cx="14.1058" cy="15.8212" r="0.5" fill="rgb(0,0,0)" />
<circle cx="11.8159" cy="1.81952" r="0.5" fill="rgb(0,0,0)" />
<circle cx="12.2812" cy="8.19151" r="0.5" fill="rgb(0,0,0)" />
<circle cx="16.4074" cy="15.3963" r="0.5" fill="rgb(0,0,0)" />
<circle cx="14.784" cy="5.23218" r="0.5" fill="rgb(0,0,0)" />
<circle cx="5.96085" cy="15.5308" r="0.5" fill="rgb(0,0,0)" />
<circle cx="16.0248" cy="13.8577" r="0.5" fill="rgb(0,0,0)" />
<circle cx="11.5151" cy="15.3361" r="0.5" fill="rgb(0,0,0)" />
<circle cx="11.2958" cy="6.58864" r="0.5" fill="rgb(0,0,0)" />
<circle cx="7.54398" cy="15.5944" r="0.5" fill="rgb(0,0,0)" />
<circle cx="6.87053" cy="0.972115" r="0.5" fill="rgb(0,0,0)" />
<circle cx="12.726" cy="12.4482" r="0.5" fill="rgb(0,0,0)" />
<circle cx="10.1623" cy="15.0738" r="0.5" fill="rgb(0,0,0)" />
<circle cx="6.68824" cy="16.4929" r="0.5" fill="rgb(0,0,0)" />
<circle cx="15.3015" cy="16.4697" r="0.5" fill="rgb(0,0,0)" />
<circle cx="12.4775" cy="16.319" r="0.5" fill="rgb(0,0,0)" />
<circle cx="4.27858" cy="16.4775" r="0.5" fill="rgb(0,0,0)" />
<circle cx="1.12222" cy="11.4687" r="0.5" fill="rgb(0,0,0)" />
<circle cx="9.19609" cy="16.3732" r="0.5" fill="rgb(0,0,0)" />
<circle cx="14.0387" cy="17.0073" r="0.5" fill="rgb(0,0,0)" />
<circle cx="2.88697" cy="16.8667" r="0.5" fill="rgb(0,0,0)" />
<circle cx="16.538" cy="16.9747" r="0.5" fill="rgb(0,0,0)" />
<circle cx="5.5859" cy="17.257" r="0.5" fill="rgb(0,0,0)" />
<circle cx="12.8162" cy="17.4491" r="0.5" fill="rgb(0,0,0)" />
<circle cx="8.21139" cy="17.4842" r="0.5" fill="rgb(0,0,0)" />
<circle cx="16.9301" cy="7.36073" r="0.5" fill="rgb(0,0,0)" />
<circle cx="15.2874" cy="17.7946" r="0.5" fill="rgb(0,0,0)" />
<circle cx="6.99841" cy="17.725" r="0.5" fill="rgb(0,0,0)" />
<circle cx="17.2076" cy="17.8893" r="0.5" fill="rgb(0,0,0)" />
<circle cx="11.2494" cy="17.5958" r="0.5" fill="rgb(0,0,0)" />
<circle cx="17.9416" cy="9.66538" r="0.5" fill="rgb(0,0,0)" />
<circle cx="0.944976" cy="13.1936" r="0.5" fill="rgb(0,0,0)" />
<circle cx="17.9184" cy="13.3705" r="0.5" fill="rgb(0,0,0)" />
<circle cx="17.9309" cy="11.3807" r="0.5" fill="rgb(0,0,0)" />
<circle cx="18.3645" cy="0.609882" r="0.5" fill="rgb(0,0,0)" />
<circle cx="0.757411" cy="8.05839" r="0.5" fill="rgb(0,0,0)" />
<circle cx="11.6479" cy="9.52205" r="0.5" fill="rgb(0,0,0)" />
<circle cx="1.67758" cy="16.4136" r="0.5" fill="rgb(0,0,0)" />
<circle cx="18.3082" cy="3.12338" r="0.5" fill="rgb(0,0,0)" />
<circle cx="4.49419" cy="18.1312" r="0.5" fill="rgb(0,0,0)" />
<circle cx="16.9794" cy="5.62506" r="0.5" fill="rgb(0,0,0)" />
<circle cx="9.11371" cy="10.7016" r="0.5" fill="rgb(0,0,0)" />
<circle cx="12.6718" cy="18.5339" r="0.5" fill="rgb(0,0,0)" />
<circle cx="17.7971" cy="14.9053" r="0.5" fill="rgb(0,0,0)" />
<circle cx="15.9618" cy="18.5339" r="0.5" fill="rgb(0,0,0)" />
<circle cx="14.2082" cy="18.3051" r="0.5" fill="rgb(0,0,0)" />
<circle cx="5.48625" cy="13.7717" r="0.5" fill="rgb(0,0,0)" />
<circle cx="9.9887" cy="17.9755" r="0.5" fill="rgb(0,0,0)" />
<circle cx="0.450242" cy="6.29891" r="0.5" fill="rgb(0,0,0)" />
<circle cx="0.597892" cy="4.05688" r="0.5" fill="rgb(0,0,0)" />
<circle cx="18.4004" cy="4.82577" r="0.5" fill="rgb(0,0,0)" />
<circle cx="18.2375" cy="8.12251" r="0.5" fill="rgb(0,0,0)" />
<circle cx="18.4464" cy="6.08109" r="0.5" fill="rgb(0,0,0)" />
<circle cx="6.25855" cy="10.4087" r="0.5" fill="rgb(0,0,0)" />
<circle cx="18.2421" cy="16.0043" r="0.5" fill="rgb(0,0,0)" />
<circle cx="0.527644" cy="15.6033" r="0.5" fill="rgb(0,0,0)" />
<circle cx="5.3773" cy="7.69491" r="0.5" fill="rgb(0,0,0)" />
<circle cx="8.38398" cy="18.5486" r="0.5" fill="rgb(0,0,0)" />
<circle cx="10.4283" cy="8.26759" r="0.5" fill="rgb(0,0,0)" />
<circle cx="6.08673" cy="18.4798" r="0.5" fill="rgb(0,0,0)" />
<circle cx="0.603335" cy="1.20154" r="0.5" fill="rgb(0,0,0)" />
<circle cx="2.45686" cy="0.547765" r="0.5" fill="rgb(0,0,0)" />
<circle cx="5.05276" cy="0.353763" r="0.5" fill="rgb(0,0,0)" />
<circle cx="0.516867" cy="17.9391" r="0.5" fill="rgb(0,0,0)" />
<circle cx="3.90971" cy="3.75458" r="0.5" fill="rgb(0,0,0)" />
<circle cx="3.2056" cy="18.3099" r="0.5" fill="rgb(0,0,0)" />
<circle cx="3.11622" cy="3.01308" r="0.5" fill="rgb(0,0,0)" />
<circle cx="1.76417" cy="18.2199" r="0.5" fill="rgb(0,0,0)" />
<circle cx="18.1376" cy="18.5193" r="0.5" fill="rgb(0,0,0)" />
<circle cx="18.3535" cy="17.2965" r="0.5" fill="rgb(0,0,0)" />
</svg>
