<?xml version="1.0" ?>
<!DOCTYPE svg PUBLIC "-//W3C//DTD SVG 1.1//EN" "http://www.w3.org/Graphics/SVG/1.1/DTD/svg11.dtd">
<svg width="20" height="20" version="1.1" xmlns="http://www.w3.org/2000/svg">
<circle cx="14.6775" cy="0.673447" r="0.5" fill="rgb(0,0,0)" />
<circle cx="11.1421" cy="0.922383" r="0.5" fill="rgb(0,0,0)" />
<circle cx="12.7463" cy="1.78453" r="0.5" fill="rgb(0,0,0)" />
<circle cx="15.6093" cy="2.6461" r="0.5" fill="rgb(0,0,0)" />
<circle cx="5.67224" cy="1.25847" r="0.5" fill="rgb(0,0,0)" />
<circle cx="8.29361" cy="1.10025" r="0.5" fill="rgb(0,0,0)" />
<circle cx="17.0737" cy="3.75434" r="0.5" fill="rgb(0,0,0)" />
<circle cx="15.2386" cy="4.11441" r="0.5" fill="rgb(0,0,0)" />
<circle cx="13.0537" cy="4.18631" r="0.5" fill="rgb(0,0,0)" />
<circle cx="16.4871" cy="5.09699" r="0.5" fill="rgb(0,0,0)" />
<circle cx="14.2338" cy="5.41793" r="0.5" fill="rgb(0,0,0)" />
<circle cx="7.09317" cy="5.10307" r="0.5" fill="rgb(0,0,0)" />
<circle cx="16.0751" cy="6.4115" r="0.5" fill="rgb(0,0,0)" />
<circle cx="3.55309" cy="6.07703" r="0.5" fill="rgb(0,0,0)" />
<circle cx="14.5098" cy="7.12802" r="0.5" fill="rgb(0,0,0)" />
<circle cx="11.2851" cy="3.88721" r="0.5" fill="rgb(0,0,0)" />
<circle cx="17.909" cy="6.57242" r="0.5" fill="rgb(0,0,0)" />
<circle cx="5.49452" cy="7.37929" r="0.5" fill="rgb(0,0,0)" />
<circle cx="16.227" cy="8.30689" r="0.5" fill="rgb(0,0,0)" />
<circle cx="7.824" cy="7.36046" r="0.5" fill="rgb(0,0,0)" />
<circle cx="12.314" cy="6.53874" r="0.5" fill="rgb(0,0,0)" />
<circle cx="2.58223" cy="8.28845" r="0.5" fill="rgb(0,0,0)" />
<circle cx="9.48525" cy="8.53271" r="0.5" fill="rgb(0,0,0)" />
<circle cx="13.75" cy="8.8222" r="0.5" fill="rgb(0,0,0)" />
<circle cx="4.00888" cy="9.43433" r="0.5" fill="rgb(0,0,0)" />
<circle cx="6.37525" cy="10.0601" r="0.5" fill="rgb(0,0,0)" />
<circle cx="15.9773" cy="10.41" r="0.5" fill="rgb(0,0,0)" />
<circle cx="14.0543" cy="10.9521" r="0.5" fill="rgb(0,0,0)" />
<circle cx="12.5461" cy="12.5256" r="0.5" fill="rgb(0,0,0)" />
<circle cx="14.9309" cy="12.9365" r="0.5" fill="rgb(0,0,0)" />
<circle cx="8.26845" cy="12.5673" r="0.5" fill="rgb(0,0,0)" />
<circle cx="3.27709" cy="3.39421" r="0.5" fill="rgb(0,0,0)" />
<circle cx="12.7038" cy="14.155" r="0.5" fill="rgb(0,0,0)" />
<circle cx="6.1448" cy="12.9779" r="0.5" fill="rgb(0,0,0)" />
<circle cx="16.3132" cy="14.3474" r="0.5" fill="rgb(0,0,0)" />
<circle cx="14.8227" cy="14.9072" r="0.5" fill="rgb(0,0,0)" />
<circle cx="8.76443" cy="10.4636" r="0.5" fill="rgb(0,0,0)" />
<circle cx="17.8532" cy="14.5906" r="0.5" fill="rgb(0,0,0)" />
<circle cx="11.2275" cy="11.0213" r="0.5" fill="rgb(0,0,0)" />
<circle cx="10.6415" cy="15.1954" r="0.5" fill="rgb(0,0,0)" />
<circle cx="12.6968" cy="15.6877" r="0.5" fill="rgb(0,0,0)" />
<circle cx="3.79501" cy="14.482" r="0.5" fill="rgb(0,0,0)" />
<circle cx="7.91446" cy="15.2945" r="0.5" fill="rgb(0,0,0)" />
<circle cx="16.0735" cy="16.402" r="0.5" fill="rgb(0,0,0)" />
<circle cx="5.59006" cy="15.8112" r="0.5" fill="rgb(0,0,0)" />
<circle cx="10.0734" cy="13.2749" r="0.5" fill="rgb(0,0,0)" />
<circle cx="1.09266" cy="4.13863" r="0.5" fill="rgb(0,0,0)" />
<circle cx="12.0819" cy="17.0741" r="0.5" fill="rgb(0,0,0)" />
<circle cx="17.6058" cy="12.4047" r="0.5" fill="rgb(0,0,0)" />
<circle cx="3.83087" cy="11.753" r="0.5" fill="rgb(0,0,0)" />
<circle cx="14.098" cy="17.7821" r="0.5" fill="rgb(0,0,0)" />
<circle cx="16.0219" cy="17.9735" r="0.5" fill="rgb(0,0,0)" />
<circle cx="12.2606" cy="18.4203" r="0.5" fill="rgb(0,0,0)" />
<circle cx="17.2994" cy="17.9036" r="0.5" fill="rgb(0,0,0)" />
<circle cx="5.59809" cy="3.71485" r="0.5" fill="rgb(0,0,0)" />
<circle cx="0.870533" cy="17.8915" r="0.5" fill="rgb(0,0,0)" />
<circle cx="1.17191" cy="15.482" r="0.5" fill="rgb(0,0,0)" />
<circle cx="1.27324" cy="13.0794" r="0.5" fill="rgb(0,0,0)" />
<circle cx="18.0021" cy="10.1501" r="0.5" fill="rgb(0,0,0)" />
<circle cx="11.5782" cy="8.81947" r="0.5" fill="rgb(0,0,0)" />
<circle cx="1.21109" cy="10.5845" r="0.5" fill="rgb(0,0,0)" />
<circle cx="9.11553" cy="3.28667" r="0.5" fill="rgb(0,0,0)" />
<circle cx="0.771547" cy="8.28987" r="0.5" fill="rgb(0,0,0)" />
<circle cx="16.4464" cy="1.67684" r="0.5" fill="rgb(0,0,0)" />
<circle cx="18.1583" cy="8.1773" r="0.5" fill="rgb(0,0,0)" />
<circle cx="1.01509" cy="6.2125" r="0.5" fill="rgb(0,0,0)" />
<circle cx="18.4233" cy="17.8849" r="0.5" fill="rgb(0,0,0)" />
<circle cx="14.1599" cy="16.0909" r="0.5" fill="rgb(0,0,0)" />
<circle cx="8.32797" cy="17.877" r="0.5" fill="rgb(0,0,0)" />
<circle cx="6.36164" cy="17.8514" r="0.5" fill="rgb(0,0,0)" />
<circle cx="15.1707" cy="18.5481" r="0.5" fill="rgb(0,0,0)" />
<circle cx="0.920187" cy="1.50471" r="0.5" fill="rgb(0,0,0)" />
<circle cx="10.0048" cy="6.0598" r="0.5" fill="rgb(0,0,0)" />
<circle cx="3.07222" cy="0.949982" r="0.5" fill="rgb(0,0,0)" />
<circle cx="14.0979" cy="2.67476" r="0.5" fill="rgb(0,0,0)" />
<circle cx="18.2618" cy="4.95645" r="0.5" fill="rgb(0,0,0)" />
<circle cx="18.1636" cy="3.02029" r="0.5" fill="rgb(0,0,0)" />
<circle cx="18.1517" cy="1.64862" r="0.5" fill="rgb(0,0,0)" />
<circle cx="2.6757" cy="17.2181" r="0.5" fill="rgb(0,0,0)" />
<circle cx="10.0628" cy="17.3847" r="0.5" fill="rgb(0,0,0)" />
<circle cx="18.1388" cy="16.0544" r="0.5" fill="rgb(0,0,0)" />
<circle cx="4.22897" cy="17.8345" r="0.5" fill="rgb(0,0,0)" />
<circle cx="17.5809" cy="0.466974" r="0.5" fill="rgb(0,0,0)" />
</svg>
