<?xml version="1.0" ?>
<!DOCTYPE svg PUBLIC "-//W3C//DTD SVG 1.1//EN" "http://www.w3.org/Graphics/SVG/1.1/DTD/svg11.dtd">
<svg width="20" height="20" version="1.1" xmlns="http://www.w3.org/2000/svg">
<circle cx="6.00539" cy="0.412922" r="0.5" fill="rgb(0,0,0)" />
<circle cx="15.4082" cy="0.498577" r="0.5" fill="rgb(0,0,0)" />
<circle cx="8.19023" cy="0.522966" r="0.5" fill="rgb(0,0,0)" />
<circle cx="10.5615" cy="0.648084" r="0.5" fill="rgb(0,0,0)" />
<circle cx="5.68135" cy="1.45943" r="0.5" fill="rgb(0,0,0)" />
<circle cx="16.2987" cy="1.79266" r="0.5" fill="rgb(0,0,0)" />
<circle cx="13.992" cy="2.05256" r="0.5" fill="rgb(0,0,0)" />
<circle cx="3.85645" cy="1.92344" r="0.5" fill="rgb(0,0,0)" />
<circle cx="2.00731" cy="2.04855" r="0.5" fill="rgb(0,0,0)" />
<circle cx="5.92757" cy="2.41881" r="0.5" fill="rgb(0,0,0)" />
<circle cx="4.88069" cy="2.73801" r="0.5" fill="rgb(0,0,0)" />
<circle cx="7.79595" cy="2.30262" r="0.5" fill="rgb(0,0,0)" />
<circle cx="14.4668" cy="3.15109" r="0.5" fill="rgb(0,0,0)" />
<circle cx="4.0601" cy="3.56896" r="0.5" fill="rgb(0,0,0)" />
<circle cx="6.26844" cy="3.65472" r="0.5" fill="rgb(0,0,0)" />
<circle cx="15.2999" cy="3.92363" r="0.5" fill="rgb(0,0,0)" />
<circle cx="10.0708" cy="3.70663" r="0.5" fill="rgb(0,0,0)" />
<circle cx="13.253" cy="3.71818" r="0.5" fill="rgb(0,0,0)" />
<circle cx="8.66805" cy="3.57244" r="0.5" fill="rgb(0,0,0)" />
<circle cx="17.5816" cy="4.27851" r="0.5" fill="rgb(0,0,0)" />
<circle cx="16.1857" cy="4.5559" r="0.5" fill="rgb(0,0,0)" />
<circle cx="3.99455" cy="4.65601" r="0.5" fill="rgb(0,0,0)" />
<circle cx="11.7776" cy="4.12509" r="0.5" fill="rgb(0,0,0)" />
<circle cx="5.30146" cy="4.78655" r="0.5" fill="rgb(0,0,0)" />
<circle cx="8.07801" cy="4.82731" r="0.5" fill="rgb(0,0,0)" />
<circle cx="6.50219" cy="5.65368" r="0.5" fill="rgb(0,0,0)" />
<circle cx="13.9471" cy="4.77869" r="0.5" fill="rgb(0,0,0)" />
<circle cx="10.2984" cy="5.10491" r="0.5" fill="rgb(0,0,0)" />
<circle cx="12.4772" cy="5.53911" r="0.5" fill="rgb(0,0,0)" />
<circle cx="11.6573" cy="2.58414" r="0.5" fill="rgb(0,0,0)" />
<circle cx="7.56353" cy="6.04575" r="0.5" fill="rgb(0,0,0)" />
<circle cx="1.87984" cy="6.06059" r="0.5" fill="rgb(0,0,0)" />
<circle cx="4.12976" cy="5.89016" r="0.5" fill="rgb(0,0,0)" />
<circle cx="9.14537" cy="6.11819" r="0.5" fill="rgb(0,0,0)" />
<circle cx="10.3848" cy="2.4735" r="0.5" fill="rgb(0,0,0)" />
<circle cx="6.64477" cy="6.83963" r="0.5" fill="rgb(0,0,0)" />
<circle cx="17.917" cy="6.71233" r="0.5" fill="rgb(0,0,0)" />
<circle cx="5.23494" cy="3.67118" r="0.5" fill="rgb(0,0,0)" />
<circle cx="1.69494" cy="7.17705" r="0.5" fill="rgb(0,0,0)" />
<circle cx="8.089" cy="7.086" r="0.5" fill="rgb(0,0,0)" />
<circle cx="12.7994" cy="7.03934" r="0.5" fill="rgb(0,0,0)" />
<circle cx="3.24567" cy="7.04936" r="0.5" fill="rgb(0,0,0)" />
<circle cx="6.38793" cy="7.65717" r="0.5" fill="rgb(0,0,0)" />
<circle cx="11.3363" cy="6.98196" r="0.5" fill="rgb(0,0,0)" />
<circle cx="16.9893" cy="7.31927" r="0.5" fill="rgb(0,0,0)" />
<circle cx="2.58114" cy="8.20029" r="0.5" fill="rgb(0,0,0)" />
<circle cx="10.2873" cy="8.39493" r="0.5" fill="rgb(0,0,0)" />
<circle cx="16.3008" cy="8.58433" r="0.5" fill="rgb(0,0,0)" />
<circle cx="9.08889" cy="7.86307" r="0.5" fill="rgb(0,0,0)" />
<circle cx="2.44731" cy="9.15407" r="0.5" fill="rgb(0,0,0)" />
<circle cx="2.54519" cy="4.95062" r="0.5" fill="rgb(0,0,0)" />
<circle cx="5.98782" cy="8.63156" r="0.5" fill="rgb(0,0,0)" />
<circle cx="14.3263" cy="1.0021" r="0.5" fill="rgb(0,0,0)" />
<circle cx="14.2512" cy="6.78595" r="0.5" fill="rgb(0,0,0)" />
<circle cx="4.98824" cy="9.04634" r="0.5" fill="rgb(0,0,0)" />
<circle cx="12.1933" cy="8.47278" r="0.5" fill="rgb(0,0,0)" />
<circle cx="11.3838" cy="9.37307" r="0.5" fill="rgb(0,0,0)" />
<circle cx="6.45734" cy="4.76934" r="0.5" fill="rgb(0,0,0)" />
<circle cx="14.6182" cy="9.28806" r="0.5" fill="rgb(0,0,0)" />
<circle cx="2.97741" cy="9.75399" r="0.5" fill="rgb(0,0,0)" />
<circle cx="3.16138" cy="3.11695" r="0.5" fill="rgb(0,0,0)" />
<circle cx="3.17165" cy="10.6448" r="0.5" fill="rgb(0,0,0)" />
<circle cx="13.0319" cy="2.54283" r="0.5" fill="rgb(0,0,0)" />
<circle cx="7.65415" cy="10.4326" r="0.5" fill="rgb(0,0,0)" />
<circle cx="1.64288" cy="9.81291" r="0.5" fill="rgb(0,0,0)" />
<circle cx="14.9777" cy="11.0833" r="0.5" fill="rgb(0,0,0)" />
<circle cx="1.04251" cy="8.13855" r="0.5" fill="rgb(0,0,0)" />
<circle cx="13.5782" cy="10.7218" r="0.5" fill="rgb(0,0,0)" />
<circle cx="10.7825" cy="10.9657" r="0.5" fill="rgb(0,0,0)" />
<circle cx="4.54878" cy="11.6746" r="0.5" fill="rgb(0,0,0)" />
<circle cx="2.61767" cy="12.061" r="0.5" fill="rgb(0,0,0)" />
<circle cx="6.19664" cy="12.4167" r="0.5" fill="rgb(0,0,0)" />
<circle cx="12.5835" cy="12.5896" r="0.5" fill="rgb(0,0,0)" />
<circle cx="9.06991" cy="12.3031" r="0.5" fill="rgb(0,0,0)" />
<circle cx="15.6013" cy="13.3669" r="0.5" fill="rgb(0,0,0)" />
<circle cx="10.7201" cy="13.4326" r="0.5" fill="rgb(0,0,0)" />
<circle cx="14.898" cy="5.32494" r="0.5" fill="rgb(0,0,0)" />
<circle cx="7.78683" cy="12.3523" r="0.5" fill="rgb(0,0,0)" />
<circle cx="15.8914" cy="14.2983" r="0.5" fill="rgb(0,0,0)" />
<circle cx="16.3484" cy="10.1978" r="0.5" fill="rgb(0,0,0)" />
<circle cx="14.0903" cy="13.9755" r="0.5" fill="rgb(0,0,0)" />
<circle cx="1.99943" cy="13.852" r="0.5" fill="rgb(0,0,0)" />
<circle cx="12.5431" cy="14.1731" r="0.5" fill="rgb(0,0,0)" />
<circle cx="15.5422" cy="7.38753" r="0.5" fill="rgb(0,0,0)" />
<circle cx="6.37969" cy="14.1382" r="0.5" fill="rgb(0,0,0)" />
<circle cx="0.46304" cy="9.23339" r="0.5" fill="rgb(0,0,0)" />
<circle cx="0.870503" cy="11.0397" r="0.5" fill="rgb(0,0,0)" />
<circle cx="15.0054" cy="15.1987" r="0.5" fill="rgb(0,0,0)" />
<circle cx="15.7136" cy="5.97193" r="0.5" fill="rgb(0,0,0)" />
<circle cx="8.52582" cy="14.4455" r="0.5" fill="rgb(0,0,0)" />
<circle cx="5.01646" cy="14.9564" r="0.5" fill="rgb(0,0,0)" />
<circle cx="13.3098" cy="15.1906" r="0.5" fill="rgb(0,0,0)" />
<circle cx="0.674434" cy="5.18454" r="0.5" fill="rgb(0,0,0)" />
<circle cx="14.3728" cy="12.5028" r="0.5" fill="rgb(0,0,0)" />
<circle cx="2.18073" cy="15.4196" r="0.5" fill="rgb(0,0,0)" />
<circle cx="14.1226" cy="15.7776" r="0.5" fill="rgb(0,0,0)" />
<circle cx="5.79981" cy="15.8597" r="0.5" fill="rgb(0,0,0)" />
<circle cx="4.26117" cy="0.635748" r="0.5" fill="rgb(0,0,0)" />
<circle cx="9.22838" cy="1.64782" r="0.5" fill="rgb(0,0,0)" />
<circle cx="4.23657" cy="15.8674" r="0.5" fill="rgb(0,0,0)" />
<circle cx="17.632" cy="15.0679" r="0.5" fill="rgb(0,0,0)" />
<circle cx="11.5596" cy="15.2951" r="0.5" fill="rgb(0,0,0)" />
<circle cx="6.60673" cy="16.4013" r="0.5" fill="rgb(0,0,0)" />
<circle cx="10.3033" cy="15.0574" r="0.5" fill="rgb(0,0,0)" />
<circle cx="0.462336" cy="6.82883" r="0.5" fill="rgb(0,0,0)" />
<circle cx="3.27223" cy="16.0473" r="0.5" fill="rgb(0,0,0)" />
<circle cx="7.54063" cy="15.8442" r="0.5" fill="rgb(0,0,0)" />
<circle cx="12.5186" cy="16.3201" r="0.5" fill="rgb(0,0,0)" />
<circle cx="15.4178" cy="2.49361" r="0.5" fill="rgb(0,0,0)" />
<circle cx="2.02267" cy="3.51337" r="0.5" fill="rgb(0,0,0)" />
<circle cx="15.1773" cy="16.5298" r="0.5" fill="rgb(0,0,0)" />
<circle cx="17.0813" cy="0.618823" r="0.5" fill="rgb(0,0,0)" />
<circle cx="4.5617" cy="16.8465" r="0.5" fill="rgb(0,0,0)" />
<circle cx="10.2666" cy="6.85341" r="0.5" fill="rgb(0,0,0)" />
<circle cx="4.69715" cy="10.3124" r="0.5" fill="rgb(0,0,0)" />
<circle cx="14.0572" cy="17.0071" r="0.5" fill="rgb(0,0,0)" />
<circle cx="16.3853" cy="16.8488" r="0.5" fill="rgb(0,0,0)" />
<circle cx="16.7781" cy="3.24511" r="0.5" fill="rgb(0,0,0)" />
<circle cx="9.11745" cy="16.47" r="0.5" fill="rgb(0,0,0)" />
<circle cx="17.6811" cy="17.1836" r="0.5" fill="rgb(0,0,0)" />
<circle cx="5.69306" cy="17.3256" r="0.5" fill="rgb(0,0,0)" />
<circle cx="2.8309" cy="17.2295" r="0.5" fill="rgb(0,0,0)" />
<circle cx="12.2779" cy="1.52869" r="0.5" fill="rgb(0,0,0)" />
<circle cx="12.8491" cy="17.5088" r="0.5" fill="rgb(0,0,0)" />
<circle cx="7.01443" cy="1.24934" r="0.5" fill="rgb(0,0,0)" />
<circle cx="7.13824" cy="9.18869" r="0.5" fill="rgb(0,0,0)" />
<circle cx="1.66085" cy="17.7622" r="0.5" fill="rgb(0,0,0)" />
<circle cx="8.14422" cy="17.6568" r="0.5" fill="rgb(0,0,0)" />
<circle cx="15.4702" cy="17.879" r="0.5" fill="rgb(0,0,0)" />
<circle cx="18.0028" cy="1.88096" r="0.5" fill="rgb(0,0,0)" />
<circle cx="18.2958" cy="3.09107" r="0.5" fill="rgb(0,0,0)" />
<circle cx="4.30763" cy="13.247" r="0.5" fill="rgb(0,0,0)" />
<circle cx="6.96978" cy="17.6309" r="0.5" fill="rgb(0,0,0)" />
<circle cx="7.14609" cy="3.35184" r="0.5" fill="rgb(0,0,0)" />
<circle cx="16.9449" cy="5.58257" r="0.5" fill="rgb(0,0,0)" />
<circle cx="9.71815" cy="9.49926" r="0.5" fill="rgb(0,0,0)" />
<circle cx="12.2407" cy="10.8158" r="0.5" fill="rgb(0,0,0)" />
<circle cx="17.8527" cy="13.4188" r="0.5" fill="rgb(0,0,0)" />
<circle cx="7.50912" cy="8.09231" r="0.5" fill="rgb(0,0,0)" />
<circle cx="3.47203" cy="14.4571" r="0.5" fill="rgb(0,0,0)" />
<circle cx="14.2125" cy="18.1133" r="0.5" fill="rgb(0,0,0)" />
<circle cx="18.4014" cy="4.85984" r="0.5" fill="rgb(0,0,0)" />
<circle cx="13.6545" cy="8.38021" r="0.5" fill="rgb(0,0,0)" />
<circle cx="0.652798" cy="3.51526" r="0.5" fill="rgb(0,0,0)" />
<circle cx="10.2835" cy="12.3268" r="0.5" fill="rgb(0,0,0)" />
<circle cx="4.47766" cy="18.0799" r="0.5" fill="rgb(0,0,0)" />
<circle cx="4.73289" cy="7.42881" r="0.5" fill="rgb(0,0,0)" />
<circle cx="12.8274" cy="18.5401" r="0.5" fill="rgb(0,0,0)" />
<circle cx="11.2545" cy="17.5886" r="0.5" fill="rgb(0,0,0)" />
<circle cx="15.1518" cy="18.6638" r="0.5" fill="rgb(0,0,0)" />
<circle cx="16.3726" cy="15.3662" r="0.5" fill="rgb(0,0,0)" />
<circle cx="1.60678" cy="16.4641" r="0.5" fill="rgb(0,0,0)" />
<circle cx="16.7205" cy="18.2199" r="0.5" fill="rgb(0,0,0)" />
<circle cx="9.9854" cy="17.9035" r="0.5" fill="rgb(0,0,0)" />
<circle cx="17.9448" cy="11.4517" r="0.5" fill="rgb(0,0,0)" />
<circle cx="18.0546" cy="9.54534" r="0.5" fill="rgb(0,0,0)" />
<circle cx="0.498582" cy="16.6994" r="0.5" fill="rgb(0,0,0)" />
<circle cx="18.4146" cy="0.597556" r="0.5" fill="rgb(0,0,0)" />
<circle cx="0.752514" cy="12.7908" r="0.5" fill="rgb(0,0,0)" />
<circle cx="18.3904" cy="15.8241" r="0.5" fill="rgb(0,0,0)" />
<circle cx="3.27991" cy="18.4018" r="0.5" fill="rgb(0,0,0)" />
<circle cx="18.3019" cy="8.03743" r="0.5" fill="rgb(0,0,0)" />
<circle cx="18.4898" cy="6.09975" r="0.5" fill="rgb(0,0,0)" />
<circle cx="6.21932" cy="10.5032" r="0.5" fill="rgb(0,0,0)" />
<circle cx="8.37471" cy="18.5795" r="0.5" fill="rgb(0,0,0)" />
<circle cx="16.2152" cy="12.0938" r="0.5" fill="rgb(0,0,0)" />
<circle cx="6.06589" cy="18.484" r="0.5" fill="rgb(0,0,0)" />
<circle cx="0.550387" cy="1.29744" r="0.5" fill="rgb(0,0,0)" />
<circle cx="5.55778" cy="6.31096" r="0.5" fill="rgb(0,0,0)" />
<circle cx="8.42985" cy="9.02996" r="0.5" fill="rgb(0,0,0)" />
<circle cx="3.79374" cy="8.8851" r="0.5" fill="rgb(0,0,0)" />
<circle cx="2.1144" cy="0.581765" r="0.5" fill="rgb(0,0,0)" />
<circle cx="12.7473" cy="0.481798" r="0.5" fill="rgb(0,0,0)" />
<circle cx="1.6511" cy="18.5907" r="0.5" fill="rgb(0,0,0)" />
<circle cx="0.444593" cy="18.1703" r="0.5" fill="rgb(0,0,0)" />
<circle cx="0.625653" cy="14.915" r="0.5" fill="rgb(0,0,0)" />
<circle cx="18.1207" cy="18.5209" r="0.5" fill="rgb(0,0,0)" />
<circle cx="9.0525" cy="10.5935" r="0.5" fill="rgb(0,0,0)" />
<circle cx="18.5932" cy="17.5066" r="0.5" fill="rgb(0,0,0)" />
</svg>
