<?xml version="1.0" ?>
<!DOCTYPE svg PUBLIC "-//W3C//DTD SVG 1.1//EN" "http://www.w3.org/Graphics/SVG/1.1/DTD/svg11.dtd">
<svg width="20" height="20" version="1.1" xmlns="http://www.w3.org/2000/svg">
<circle cx="16.7745" cy="0.628167" r="0.5" fill="rgb(0,0,0)" />
<circle cx="10.2807" cy="0.901597" r="0.5" fill="rgb(0,0,0)" />
<circle cx="12.3744" cy="2.11031" r="0.5" fill="rgb(0,0,0)" />
<circle cx="14.1657" cy="2.46114" r="0.5" fill="rgb(0,0,0)" />
<circle cx="18.3488" cy="0.593373" r="0.5" fill="rgb(0,0,0)" />
<circle cx="15.047" cy="3.87555" r="0.5" fill="rgb(0,0,0)" />
<circle cx="13.2015" cy="3.60341" r="0.5" fill="rgb(0,0,0)" />
<circle cx="17.2568" cy="3.7853" r="0.5" fill="rgb(0,0,0)" />
<circle cx="16.2328" cy="4.33095" r="0.5" fill="rgb(0,0,0)" />
<circle cx="7.78021" cy="1.21214" r="0.5" fill="rgb(0,0,0)" />
<circle cx="11.3215" cy="4.00749" r="0.5" fill="rgb(0,0,0)" />
<circle cx="3.21852" cy="4.78247" r="0.5" fill="rgb(0,0,0)" />
<circle cx="18.0426" cy="1.85562" r="0.5" fill="rgb(0,0,0)" />
<circle cx="13.346" cy="5.09944" r="0.5" fill="rgb(0,0,0)" />
<circle cx="16.9689" cy="5.57181" r="0.5" fill="rgb(0,0,0)" />
<circle cx="1.84575" cy="6.14151" r="0.5" fill="rgb(0,0,0)" />
<circle cx="16.5046" cy="2.08677" r="0.5" fill="rgb(0,0,0)" />
<circle cx="8.05364" cy="6.49043" r="0.5" fill="rgb(0,0,0)" />
<circle cx="15.4313" cy="2.47722" r="0.5" fill="rgb(0,0,0)" />
<circle cx="10.4963" cy="6.45575" r="0.5" fill="rgb(0,0,0)" />
<circle cx="5.67654" cy="7.37897" r="0.5" fill="rgb(0,0,0)" />
<circle cx="2.61984" cy="8.29061" r="0.5" fill="rgb(0,0,0)" />
<circle cx="16.283" cy="8.27892" r="0.5" fill="rgb(0,0,0)" />
<circle cx="12.0791" cy="8.13347" r="0.5" fill="rgb(0,0,0)" />
<circle cx="3.79404" cy="6.75048" r="0.5" fill="rgb(0,0,0)" />
<circle cx="13.9563" cy="8.70138" r="0.5" fill="rgb(0,0,0)" />
<circle cx="9.4859" cy="8.44392" r="0.5" fill="rgb(0,0,0)" />
<circle cx="11.2995" cy="9.45029" r="0.5" fill="rgb(0,0,0)" />
<circle cx="14.4695" cy="7.04517" r="0.5" fill="rgb(0,0,0)" />
<circle cx="4.64428" cy="9.22776" r="0.5" fill="rgb(0,0,0)" />
<circle cx="2.97418" cy="10.1821" r="0.5" fill="rgb(0,0,0)" />
<circle cx="8.89495" cy="10.5286" r="0.5" fill="rgb(0,0,0)" />
<circle cx="11.2046" cy="11.225" r="0.5" fill="rgb(0,0,0)" />
<circle cx="18.0048" cy="6.6914" r="0.5" fill="rgb(0,0,0)" />
<circle cx="12.5911" cy="12.5097" r="0.5" fill="rgb(0,0,0)" />
<circle cx="8.85748" cy="4.5562" r="0.5" fill="rgb(0,0,0)" />
<circle cx="15.5412" cy="12.2522" r="0.5" fill="rgb(0,0,0)" />
<circle cx="3.92645" cy="12.0726" r="0.5" fill="rgb(0,0,0)" />
<circle cx="14.7605" cy="0.738006" r="0.5" fill="rgb(0,0,0)" />
<circle cx="10.1099" cy="13.1444" r="0.5" fill="rgb(0,0,0)" />
<circle cx="6.29625" cy="12.947" r="0.5" fill="rgb(0,0,0)" />
<circle cx="12.2984" cy="14.2007" r="0.5" fill="rgb(0,0,0)" />
<circle cx="15.0773" cy="14.9222" r="0.5" fill="rgb(0,0,0)" />
<circle cx="5.53776" cy="1.13753" r="0.5" fill="rgb(0,0,0)" />
<circle cx="1.24392" cy="11.4859" r="0.5" fill="rgb(0,0,0)" />
<circle cx="14.1379" cy="15.8148" r="0.5" fill="rgb(0,0,0)" />
<circle cx="0.82829" cy="4.08157" r="0.5" fill="rgb(0,0,0)" />
<circle cx="7.34928" cy="8.55825" r="0.5" fill="rgb(0,0,0)" />
<circle cx="4.65879" cy="14.3935" r="0.5" fill="rgb(0,0,0)" />
<circle cx="6.34114" cy="10.4835" r="0.5" fill="rgb(0,0,0)" />
<circle cx="2.55288" cy="14.675" r="0.5" fill="rgb(0,0,0)" />
<circle cx="8.01905" cy="15.0257" r="0.5" fill="rgb(0,0,0)" />
<circle cx="13.2252" cy="15.217" r="0.5" fill="rgb(0,0,0)" />
<circle cx="17.8915" cy="14.5755" r="0.5" fill="rgb(0,0,0)" />
<circle cx="18.3182" cy="4.96559" r="0.5" fill="rgb(0,0,0)" />
<circle cx="18.2303" cy="3.10098" r="0.5" fill="rgb(0,0,0)" />
<circle cx="11.9643" cy="16.2811" r="0.5" fill="rgb(0,0,0)" />
<circle cx="14.298" cy="13.5314" r="0.5" fill="rgb(0,0,0)" />
<circle cx="5.36757" cy="15.9414" r="0.5" fill="rgb(0,0,0)" />
<circle cx="6.90654" cy="16.5343" r="0.5" fill="rgb(0,0,0)" />
<circle cx="13.7542" cy="17.0334" r="0.5" fill="rgb(0,0,0)" />
<circle cx="12.4742" cy="6.35967" r="0.5" fill="rgb(0,0,0)" />
<circle cx="16.6994" cy="16.864" r="0.5" fill="rgb(0,0,0)" />
<circle cx="16.0347" cy="6.57496" r="0.5" fill="rgb(0,0,0)" />
<circle cx="15.3042" cy="17.7183" r="0.5" fill="rgb(0,0,0)" />
<circle cx="12.5387" cy="0.605325" r="0.5" fill="rgb(0,0,0)" />
<circle cx="13.7368" cy="10.7202" r="0.5" fill="rgb(0,0,0)" />
<circle cx="0.515745" cy="6.2941" r="0.5" fill="rgb(0,0,0)" />
<circle cx="9.386" cy="2.70348" r="0.5" fill="rgb(0,0,0)" />
<circle cx="16.3348" cy="14.3749" r="0.5" fill="rgb(0,0,0)" />
<circle cx="0.89411" cy="9.741" r="0.5" fill="rgb(0,0,0)" />
<circle cx="0.828242" cy="8.03093" r="0.5" fill="rgb(0,0,0)" />
<circle cx="4.34416" cy="17.4036" r="0.5" fill="rgb(0,0,0)" />
<circle cx="0.975679" cy="13.413" r="0.5" fill="rgb(0,0,0)" />
<circle cx="6.09701" cy="3.48502" r="0.5" fill="rgb(0,0,0)" />
<circle cx="6.05318" cy="5.32754" r="0.5" fill="rgb(0,0,0)" />
<circle cx="8.64682" cy="17.6067" r="0.5" fill="rgb(0,0,0)" />
<circle cx="8.28648" cy="12.5539" r="0.5" fill="rgb(0,0,0)" />
<circle cx="11.7223" cy="17.9606" r="0.5" fill="rgb(0,0,0)" />
<circle cx="15.9479" cy="10.2104" r="0.5" fill="rgb(0,0,0)" />
<circle cx="12.8961" cy="18.3609" r="0.5" fill="rgb(0,0,0)" />
<circle cx="0.938816" cy="16.0473" r="0.5" fill="rgb(0,0,0)" />
<circle cx="14.1809" cy="18.299" r="0.5" fill="rgb(0,0,0)" />
<circle cx="17.8231" cy="12.3748" r="0.5" fill="rgb(0,0,0)" />
<circle cx="7.53899" cy="18.3278" r="0.5" fill="rgb(0,0,0)" />
<circle cx="2.56962" cy="17.0646" r="0.5" fill="rgb(0,0,0)" />
<circle cx="17.9695" cy="10.1415" r="0.5" fill="rgb(0,0,0)" />
<circle cx="10.1205" cy="17.3883" r="0.5" fill="rgb(0,0,0)" />
<circle cx="18.1669" cy="8.22398" r="0.5" fill="rgb(0,0,0)" />
<circle cx="15.4513" cy="16.3088" r="0.5" fill="rgb(0,0,0)" />
<circle cx="18.1577" cy="16.0336" r="0.5" fill="rgb(0,0,0)" />
<circle cx="0.753717" cy="1.13069" r="0.5" fill="rgb(0,0,0)" />
<circle cx="1.97856" cy="2.61287" r="0.5" fill="rgb(0,0,0)" />
<circle cx="3.07914" cy="0.761183" r="0.5" fill="rgb(0,0,0)" />
<circle cx="5.89835" cy="18.1173" r="0.5" fill="rgb(0,0,0)" />
<circle cx="3.03862" cy="18.4446" r="0.5" fill="rgb(0,0,0)" />
<circle cx="10.4533" cy="15.0696" r="0.5" fill="rgb(0,0,0)" />
<circle cx="0.73147" cy="17.9949" r="0.5" fill="rgb(0,0,0)" />
<circle cx="15.9261" cy="18.4806" r="0.5" fill="rgb(0,0,0)" />
<circle cx="3.89075" cy="2.87874" r="0.5" fill="rgb(0,0,0)" />
<circle cx="17.4171" cy="18.2676" r="0.5" fill="rgb(0,0,0)" />
<circle cx="14.9688" cy="5.377" r="0.5" fill="rgb(0,0,0)" />
<circle cx="18.4059" cy="17.7255" r="0.5" fill="rgb(0,0,0)" />
</svg>
