<?xml version="1.0" ?>
<!DOCTYPE svg PUBLIC "-//W3C//DTD SVG 1.1//EN" "http://www.w3.org/Graphics/SVG/1.1/DTD/svg11.dtd">
<svg width="20" height="20" version="1.1" xmlns="http://www.w3.org/2000/svg">
<circle cx="13.9852" cy="1.4326" r="0.5" fill="rgb(0,0,0)" />
<circle cx="17.6114" cy="1.15891" r="0.5" fill="rgb(0,0,0)" />
<circle cx="7.68972" cy="1.59699" r="0.5" fill="rgb(0,0,0)" />
<circle cx="16.574" cy="3.04548" r="0.5" fill="rgb(0,0,0)" />
<circle cx="3.43084" cy="4.66521" r="0.5" fill="rgb(0,0,0)" />
<circle cx="5.84633" cy="4.13366" r="0.5" fill="rgb(0,0,0)" />
<circle cx="10.8559" cy="4.82522" r="0.5" fill="rgb(0,0,0)" />
<circle cx="14.2262" cy="4.90337" r="0.5" fill="rgb(0,0,0)" />
<circle cx="13.1869" cy="7.87765" r="0.5" fill="rgb(0,0,0)" />
<circle cx="6.72529" cy="9.51338" r="0.5" fill="rgb(0,0,0)" />
<circle cx="4.02146" cy="8.32793" r="0.5" fill="rgb(0,0,0)" />
<circle cx="10.0592" cy="8.91302" r="0.5" fill="rgb(0,0,0)" />
<circle cx="13.6327" cy="11.0836" r="0.5" fill="rgb(0,0,0)" />
<circle cx="17.5373" cy="5.5536" r="0.5" fill="rgb(0,0,0)" />
<circle cx="15.5977" cy="13.5" r="0.5" fill="rgb(0,0,0)" />
<circle cx="9.72278" cy="12.5789" r="0.5" fill="rgb(0,0,0)" />
<circle cx="7.83161" cy="5.97435" r="0.5" fill="rgb(0,0,0)" />
<circle cx="6.0515" cy="13.0382" r="0.5" fill="rgb(0,0,0)" />
<circle cx="12.2147" cy="14.3465" r="0.5" fill="rgb(0,0,0)" />
<circle cx="14.8534" cy="15.8235" r="0.5" fill="rgb(0,0,0)" />
<circle cx="2.08483" cy="12.8012" r="0.5" fill="rgb(0,0,0)" />
<circle cx="16.8537" cy="8.47219" r="0.5" fill="rgb(0,0,0)" />
<circle cx="8.96489" cy="16.7862" r="0.5" fill="rgb(0,0,0)" />
<circle cx="17.5206" cy="11.4707" r="0.5" fill="rgb(0,0,0)" />
<circle cx="10.8263" cy="1.49264" r="0.5" fill="rgb(0,0,0)" />
<circle cx="5.46417" cy="16.891" r="0.5" fill="rgb(0,0,0)" />
<circle cx="1.73452" cy="16.8382" r="0.5" fill="rgb(0,0,0)" />
<circle cx="11.9866" cy="17.519" r="0.5" fill="rgb(0,0,0)" />
<circle cx="4.27427" cy="1.30925" r="0.5" fill="rgb(0,0,0)" />
<circle cx="1.25594" cy="9.20044" r="0.5" fill="rgb(0,0,0)" />
<circle cx="1.13368" cy="5.42262" r="0.5" fill="rgb(0,0,0)" />
<circle cx="14.8784" cy="18.0011" r="0.5" fill="rgb(0,0,0)" />
<circle cx="1.27243" cy="1.6371" r="0.5" fill="rgb(0,0,0)" />
<circle cx="17.5806" cy="17.7281" r="0.5" fill="rgb(0,0,0)" />
<circle cx="17.7973" cy="15.067" r="0.5" fill="rgb(0,0,0)" />
</svg>
