<?xml version="1.0" ?>
<!DOCTYPE svg PUBLIC "-//W3C//DTD SVG 1.1//EN" "http://www.w3.org/Graphics/SVG/1.1/DTD/svg11.dtd">
<svg width="20" height="20" version="1.1" xmlns="http://www.w3.org/2000/svg">
<circle cx="16.4881" cy="1.75831" r="0.5" fill="rgb(0,0,0)" />
<circle cx="10.2445" cy="1.15301" r="0.5" fill="rgb(0,0,0)" />
<circle cx="12.45" cy="2.19235" r="0.5" fill="rgb(0,0,0)" />
<circle cx="14.0802" cy="2.53242" r="0.5" fill="rgb(0,0,0)" />
<circle cx="14.9208" cy="4.09483" r="0.5" fill="rgb(0,0,0)" />
<circle cx="5.95265" cy="3.40186" r="0.5" fill="rgb(0,0,0)" />
<circle cx="16.1267" cy="4.35078" r="0.5" fill="rgb(0,0,0)" />
<circle cx="13.0597" cy="4.13847" r="0.5" fill="rgb(0,0,0)" />
<circle cx="8.98612" cy="3.56334" r="0.5" fill="rgb(0,0,0)" />
<circle cx="3.69591" cy="3.72013" r="0.5" fill="rgb(0,0,0)" />
<circle cx="2.237" cy="5.56127" r="0.5" fill="rgb(0,0,0)" />
<circle cx="15.8846" cy="6.34985" r="0.5" fill="rgb(0,0,0)" />
<circle cx="10.3974" cy="6.16157" r="0.5" fill="rgb(0,0,0)" />
<circle cx="3.86407" cy="6.45251" r="0.5" fill="rgb(0,0,0)" />
<circle cx="5.70875" cy="7.28651" r="0.5" fill="rgb(0,0,0)" />
<circle cx="17.9577" cy="6.70573" r="0.5" fill="rgb(0,0,0)" />
<circle cx="2.65404" cy="8.15844" r="0.5" fill="rgb(0,0,0)" />
<circle cx="16.2571" cy="8.23945" r="0.5" fill="rgb(0,0,0)" />
<circle cx="11.9605" cy="7.99254" r="0.5" fill="rgb(0,0,0)" />
<circle cx="13.9228" cy="8.69317" r="0.5" fill="rgb(0,0,0)" />
<circle cx="4.67199" cy="9.1746" r="0.5" fill="rgb(0,0,0)" />
<circle cx="2.13083" cy="2.5384" r="0.5" fill="rgb(0,0,0)" />
<circle cx="15.9556" cy="10.2033" r="0.5" fill="rgb(0,0,0)" />
<circle cx="13.7416" cy="10.722" r="0.5" fill="rgb(0,0,0)" />
<circle cx="7.39774" cy="8.39851" r="0.5" fill="rgb(0,0,0)" />
<circle cx="11.329" cy="9.46708" r="0.5" fill="rgb(0,0,0)" />
<circle cx="6.34592" cy="10.4502" r="0.5" fill="rgb(0,0,0)" />
<circle cx="11.2029" cy="11.2197" r="0.5" fill="rgb(0,0,0)" />
<circle cx="16.9783" cy="5.54809" r="0.5" fill="rgb(0,0,0)" />
<circle cx="15.5299" cy="12.2429" r="0.5" fill="rgb(0,0,0)" />
<circle cx="3.92555" cy="12.078" r="0.5" fill="rgb(0,0,0)" />
<circle cx="14.3052" cy="13.5756" r="0.5" fill="rgb(0,0,0)" />
<circle cx="9.52126" cy="8.34527" r="0.5" fill="rgb(0,0,0)" />
<circle cx="10.1067" cy="13.1484" r="0.5" fill="rgb(0,0,0)" />
<circle cx="6.29613" cy="12.9436" r="0.5" fill="rgb(0,0,0)" />
<circle cx="15.1705" cy="15.06" r="0.5" fill="rgb(0,0,0)" />
<circle cx="11.2454" cy="3.85053" r="0.5" fill="rgb(0,0,0)" />
<circle cx="17.8324" cy="14.6411" r="0.5" fill="rgb(0,0,0)" />
<circle cx="1.24422" cy="11.4832" r="0.5" fill="rgb(0,0,0)" />
<circle cx="13.2642" cy="15.2614" r="0.5" fill="rgb(0,0,0)" />
<circle cx="12.5487" cy="0.611379" r="0.5" fill="rgb(0,0,0)" />
<circle cx="17.2548" cy="3.77334" r="0.5" fill="rgb(0,0,0)" />
<circle cx="6.27615" cy="5.19653" r="0.5" fill="rgb(0,0,0)" />
<circle cx="8.88817" cy="10.509" r="0.5" fill="rgb(0,0,0)" />
<circle cx="4.67467" cy="14.3989" r="0.5" fill="rgb(0,0,0)" />
<circle cx="2.55462" cy="14.6747" r="0.5" fill="rgb(0,0,0)" />
<circle cx="14.3485" cy="15.9181" r="0.5" fill="rgb(0,0,0)" />
<circle cx="16.174" cy="16.4725" r="0.5" fill="rgb(0,0,0)" />
<circle cx="11.9712" cy="16.3115" r="0.5" fill="rgb(0,0,0)" />
<circle cx="5.38779" cy="15.9539" r="0.5" fill="rgb(0,0,0)" />
<circle cx="13.9565" cy="17.0141" r="0.5" fill="rgb(0,0,0)" />
<circle cx="14.2612" cy="5.39649" r="0.5" fill="rgb(0,0,0)" />
<circle cx="6.94758" cy="16.5861" r="0.5" fill="rgb(0,0,0)" />
<circle cx="0.851584" cy="4.0429" r="0.5" fill="rgb(0,0,0)" />
<circle cx="2.5802" cy="17.0539" r="0.5" fill="rgb(0,0,0)" />
<circle cx="15.9301" cy="17.7924" r="0.5" fill="rgb(0,0,0)" />
<circle cx="10.4565" cy="15.061" r="0.5" fill="rgb(0,0,0)" />
<circle cx="0.975921" cy="13.413" r="0.5" fill="rgb(0,0,0)" />
<circle cx="16.3211" cy="14.271" r="0.5" fill="rgb(0,0,0)" />
<circle cx="0.938874" cy="16.0476" r="0.5" fill="rgb(0,0,0)" />
<circle cx="14.2756" cy="18.195" r="0.5" fill="rgb(0,0,0)" />
<circle cx="8.02311" cy="15.0671" r="0.5" fill="rgb(0,0,0)" />
<circle cx="9.99273" cy="17.3713" r="0.5" fill="rgb(0,0,0)" />
<circle cx="0.905602" cy="9.7262" r="0.5" fill="rgb(0,0,0)" />
<circle cx="2.9836" cy="10.163" r="0.5" fill="rgb(0,0,0)" />
<circle cx="4.3833" cy="17.4308" r="0.5" fill="rgb(0,0,0)" />
<circle cx="0.849022" cy="7.975" r="0.5" fill="rgb(0,0,0)" />
<circle cx="7.80121" cy="1.21834" r="0.5" fill="rgb(0,0,0)" />
<circle cx="11.7094" cy="17.9616" r="0.5" fill="rgb(0,0,0)" />
<circle cx="12.5879" cy="12.5129" r="0.5" fill="rgb(0,0,0)" />
<circle cx="17.8285" cy="12.4292" r="0.5" fill="rgb(0,0,0)" />
<circle cx="14.4637" cy="7.08078" r="0.5" fill="rgb(0,0,0)" />
<circle cx="0.698972" cy="6.30745" r="0.5" fill="rgb(0,0,0)" />
<circle cx="17.3178" cy="17.9305" r="0.5" fill="rgb(0,0,0)" />
<circle cx="5.44837" cy="1.20011" r="0.5" fill="rgb(0,0,0)" />
<circle cx="17.9709" cy="10.1496" r="0.5" fill="rgb(0,0,0)" />
<circle cx="14.9507" cy="0.706785" r="0.5" fill="rgb(0,0,0)" />
<circle cx="12.551" cy="6.21509" r="0.5" fill="rgb(0,0,0)" />
<circle cx="18.1642" cy="8.21909" r="0.5" fill="rgb(0,0,0)" />
<circle cx="15.5374" cy="18.5862" r="0.5" fill="rgb(0,0,0)" />
<circle cx="6.14644" cy="18.173" r="0.5" fill="rgb(0,0,0)" />
<circle cx="12.9346" cy="18.3474" r="0.5" fill="rgb(0,0,0)" />
<circle cx="8.33589" cy="17.9331" r="0.5" fill="rgb(0,0,0)" />
<circle cx="18.4242" cy="17.8734" r="0.5" fill="rgb(0,0,0)" />
<circle cx="18.1719" cy="16.0358" r="0.5" fill="rgb(0,0,0)" />
<circle cx="15.5819" cy="2.64759" r="0.5" fill="rgb(0,0,0)" />
<circle cx="0.756647" cy="1.17868" r="0.5" fill="rgb(0,0,0)" />
<circle cx="8.28162" cy="6.05723" r="0.5" fill="rgb(0,0,0)" />
<circle cx="8.27764" cy="12.5713" r="0.5" fill="rgb(0,0,0)" />
<circle cx="3.13813" cy="0.862811" r="0.5" fill="rgb(0,0,0)" />
<circle cx="3.03972" cy="18.4473" r="0.5" fill="rgb(0,0,0)" />
<circle cx="12.3036" cy="14.2016" r="0.5" fill="rgb(0,0,0)" />
<circle cx="0.732389" cy="17.9949" r="0.5" fill="rgb(0,0,0)" />
<circle cx="18.33" cy="4.94638" r="0.5" fill="rgb(0,0,0)" />
<circle cx="18.198" cy="2.98763" r="0.5" fill="rgb(0,0,0)" />
<circle cx="18.1296" cy="1.64515" r="0.5" fill="rgb(0,0,0)" />
<circle cx="17.6135" cy="0.468434" r="0.5" fill="rgb(0,0,0)" />
</svg>
