<?xml version="1.0" ?>
<!DOCTYPE svg PUBLIC "-//W3C//DTD SVG 1.1//EN" "http://www.w3.org/Graphics/SVG/1.1/DTD/svg11.dtd">
<svg width="20" height="20" version="1.1" xmlns="http://www.w3.org/2000/svg">
<circle cx="10.3077" cy="0.299052" r="0.5" fill="rgb(0,0,0)" />
<circle cx="13.579" cy="0.318215" r="0.5" fill="rgb(0,0,0)" />
<circle cx="5.75358" cy="0.369846" r="0.5" fill="rgb(0,0,0)" />
<circle cx="14.7914" cy="0.355946" r="0.5" fill="rgb(0,0,0)" />
<circle cx="12.5458" cy="0.363346" r="0.5" fill="rgb(0,0,0)" />
<circle cx="4.34132" cy="0.482614" r="0.5" fill="rgb(0,0,0)" />
<circle cx="11.9942" cy="0.791508" r="0.5" fill="rgb(0,0,0)" />
<circle cx="17.3423" cy="0.589203" r="0.5" fill="rgb(0,0,0)" />
<circle cx="7.76677" cy="0.871977" r="0.5" fill="rgb(0,0,0)" />
<circle cx="9.15556" cy="0.565839" r="0.5" fill="rgb(0,0,0)" />
<circle cx="16.0142" cy="0.724504" r="0.5" fill="rgb(0,0,0)" />
<circle cx="5.52242" cy="1.28644" r="0.5" fill="rgb(0,0,0)" />
<circle cx="6.78063" cy="1.22053" r="0.5" fill="rgb(0,0,0)" />
<circle cx="14.682" cy="1.34481" r="0.5" fill="rgb(0,0,0)" />
<circle cx="10.4119" cy="1.44262" r="0.5" fill="rgb(0,0,0)" />
<circle cx="11.9888" cy="1.69" r="0.5" fill="rgb(0,0,0)" />
<circle cx="4.54877" cy="1.5675" r="0.5" fill="rgb(0,0,0)" />
<circle cx="9.18509" cy="1.70091" r="0.5" fill="rgb(0,0,0)" />
<circle cx="17.2276" cy="1.74248" r="0.5" fill="rgb(0,0,0)" />
<circle cx="13.5079" cy="2.35748" r="0.5" fill="rgb(0,0,0)" />
<circle cx="7.84119" cy="1.7428" r="0.5" fill="rgb(0,0,0)" />
<circle cx="14.2791" cy="2.21705" r="0.5" fill="rgb(0,0,0)" />
<circle cx="5.72283" cy="2.35294" r="0.5" fill="rgb(0,0,0)" />
<circle cx="1.8272" cy="1.96271" r="0.5" fill="rgb(0,0,0)" />
<circle cx="12.5454" cy="2.31122" r="0.5" fill="rgb(0,0,0)" />
<circle cx="13.052" cy="2.80133" r="0.5" fill="rgb(0,0,0)" />
<circle cx="6.75532" cy="2.75559" r="0.5" fill="rgb(0,0,0)" />
<circle cx="15.2935" cy="2.60343" r="0.5" fill="rgb(0,0,0)" />
<circle cx="7.66574" cy="2.68011" r="0.5" fill="rgb(0,0,0)" />
<circle cx="8.64278" cy="2.81228" r="0.5" fill="rgb(0,0,0)" />
<circle cx="11.6235" cy="2.66967" r="0.5" fill="rgb(0,0,0)" />
<circle cx="10.61" cy="2.61958" r="0.5" fill="rgb(0,0,0)" />
<circle cx="14.5789" cy="3.0836" r="0.5" fill="rgb(0,0,0)" />
<circle cx="16.6738" cy="2.27623" r="0.5" fill="rgb(0,0,0)" />
<circle cx="13.7159" cy="3.31165" r="0.5" fill="rgb(0,0,0)" />
<circle cx="2.24506" cy="3.03407" r="0.5" fill="rgb(0,0,0)" />
<circle cx="4.40885" cy="3.57318" r="0.5" fill="rgb(0,0,0)" />
<circle cx="5.2977" cy="3.65132" r="0.5" fill="rgb(0,0,0)" />
<circle cx="9.6203" cy="3.53113" r="0.5" fill="rgb(0,0,0)" />
<circle cx="3.60865" cy="3.56457" r="0.5" fill="rgb(0,0,0)" />
<circle cx="15.4612" cy="3.77194" r="0.5" fill="rgb(0,0,0)" />
<circle cx="6.44098" cy="3.85839" r="0.5" fill="rgb(0,0,0)" />
<circle cx="7.53025" cy="3.77248" r="0.5" fill="rgb(0,0,0)" />
<circle cx="8.61136" cy="3.91225" r="0.5" fill="rgb(0,0,0)" />
<circle cx="17.6333" cy="3.99128" r="0.5" fill="rgb(0,0,0)" />
<circle cx="6.36141" cy="1.83151" r="0.5" fill="rgb(0,0,0)" />
<circle cx="11.6848" cy="3.89861" r="0.5" fill="rgb(0,0,0)" />
<circle cx="2.78059" cy="4.01693" r="0.5" fill="rgb(0,0,0)" />
<circle cx="4.74241" cy="4.39876" r="0.5" fill="rgb(0,0,0)" />
<circle cx="9.63533" cy="2.5696" r="0.5" fill="rgb(0,0,0)" />
<circle cx="10.6272" cy="3.93319" r="0.5" fill="rgb(0,0,0)" />
<circle cx="14.6275" cy="4.28117" r="0.5" fill="rgb(0,0,0)" />
<circle cx="16.6818" cy="4.4547" r="0.5" fill="rgb(0,0,0)" />
<circle cx="5.52742" cy="4.5318" r="0.5" fill="rgb(0,0,0)" />
<circle cx="3.80329" cy="4.54586" r="0.5" fill="rgb(0,0,0)" />
<circle cx="1.26845" cy="4.79228" r="0.5" fill="rgb(0,0,0)" />
<circle cx="13.4855" cy="1.64133" r="0.5" fill="rgb(0,0,0)" />
<circle cx="6.8555" cy="4.71199" r="0.5" fill="rgb(0,0,0)" />
<circle cx="13.013" cy="4.75894" r="0.5" fill="rgb(0,0,0)" />
<circle cx="1.53238" cy="3.66574" r="0.5" fill="rgb(0,0,0)" />
<circle cx="9.15954" cy="4.94284" r="0.5" fill="rgb(0,0,0)" />
<circle cx="7.98244" cy="4.90839" r="0.5" fill="rgb(0,0,0)" />
<circle cx="5.80239" cy="5.24753" r="0.5" fill="rgb(0,0,0)" />
<circle cx="12.6639" cy="3.6031" r="0.5" fill="rgb(0,0,0)" />
<circle cx="14.0037" cy="5.13815" r="0.5" fill="rgb(0,0,0)" />
<circle cx="17.4055" cy="5.2058" r="0.5" fill="rgb(0,0,0)" />
<circle cx="3.19423" cy="1.56304" r="0.5" fill="rgb(0,0,0)" />
<circle cx="15.8858" cy="2.27656" r="0.5" fill="rgb(0,0,0)" />
<circle cx="4.58478" cy="5.37408" r="0.5" fill="rgb(0,0,0)" />
<circle cx="10.3174" cy="5.20529" r="0.5" fill="rgb(0,0,0)" />
<circle cx="6.5928" cy="5.66381" r="0.5" fill="rgb(0,0,0)" />
<circle cx="8.87169" cy="5.82329" r="0.5" fill="rgb(0,0,0)" />
<circle cx="11.8448" cy="5.11159" r="0.5" fill="rgb(0,0,0)" />
<circle cx="14.4707" cy="5.84599" r="0.5" fill="rgb(0,0,0)" />
<circle cx="18.2884" cy="5.65405" r="0.5" fill="rgb(0,0,0)" />
<circle cx="1.30302" cy="5.83048" r="0.5" fill="rgb(0,0,0)" />
<circle cx="15.6326" cy="6.04945" r="0.5" fill="rgb(0,0,0)" />
<circle cx="2.26724" cy="4.8512" r="0.5" fill="rgb(0,0,0)" />
<circle cx="4.33061" cy="6.31832" r="0.5" fill="rgb(0,0,0)" />
<circle cx="12.9329" cy="5.97816" r="0.5" fill="rgb(0,0,0)" />
<circle cx="5.72552" cy="6.39049" r="0.5" fill="rgb(0,0,0)" />
<circle cx="17.0314" cy="6.44645" r="0.5" fill="rgb(0,0,0)" />
<circle cx="9.64089" cy="6.56175" r="0.5" fill="rgb(0,0,0)" />
<circle cx="8.5958" cy="6.87641" r="0.5" fill="rgb(0,0,0)" />
<circle cx="14.3583" cy="6.89372" r="0.5" fill="rgb(0,0,0)" />
<circle cx="7.68157" cy="7.16035" r="0.5" fill="rgb(0,0,0)" />
<circle cx="1.58898" cy="7.17795" r="0.5" fill="rgb(0,0,0)" />
<circle cx="18.1008" cy="7.09518" r="0.5" fill="rgb(0,0,0)" />
<circle cx="2.91551" cy="6.97472" r="0.5" fill="rgb(0,0,0)" />
<circle cx="10.236" cy="7.29872" r="0.5" fill="rgb(0,0,0)" />
<circle cx="12.619" cy="7.09309" r="0.5" fill="rgb(0,0,0)" />
<circle cx="6.58559" cy="7.65426" r="0.5" fill="rgb(0,0,0)" />
<circle cx="11.2717" cy="7.2253" r="0.5" fill="rgb(0,0,0)" />
<circle cx="4.27688" cy="7.37709" r="0.5" fill="rgb(0,0,0)" />
<circle cx="1.07666" cy="7.92794" r="0.5" fill="rgb(0,0,0)" />
<circle cx="13.5728" cy="7.82291" r="0.5" fill="rgb(0,0,0)" />
<circle cx="4.12978" cy="2.45109" r="0.5" fill="rgb(0,0,0)" />
<circle cx="7.32214" cy="8.12271" r="0.5" fill="rgb(0,0,0)" />
<circle cx="8.50508" cy="8.0511" r="0.5" fill="rgb(0,0,0)" />
<circle cx="5.89507" cy="8.22721" r="0.5" fill="rgb(0,0,0)" />
<circle cx="3.683" cy="8.12094" r="0.5" fill="rgb(0,0,0)" />
<circle cx="11.8632" cy="8.16533" r="0.5" fill="rgb(0,0,0)" />
<circle cx="15.8905" cy="4.51306" r="0.5" fill="rgb(0,0,0)" />
<circle cx="14.798" cy="8.19858" r="0.5" fill="rgb(0,0,0)" />
<circle cx="10.2611" cy="8.4779" r="0.5" fill="rgb(0,0,0)" />
<circle cx="8.11515" cy="8.75606" r="0.5" fill="rgb(0,0,0)" />
<circle cx="7.27248" cy="9.01347" r="0.5" fill="rgb(0,0,0)" />
<circle cx="5.27914" cy="7.48716" r="0.5" fill="rgb(0,0,0)" />
<circle cx="13.8762" cy="9.01236" r="0.5" fill="rgb(0,0,0)" />
<circle cx="4.0413" cy="9.19299" r="0.5" fill="rgb(0,0,0)" />
<circle cx="12.5528" cy="8.92918" r="0.5" fill="rgb(0,0,0)" />
<circle cx="1.40773" cy="9.23836" r="0.5" fill="rgb(0,0,0)" />
<circle cx="3.44877" cy="9.47131" r="0.5" fill="rgb(0,0,0)" />
<circle cx="17.0766" cy="9.17737" r="0.5" fill="rgb(0,0,0)" />
<circle cx="13.2747" cy="1.07855" r="0.5" fill="rgb(0,0,0)" />
<circle cx="7.25587" cy="9.81754" r="0.5" fill="rgb(0,0,0)" />
<circle cx="15.968" cy="9.63337" r="0.5" fill="rgb(0,0,0)" />
<circle cx="9.84662" cy="9.39754" r="0.5" fill="rgb(0,0,0)" />
<circle cx="2.7951" cy="9.91135" r="0.5" fill="rgb(0,0,0)" />
<circle cx="14.6787" cy="9.84656" r="0.5" fill="rgb(0,0,0)" />
<circle cx="4.46777" cy="10.1503" r="0.5" fill="rgb(0,0,0)" />
<circle cx="12.897" cy="9.81484" r="0.5" fill="rgb(0,0,0)" />
<circle cx="1.80715" cy="10.2147" r="0.5" fill="rgb(0,0,0)" />
<circle cx="3.31239" cy="10.5208" r="0.5" fill="rgb(0,0,0)" />
<circle cx="5.49718" cy="10.3214" r="0.5" fill="rgb(0,0,0)" />
<circle cx="6.88152" cy="10.4227" r="0.5" fill="rgb(0,0,0)" />
<circle cx="16.1957" cy="8.29467" r="0.5" fill="rgb(0,0,0)" />
<circle cx="7.45647" cy="10.8371" r="0.5" fill="rgb(0,0,0)" />
<circle cx="8.53149" cy="10.814" r="0.5" fill="rgb(0,0,0)" />
<circle cx="15.7163" cy="10.6495" r="0.5" fill="rgb(0,0,0)" />
<circle cx="11.9692" cy="10.4676" r="0.5" fill="rgb(0,0,0)" />
<circle cx="17.1554" cy="10.6027" r="0.5" fill="rgb(0,0,0)" />
<circle cx="0.510249" cy="3.52152" r="0.5" fill="rgb(0,0,0)" />
<circle cx="14.0303" cy="11.1155" r="0.5" fill="rgb(0,0,0)" />
<circle cx="3.7303" cy="11.4489" r="0.5" fill="rgb(0,0,0)" />
<circle cx="0.8759" cy="11.2086" r="0.5" fill="rgb(0,0,0)" />
<circle cx="10.8388" cy="10.9208" r="0.5" fill="rgb(0,0,0)" />
<circle cx="6.01035" cy="11.5099" r="0.5" fill="rgb(0,0,0)" />
<circle cx="7.18607" cy="11.7902" r="0.5" fill="rgb(0,0,0)" />
<circle cx="2.26253" cy="11.496" r="0.5" fill="rgb(0,0,0)" />
<circle cx="15.0041" cy="12.4701" r="0.5" fill="rgb(0,0,0)" />
<circle cx="8.20208" cy="12.3276" r="0.5" fill="rgb(0,0,0)" />
<circle cx="3.31185" cy="12.4113" r="0.5" fill="rgb(0,0,0)" />
<circle cx="9.13718" cy="9.88716" r="0.5" fill="rgb(0,0,0)" />
<circle cx="10.4752" cy="12.2598" r="0.5" fill="rgb(0,0,0)" />
<circle cx="2.83104" cy="8.41397" r="0.5" fill="rgb(0,0,0)" />
<circle cx="6.7534" cy="12.5974" r="0.5" fill="rgb(0,0,0)" />
<circle cx="4.97731" cy="12.3999" r="0.5" fill="rgb(0,0,0)" />
<circle cx="3.17605" cy="5.55038" r="0.5" fill="rgb(0,0,0)" />
<circle cx="13.4322" cy="12.6612" r="0.5" fill="rgb(0,0,0)" />
<circle cx="4.90214" cy="8.95432" r="0.5" fill="rgb(0,0,0)" />
<circle cx="15.141" cy="13.5319" r="0.5" fill="rgb(0,0,0)" />
<circle cx="15.3286" cy="8.9513" r="0.5" fill="rgb(0,0,0)" />
<circle cx="12.1669" cy="13.1328" r="0.5" fill="rgb(0,0,0)" />
<circle cx="3.866" cy="13.4394" r="0.5" fill="rgb(0,0,0)" />
<circle cx="10.5515" cy="13.3226" r="0.5" fill="rgb(0,0,0)" />
<circle cx="6.2424" cy="13.342" r="0.5" fill="rgb(0,0,0)" />
<circle cx="4.81537" cy="13.8348" r="0.5" fill="rgb(0,0,0)" />
<circle cx="13.4665" cy="13.9883" r="0.5" fill="rgb(0,0,0)" />
<circle cx="16.3356" cy="13.3465" r="0.5" fill="rgb(0,0,0)" />
<circle cx="9.61054" cy="10.6646" r="0.5" fill="rgb(0,0,0)" />
<circle cx="5.87233" cy="14.1828" r="0.5" fill="rgb(0,0,0)" />
<circle cx="14.3776" cy="14.3089" r="0.5" fill="rgb(0,0,0)" />
<circle cx="17.0808" cy="7.70323" r="0.5" fill="rgb(0,0,0)" />
<circle cx="15.5687" cy="14.4744" r="0.5" fill="rgb(0,0,0)" />
<circle cx="9.3674" cy="11.8247" r="0.5" fill="rgb(0,0,0)" />
<circle cx="17.1051" cy="14.067" r="0.5" fill="rgb(0,0,0)" />
<circle cx="11.1313" cy="9.26146" r="0.5" fill="rgb(0,0,0)" />
<circle cx="4.89829" cy="14.9048" r="0.5" fill="rgb(0,0,0)" />
<circle cx="12.5282" cy="14.374" r="0.5" fill="rgb(0,0,0)" />
<circle cx="3.10201" cy="14.5176" r="0.5" fill="rgb(0,0,0)" />
<circle cx="13.4878" cy="15.0498" r="0.5" fill="rgb(0,0,0)" />
<circle cx="4.00245" cy="14.8835" r="0.5" fill="rgb(0,0,0)" />
<circle cx="9.13976" cy="14.5292" r="0.5" fill="rgb(0,0,0)" />
<circle cx="4.69075" cy="11.1561" r="0.5" fill="rgb(0,0,0)" />
<circle cx="5.63235" cy="15.3138" r="0.5" fill="rgb(0,0,0)" />
<circle cx="17.9906" cy="14.7793" r="0.5" fill="rgb(0,0,0)" />
<circle cx="15.277" cy="5.11917" r="0.5" fill="rgb(0,0,0)" />
<circle cx="6.60954" cy="15.0322" r="0.5" fill="rgb(0,0,0)" />
<circle cx="7.84547" cy="15.0776" r="0.5" fill="rgb(0,0,0)" />
<circle cx="15.0619" cy="15.3275" r="0.5" fill="rgb(0,0,0)" />
<circle cx="17.9768" cy="2.6048" r="0.5" fill="rgb(0,0,0)" />
<circle cx="2.22908" cy="15.3831" r="0.5" fill="rgb(0,0,0)" />
<circle cx="15.6718" cy="7.16315" r="0.5" fill="rgb(0,0,0)" />
<circle cx="8.68187" cy="9.22972" r="0.5" fill="rgb(0,0,0)" />
<circle cx="6.11055" cy="9.11502" r="0.5" fill="rgb(0,0,0)" />
<circle cx="5.68511" cy="16.0449" r="0.5" fill="rgb(0,0,0)" />
<circle cx="14.2541" cy="15.7424" r="0.5" fill="rgb(0,0,0)" />
<circle cx="3.25886" cy="15.8035" r="0.5" fill="rgb(0,0,0)" />
<circle cx="16.3152" cy="15.3774" r="0.5" fill="rgb(0,0,0)" />
<circle cx="11.9619" cy="15.6703" r="0.5" fill="rgb(0,0,0)" />
<circle cx="1.29668" cy="16.1289" r="0.5" fill="rgb(0,0,0)" />
<circle cx="7.39266" cy="16.1185" r="0.5" fill="rgb(0,0,0)" />
<circle cx="5.94206" cy="3.27472" r="0.5" fill="rgb(0,0,0)" />
<circle cx="3.94933" cy="16.1593" r="0.5" fill="rgb(0,0,0)" />
<circle cx="8.86758" cy="16.1688" r="0.5" fill="rgb(0,0,0)" />
<circle cx="6.54711" cy="16.4866" r="0.5" fill="rgb(0,0,0)" />
<circle cx="9.35709" cy="7.99593" r="0.5" fill="rgb(0,0,0)" />
<circle cx="17.2333" cy="16.1829" r="0.5" fill="rgb(0,0,0)" />
<circle cx="7.60217" cy="13.8021" r="0.5" fill="rgb(0,0,0)" />
<circle cx="5.52583" cy="16.7476" r="0.5" fill="rgb(0,0,0)" />
<circle cx="12.6153" cy="16.5393" r="0.5" fill="rgb(0,0,0)" />
<circle cx="6.62702" cy="6.81253" r="0.5" fill="rgb(0,0,0)" />
<circle cx="10.0973" cy="15.6842" r="0.5" fill="rgb(0,0,0)" />
<circle cx="1.99737" cy="16.6657" r="0.5" fill="rgb(0,0,0)" />
<circle cx="6.2713" cy="10.1854" r="0.5" fill="rgb(0,0,0)" />
<circle cx="10.9434" cy="16.6069" r="0.5" fill="rgb(0,0,0)" />
<circle cx="16.4384" cy="5.49618" r="0.5" fill="rgb(0,0,0)" />
<circle cx="1.2796" cy="17.2615" r="0.5" fill="rgb(0,0,0)" />
<circle cx="15.1385" cy="16.4755" r="0.5" fill="rgb(0,0,0)" />
<circle cx="4.38796" cy="16.806" r="0.5" fill="rgb(0,0,0)" />
<circle cx="2.97411" cy="16.7207" r="0.5" fill="rgb(0,0,0)" />
<circle cx="16.854" cy="17.2611" r="0.5" fill="rgb(0,0,0)" />
<circle cx="15.8661" cy="17.0315" r="0.5" fill="rgb(0,0,0)" />
<circle cx="2.44422" cy="9.28281" r="0.5" fill="rgb(0,0,0)" />
<circle cx="1.9662" cy="17.7468" r="0.5" fill="rgb(0,0,0)" />
<circle cx="16.6916" cy="3.3971" r="0.5" fill="rgb(0,0,0)" />
<circle cx="7.75939" cy="17.1229" r="0.5" fill="rgb(0,0,0)" />
<circle cx="5.84125" cy="17.4191" r="0.5" fill="rgb(0,0,0)" />
<circle cx="1.2144" cy="17.8887" r="0.5" fill="rgb(0,0,0)" />
<circle cx="8.78412" cy="13.1774" r="0.5" fill="rgb(0,0,0)" />
<circle cx="11.983" cy="17.4944" r="0.5" fill="rgb(0,0,0)" />
<circle cx="2.48227" cy="13.3282" r="0.5" fill="rgb(0,0,0)" />
<circle cx="4.72109" cy="15.802" r="0.5" fill="rgb(0,0,0)" />
<circle cx="2.81819" cy="17.7055" r="0.5" fill="rgb(0,0,0)" />
<circle cx="14.2668" cy="12.8908" r="0.5" fill="rgb(0,0,0)" />
<circle cx="9.06945" cy="17.3352" r="0.5" fill="rgb(0,0,0)" />
<circle cx="11.009" cy="17.7932" r="0.5" fill="rgb(0,0,0)" />
<circle cx="18.1227" cy="13.1781" r="0.5" fill="rgb(0,0,0)" />
<circle cx="18.0658" cy="11.6078" r="0.5" fill="rgb(0,0,0)" />
<circle cx="8.10833" cy="9.91831" r="0.5" fill="rgb(0,0,0)" />
<circle cx="18.337" cy="17.0439" r="0.5" fill="rgb(0,0,0)" />
<circle cx="18.4608" cy="15.7105" r="0.5" fill="rgb(0,0,0)" />
<circle cx="14.4086" cy="17.9228" r="0.5" fill="rgb(0,0,0)" />
<circle cx="13.1947" cy="17.4521" r="0.5" fill="rgb(0,0,0)" />
<circle cx="15.4419" cy="17.9586" r="0.5" fill="rgb(0,0,0)" />
<circle cx="2.07439" cy="6.25975" r="0.5" fill="rgb(0,0,0)" />
<circle cx="10.7115" cy="14.3618" r="0.5" fill="rgb(0,0,0)" />
<circle cx="17.6058" cy="17.9487" r="0.5" fill="rgb(0,0,0)" />
<circle cx="6.79103" cy="17.7231" r="0.5" fill="rgb(0,0,0)" />
<circle cx="8.25991" cy="18.0353" r="0.5" fill="rgb(0,0,0)" />
<circle cx="13.249" cy="15.8529" r="0.5" fill="rgb(0,0,0)" />
<circle cx="4.87715" cy="17.7333" r="0.5" fill="rgb(0,0,0)" />
<circle cx="18.4296" cy="1.68367" r="0.5" fill="rgb(0,0,0)" />
<circle cx="13.7248" cy="4.12745" r="0.5" fill="rgb(0,0,0)" />
<circle cx="8.14756" cy="11.5267" r="0.5" fill="rgb(0,0,0)" />
<circle cx="14.1548" cy="16.9691" r="0.5" fill="rgb(0,0,0)" />
<circle cx="18.4538" cy="0.487002" r="0.5" fill="rgb(0,0,0)" />
<circle cx="18.401" cy="18.3711" r="0.5" fill="rgb(0,0,0)" />
<circle cx="18.7567" cy="18.1485" r="0.5" fill="rgb(0,0,0)" />
<circle cx="7.5232" cy="6.02127" r="0.5" fill="rgb(0,0,0)" />
<circle cx="16.2276" cy="12.0214" r="0.5" fill="rgb(0,0,0)" />
<circle cx="11.5196" cy="14.8155" r="0.5" fill="rgb(0,0,0)" />
<circle cx="9.79857" cy="17.9746" r="0.5" fill="rgb(0,0,0)" />
<circle cx="0.414318" cy="16.5919" r="0.5" fill="rgb(0,0,0)" />
<circle cx="4.24245" cy="18.238" r="0.5" fill="rgb(0,0,0)" />
<circle cx="17.8734" cy="18.7224" r="0.5" fill="rgb(0,0,0)" />
<circle cx="13.5374" cy="10.3871" r="0.5" fill="rgb(0,0,0)" />
<circle cx="16.5671" cy="18.4277" r="0.5" fill="rgb(0,0,0)" />
<circle cx="0.444912" cy="10.0632" r="0.5" fill="rgb(0,0,0)" />
<circle cx="0.435197" cy="8.64724" r="0.5" fill="rgb(0,0,0)" />
<circle cx="0.499242" cy="14.8958" r="0.5" fill="rgb(0,0,0)" />
<circle cx="11.2285" cy="0.663959" r="0.5" fill="rgb(0,0,0)" />
<circle cx="12.4816" cy="11.7448" r="0.5" fill="rgb(0,0,0)" />
<circle cx="0.376327" cy="12.5504" r="0.5" fill="rgb(0,0,0)" />
<circle cx="18.3206" cy="9.60558" r="0.5" fill="rgb(0,0,0)" />
<circle cx="3.16126" cy="2.82197" r="0.5" fill="rgb(0,0,0)" />
<circle cx="14.8961" cy="11.4319" r="0.5" fill="rgb(0,0,0)" />
<circle cx="15.0927" cy="18.6621" r="0.5" fill="rgb(0,0,0)" />
<circle cx="13.6681" cy="18.4803" r="0.5" fill="rgb(0,0,0)" />
<circle cx="1.26253" cy="13.0227" r="0.5" fill="rgb(0,0,0)" />
<circle cx="18.4816" cy="4.53854" r="0.5" fill="rgb(0,0,0)" />
<circle cx="1.58046" cy="14.3848" r="0.5" fill="rgb(0,0,0)" />
<circle cx="18.4749" cy="3.27821" r="0.5" fill="rgb(0,0,0)" />
<circle cx="10.8405" cy="18.5998" r="0.5" fill="rgb(0,0,0)" />
<circle cx="12.3991" cy="18.4736" r="0.5" fill="rgb(0,0,0)" />
<circle cx="0.44097" cy="6.90536" r="0.5" fill="rgb(0,0,0)" />
<circle cx="9.79112" cy="4.39563" r="0.5" fill="rgb(0,0,0)" />
<circle cx="18.3624" cy="8.13022" r="0.5" fill="rgb(0,0,0)" />
<circle cx="18.6035" cy="6.50272" r="0.5" fill="rgb(0,0,0)" />
<circle cx="3.31101" cy="18.4624" r="0.5" fill="rgb(0,0,0)" />
<circle cx="8.06832" cy="18.6492" r="0.5" fill="rgb(0,0,0)" />
<circle cx="6.05605" cy="18.5176" r="0.5" fill="rgb(0,0,0)" />
<circle cx="5.0157" cy="2.78243" r="0.5" fill="rgb(0,0,0)" />
<circle cx="0.357003" cy="5.49215" r="0.5" fill="rgb(0,0,0)" />
<circle cx="0.413247" cy="4.35768" r="0.5" fill="rgb(0,0,0)" />
<circle cx="6.83842" cy="0.300143" r="0.5" fill="rgb(0,0,0)" />
<circle cx="8.11763" cy="0.263664" r="0.5" fill="rgb(0,0,0)" />
<circle cx="2.51737" cy="0.538689" r="0.5" fill="rgb(0,0,0)" />
<circle cx="11.0295" cy="6.03779" r="0.5" fill="rgb(0,0,0)" />
<circle cx="1.93691" cy="8.34384" r="0.5" fill="rgb(0,0,0)" />
<circle cx="0.568453" cy="2.30659" r="0.5" fill="rgb(0,0,0)" />
<circle cx="0.763777" cy="0.731258" r="0.5" fill="rgb(0,0,0)" />
<circle cx="0.278948" cy="17.6546" r="0.5" fill="rgb(0,0,0)" />
<circle cx="0.370721" cy="18.4709" r="0.5" fill="rgb(0,0,0)" />
<circle cx="2.07064" cy="18.5957" r="0.5" fill="rgb(0,0,0)" />
<circle cx="1.08505" cy="18.5812" r="0.5" fill="rgb(0,0,0)" />
</svg>
