<?xml version="1.0" ?>
<!DOCTYPE svg PUBLIC "-//W3C//DTD SVG 1.1//EN" "http://www.w3.org/Graphics/SVG/1.1/DTD/svg11.dtd">
<svg width="20" height="20" version="1.1" xmlns="http://www.w3.org/2000/svg">
<circle cx="16.3732" cy="0.970208" r="0.5" fill="rgb(0,0,0)" />
<circle cx="14.2389" cy="0.786783" r="0.5" fill="rgb(0,0,0)" />
<circle cx="14.9448" cy="4.48903" r="0.5" fill="rgb(0,0,0)" />
<circle cx="3.26836" cy="3.75589" r="0.5" fill="rgb(0,0,0)" />
<circle cx="11.8008" cy="4.29968" r="0.5" fill="rgb(0,0,0)" />
<circle cx="9.17305" cy="3.67896" r="0.5" fill="rgb(0,0,0)" />
<circle cx="13.5536" cy="6.36001" r="0.5" fill="rgb(0,0,0)" />
<circle cx="7.42886" cy="6.15866" r="0.5" fill="rgb(0,0,0)" />
<circle cx="3.94916" cy="6.77423" r="0.5" fill="rgb(0,0,0)" />
<circle cx="17.8058" cy="3.4179" r="0.5" fill="rgb(0,0,0)" />
<circle cx="18.1471" cy="1.07625" r="0.5" fill="rgb(0,0,0)" />
<circle cx="15.3277" cy="8.27369" r="0.5" fill="rgb(0,0,0)" />
<circle cx="9.41464" cy="8.9822" r="0.5" fill="rgb(0,0,0)" />
<circle cx="3.27848" cy="10.3241" r="0.5" fill="rgb(0,0,0)" />
<circle cx="10.788" cy="6.68917" r="0.5" fill="rgb(0,0,0)" />
<circle cx="10.5889" cy="11.6948" r="0.5" fill="rgb(0,0,0)" />
<circle cx="7.23355" cy="11.7467" r="0.5" fill="rgb(0,0,0)" />
<circle cx="17.1479" cy="10.6244" r="0.5" fill="rgb(0,0,0)" />
<circle cx="16.3372" cy="12.6524" r="0.5" fill="rgb(0,0,0)" />
<circle cx="15.0371" cy="14.2832" r="0.5" fill="rgb(0,0,0)" />
<circle cx="12.3185" cy="14.2081" r="0.5" fill="rgb(0,0,0)" />
<circle cx="6.14974" cy="9.0086" r="0.5" fill="rgb(0,0,0)" />
<circle cx="9.79454" cy="14.5429" r="0.5" fill="rgb(0,0,0)" />
<circle cx="7.07326" cy="14.9296" r="0.5" fill="rgb(0,0,0)" />
<circle cx="13.673" cy="16.0089" r="0.5" fill="rgb(0,0,0)" />
<circle cx="16.351" cy="15.9298" r="0.5" fill="rgb(0,0,0)" />
<circle cx="4.51722" cy="13.4511" r="0.5" fill="rgb(0,0,0)" />
<circle cx="11.1665" cy="17.0658" r="0.5" fill="rgb(0,0,0)" />
<circle cx="12.5454" cy="18.1041" r="0.5" fill="rgb(0,0,0)" />
<circle cx="12.1007" cy="1.52486" r="0.5" fill="rgb(0,0,0)" />
<circle cx="14.2743" cy="17.8339" r="0.5" fill="rgb(0,0,0)" />
<circle cx="17.8148" cy="8.28152" r="0.5" fill="rgb(0,0,0)" />
<circle cx="10.0075" cy="1.06464" r="0.5" fill="rgb(0,0,0)" />
<circle cx="18.1497" cy="5.75206" r="0.5" fill="rgb(0,0,0)" />
<circle cx="7.10622" cy="1.19158" r="0.5" fill="rgb(0,0,0)" />
<circle cx="9.06212" cy="17.5538" r="0.5" fill="rgb(0,0,0)" />
<circle cx="13.6985" cy="2.93719" r="0.5" fill="rgb(0,0,0)" />
<circle cx="15.8271" cy="17.9724" r="0.5" fill="rgb(0,0,0)" />
<circle cx="1.19474" cy="12.4859" r="0.5" fill="rgb(0,0,0)" />
<circle cx="12.8668" cy="9.33071" r="0.5" fill="rgb(0,0,0)" />
<circle cx="1.98438" cy="15.2257" r="0.5" fill="rgb(0,0,0)" />
<circle cx="1.09673" cy="17.5535" r="0.5" fill="rgb(0,0,0)" />
<circle cx="6.44814" cy="17.5455" r="0.5" fill="rgb(0,0,0)" />
<circle cx="4.02899" cy="17.3738" r="0.5" fill="rgb(0,0,0)" />
<circle cx="15.802" cy="2.75281" r="0.5" fill="rgb(0,0,0)" />
<circle cx="16.2958" cy="5.83498" r="0.5" fill="rgb(0,0,0)" />
<circle cx="18.0387" cy="13.6489" r="0.5" fill="rgb(0,0,0)" />
<circle cx="1.12932" cy="8.33413" r="0.5" fill="rgb(0,0,0)" />
<circle cx="1.11735" cy="4.92437" r="0.5" fill="rgb(0,0,0)" />
<circle cx="1.14211" cy="1.48259" r="0.5" fill="rgb(0,0,0)" />
<circle cx="5.90128" cy="3.71316" r="0.5" fill="rgb(0,0,0)" />
<circle cx="13.8422" cy="11.7899" r="0.5" fill="rgb(0,0,0)" />
<circle cx="3.91785" cy="1.1223" r="0.5" fill="rgb(0,0,0)" />
<circle cx="17.8033" cy="18.0899" r="0.5" fill="rgb(0,0,0)" />
<circle cx="18.1256" cy="16.2755" r="0.5" fill="rgb(0,0,0)" />
</svg>
