<?xml version="1.0" ?>
<!DOCTYPE svg PUBLIC "-//W3C//DTD SVG 1.1//EN" "http://www.w3.org/Graphics/SVG/1.1/DTD/svg11.dtd">
<svg width="20" height="20" version="1.1" xmlns="http://www.w3.org/2000/svg">
<circle cx="10.6498" cy="3.91435" r="0.5" fill="rgb(0,0,0)" />
<circle cx="5.73203" cy="4.29808" r="0.5" fill="rgb(0,0,0)" />
<circle cx="2.32996" cy="5.56747" r="0.5" fill="rgb(0,0,0)" />
<circle cx="8.13496" cy="6.31017" r="0.5" fill="rgb(0,0,0)" />
<circle cx="5.01268" cy="9.12022" r="0.5" fill="rgb(0,0,0)" />
<circle cx="8.90239" cy="9.92249" r="0.5" fill="rgb(0,0,0)" />
<circle cx="13.3327" cy="10.2926" r="0.5" fill="rgb(0,0,0)" />
<circle cx="14.9389" cy="12.9944" r="0.5" fill="rgb(0,0,0)" />
<circle cx="16.9708" cy="7.18304" r="0.5" fill="rgb(0,0,0)" />
<circle cx="14.4994" cy="15.8945" r="0.5" fill="rgb(0,0,0)" />
<circle cx="1.40772" cy="8.90171" r="0.5" fill="rgb(0,0,0)" />
<circle cx="2.25987" cy="12.806" r="0.5" fill="rgb(0,0,0)" />
<circle cx="17.2834" cy="10.6357" r="0.5" fill="rgb(0,0,0)" />
<circle cx="1.69697" cy="16.8345" r="0.5" fill="rgb(0,0,0)" />
<circle cx="8.92343" cy="16.9787" r="0.5" fill="rgb(0,0,0)" />
<circle cx="8.12597" cy="1.46046" r="0.5" fill="rgb(0,0,0)" />
<circle cx="11.8424" cy="7.55454" r="0.5" fill="rgb(0,0,0)" />
<circle cx="6.92195" cy="13.0774" r="0.5" fill="rgb(0,0,0)" />
<circle cx="11.0713" cy="13.5544" r="0.5" fill="rgb(0,0,0)" />
<circle cx="1.18858" cy="2.10984" r="0.5" fill="rgb(0,0,0)" />
<circle cx="4.10945" cy="1.39375" r="0.5" fill="rgb(0,0,0)" />
<circle cx="17.0609" cy="17.6536" r="0.5" fill="rgb(0,0,0)" />
<circle cx="5.32193" cy="16.7464" r="0.5" fill="rgb(0,0,0)" />
<circle cx="17.6463" cy="14.472" r="0.5" fill="rgb(0,0,0)" />
<circle cx="14.2719" cy="5.02896" r="0.5" fill="rgb(0,0,0)" />
<circle cx="12.366" cy="17.4911" r="0.5" fill="rgb(0,0,0)" />
<circle cx="17.73" cy="3.09284" r="0.5" fill="rgb(0,0,0)" />
<circle cx="15.8693" cy="1.32862" r="0.5" fill="rgb(0,0,0)" />
<circle cx="12.3663" cy="1.39518" r="0.5" fill="rgb(0,0,0)" />
</svg>
