<?xml version="1.0" ?>
<!DOCTYPE svg PUBLIC "-//W3C//DTD SVG 1.1//EN" "http://www.w3.org/Graphics/SVG/1.1/DTD/svg11.dtd">
<svg width="20" height="20" version="1.1" xmlns="http://www.w3.org/2000/svg">
<circle cx="16.523" cy="1.52675" r="0.5" fill="rgb(0,0,0)" />
<circle cx="12.7178" cy="1.58813" r="0.5" fill="rgb(0,0,0)" />
<circle cx="5.69323" cy="1.21378" r="0.5" fill="rgb(0,0,0)" />
<circle cx="15.6472" cy="2.62811" r="0.5" fill="rgb(0,0,0)" />
<circle cx="14.0192" cy="2.65625" r="0.5" fill="rgb(0,0,0)" />
<circle cx="15.1714" cy="4.1517" r="0.5" fill="rgb(0,0,0)" />
<circle cx="8.99504" cy="3.31938" r="0.5" fill="rgb(0,0,0)" />
<circle cx="14.2326" cy="5.65712" r="0.5" fill="rgb(0,0,0)" />
<circle cx="3.47694" cy="6.26785" r="0.5" fill="rgb(0,0,0)" />
<circle cx="16.1644" cy="6.83711" r="0.5" fill="rgb(0,0,0)" />
<circle cx="9.94225" cy="6.03054" r="0.5" fill="rgb(0,0,0)" />
<circle cx="14.8249" cy="7.52512" r="0.5" fill="rgb(0,0,0)" />
<circle cx="5.3986" cy="7.41957" r="0.5" fill="rgb(0,0,0)" />
<circle cx="11.5148" cy="8.75705" r="0.5" fill="rgb(0,0,0)" />
<circle cx="3.52744" cy="9.30729" r="0.5" fill="rgb(0,0,0)" />
<circle cx="15.991" cy="9.6696" r="0.5" fill="rgb(0,0,0)" />
<circle cx="6.24124" cy="10.0362" r="0.5" fill="rgb(0,0,0)" />
<circle cx="16.423" cy="5.21145" r="0.5" fill="rgb(0,0,0)" />
<circle cx="8.69688" cy="10.4635" r="0.5" fill="rgb(0,0,0)" />
<circle cx="11.2154" cy="10.969" r="0.5" fill="rgb(0,0,0)" />
<circle cx="12.5575" cy="12.4257" r="0.5" fill="rgb(0,0,0)" />
<circle cx="8.1883" cy="12.5736" r="0.5" fill="rgb(0,0,0)" />
<circle cx="14.3003" cy="10.9715" r="0.5" fill="rgb(0,0,0)" />
<circle cx="10.11" cy="13.2436" r="0.5" fill="rgb(0,0,0)" />
<circle cx="3.29868" cy="3.45601" r="0.5" fill="rgb(0,0,0)" />
<circle cx="6.09028" cy="13.0027" r="0.5" fill="rgb(0,0,0)" />
<circle cx="10.5533" cy="15.2369" r="0.5" fill="rgb(0,0,0)" />
<circle cx="3.67351" cy="14.445" r="0.5" fill="rgb(0,0,0)" />
<circle cx="3.84281" cy="11.7426" r="0.5" fill="rgb(0,0,0)" />
<circle cx="12.6221" cy="15.7136" r="0.5" fill="rgb(0,0,0)" />
<circle cx="10.9652" cy="0.997465" r="0.5" fill="rgb(0,0,0)" />
<circle cx="13.6125" cy="8.90908" r="0.5" fill="rgb(0,0,0)" />
<circle cx="14.1617" cy="16.1706" r="0.5" fill="rgb(0,0,0)" />
<circle cx="7.94539" cy="15.2687" r="0.5" fill="rgb(0,0,0)" />
<circle cx="12.3136" cy="6.54796" r="0.5" fill="rgb(0,0,0)" />
<circle cx="5.57045" cy="15.7291" r="0.5" fill="rgb(0,0,0)" />
<circle cx="16.088" cy="16.45" r="0.5" fill="rgb(0,0,0)" />
<circle cx="17.5117" cy="12.2185" r="0.5" fill="rgb(0,0,0)" />
<circle cx="12.0311" cy="17.03" r="0.5" fill="rgb(0,0,0)" />
<circle cx="11.1922" cy="3.86204" r="0.5" fill="rgb(0,0,0)" />
<circle cx="12.6598" cy="14.0639" r="0.5" fill="rgb(0,0,0)" />
<circle cx="2.67162" cy="17.1789" r="0.5" fill="rgb(0,0,0)" />
<circle cx="10.0747" cy="17.4829" r="0.5" fill="rgb(0,0,0)" />
<circle cx="12.1928" cy="18.3879" r="0.5" fill="rgb(0,0,0)" />
<circle cx="17.1034" cy="3.7242" r="0.5" fill="rgb(0,0,0)" />
<circle cx="17.9985" cy="14.3465" r="0.5" fill="rgb(0,0,0)" />
<circle cx="7.15479" cy="5.14247" r="0.5" fill="rgb(0,0,0)" />
<circle cx="17.1383" cy="17.9108" r="0.5" fill="rgb(0,0,0)" />
<circle cx="8.25835" cy="1.13083" r="0.5" fill="rgb(0,0,0)" />
<circle cx="14.1023" cy="17.923" r="0.5" fill="rgb(0,0,0)" />
<circle cx="1.08674" cy="4.05591" r="0.5" fill="rgb(0,0,0)" />
<circle cx="7.7425" cy="7.44399" r="0.5" fill="rgb(0,0,0)" />
<circle cx="16.332" cy="14.3003" r="0.5" fill="rgb(0,0,0)" />
<circle cx="17.965" cy="10.2235" r="0.5" fill="rgb(0,0,0)" />
<circle cx="17.8346" cy="8.24043" r="0.5" fill="rgb(0,0,0)" />
<circle cx="5.60605" cy="3.79367" r="0.5" fill="rgb(0,0,0)" />
<circle cx="0.894539" cy="17.8366" r="0.5" fill="rgb(0,0,0)" />
<circle cx="1.1359" cy="15.3189" r="0.5" fill="rgb(0,0,0)" />
<circle cx="15.7057" cy="18.2166" r="0.5" fill="rgb(0,0,0)" />
<circle cx="1.24252" cy="12.7718" r="0.5" fill="rgb(0,0,0)" />
<circle cx="18.4017" cy="17.9404" r="0.5" fill="rgb(0,0,0)" />
<circle cx="13.0095" cy="4.22088" r="0.5" fill="rgb(0,0,0)" />
<circle cx="18.0315" cy="16.0924" r="0.5" fill="rgb(0,0,0)" />
<circle cx="8.33527" cy="17.8293" r="0.5" fill="rgb(0,0,0)" />
<circle cx="1.069" cy="6.1925" r="0.5" fill="rgb(0,0,0)" />
<circle cx="14.7751" cy="14.841" r="0.5" fill="rgb(0,0,0)" />
<circle cx="1.15357" cy="10.3651" r="0.5" fill="rgb(0,0,0)" />
<circle cx="1.18842" cy="8.14729" r="0.5" fill="rgb(0,0,0)" />
<circle cx="9.50459" cy="8.52947" r="0.5" fill="rgb(0,0,0)" />
<circle cx="6.36562" cy="17.8121" r="0.5" fill="rgb(0,0,0)" />
<circle cx="4.2366" cy="17.8197" r="0.5" fill="rgb(0,0,0)" />
<circle cx="0.958287" cy="1.4034" r="0.5" fill="rgb(0,0,0)" />
<circle cx="3.15337" cy="1.00286" r="0.5" fill="rgb(0,0,0)" />
<circle cx="18.2418" cy="4.97798" r="0.5" fill="rgb(0,0,0)" />
<circle cx="17.9655" cy="6.64429" r="0.5" fill="rgb(0,0,0)" />
<circle cx="14.9805" cy="12.8334" r="0.5" fill="rgb(0,0,0)" />
<circle cx="18.1992" cy="2.65662" r="0.5" fill="rgb(0,0,0)" />
<circle cx="17.8575" cy="0.694558" r="0.5" fill="rgb(0,0,0)" />
<circle cx="14.7039" cy="0.664099" r="0.5" fill="rgb(0,0,0)" />
</svg>
