<?xml version="1.0" ?>
<!DOCTYPE svg PUBLIC "-//W3C//DTD SVG 1.1//EN" "http://www.w3.org/Graphics/SVG/1.1/DTD/svg11.dtd">
<svg width="20" height="20" version="1.1" xmlns="http://www.w3.org/2000/svg">
<circle cx="16.8731" cy="0.582386" r="0.5" fill="rgb(0,0,0)" />
<circle cx="12.7214" cy="0.602393" r="0.5" fill="rgb(0,0,0)" />
<circle cx="8.30626" cy="0.571451" r="0.5" fill="rgb(0,0,0)" />
<circle cx="6.83975" cy="1.01849" r="0.5" fill="rgb(0,0,0)" />
<circle cx="16.301" cy="1.70599" r="0.5" fill="rgb(0,0,0)" />
<circle cx="3.89833" cy="1.69579" r="0.5" fill="rgb(0,0,0)" />
<circle cx="15.3889" cy="2.42513" r="0.5" fill="rgb(0,0,0)" />
<circle cx="7.82669" cy="2.7179" r="0.5" fill="rgb(0,0,0)" />
<circle cx="3.11468" cy="3.07197" r="0.5" fill="rgb(0,0,0)" />
<circle cx="13.2098" cy="3.52461" r="0.5" fill="rgb(0,0,0)" />
<circle cx="15.1473" cy="3.95009" r="0.5" fill="rgb(0,0,0)" />
<circle cx="5.27772" cy="3.64211" r="0.5" fill="rgb(0,0,0)" />
<circle cx="6.72774" cy="3.7741" r="0.5" fill="rgb(0,0,0)" />
<circle cx="17.5675" cy="4.26961" r="0.5" fill="rgb(0,0,0)" />
<circle cx="16.204" cy="4.55177" r="0.5" fill="rgb(0,0,0)" />
<circle cx="11.7093" cy="4.09123" r="0.5" fill="rgb(0,0,0)" />
<circle cx="8.38871" cy="4.41531" r="0.5" fill="rgb(0,0,0)" />
<circle cx="6.08273" cy="5.12162" r="0.5" fill="rgb(0,0,0)" />
<circle cx="14.765" cy="5.20564" r="0.5" fill="rgb(0,0,0)" />
<circle cx="13.3171" cy="5.04764" r="0.5" fill="rgb(0,0,0)" />
<circle cx="2.64268" cy="4.94297" r="0.5" fill="rgb(0,0,0)" />
<circle cx="17.0025" cy="5.65692" r="0.5" fill="rgb(0,0,0)" />
<circle cx="15.7197" cy="6.0598" r="0.5" fill="rgb(0,0,0)" />
<circle cx="6.06151" cy="6.66402" r="0.5" fill="rgb(0,0,0)" />
<circle cx="8.34751" cy="6.65285" r="0.5" fill="rgb(0,0,0)" />
<circle cx="11.2995" cy="6.58564" r="0.5" fill="rgb(0,0,0)" />
<circle cx="1.73711" cy="7.13346" r="0.5" fill="rgb(0,0,0)" />
<circle cx="17.0333" cy="7.26894" r="0.5" fill="rgb(0,0,0)" />
<circle cx="9.03292" cy="7.83476" r="0.5" fill="rgb(0,0,0)" />
<circle cx="5.27209" cy="1.44064" r="0.5" fill="rgb(0,0,0)" />
<circle cx="15.4518" cy="7.4864" r="0.5" fill="rgb(0,0,0)" />
<circle cx="10.428" cy="8.28045" r="0.5" fill="rgb(0,0,0)" />
<circle cx="7.0249" cy="8.19711" r="0.5" fill="rgb(0,0,0)" />
<circle cx="2.37695" cy="9.08068" r="0.5" fill="rgb(0,0,0)" />
<circle cx="12.2875" cy="8.19338" r="0.5" fill="rgb(0,0,0)" />
<circle cx="16.3338" cy="8.6331" r="0.5" fill="rgb(0,0,0)" />
<circle cx="0.757411" cy="8.05839" r="0.5" fill="rgb(0,0,0)" />
<circle cx="5.20377" cy="8.93812" r="0.5" fill="rgb(0,0,0)" />
<circle cx="10.5872" cy="0.753525" r="0.5" fill="rgb(0,0,0)" />
<circle cx="18.3642" cy="0.609884" r="0.5" fill="rgb(0,0,0)" />
<circle cx="9.15047" cy="1.82321" r="0.5" fill="rgb(0,0,0)" />
<circle cx="8.34893" cy="8.98526" r="0.5" fill="rgb(0,0,0)" />
<circle cx="13.9687" cy="8.60765" r="0.5" fill="rgb(0,0,0)" />
<circle cx="3.87196" cy="8.91654" r="0.5" fill="rgb(0,0,0)" />
<circle cx="4.33893" cy="4.75837" r="0.5" fill="rgb(0,0,0)" />
<circle cx="11.6412" cy="9.52158" r="0.5" fill="rgb(0,0,0)" />
<circle cx="2.99186" cy="9.89094" r="0.5" fill="rgb(0,0,0)" />
<circle cx="3.48187" cy="7.0849" r="0.5" fill="rgb(0,0,0)" />
<circle cx="1.51429" cy="9.86745" r="0.5" fill="rgb(0,0,0)" />
<circle cx="8.97404" cy="10.8089" r="0.5" fill="rgb(0,0,0)" />
<circle cx="6.25496" cy="10.4746" r="0.5" fill="rgb(0,0,0)" />
<circle cx="14.8026" cy="11.1754" r="0.5" fill="rgb(0,0,0)" />
<circle cx="3.04775" cy="10.9961" r="0.5" fill="rgb(0,0,0)" />
<circle cx="4.80362" cy="10.7124" r="0.5" fill="rgb(0,0,0)" />
<circle cx="11.4754" cy="11.0845" r="0.5" fill="rgb(0,0,0)" />
<circle cx="16.3145" cy="12.0636" r="0.5" fill="rgb(0,0,0)" />
<circle cx="13.9107" cy="1.81841" r="0.5" fill="rgb(0,0,0)" />
<circle cx="5.37106" cy="7.69486" r="0.5" fill="rgb(0,0,0)" />
<circle cx="12.7205" cy="12.4411" r="0.5" fill="rgb(0,0,0)" />
<circle cx="14.6685" cy="12.6931" r="0.5" fill="rgb(0,0,0)" />
<circle cx="8.37917" cy="12.4197" r="0.5" fill="rgb(0,0,0)" />
<circle cx="6.51621" cy="12.4528" r="0.5" fill="rgb(0,0,0)" />
<circle cx="10.7117" cy="13.4036" r="0.5" fill="rgb(0,0,0)" />
<circle cx="16.0222" cy="13.8583" r="0.5" fill="rgb(0,0,0)" />
<circle cx="14.0315" cy="13.9228" r="0.5" fill="rgb(0,0,0)" />
<circle cx="0.436532" cy="9.56931" r="0.5" fill="rgb(0,0,0)" />
<circle cx="5.88751" cy="2.41296" r="0.5" fill="rgb(0,0,0)" />
<circle cx="1.1139" cy="11.4657" r="0.5" fill="rgb(0,0,0)" />
<circle cx="14.9055" cy="0.622109" r="0.5" fill="rgb(0,0,0)" />
<circle cx="1.67769" cy="5.74767" r="0.5" fill="rgb(0,0,0)" />
<circle cx="12.3864" cy="14.1028" r="0.5" fill="rgb(0,0,0)" />
<circle cx="15.0494" cy="15.0812" r="0.5" fill="rgb(0,0,0)" />
<circle cx="8.29994" cy="14.3224" r="0.5" fill="rgb(0,0,0)" />
<circle cx="4.88487" cy="15.074" r="0.5" fill="rgb(0,0,0)" />
<circle cx="18.2429" cy="6.47198" r="0.5" fill="rgb(0,0,0)" />
<circle cx="14.1164" cy="6.79919" r="0.5" fill="rgb(0,0,0)" />
<circle cx="1.98057" cy="14.5358" r="0.5" fill="rgb(0,0,0)" />
<circle cx="13.1997" cy="15.2608" r="0.5" fill="rgb(0,0,0)" />
<circle cx="4.01545" cy="3.56831" r="0.5" fill="rgb(0,0,0)" />
<circle cx="17.7971" cy="14.9054" r="0.5" fill="rgb(0,0,0)" />
<circle cx="14.0965" cy="15.8373" r="0.5" fill="rgb(0,0,0)" />
<circle cx="7.48668" cy="10.1871" r="0.5" fill="rgb(0,0,0)" />
<circle cx="16.3987" cy="15.4061" r="0.5" fill="rgb(0,0,0)" />
<circle cx="12.1245" cy="2.09344" r="0.5" fill="rgb(0,0,0)" />
<circle cx="5.93578" cy="15.5323" r="0.5" fill="rgb(0,0,0)" />
<circle cx="10.1306" cy="14.9653" r="0.5" fill="rgb(0,0,0)" />
<circle cx="1.9432" cy="2.00731" r="0.5" fill="rgb(0,0,0)" />
<circle cx="7.58623" cy="15.6408" r="0.5" fill="rgb(0,0,0)" />
<circle cx="11.3646" cy="15.5574" r="0.5" fill="rgb(0,0,0)" />
<circle cx="16.7403" cy="3.17897" r="0.5" fill="rgb(0,0,0)" />
<circle cx="6.677" cy="16.4911" r="0.5" fill="rgb(0,0,0)" />
<circle cx="14.3787" cy="3.17111" r="0.5" fill="rgb(0,0,0)" />
<circle cx="10.1103" cy="12.0618" r="0.5" fill="rgb(0,0,0)" />
<circle cx="15.2761" cy="16.4963" r="0.5" fill="rgb(0,0,0)" />
<circle cx="12.2488" cy="16.4692" r="0.5" fill="rgb(0,0,0)" />
<circle cx="4.22279" cy="16.5028" r="0.5" fill="rgb(0,0,0)" />
<circle cx="13.847" cy="17.0341" r="0.5" fill="rgb(0,0,0)" />
<circle cx="16.5365" cy="16.9754" r="0.5" fill="rgb(0,0,0)" />
<circle cx="7.3907" cy="5.91675" r="0.5" fill="rgb(0,0,0)" />
<circle cx="5.58272" cy="17.2588" r="0.5" fill="rgb(0,0,0)" />
<circle cx="15.2589" cy="17.8001" r="0.5" fill="rgb(0,0,0)" />
<circle cx="2.54504" cy="8.12442" r="0.5" fill="rgb(0,0,0)" />
<circle cx="2.6437" cy="16.7025" r="0.5" fill="rgb(0,0,0)" />
<circle cx="8.2377" cy="17.5402" r="0.5" fill="rgb(0,0,0)" />
<circle cx="12.222" cy="17.7277" r="0.5" fill="rgb(0,0,0)" />
<circle cx="1.51283" cy="17.5562" r="0.5" fill="rgb(0,0,0)" />
<circle cx="7.04592" cy="17.771" r="0.5" fill="rgb(0,0,0)" />
<circle cx="5.46698" cy="13.6749" r="0.5" fill="rgb(0,0,0)" />
<circle cx="17.2155" cy="17.8908" r="0.5" fill="rgb(0,0,0)" />
<circle cx="13.3993" cy="10.4207" r="0.5" fill="rgb(0,0,0)" />
<circle cx="17.9184" cy="13.3709" r="0.5" fill="rgb(0,0,0)" />
<circle cx="17.9312" cy="11.3799" r="0.5" fill="rgb(0,0,0)" />
<circle cx="17.9453" cy="9.65983" r="0.5" fill="rgb(0,0,0)" />
<circle cx="18.2266" cy="8.11913" r="0.5" fill="rgb(0,0,0)" />
<circle cx="10.5277" cy="17.8214" r="0.5" fill="rgb(0,0,0)" />
<circle cx="4.35915" cy="6.1143" r="0.5" fill="rgb(0,0,0)" />
<circle cx="9.88524" cy="6.54149" r="0.5" fill="rgb(0,0,0)" />
<circle cx="18.4007" cy="4.9946" r="0.5" fill="rgb(0,0,0)" />
<circle cx="15.8116" cy="9.9649" r="0.5" fill="rgb(0,0,0)" />
<circle cx="18.2958" cy="3.14046" r="0.5" fill="rgb(0,0,0)" />
<circle cx="12.6977" cy="18.5194" r="0.5" fill="rgb(0,0,0)" />
<circle cx="15.9528" cy="18.5357" r="0.5" fill="rgb(0,0,0)" />
<circle cx="14.169" cy="18.2937" r="0.5" fill="rgb(0,0,0)" />
<circle cx="18.0135" cy="1.87744" r="0.5" fill="rgb(0,0,0)" />
<circle cx="4.39664" cy="18.139" r="0.5" fill="rgb(0,0,0)" />
<circle cx="0.960407" cy="13.2222" r="0.5" fill="rgb(0,0,0)" />
<circle cx="0.450242" cy="6.29891" r="0.5" fill="rgb(0,0,0)" />
<circle cx="0.598054" cy="4.0554" r="0.5" fill="rgb(0,0,0)" />
<circle cx="3.47391" cy="14.7151" r="0.5" fill="rgb(0,0,0)" />
<circle cx="18.2421" cy="16.0043" r="0.5" fill="rgb(0,0,0)" />
<circle cx="0.695994" cy="15.7972" r="0.5" fill="rgb(0,0,0)" />
<circle cx="1.80352" cy="3.44929" r="0.5" fill="rgb(0,0,0)" />
<circle cx="12.5951" cy="6.32739" r="0.5" fill="rgb(0,0,0)" />
<circle cx="6.06124" cy="18.4784" r="0.5" fill="rgb(0,0,0)" />
<circle cx="3.68691" cy="12.4947" r="0.5" fill="rgb(0,0,0)" />
<circle cx="5.00665" cy="0.358266" r="0.5" fill="rgb(0,0,0)" />
<circle cx="9.27244" cy="16.4618" r="0.5" fill="rgb(0,0,0)" />
<circle cx="2.51103" cy="0.569494" r="0.5" fill="rgb(0,0,0)" />
<circle cx="10.1274" cy="4.9224" r="0.5" fill="rgb(0,0,0)" />
<circle cx="8.7452" cy="18.5018" r="0.5" fill="rgb(0,0,0)" />
<circle cx="2.88712" cy="18.3459" r="0.5" fill="rgb(0,0,0)" />
<circle cx="0.607457" cy="1.19882" r="0.5" fill="rgb(0,0,0)" />
<circle cx="0.566797" cy="18.1506" r="0.5" fill="rgb(0,0,0)" />
<circle cx="10.256" cy="2.95364" r="0.5" fill="rgb(0,0,0)" />
<circle cx="9.84108" cy="9.6671" r="0.5" fill="rgb(0,0,0)" />
<circle cx="18.1376" cy="18.5193" r="0.5" fill="rgb(0,0,0)" />
<circle cx="18.3535" cy="17.2965" r="0.5" fill="rgb(0,0,0)" />
</svg>
