<?xml version="1.0" ?>
<!DOCTYPE svg PUBLIC "-//W3C//DTD SVG 1.1//EN" "http://www.w3.org/Graphics/SVG/1.1/DTD/svg11.dtd">
<svg width="20" height="20" version="1.1" xmlns="http://www.w3.org/2000/svg">
<circle cx="13.8526" cy="5.42883" r="0.5" fill="rgb(0,0,0)" />
<circle cx="8.02979" cy="5.98516" r="0.5" fill="rgb(0,0,0)" />
<circle cx="10.7239" cy="8.34464" r="0.5" fill="rgb(0,0,0)" />
<circle cx="2.46082" cy="7.58292" r="0.5" fill="rgb(0,0,0)" />
<circle cx="14.6612" cy="13.91" r="0.5" fill="rgb(0,0,0)" />
<circle cx="17.1517" cy="10.8305" r="0.5" fill="rgb(0,0,0)" />
<circle cx="1.70107" cy="16.4357" r="0.5" fill="rgb(0,0,0)" />
<circle cx="5.07887" cy="3.90946" r="0.5" fill="rgb(0,0,0)" />
<circle cx="5.33743" cy="16.4178" r="0.5" fill="rgb(0,0,0)" />
<circle cx="7.55669" cy="1.45063" r="0.5" fill="rgb(0,0,0)" />
<circle cx="6.12676" cy="9.54244" r="0.5" fill="rgb(0,0,0)" />
<circle cx="2.16125" cy="11.7549" r="0.5" fill="rgb(0,0,0)" />
<circle cx="9.12428" cy="17.079" r="0.5" fill="rgb(0,0,0)" />
<circle cx="13.126" cy="17.2124" r="0.5" fill="rgb(0,0,0)" />
<circle cx="7.57483" cy="12.7148" r="0.5" fill="rgb(0,0,0)" />
<circle cx="11.1216" cy="13.5513" r="0.5" fill="rgb(0,0,0)" />
<circle cx="1.40021" cy="4.35764" r="0.5" fill="rgb(0,0,0)" />
<circle cx="10.9117" cy="2.58879" r="0.5" fill="rgb(0,0,0)" />
<circle cx="13.5073" cy="10.2704" r="0.5" fill="rgb(0,0,0)" />
<circle cx="2.3457" cy="1.24418" r="0.5" fill="rgb(0,0,0)" />
<circle cx="16.9479" cy="17.4875" r="0.5" fill="rgb(0,0,0)" />
<circle cx="17.6106" cy="14.4519" r="0.5" fill="rgb(0,0,0)" />
<circle cx="17.3967" cy="2.44542" r="0.5" fill="rgb(0,0,0)" />
<circle cx="17.0633" cy="7.05589" r="0.5" fill="rgb(0,0,0)" />
<circle cx="14.1982" cy="1.45613" r="0.5" fill="rgb(0,0,0)" />
</svg>
