<?xml version="1.0" ?>
<!DOCTYPE svg PUBLIC "-//W3C//DTD SVG 1.1//EN" "http://www.w3.org/Graphics/SVG/1.1/DTD/svg11.dtd">
<svg width="20" height="20" version="1.1" xmlns="http://www.w3.org/2000/svg">
<circle cx="6.0719" cy="0.40622" r="0.5" fill="rgb(0,0,0)" />
<circle cx="16.8806" cy="0.582347" r="0.5" fill="rgb(0,0,0)" />
<circle cx="8.29379" cy="0.522575" r="0.5" fill="rgb(0,0,0)" />
<circle cx="14.025" cy="1.70379" r="0.5" fill="rgb(0,0,0)" />
<circle cx="9.17271" cy="1.72627" r="0.5" fill="rgb(0,0,0)" />
<circle cx="6.0477" cy="2.46471" r="0.5" fill="rgb(0,0,0)" />
<circle cx="11.886" cy="1.76002" r="0.5" fill="rgb(0,0,0)" />
<circle cx="4.83767" cy="2.63269" r="0.5" fill="rgb(0,0,0)" />
<circle cx="12.901" cy="2.59007" r="0.5" fill="rgb(0,0,0)" />
<circle cx="14.3503" cy="3.14208" r="0.5" fill="rgb(0,0,0)" />
<circle cx="5.35492" cy="3.65107" r="0.5" fill="rgb(0,0,0)" />
<circle cx="6.73614" cy="3.60208" r="0.5" fill="rgb(0,0,0)" />
<circle cx="15.1569" cy="3.93906" r="0.5" fill="rgb(0,0,0)" />
<circle cx="13.2746" cy="3.81085" r="0.5" fill="rgb(0,0,0)" />
<circle cx="2.00232" cy="3.62044" r="0.5" fill="rgb(0,0,0)" />
<circle cx="8.99854" cy="3.58754" r="0.5" fill="rgb(0,0,0)" />
<circle cx="6.62899" cy="4.86763" r="0.5" fill="rgb(0,0,0)" />
<circle cx="3.92779" cy="4.77117" r="0.5" fill="rgb(0,0,0)" />
<circle cx="4.05467" cy="3.58146" r="0.5" fill="rgb(0,0,0)" />
<circle cx="8.11913" cy="4.70873" r="0.5" fill="rgb(0,0,0)" />
<circle cx="3.12316" cy="3.11727" r="0.5" fill="rgb(0,0,0)" />
<circle cx="11.7822" cy="4.07834" r="0.5" fill="rgb(0,0,0)" />
<circle cx="14.7889" cy="5.21316" r="0.5" fill="rgb(0,0,0)" />
<circle cx="10.401" cy="4.91158" r="0.5" fill="rgb(0,0,0)" />
<circle cx="2.5716" cy="4.9754" r="0.5" fill="rgb(0,0,0)" />
<circle cx="5.86892" cy="5.80254" r="0.5" fill="rgb(0,0,0)" />
<circle cx="16.9776" cy="5.62263" r="0.5" fill="rgb(0,0,0)" />
<circle cx="15.7173" cy="6.06666" r="0.5" fill="rgb(0,0,0)" />
<circle cx="7.40841" cy="6.06292" r="0.5" fill="rgb(0,0,0)" />
<circle cx="5.86187" cy="6.71184" r="0.5" fill="rgb(0,0,0)" />
<circle cx="17.9318" cy="6.77636" r="0.5" fill="rgb(0,0,0)" />
<circle cx="12.6136" cy="6.30671" r="0.5" fill="rgb(0,0,0)" />
<circle cx="1.77168" cy="7.19001" r="0.5" fill="rgb(0,0,0)" />
<circle cx="11.3889" cy="6.54076" r="0.5" fill="rgb(0,0,0)" />
<circle cx="3.48283" cy="7.12771" r="0.5" fill="rgb(0,0,0)" />
<circle cx="7.97841" cy="7.15146" r="0.5" fill="rgb(0,0,0)" />
<circle cx="1.97401" cy="6.05224" r="0.5" fill="rgb(0,0,0)" />
<circle cx="16.9349" cy="7.3417" r="0.5" fill="rgb(0,0,0)" />
<circle cx="2.56701" cy="8.13008" r="0.5" fill="rgb(0,0,0)" />
<circle cx="15.4059" cy="7.50775" r="0.5" fill="rgb(0,0,0)" />
<circle cx="6.31637" cy="7.57914" r="0.5" fill="rgb(0,0,0)" />
<circle cx="9.06612" cy="7.85741" r="0.5" fill="rgb(0,0,0)" />
<circle cx="5.14586" cy="7.88218" r="0.5" fill="rgb(0,0,0)" />
<circle cx="10.4148" cy="8.40445" r="0.5" fill="rgb(0,0,0)" />
<circle cx="17.5399" cy="4.26148" r="0.5" fill="rgb(0,0,0)" />
<circle cx="7.08813" cy="8.42374" r="0.5" fill="rgb(0,0,0)" />
<circle cx="16.3348" cy="8.6435" r="0.5" fill="rgb(0,0,0)" />
<circle cx="2.34529" cy="9.08603" r="0.5" fill="rgb(0,0,0)" />
<circle cx="12.1137" cy="8.16971" r="0.5" fill="rgb(0,0,0)" />
<circle cx="13.61" cy="8.30143" r="0.5" fill="rgb(0,0,0)" />
<circle cx="3.83362" cy="8.79446" r="0.5" fill="rgb(0,0,0)" />
<circle cx="8.35887" cy="9.03615" r="0.5" fill="rgb(0,0,0)" />
<circle cx="14.6442" cy="9.32148" r="0.5" fill="rgb(0,0,0)" />
<circle cx="7.698" cy="2.66278" r="0.5" fill="rgb(0,0,0)" />
<circle cx="11.6739" cy="9.5281" r="0.5" fill="rgb(0,0,0)" />
<circle cx="0.914496" cy="8.16475" r="0.5" fill="rgb(0,0,0)" />
<circle cx="9.8513" cy="9.61358" r="0.5" fill="rgb(0,0,0)" />
<circle cx="12.8092" cy="0.557121" r="0.5" fill="rgb(0,0,0)" />
<circle cx="1.59013" cy="9.94925" r="0.5" fill="rgb(0,0,0)" />
<circle cx="4.66959" cy="10.3051" r="0.5" fill="rgb(0,0,0)" />
<circle cx="16.3928" cy="10.2455" r="0.5" fill="rgb(0,0,0)" />
<circle cx="7.48973" cy="10.1215" r="0.5" fill="rgb(0,0,0)" />
<circle cx="6.25413" cy="10.433" r="0.5" fill="rgb(0,0,0)" />
<circle cx="5.28403" cy="4.8398" r="0.5" fill="rgb(0,0,0)" />
<circle cx="3.08334" cy="10.8307" r="0.5" fill="rgb(0,0,0)" />
<circle cx="14.9442" cy="0.603461" r="0.5" fill="rgb(0,0,0)" />
<circle cx="13.236" cy="10.6341" r="0.5" fill="rgb(0,0,0)" />
<circle cx="5.2292" cy="9.0953" r="0.5" fill="rgb(0,0,0)" />
<circle cx="14.9265" cy="11.0169" r="0.5" fill="rgb(0,0,0)" />
<circle cx="11.4207" cy="11.0361" r="0.5" fill="rgb(0,0,0)" />
<circle cx="4.58474" cy="11.7029" r="0.5" fill="rgb(0,0,0)" />
<circle cx="1.97508" cy="2.03636" r="0.5" fill="rgb(0,0,0)" />
<circle cx="10.405" cy="12.028" r="0.5" fill="rgb(0,0,0)" />
<circle cx="14.3308" cy="12.4295" r="0.5" fill="rgb(0,0,0)" />
<circle cx="16.3077" cy="12.09" r="0.5" fill="rgb(0,0,0)" />
<circle cx="6.14834" cy="12.389" r="0.5" fill="rgb(0,0,0)" />
<circle cx="9.07321" cy="12.4968" r="0.5" fill="rgb(0,0,0)" />
<circle cx="15.3999" cy="2.44587" r="0.5" fill="rgb(0,0,0)" />
<circle cx="7.70224" cy="12.2944" r="0.5" fill="rgb(0,0,0)" />
<circle cx="15.6406" cy="13.284" r="0.5" fill="rgb(0,0,0)" />
<circle cx="4.36582" cy="13.2303" r="0.5" fill="rgb(0,0,0)" />
<circle cx="0.497467" cy="6.80294" r="0.5" fill="rgb(0,0,0)" />
<circle cx="5.5565" cy="1.43696" r="0.5" fill="rgb(0,0,0)" />
<circle cx="10.5654" cy="0.676636" r="0.5" fill="rgb(0,0,0)" />
<circle cx="0.690479" cy="5.15968" r="0.5" fill="rgb(0,0,0)" />
<circle cx="14.0857" cy="13.9293" r="0.5" fill="rgb(0,0,0)" />
<circle cx="9.17321" cy="5.99892" r="0.5" fill="rgb(0,0,0)" />
<circle cx="3.20781" cy="14.2344" r="0.5" fill="rgb(0,0,0)" />
<circle cx="14.1667" cy="6.75501" r="0.5" fill="rgb(0,0,0)" />
<circle cx="6.47712" cy="14.1118" r="0.5" fill="rgb(0,0,0)" />
<circle cx="12.546" cy="12.4707" r="0.5" fill="rgb(0,0,0)" />
<circle cx="4.9508" cy="14.7738" r="0.5" fill="rgb(0,0,0)" />
<circle cx="1.65482" cy="14.6015" r="0.5" fill="rgb(0,0,0)" />
<circle cx="15.0152" cy="15.1266" r="0.5" fill="rgb(0,0,0)" />
<circle cx="16.3011" cy="1.71003" r="0.5" fill="rgb(0,0,0)" />
<circle cx="16.4358" cy="15.492" r="0.5" fill="rgb(0,0,0)" />
<circle cx="5.80288" cy="15.7664" r="0.5" fill="rgb(0,0,0)" />
<circle cx="4.19524" cy="15.7912" r="0.5" fill="rgb(0,0,0)" />
<circle cx="2.95278" cy="15.8346" r="0.5" fill="rgb(0,0,0)" />
<circle cx="11.5138" cy="15.3448" r="0.5" fill="rgb(0,0,0)" />
<circle cx="3.77115" cy="1.84472" r="0.5" fill="rgb(0,0,0)" />
<circle cx="10.1967" cy="15.1456" r="0.5" fill="rgb(0,0,0)" />
<circle cx="7.61971" cy="15.7415" r="0.5" fill="rgb(0,0,0)" />
<circle cx="6.67256" cy="16.4208" r="0.5" fill="rgb(0,0,0)" />
<circle cx="12.4607" cy="16.3253" r="0.5" fill="rgb(0,0,0)" />
<circle cx="4.4919" cy="16.859" r="0.5" fill="rgb(0,0,0)" />
<circle cx="18.0141" cy="1.88027" r="0.5" fill="rgb(0,0,0)" />
<circle cx="14.0379" cy="17.0087" r="0.5" fill="rgb(0,0,0)" />
<circle cx="16.0645" cy="14.2699" r="0.5" fill="rgb(0,0,0)" />
<circle cx="16.5366" cy="16.9949" r="0.5" fill="rgb(0,0,0)" />
<circle cx="2.91243" cy="17.1926" r="0.5" fill="rgb(0,0,0)" />
<circle cx="5.67965" cy="17.3189" r="0.5" fill="rgb(0,0,0)" />
<circle cx="3.07646" cy="9.79183" r="0.5" fill="rgb(0,0,0)" />
<circle cx="13.272" cy="15.1644" r="0.5" fill="rgb(0,0,0)" />
<circle cx="12.8163" cy="17.4466" r="0.5" fill="rgb(0,0,0)" />
<circle cx="1.63964" cy="17.6605" r="0.5" fill="rgb(0,0,0)" />
<circle cx="16.7364" cy="3.16717" r="0.5" fill="rgb(0,0,0)" />
<circle cx="14.1092" cy="15.8129" r="0.5" fill="rgb(0,0,0)" />
<circle cx="8.21948" cy="17.4932" r="0.5" fill="rgb(0,0,0)" />
<circle cx="15.2863" cy="17.7949" r="0.5" fill="rgb(0,0,0)" />
<circle cx="7.00235" cy="17.7312" r="0.5" fill="rgb(0,0,0)" />
<circle cx="17.2167" cy="17.8911" r="0.5" fill="rgb(0,0,0)" />
<circle cx="11.2468" cy="17.6096" r="0.5" fill="rgb(0,0,0)" />
<circle cx="0.44733" cy="9.3516" r="0.5" fill="rgb(0,0,0)" />
<circle cx="0.82027" cy="11.2387" r="0.5" fill="rgb(0,0,0)" />
<circle cx="17.9376" cy="13.3908" r="0.5" fill="rgb(0,0,0)" />
<circle cx="10.5269" cy="2.81562" r="0.5" fill="rgb(0,0,0)" />
<circle cx="4.53641" cy="18.1844" r="0.5" fill="rgb(0,0,0)" />
<circle cx="18.3645" cy="0.609882" r="0.5" fill="rgb(0,0,0)" />
<circle cx="18.3082" cy="3.12338" r="0.5" fill="rgb(0,0,0)" />
<circle cx="4.27257" cy="6.12413" r="0.5" fill="rgb(0,0,0)" />
<circle cx="12.6718" cy="18.5339" r="0.5" fill="rgb(0,0,0)" />
<circle cx="15.9612" cy="18.5346" r="0.5" fill="rgb(0,0,0)" />
<circle cx="1.6275" cy="16.4005" r="0.5" fill="rgb(0,0,0)" />
<circle cx="14.2082" cy="18.3052" r="0.5" fill="rgb(0,0,0)" />
<circle cx="9.98875" cy="17.9791" r="0.5" fill="rgb(0,0,0)" />
<circle cx="0.815054" cy="13.2566" r="0.5" fill="rgb(0,0,0)" />
<circle cx="15.3065" cy="16.478" r="0.5" fill="rgb(0,0,0)" />
<circle cx="18.0122" cy="11.4652" r="0.5" fill="rgb(0,0,0)" />
<circle cx="0.59572" cy="3.3867" r="0.5" fill="rgb(0,0,0)" />
<circle cx="18.4005" cy="4.82577" r="0.5" fill="rgb(0,0,0)" />
<circle cx="7.15817" cy="1.3146" r="0.5" fill="rgb(0,0,0)" />
<circle cx="12.432" cy="14.0789" r="0.5" fill="rgb(0,0,0)" />
<circle cx="3.23256" cy="18.3681" r="0.5" fill="rgb(0,0,0)" />
<circle cx="18.2421" cy="8.08716" r="0.5" fill="rgb(0,0,0)" />
<circle cx="18.4463" cy="6.07755" r="0.5" fill="rgb(0,0,0)" />
<circle cx="9.09352" cy="10.7172" r="0.5" fill="rgb(0,0,0)" />
<circle cx="10.7113" cy="13.4725" r="0.5" fill="rgb(0,0,0)" />
<circle cx="9.23057" cy="16.4014" r="0.5" fill="rgb(0,0,0)" />
<circle cx="18.2482" cy="15.9937" r="0.5" fill="rgb(0,0,0)" />
<circle cx="8.39272" cy="18.5485" r="0.5" fill="rgb(0,0,0)" />
<circle cx="16.1981" cy="4.54248" r="0.5" fill="rgb(0,0,0)" />
<circle cx="13.3822" cy="5.09689" r="0.5" fill="rgb(0,0,0)" />
<circle cx="10.2192" cy="6.92469" r="0.5" fill="rgb(0,0,0)" />
<circle cx="8.52682" cy="14.3254" r="0.5" fill="rgb(0,0,0)" />
<circle cx="6.0685" cy="18.4836" r="0.5" fill="rgb(0,0,0)" />
<circle cx="2.54898" cy="12.2922" r="0.5" fill="rgb(0,0,0)" />
<circle cx="0.47589" cy="15.7372" r="0.5" fill="rgb(0,0,0)" />
<circle cx="4.19014" cy="0.596326" r="0.5" fill="rgb(0,0,0)" />
<circle cx="0.574521" cy="1.15104" r="0.5" fill="rgb(0,0,0)" />
<circle cx="2.14332" cy="0.579762" r="0.5" fill="rgb(0,0,0)" />
<circle cx="1.63059" cy="18.592" r="0.5" fill="rgb(0,0,0)" />
<circle cx="18.0299" cy="9.61775" r="0.5" fill="rgb(0,0,0)" />
<circle cx="0.449848" cy="17.9427" r="0.5" fill="rgb(0,0,0)" />
<circle cx="17.7453" cy="14.9145" r="0.5" fill="rgb(0,0,0)" />
<circle cx="18.1385" cy="18.5196" r="0.5" fill="rgb(0,0,0)" />
<circle cx="18.3542" cy="17.296" r="0.5" fill="rgb(0,0,0)" />
</svg>
