<?xml version="1.0" ?>
<!DOCTYPE svg PUBLIC "-//W3C//DTD SVG 1.1//EN" "http://www.w3.org/Graphics/SVG/1.1/DTD/svg11.dtd">
<svg width="20" height="20" version="1.1" xmlns="http://www.w3.org/2000/svg">
<circle cx="12.7473" cy="0.481798" r="0.5" fill="rgb(0,0,0)" />
<circle cx="15.4082" cy="0.498577" r="0.5" fill="rgb(0,0,0)" />
<circle cx="8.19023" cy="0.522979" r="0.5" fill="rgb(0,0,0)" />
<circle cx="10.5616" cy="0.648084" r="0.5" fill="rgb(0,0,0)" />
<circle cx="14.3263" cy="1.0021" r="0.5" fill="rgb(0,0,0)" />
<circle cx="5.68135" cy="1.45943" r="0.5" fill="rgb(0,0,0)" />
<circle cx="3.85645" cy="1.92344" r="0.5" fill="rgb(0,0,0)" />
<circle cx="9.22371" cy="1.64404" r="0.5" fill="rgb(0,0,0)" />
<circle cx="2.00731" cy="2.04855" r="0.5" fill="rgb(0,0,0)" />
<circle cx="4.88069" cy="2.73801" r="0.5" fill="rgb(0,0,0)" />
<circle cx="18.4146" cy="0.597556" r="0.5" fill="rgb(0,0,0)" />
<circle cx="14.4418" cy="3.1137" r="0.5" fill="rgb(0,0,0)" />
<circle cx="16.7865" cy="3.24581" r="0.5" fill="rgb(0,0,0)" />
<circle cx="9.98805" cy="3.58896" r="0.5" fill="rgb(0,0,0)" />
<circle cx="15.4188" cy="2.49664" r="0.5" fill="rgb(0,0,0)" />
<circle cx="2.02267" cy="3.51337" r="0.5" fill="rgb(0,0,0)" />
<circle cx="13.2251" cy="3.68725" r="0.5" fill="rgb(0,0,0)" />
<circle cx="13.0307" cy="2.5314" r="0.5" fill="rgb(0,0,0)" />
<circle cx="16.2385" cy="4.42533" r="0.5" fill="rgb(0,0,0)" />
<circle cx="11.8754" cy="4.04451" r="0.5" fill="rgb(0,0,0)" />
<circle cx="6.43739" cy="4.77079" r="0.5" fill="rgb(0,0,0)" />
<circle cx="3.99455" cy="4.65601" r="0.5" fill="rgb(0,0,0)" />
<circle cx="16.8599" cy="5.32423" r="0.5" fill="rgb(0,0,0)" />
<circle cx="9.75332" cy="5.36924" r="0.5" fill="rgb(0,0,0)" />
<circle cx="15.675" cy="6.03074" r="0.5" fill="rgb(0,0,0)" />
<circle cx="4.13106" cy="5.89029" r="0.5" fill="rgb(0,0,0)" />
<circle cx="5.30053" cy="4.78646" r="0.5" fill="rgb(0,0,0)" />
<circle cx="17.0591" cy="6.36002" r="0.5" fill="rgb(0,0,0)" />
<circle cx="9.0474" cy="6.31355" r="0.5" fill="rgb(0,0,0)" />
<circle cx="10.3994" cy="2.47458" r="0.5" fill="rgb(0,0,0)" />
<circle cx="6.64219" cy="6.83966" r="0.5" fill="rgb(0,0,0)" />
<circle cx="10.2856" cy="6.85472" r="0.5" fill="rgb(0,0,0)" />
<circle cx="8.042" cy="7.11666" r="0.5" fill="rgb(0,0,0)" />
<circle cx="3.22891" cy="7.05246" r="0.5" fill="rgb(0,0,0)" />
<circle cx="13.9962" cy="4.50011" r="0.5" fill="rgb(0,0,0)" />
<circle cx="14.3283" cy="7.08727" r="0.5" fill="rgb(0,0,0)" />
<circle cx="15.6689" cy="7.27401" r="0.5" fill="rgb(0,0,0)" />
<circle cx="6.38863" cy="7.65717" r="0.5" fill="rgb(0,0,0)" />
<circle cx="4.74054" cy="7.41271" r="0.5" fill="rgb(0,0,0)" />
<circle cx="17.0813" cy="0.618823" r="0.5" fill="rgb(0,0,0)" />
<circle cx="8.62754" cy="3.55455" r="0.5" fill="rgb(0,0,0)" />
<circle cx="11.3315" cy="6.99148" r="0.5" fill="rgb(0,0,0)" />
<circle cx="1.19637" cy="7.98464" r="0.5" fill="rgb(0,0,0)" />
<circle cx="7.5063" cy="8.09649" r="0.5" fill="rgb(0,0,0)" />
<circle cx="2.61071" cy="8.17219" r="0.5" fill="rgb(0,0,0)" />
<circle cx="9.09161" cy="7.88756" r="0.5" fill="rgb(0,0,0)" />
<circle cx="11.6477" cy="2.57759" r="0.5" fill="rgb(0,0,0)" />
<circle cx="17.0364" cy="7.69229" r="0.5" fill="rgb(0,0,0)" />
<circle cx="12.2779" cy="1.52869" r="0.5" fill="rgb(0,0,0)" />
<circle cx="15.2801" cy="5.07416" r="0.5" fill="rgb(0,0,0)" />
<circle cx="10.278" cy="8.40141" r="0.5" fill="rgb(0,0,0)" />
<circle cx="14.1574" cy="5.70779" r="0.5" fill="rgb(0,0,0)" />
<circle cx="12.7927" cy="6.99937" r="0.5" fill="rgb(0,0,0)" />
<circle cx="3.87283" cy="8.63357" r="0.5" fill="rgb(0,0,0)" />
<circle cx="2.54519" cy="4.94938" r="0.5" fill="rgb(0,0,0)" />
<circle cx="5.98771" cy="8.62531" r="0.5" fill="rgb(0,0,0)" />
<circle cx="7.01434" cy="1.2489" r="0.5" fill="rgb(0,0,0)" />
<circle cx="7.13845" cy="9.18488" r="0.5" fill="rgb(0,0,0)" />
<circle cx="16.2905" cy="1.77997" r="0.5" fill="rgb(0,0,0)" />
<circle cx="7.79432" cy="2.30076" r="0.5" fill="rgb(0,0,0)" />
<circle cx="5.01237" cy="9.07175" r="0.5" fill="rgb(0,0,0)" />
<circle cx="15.1217" cy="8.67532" r="0.5" fill="rgb(0,0,0)" />
<circle cx="3.16138" cy="3.11695" r="0.5" fill="rgb(0,0,0)" />
<circle cx="13.5662" cy="8.41492" r="0.5" fill="rgb(0,0,0)" />
<circle cx="12.1831" cy="8.4628" r="0.5" fill="rgb(0,0,0)" />
<circle cx="3.70471" cy="9.66138" r="0.5" fill="rgb(0,0,0)" />
<circle cx="15.3318" cy="3.85337" r="0.5" fill="rgb(0,0,0)" />
<circle cx="9.71913" cy="9.4964" r="0.5" fill="rgb(0,0,0)" />
<circle cx="5.92714" cy="2.42013" r="0.5" fill="rgb(0,0,0)" />
<circle cx="14.2526" cy="9.61312" r="0.5" fill="rgb(0,0,0)" />
<circle cx="11.3874" cy="9.36482" r="0.5" fill="rgb(0,0,0)" />
<circle cx="1.89815" cy="10.3022" r="0.5" fill="rgb(0,0,0)" />
<circle cx="7.64524" cy="10.3621" r="0.5" fill="rgb(0,0,0)" />
<circle cx="9.06505" cy="10.5668" r="0.5" fill="rgb(0,0,0)" />
<circle cx="3.23309" cy="10.7189" r="0.5" fill="rgb(0,0,0)" />
<circle cx="6.21516" cy="10.4812" r="0.5" fill="rgb(0,0,0)" />
<circle cx="13.5381" cy="10.695" r="0.5" fill="rgb(0,0,0)" />
<circle cx="12.263" cy="10.8088" r="0.5" fill="rgb(0,0,0)" />
<circle cx="10.7793" cy="10.9444" r="0.5" fill="rgb(0,0,0)" />
<circle cx="4.50795" cy="11.6669" r="0.5" fill="rgb(0,0,0)" />
<circle cx="16.2279" cy="12.003" r="0.5" fill="rgb(0,0,0)" />
<circle cx="7.72758" cy="12.004" r="0.5" fill="rgb(0,0,0)" />
<circle cx="7.14103" cy="3.31839" r="0.5" fill="rgb(0,0,0)" />
<circle cx="14.8075" cy="12.4626" r="0.5" fill="rgb(0,0,0)" />
<circle cx="15.0016" cy="11.0411" r="0.5" fill="rgb(0,0,0)" />
<circle cx="2.65685" cy="12.0989" r="0.5" fill="rgb(0,0,0)" />
<circle cx="13.4699" cy="12.4784" r="0.5" fill="rgb(0,0,0)" />
<circle cx="10.2791" cy="12.3144" r="0.5" fill="rgb(0,0,0)" />
<circle cx="18.0029" cy="1.87948" r="0.5" fill="rgb(0,0,0)" />
<circle cx="9.06969" cy="12.2396" r="0.5" fill="rgb(0,0,0)" />
<circle cx="12.1372" cy="12.8376" r="0.5" fill="rgb(0,0,0)" />
<circle cx="10.5868" cy="13.3901" r="0.5" fill="rgb(0,0,0)" />
<circle cx="4.25601" cy="13.2346" r="0.5" fill="rgb(0,0,0)" />
<circle cx="16.5255" cy="13.5841" r="0.5" fill="rgb(0,0,0)" />
<circle cx="2.8367" cy="9.75067" r="0.5" fill="rgb(0,0,0)" />
<circle cx="14.0289" cy="14.0981" r="0.5" fill="rgb(0,0,0)" />
<circle cx="16.4182" cy="10.234" r="0.5" fill="rgb(0,0,0)" />
<circle cx="2.00421" cy="13.8454" r="0.5" fill="rgb(0,0,0)" />
<circle cx="15.5086" cy="14.4771" r="0.5" fill="rgb(0,0,0)" />
<circle cx="12.6048" cy="14.2002" r="0.5" fill="rgb(0,0,0)" />
<circle cx="3.51681" cy="14.4538" r="0.5" fill="rgb(0,0,0)" />
<circle cx="6.00539" cy="0.412922" r="0.5" fill="rgb(0,0,0)" />
<circle cx="8.95476" cy="14.5665" r="0.5" fill="rgb(0,0,0)" />
<circle cx="4.992" cy="15.0091" r="0.5" fill="rgb(0,0,0)" />
<circle cx="4.0601" cy="3.56896" r="0.5" fill="rgb(0,0,0)" />
<circle cx="13.2919" cy="15.2093" r="0.5" fill="rgb(0,0,0)" />
<circle cx="11.6854" cy="15.18" r="0.5" fill="rgb(0,0,0)" />
<circle cx="7.34238" cy="15.5486" r="0.5" fill="rgb(0,0,0)" />
<circle cx="13.992" cy="2.04989" r="0.5" fill="rgb(0,0,0)" />
<circle cx="16.3528" cy="15.4293" r="0.5" fill="rgb(0,0,0)" />
<circle cx="5.78981" cy="15.8929" r="0.5" fill="rgb(0,0,0)" />
<circle cx="0.683739" cy="5.18116" r="0.5" fill="rgb(0,0,0)" />
<circle cx="4.26117" cy="0.635748" r="0.5" fill="rgb(0,0,0)" />
<circle cx="2.5673" cy="9.18993" r="0.5" fill="rgb(0,0,0)" />
<circle cx="4.22714" cy="15.8676" r="0.5" fill="rgb(0,0,0)" />
<circle cx="6.63106" cy="16.4866" r="0.5" fill="rgb(0,0,0)" />
<circle cx="1.90614" cy="16.358" r="0.5" fill="rgb(0,0,0)" />
<circle cx="8.01424" cy="4.79992" r="0.5" fill="rgb(0,0,0)" />
<circle cx="3.27008" cy="16.066" r="0.5" fill="rgb(0,0,0)" />
<circle cx="9.27648" cy="16.0606" r="0.5" fill="rgb(0,0,0)" />
<circle cx="15.1799" cy="16.5435" r="0.5" fill="rgb(0,0,0)" />
<circle cx="4.54128" cy="16.8514" r="0.5" fill="rgb(0,0,0)" />
<circle cx="14.1174" cy="17.0092" r="0.5" fill="rgb(0,0,0)" />
<circle cx="6.49793" cy="5.65436" r="0.5" fill="rgb(0,0,0)" />
<circle cx="2.217" cy="15.3336" r="0.5" fill="rgb(0,0,0)" />
<circle cx="1.36786" cy="17.1549" r="0.5" fill="rgb(0,0,0)" />
<circle cx="16.3777" cy="16.8771" r="0.5" fill="rgb(0,0,0)" />
<circle cx="10.9522" cy="16.6636" r="0.5" fill="rgb(0,0,0)" />
<circle cx="17.683" cy="17.1865" r="0.5" fill="rgb(0,0,0)" />
<circle cx="7.80266" cy="16.9531" r="0.5" fill="rgb(0,0,0)" />
<circle cx="5.65008" cy="17.3065" r="0.5" fill="rgb(0,0,0)" />
<circle cx="12.9113" cy="17.4419" r="0.5" fill="rgb(0,0,0)" />
<circle cx="17.578" cy="15.0813" r="0.5" fill="rgb(0,0,0)" />
<circle cx="2.89147" cy="17.3463" r="0.5" fill="rgb(0,0,0)" />
<circle cx="1.69855" cy="17.8702" r="0.5" fill="rgb(0,0,0)" />
<circle cx="12.5695" cy="16.3461" r="0.5" fill="rgb(0,0,0)" />
<circle cx="9.08563" cy="17.3462" r="0.5" fill="rgb(0,0,0)" />
<circle cx="4.73209" cy="10.3328" r="0.5" fill="rgb(0,0,0)" />
<circle cx="15.4749" cy="17.8742" r="0.5" fill="rgb(0,0,0)" />
<circle cx="6.75388" cy="17.7304" r="0.5" fill="rgb(0,0,0)" />
<circle cx="8.2476" cy="18.0234" r="0.5" fill="rgb(0,0,0)" />
<circle cx="7.57761" cy="6.05971" r="0.5" fill="rgb(0,0,0)" />
<circle cx="18.2978" cy="3.08627" r="0.5" fill="rgb(0,0,0)" />
<circle cx="14.2813" cy="18.0651" r="0.5" fill="rgb(0,0,0)" />
<circle cx="15.0664" cy="13.4906" r="0.5" fill="rgb(0,0,0)" />
<circle cx="0.652798" cy="3.51526" r="0.5" fill="rgb(0,0,0)" />
<circle cx="6.27972" cy="3.65686" r="0.5" fill="rgb(0,0,0)" />
<circle cx="4.5041" cy="18.0897" r="0.5" fill="rgb(0,0,0)" />
<circle cx="17.9639" cy="11.472" r="0.5" fill="rgb(0,0,0)" />
<circle cx="16.722" cy="18.223" r="0.5" fill="rgb(0,0,0)" />
<circle cx="16.5785" cy="8.74462" r="0.5" fill="rgb(0,0,0)" />
<circle cx="18.0895" cy="9.5851" r="0.5" fill="rgb(0,0,0)" />
<circle cx="15.008" cy="15.3119" r="0.5" fill="rgb(0,0,0)" />
<circle cx="18.3604" cy="8.13647" r="0.5" fill="rgb(0,0,0)" />
<circle cx="12.3564" cy="5.51808" r="0.5" fill="rgb(0,0,0)" />
<circle cx="1.88313" cy="6.06042" r="0.5" fill="rgb(0,0,0)" />
<circle cx="18.387" cy="6.00121" r="0.5" fill="rgb(0,0,0)" />
<circle cx="18.1781" cy="7.00535" r="0.5" fill="rgb(0,0,0)" />
<circle cx="0.95623" cy="11.2889" r="0.5" fill="rgb(0,0,0)" />
<circle cx="10.5497" cy="14.8142" r="0.5" fill="rgb(0,0,0)" />
<circle cx="18.4069" cy="4.8248" r="0.5" fill="rgb(0,0,0)" />
<circle cx="10.0345" cy="18.1367" r="0.5" fill="rgb(0,0,0)" />
<circle cx="18.0733" cy="13.3928" r="0.5" fill="rgb(0,0,0)" />
<circle cx="17.5801" cy="4.27713" r="0.5" fill="rgb(0,0,0)" />
<circle cx="10.7033" cy="4.74782" r="0.5" fill="rgb(0,0,0)" />
<circle cx="0.621357" cy="14.9024" r="0.5" fill="rgb(0,0,0)" />
<circle cx="0.502137" cy="16.6019" r="0.5" fill="rgb(0,0,0)" />
<circle cx="5.23882" cy="3.67118" r="0.5" fill="rgb(0,0,0)" />
<circle cx="1.71085" cy="7.16031" r="0.5" fill="rgb(0,0,0)" />
<circle cx="6.01025" cy="14.0518" r="0.5" fill="rgb(0,0,0)" />
<circle cx="0.464785" cy="6.79327" r="0.5" fill="rgb(0,0,0)" />
<circle cx="0.465606" cy="10.0917" r="0.5" fill="rgb(0,0,0)" />
<circle cx="0.737998" cy="12.8239" r="0.5" fill="rgb(0,0,0)" />
<circle cx="0.431122" cy="8.63228" r="0.5" fill="rgb(0,0,0)" />
<circle cx="7.72859" cy="13.8437" r="0.5" fill="rgb(0,0,0)" />
<circle cx="11.5938" cy="18.1687" r="0.5" fill="rgb(0,0,0)" />
<circle cx="18.3899" cy="15.8152" r="0.5" fill="rgb(0,0,0)" />
<circle cx="15.1739" cy="18.6532" r="0.5" fill="rgb(0,0,0)" />
<circle cx="13.1886" cy="18.4919" r="0.5" fill="rgb(0,0,0)" />
<circle cx="3.31763" cy="18.4352" r="0.5" fill="rgb(0,0,0)" />
<circle cx="6.14615" cy="12.3586" r="0.5" fill="rgb(0,0,0)" />
<circle cx="8.05298" cy="18.6407" r="0.5" fill="rgb(0,0,0)" />
<circle cx="6.0512" cy="18.5083" r="0.5" fill="rgb(0,0,0)" />
<circle cx="1.48904" cy="9.14281" r="0.5" fill="rgb(0,0,0)" />
<circle cx="0.550387" cy="1.29744" r="0.5" fill="rgb(0,0,0)" />
<circle cx="5.55749" cy="6.3106" r="0.5" fill="rgb(0,0,0)" />
<circle cx="8.43545" cy="9.03782" r="0.5" fill="rgb(0,0,0)" />
<circle cx="2.1144" cy="0.581765" r="0.5" fill="rgb(0,0,0)" />
<circle cx="14.1172" cy="15.8008" r="0.5" fill="rgb(0,0,0)" />
<circle cx="1.65358" cy="18.605" r="0.5" fill="rgb(0,0,0)" />
<circle cx="0.429356" cy="18.1739" r="0.5" fill="rgb(0,0,0)" />
<circle cx="18.1207" cy="18.5211" r="0.5" fill="rgb(0,0,0)" />
<circle cx="18.5934" cy="17.5068" r="0.5" fill="rgb(0,0,0)" />
</svg>
