<?xml version="1.0" ?>
<!DOCTYPE svg PUBLIC "-//W3C//DTD SVG 1.1//EN" "http://www.w3.org/Graphics/SVG/1.1/DTD/svg11.dtd">
<svg width="20" height="20" version="1.1" xmlns="http://www.w3.org/2000/svg">
<circle cx="10.9752" cy="1.10614" r="0.5" fill="rgb(0,0,0)" />
<circle cx="9.63394" cy="3.55666" r="0.5" fill="rgb(0,0,0)" />
<circle cx="7.5125" cy="1.27051" r="0.5" fill="rgb(0,0,0)" />
<circle cx="15.2243" cy="4.71056" r="0.5" fill="rgb(0,0,0)" />
<circle cx="5.96971" cy="3.83145" r="0.5" fill="rgb(0,0,0)" />
<circle cx="17.2007" cy="3.13502" r="0.5" fill="rgb(0,0,0)" />
<circle cx="11.2455" cy="6.80483" r="0.5" fill="rgb(0,0,0)" />
<circle cx="4.15742" cy="6.87311" r="0.5" fill="rgb(0,0,0)" />
<circle cx="7.85918" cy="6.07288" r="0.5" fill="rgb(0,0,0)" />
<circle cx="15.0198" cy="7.4115" r="0.5" fill="rgb(0,0,0)" />
<circle cx="2.66632" cy="10.5753" r="0.5" fill="rgb(0,0,0)" />
<circle cx="13.2919" cy="11.9787" r="0.5" fill="rgb(0,0,0)" />
<circle cx="15.6678" cy="12.8265" r="0.5" fill="rgb(0,0,0)" />
<circle cx="9.71114" cy="12.1708" r="0.5" fill="rgb(0,0,0)" />
<circle cx="6.07439" cy="12.8589" r="0.5" fill="rgb(0,0,0)" />
<circle cx="13.5188" cy="14.8566" r="0.5" fill="rgb(0,0,0)" />
<circle cx="17.1857" cy="9.76759" r="0.5" fill="rgb(0,0,0)" />
<circle cx="17.7668" cy="6.20346" r="0.5" fill="rgb(0,0,0)" />
<circle cx="10.5702" cy="14.7961" r="0.5" fill="rgb(0,0,0)" />
<circle cx="13.0561" cy="9.42539" r="0.5" fill="rgb(0,0,0)" />
<circle cx="15.99" cy="15.6008" r="0.5" fill="rgb(0,0,0)" />
<circle cx="13.4797" cy="2.55128" r="0.5" fill="rgb(0,0,0)" />
<circle cx="7.25411" cy="16.3396" r="0.5" fill="rgb(0,0,0)" />
<circle cx="12.3976" cy="4.64462" r="0.5" fill="rgb(0,0,0)" />
<circle cx="1.85504" cy="13.4974" r="0.5" fill="rgb(0,0,0)" />
<circle cx="9.51022" cy="9.2178" r="0.5" fill="rgb(0,0,0)" />
<circle cx="14.0482" cy="17.5155" r="0.5" fill="rgb(0,0,0)" />
<circle cx="1.41342" cy="17.0696" r="0.5" fill="rgb(0,0,0)" />
<circle cx="4.4707" cy="16.8888" r="0.5" fill="rgb(0,0,0)" />
<circle cx="9.35174" cy="17.6579" r="0.5" fill="rgb(0,0,0)" />
<circle cx="11.95" cy="17.5216" r="0.5" fill="rgb(0,0,0)" />
<circle cx="17.9457" cy="12.8491" r="0.5" fill="rgb(0,0,0)" />
<circle cx="4.22733" cy="1.13767" r="0.5" fill="rgb(0,0,0)" />
<circle cx="6.22962" cy="9.25088" r="0.5" fill="rgb(0,0,0)" />
<circle cx="1.21563" cy="1.45716" r="0.5" fill="rgb(0,0,0)" />
<circle cx="1.1181" cy="4.98036" r="0.5" fill="rgb(0,0,0)" />
<circle cx="15.7882" cy="17.9589" r="0.5" fill="rgb(0,0,0)" />
<circle cx="3.19616" cy="3.7409" r="0.5" fill="rgb(0,0,0)" />
<circle cx="17.888" cy="17.9473" r="0.5" fill="rgb(0,0,0)" />
<circle cx="18.0112" cy="15.7593" r="0.5" fill="rgb(0,0,0)" />
<circle cx="17.6664" cy="1.01571" r="0.5" fill="rgb(0,0,0)" />
<circle cx="1.1838" cy="8.25454" r="0.5" fill="rgb(0,0,0)" />
<circle cx="14.6902" cy="0.900442" r="0.5" fill="rgb(0,0,0)" />
</svg>
