<?xml version="1.0" ?>
<!DOCTYPE svg PUBLIC "-//W3C//DTD SVG 1.1//EN" "http://www.w3.org/Graphics/SVG/1.1/DTD/svg11.dtd">
<svg width="20" height="20" version="1.1" xmlns="http://www.w3.org/2000/svg">
<circle cx="10.5834" cy="0.755353" r="0.5" fill="rgb(0,0,0)" />
<circle cx="4.37782" cy="1.26385" r="0.5" fill="rgb(0,0,0)" />
<circle cx="6.79635" cy="1.12409" r="0.5" fill="rgb(0,0,0)" />
<circle cx="13.9112" cy="1.81776" r="0.5" fill="rgb(0,0,0)" />
<circle cx="1.94748" cy="2.06795" r="0.5" fill="rgb(0,0,0)" />
<circle cx="12.1305" cy="2.09515" r="0.5" fill="rgb(0,0,0)" />
<circle cx="16.5126" cy="2.09697" r="0.5" fill="rgb(0,0,0)" />
<circle cx="5.52446" cy="2.39251" r="0.5" fill="rgb(0,0,0)" />
<circle cx="16.834" cy="0.627589" r="0.5" fill="rgb(0,0,0)" />
<circle cx="9.13651" cy="1.84547" r="0.5" fill="rgb(0,0,0)" />
<circle cx="7.75651" cy="2.70678" r="0.5" fill="rgb(0,0,0)" />
<circle cx="18.0414" cy="1.85489" r="0.5" fill="rgb(0,0,0)" />
<circle cx="18.3562" cy="0.596098" r="0.5" fill="rgb(0,0,0)" />
<circle cx="12.7203" cy="0.591559" r="0.5" fill="rgb(0,0,0)" />
<circle cx="3.57341" cy="2.75493" r="0.5" fill="rgb(0,0,0)" />
<circle cx="15.2089" cy="3.92096" r="0.5" fill="rgb(0,0,0)" />
<circle cx="17.2711" cy="3.77304" r="0.5" fill="rgb(0,0,0)" />
<circle cx="16.2581" cy="4.29057" r="0.5" fill="rgb(0,0,0)" />
<circle cx="2.08218" cy="3.47509" r="0.5" fill="rgb(0,0,0)" />
<circle cx="11.7045" cy="4.08445" r="0.5" fill="rgb(0,0,0)" />
<circle cx="8.36456" cy="4.40812" r="0.5" fill="rgb(0,0,0)" />
<circle cx="10.1303" cy="4.93827" r="0.5" fill="rgb(0,0,0)" />
<circle cx="15.4062" cy="2.39127" r="0.5" fill="rgb(0,0,0)" />
<circle cx="13.3395" cy="5.05065" r="0.5" fill="rgb(0,0,0)" />
<circle cx="2.72531" cy="4.88811" r="0.5" fill="rgb(0,0,0)" />
<circle cx="17.0098" cy="5.56661" r="0.5" fill="rgb(0,0,0)" />
<circle cx="4.31491" cy="5.60244" r="0.5" fill="rgb(0,0,0)" />
<circle cx="5.97024" cy="6.65453" r="0.5" fill="rgb(0,0,0)" />
<circle cx="1.67413" cy="5.76159" r="0.5" fill="rgb(0,0,0)" />
<circle cx="12.5987" cy="6.33325" r="0.5" fill="rgb(0,0,0)" />
<circle cx="14.1119" cy="6.8035" r="0.5" fill="rgb(0,0,0)" />
<circle cx="7.35841" cy="5.92131" r="0.5" fill="rgb(0,0,0)" />
<circle cx="11.2998" cy="6.59831" r="0.5" fill="rgb(0,0,0)" />
<circle cx="3.55453" cy="6.99833" r="0.5" fill="rgb(0,0,0)" />
<circle cx="8.33587" cy="6.64912" r="0.5" fill="rgb(0,0,0)" />
<circle cx="1.66081" cy="7.27018" r="0.5" fill="rgb(0,0,0)" />
<circle cx="17.0289" cy="7.27378" r="0.5" fill="rgb(0,0,0)" />
<circle cx="2.5414" cy="8.13995" r="0.5" fill="rgb(0,0,0)" />
<circle cx="15.4621" cy="7.48985" r="0.5" fill="rgb(0,0,0)" />
<circle cx="8.26094" cy="0.574788" r="0.5" fill="rgb(0,0,0)" />
<circle cx="8.86735" cy="8.03755" r="0.5" fill="rgb(0,0,0)" />
<circle cx="7.17184" cy="8.23242" r="0.5" fill="rgb(0,0,0)" />
<circle cx="10.4019" cy="8.35933" r="0.5" fill="rgb(0,0,0)" />
<circle cx="12.2768" cy="8.19452" r="0.5" fill="rgb(0,0,0)" />
<circle cx="16.3257" cy="8.65985" r="0.5" fill="rgb(0,0,0)" />
<circle cx="3.78949" cy="8.86574" r="0.5" fill="rgb(0,0,0)" />
<circle cx="5.2451" cy="9.08349" r="0.5" fill="rgb(0,0,0)" />
<circle cx="9.43393" cy="9.49242" r="0.5" fill="rgb(0,0,0)" />
<circle cx="15.7143" cy="6.01536" r="0.5" fill="rgb(0,0,0)" />
<circle cx="15.7378" cy="10.0298" r="0.5" fill="rgb(0,0,0)" />
<circle cx="7.60769" cy="9.88808" r="0.5" fill="rgb(0,0,0)" />
<circle cx="9.03142" cy="10.8031" r="0.5" fill="rgb(0,0,0)" />
<circle cx="2.67421" cy="10.5303" r="0.5" fill="rgb(0,0,0)" />
<circle cx="13.7199" cy="10.6725" r="0.5" fill="rgb(0,0,0)" />
<circle cx="6.16076" cy="10.5736" r="0.5" fill="rgb(0,0,0)" />
<circle cx="10.2504" cy="2.96249" r="0.5" fill="rgb(0,0,0)" />
<circle cx="11.5233" cy="11.0567" r="0.5" fill="rgb(0,0,0)" />
<circle cx="4.25505" cy="10.5974" r="0.5" fill="rgb(0,0,0)" />
<circle cx="16.0001" cy="11.7505" r="0.5" fill="rgb(0,0,0)" />
<circle cx="12.6653" cy="12.466" r="0.5" fill="rgb(0,0,0)" />
<circle cx="13.2037" cy="3.52983" r="0.5" fill="rgb(0,0,0)" />
<circle cx="6.50918" cy="3.67904" r="0.5" fill="rgb(0,0,0)" />
<circle cx="14.6352" cy="12.4904" r="0.5" fill="rgb(0,0,0)" />
<circle cx="8.3592" cy="12.3904" r="0.5" fill="rgb(0,0,0)" />
<circle cx="3.73009" cy="12.3551" r="0.5" fill="rgb(0,0,0)" />
<circle cx="6.53346" cy="12.4442" r="0.5" fill="rgb(0,0,0)" />
<circle cx="14.0645" cy="13.8685" r="0.5" fill="rgb(0,0,0)" />
<circle cx="12.3998" cy="14.1131" r="0.5" fill="rgb(0,0,0)" />
<circle cx="15.0476" cy="15.0891" r="0.5" fill="rgb(0,0,0)" />
<circle cx="1.16553" cy="11.4576" r="0.5" fill="rgb(0,0,0)" />
<circle cx="8.29902" cy="14.3211" r="0.5" fill="rgb(0,0,0)" />
<circle cx="3.48561" cy="14.6832" r="0.5" fill="rgb(0,0,0)" />
<circle cx="1.99796" cy="14.5107" r="0.5" fill="rgb(0,0,0)" />
<circle cx="17.7807" cy="14.9242" r="0.5" fill="rgb(0,0,0)" />
<circle cx="10.1305" cy="12.065" r="0.5" fill="rgb(0,0,0)" />
<circle cx="14.0948" cy="15.8457" r="0.5" fill="rgb(0,0,0)" />
<circle cx="16.3921" cy="15.3776" r="0.5" fill="rgb(0,0,0)" />
<circle cx="5.94899" cy="15.5063" r="0.5" fill="rgb(0,0,0)" />
<circle cx="10.1306" cy="14.9655" r="0.5" fill="rgb(0,0,0)" />
<circle cx="7.58125" cy="15.6418" r="0.5" fill="rgb(0,0,0)" />
<circle cx="11.365" cy="15.5563" r="0.5" fill="rgb(0,0,0)" />
<circle cx="6.67207" cy="16.4917" r="0.5" fill="rgb(0,0,0)" />
<circle cx="15.2797" cy="16.4964" r="0.5" fill="rgb(0,0,0)" />
<circle cx="18.235" cy="3.09646" r="0.5" fill="rgb(0,0,0)" />
<circle cx="12.2479" cy="16.4689" r="0.5" fill="rgb(0,0,0)" />
<circle cx="14.39" cy="3.19906" r="0.5" fill="rgb(0,0,0)" />
<circle cx="4.22648" cy="16.494" r="0.5" fill="rgb(0,0,0)" />
<circle cx="2.65269" cy="16.6986" r="0.5" fill="rgb(0,0,0)" />
<circle cx="13.847" cy="17.0366" r="0.5" fill="rgb(0,0,0)" />
<circle cx="11.6506" cy="9.55935" r="0.5" fill="rgb(0,0,0)" />
<circle cx="16.537" cy="16.9691" r="0.5" fill="rgb(0,0,0)" />
<circle cx="5.42875" cy="7.76567" r="0.5" fill="rgb(0,0,0)" />
<circle cx="9.27221" cy="16.4615" r="0.5" fill="rgb(0,0,0)" />
<circle cx="5.43341" cy="13.6669" r="0.5" fill="rgb(0,0,0)" />
<circle cx="5.58261" cy="17.2548" r="0.5" fill="rgb(0,0,0)" />
<circle cx="15.2589" cy="17.8001" r="0.5" fill="rgb(0,0,0)" />
<circle cx="14.9414" cy="0.643659" r="0.5" fill="rgb(0,0,0)" />
<circle cx="8.2377" cy="17.54" r="0.5" fill="rgb(0,0,0)" />
<circle cx="12.222" cy="17.7277" r="0.5" fill="rgb(0,0,0)" />
<circle cx="1.51205" cy="17.5558" r="0.5" fill="rgb(0,0,0)" />
<circle cx="7.04592" cy="17.771" r="0.5" fill="rgb(0,0,0)" />
<circle cx="17.2155" cy="17.8902" r="0.5" fill="rgb(0,0,0)" />
<circle cx="18.2323" cy="6.45708" r="0.5" fill="rgb(0,0,0)" />
<circle cx="6.05409" cy="5.07853" r="0.5" fill="rgb(0,0,0)" />
<circle cx="14.8424" cy="5.15978" r="0.5" fill="rgb(0,0,0)" />
<circle cx="18.3023" cy="4.86346" r="0.5" fill="rgb(0,0,0)" />
<circle cx="13.2203" cy="15.2409" r="0.5" fill="rgb(0,0,0)" />
<circle cx="17.874" cy="13.332" r="0.5" fill="rgb(0,0,0)" />
<circle cx="10.5277" cy="17.8214" r="0.5" fill="rgb(0,0,0)" />
<circle cx="4.88793" cy="15.0602" r="0.5" fill="rgb(0,0,0)" />
<circle cx="17.8975" cy="11.4197" r="0.5" fill="rgb(0,0,0)" />
<circle cx="17.9388" cy="9.67785" r="0.5" fill="rgb(0,0,0)" />
<circle cx="18.2267" cy="8.11124" r="0.5" fill="rgb(0,0,0)" />
<circle cx="12.6977" cy="18.5194" r="0.5" fill="rgb(0,0,0)" />
<circle cx="15.9528" cy="18.5357" r="0.5" fill="rgb(0,0,0)" />
<circle cx="14.169" cy="18.2937" r="0.5" fill="rgb(0,0,0)" />
<circle cx="4.39652" cy="18.1389" r="0.5" fill="rgb(0,0,0)" />
<circle cx="0.98649" cy="13.1918" r="0.5" fill="rgb(0,0,0)" />
<circle cx="4.66017" cy="3.93641" r="0.5" fill="rgb(0,0,0)" />
<circle cx="16.0163" cy="13.7757" r="0.5" fill="rgb(0,0,0)" />
<circle cx="0.73361" cy="9.82368" r="0.5" fill="rgb(0,0,0)" />
<circle cx="9.87248" cy="6.5995" r="0.5" fill="rgb(0,0,0)" />
<circle cx="2.24114" cy="9.26549" r="0.5" fill="rgb(0,0,0)" />
<circle cx="0.63436" cy="8.25572" r="0.5" fill="rgb(0,0,0)" />
<circle cx="0.643929" cy="4.01689" r="0.5" fill="rgb(0,0,0)" />
<circle cx="0.45683" cy="6.31115" r="0.5" fill="rgb(0,0,0)" />
<circle cx="18.2394" cy="16.0008" r="0.5" fill="rgb(0,0,0)" />
<circle cx="0.701131" cy="15.7796" r="0.5" fill="rgb(0,0,0)" />
<circle cx="10.6974" cy="13.4023" r="0.5" fill="rgb(0,0,0)" />
<circle cx="6.06124" cy="18.4784" r="0.5" fill="rgb(0,0,0)" />
<circle cx="5.31525" cy="0.44916" r="0.5" fill="rgb(0,0,0)" />
<circle cx="0.626001" cy="1.17823" r="0.5" fill="rgb(0,0,0)" />
<circle cx="2.64536" cy="0.631058" r="0.5" fill="rgb(0,0,0)" />
<circle cx="8.7452" cy="18.5018" r="0.5" fill="rgb(0,0,0)" />
<circle cx="2.88712" cy="18.3454" r="0.5" fill="rgb(0,0,0)" />
<circle cx="13.9368" cy="8.67349" r="0.5" fill="rgb(0,0,0)" />
<circle cx="0.566797" cy="18.1485" r="0.5" fill="rgb(0,0,0)" />
<circle cx="18.1376" cy="18.5193" r="0.5" fill="rgb(0,0,0)" />
<circle cx="18.3532" cy="17.2955" r="0.5" fill="rgb(0,0,0)" />
</svg>
