<?xml version="1.0" ?>
<!DOCTYPE svg PUBLIC "-//W3C//DTD SVG 1.1//EN" "http://www.w3.org/Graphics/SVG/1.1/DTD/svg11.dtd">
<svg width="20" height="20" version="1.1" xmlns="http://www.w3.org/2000/svg">
<circle cx="14.6403" cy="0.379793" r="0.5" fill="rgb(0,0,0)" />
<circle cx="12.8384" cy="0.48992" r="0.5" fill="rgb(0,0,0)" />
<circle cx="11.0605" cy="0.41572" r="0.5" fill="rgb(0,0,0)" />
<circle cx="4.22386" cy="0.639964" r="0.5" fill="rgb(0,0,0)" />
<circle cx="14.2947" cy="1.22912" r="0.5" fill="rgb(0,0,0)" />
<circle cx="10.5188" cy="1.35478" r="0.5" fill="rgb(0,0,0)" />
<circle cx="11.996" cy="1.43127" r="0.5" fill="rgb(0,0,0)" />
<circle cx="6.98299" cy="1.47928" r="0.5" fill="rgb(0,0,0)" />
<circle cx="14.1252" cy="2.15738" r="0.5" fill="rgb(0,0,0)" />
<circle cx="9.08404" cy="1.90398" r="0.5" fill="rgb(0,0,0)" />
<circle cx="7.78927" cy="2.33686" r="0.5" fill="rgb(0,0,0)" />
<circle cx="18.0921" cy="1.74864" r="0.5" fill="rgb(0,0,0)" />
<circle cx="18.4606" cy="0.571189" r="0.5" fill="rgb(0,0,0)" />
<circle cx="15.399" cy="2.46029" r="0.5" fill="rgb(0,0,0)" />
<circle cx="13.0147" cy="2.73657" r="0.5" fill="rgb(0,0,0)" />
<circle cx="11.6806" cy="2.70221" r="0.5" fill="rgb(0,0,0)" />
<circle cx="5.6963" cy="0.442614" r="0.5" fill="rgb(0,0,0)" />
<circle cx="16.7664" cy="3.37872" r="0.5" fill="rgb(0,0,0)" />
<circle cx="7.13505" cy="3.31314" r="0.5" fill="rgb(0,0,0)" />
<circle cx="15.323" cy="3.87276" r="0.5" fill="rgb(0,0,0)" />
<circle cx="10.3766" cy="3.83011" r="0.5" fill="rgb(0,0,0)" />
<circle cx="8.58361" cy="3.80703" r="0.5" fill="rgb(0,0,0)" />
<circle cx="4.13004" cy="4.48738" r="0.5" fill="rgb(0,0,0)" />
<circle cx="16.2182" cy="4.44518" r="0.5" fill="rgb(0,0,0)" />
<circle cx="6.44462" cy="4.76341" r="0.5" fill="rgb(0,0,0)" />
<circle cx="13.9932" cy="4.49806" r="0.5" fill="rgb(0,0,0)" />
<circle cx="7.90253" cy="4.75671" r="0.5" fill="rgb(0,0,0)" />
<circle cx="15.6684" cy="6.02524" r="0.5" fill="rgb(0,0,0)" />
<circle cx="5.24247" cy="3.66344" r="0.5" fill="rgb(0,0,0)" />
<circle cx="12.3683" cy="5.52028" r="0.5" fill="rgb(0,0,0)" />
<circle cx="6.61275" cy="6.80957" r="0.5" fill="rgb(0,0,0)" />
<circle cx="5.58557" cy="6.3327" r="0.5" fill="rgb(0,0,0)" />
<circle cx="18.5986" cy="6.44678" r="0.5" fill="rgb(0,0,0)" />
<circle cx="7.93871" cy="7.01708" r="0.5" fill="rgb(0,0,0)" />
<circle cx="1.6271" cy="7.17035" r="0.5" fill="rgb(0,0,0)" />
<circle cx="10.3124" cy="6.82198" r="0.5" fill="rgb(0,0,0)" />
<circle cx="12.7859" cy="7.00258" r="0.5" fill="rgb(0,0,0)" />
<circle cx="15.6785" cy="7.25082" r="0.5" fill="rgb(0,0,0)" />
<circle cx="6.56627" cy="7.62866" r="0.5" fill="rgb(0,0,0)" />
<circle cx="4.89499" cy="7.59045" r="0.5" fill="rgb(0,0,0)" />
<circle cx="17.5142" cy="4.3262" r="0.5" fill="rgb(0,0,0)" />
<circle cx="1.22116" cy="7.98801" r="0.5" fill="rgb(0,0,0)" />
<circle cx="7.39639" cy="8.07406" r="0.5" fill="rgb(0,0,0)" />
<circle cx="3.82408" cy="8.63273" r="0.5" fill="rgb(0,0,0)" />
<circle cx="10.3815" cy="8.45038" r="0.5" fill="rgb(0,0,0)" />
<circle cx="15.0277" cy="8.50383" r="0.5" fill="rgb(0,0,0)" />
<circle cx="5.34532" cy="4.75856" r="0.5" fill="rgb(0,0,0)" />
<circle cx="7.28697" cy="9.05241" r="0.5" fill="rgb(0,0,0)" />
<circle cx="16.5208" cy="8.67201" r="0.5" fill="rgb(0,0,0)" />
<circle cx="5.95316" cy="8.19236" r="0.5" fill="rgb(0,0,0)" />
<circle cx="4.85203" cy="8.93316" r="0.5" fill="rgb(0,0,0)" />
<circle cx="3.23914" cy="2.65769" r="0.5" fill="rgb(0,0,0)" />
<circle cx="8.50261" cy="9.08323" r="0.5" fill="rgb(0,0,0)" />
<circle cx="3.68756" cy="9.64738" r="0.5" fill="rgb(0,0,0)" />
<circle cx="4.07904" cy="3.49958" r="0.5" fill="rgb(0,0,0)" />
<circle cx="12.1829" cy="8.46166" r="0.5" fill="rgb(0,0,0)" />
<circle cx="2.81668" cy="9.75429" r="0.5" fill="rgb(0,0,0)" />
<circle cx="9.71588" cy="9.44502" r="0.5" fill="rgb(0,0,0)" />
<circle cx="8.17157" cy="10.1392" r="0.5" fill="rgb(0,0,0)" />
<circle cx="18.1494" cy="5.57995" r="0.5" fill="rgb(0,0,0)" />
<circle cx="7.17095" cy="10.052" r="0.5" fill="rgb(0,0,0)" />
<circle cx="15.6691" cy="9.92021" r="0.5" fill="rgb(0,0,0)" />
<circle cx="9.36846" cy="10.5424" r="0.5" fill="rgb(0,0,0)" />
<circle cx="2.23733" cy="3.01503" r="0.5" fill="rgb(0,0,0)" />
<circle cx="16.9549" cy="10.3604" r="0.5" fill="rgb(0,0,0)" />
<circle cx="3.32576" cy="10.6734" r="0.5" fill="rgb(0,0,0)" />
<circle cx="13.524" cy="10.6716" r="0.5" fill="rgb(0,0,0)" />
<circle cx="12.261" cy="10.8017" r="0.5" fill="rgb(0,0,0)" />
<circle cx="14.3215" cy="7.07452" r="0.5" fill="rgb(0,0,0)" />
<circle cx="11.3934" cy="9.38596" r="0.5" fill="rgb(0,0,0)" />
<circle cx="4.66127" cy="11.5461" r="0.5" fill="rgb(0,0,0)" />
<circle cx="7.04536" cy="11.6429" r="0.5" fill="rgb(0,0,0)" />
<circle cx="16.209" cy="11.9796" r="0.5" fill="rgb(0,0,0)" />
<circle cx="2.31231" cy="11.6653" r="0.5" fill="rgb(0,0,0)" />
<circle cx="13.5417" cy="8.38253" r="0.5" fill="rgb(0,0,0)" />
<circle cx="6.00072" cy="12.4334" r="0.5" fill="rgb(0,0,0)" />
<circle cx="6.27866" cy="3.64615" r="0.5" fill="rgb(0,0,0)" />
<circle cx="3.29929" cy="12.407" r="0.5" fill="rgb(0,0,0)" />
<circle cx="0.813655" cy="11.2774" r="0.5" fill="rgb(0,0,0)" />
<circle cx="9.2267" cy="12.0418" r="0.5" fill="rgb(0,0,0)" />
<circle cx="8.16297" cy="12.7872" r="0.5" fill="rgb(0,0,0)" />
<circle cx="15.0842" cy="13.4698" r="0.5" fill="rgb(0,0,0)" />
<circle cx="1.97386" cy="6.23266" r="0.5" fill="rgb(0,0,0)" />
<circle cx="12.1241" cy="12.7877" r="0.5" fill="rgb(0,0,0)" />
<circle cx="10.5342" cy="13.4012" r="0.5" fill="rgb(0,0,0)" />
<circle cx="13.4382" cy="13.9445" r="0.5" fill="rgb(0,0,0)" />
<circle cx="11.9524" cy="4.11409" r="0.5" fill="rgb(0,0,0)" />
<circle cx="14.1049" cy="9.57468" r="0.5" fill="rgb(0,0,0)" />
<circle cx="16.5348" cy="13.556" r="0.5" fill="rgb(0,0,0)" />
<circle cx="14.442" cy="3.13014" r="0.5" fill="rgb(0,0,0)" />
<circle cx="6.12927" cy="13.9492" r="0.5" fill="rgb(0,0,0)" />
<circle cx="14.3383" cy="14.2013" r="0.5" fill="rgb(0,0,0)" />
<circle cx="5.6828" cy="1.48451" r="0.5" fill="rgb(0,0,0)" />
<circle cx="3.92571" cy="13.2491" r="0.5" fill="rgb(0,0,0)" />
<circle cx="1.89997" cy="13.8311" r="0.5" fill="rgb(0,0,0)" />
<circle cx="15.946" cy="0.760491" r="0.5" fill="rgb(0,0,0)" />
<circle cx="11.3321" cy="6.97411" r="0.5" fill="rgb(0,0,0)" />
<circle cx="15.552" cy="14.478" r="0.5" fill="rgb(0,0,0)" />
<circle cx="12.4748" cy="14.2487" r="0.5" fill="rgb(0,0,0)" />
<circle cx="10.0314" cy="5.30807" r="0.5" fill="rgb(0,0,0)" />
<circle cx="7.6726" cy="13.995" r="0.5" fill="rgb(0,0,0)" />
<circle cx="3.09767" cy="14.4089" r="0.5" fill="rgb(0,0,0)" />
<circle cx="17.8473" cy="2.64143" r="0.5" fill="rgb(0,0,0)" />
<circle cx="4.00847" cy="14.8197" r="0.5" fill="rgb(0,0,0)" />
<circle cx="2.5662" cy="9.1935" r="0.5" fill="rgb(0,0,0)" />
<circle cx="5.0312" cy="14.9085" r="0.5" fill="rgb(0,0,0)" />
<circle cx="8.96293" cy="14.5777" r="0.5" fill="rgb(0,0,0)" />
<circle cx="11.5436" cy="14.6304" r="0.5" fill="rgb(0,0,0)" />
<circle cx="6.13871" cy="15.2722" r="0.5" fill="rgb(0,0,0)" />
<circle cx="6.02834" cy="9.26043" r="0.5" fill="rgb(0,0,0)" />
<circle cx="15.0285" cy="15.3308" r="0.5" fill="rgb(0,0,0)" />
<circle cx="13.3284" cy="15.297" r="0.5" fill="rgb(0,0,0)" />
<circle cx="17.3067" cy="0.691564" r="0.5" fill="rgb(0,0,0)" />
<circle cx="6.45359" cy="5.65415" r="0.5" fill="rgb(0,0,0)" />
<circle cx="7.59633" cy="5.99683" r="0.5" fill="rgb(0,0,0)" />
<circle cx="10.3965" cy="14.9077" r="0.5" fill="rgb(0,0,0)" />
<circle cx="4.83005" cy="15.8522" r="0.5" fill="rgb(0,0,0)" />
<circle cx="7.49842" cy="15.5927" r="0.5" fill="rgb(0,0,0)" />
<circle cx="9.09573" cy="5.66598" r="0.5" fill="rgb(0,0,0)" />
<circle cx="16.3569" cy="15.4345" r="0.5" fill="rgb(0,0,0)" />
<circle cx="14.1607" cy="5.70761" r="0.5" fill="rgb(0,0,0)" />
<circle cx="11.9738" cy="15.6354" r="0.5" fill="rgb(0,0,0)" />
<circle cx="17.0668" cy="7.73754" r="0.5" fill="rgb(0,0,0)" />
<circle cx="17.5728" cy="15.0786" r="0.5" fill="rgb(0,0,0)" />
<circle cx="9.30882" cy="0.55589" r="0.5" fill="rgb(0,0,0)" />
<circle cx="9.09533" cy="6.78014" r="0.5" fill="rgb(0,0,0)" />
<circle cx="1.2862" cy="16.1899" r="0.5" fill="rgb(0,0,0)" />
<circle cx="4.89865" cy="2.73835" r="0.5" fill="rgb(0,0,0)" />
<circle cx="9.40273" cy="3.13254" r="0.5" fill="rgb(0,0,0)" />
<circle cx="4.17488" cy="6.63559" r="0.5" fill="rgb(0,0,0)" />
<circle cx="5.57016" cy="16.3743" r="0.5" fill="rgb(0,0,0)" />
<circle cx="2.0001" cy="1.90972" r="0.5" fill="rgb(0,0,0)" />
<circle cx="4.01168" cy="16.0918" r="0.5" fill="rgb(0,0,0)" />
<circle cx="6.63775" cy="16.4626" r="0.5" fill="rgb(0,0,0)" />
<circle cx="2.23327" cy="16.5215" r="0.5" fill="rgb(0,0,0)" />
<circle cx="8.46851" cy="7.9516" r="0.5" fill="rgb(0,0,0)" />
<circle cx="3.20545" cy="16.1401" r="0.5" fill="rgb(0,0,0)" />
<circle cx="3.94899" cy="1.88881" r="0.5" fill="rgb(0,0,0)" />
<circle cx="14.9132" cy="11.1363" r="0.5" fill="rgb(0,0,0)" />
<circle cx="15.1797" cy="16.5448" r="0.5" fill="rgb(0,0,0)" />
<circle cx="14.8123" cy="12.524" r="0.5" fill="rgb(0,0,0)" />
<circle cx="1.40627" cy="17.2278" r="0.5" fill="rgb(0,0,0)" />
<circle cx="13.2399" cy="3.71793" r="0.5" fill="rgb(0,0,0)" />
<circle cx="12.7407" cy="16.4918" r="0.5" fill="rgb(0,0,0)" />
<circle cx="4.47517" cy="16.9594" r="0.5" fill="rgb(0,0,0)" />
<circle cx="13.4841" cy="12.3951" r="0.5" fill="rgb(0,0,0)" />
<circle cx="14.1238" cy="17.0054" r="0.5" fill="rgb(0,0,0)" />
<circle cx="4.73384" cy="10.1782" r="0.5" fill="rgb(0,0,0)" />
<circle cx="16.3569" cy="16.8773" r="0.5" fill="rgb(0,0,0)" />
<circle cx="17.6609" cy="17.15" r="0.5" fill="rgb(0,0,0)" />
<circle cx="2.96582" cy="17.3587" r="0.5" fill="rgb(0,0,0)" />
<circle cx="10.8279" cy="10.9404" r="0.5" fill="rgb(0,0,0)" />
<circle cx="12.9235" cy="17.5051" r="0.5" fill="rgb(0,0,0)" />
<circle cx="1.20994" cy="17.9266" r="0.5" fill="rgb(0,0,0)" />
<circle cx="2.13475" cy="17.8215" r="0.5" fill="rgb(0,0,0)" />
<circle cx="10.452" cy="2.61135" r="0.5" fill="rgb(0,0,0)" />
<circle cx="9.08749" cy="17.3639" r="0.5" fill="rgb(0,0,0)" />
<circle cx="15.4758" cy="17.8748" r="0.5" fill="rgb(0,0,0)" />
<circle cx="6.77246" cy="17.7245" r="0.5" fill="rgb(0,0,0)" />
<circle cx="3.12573" cy="7.14061" r="0.5" fill="rgb(0,0,0)" />
<circle cx="14.2792" cy="18.0739" r="0.5" fill="rgb(0,0,0)" />
<circle cx="8.00445" cy="0.66057" r="0.5" fill="rgb(0,0,0)" />
<circle cx="18.1055" cy="7.09828" r="0.5" fill="rgb(0,0,0)" />
<circle cx="16.722" cy="18.2116" r="0.5" fill="rgb(0,0,0)" />
<circle cx="0.793652" cy="12.8246" r="0.5" fill="rgb(0,0,0)" />
<circle cx="6.88142" cy="0.349297" r="0.5" fill="rgb(0,0,0)" />
<circle cx="5.66204" cy="17.3896" r="0.5" fill="rgb(0,0,0)" />
<circle cx="0.58765" cy="14.8602" r="0.5" fill="rgb(0,0,0)" />
<circle cx="5.92215" cy="2.41849" r="0.5" fill="rgb(0,0,0)" />
<circle cx="0.40742" cy="16.6238" r="0.5" fill="rgb(0,0,0)" />
<circle cx="2.88793" cy="4.03432" r="0.5" fill="rgb(0,0,0)" />
<circle cx="6.10173" cy="10.6024" r="0.5" fill="rgb(0,0,0)" />
<circle cx="18.1569" cy="9.5103" r="0.5" fill="rgb(0,0,0)" />
<circle cx="18.3708" cy="8.12938" r="0.5" fill="rgb(0,0,0)" />
<circle cx="10.0278" cy="18.1452" r="0.5" fill="rgb(0,0,0)" />
<circle cx="18.0806" cy="13.4823" r="0.5" fill="rgb(0,0,0)" />
<circle cx="16.8148" cy="5.33242" r="0.5" fill="rgb(0,0,0)" />
<circle cx="18.0369" cy="11.5772" r="0.5" fill="rgb(0,0,0)" />
<circle cx="2.161" cy="15.3381" r="0.5" fill="rgb(0,0,0)" />
<circle cx="9.26503" cy="16.068" r="0.5" fill="rgb(0,0,0)" />
<circle cx="0.462066" cy="10.0567" r="0.5" fill="rgb(0,0,0)" />
<circle cx="2.73791" cy="5.24789" r="0.5" fill="rgb(0,0,0)" />
<circle cx="0.432639" cy="8.63268" r="0.5" fill="rgb(0,0,0)" />
<circle cx="1.85538" cy="10.229" r="0.5" fill="rgb(0,0,0)" />
<circle cx="11.5916" cy="18.1694" r="0.5" fill="rgb(0,0,0)" />
<circle cx="18.4943" cy="4.52653" r="0.5" fill="rgb(0,0,0)" />
<circle cx="18.4467" cy="3.24362" r="0.5" fill="rgb(0,0,0)" />
<circle cx="4.22223" cy="5.47147" r="0.5" fill="rgb(0,0,0)" />
<circle cx="2.59822" cy="8.21257" r="0.5" fill="rgb(0,0,0)" />
<circle cx="8.19033" cy="11.2727" r="0.5" fill="rgb(0,0,0)" />
<circle cx="18.401" cy="15.7754" r="0.5" fill="rgb(0,0,0)" />
<circle cx="8.2476" cy="18.0286" r="0.5" fill="rgb(0,0,0)" />
<circle cx="3.41644" cy="18.4346" r="0.5" fill="rgb(0,0,0)" />
<circle cx="0.452828" cy="3.47337" r="0.5" fill="rgb(0,0,0)" />
<circle cx="13.0653" cy="1.72413" r="0.5" fill="rgb(0,0,0)" />
<circle cx="1.36643" cy="5.20983" r="0.5" fill="rgb(0,0,0)" />
<circle cx="15.1737" cy="18.6533" r="0.5" fill="rgb(0,0,0)" />
<circle cx="13.1962" cy="18.5034" r="0.5" fill="rgb(0,0,0)" />
<circle cx="17.0049" cy="6.41855" r="0.5" fill="rgb(0,0,0)" />
<circle cx="10.9374" cy="16.6687" r="0.5" fill="rgb(0,0,0)" />
<circle cx="0.47523" cy="6.80793" r="0.5" fill="rgb(0,0,0)" />
<circle cx="10.8092" cy="4.85879" r="0.5" fill="rgb(0,0,0)" />
<circle cx="0.411185" cy="5.13272" r="0.5" fill="rgb(0,0,0)" />
<circle cx="1.5178" cy="3.66289" r="0.5" fill="rgb(0,0,0)" />
<circle cx="15.2843" cy="5.07417" r="0.5" fill="rgb(0,0,0)" />
<circle cx="8.05298" cy="18.6407" r="0.5" fill="rgb(0,0,0)" />
<circle cx="16.4805" cy="2.11827" r="0.5" fill="rgb(0,0,0)" />
<circle cx="4.9361" cy="13.5689" r="0.5" fill="rgb(0,0,0)" />
<circle cx="6.05117" cy="18.5181" r="0.5" fill="rgb(0,0,0)" />
<circle cx="7.81084" cy="16.977" r="0.5" fill="rgb(0,0,0)" />
<circle cx="0.548978" cy="1.26016" r="0.5" fill="rgb(0,0,0)" />
<circle cx="1.49093" cy="9.13674" r="0.5" fill="rgb(0,0,0)" />
<circle cx="2.14292" cy="0.56854" r="0.5" fill="rgb(0,0,0)" />
<circle cx="0.273303" cy="17.8744" r="0.5" fill="rgb(0,0,0)" />
<circle cx="4.53676" cy="18.104" r="0.5" fill="rgb(0,0,0)" />
<circle cx="2.03871" cy="18.6019" r="0.5" fill="rgb(0,0,0)" />
<circle cx="9.47018" cy="7.94749" r="0.5" fill="rgb(0,0,0)" />
<circle cx="0.696292" cy="18.5859" r="0.5" fill="rgb(0,0,0)" />
<circle cx="10.2856" cy="12.3366" r="0.5" fill="rgb(0,0,0)" />
<circle cx="17.7734" cy="18.582" r="0.5" fill="rgb(0,0,0)" />
<circle cx="14.1415" cy="15.8113" r="0.5" fill="rgb(0,0,0)" />
<circle cx="18.5061" cy="18.3492" r="0.5" fill="rgb(0,0,0)" />
<circle cx="18.6052" cy="17.3289" r="0.5" fill="rgb(0,0,0)" />
</svg>
