<?xml version="1.0" ?>
<!DOCTYPE svg PUBLIC "-//W3C//DTD SVG 1.1//EN" "http://www.w3.org/Graphics/SVG/1.1/DTD/svg11.dtd">
<svg width="20" height="20" version="1.1" xmlns="http://www.w3.org/2000/svg">
<circle cx="10.3444" cy="0.295687" r="0.5" fill="rgb(0,0,0)" />
<circle cx="12.3669" cy="0.47469" r="0.5" fill="rgb(0,0,0)" />
<circle cx="9.16255" cy="0.561911" r="0.5" fill="rgb(0,0,0)" />
<circle cx="17.3341" cy="0.630207" r="0.5" fill="rgb(0,0,0)" />
<circle cx="13.2984" cy="1.231" r="0.5" fill="rgb(0,0,0)" />
<circle cx="14.6823" cy="1.33866" r="0.5" fill="rgb(0,0,0)" />
<circle cx="5.15274" cy="1.49233" r="0.5" fill="rgb(0,0,0)" />
<circle cx="9.18799" cy="1.701" r="0.5" fill="rgb(0,0,0)" />
<circle cx="7.83388" cy="1.74842" r="0.5" fill="rgb(0,0,0)" />
<circle cx="13.459" cy="2.10633" r="0.5" fill="rgb(0,0,0)" />
<circle cx="14.2521" cy="2.17784" r="0.5" fill="rgb(0,0,0)" />
<circle cx="5.7745" cy="2.39572" r="0.5" fill="rgb(0,0,0)" />
<circle cx="17.0586" cy="1.89824" r="0.5" fill="rgb(0,0,0)" />
<circle cx="1.8263" cy="1.96118" r="0.5" fill="rgb(0,0,0)" />
<circle cx="12.5723" cy="2.24885" r="0.5" fill="rgb(0,0,0)" />
<circle cx="13.0648" cy="2.81488" r="0.5" fill="rgb(0,0,0)" />
<circle cx="16.1356" cy="2.28756" r="0.5" fill="rgb(0,0,0)" />
<circle cx="11.9659" cy="1.62449" r="0.5" fill="rgb(0,0,0)" />
<circle cx="3.18352" cy="2.81469" r="0.5" fill="rgb(0,0,0)" />
<circle cx="17.9875" cy="2.58685" r="0.5" fill="rgb(0,0,0)" />
<circle cx="6.26378" cy="1.76079" r="0.5" fill="rgb(0,0,0)" />
<circle cx="5.01044" cy="2.79243" r="0.5" fill="rgb(0,0,0)" />
<circle cx="15.3322" cy="2.51956" r="0.5" fill="rgb(0,0,0)" />
<circle cx="8.64594" cy="2.81724" r="0.5" fill="rgb(0,0,0)" />
<circle cx="7.65938" cy="2.72374" r="0.5" fill="rgb(0,0,0)" />
<circle cx="11.6512" cy="2.7644" r="0.5" fill="rgb(0,0,0)" />
<circle cx="14.5714" cy="3.04857" r="0.5" fill="rgb(0,0,0)" />
<circle cx="2.23279" cy="3.04136" r="0.5" fill="rgb(0,0,0)" />
<circle cx="16.7938" cy="3.34249" r="0.5" fill="rgb(0,0,0)" />
<circle cx="4.40299" cy="3.54813" r="0.5" fill="rgb(0,0,0)" />
<circle cx="5.30639" cy="3.66605" r="0.5" fill="rgb(0,0,0)" />
<circle cx="3.61062" cy="3.57244" r="0.5" fill="rgb(0,0,0)" />
<circle cx="6.03289" cy="3.38338" r="0.5" fill="rgb(0,0,0)" />
<circle cx="11.3698" cy="0.683336" r="0.5" fill="rgb(0,0,0)" />
<circle cx="13.7178" cy="3.48654" r="0.5" fill="rgb(0,0,0)" />
<circle cx="15.4514" cy="3.80593" r="0.5" fill="rgb(0,0,0)" />
<circle cx="7.4412" cy="3.85631" r="0.5" fill="rgb(0,0,0)" />
<circle cx="12.7153" cy="3.7998" r="0.5" fill="rgb(0,0,0)" />
<circle cx="16.7173" cy="4.43263" r="0.5" fill="rgb(0,0,0)" />
<circle cx="10.6444" cy="3.90372" r="0.5" fill="rgb(0,0,0)" />
<circle cx="14.4842" cy="4.27002" r="0.5" fill="rgb(0,0,0)" />
<circle cx="6.58436" cy="4.27978" r="0.5" fill="rgb(0,0,0)" />
<circle cx="3.25098" cy="1.56169" r="0.5" fill="rgb(0,0,0)" />
<circle cx="17.5962" cy="4.33274" r="0.5" fill="rgb(0,0,0)" />
<circle cx="15.9381" cy="4.56309" r="0.5" fill="rgb(0,0,0)" />
<circle cx="5.4887" cy="4.60701" r="0.5" fill="rgb(0,0,0)" />
<circle cx="6.75986" cy="2.81145" r="0.5" fill="rgb(0,0,0)" />
<circle cx="10.0857" cy="4.61909" r="0.5" fill="rgb(0,0,0)" />
<circle cx="15.2637" cy="5.11078" r="0.5" fill="rgb(0,0,0)" />
<circle cx="6.01836" cy="5.12021" r="0.5" fill="rgb(0,0,0)" />
<circle cx="2.1808" cy="4.83583" r="0.5" fill="rgb(0,0,0)" />
<circle cx="7.93591" cy="4.94332" r="0.5" fill="rgb(0,0,0)" />
<circle cx="13.5823" cy="4.81367" r="0.5" fill="rgb(0,0,0)" />
<circle cx="9.4139" cy="5.08502" r="0.5" fill="rgb(0,0,0)" />
<circle cx="4.65738" cy="5.38662" r="0.5" fill="rgb(0,0,0)" />
<circle cx="16.7697" cy="5.44838" r="0.5" fill="rgb(0,0,0)" />
<circle cx="6.68647" cy="5.56512" r="0.5" fill="rgb(0,0,0)" />
<circle cx="8.90201" cy="5.81555" r="0.5" fill="rgb(0,0,0)" />
<circle cx="3.17207" cy="5.56476" r="0.5" fill="rgb(0,0,0)" />
<circle cx="7.53485" cy="6.04707" r="0.5" fill="rgb(0,0,0)" />
<circle cx="15.692" cy="6.03089" r="0.5" fill="rgb(0,0,0)" />
<circle cx="12.613" cy="5.56583" r="0.5" fill="rgb(0,0,0)" />
<circle cx="14.3053" cy="5.75507" r="0.5" fill="rgb(0,0,0)" />
<circle cx="1.85844" cy="6.18726" r="0.5" fill="rgb(0,0,0)" />
<circle cx="4.31544" cy="6.32281" r="0.5" fill="rgb(0,0,0)" />
<circle cx="6.61728" cy="6.80314" r="0.5" fill="rgb(0,0,0)" />
<circle cx="9.68108" cy="6.51885" r="0.5" fill="rgb(0,0,0)" />
<circle cx="7.67478" cy="7.17288" r="0.5" fill="rgb(0,0,0)" />
<circle cx="1.58926" cy="7.15404" r="0.5" fill="rgb(0,0,0)" />
<circle cx="18.1081" cy="7.10284" r="0.5" fill="rgb(0,0,0)" />
<circle cx="8.59668" cy="6.86934" r="0.5" fill="rgb(0,0,0)" />
<circle cx="2.87737" cy="6.9852" r="0.5" fill="rgb(0,0,0)" />
<circle cx="15.6678" cy="7.17475" r="0.5" fill="rgb(0,0,0)" />
<circle cx="12.6679" cy="7.03697" r="0.5" fill="rgb(0,0,0)" />
<circle cx="10.26" cy="7.24289" r="0.5" fill="rgb(0,0,0)" />
<circle cx="8.64243" cy="3.98488" r="0.5" fill="rgb(0,0,0)" />
<circle cx="6.58635" cy="7.6477" r="0.5" fill="rgb(0,0,0)" />
<circle cx="7.76569" cy="0.872124" r="0.5" fill="rgb(0,0,0)" />
<circle cx="5.27522" cy="7.50536" r="0.5" fill="rgb(0,0,0)" />
<circle cx="11.3188" cy="7.20063" r="0.5" fill="rgb(0,0,0)" />
<circle cx="10.9806" cy="5.64315" r="0.5" fill="rgb(0,0,0)" />
<circle cx="7.3488" cy="8.13362" r="0.5" fill="rgb(0,0,0)" />
<circle cx="5.90994" cy="8.25289" r="0.5" fill="rgb(0,0,0)" />
<circle cx="13.6635" cy="7.92689" r="0.5" fill="rgb(0,0,0)" />
<circle cx="3.56298" cy="8.14167" r="0.5" fill="rgb(0,0,0)" />
<circle cx="9.35902" cy="7.99288" r="0.5" fill="rgb(0,0,0)" />
<circle cx="16.1438" cy="8.29303" r="0.5" fill="rgb(0,0,0)" />
<circle cx="10.3261" cy="8.50657" r="0.5" fill="rgb(0,0,0)" />
<circle cx="8.45436" cy="8.98754" r="0.5" fill="rgb(0,0,0)" />
<circle cx="2.67766" cy="9.06035" r="0.5" fill="rgb(0,0,0)" />
<circle cx="12.1588" cy="8.40089" r="0.5" fill="rgb(0,0,0)" />
<circle cx="1.45621" cy="9.16772" r="0.5" fill="rgb(0,0,0)" />
<circle cx="17.015" cy="6.4331" r="0.5" fill="rgb(0,0,0)" />
<circle cx="4.06048" cy="9.12267" r="0.5" fill="rgb(0,0,0)" />
<circle cx="13.3582" cy="9.08623" r="0.5" fill="rgb(0,0,0)" />
<circle cx="9.07015" cy="9.80417" r="0.5" fill="rgb(0,0,0)" />
<circle cx="8.13361" cy="9.89145" r="0.5" fill="rgb(0,0,0)" />
<circle cx="9.84096" cy="9.39788" r="0.5" fill="rgb(0,0,0)" />
<circle cx="7.13642" cy="9.86686" r="0.5" fill="rgb(0,0,0)" />
<circle cx="11.3702" cy="9.37562" r="0.5" fill="rgb(0,0,0)" />
<circle cx="4.69208" cy="10.1603" r="0.5" fill="rgb(0,0,0)" />
<circle cx="1.80269" cy="10.1999" r="0.5" fill="rgb(0,0,0)" />
<circle cx="6.15502" cy="10.2777" r="0.5" fill="rgb(0,0,0)" />
<circle cx="3.80277" cy="4.54847" r="0.5" fill="rgb(0,0,0)" />
<circle cx="1.11437" cy="7.96288" r="0.5" fill="rgb(0,0,0)" />
<circle cx="15.8469" cy="9.51756" r="0.5" fill="rgb(0,0,0)" />
<circle cx="13.2836" cy="10.2114" r="0.5" fill="rgb(0,0,0)" />
<circle cx="17.0767" cy="7.70805" r="0.5" fill="rgb(0,0,0)" />
<circle cx="3.33644" cy="10.5299" r="0.5" fill="rgb(0,0,0)" />
<circle cx="15.7031" cy="10.6341" r="0.5" fill="rgb(0,0,0)" />
<circle cx="8.52875" cy="10.82" r="0.5" fill="rgb(0,0,0)" />
<circle cx="10.4075" cy="1.43283" r="0.5" fill="rgb(0,0,0)" />
<circle cx="18.5998" cy="6.44539" r="0.5" fill="rgb(0,0,0)" />
<circle cx="9.61841" cy="10.7455" r="0.5" fill="rgb(0,0,0)" />
<circle cx="4.76084" cy="11.1425" r="0.5" fill="rgb(0,0,0)" />
<circle cx="14.8554" cy="11.3246" r="0.5" fill="rgb(0,0,0)" />
<circle cx="9.63701" cy="2.57625" r="0.5" fill="rgb(0,0,0)" />
<circle cx="13.7345" cy="11.2641" r="0.5" fill="rgb(0,0,0)" />
<circle cx="1.27213" cy="5.31038" r="0.5" fill="rgb(0,0,0)" />
<circle cx="3.74826" cy="11.4561" r="0.5" fill="rgb(0,0,0)" />
<circle cx="12.1896" cy="10.9234" r="0.5" fill="rgb(0,0,0)" />
<circle cx="6.00028" cy="11.4593" r="0.5" fill="rgb(0,0,0)" />
<circle cx="10.8373" cy="10.955" r="0.5" fill="rgb(0,0,0)" />
<circle cx="7.11715" cy="11.8746" r="0.5" fill="rgb(0,0,0)" />
<circle cx="16.2266" cy="12.0107" r="0.5" fill="rgb(0,0,0)" />
<circle cx="3.32556" cy="12.41" r="0.5" fill="rgb(0,0,0)" />
<circle cx="14.9301" cy="8.51187" r="0.5" fill="rgb(0,0,0)" />
<circle cx="13.2104" cy="12.3" r="0.5" fill="rgb(0,0,0)" />
<circle cx="5.02682" cy="12.4568" r="0.5" fill="rgb(0,0,0)" />
<circle cx="14.1271" cy="13.0058" r="0.5" fill="rgb(0,0,0)" />
<circle cx="4.34163" cy="0.58044" r="0.5" fill="rgb(0,0,0)" />
<circle cx="6.77802" cy="1.23477" r="0.5" fill="rgb(0,0,0)" />
<circle cx="10.3149" cy="12.3203" r="0.5" fill="rgb(0,0,0)" />
<circle cx="8.26949" cy="12.7197" r="0.5" fill="rgb(0,0,0)" />
<circle cx="7.35086" cy="10.8253" r="0.5" fill="rgb(0,0,0)" />
<circle cx="12.0655" cy="12.8436" r="0.5" fill="rgb(0,0,0)" />
<circle cx="6.54255" cy="12.9059" r="0.5" fill="rgb(0,0,0)" />
<circle cx="14.3603" cy="7.03194" r="0.5" fill="rgb(0,0,0)" />
<circle cx="3.83431" cy="13.4527" r="0.5" fill="rgb(0,0,0)" />
<circle cx="10.5603" cy="13.3874" r="0.5" fill="rgb(0,0,0)" />
<circle cx="2.2576" cy="13.243" r="0.5" fill="rgb(0,0,0)" />
<circle cx="14.9672" cy="12.4563" r="0.5" fill="rgb(0,0,0)" />
<circle cx="0.835634" cy="11.2856" r="0.5" fill="rgb(0,0,0)" />
<circle cx="13.4277" cy="13.8601" r="0.5" fill="rgb(0,0,0)" />
<circle cx="4.79591" cy="13.884" r="0.5" fill="rgb(0,0,0)" />
<circle cx="7.92615" cy="13.7189" r="0.5" fill="rgb(0,0,0)" />
<circle cx="6.0368" cy="13.9694" r="0.5" fill="rgb(0,0,0)" />
<circle cx="14.3705" cy="14.3382" r="0.5" fill="rgb(0,0,0)" />
<circle cx="2.26957" cy="11.5341" r="0.5" fill="rgb(0,0,0)" />
<circle cx="17.1049" cy="14.0654" r="0.5" fill="rgb(0,0,0)" />
<circle cx="12.4959" cy="14.2578" r="0.5" fill="rgb(0,0,0)" />
<circle cx="10.6352" cy="2.6258" r="0.5" fill="rgb(0,0,0)" />
<circle cx="3.07269" cy="14.4971" r="0.5" fill="rgb(0,0,0)" />
<circle cx="4.99367" cy="14.9054" r="0.5" fill="rgb(0,0,0)" />
<circle cx="13.4469" cy="15.015" r="0.5" fill="rgb(0,0,0)" />
<circle cx="4.0006" cy="14.8741" r="0.5" fill="rgb(0,0,0)" />
<circle cx="9.19575" cy="14.4715" r="0.5" fill="rgb(0,0,0)" />
<circle cx="18.002" cy="14.7939" r="0.5" fill="rgb(0,0,0)" />
<circle cx="6.58511" cy="15.0101" r="0.5" fill="rgb(0,0,0)" />
<circle cx="11.5412" cy="14.6211" r="0.5" fill="rgb(0,0,0)" />
<circle cx="5.72032" cy="0.458709" r="0.5" fill="rgb(0,0,0)" />
<circle cx="15.0651" cy="15.3274" r="0.5" fill="rgb(0,0,0)" />
<circle cx="5.66728" cy="15.5311" r="0.5" fill="rgb(0,0,0)" />
<circle cx="10.4577" cy="14.9097" r="0.5" fill="rgb(0,0,0)" />
<circle cx="2.21876" cy="15.3676" r="0.5" fill="rgb(0,0,0)" />
<circle cx="7.85421" cy="15.0345" r="0.5" fill="rgb(0,0,0)" />
<circle cx="4.72093" cy="15.8375" r="0.5" fill="rgb(0,0,0)" />
<circle cx="14.6019" cy="9.79711" r="0.5" fill="rgb(0,0,0)" />
<circle cx="14.2541" cy="15.7399" r="0.5" fill="rgb(0,0,0)" />
<circle cx="4.19511" cy="2.2524" r="0.5" fill="rgb(0,0,0)" />
<circle cx="3.25627" cy="15.804" r="0.5" fill="rgb(0,0,0)" />
<circle cx="16.3258" cy="15.3816" r="0.5" fill="rgb(0,0,0)" />
<circle cx="11.9979" cy="15.6396" r="0.5" fill="rgb(0,0,0)" />
<circle cx="13.2562" cy="15.8582" r="0.5" fill="rgb(0,0,0)" />
<circle cx="4.75257" cy="4.39861" r="0.5" fill="rgb(0,0,0)" />
<circle cx="1.29968" cy="16.1306" r="0.5" fill="rgb(0,0,0)" />
<circle cx="7.46455" cy="16.0998" r="0.5" fill="rgb(0,0,0)" />
<circle cx="17.2679" cy="16.2052" r="0.5" fill="rgb(0,0,0)" />
<circle cx="5.54198" cy="16.5383" r="0.5" fill="rgb(0,0,0)" />
<circle cx="16.0101" cy="0.739226" r="0.5" fill="rgb(0,0,0)" />
<circle cx="11.7076" cy="4.2425" r="0.5" fill="rgb(0,0,0)" />
<circle cx="6.55378" cy="16.4736" r="0.5" fill="rgb(0,0,0)" />
<circle cx="1.47171" cy="14.2763" r="0.5" fill="rgb(0,0,0)" />
<circle cx="9.26106" cy="16.0842" r="0.5" fill="rgb(0,0,0)" />
<circle cx="12.6042" cy="16.5777" r="0.5" fill="rgb(0,0,0)" />
<circle cx="10.8554" cy="16.4631" r="0.5" fill="rgb(0,0,0)" />
<circle cx="1.27961" cy="17.2615" r="0.5" fill="rgb(0,0,0)" />
<circle cx="15.1403" cy="16.4754" r="0.5" fill="rgb(0,0,0)" />
<circle cx="14.1593" cy="16.9767" r="0.5" fill="rgb(0,0,0)" />
<circle cx="2.97632" cy="16.7185" r="0.5" fill="rgb(0,0,0)" />
<circle cx="4.46683" cy="16.982" r="0.5" fill="rgb(0,0,0)" />
<circle cx="15.8897" cy="17.0299" r="0.5" fill="rgb(0,0,0)" />
<circle cx="16.8353" cy="17.3009" r="0.5" fill="rgb(0,0,0)" />
<circle cx="7.82399" cy="17.0668" r="0.5" fill="rgb(0,0,0)" />
<circle cx="1.96987" cy="17.7468" r="0.5" fill="rgb(0,0,0)" />
<circle cx="13.1914" cy="17.4732" r="0.5" fill="rgb(0,0,0)" />
<circle cx="18.5081" cy="4.53126" r="0.5" fill="rgb(0,0,0)" />
<circle cx="18.3893" cy="3.35025" r="0.5" fill="rgb(0,0,0)" />
<circle cx="8.47289" cy="8.0827" r="0.5" fill="rgb(0,0,0)" />
<circle cx="15.1465" cy="13.5284" r="0.5" fill="rgb(0,0,0)" />
<circle cx="1.2144" cy="17.8887" r="0.5" fill="rgb(0,0,0)" />
<circle cx="18.4431" cy="0.493222" r="0.5" fill="rgb(0,0,0)" />
<circle cx="17.8291" cy="17.4566" r="0.5" fill="rgb(0,0,0)" />
<circle cx="4.96609" cy="9.05837" r="0.5" fill="rgb(0,0,0)" />
<circle cx="5.67495" cy="17.4152" r="0.5" fill="rgb(0,0,0)" />
<circle cx="2.81031" cy="17.702" r="0.5" fill="rgb(0,0,0)" />
<circle cx="9.02258" cy="17.3444" r="0.5" fill="rgb(0,0,0)" />
<circle cx="18.1227" cy="13.178" r="0.5" fill="rgb(0,0,0)" />
<circle cx="9.62773" cy="3.58557" r="0.5" fill="rgb(0,0,0)" />
<circle cx="18.0657" cy="11.6078" r="0.5" fill="rgb(0,0,0)" />
<circle cx="15.4459" cy="17.974" r="0.5" fill="rgb(0,0,0)" />
<circle cx="6.77631" cy="17.7251" r="0.5" fill="rgb(0,0,0)" />
<circle cx="2.25559" cy="8.24306" r="0.5" fill="rgb(0,0,0)" />
<circle cx="10.8932" cy="17.8395" r="0.5" fill="rgb(0,0,0)" />
<circle cx="3.49295" cy="9.52127" r="0.5" fill="rgb(0,0,0)" />
<circle cx="15.5689" cy="14.4758" r="0.5" fill="rgb(0,0,0)" />
<circle cx="3.96968" cy="16.1728" r="0.5" fill="rgb(0,0,0)" />
<circle cx="8.23108" cy="18.0524" r="0.5" fill="rgb(0,0,0)" />
<circle cx="17.0721" cy="9.17409" r="0.5" fill="rgb(0,0,0)" />
<circle cx="14.3144" cy="18.0261" r="0.5" fill="rgb(0,0,0)" />
<circle cx="12.0749" cy="17.6985" r="0.5" fill="rgb(0,0,0)" />
<circle cx="9.82343" cy="18.0341" r="0.5" fill="rgb(0,0,0)" />
<circle cx="4.53341" cy="18.1266" r="0.5" fill="rgb(0,0,0)" />
<circle cx="0.421155" cy="16.5959" r="0.5" fill="rgb(0,0,0)" />
<circle cx="16.6417" cy="18.4112" r="0.5" fill="rgb(0,0,0)" />
<circle cx="5.72301" cy="6.31795" r="0.5" fill="rgb(0,0,0)" />
<circle cx="0.504633" cy="14.94" r="0.5" fill="rgb(0,0,0)" />
<circle cx="0.676702" cy="12.8095" r="0.5" fill="rgb(0,0,0)" />
<circle cx="8.16659" cy="11.6132" r="0.5" fill="rgb(0,0,0)" />
<circle cx="0.448366" cy="10.0703" r="0.5" fill="rgb(0,0,0)" />
<circle cx="0.42901" cy="8.64057" r="0.5" fill="rgb(0,0,0)" />
<circle cx="18.3182" cy="9.60538" r="0.5" fill="rgb(0,0,0)" />
<circle cx="18.1503" cy="5.59641" r="0.5" fill="rgb(0,0,0)" />
<circle cx="18.361" cy="8.14121" r="0.5" fill="rgb(0,0,0)" />
<circle cx="2.77638" cy="4.02197" r="0.5" fill="rgb(0,0,0)" />
<circle cx="6.10574" cy="9.18221" r="0.5" fill="rgb(0,0,0)" />
<circle cx="11.3225" cy="18.5958" r="0.5" fill="rgb(0,0,0)" />
<circle cx="15.0747" cy="18.6544" r="0.5" fill="rgb(0,0,0)" />
<circle cx="17.1437" cy="10.5999" r="0.5" fill="rgb(0,0,0)" />
<circle cx="13.2396" cy="18.5275" r="0.5" fill="rgb(0,0,0)" />
<circle cx="3.44762" cy="18.4167" r="0.5" fill="rgb(0,0,0)" />
<circle cx="9.23084" cy="12.1303" r="0.5" fill="rgb(0,0,0)" />
<circle cx="18.4611" cy="15.8222" r="0.5" fill="rgb(0,0,0)" />
<circle cx="8.09745" cy="18.6517" r="0.5" fill="rgb(0,0,0)" />
<circle cx="1.48329" cy="3.69446" r="0.5" fill="rgb(0,0,0)" />
<circle cx="0.459659" cy="6.80634" r="0.5" fill="rgb(0,0,0)" />
<circle cx="6.06318" cy="18.5178" r="0.5" fill="rgb(0,0,0)" />
<circle cx="6.83324" cy="0.305266" r="0.5" fill="rgb(0,0,0)" />
<circle cx="18.3786" cy="1.67052" r="0.5" fill="rgb(0,0,0)" />
<circle cx="8.11763" cy="0.263664" r="0.5" fill="rgb(0,0,0)" />
<circle cx="2.53302" cy="0.544311" r="0.5" fill="rgb(0,0,0)" />
<circle cx="0.767561" cy="0.736266" r="0.5" fill="rgb(0,0,0)" />
<circle cx="4.27187" cy="7.43365" r="0.5" fill="rgb(0,0,0)" />
<circle cx="0.568706" cy="2.37808" r="0.5" fill="rgb(0,0,0)" />
<circle cx="0.403392" cy="5.15427" r="0.5" fill="rgb(0,0,0)" />
<circle cx="0.473501" cy="3.79556" r="0.5" fill="rgb(0,0,0)" />
<circle cx="0.278948" cy="17.6546" r="0.5" fill="rgb(0,0,0)" />
<circle cx="0.370721" cy="18.4709" r="0.5" fill="rgb(0,0,0)" />
<circle cx="2.09471" cy="18.5955" r="0.5" fill="rgb(0,0,0)" />
<circle cx="7.27937" cy="9.04859" r="0.5" fill="rgb(0,0,0)" />
<circle cx="1.08505" cy="18.5812" r="0.5" fill="rgb(0,0,0)" />
<circle cx="16.3352" cy="13.3463" r="0.5" fill="rgb(0,0,0)" />
<circle cx="1.99883" cy="16.664" r="0.5" fill="rgb(0,0,0)" />
<circle cx="17.8261" cy="18.5988" r="0.5" fill="rgb(0,0,0)" />
<circle cx="2.7433" cy="9.91328" r="0.5" fill="rgb(0,0,0)" />
<circle cx="18.5632" cy="18.3851" r="0.5" fill="rgb(0,0,0)" />
<circle cx="18.6098" cy="17.2738" r="0.5" fill="rgb(0,0,0)" />
<circle cx="14.7906" cy="0.353628" r="0.5" fill="rgb(0,0,0)" />
<circle cx="13.468" cy="0.332879" r="0.5" fill="rgb(0,0,0)" />
</svg>
