<?xml version="1.0" ?>
<!DOCTYPE svg PUBLIC "-//W3C//DTD SVG 1.1//EN" "http://www.w3.org/Graphics/SVG/1.1/DTD/svg11.dtd">
<svg width="20" height="20" version="1.1" xmlns="http://www.w3.org/2000/svg">
<circle cx="14.9413" cy="0.643651" r="0.5" fill="rgb(0,0,0)" />
<circle cx="10.4948" cy="0.77317" r="0.5" fill="rgb(0,0,0)" />
<circle cx="13.9118" cy="1.81857" r="0.5" fill="rgb(0,0,0)" />
<circle cx="7.01637" cy="1.68521" r="0.5" fill="rgb(0,0,0)" />
<circle cx="1.91882" cy="2.06111" r="0.5" fill="rgb(0,0,0)" />
<circle cx="16.5127" cy="2.09663" r="0.5" fill="rgb(0,0,0)" />
<circle cx="15.4058" cy="2.39189" r="0.5" fill="rgb(0,0,0)" />
<circle cx="18.0414" cy="1.85489" r="0.5" fill="rgb(0,0,0)" />
<circle cx="10.307" cy="2.95406" r="0.5" fill="rgb(0,0,0)" />
<circle cx="13.2014" cy="3.54824" r="0.5" fill="rgb(0,0,0)" />
<circle cx="2.11788" cy="3.46916" r="0.5" fill="rgb(0,0,0)" />
<circle cx="15.1855" cy="3.94785" r="0.5" fill="rgb(0,0,0)" />
<circle cx="6.72908" cy="3.30853" r="0.5" fill="rgb(0,0,0)" />
<circle cx="17.274" cy="3.77027" r="0.5" fill="rgb(0,0,0)" />
<circle cx="4.83057" cy="3.76496" r="0.5" fill="rgb(0,0,0)" />
<circle cx="11.6848" cy="4.13404" r="0.5" fill="rgb(0,0,0)" />
<circle cx="12.7155" cy="0.595992" r="0.5" fill="rgb(0,0,0)" />
<circle cx="14.8746" cy="5.25252" r="0.5" fill="rgb(0,0,0)" />
<circle cx="13.3719" cy="5.1219" r="0.5" fill="rgb(0,0,0)" />
<circle cx="10.0122" cy="5.04751" r="0.5" fill="rgb(0,0,0)" />
<circle cx="1.66633" cy="5.76138" r="0.5" fill="rgb(0,0,0)" />
<circle cx="4.32368" cy="5.53101" r="0.5" fill="rgb(0,0,0)" />
<circle cx="7.47026" cy="5.90574" r="0.5" fill="rgb(0,0,0)" />
<circle cx="8.57576" cy="6.74934" r="0.5" fill="rgb(0,0,0)" />
<circle cx="10.7872" cy="6.65898" r="0.5" fill="rgb(0,0,0)" />
<circle cx="1.67146" cy="7.27578" r="0.5" fill="rgb(0,0,0)" />
<circle cx="14.4602" cy="7.05543" r="0.5" fill="rgb(0,0,0)" />
<circle cx="16.9593" cy="5.53254" r="0.5" fill="rgb(0,0,0)" />
<circle cx="9.70274" cy="7.92916" r="0.5" fill="rgb(0,0,0)" />
<circle cx="5.51204" cy="7.80362" r="0.5" fill="rgb(0,0,0)" />
<circle cx="16.0927" cy="8.52375" r="0.5" fill="rgb(0,0,0)" />
<circle cx="12.1165" cy="8.1175" r="0.5" fill="rgb(0,0,0)" />
<circle cx="13.8681" cy="8.6752" r="0.5" fill="rgb(0,0,0)" />
<circle cx="2.436" cy="9.27353" r="0.5" fill="rgb(0,0,0)" />
<circle cx="4.97563" cy="8.90426" r="0.5" fill="rgb(0,0,0)" />
<circle cx="9.34089" cy="9.30914" r="0.5" fill="rgb(0,0,0)" />
<circle cx="6.01707" cy="6.67164" r="0.5" fill="rgb(0,0,0)" />
<circle cx="15.7821" cy="10.0532" r="0.5" fill="rgb(0,0,0)" />
<circle cx="8.70463" cy="10.5816" r="0.5" fill="rgb(0,0,0)" />
<circle cx="6.41441" cy="10.4199" r="0.5" fill="rgb(0,0,0)" />
<circle cx="6.10144" cy="4.94474" r="0.5" fill="rgb(0,0,0)" />
<circle cx="13.7545" cy="10.6636" r="0.5" fill="rgb(0,0,0)" />
<circle cx="8.32094" cy="4.1639" r="0.5" fill="rgb(0,0,0)" />
<circle cx="2.76852" cy="10.61" r="0.5" fill="rgb(0,0,0)" />
<circle cx="11.493" cy="10.9792" r="0.5" fill="rgb(0,0,0)" />
<circle cx="16.2172" cy="11.7071" r="0.5" fill="rgb(0,0,0)" />
<circle cx="10.0916" cy="11.9618" r="0.5" fill="rgb(0,0,0)" />
<circle cx="15.755" cy="6.3447" r="0.5" fill="rgb(0,0,0)" />
<circle cx="12.6488" cy="12.4486" r="0.5" fill="rgb(0,0,0)" />
<circle cx="8.37221" cy="12.4051" r="0.5" fill="rgb(0,0,0)" />
<circle cx="3.86396" cy="12.1506" r="0.5" fill="rgb(0,0,0)" />
<circle cx="4.23045" cy="9.99987" r="0.5" fill="rgb(0,0,0)" />
<circle cx="10.7024" cy="13.3859" r="0.5" fill="rgb(0,0,0)" />
<circle cx="11.3972" cy="9.41257" r="0.5" fill="rgb(0,0,0)" />
<circle cx="6.48222" cy="12.4633" r="0.5" fill="rgb(0,0,0)" />
<circle cx="16.1414" cy="13.7378" r="0.5" fill="rgb(0,0,0)" />
<circle cx="12.3982" cy="14.1087" r="0.5" fill="rgb(0,0,0)" />
<circle cx="5.32257" cy="13.7441" r="0.5" fill="rgb(0,0,0)" />
<circle cx="8.3404" cy="14.3112" r="0.5" fill="rgb(0,0,0)" />
<circle cx="1.16828" cy="11.4636" r="0.5" fill="rgb(0,0,0)" />
<circle cx="13.2181" cy="15.2387" r="0.5" fill="rgb(0,0,0)" />
<circle cx="14.094" cy="15.8457" r="0.5" fill="rgb(0,0,0)" />
<circle cx="16.4824" cy="15.4359" r="0.5" fill="rgb(0,0,0)" />
<circle cx="16.7981" cy="7.27342" r="0.5" fill="rgb(0,0,0)" />
<circle cx="5.05233" cy="15.2131" r="0.5" fill="rgb(0,0,0)" />
<circle cx="10.1349" cy="14.9777" r="0.5" fill="rgb(0,0,0)" />
<circle cx="14.7096" cy="12.4178" r="0.5" fill="rgb(0,0,0)" />
<circle cx="3.52995" cy="15.0392" r="0.5" fill="rgb(0,0,0)" />
<circle cx="5.18111" cy="16.3131" r="0.5" fill="rgb(0,0,0)" />
<circle cx="11.3482" cy="15.555" r="0.5" fill="rgb(0,0,0)" />
<circle cx="15.2743" cy="16.495" r="0.5" fill="rgb(0,0,0)" />
<circle cx="18.2355" cy="3.09999" r="0.5" fill="rgb(0,0,0)" />
<circle cx="7.42729" cy="15.5251" r="0.5" fill="rgb(0,0,0)" />
<circle cx="14.0982" cy="13.8456" r="0.5" fill="rgb(0,0,0)" />
<circle cx="12.2368" cy="16.4684" r="0.5" fill="rgb(0,0,0)" />
<circle cx="6.73051" cy="16.4115" r="0.5" fill="rgb(0,0,0)" />
<circle cx="9.17432" cy="16.4507" r="0.5" fill="rgb(0,0,0)" />
<circle cx="17.9361" cy="14.464" r="0.5" fill="rgb(0,0,0)" />
<circle cx="2.77203" cy="16.7465" r="0.5" fill="rgb(0,0,0)" />
<circle cx="13.8454" cy="17.0362" r="0.5" fill="rgb(0,0,0)" />
<circle cx="16.5202" cy="16.9913" r="0.5" fill="rgb(0,0,0)" />
<circle cx="5.77601" cy="17.3407" r="0.5" fill="rgb(0,0,0)" />
<circle cx="15.26" cy="17.8003" r="0.5" fill="rgb(0,0,0)" />
<circle cx="12.2124" cy="17.7242" r="0.5" fill="rgb(0,0,0)" />
<circle cx="14.3884" cy="3.20263" r="0.5" fill="rgb(0,0,0)" />
<circle cx="17.2232" cy="17.8676" r="0.5" fill="rgb(0,0,0)" />
<circle cx="8.89557" cy="2.06645" r="0.5" fill="rgb(0,0,0)" />
<circle cx="18.3562" cy="0.596098" r="0.5" fill="rgb(0,0,0)" />
<circle cx="3.5972" cy="7.05013" r="0.5" fill="rgb(0,0,0)" />
<circle cx="1.5281" cy="17.5628" r="0.5" fill="rgb(0,0,0)" />
<circle cx="16.834" cy="0.627607" r="0.5" fill="rgb(0,0,0)" />
<circle cx="18.1928" cy="6.50177" r="0.5" fill="rgb(0,0,0)" />
<circle cx="18.2989" cy="4.88224" r="0.5" fill="rgb(0,0,0)" />
<circle cx="4.39867" cy="17.7625" r="0.5" fill="rgb(0,0,0)" />
<circle cx="15.9533" cy="18.535" r="0.5" fill="rgb(0,0,0)" />
<circle cx="16.2388" cy="4.27858" r="0.5" fill="rgb(0,0,0)" />
<circle cx="14.169" cy="18.2937" r="0.5" fill="rgb(0,0,0)" />
<circle cx="0.643794" cy="4.01142" r="0.5" fill="rgb(0,0,0)" />
<circle cx="8.64403" cy="17.9593" r="0.5" fill="rgb(0,0,0)" />
<circle cx="12.6993" cy="18.5191" r="0.5" fill="rgb(0,0,0)" />
<circle cx="10.5117" cy="17.8426" r="0.5" fill="rgb(0,0,0)" />
<circle cx="0.994353" cy="13.1933" r="0.5" fill="rgb(0,0,0)" />
<circle cx="17.9735" cy="12.4886" r="0.5" fill="rgb(0,0,0)" />
<circle cx="17.9774" cy="10.1454" r="0.5" fill="rgb(0,0,0)" />
<circle cx="2.74855" cy="4.87136" r="0.5" fill="rgb(0,0,0)" />
<circle cx="2.19465" cy="14.3755" r="0.5" fill="rgb(0,0,0)" />
<circle cx="18.1284" cy="8.27123" r="0.5" fill="rgb(0,0,0)" />
<circle cx="2.77112" cy="8.21374" r="0.5" fill="rgb(0,0,0)" />
<circle cx="0.774038" cy="9.82101" r="0.5" fill="rgb(0,0,0)" />
<circle cx="7.47373" cy="18.2158" r="0.5" fill="rgb(0,0,0)" />
<circle cx="6.16216" cy="18.2903" r="0.5" fill="rgb(0,0,0)" />
<circle cx="18.1365" cy="15.9729" r="0.5" fill="rgb(0,0,0)" />
<circle cx="3.61199" cy="2.65241" r="0.5" fill="rgb(0,0,0)" />
<circle cx="0.651347" cy="8.25629" r="0.5" fill="rgb(0,0,0)" />
<circle cx="0.454454" cy="6.30399" r="0.5" fill="rgb(0,0,0)" />
<circle cx="7.40614" cy="8.51864" r="0.5" fill="rgb(0,0,0)" />
<circle cx="0.64076" cy="1.14505" r="0.5" fill="rgb(0,0,0)" />
<circle cx="12.1312" cy="2.08871" r="0.5" fill="rgb(0,0,0)" />
<circle cx="2.76722" cy="0.676624" r="0.5" fill="rgb(0,0,0)" />
<circle cx="3.01836" cy="18.3786" r="0.5" fill="rgb(0,0,0)" />
<circle cx="5.16776" cy="1.99127" r="0.5" fill="rgb(0,0,0)" />
<circle cx="12.5033" cy="6.36923" r="0.5" fill="rgb(0,0,0)" />
<circle cx="15.0628" cy="15.0593" r="0.5" fill="rgb(0,0,0)" />
<circle cx="0.582802" cy="18.1585" r="0.5" fill="rgb(0,0,0)" />
<circle cx="18.1475" cy="18.512" r="0.5" fill="rgb(0,0,0)" />
<circle cx="18.3763" cy="17.3146" r="0.5" fill="rgb(0,0,0)" />
<circle cx="8.06191" cy="0.538771" r="0.5" fill="rgb(0,0,0)" />
<circle cx="0.751328" cy="15.7505" r="0.5" fill="rgb(0,0,0)" />
<circle cx="5.2211" cy="0.537656" r="0.5" fill="rgb(0,0,0)" />
</svg>
