<?xml version="1.0" ?>
<!DOCTYPE svg PUBLIC "-//W3C//DTD SVG 1.1//EN" "http://www.w3.org/Graphics/SVG/1.1/DTD/svg11.dtd">
<svg width="20" height="20" version="1.1" xmlns="http://www.w3.org/2000/svg">
<circle cx="6.07731" cy="0.411956" r="0.5" fill="rgb(0,0,0)" />
<circle cx="12.7977" cy="0.558512" r="0.5" fill="rgb(0,0,0)" />
<circle cx="8.3138" cy="0.534982" r="0.5" fill="rgb(0,0,0)" />
<circle cx="5.5365" cy="1.44772" r="0.5" fill="rgb(0,0,0)" />
<circle cx="10.5317" cy="0.702561" r="0.5" fill="rgb(0,0,0)" />
<circle cx="7.15403" cy="1.35959" r="0.5" fill="rgb(0,0,0)" />
<circle cx="14.023" cy="1.70415" r="0.5" fill="rgb(0,0,0)" />
<circle cx="15.3996" cy="2.44337" r="0.5" fill="rgb(0,0,0)" />
<circle cx="4.86912" cy="2.76417" r="0.5" fill="rgb(0,0,0)" />
<circle cx="7.86552" cy="2.77774" r="0.5" fill="rgb(0,0,0)" />
<circle cx="3.0982" cy="3.08829" r="0.5" fill="rgb(0,0,0)" />
<circle cx="10.2536" cy="2.98833" r="0.5" fill="rgb(0,0,0)" />
<circle cx="15.1603" cy="3.94062" r="0.5" fill="rgb(0,0,0)" />
<circle cx="13.2553" cy="3.79686" r="0.5" fill="rgb(0,0,0)" />
<circle cx="1.80158" cy="3.44336" r="0.5" fill="rgb(0,0,0)" />
<circle cx="6.73281" cy="3.80124" r="0.5" fill="rgb(0,0,0)" />
<circle cx="17.5394" cy="4.26171" r="0.5" fill="rgb(0,0,0)" />
<circle cx="9.15903" cy="1.84391" r="0.5" fill="rgb(0,0,0)" />
<circle cx="16.1939" cy="4.54224" r="0.5" fill="rgb(0,0,0)" />
<circle cx="11.7045" cy="4.15842" r="0.5" fill="rgb(0,0,0)" />
<circle cx="14.784" cy="5.23218" r="0.5" fill="rgb(0,0,0)" />
<circle cx="6.11387" cy="5.18354" r="0.5" fill="rgb(0,0,0)" />
<circle cx="2.61988" cy="4.96681" r="0.5" fill="rgb(0,0,0)" />
<circle cx="13.3614" cy="5.0983" r="0.5" fill="rgb(0,0,0)" />
<circle cx="1.67858" cy="5.75017" r="0.5" fill="rgb(0,0,0)" />
<circle cx="15.7186" cy="6.05873" r="0.5" fill="rgb(0,0,0)" />
<circle cx="7.39955" cy="5.92791" r="0.5" fill="rgb(0,0,0)" />
<circle cx="4.3607" cy="6.11309" r="0.5" fill="rgb(0,0,0)" />
<circle cx="17.9325" cy="6.77926" r="0.5" fill="rgb(0,0,0)" />
<circle cx="4.29577" cy="4.81071" r="0.5" fill="rgb(0,0,0)" />
<circle cx="6.06126" cy="6.67043" r="0.5" fill="rgb(0,0,0)" />
<circle cx="8.35208" cy="6.65192" r="0.5" fill="rgb(0,0,0)" />
<circle cx="14.1168" cy="6.81214" r="0.5" fill="rgb(0,0,0)" />
<circle cx="1.73827" cy="7.12979" r="0.5" fill="rgb(0,0,0)" />
<circle cx="1.96404" cy="2.05092" r="0.5" fill="rgb(0,0,0)" />
<circle cx="11.2958" cy="6.58853" r="0.5" fill="rgb(0,0,0)" />
<circle cx="2.543" cy="8.12495" r="0.5" fill="rgb(0,0,0)" />
<circle cx="10.1069" cy="4.92198" r="0.5" fill="rgb(0,0,0)" />
<circle cx="15.4454" cy="7.48063" r="0.5" fill="rgb(0,0,0)" />
<circle cx="5.38477" cy="3.9899" r="0.5" fill="rgb(0,0,0)" />
<circle cx="3.48086" cy="7.07632" r="0.5" fill="rgb(0,0,0)" />
<circle cx="9.03531" cy="7.8409" r="0.5" fill="rgb(0,0,0)" />
<circle cx="10.4284" cy="8.26732" r="0.5" fill="rgb(0,0,0)" />
<circle cx="7.02253" cy="8.1788" r="0.5" fill="rgb(0,0,0)" />
<circle cx="0.774335" cy="8.03236" r="0.5" fill="rgb(0,0,0)" />
<circle cx="9.89053" cy="6.55337" r="0.5" fill="rgb(0,0,0)" />
<circle cx="2.36009" cy="9.06513" r="0.5" fill="rgb(0,0,0)" />
<circle cx="5.18745" cy="8.88679" r="0.5" fill="rgb(0,0,0)" />
<circle cx="12.6139" cy="6.34388" r="0.5" fill="rgb(0,0,0)" />
<circle cx="3.86187" cy="8.84817" r="0.5" fill="rgb(0,0,0)" />
<circle cx="13.9672" cy="8.61401" r="0.5" fill="rgb(0,0,0)" />
<circle cx="16.8806" cy="0.582347" r="0.5" fill="rgb(0,0,0)" />
<circle cx="3.07305" cy="9.79992" r="0.5" fill="rgb(0,0,0)" />
<circle cx="11.6459" cy="9.51898" r="0.5" fill="rgb(0,0,0)" />
<circle cx="9.83707" cy="9.60094" r="0.5" fill="rgb(0,0,0)" />
<circle cx="1.58703" cy="9.91955" r="0.5" fill="rgb(0,0,0)" />
<circle cx="15.8331" cy="9.94468" r="0.5" fill="rgb(0,0,0)" />
<circle cx="14.3498" cy="3.14562" r="0.5" fill="rgb(0,0,0)" />
<circle cx="7.53828" cy="10.1049" r="0.5" fill="rgb(0,0,0)" />
<circle cx="4.6952" cy="10.368" r="0.5" fill="rgb(0,0,0)" />
<circle cx="6.27215" cy="10.4305" r="0.5" fill="rgb(0,0,0)" />
<circle cx="3.06955" cy="10.9127" r="0.5" fill="rgb(0,0,0)" />
<circle cx="14.9159" cy="11.0434" r="0.5" fill="rgb(0,0,0)" />
<circle cx="11.5053" cy="11.0407" r="0.5" fill="rgb(0,0,0)" />
<circle cx="10.4118" cy="12.0161" r="0.5" fill="rgb(0,0,0)" />
<circle cx="14.9441" cy="0.6037" r="0.5" fill="rgb(0,0,0)" />
<circle cx="14.3203" cy="12.4125" r="0.5" fill="rgb(0,0,0)" />
<circle cx="12.5748" cy="12.4448" r="0.5" fill="rgb(0,0,0)" />
<circle cx="4.54764" cy="12.046" r="0.5" fill="rgb(0,0,0)" />
<circle cx="2.70536" cy="12.5043" r="0.5" fill="rgb(0,0,0)" />
<circle cx="15.6594" cy="13.2787" r="0.5" fill="rgb(0,0,0)" />
<circle cx="10.7006" cy="13.4725" r="0.5" fill="rgb(0,0,0)" />
<circle cx="12.8936" cy="2.58069" r="0.5" fill="rgb(0,0,0)" />
<circle cx="6.35419" cy="12.5691" r="0.5" fill="rgb(0,0,0)" />
<circle cx="9.07679" cy="12.5" r="0.5" fill="rgb(0,0,0)" />
<circle cx="14.0863" cy="13.9206" r="0.5" fill="rgb(0,0,0)" />
<circle cx="12.4208" cy="14.0605" r="0.5" fill="rgb(0,0,0)" />
<circle cx="5.51195" cy="13.7587" r="0.5" fill="rgb(0,0,0)" />
<circle cx="3.53712" cy="14.2329" r="0.5" fill="rgb(0,0,0)" />
<circle cx="8.31162" cy="14.2705" r="0.5" fill="rgb(0,0,0)" />
<circle cx="4.17569" cy="0.591137" r="0.5" fill="rgb(0,0,0)" />
<circle cx="15.0152" cy="15.1246" r="0.5" fill="rgb(0,0,0)" />
<circle cx="1.86718" cy="14.6348" r="0.5" fill="rgb(0,0,0)" />
<circle cx="5.00082" cy="15.0345" r="0.5" fill="rgb(0,0,0)" />
<circle cx="3.92166" cy="3.74249" r="0.5" fill="rgb(0,0,0)" />
<circle cx="5.9353" cy="15.629" r="0.5" fill="rgb(0,0,0)" />
<circle cx="16.3011" cy="1.71003" r="0.5" fill="rgb(0,0,0)" />
<circle cx="16.4358" cy="15.492" r="0.5" fill="rgb(0,0,0)" />
<circle cx="11.5095" cy="15.347" r="0.5" fill="rgb(0,0,0)" />
<circle cx="3.56694" cy="15.8755" r="0.5" fill="rgb(0,0,0)" />
<circle cx="7.52629" cy="15.5845" r="0.5" fill="rgb(0,0,0)" />
<circle cx="10.1627" cy="15.0783" r="0.5" fill="rgb(0,0,0)" />
<circle cx="7.70089" cy="12.2681" r="0.5" fill="rgb(0,0,0)" />
<circle cx="6.68468" cy="16.4938" r="0.5" fill="rgb(0,0,0)" />
<circle cx="6.10117" cy="2.51117" r="0.5" fill="rgb(0,0,0)" />
<circle cx="15.3065" cy="16.478" r="0.5" fill="rgb(0,0,0)" />
<circle cx="4.56" cy="16.7641" r="0.5" fill="rgb(0,0,0)" />
<circle cx="1.64836" cy="16.4728" r="0.5" fill="rgb(0,0,0)" />
<circle cx="3.79341" cy="1.85943" r="0.5" fill="rgb(0,0,0)" />
<circle cx="9.18386" cy="16.3711" r="0.5" fill="rgb(0,0,0)" />
<circle cx="18.0141" cy="1.88027" r="0.5" fill="rgb(0,0,0)" />
<circle cx="14.0379" cy="17.0087" r="0.5" fill="rgb(0,0,0)" />
<circle cx="2.83074" cy="17.0598" r="0.5" fill="rgb(0,0,0)" />
<circle cx="16.0532" cy="14.2718" r="0.5" fill="rgb(0,0,0)" />
<circle cx="16.5366" cy="16.9949" r="0.5" fill="rgb(0,0,0)" />
<circle cx="13.269" cy="15.1519" r="0.5" fill="rgb(0,0,0)" />
<circle cx="12.8163" cy="17.4466" r="0.5" fill="rgb(0,0,0)" />
<circle cx="8.38183" cy="4.41831" r="0.5" fill="rgb(0,0,0)" />
<circle cx="5.66825" cy="17.3086" r="0.5" fill="rgb(0,0,0)" />
<circle cx="12.4607" cy="16.3253" r="0.5" fill="rgb(0,0,0)" />
<circle cx="8.21213" cy="17.4851" r="0.5" fill="rgb(0,0,0)" />
<circle cx="16.9301" cy="7.36072" r="0.5" fill="rgb(0,0,0)" />
<circle cx="15.2863" cy="17.7949" r="0.5" fill="rgb(0,0,0)" />
<circle cx="7.00149" cy="17.7203" r="0.5" fill="rgb(0,0,0)" />
<circle cx="11.8212" cy="1.82554" r="0.5" fill="rgb(0,0,0)" />
<circle cx="0.482865" cy="9.36908" r="0.5" fill="rgb(0,0,0)" />
<circle cx="0.87777" cy="11.2874" r="0.5" fill="rgb(0,0,0)" />
<circle cx="11.249" cy="17.5969" r="0.5" fill="rgb(0,0,0)" />
<circle cx="17.9441" cy="9.66183" r="0.5" fill="rgb(0,0,0)" />
<circle cx="18.3645" cy="0.609882" r="0.5" fill="rgb(0,0,0)" />
<circle cx="18.3082" cy="3.12338" r="0.5" fill="rgb(0,0,0)" />
<circle cx="13.3868" cy="10.4341" r="0.5" fill="rgb(0,0,0)" />
<circle cx="4.48907" cy="18.1798" r="0.5" fill="rgb(0,0,0)" />
<circle cx="0.598279" cy="4.08601" r="0.5" fill="rgb(0,0,0)" />
<circle cx="0.450256" cy="6.30451" r="0.5" fill="rgb(0,0,0)" />
<circle cx="17.9339" cy="13.3803" r="0.5" fill="rgb(0,0,0)" />
<circle cx="17.9283" cy="11.3824" r="0.5" fill="rgb(0,0,0)" />
<circle cx="16.9794" cy="5.62506" r="0.5" fill="rgb(0,0,0)" />
<circle cx="9.11728" cy="10.7013" r="0.5" fill="rgb(0,0,0)" />
<circle cx="12.6718" cy="18.5339" r="0.5" fill="rgb(0,0,0)" />
<circle cx="15.9612" cy="18.5346" r="0.5" fill="rgb(0,0,0)" />
<circle cx="14.2082" cy="18.3052" r="0.5" fill="rgb(0,0,0)" />
<circle cx="9.98873" cy="17.9738" r="0.5" fill="rgb(0,0,0)" />
<circle cx="17.2167" cy="17.8911" r="0.5" fill="rgb(0,0,0)" />
<circle cx="0.80827" cy="13.2705" r="0.5" fill="rgb(0,0,0)" />
<circle cx="18.4004" cy="4.82577" r="0.5" fill="rgb(0,0,0)" />
<circle cx="18.2375" cy="8.12223" r="0.5" fill="rgb(0,0,0)" />
<circle cx="12.2814" cy="8.19089" r="0.5" fill="rgb(0,0,0)" />
<circle cx="18.4464" cy="6.08109" r="0.5" fill="rgb(0,0,0)" />
<circle cx="18.2482" cy="15.9937" r="0.5" fill="rgb(0,0,0)" />
<circle cx="0.517603" cy="15.6945" r="0.5" fill="rgb(0,0,0)" />
<circle cx="5.37911" cy="7.69347" r="0.5" fill="rgb(0,0,0)" />
<circle cx="8.38262" cy="18.5487" r="0.5" fill="rgb(0,0,0)" />
<circle cx="6.08112" cy="18.4839" r="0.5" fill="rgb(0,0,0)" />
<circle cx="16.2841" cy="8.66433" r="0.5" fill="rgb(0,0,0)" />
<circle cx="8.35451" cy="8.96269" r="0.5" fill="rgb(0,0,0)" />
<circle cx="0.537939" cy="1.33424" r="0.5" fill="rgb(0,0,0)" />
<circle cx="16.7376" cy="3.1676" r="0.5" fill="rgb(0,0,0)" />
<circle cx="14.1092" cy="15.8129" r="0.5" fill="rgb(0,0,0)" />
<circle cx="2.08528" cy="0.563442" r="0.5" fill="rgb(0,0,0)" />
<circle cx="0.519514" cy="17.9618" r="0.5" fill="rgb(0,0,0)" />
<circle cx="3.19897" cy="18.317" r="0.5" fill="rgb(0,0,0)" />
<circle cx="1.74334" cy="18.2336" r="0.5" fill="rgb(0,0,0)" />
<circle cx="17.7453" cy="14.9145" r="0.5" fill="rgb(0,0,0)" />
<circle cx="18.1385" cy="18.5196" r="0.5" fill="rgb(0,0,0)" />
<circle cx="16.308" cy="11.9716" r="0.5" fill="rgb(0,0,0)" />
<circle cx="18.3542" cy="17.296" r="0.5" fill="rgb(0,0,0)" />
</svg>
