<?xml version="1.0" ?>
<!DOCTYPE svg PUBLIC "-//W3C//DTD SVG 1.1//EN" "http://www.w3.org/Graphics/SVG/1.1/DTD/svg11.dtd">
<svg width="20" height="20" version="1.1" xmlns="http://www.w3.org/2000/svg">
<circle cx="12.7155" cy="0.596096" r="0.5" fill="rgb(0,0,0)" />
<circle cx="14.9413" cy="0.643651" r="0.5" fill="rgb(0,0,0)" />
<circle cx="5.18208" cy="0.606449" r="0.5" fill="rgb(0,0,0)" />
<circle cx="13.9117" cy="1.81857" r="0.5" fill="rgb(0,0,0)" />
<circle cx="5.32261" cy="2.01533" r="0.5" fill="rgb(0,0,0)" />
<circle cx="2.1245" cy="3.45272" r="0.5" fill="rgb(0,0,0)" />
<circle cx="5.59996" cy="3.64503" r="0.5" fill="rgb(0,0,0)" />
<circle cx="16.2388" cy="4.27858" r="0.5" fill="rgb(0,0,0)" />
<circle cx="8.07888" cy="4.07154" r="0.5" fill="rgb(0,0,0)" />
<circle cx="11.6877" cy="4.12868" r="0.5" fill="rgb(0,0,0)" />
<circle cx="14.8767" cy="5.25398" r="0.5" fill="rgb(0,0,0)" />
<circle cx="16.9593" cy="5.53254" r="0.5" fill="rgb(0,0,0)" />
<circle cx="8.00076" cy="0.542986" r="0.5" fill="rgb(0,0,0)" />
<circle cx="10.0069" cy="5.0341" r="0.5" fill="rgb(0,0,0)" />
<circle cx="4.43014" cy="5.42732" r="0.5" fill="rgb(0,0,0)" />
<circle cx="12.4284" cy="6.3386" r="0.5" fill="rgb(0,0,0)" />
<circle cx="6.4536" cy="6.60763" r="0.5" fill="rgb(0,0,0)" />
<circle cx="8.42734" cy="6.5103" r="0.5" fill="rgb(0,0,0)" />
<circle cx="1.99491" cy="2.06673" r="0.5" fill="rgb(0,0,0)" />
<circle cx="13.3995" cy="5.11916" r="0.5" fill="rgb(0,0,0)" />
<circle cx="16.7973" cy="7.27342" r="0.5" fill="rgb(0,0,0)" />
<circle cx="10.5784" cy="6.86373" r="0.5" fill="rgb(0,0,0)" />
<circle cx="15.1877" cy="3.94785" r="0.5" fill="rgb(0,0,0)" />
<circle cx="5.43373" cy="7.5628" r="0.5" fill="rgb(0,0,0)" />
<circle cx="17.274" cy="3.77027" r="0.5" fill="rgb(0,0,0)" />
<circle cx="12.1538" cy="8.16206" r="0.5" fill="rgb(0,0,0)" />
<circle cx="1.78127" cy="6.22322" r="0.5" fill="rgb(0,0,0)" />
<circle cx="9.49153" cy="8.53762" r="0.5" fill="rgb(0,0,0)" />
<circle cx="13.8667" cy="8.67429" r="0.5" fill="rgb(0,0,0)" />
<circle cx="2.49121" cy="9.26142" r="0.5" fill="rgb(0,0,0)" />
<circle cx="10.2724" cy="2.97681" r="0.5" fill="rgb(0,0,0)" />
<circle cx="5.03551" cy="8.9022" r="0.5" fill="rgb(0,0,0)" />
<circle cx="4.25155" cy="10.0236" r="0.5" fill="rgb(0,0,0)" />
<circle cx="8.93535" cy="10.537" r="0.5" fill="rgb(0,0,0)" />
<circle cx="14.3884" cy="3.2005" r="0.5" fill="rgb(0,0,0)" />
<circle cx="2.77021" cy="10.6446" r="0.5" fill="rgb(0,0,0)" />
<circle cx="11.3434" cy="11.0449" r="0.5" fill="rgb(0,0,0)" />
<circle cx="12.6401" cy="12.4852" r="0.5" fill="rgb(0,0,0)" />
<circle cx="13.1994" cy="3.55123" r="0.5" fill="rgb(0,0,0)" />
<circle cx="3.7992" cy="2.84188" r="0.5" fill="rgb(0,0,0)" />
<circle cx="6.44956" cy="5.02239" r="0.5" fill="rgb(0,0,0)" />
<circle cx="14.9379" cy="12.6444" r="0.5" fill="rgb(0,0,0)" />
<circle cx="3.92305" cy="12.2129" r="0.5" fill="rgb(0,0,0)" />
<circle cx="8.24299" cy="12.6899" r="0.5" fill="rgb(0,0,0)" />
<circle cx="8.93533" cy="2.04169" r="0.5" fill="rgb(0,0,0)" />
<circle cx="14.1463" cy="13.849" r="0.5" fill="rgb(0,0,0)" />
<circle cx="12.2905" cy="14.0647" r="0.5" fill="rgb(0,0,0)" />
<circle cx="10.2991" cy="12.6394" r="0.5" fill="rgb(0,0,0)" />
<circle cx="0.793424" cy="8.0316" r="0.5" fill="rgb(0,0,0)" />
<circle cx="15.1411" cy="14.9647" r="0.5" fill="rgb(0,0,0)" />
<circle cx="16.3343" cy="14.3707" r="0.5" fill="rgb(0,0,0)" />
<circle cx="0.757909" cy="9.7902" r="0.5" fill="rgb(0,0,0)" />
<circle cx="18.0414" cy="1.85489" r="0.5" fill="rgb(0,0,0)" />
<circle cx="2.6661" cy="14.5316" r="0.5" fill="rgb(0,0,0)" />
<circle cx="14.1577" cy="15.8115" r="0.5" fill="rgb(0,0,0)" />
<circle cx="15.7525" cy="6.33543" r="0.5" fill="rgb(0,0,0)" />
<circle cx="17.8778" cy="14.5923" r="0.5" fill="rgb(0,0,0)" />
<circle cx="15.4058" cy="2.39189" r="0.5" fill="rgb(0,0,0)" />
<circle cx="9.80383" cy="14.6618" r="0.5" fill="rgb(0,0,0)" />
<circle cx="5.14714" cy="15.8631" r="0.5" fill="rgb(0,0,0)" />
<circle cx="6.27179" cy="12.93" r="0.5" fill="rgb(0,0,0)" />
<circle cx="7.91428" cy="15.0266" r="0.5" fill="rgb(0,0,0)" />
<circle cx="3.52963" cy="7.05524" r="0.5" fill="rgb(0,0,0)" />
<circle cx="11.1726" cy="15.388" r="0.5" fill="rgb(0,0,0)" />
<circle cx="15.4044" cy="16.3248" r="0.5" fill="rgb(0,0,0)" />
<circle cx="18.2355" cy="3.09999" r="0.5" fill="rgb(0,0,0)" />
<circle cx="12.1838" cy="16.4923" r="0.5" fill="rgb(0,0,0)" />
<circle cx="18.3562" cy="0.596098" r="0.5" fill="rgb(0,0,0)" />
<circle cx="6.92428" cy="16.298" r="0.5" fill="rgb(0,0,0)" />
<circle cx="7.3841" cy="8.5978" r="0.5" fill="rgb(0,0,0)" />
<circle cx="13.7961" cy="17.0367" r="0.5" fill="rgb(0,0,0)" />
<circle cx="2.83764" cy="16.5772" r="0.5" fill="rgb(0,0,0)" />
<circle cx="16.571" cy="16.7487" r="0.5" fill="rgb(0,0,0)" />
<circle cx="10.4925" cy="0.776733" r="0.5" fill="rgb(0,0,0)" />
<circle cx="11.2809" cy="9.43085" r="0.5" fill="rgb(0,0,0)" />
<circle cx="5.7418" cy="17.2787" r="0.5" fill="rgb(0,0,0)" />
<circle cx="15.285" cy="17.7534" r="0.5" fill="rgb(0,0,0)" />
<circle cx="17.2044" cy="17.8714" r="0.5" fill="rgb(0,0,0)" />
<circle cx="15.7804" cy="10.062" r="0.5" fill="rgb(0,0,0)" />
<circle cx="1.5562" cy="17.5795" r="0.5" fill="rgb(0,0,0)" />
<circle cx="6.41639" cy="10.6075" r="0.5" fill="rgb(0,0,0)" />
<circle cx="4.36307" cy="17.5952" r="0.5" fill="rgb(0,0,0)" />
<circle cx="2.68896" cy="4.90496" r="0.5" fill="rgb(0,0,0)" />
<circle cx="8.6248" cy="17.4913" r="0.5" fill="rgb(0,0,0)" />
<circle cx="16.834" cy="0.627607" r="0.5" fill="rgb(0,0,0)" />
<circle cx="18.1928" cy="6.50178" r="0.5" fill="rgb(0,0,0)" />
<circle cx="4.75131" cy="14.3651" r="0.5" fill="rgb(0,0,0)" />
<circle cx="10.1494" cy="17.468" r="0.5" fill="rgb(0,0,0)" />
<circle cx="16.2148" cy="11.7651" r="0.5" fill="rgb(0,0,0)" />
<circle cx="11.7344" cy="17.9822" r="0.5" fill="rgb(0,0,0)" />
<circle cx="7.0627" cy="1.99514" r="0.5" fill="rgb(0,0,0)" />
<circle cx="12.9031" cy="18.3674" r="0.5" fill="rgb(0,0,0)" />
<circle cx="14.4458" cy="7.0553" r="0.5" fill="rgb(0,0,0)" />
<circle cx="13.74" cy="10.728" r="0.5" fill="rgb(0,0,0)" />
<circle cx="15.9743" cy="18.5152" r="0.5" fill="rgb(0,0,0)" />
<circle cx="1.1633" cy="11.486" r="0.5" fill="rgb(0,0,0)" />
<circle cx="0.49827" cy="6.32155" r="0.5" fill="rgb(0,0,0)" />
<circle cx="2.57742" cy="8.03891" r="0.5" fill="rgb(0,0,0)" />
<circle cx="18.2989" cy="4.88224" r="0.5" fill="rgb(0,0,0)" />
<circle cx="0.660304" cy="4.07069" r="0.5" fill="rgb(0,0,0)" />
<circle cx="1.03273" cy="13.2969" r="0.5" fill="rgb(0,0,0)" />
<circle cx="17.9336" cy="12.5743" r="0.5" fill="rgb(0,0,0)" />
<circle cx="17.9768" cy="10.166" r="0.5" fill="rgb(0,0,0)" />
<circle cx="18.1284" cy="8.27209" r="0.5" fill="rgb(0,0,0)" />
<circle cx="3.11025" cy="18.3844" r="0.5" fill="rgb(0,0,0)" />
<circle cx="7.64473" cy="18.3149" r="0.5" fill="rgb(0,0,0)" />
<circle cx="6.08147" cy="18.3234" r="0.5" fill="rgb(0,0,0)" />
<circle cx="18.1486" cy="15.9507" r="0.5" fill="rgb(0,0,0)" />
<circle cx="0.549935" cy="18.1456" r="0.5" fill="rgb(0,0,0)" />
<circle cx="14.1817" cy="18.2888" r="0.5" fill="rgb(0,0,0)" />
<circle cx="0.802201" cy="15.6916" r="0.5" fill="rgb(0,0,0)" />
<circle cx="16.5127" cy="2.09663" r="0.5" fill="rgb(0,0,0)" />
<circle cx="13.1979" cy="15.2616" r="0.5" fill="rgb(0,0,0)" />
<circle cx="0.643426" cy="1.15646" r="0.5" fill="rgb(0,0,0)" />
<circle cx="16.0922" cy="8.52568" r="0.5" fill="rgb(0,0,0)" />
<circle cx="2.7579" cy="0.670665" r="0.5" fill="rgb(0,0,0)" />
<circle cx="18.1548" cy="18.5125" r="0.5" fill="rgb(0,0,0)" />
<circle cx="12.1271" cy="2.09695" r="0.5" fill="rgb(0,0,0)" />
<circle cx="18.3825" cy="17.3083" r="0.5" fill="rgb(0,0,0)" />
</svg>
