<?xml version="1.0" ?>
<!DOCTYPE svg PUBLIC "-//W3C//DTD SVG 1.1//EN" "http://www.w3.org/Graphics/SVG/1.1/DTD/svg11.dtd">
<svg width="20" height="20" version="1.1" xmlns="http://www.w3.org/2000/svg">
<circle cx="16.6618" cy="0.626709" r="0.5" fill="rgb(0,0,0)" />
<circle cx="10.249" cy="0.895856" r="0.5" fill="rgb(0,0,0)" />
<circle cx="16.5646" cy="2.11459" r="0.5" fill="rgb(0,0,0)" />
<circle cx="12.1866" cy="2.14371" r="0.5" fill="rgb(0,0,0)" />
<circle cx="15.4746" cy="2.4539" r="0.5" fill="rgb(0,0,0)" />
<circle cx="14.0272" cy="2.34613" r="0.5" fill="rgb(0,0,0)" />
<circle cx="1.95566" cy="2.63829" r="0.5" fill="rgb(0,0,0)" />
<circle cx="18.0614" cy="1.85038" r="0.5" fill="rgb(0,0,0)" />
<circle cx="13.1617" cy="3.62276" r="0.5" fill="rgb(0,0,0)" />
<circle cx="9.33222" cy="2.71211" r="0.5" fill="rgb(0,0,0)" />
<circle cx="14.9446" cy="3.86199" r="0.5" fill="rgb(0,0,0)" />
<circle cx="3.33109" cy="4.73177" r="0.5" fill="rgb(0,0,0)" />
<circle cx="12.5236" cy="0.639491" r="0.5" fill="rgb(0,0,0)" />
<circle cx="8.76222" cy="4.54119" r="0.5" fill="rgb(0,0,0)" />
<circle cx="14.9485" cy="5.42469" r="0.5" fill="rgb(0,0,0)" />
<circle cx="16.9572" cy="5.56438" r="0.5" fill="rgb(0,0,0)" />
<circle cx="6.02754" cy="5.26329" r="0.5" fill="rgb(0,0,0)" />
<circle cx="6.24785" cy="3.34547" r="0.5" fill="rgb(0,0,0)" />
<circle cx="12.4228" cy="6.35296" r="0.5" fill="rgb(0,0,0)" />
<circle cx="8.07107" cy="6.49516" r="0.5" fill="rgb(0,0,0)" />
<circle cx="10.4438" cy="6.39385" r="0.5" fill="rgb(0,0,0)" />
<circle cx="14.3793" cy="7.06895" r="0.5" fill="rgb(0,0,0)" />
<circle cx="2.72716" cy="8.26993" r="0.5" fill="rgb(0,0,0)" />
<circle cx="18.2983" cy="0.594883" r="0.5" fill="rgb(0,0,0)" />
<circle cx="16.2189" cy="8.34363" r="0.5" fill="rgb(0,0,0)" />
<circle cx="9.50361" cy="8.40594" r="0.5" fill="rgb(0,0,0)" />
<circle cx="5.50629" cy="1.08536" r="0.5" fill="rgb(0,0,0)" />
<circle cx="13.9827" cy="8.78538" r="0.5" fill="rgb(0,0,0)" />
<circle cx="14.7148" cy="0.727825" r="0.5" fill="rgb(0,0,0)" />
<circle cx="4.00112" cy="2.85552" r="0.5" fill="rgb(0,0,0)" />
<circle cx="13.2908" cy="5.13058" r="0.5" fill="rgb(0,0,0)" />
<circle cx="12.0547" cy="8.09051" r="0.5" fill="rgb(0,0,0)" />
<circle cx="11.3102" cy="9.51827" r="0.5" fill="rgb(0,0,0)" />
<circle cx="4.31464" cy="10.1511" r="0.5" fill="rgb(0,0,0)" />
<circle cx="15.9032" cy="10.2366" r="0.5" fill="rgb(0,0,0)" />
<circle cx="2.64" cy="10.3344" r="0.5" fill="rgb(0,0,0)" />
<circle cx="13.6807" cy="10.732" r="0.5" fill="rgb(0,0,0)" />
<circle cx="12.6053" cy="12.4637" r="0.5" fill="rgb(0,0,0)" />
<circle cx="14.2572" cy="13.4279" r="0.5" fill="rgb(0,0,0)" />
<circle cx="17.2194" cy="3.74485" r="0.5" fill="rgb(0,0,0)" />
<circle cx="10.1488" cy="13.1028" r="0.5" fill="rgb(0,0,0)" />
<circle cx="6.28738" cy="13.0167" r="0.5" fill="rgb(0,0,0)" />
<circle cx="12.158" cy="14.1425" r="0.5" fill="rgb(0,0,0)" />
<circle cx="4.65852" cy="14.2423" r="0.5" fill="rgb(0,0,0)" />
<circle cx="13.194" cy="15.1667" r="0.5" fill="rgb(0,0,0)" />
<circle cx="18.0421" cy="6.72047" r="0.5" fill="rgb(0,0,0)" />
<circle cx="1.17424" cy="11.6202" r="0.5" fill="rgb(0,0,0)" />
<circle cx="7.37634" cy="8.61423" r="0.5" fill="rgb(0,0,0)" />
<circle cx="8.24214" cy="12.5221" r="0.5" fill="rgb(0,0,0)" />
<circle cx="14.172" cy="15.8235" r="0.5" fill="rgb(0,0,0)" />
<circle cx="15.0717" cy="14.8513" r="0.5" fill="rgb(0,0,0)" />
<circle cx="10.3544" cy="15.1276" r="0.5" fill="rgb(0,0,0)" />
<circle cx="8.14363" cy="14.9046" r="0.5" fill="rgb(0,0,0)" />
<circle cx="8.96713" cy="10.5457" r="0.5" fill="rgb(0,0,0)" />
<circle cx="5.08325" cy="15.7394" r="0.5" fill="rgb(0,0,0)" />
<circle cx="0.840885" cy="7.99275" r="0.5" fill="rgb(0,0,0)" />
<circle cx="11.904" cy="16.2776" r="0.5" fill="rgb(0,0,0)" />
<circle cx="6.99513" cy="16.1586" r="0.5" fill="rgb(0,0,0)" />
<circle cx="5.85272" cy="7.06999" r="0.5" fill="rgb(0,0,0)" />
<circle cx="13.6699" cy="17.0111" r="0.5" fill="rgb(0,0,0)" />
<circle cx="0.54097" cy="6.19461" r="0.5" fill="rgb(0,0,0)" />
<circle cx="15.5112" cy="16.2459" r="0.5" fill="rgb(0,0,0)" />
<circle cx="5.7938" cy="17.1893" r="0.5" fill="rgb(0,0,0)" />
<circle cx="2.58173" cy="16.892" r="0.5" fill="rgb(0,0,0)" />
<circle cx="15.2755" cy="17.6211" r="0.5" fill="rgb(0,0,0)" />
<circle cx="4.26728" cy="17.4738" r="0.5" fill="rgb(0,0,0)" />
<circle cx="16.384" cy="14.2618" r="0.5" fill="rgb(0,0,0)" />
<circle cx="2.62103" cy="14.6473" r="0.5" fill="rgb(0,0,0)" />
<circle cx="10.1212" cy="17.4505" r="0.5" fill="rgb(0,0,0)" />
<circle cx="17.9958" cy="14.4282" r="0.5" fill="rgb(0,0,0)" />
<circle cx="11.1736" cy="11.2529" r="0.5" fill="rgb(0,0,0)" />
<circle cx="18.2924" cy="4.98131" r="0.5" fill="rgb(0,0,0)" />
<circle cx="0.814217" cy="9.79588" r="0.5" fill="rgb(0,0,0)" />
<circle cx="18.2742" cy="3.14054" r="0.5" fill="rgb(0,0,0)" />
<circle cx="11.5663" cy="18.0223" r="0.5" fill="rgb(0,0,0)" />
<circle cx="16.1992" cy="4.3319" r="0.5" fill="rgb(0,0,0)" />
<circle cx="11.2093" cy="4.08011" r="0.5" fill="rgb(0,0,0)" />
<circle cx="17.8417" cy="12.3371" r="0.5" fill="rgb(0,0,0)" />
<circle cx="0.984573" cy="13.4709" r="0.5" fill="rgb(0,0,0)" />
<circle cx="16.047" cy="6.67132" r="0.5" fill="rgb(0,0,0)" />
<circle cx="3.88148" cy="6.68655" r="0.5" fill="rgb(0,0,0)" />
<circle cx="0.857771" cy="15.9294" r="0.5" fill="rgb(0,0,0)" />
<circle cx="12.8674" cy="18.2519" r="0.5" fill="rgb(0,0,0)" />
<circle cx="5.07473" cy="8.67663" r="0.5" fill="rgb(0,0,0)" />
<circle cx="14.2257" cy="18.3236" r="0.5" fill="rgb(0,0,0)" />
<circle cx="6.41145" cy="10.674" r="0.5" fill="rgb(0,0,0)" />
<circle cx="17.962" cy="10.2295" r="0.5" fill="rgb(0,0,0)" />
<circle cx="18.1022" cy="8.31985" r="0.5" fill="rgb(0,0,0)" />
<circle cx="18.1071" cy="16.0245" r="0.5" fill="rgb(0,0,0)" />
<circle cx="5.881" cy="18.3725" r="0.5" fill="rgb(0,0,0)" />
<circle cx="0.841038" cy="4.05692" r="0.5" fill="rgb(0,0,0)" />
<circle cx="7.62467" cy="18.2194" r="0.5" fill="rgb(0,0,0)" />
<circle cx="15.5798" cy="12.1959" r="0.5" fill="rgb(0,0,0)" />
<circle cx="0.793096" cy="1.08189" r="0.5" fill="rgb(0,0,0)" />
<circle cx="3.11618" cy="0.779832" r="0.5" fill="rgb(0,0,0)" />
<circle cx="1.9472" cy="6.14185" r="0.5" fill="rgb(0,0,0)" />
<circle cx="3.8137" cy="12.2585" r="0.5" fill="rgb(0,0,0)" />
<circle cx="2.94511" cy="18.4012" r="0.5" fill="rgb(0,0,0)" />
<circle cx="0.811155" cy="18.01" r="0.5" fill="rgb(0,0,0)" />
<circle cx="16.7608" cy="16.7657" r="0.5" fill="rgb(0,0,0)" />
<circle cx="8.70162" cy="17.4728" r="0.5" fill="rgb(0,0,0)" />
<circle cx="16.0041" cy="18.4079" r="0.5" fill="rgb(0,0,0)" />
<circle cx="7.78369" cy="1.1627" r="0.5" fill="rgb(0,0,0)" />
<circle cx="17.4124" cy="18.2836" r="0.5" fill="rgb(0,0,0)" />
<circle cx="18.3918" cy="17.7604" r="0.5" fill="rgb(0,0,0)" />
</svg>
