<?xml version="1.0" ?>
<!DOCTYPE svg PUBLIC "-//W3C//DTD SVG 1.1//EN" "http://www.w3.org/Graphics/SVG/1.1/DTD/svg11.dtd">
<svg width="20" height="20" version="1.1" xmlns="http://www.w3.org/2000/svg">
<circle cx="16.6618" cy="0.626709" r="0.5" fill="rgb(0,0,0)" />
<circle cx="14.7148" cy="0.727825" r="0.5" fill="rgb(0,0,0)" />
<circle cx="12.5238" cy="0.63944" r="0.5" fill="rgb(0,0,0)" />
<circle cx="12.1886" cy="2.14367" r="0.5" fill="rgb(0,0,0)" />
<circle cx="15.4746" cy="2.4539" r="0.5" fill="rgb(0,0,0)" />
<circle cx="7.80242" cy="1.14398" r="0.5" fill="rgb(0,0,0)" />
<circle cx="9.3394" cy="2.69732" r="0.5" fill="rgb(0,0,0)" />
<circle cx="18.0614" cy="1.85038" r="0.5" fill="rgb(0,0,0)" />
<circle cx="13.162" cy="3.62271" r="0.5" fill="rgb(0,0,0)" />
<circle cx="1.98901" cy="2.01785" r="0.5" fill="rgb(0,0,0)" />
<circle cx="14.9446" cy="3.86199" r="0.5" fill="rgb(0,0,0)" />
<circle cx="17.2194" cy="3.74485" r="0.5" fill="rgb(0,0,0)" />
<circle cx="6.29238" cy="3.28305" r="0.5" fill="rgb(0,0,0)" />
<circle cx="11.2087" cy="4.0705" r="0.5" fill="rgb(0,0,0)" />
<circle cx="3.53066" cy="4.88233" r="0.5" fill="rgb(0,0,0)" />
<circle cx="14.9485" cy="5.42459" r="0.5" fill="rgb(0,0,0)" />
<circle cx="1.9454" cy="6.11335" r="0.5" fill="rgb(0,0,0)" />
<circle cx="6.46007" cy="6.54002" r="0.5" fill="rgb(0,0,0)" />
<circle cx="2.72651" cy="8.271" r="0.5" fill="rgb(0,0,0)" />
<circle cx="18.2983" cy="0.594883" r="0.5" fill="rgb(0,0,0)" />
<circle cx="12.4464" cy="6.36694" r="0.5" fill="rgb(0,0,0)" />
<circle cx="16.2188" cy="8.34363" r="0.5" fill="rgb(0,0,0)" />
<circle cx="13.9816" cy="8.78518" r="0.5" fill="rgb(0,0,0)" />
<circle cx="5.09128" cy="8.89111" r="0.5" fill="rgb(0,0,0)" />
<circle cx="7.38099" cy="8.61619" r="0.5" fill="rgb(0,0,0)" />
<circle cx="18.0421" cy="6.72047" r="0.5" fill="rgb(0,0,0)" />
<circle cx="4.28142" cy="10.1854" r="0.5" fill="rgb(0,0,0)" />
<circle cx="11.3136" cy="9.5234" r="0.5" fill="rgb(0,0,0)" />
<circle cx="8.97005" cy="10.5479" r="0.5" fill="rgb(0,0,0)" />
<circle cx="16.5646" cy="2.11459" r="0.5" fill="rgb(0,0,0)" />
<circle cx="11.176" cy="11.2509" r="0.5" fill="rgb(0,0,0)" />
<circle cx="6.04883" cy="5.03038" r="0.5" fill="rgb(0,0,0)" />
<circle cx="6.43101" cy="10.6679" r="0.5" fill="rgb(0,0,0)" />
<circle cx="12.6053" cy="12.4637" r="0.5" fill="rgb(0,0,0)" />
<circle cx="10.2468" cy="0.896143" r="0.5" fill="rgb(0,0,0)" />
<circle cx="15.5798" cy="12.1959" r="0.5" fill="rgb(0,0,0)" />
<circle cx="5.36174" cy="7.46579" r="0.5" fill="rgb(0,0,0)" />
<circle cx="8.24111" cy="12.5234" r="0.5" fill="rgb(0,0,0)" />
<circle cx="14.2572" cy="13.4279" r="0.5" fill="rgb(0,0,0)" />
<circle cx="16.9572" cy="5.56438" r="0.5" fill="rgb(0,0,0)" />
<circle cx="8.35091" cy="6.48088" r="0.5" fill="rgb(0,0,0)" />
<circle cx="6.28756" cy="13.0137" r="0.5" fill="rgb(0,0,0)" />
<circle cx="12.158" cy="14.1425" r="0.5" fill="rgb(0,0,0)" />
<circle cx="4.65883" cy="14.2427" r="0.5" fill="rgb(0,0,0)" />
<circle cx="5.53183" cy="1.06343" r="0.5" fill="rgb(0,0,0)" />
<circle cx="13.194" cy="15.1667" r="0.5" fill="rgb(0,0,0)" />
<circle cx="12.0577" cy="8.08457" r="0.5" fill="rgb(0,0,0)" />
<circle cx="10.149" cy="13.104" r="0.5" fill="rgb(0,0,0)" />
<circle cx="1.17703" cy="11.6145" r="0.5" fill="rgb(0,0,0)" />
<circle cx="2.62103" cy="14.6476" r="0.5" fill="rgb(0,0,0)" />
<circle cx="14.172" cy="15.8235" r="0.5" fill="rgb(0,0,0)" />
<circle cx="15.0717" cy="14.8513" r="0.5" fill="rgb(0,0,0)" />
<circle cx="10.3544" cy="15.1277" r="0.5" fill="rgb(0,0,0)" />
<circle cx="3.83063" cy="6.71862" r="0.5" fill="rgb(0,0,0)" />
<circle cx="8.14353" cy="14.9047" r="0.5" fill="rgb(0,0,0)" />
<circle cx="14.3815" cy="7.06922" r="0.5" fill="rgb(0,0,0)" />
<circle cx="5.08329" cy="15.7393" r="0.5" fill="rgb(0,0,0)" />
<circle cx="0.815683" cy="9.79656" r="0.5" fill="rgb(0,0,0)" />
<circle cx="13.2874" cy="5.13052" r="0.5" fill="rgb(0,0,0)" />
<circle cx="11.904" cy="16.2776" r="0.5" fill="rgb(0,0,0)" />
<circle cx="6.99513" cy="16.1585" r="0.5" fill="rgb(0,0,0)" />
<circle cx="13.6699" cy="17.0111" r="0.5" fill="rgb(0,0,0)" />
<circle cx="15.5112" cy="16.2459" r="0.5" fill="rgb(0,0,0)" />
<circle cx="5.7938" cy="17.1893" r="0.5" fill="rgb(0,0,0)" />
<circle cx="2.58173" cy="16.892" r="0.5" fill="rgb(0,0,0)" />
<circle cx="15.2755" cy="17.6211" r="0.5" fill="rgb(0,0,0)" />
<circle cx="4.26728" cy="17.4738" r="0.5" fill="rgb(0,0,0)" />
<circle cx="16.384" cy="14.2618" r="0.5" fill="rgb(0,0,0)" />
<circle cx="10.1212" cy="17.4505" r="0.5" fill="rgb(0,0,0)" />
<circle cx="17.9958" cy="14.4282" r="0.5" fill="rgb(0,0,0)" />
<circle cx="4.04649" cy="2.8264" r="0.5" fill="rgb(0,0,0)" />
<circle cx="18.2924" cy="4.98131" r="0.5" fill="rgb(0,0,0)" />
<circle cx="11.5663" cy="18.0223" r="0.5" fill="rgb(0,0,0)" />
<circle cx="16.1992" cy="4.3319" r="0.5" fill="rgb(0,0,0)" />
<circle cx="17.8417" cy="12.3371" r="0.5" fill="rgb(0,0,0)" />
<circle cx="0.984385" cy="13.4709" r="0.5" fill="rgb(0,0,0)" />
<circle cx="16.0471" cy="6.67129" r="0.5" fill="rgb(0,0,0)" />
<circle cx="0.857769" cy="15.9294" r="0.5" fill="rgb(0,0,0)" />
<circle cx="12.8674" cy="18.2519" r="0.5" fill="rgb(0,0,0)" />
<circle cx="2.63326" cy="10.3421" r="0.5" fill="rgb(0,0,0)" />
<circle cx="14.2257" cy="18.3236" r="0.5" fill="rgb(0,0,0)" />
<circle cx="17.962" cy="10.2295" r="0.5" fill="rgb(0,0,0)" />
<circle cx="18.1022" cy="8.31985" r="0.5" fill="rgb(0,0,0)" />
<circle cx="0.54236" cy="6.24351" r="0.5" fill="rgb(0,0,0)" />
<circle cx="18.2742" cy="3.14054" r="0.5" fill="rgb(0,0,0)" />
<circle cx="0.666423" cy="4.03266" r="0.5" fill="rgb(0,0,0)" />
<circle cx="2.14824" cy="3.63958" r="0.5" fill="rgb(0,0,0)" />
<circle cx="18.1071" cy="16.0245" r="0.5" fill="rgb(0,0,0)" />
<circle cx="3.81399" cy="12.2666" r="0.5" fill="rgb(0,0,0)" />
<circle cx="5.881" cy="18.3725" r="0.5" fill="rgb(0,0,0)" />
<circle cx="7.62467" cy="18.2194" r="0.5" fill="rgb(0,0,0)" />
<circle cx="15.9033" cy="10.2366" r="0.5" fill="rgb(0,0,0)" />
<circle cx="0.722124" cy="1.05819" r="0.5" fill="rgb(0,0,0)" />
<circle cx="14.0273" cy="2.34609" r="0.5" fill="rgb(0,0,0)" />
<circle cx="3.22437" cy="0.708236" r="0.5" fill="rgb(0,0,0)" />
<circle cx="13.681" cy="10.7323" r="0.5" fill="rgb(0,0,0)" />
<circle cx="2.94511" cy="18.4012" r="0.5" fill="rgb(0,0,0)" />
<circle cx="10.5121" cy="6.36934" r="0.5" fill="rgb(0,0,0)" />
<circle cx="0.811155" cy="18.01" r="0.5" fill="rgb(0,0,0)" />
<circle cx="0.844205" cy="8.00047" r="0.5" fill="rgb(0,0,0)" />
<circle cx="16.7608" cy="16.7657" r="0.5" fill="rgb(0,0,0)" />
<circle cx="8.70162" cy="17.4728" r="0.5" fill="rgb(0,0,0)" />
<circle cx="16.0041" cy="18.4079" r="0.5" fill="rgb(0,0,0)" />
<circle cx="9.52131" cy="8.42553" r="0.5" fill="rgb(0,0,0)" />
<circle cx="17.4124" cy="18.2836" r="0.5" fill="rgb(0,0,0)" />
<circle cx="8.74403" cy="4.49229" r="0.5" fill="rgb(0,0,0)" />
<circle cx="18.3918" cy="17.7604" r="0.5" fill="rgb(0,0,0)" />
</svg>
