<?xml version="1.0" ?>
<!DOCTYPE svg PUBLIC "-//W3C//DTD SVG 1.1//EN" "http://www.w3.org/Graphics/SVG/1.1/DTD/svg11.dtd">
<svg width="20" height="20" version="1.1" xmlns="http://www.w3.org/2000/svg">
<circle cx="12.8475" cy="0.488453" r="0.5" fill="rgb(0,0,0)" />
<circle cx="15.4082" cy="0.498577" r="0.5" fill="rgb(0,0,0)" />
<circle cx="7.83365" cy="0.583502" r="0.5" fill="rgb(0,0,0)" />
<circle cx="5.6574" cy="1.4644" r="0.5" fill="rgb(0,0,0)" />
<circle cx="6.95277" cy="1.30904" r="0.5" fill="rgb(0,0,0)" />
<circle cx="16.2905" cy="1.77997" r="0.5" fill="rgb(0,0,0)" />
<circle cx="2.00731" cy="2.04855" r="0.5" fill="rgb(0,0,0)" />
<circle cx="4.88069" cy="2.73801" r="0.5" fill="rgb(0,0,0)" />
<circle cx="18.4146" cy="0.597556" r="0.5" fill="rgb(0,0,0)" />
<circle cx="11.6638" cy="2.58697" r="0.5" fill="rgb(0,0,0)" />
<circle cx="14.4419" cy="3.11364" r="0.5" fill="rgb(0,0,0)" />
<circle cx="16.7865" cy="3.24581" r="0.5" fill="rgb(0,0,0)" />
<circle cx="7.13942" cy="3.31207" r="0.5" fill="rgb(0,0,0)" />
<circle cx="12.3453" cy="1.57614" r="0.5" fill="rgb(0,0,0)" />
<circle cx="13.2369" cy="3.68653" r="0.5" fill="rgb(0,0,0)" />
<circle cx="13.0338" cy="2.55951" r="0.5" fill="rgb(0,0,0)" />
<circle cx="16.2385" cy="4.42533" r="0.5" fill="rgb(0,0,0)" />
<circle cx="14.3263" cy="1.00297" r="0.5" fill="rgb(0,0,0)" />
<circle cx="11.9398" cy="4.07036" r="0.5" fill="rgb(0,0,0)" />
<circle cx="6.44356" cy="4.76355" r="0.5" fill="rgb(0,0,0)" />
<circle cx="13.9871" cy="4.49646" r="0.5" fill="rgb(0,0,0)" />
<circle cx="7.90045" cy="4.75515" r="0.5" fill="rgb(0,0,0)" />
<circle cx="5.32415" cy="4.75149" r="0.5" fill="rgb(0,0,0)" />
<circle cx="16.8599" cy="5.32423" r="0.5" fill="rgb(0,0,0)" />
<circle cx="6.45514" cy="5.65554" r="0.5" fill="rgb(0,0,0)" />
<circle cx="10.7996" cy="4.85045" r="0.5" fill="rgb(0,0,0)" />
<circle cx="2.53569" cy="4.95751" r="0.5" fill="rgb(0,0,0)" />
<circle cx="12.3683" cy="5.51505" r="0.5" fill="rgb(0,0,0)" />
<circle cx="14.1603" cy="5.70761" r="0.5" fill="rgb(0,0,0)" />
<circle cx="15.6751" cy="6.03074" r="0.5" fill="rgb(0,0,0)" />
<circle cx="1.86337" cy="6.06309" r="0.5" fill="rgb(0,0,0)" />
<circle cx="17.0591" cy="6.36002" r="0.5" fill="rgb(0,0,0)" />
<circle cx="5.57843" cy="6.32608" r="0.5" fill="rgb(0,0,0)" />
<circle cx="6.65016" cy="6.83733" r="0.5" fill="rgb(0,0,0)" />
<circle cx="10.9551" cy="0.740806" r="0.5" fill="rgb(0,0,0)" />
<circle cx="10.2764" cy="6.87937" r="0.5" fill="rgb(0,0,0)" />
<circle cx="4.18405" cy="6.70236" r="0.5" fill="rgb(0,0,0)" />
<circle cx="5.95388" cy="0.418452" r="0.5" fill="rgb(0,0,0)" />
<circle cx="12.7859" cy="7.00258" r="0.5" fill="rgb(0,0,0)" />
<circle cx="3.08661" cy="7.0959" r="0.5" fill="rgb(0,0,0)" />
<circle cx="14.3282" cy="7.08735" r="0.5" fill="rgb(0,0,0)" />
<circle cx="15.669" cy="7.27401" r="0.5" fill="rgb(0,0,0)" />
<circle cx="8.00439" cy="7.10105" r="0.5" fill="rgb(0,0,0)" />
<circle cx="4.92049" cy="7.6134" r="0.5" fill="rgb(0,0,0)" />
<circle cx="1.21708" cy="7.98244" r="0.5" fill="rgb(0,0,0)" />
<circle cx="7.51673" cy="8.09713" r="0.5" fill="rgb(0,0,0)" />
<circle cx="17.0364" cy="7.69229" r="0.5" fill="rgb(0,0,0)" />
<circle cx="15.4188" cy="2.49664" r="0.5" fill="rgb(0,0,0)" />
<circle cx="2.02396" cy="3.51659" r="0.5" fill="rgb(0,0,0)" />
<circle cx="10.295" cy="8.40666" r="0.5" fill="rgb(0,0,0)" />
<circle cx="9.1031" cy="6.77491" r="0.5" fill="rgb(0,0,0)" />
<circle cx="3.85643" cy="8.60977" r="0.5" fill="rgb(0,0,0)" />
<circle cx="6.03038" cy="8.68632" r="0.5" fill="rgb(0,0,0)" />
<circle cx="7.1425" cy="9.17773" r="0.5" fill="rgb(0,0,0)" />
<circle cx="5.01453" cy="9.10584" r="0.5" fill="rgb(0,0,0)" />
<circle cx="15.1217" cy="8.67532" r="0.5" fill="rgb(0,0,0)" />
<circle cx="3.17025" cy="3.11462" r="0.5" fill="rgb(0,0,0)" />
<circle cx="9.09868" cy="5.67169" r="0.5" fill="rgb(0,0,0)" />
<circle cx="13.5663" cy="8.4144" r="0.5" fill="rgb(0,0,0)" />
<circle cx="12.1834" cy="8.45779" r="0.5" fill="rgb(0,0,0)" />
<circle cx="9.06886" cy="7.98536" r="0.5" fill="rgb(0,0,0)" />
<circle cx="3.70248" cy="9.66086" r="0.5" fill="rgb(0,0,0)" />
<circle cx="2.8367" cy="9.75067" r="0.5" fill="rgb(0,0,0)" />
<circle cx="15.3319" cy="3.85337" r="0.5" fill="rgb(0,0,0)" />
<circle cx="9.71856" cy="9.49235" r="0.5" fill="rgb(0,0,0)" />
<circle cx="5.91218" cy="2.42599" r="0.5" fill="rgb(0,0,0)" />
<circle cx="14.2535" cy="9.61311" r="0.5" fill="rgb(0,0,0)" />
<circle cx="8.58642" cy="3.80626" r="0.5" fill="rgb(0,0,0)" />
<circle cx="4.73267" cy="10.3366" r="0.5" fill="rgb(0,0,0)" />
<circle cx="11.395" cy="9.36826" r="0.5" fill="rgb(0,0,0)" />
<circle cx="1.89815" cy="10.3022" r="0.5" fill="rgb(0,0,0)" />
<circle cx="7.64524" cy="10.3621" r="0.5" fill="rgb(0,0,0)" />
<circle cx="4.15823" cy="5.47923" r="0.5" fill="rgb(0,0,0)" />
<circle cx="9.06376" cy="10.5668" r="0.5" fill="rgb(0,0,0)" />
<circle cx="3.23311" cy="10.7189" r="0.5" fill="rgb(0,0,0)" />
<circle cx="6.21516" cy="10.4856" r="0.5" fill="rgb(0,0,0)" />
<circle cx="13.5461" cy="10.6935" r="0.5" fill="rgb(0,0,0)" />
<circle cx="12.2692" cy="10.7853" r="0.5" fill="rgb(0,0,0)" />
<circle cx="4.50795" cy="11.6668" r="0.5" fill="rgb(0,0,0)" />
<circle cx="16.228" cy="12.0019" r="0.5" fill="rgb(0,0,0)" />
<circle cx="7.72758" cy="12.004" r="0.5" fill="rgb(0,0,0)" />
<circle cx="14.8019" cy="12.4662" r="0.5" fill="rgb(0,0,0)" />
<circle cx="2.65685" cy="12.0989" r="0.5" fill="rgb(0,0,0)" />
<circle cx="10.2936" cy="12.3185" r="0.5" fill="rgb(0,0,0)" />
<circle cx="15.0781" cy="13.4588" r="0.5" fill="rgb(0,0,0)" />
<circle cx="12.1195" cy="12.7941" r="0.5" fill="rgb(0,0,0)" />
<circle cx="10.5422" cy="13.4095" r="0.5" fill="rgb(0,0,0)" />
<circle cx="4.25601" cy="13.2346" r="0.5" fill="rgb(0,0,0)" />
<circle cx="16.5335" cy="13.5758" r="0.5" fill="rgb(0,0,0)" />
<circle cx="6.49215" cy="7.68046" r="0.5" fill="rgb(0,0,0)" />
<circle cx="14.3315" cy="14.213" r="0.5" fill="rgb(0,0,0)" />
<circle cx="10.489" cy="2.40788" r="0.5" fill="rgb(0,0,0)" />
<circle cx="16.4182" cy="10.234" r="0.5" fill="rgb(0,0,0)" />
<circle cx="2.00421" cy="13.8454" r="0.5" fill="rgb(0,0,0)" />
<circle cx="11.3253" cy="6.96649" r="0.5" fill="rgb(0,0,0)" />
<circle cx="15.5546" cy="14.4775" r="0.5" fill="rgb(0,0,0)" />
<circle cx="6.27702" cy="3.64647" r="0.5" fill="rgb(0,0,0)" />
<circle cx="3.51681" cy="14.4538" r="0.5" fill="rgb(0,0,0)" />
<circle cx="8.94783" cy="14.5741" r="0.5" fill="rgb(0,0,0)" />
<circle cx="15.033" cy="15.3312" r="0.5" fill="rgb(0,0,0)" />
<circle cx="4.992" cy="15.0091" r="0.5" fill="rgb(0,0,0)" />
<circle cx="3.85645" cy="1.92344" r="0.5" fill="rgb(0,0,0)" />
<circle cx="13.2591" cy="15.2669" r="0.5" fill="rgb(0,0,0)" />
<circle cx="10.5409" cy="14.8161" r="0.5" fill="rgb(0,0,0)" />
<circle cx="10.032" cy="5.31069" r="0.5" fill="rgb(0,0,0)" />
<circle cx="7.34238" cy="15.5486" r="0.5" fill="rgb(0,0,0)" />
<circle cx="14.1301" cy="15.7969" r="0.5" fill="rgb(0,0,0)" />
<circle cx="13.9877" cy="2.05212" r="0.5" fill="rgb(0,0,0)" />
<circle cx="10.3903" cy="3.79877" r="0.5" fill="rgb(0,0,0)" />
<circle cx="16.3569" cy="15.4323" r="0.5" fill="rgb(0,0,0)" />
<circle cx="5.78981" cy="15.8929" r="0.5" fill="rgb(0,0,0)" />
<circle cx="0.672704" cy="5.17824" r="0.5" fill="rgb(0,0,0)" />
<circle cx="4.25624" cy="0.635748" r="0.5" fill="rgb(0,0,0)" />
<circle cx="2.55656" cy="9.18975" r="0.5" fill="rgb(0,0,0)" />
<circle cx="4.22714" cy="15.8676" r="0.5" fill="rgb(0,0,0)" />
<circle cx="6.63106" cy="16.4866" r="0.5" fill="rgb(0,0,0)" />
<circle cx="1.90614" cy="16.358" r="0.5" fill="rgb(0,0,0)" />
<circle cx="3.27008" cy="16.066" r="0.5" fill="rgb(0,0,0)" />
<circle cx="7.60891" cy="6.01661" r="0.5" fill="rgb(0,0,0)" />
<circle cx="9.27637" cy="16.0607" r="0.5" fill="rgb(0,0,0)" />
<circle cx="15.1783" cy="16.5447" r="0.5" fill="rgb(0,0,0)" />
<circle cx="12.3506" cy="14.2623" r="0.5" fill="rgb(0,0,0)" />
<circle cx="4.54128" cy="16.8514" r="0.5" fill="rgb(0,0,0)" />
<circle cx="18.0029" cy="1.87948" r="0.5" fill="rgb(0,0,0)" />
<circle cx="1.64821" cy="7.14186" r="0.5" fill="rgb(0,0,0)" />
<circle cx="9.06644" cy="12.2392" r="0.5" fill="rgb(0,0,0)" />
<circle cx="12.552" cy="16.3297" r="0.5" fill="rgb(0,0,0)" />
<circle cx="14.1162" cy="17.0074" r="0.5" fill="rgb(0,0,0)" />
<circle cx="2.217" cy="15.3336" r="0.5" fill="rgb(0,0,0)" />
<circle cx="1.36786" cy="17.1549" r="0.5" fill="rgb(0,0,0)" />
<circle cx="17.0813" cy="0.618823" r="0.5" fill="rgb(0,0,0)" />
<circle cx="16.3569" cy="16.8773" r="0.5" fill="rgb(0,0,0)" />
<circle cx="10.9528" cy="16.6643" r="0.5" fill="rgb(0,0,0)" />
<circle cx="4.06052" cy="3.55279" r="0.5" fill="rgb(0,0,0)" />
<circle cx="10.7782" cy="10.9337" r="0.5" fill="rgb(0,0,0)" />
<circle cx="17.6609" cy="17.15" r="0.5" fill="rgb(0,0,0)" />
<circle cx="7.80266" cy="16.9531" r="0.5" fill="rgb(0,0,0)" />
<circle cx="5.65008" cy="17.3065" r="0.5" fill="rgb(0,0,0)" />
<circle cx="9.36354" cy="0.572683" r="0.5" fill="rgb(0,0,0)" />
<circle cx="12.9109" cy="17.4393" r="0.5" fill="rgb(0,0,0)" />
<circle cx="2.89147" cy="17.3463" r="0.5" fill="rgb(0,0,0)" />
<circle cx="1.69855" cy="17.8702" r="0.5" fill="rgb(0,0,0)" />
<circle cx="9.08563" cy="17.3462" r="0.5" fill="rgb(0,0,0)" />
<circle cx="15.4758" cy="17.8748" r="0.5" fill="rgb(0,0,0)" />
<circle cx="6.75388" cy="17.7304" r="0.5" fill="rgb(0,0,0)" />
<circle cx="8.2476" cy="18.0234" r="0.5" fill="rgb(0,0,0)" />
<circle cx="18.2978" cy="3.08627" r="0.5" fill="rgb(0,0,0)" />
<circle cx="14.2809" cy="18.0647" r="0.5" fill="rgb(0,0,0)" />
<circle cx="0.653271" cy="3.5153" r="0.5" fill="rgb(0,0,0)" />
<circle cx="17.577" cy="15.0618" r="0.5" fill="rgb(0,0,0)" />
<circle cx="4.5041" cy="18.0897" r="0.5" fill="rgb(0,0,0)" />
<circle cx="9.36874" cy="3.10328" r="0.5" fill="rgb(0,0,0)" />
<circle cx="17.9639" cy="11.472" r="0.5" fill="rgb(0,0,0)" />
<circle cx="16.722" cy="18.2116" r="0.5" fill="rgb(0,0,0)" />
<circle cx="16.5785" cy="8.74462" r="0.5" fill="rgb(0,0,0)" />
<circle cx="18.0895" cy="9.5851" r="0.5" fill="rgb(0,0,0)" />
<circle cx="18.3604" cy="8.13647" r="0.5" fill="rgb(0,0,0)" />
<circle cx="18.387" cy="6.00121" r="0.5" fill="rgb(0,0,0)" />
<circle cx="18.1781" cy="7.00535" r="0.5" fill="rgb(0,0,0)" />
<circle cx="0.95623" cy="11.2889" r="0.5" fill="rgb(0,0,0)" />
<circle cx="18.4069" cy="4.8248" r="0.5" fill="rgb(0,0,0)" />
<circle cx="10.0345" cy="18.1367" r="0.5" fill="rgb(0,0,0)" />
<circle cx="18.0733" cy="13.3899" r="0.5" fill="rgb(0,0,0)" />
<circle cx="17.5801" cy="4.27713" r="0.5" fill="rgb(0,0,0)" />
<circle cx="0.621357" cy="14.9024" r="0.5" fill="rgb(0,0,0)" />
<circle cx="0.502137" cy="16.6019" r="0.5" fill="rgb(0,0,0)" />
<circle cx="5.23172" cy="3.66857" r="0.5" fill="rgb(0,0,0)" />
<circle cx="6.01025" cy="14.0518" r="0.5" fill="rgb(0,0,0)" />
<circle cx="0.462179" cy="6.80314" r="0.5" fill="rgb(0,0,0)" />
<circle cx="0.465606" cy="10.0917" r="0.5" fill="rgb(0,0,0)" />
<circle cx="3.9476" cy="4.48144" r="0.5" fill="rgb(0,0,0)" />
<circle cx="11.6516" cy="15.2146" r="0.5" fill="rgb(0,0,0)" />
<circle cx="0.737998" cy="12.8239" r="0.5" fill="rgb(0,0,0)" />
<circle cx="0.431122" cy="8.63228" r="0.5" fill="rgb(0,0,0)" />
<circle cx="7.72859" cy="13.8437" r="0.5" fill="rgb(0,0,0)" />
<circle cx="11.5938" cy="18.1685" r="0.5" fill="rgb(0,0,0)" />
<circle cx="2.59924" cy="8.21477" r="0.5" fill="rgb(0,0,0)" />
<circle cx="18.391" cy="15.7829" r="0.5" fill="rgb(0,0,0)" />
<circle cx="15.1737" cy="18.6533" r="0.5" fill="rgb(0,0,0)" />
<circle cx="13.1884" cy="18.4919" r="0.5" fill="rgb(0,0,0)" />
<circle cx="3.31763" cy="18.4352" r="0.5" fill="rgb(0,0,0)" />
<circle cx="6.14615" cy="12.3586" r="0.5" fill="rgb(0,0,0)" />
<circle cx="8.05298" cy="18.6407" r="0.5" fill="rgb(0,0,0)" />
<circle cx="13.4769" cy="12.397" r="0.5" fill="rgb(0,0,0)" />
<circle cx="6.0512" cy="18.5083" r="0.5" fill="rgb(0,0,0)" />
<circle cx="7.78539" cy="2.32523" r="0.5" fill="rgb(0,0,0)" />
<circle cx="1.4886" cy="9.14322" r="0.5" fill="rgb(0,0,0)" />
<circle cx="0.550387" cy="1.29744" r="0.5" fill="rgb(0,0,0)" />
<circle cx="8.4285" cy="9.04595" r="0.5" fill="rgb(0,0,0)" />
<circle cx="15.0062" cy="11.041" r="0.5" fill="rgb(0,0,0)" />
<circle cx="2.1144" cy="0.581765" r="0.5" fill="rgb(0,0,0)" />
<circle cx="1.65358" cy="18.605" r="0.5" fill="rgb(0,0,0)" />
<circle cx="0.429356" cy="18.1739" r="0.5" fill="rgb(0,0,0)" />
<circle cx="17.7734" cy="18.582" r="0.5" fill="rgb(0,0,0)" />
<circle cx="15.2801" cy="5.07411" r="0.5" fill="rgb(0,0,0)" />
<circle cx="13.4252" cy="13.9409" r="0.5" fill="rgb(0,0,0)" />
<circle cx="18.5061" cy="18.3492" r="0.5" fill="rgb(0,0,0)" />
<circle cx="9.20821" cy="1.82979" r="0.5" fill="rgb(0,0,0)" />
<circle cx="18.6052" cy="17.3289" r="0.5" fill="rgb(0,0,0)" />
</svg>
