<?xml version="1.0" ?>
<!DOCTYPE svg PUBLIC "-//W3C//DTD SVG 1.1//EN" "http://www.w3.org/Graphics/SVG/1.1/DTD/svg11.dtd">
<svg width="20" height="20" version="1.1" xmlns="http://www.w3.org/2000/svg">
<circle cx="6.07731" cy="0.411956" r="0.5" fill="rgb(0,0,0)" />
<circle cx="12.7977" cy="0.558512" r="0.5" fill="rgb(0,0,0)" />
<circle cx="8.3138" cy="0.534982" r="0.5" fill="rgb(0,0,0)" />
<circle cx="5.53636" cy="1.44606" r="0.5" fill="rgb(0,0,0)" />
<circle cx="10.5317" cy="0.702526" r="0.5" fill="rgb(0,0,0)" />
<circle cx="14.023" cy="1.70415" r="0.5" fill="rgb(0,0,0)" />
<circle cx="6.08222" cy="2.49586" r="0.5" fill="rgb(0,0,0)" />
<circle cx="15.3996" cy="2.44337" r="0.5" fill="rgb(0,0,0)" />
<circle cx="12.8936" cy="2.58069" r="0.5" fill="rgb(0,0,0)" />
<circle cx="4.86413" cy="2.74099" r="0.5" fill="rgb(0,0,0)" />
<circle cx="7.90652" cy="2.76421" r="0.5" fill="rgb(0,0,0)" />
<circle cx="3.09956" cy="3.10427" r="0.5" fill="rgb(0,0,0)" />
<circle cx="10.2502" cy="2.99296" r="0.5" fill="rgb(0,0,0)" />
<circle cx="3.93351" cy="3.76883" r="0.5" fill="rgb(0,0,0)" />
<circle cx="15.1603" cy="3.94062" r="0.5" fill="rgb(0,0,0)" />
<circle cx="6.71574" cy="3.63055" r="0.5" fill="rgb(0,0,0)" />
<circle cx="13.2553" cy="3.79686" r="0.5" fill="rgb(0,0,0)" />
<circle cx="1.80093" cy="3.44178" r="0.5" fill="rgb(0,0,0)" />
<circle cx="17.5394" cy="4.26171" r="0.5" fill="rgb(0,0,0)" />
<circle cx="9.16053" cy="1.84062" r="0.5" fill="rgb(0,0,0)" />
<circle cx="16.1939" cy="4.54224" r="0.5" fill="rgb(0,0,0)" />
<circle cx="4.32074" cy="4.81537" r="0.5" fill="rgb(0,0,0)" />
<circle cx="11.7043" cy="4.15844" r="0.5" fill="rgb(0,0,0)" />
<circle cx="8.39533" cy="4.40184" r="0.5" fill="rgb(0,0,0)" />
<circle cx="10.1122" cy="4.92935" r="0.5" fill="rgb(0,0,0)" />
<circle cx="14.784" cy="5.23218" r="0.5" fill="rgb(0,0,0)" />
<circle cx="13.3614" cy="5.0983" r="0.5" fill="rgb(0,0,0)" />
<circle cx="5.81949" cy="5.76308" r="0.5" fill="rgb(0,0,0)" />
<circle cx="1.67105" cy="5.75049" r="0.5" fill="rgb(0,0,0)" />
<circle cx="17.9325" cy="6.77926" r="0.5" fill="rgb(0,0,0)" />
<circle cx="4.29181" cy="6.1432" r="0.5" fill="rgb(0,0,0)" />
<circle cx="8.38021" cy="6.6395" r="0.5" fill="rgb(0,0,0)" />
<circle cx="12.6139" cy="6.34388" r="0.5" fill="rgb(0,0,0)" />
<circle cx="14.1168" cy="6.81214" r="0.5" fill="rgb(0,0,0)" />
<circle cx="1.7292" cy="7.12916" r="0.5" fill="rgb(0,0,0)" />
<circle cx="1.96414" cy="2.05073" r="0.5" fill="rgb(0,0,0)" />
<circle cx="11.2952" cy="6.58841" r="0.5" fill="rgb(0,0,0)" />
<circle cx="3.43277" cy="7.06041" r="0.5" fill="rgb(0,0,0)" />
<circle cx="15.4454" cy="7.48063" r="0.5" fill="rgb(0,0,0)" />
<circle cx="16.8806" cy="0.582347" r="0.5" fill="rgb(0,0,0)" />
<circle cx="9.05076" cy="7.86575" r="0.5" fill="rgb(0,0,0)" />
<circle cx="6.33417" cy="7.56669" r="0.5" fill="rgb(0,0,0)" />
<circle cx="5.15335" cy="7.91226" r="0.5" fill="rgb(0,0,0)" />
<circle cx="7.15403" cy="1.36183" r="0.5" fill="rgb(0,0,0)" />
<circle cx="7.1993" cy="8.22019" r="0.5" fill="rgb(0,0,0)" />
<circle cx="5.24164" cy="9.09959" r="0.5" fill="rgb(0,0,0)" />
<circle cx="8.38179" cy="9.02481" r="0.5" fill="rgb(0,0,0)" />
<circle cx="13.9672" cy="8.61401" r="0.5" fill="rgb(0,0,0)" />
<circle cx="11.6451" cy="9.51958" r="0.5" fill="rgb(0,0,0)" />
<circle cx="9.84436" cy="9.60372" r="0.5" fill="rgb(0,0,0)" />
<circle cx="1.58496" cy="9.92027" r="0.5" fill="rgb(0,0,0)" />
<circle cx="15.8331" cy="9.94468" r="0.5" fill="rgb(0,0,0)" />
<circle cx="15.7186" cy="6.05873" r="0.5" fill="rgb(0,0,0)" />
<circle cx="7.47428" cy="10.0752" r="0.5" fill="rgb(0,0,0)" />
<circle cx="4.67677" cy="10.4171" r="0.5" fill="rgb(0,0,0)" />
<circle cx="9.09093" cy="10.711" r="0.5" fill="rgb(0,0,0)" />
<circle cx="3.0668" cy="10.9172" r="0.5" fill="rgb(0,0,0)" />
<circle cx="6.25441" cy="10.4593" r="0.5" fill="rgb(0,0,0)" />
<circle cx="14.9159" cy="11.0434" r="0.5" fill="rgb(0,0,0)" />
<circle cx="10.4118" cy="12.0134" r="0.5" fill="rgb(0,0,0)" />
<circle cx="14.9441" cy="0.6037" r="0.5" fill="rgb(0,0,0)" />
<circle cx="14.3203" cy="12.4125" r="0.5" fill="rgb(0,0,0)" />
<circle cx="12.5748" cy="12.4448" r="0.5" fill="rgb(0,0,0)" />
<circle cx="4.54502" cy="12.0531" r="0.5" fill="rgb(0,0,0)" />
<circle cx="2.70346" cy="12.5044" r="0.5" fill="rgb(0,0,0)" />
<circle cx="7.71617" cy="12.2291" r="0.5" fill="rgb(0,0,0)" />
<circle cx="5.93126" cy="6.70674" r="0.5" fill="rgb(0,0,0)" />
<circle cx="2.35975" cy="9.08123" r="0.5" fill="rgb(0,0,0)" />
<circle cx="15.6594" cy="13.2787" r="0.5" fill="rgb(0,0,0)" />
<circle cx="5.33771" cy="3.97458" r="0.5" fill="rgb(0,0,0)" />
<circle cx="10.7006" cy="13.4725" r="0.5" fill="rgb(0,0,0)" />
<circle cx="2.61496" cy="4.96141" r="0.5" fill="rgb(0,0,0)" />
<circle cx="3.08262" cy="9.80344" r="0.5" fill="rgb(0,0,0)" />
<circle cx="6.37122" cy="12.6025" r="0.5" fill="rgb(0,0,0)" />
<circle cx="3.8464" cy="8.7974" r="0.5" fill="rgb(0,0,0)" />
<circle cx="14.0863" cy="13.9206" r="0.5" fill="rgb(0,0,0)" />
<circle cx="12.4208" cy="14.0605" r="0.5" fill="rgb(0,0,0)" />
<circle cx="10.4372" cy="8.2681" r="0.5" fill="rgb(0,0,0)" />
<circle cx="3.53756" cy="14.2335" r="0.5" fill="rgb(0,0,0)" />
<circle cx="2.52449" cy="8.14355" r="0.5" fill="rgb(0,0,0)" />
<circle cx="8.31302" cy="14.2683" r="0.5" fill="rgb(0,0,0)" />
<circle cx="4.17569" cy="0.591137" r="0.5" fill="rgb(0,0,0)" />
<circle cx="15.0152" cy="15.1246" r="0.5" fill="rgb(0,0,0)" />
<circle cx="1.86714" cy="14.6348" r="0.5" fill="rgb(0,0,0)" />
<circle cx="9.88697" cy="6.56209" r="0.5" fill="rgb(0,0,0)" />
<circle cx="4.99902" cy="15.0335" r="0.5" fill="rgb(0,0,0)" />
<circle cx="5.9353" cy="15.6313" r="0.5" fill="rgb(0,0,0)" />
<circle cx="16.3011" cy="1.71003" r="0.5" fill="rgb(0,0,0)" />
<circle cx="16.4358" cy="15.492" r="0.5" fill="rgb(0,0,0)" />
<circle cx="11.5095" cy="15.347" r="0.5" fill="rgb(0,0,0)" />
<circle cx="3.56694" cy="15.8755" r="0.5" fill="rgb(0,0,0)" />
<circle cx="7.52632" cy="15.5855" r="0.5" fill="rgb(0,0,0)" />
<circle cx="10.1627" cy="15.0783" r="0.5" fill="rgb(0,0,0)" />
<circle cx="6.68468" cy="16.4938" r="0.5" fill="rgb(0,0,0)" />
<circle cx="15.3065" cy="16.478" r="0.5" fill="rgb(0,0,0)" />
<circle cx="4.56" cy="16.7641" r="0.5" fill="rgb(0,0,0)" />
<circle cx="1.64836" cy="16.4728" r="0.5" fill="rgb(0,0,0)" />
<circle cx="3.79215" cy="1.85916" r="0.5" fill="rgb(0,0,0)" />
<circle cx="9.18386" cy="16.3711" r="0.5" fill="rgb(0,0,0)" />
<circle cx="18.0141" cy="1.88027" r="0.5" fill="rgb(0,0,0)" />
<circle cx="14.0379" cy="17.0087" r="0.5" fill="rgb(0,0,0)" />
<circle cx="2.83074" cy="17.0598" r="0.5" fill="rgb(0,0,0)" />
<circle cx="16.0532" cy="14.2718" r="0.5" fill="rgb(0,0,0)" />
<circle cx="16.5366" cy="16.9949" r="0.5" fill="rgb(0,0,0)" />
<circle cx="13.269" cy="15.1519" r="0.5" fill="rgb(0,0,0)" />
<circle cx="12.8163" cy="17.4466" r="0.5" fill="rgb(0,0,0)" />
<circle cx="5.66825" cy="17.3086" r="0.5" fill="rgb(0,0,0)" />
<circle cx="5.51513" cy="13.7617" r="0.5" fill="rgb(0,0,0)" />
<circle cx="12.4607" cy="16.3253" r="0.5" fill="rgb(0,0,0)" />
<circle cx="8.21213" cy="17.4851" r="0.5" fill="rgb(0,0,0)" />
<circle cx="16.9301" cy="7.36072" r="0.5" fill="rgb(0,0,0)" />
<circle cx="15.2863" cy="17.7949" r="0.5" fill="rgb(0,0,0)" />
<circle cx="7.00149" cy="17.7203" r="0.5" fill="rgb(0,0,0)" />
<circle cx="11.8213" cy="1.82554" r="0.5" fill="rgb(0,0,0)" />
<circle cx="0.482813" cy="9.36852" r="0.5" fill="rgb(0,0,0)" />
<circle cx="0.877673" cy="11.2874" r="0.5" fill="rgb(0,0,0)" />
<circle cx="7.47011" cy="5.89969" r="0.5" fill="rgb(0,0,0)" />
<circle cx="11.249" cy="17.5969" r="0.5" fill="rgb(0,0,0)" />
<circle cx="11.5028" cy="11.0406" r="0.5" fill="rgb(0,0,0)" />
<circle cx="17.9441" cy="9.66183" r="0.5" fill="rgb(0,0,0)" />
<circle cx="18.3645" cy="0.609882" r="0.5" fill="rgb(0,0,0)" />
<circle cx="6.39266" cy="4.8279" r="0.5" fill="rgb(0,0,0)" />
<circle cx="18.3082" cy="3.12338" r="0.5" fill="rgb(0,0,0)" />
<circle cx="13.3868" cy="10.4341" r="0.5" fill="rgb(0,0,0)" />
<circle cx="4.48907" cy="18.1798" r="0.5" fill="rgb(0,0,0)" />
<circle cx="0.449305" cy="6.30523" r="0.5" fill="rgb(0,0,0)" />
<circle cx="14.3498" cy="3.14562" r="0.5" fill="rgb(0,0,0)" />
<circle cx="0.597818" cy="4.08582" r="0.5" fill="rgb(0,0,0)" />
<circle cx="17.9339" cy="13.3803" r="0.5" fill="rgb(0,0,0)" />
<circle cx="17.9283" cy="11.3824" r="0.5" fill="rgb(0,0,0)" />
<circle cx="16.9794" cy="5.62506" r="0.5" fill="rgb(0,0,0)" />
<circle cx="12.6718" cy="18.5339" r="0.5" fill="rgb(0,0,0)" />
<circle cx="0.773217" cy="8.0194" r="0.5" fill="rgb(0,0,0)" />
<circle cx="15.9612" cy="18.5346" r="0.5" fill="rgb(0,0,0)" />
<circle cx="14.2082" cy="18.3052" r="0.5" fill="rgb(0,0,0)" />
<circle cx="9.98873" cy="17.9738" r="0.5" fill="rgb(0,0,0)" />
<circle cx="17.2167" cy="17.8911" r="0.5" fill="rgb(0,0,0)" />
<circle cx="0.808212" cy="13.2705" r="0.5" fill="rgb(0,0,0)" />
<circle cx="18.4004" cy="4.82577" r="0.5" fill="rgb(0,0,0)" />
<circle cx="18.2375" cy="8.12223" r="0.5" fill="rgb(0,0,0)" />
<circle cx="12.2823" cy="8.19089" r="0.5" fill="rgb(0,0,0)" />
<circle cx="18.4464" cy="6.08109" r="0.5" fill="rgb(0,0,0)" />
<circle cx="9.07125" cy="12.504" r="0.5" fill="rgb(0,0,0)" />
<circle cx="18.2482" cy="15.9937" r="0.5" fill="rgb(0,0,0)" />
<circle cx="0.517603" cy="15.6945" r="0.5" fill="rgb(0,0,0)" />
<circle cx="8.38262" cy="18.5487" r="0.5" fill="rgb(0,0,0)" />
<circle cx="6.08112" cy="18.4839" r="0.5" fill="rgb(0,0,0)" />
<circle cx="16.2841" cy="8.66433" r="0.5" fill="rgb(0,0,0)" />
<circle cx="0.537939" cy="1.33417" r="0.5" fill="rgb(0,0,0)" />
<circle cx="16.7376" cy="3.1676" r="0.5" fill="rgb(0,0,0)" />
<circle cx="14.1092" cy="15.8129" r="0.5" fill="rgb(0,0,0)" />
<circle cx="2.08528" cy="0.563442" r="0.5" fill="rgb(0,0,0)" />
<circle cx="0.519514" cy="17.9618" r="0.5" fill="rgb(0,0,0)" />
<circle cx="3.19897" cy="18.317" r="0.5" fill="rgb(0,0,0)" />
<circle cx="1.74334" cy="18.2336" r="0.5" fill="rgb(0,0,0)" />
<circle cx="17.7453" cy="14.9145" r="0.5" fill="rgb(0,0,0)" />
<circle cx="18.1385" cy="18.5196" r="0.5" fill="rgb(0,0,0)" />
<circle cx="16.308" cy="11.9716" r="0.5" fill="rgb(0,0,0)" />
<circle cx="18.3542" cy="17.296" r="0.5" fill="rgb(0,0,0)" />
</svg>
