<?xml version="1.0" ?>
<!DOCTYPE svg PUBLIC "-//W3C//DTD SVG 1.1//EN" "http://www.w3.org/Graphics/SVG/1.1/DTD/svg11.dtd">
<svg width="20" height="20" version="1.1" xmlns="http://www.w3.org/2000/svg">
<circle cx="8.5079" cy="1.40752" r="0.5" fill="rgb(0,0,0)" />
<circle cx="3.53627" cy="4.46049" r="0.5" fill="rgb(0,0,0)" />
<circle cx="6.42349" cy="4.01663" r="0.5" fill="rgb(0,0,0)" />
<circle cx="14.3422" cy="4.67706" r="0.5" fill="rgb(0,0,0)" />
<circle cx="4.39843" cy="7.75588" r="0.5" fill="rgb(0,0,0)" />
<circle cx="10.7729" cy="4.26969" r="0.5" fill="rgb(0,0,0)" />
<circle cx="13.2314" cy="11.0104" r="0.5" fill="rgb(0,0,0)" />
<circle cx="13.5049" cy="7.75033" r="0.5" fill="rgb(0,0,0)" />
<circle cx="6.17439" cy="10.416" r="0.5" fill="rgb(0,0,0)" />
<circle cx="15.3181" cy="13.2016" r="0.5" fill="rgb(0,0,0)" />
<circle cx="11.3851" cy="13.9264" r="0.5" fill="rgb(0,0,0)" />
<circle cx="2.50691" cy="13.0617" r="0.5" fill="rgb(0,0,0)" />
<circle cx="8.1666" cy="6.54752" r="0.5" fill="rgb(0,0,0)" />
<circle cx="17.259" cy="6.76488" r="0.5" fill="rgb(0,0,0)" />
<circle cx="17.2283" cy="10.6164" r="0.5" fill="rgb(0,0,0)" />
<circle cx="14.6187" cy="15.9349" r="0.5" fill="rgb(0,0,0)" />
<circle cx="1.73162" cy="16.8933" r="0.5" fill="rgb(0,0,0)" />
<circle cx="9.10564" cy="17.1157" r="0.5" fill="rgb(0,0,0)" />
<circle cx="5.49199" cy="16.6531" r="0.5" fill="rgb(0,0,0)" />
<circle cx="1.4885" cy="9.6036" r="0.5" fill="rgb(0,0,0)" />
<circle cx="1.17196" cy="5.74492" r="0.5" fill="rgb(0,0,0)" />
<circle cx="10.1075" cy="9.29026" r="0.5" fill="rgb(0,0,0)" />
<circle cx="1.36264" cy="1.67965" r="0.5" fill="rgb(0,0,0)" />
<circle cx="17.0911" cy="17.7092" r="0.5" fill="rgb(0,0,0)" />
<circle cx="4.60772" cy="1.29876" r="0.5" fill="rgb(0,0,0)" />
<circle cx="17.7402" cy="14.6738" r="0.5" fill="rgb(0,0,0)" />
<circle cx="12.5955" cy="17.5819" r="0.5" fill="rgb(0,0,0)" />
<circle cx="17.8322" cy="2.55214" r="0.5" fill="rgb(0,0,0)" />
<circle cx="15.6469" cy="1.49976" r="0.5" fill="rgb(0,0,0)" />
<circle cx="7.85154" cy="13.2102" r="0.5" fill="rgb(0,0,0)" />
<circle cx="12.4795" cy="1.37764" r="0.5" fill="rgb(0,0,0)" />
</svg>
