<?xml version="1.0" ?>
<!DOCTYPE svg PUBLIC "-//W3C//DTD SVG 1.1//EN" "http://www.w3.org/Graphics/SVG/1.1/DTD/svg11.dtd">
<svg width="20" height="20" version="1.1" xmlns="http://www.w3.org/2000/svg">
<circle cx="14.6403" cy="0.379793" r="0.5" fill="rgb(0,0,0)" />
<circle cx="12.8384" cy="0.48992" r="0.5" fill="rgb(0,0,0)" />
<circle cx="11.054" cy="0.41572" r="0.5" fill="rgb(0,0,0)" />
<circle cx="9.26818" cy="0.55299" r="0.5" fill="rgb(0,0,0)" />
<circle cx="14.2947" cy="1.22912" r="0.5" fill="rgb(0,0,0)" />
<circle cx="5.66692" cy="1.4644" r="0.5" fill="rgb(0,0,0)" />
<circle cx="10.5157" cy="1.35141" r="0.5" fill="rgb(0,0,0)" />
<circle cx="11.996" cy="1.43127" r="0.5" fill="rgb(0,0,0)" />
<circle cx="14.1252" cy="2.15738" r="0.5" fill="rgb(0,0,0)" />
<circle cx="9.05099" cy="1.89193" r="0.5" fill="rgb(0,0,0)" />
<circle cx="2.0001" cy="1.90972" r="0.5" fill="rgb(0,0,0)" />
<circle cx="5.9261" cy="2.42601" r="0.5" fill="rgb(0,0,0)" />
<circle cx="7.75371" cy="2.30831" r="0.5" fill="rgb(0,0,0)" />
<circle cx="15.3991" cy="2.4603" r="0.5" fill="rgb(0,0,0)" />
<circle cx="13.0147" cy="2.73657" r="0.5" fill="rgb(0,0,0)" />
<circle cx="18.4606" cy="0.571189" r="0.5" fill="rgb(0,0,0)" />
<circle cx="17.8579" cy="2.6515" r="0.5" fill="rgb(0,0,0)" />
<circle cx="11.6806" cy="2.70221" r="0.5" fill="rgb(0,0,0)" />
<circle cx="14.442" cy="3.13014" r="0.5" fill="rgb(0,0,0)" />
<circle cx="6.27866" cy="3.64633" r="0.5" fill="rgb(0,0,0)" />
<circle cx="15.3232" cy="3.87276" r="0.5" fill="rgb(0,0,0)" />
<circle cx="10.3766" cy="3.83011" r="0.5" fill="rgb(0,0,0)" />
<circle cx="8.5774" cy="3.78812" r="0.5" fill="rgb(0,0,0)" />
<circle cx="17.56" cy="4.29601" r="0.5" fill="rgb(0,0,0)" />
<circle cx="6.44462" cy="4.76341" r="0.5" fill="rgb(0,0,0)" />
<circle cx="13.9932" cy="4.49806" r="0.5" fill="rgb(0,0,0)" />
<circle cx="7.90253" cy="4.75671" r="0.5" fill="rgb(0,0,0)" />
<circle cx="16.844" cy="5.32483" r="0.5" fill="rgb(0,0,0)" />
<circle cx="10.0314" cy="5.30807" r="0.5" fill="rgb(0,0,0)" />
<circle cx="5.24247" cy="3.66342" r="0.5" fill="rgb(0,0,0)" />
<circle cx="12.3683" cy="5.52028" r="0.5" fill="rgb(0,0,0)" />
<circle cx="15.6751" cy="6.03023" r="0.5" fill="rgb(0,0,0)" />
<circle cx="6.61275" cy="6.80957" r="0.5" fill="rgb(0,0,0)" />
<circle cx="7.93871" cy="7.01708" r="0.5" fill="rgb(0,0,0)" />
<circle cx="18.1766" cy="6.99732" r="0.5" fill="rgb(0,0,0)" />
<circle cx="1.6271" cy="7.17035" r="0.5" fill="rgb(0,0,0)" />
<circle cx="10.3124" cy="6.82198" r="0.5" fill="rgb(0,0,0)" />
<circle cx="5.9634" cy="0.429682" r="0.5" fill="rgb(0,0,0)" />
<circle cx="12.7859" cy="7.00258" r="0.5" fill="rgb(0,0,0)" />
<circle cx="15.6875" cy="7.24381" r="0.5" fill="rgb(0,0,0)" />
<circle cx="6.56627" cy="7.62866" r="0.5" fill="rgb(0,0,0)" />
<circle cx="1.22116" cy="7.98801" r="0.5" fill="rgb(0,0,0)" />
<circle cx="3.82408" cy="8.63273" r="0.5" fill="rgb(0,0,0)" />
<circle cx="16.7646" cy="3.38226" r="0.5" fill="rgb(0,0,0)" />
<circle cx="15.0345" cy="8.51274" r="0.5" fill="rgb(0,0,0)" />
<circle cx="5.34532" cy="4.75856" r="0.5" fill="rgb(0,0,0)" />
<circle cx="7.28697" cy="9.05241" r="0.5" fill="rgb(0,0,0)" />
<circle cx="4.25653" cy="0.630364" r="0.5" fill="rgb(0,0,0)" />
<circle cx="2.56534" cy="9.19445" r="0.5" fill="rgb(0,0,0)" />
<circle cx="16.2222" cy="4.44959" r="0.5" fill="rgb(0,0,0)" />
<circle cx="16.518" cy="8.66907" r="0.5" fill="rgb(0,0,0)" />
<circle cx="5.95316" cy="8.19236" r="0.5" fill="rgb(0,0,0)" />
<circle cx="4.85203" cy="8.94965" r="0.5" fill="rgb(0,0,0)" />
<circle cx="3.23914" cy="2.65769" r="0.5" fill="rgb(0,0,0)" />
<circle cx="8.50261" cy="9.08323" r="0.5" fill="rgb(0,0,0)" />
<circle cx="13.5417" cy="8.38253" r="0.5" fill="rgb(0,0,0)" />
<circle cx="4.07904" cy="3.49958" r="0.5" fill="rgb(0,0,0)" />
<circle cx="12.1829" cy="8.46166" r="0.5" fill="rgb(0,0,0)" />
<circle cx="3.69972" cy="9.66239" r="0.5" fill="rgb(0,0,0)" />
<circle cx="2.83774" cy="9.7547" r="0.5" fill="rgb(0,0,0)" />
<circle cx="9.71588" cy="9.44502" r="0.5" fill="rgb(0,0,0)" />
<circle cx="14.322" cy="7.07456" r="0.5" fill="rgb(0,0,0)" />
<circle cx="11.3934" cy="9.38596" r="0.5" fill="rgb(0,0,0)" />
<circle cx="8.17157" cy="10.1392" r="0.5" fill="rgb(0,0,0)" />
<circle cx="7.16347" cy="10.0601" r="0.5" fill="rgb(0,0,0)" />
<circle cx="18.3631" cy="4.93363" r="0.5" fill="rgb(0,0,0)" />
<circle cx="18.4507" cy="3.35509" r="0.5" fill="rgb(0,0,0)" />
<circle cx="15.6691" cy="9.92021" r="0.5" fill="rgb(0,0,0)" />
<circle cx="1.88966" cy="10.294" r="0.5" fill="rgb(0,0,0)" />
<circle cx="9.36846" cy="10.5424" r="0.5" fill="rgb(0,0,0)" />
<circle cx="2.23733" cy="3.01503" r="0.5" fill="rgb(0,0,0)" />
<circle cx="16.9549" cy="10.3604" r="0.5" fill="rgb(0,0,0)" />
<circle cx="5.58557" cy="6.3327" r="0.5" fill="rgb(0,0,0)" />
<circle cx="6.07444" cy="10.613" r="0.5" fill="rgb(0,0,0)" />
<circle cx="13.524" cy="10.6716" r="0.5" fill="rgb(0,0,0)" />
<circle cx="12.261" cy="10.8017" r="0.5" fill="rgb(0,0,0)" />
<circle cx="4.50457" cy="11.6342" r="0.5" fill="rgb(0,0,0)" />
<circle cx="17.0591" cy="6.36338" r="0.5" fill="rgb(0,0,0)" />
<circle cx="16.209" cy="11.9796" r="0.5" fill="rgb(0,0,0)" />
<circle cx="0.936667" cy="11.2928" r="0.5" fill="rgb(0,0,0)" />
<circle cx="4.89499" cy="7.59045" r="0.5" fill="rgb(0,0,0)" />
<circle cx="2.56648" cy="11.9734" r="0.5" fill="rgb(0,0,0)" />
<circle cx="4.88759" cy="2.74002" r="0.5" fill="rgb(0,0,0)" />
<circle cx="9.40011" cy="3.12602" r="0.5" fill="rgb(0,0,0)" />
<circle cx="4.17488" cy="6.63559" r="0.5" fill="rgb(0,0,0)" />
<circle cx="6.00635" cy="12.4723" r="0.5" fill="rgb(0,0,0)" />
<circle cx="9.22637" cy="12.0436" r="0.5" fill="rgb(0,0,0)" />
<circle cx="8.16135" cy="12.7865" r="0.5" fill="rgb(0,0,0)" />
<circle cx="15.0842" cy="13.4698" r="0.5" fill="rgb(0,0,0)" />
<circle cx="1.97386" cy="6.23266" r="0.5" fill="rgb(0,0,0)" />
<circle cx="12.1241" cy="12.7877" r="0.5" fill="rgb(0,0,0)" />
<circle cx="6.9496" cy="1.31998" r="0.5" fill="rgb(0,0,0)" />
<circle cx="3.73834" cy="13.0116" r="0.5" fill="rgb(0,0,0)" />
<circle cx="10.5334" cy="13.4012" r="0.5" fill="rgb(0,0,0)" />
<circle cx="13.4382" cy="13.9445" r="0.5" fill="rgb(0,0,0)" />
<circle cx="11.9524" cy="4.11409" r="0.5" fill="rgb(0,0,0)" />
<circle cx="14.1049" cy="9.57468" r="0.5" fill="rgb(0,0,0)" />
<circle cx="16.5348" cy="13.556" r="0.5" fill="rgb(0,0,0)" />
<circle cx="1.91239" cy="13.8393" r="0.5" fill="rgb(0,0,0)" />
<circle cx="14.3383" cy="14.2013" r="0.5" fill="rgb(0,0,0)" />
<circle cx="15.946" cy="0.760491" r="0.5" fill="rgb(0,0,0)" />
<circle cx="11.3321" cy="6.97411" r="0.5" fill="rgb(0,0,0)" />
<circle cx="7.04294" cy="11.6625" r="0.5" fill="rgb(0,0,0)" />
<circle cx="15.552" cy="14.478" r="0.5" fill="rgb(0,0,0)" />
<circle cx="12.4748" cy="14.2487" r="0.5" fill="rgb(0,0,0)" />
<circle cx="4.09084" cy="14.7837" r="0.5" fill="rgb(0,0,0)" />
<circle cx="7.39639" cy="8.07406" r="0.5" fill="rgb(0,0,0)" />
<circle cx="6.2149" cy="14.1578" r="0.5" fill="rgb(0,0,0)" />
<circle cx="5.32827" cy="15.0105" r="0.5" fill="rgb(0,0,0)" />
<circle cx="11.5436" cy="14.6304" r="0.5" fill="rgb(0,0,0)" />
<circle cx="10.3815" cy="8.45038" r="0.5" fill="rgb(0,0,0)" />
<circle cx="2.16613" cy="15.3303" r="0.5" fill="rgb(0,0,0)" />
<circle cx="6.02566" cy="9.25903" r="0.5" fill="rgb(0,0,0)" />
<circle cx="15.0285" cy="15.3308" r="0.5" fill="rgb(0,0,0)" />
<circle cx="17.3067" cy="0.691564" r="0.5" fill="rgb(0,0,0)" />
<circle cx="6.45359" cy="5.65415" r="0.5" fill="rgb(0,0,0)" />
<circle cx="7.59633" cy="5.99683" r="0.5" fill="rgb(0,0,0)" />
<circle cx="10.4004" cy="14.8975" r="0.5" fill="rgb(0,0,0)" />
<circle cx="13.3284" cy="15.297" r="0.5" fill="rgb(0,0,0)" />
<circle cx="7.36417" cy="15.5734" r="0.5" fill="rgb(0,0,0)" />
<circle cx="7.13681" cy="3.31782" r="0.5" fill="rgb(0,0,0)" />
<circle cx="4.79884" cy="15.8817" r="0.5" fill="rgb(0,0,0)" />
<circle cx="9.09573" cy="5.66598" r="0.5" fill="rgb(0,0,0)" />
<circle cx="16.3569" cy="15.4345" r="0.5" fill="rgb(0,0,0)" />
<circle cx="5.85823" cy="15.9187" r="0.5" fill="rgb(0,0,0)" />
<circle cx="14.1603" cy="5.70761" r="0.5" fill="rgb(0,0,0)" />
<circle cx="18.4083" cy="6.04239" r="0.5" fill="rgb(0,0,0)" />
<circle cx="11.9738" cy="15.6354" r="0.5" fill="rgb(0,0,0)" />
<circle cx="4.74188" cy="10.2942" r="0.5" fill="rgb(0,0,0)" />
<circle cx="17.5728" cy="15.0786" r="0.5" fill="rgb(0,0,0)" />
<circle cx="9.09533" cy="6.78014" r="0.5" fill="rgb(0,0,0)" />
<circle cx="1.28543" cy="16.1903" r="0.5" fill="rgb(0,0,0)" />
<circle cx="3.99949" cy="16.0928" r="0.5" fill="rgb(0,0,0)" />
<circle cx="18.0982" cy="1.74659" r="0.5" fill="rgb(0,0,0)" />
<circle cx="6.6329" cy="16.4948" r="0.5" fill="rgb(0,0,0)" />
<circle cx="2.23327" cy="16.5184" r="0.5" fill="rgb(0,0,0)" />
<circle cx="8.46851" cy="7.9516" r="0.5" fill="rgb(0,0,0)" />
<circle cx="3.2087" cy="16.1454" r="0.5" fill="rgb(0,0,0)" />
<circle cx="9.27134" cy="16.0649" r="0.5" fill="rgb(0,0,0)" />
<circle cx="3.94549" cy="1.88179" r="0.5" fill="rgb(0,0,0)" />
<circle cx="14.9132" cy="11.1363" r="0.5" fill="rgb(0,0,0)" />
<circle cx="15.1797" cy="16.5448" r="0.5" fill="rgb(0,0,0)" />
<circle cx="14.8123" cy="12.524" r="0.5" fill="rgb(0,0,0)" />
<circle cx="1.40627" cy="17.2278" r="0.5" fill="rgb(0,0,0)" />
<circle cx="13.2399" cy="3.71793" r="0.5" fill="rgb(0,0,0)" />
<circle cx="12.7407" cy="16.4918" r="0.5" fill="rgb(0,0,0)" />
<circle cx="7.65144" cy="13.9983" r="0.5" fill="rgb(0,0,0)" />
<circle cx="4.51065" cy="16.9334" r="0.5" fill="rgb(0,0,0)" />
<circle cx="13.4841" cy="12.3951" r="0.5" fill="rgb(0,0,0)" />
<circle cx="14.1238" cy="17.0054" r="0.5" fill="rgb(0,0,0)" />
<circle cx="16.3569" cy="16.8773" r="0.5" fill="rgb(0,0,0)" />
<circle cx="4.13004" cy="4.48738" r="0.5" fill="rgb(0,0,0)" />
<circle cx="7.80302" cy="16.9535" r="0.5" fill="rgb(0,0,0)" />
<circle cx="17.6609" cy="17.15" r="0.5" fill="rgb(0,0,0)" />
<circle cx="17.0803" cy="7.72811" r="0.5" fill="rgb(0,0,0)" />
<circle cx="2.96971" cy="17.3587" r="0.5" fill="rgb(0,0,0)" />
<circle cx="5.65112" cy="17.2875" r="0.5" fill="rgb(0,0,0)" />
<circle cx="10.8279" cy="10.9404" r="0.5" fill="rgb(0,0,0)" />
<circle cx="12.9235" cy="17.5051" r="0.5" fill="rgb(0,0,0)" />
<circle cx="1.20994" cy="17.9266" r="0.5" fill="rgb(0,0,0)" />
<circle cx="2.13475" cy="17.8215" r="0.5" fill="rgb(0,0,0)" />
<circle cx="10.4495" cy="2.61103" r="0.5" fill="rgb(0,0,0)" />
<circle cx="9.08437" cy="17.3462" r="0.5" fill="rgb(0,0,0)" />
<circle cx="8.94706" cy="14.5829" r="0.5" fill="rgb(0,0,0)" />
<circle cx="15.4758" cy="17.8748" r="0.5" fill="rgb(0,0,0)" />
<circle cx="6.75172" cy="17.7312" r="0.5" fill="rgb(0,0,0)" />
<circle cx="3.12573" cy="7.14061" r="0.5" fill="rgb(0,0,0)" />
<circle cx="14.2792" cy="18.0739" r="0.5" fill="rgb(0,0,0)" />
<circle cx="16.722" cy="18.2116" r="0.5" fill="rgb(0,0,0)" />
<circle cx="0.591824" cy="14.8594" r="0.5" fill="rgb(0,0,0)" />
<circle cx="0.40742" cy="16.618" r="0.5" fill="rgb(0,0,0)" />
<circle cx="10.0278" cy="18.1452" r="0.5" fill="rgb(0,0,0)" />
<circle cx="18.0806" cy="13.4823" r="0.5" fill="rgb(0,0,0)" />
<circle cx="18.0369" cy="11.5772" r="0.5" fill="rgb(0,0,0)" />
<circle cx="2.88793" cy="4.03432" r="0.5" fill="rgb(0,0,0)" />
<circle cx="18.1569" cy="9.50743" r="0.5" fill="rgb(0,0,0)" />
<circle cx="18.3761" cy="8.09221" r="0.5" fill="rgb(0,0,0)" />
<circle cx="0.464824" cy="10.087" r="0.5" fill="rgb(0,0,0)" />
<circle cx="2.73791" cy="5.24789" r="0.5" fill="rgb(0,0,0)" />
<circle cx="0.432639" cy="8.63268" r="0.5" fill="rgb(0,0,0)" />
<circle cx="11.5916" cy="18.1694" r="0.5" fill="rgb(0,0,0)" />
<circle cx="4.22223" cy="5.47147" r="0.5" fill="rgb(0,0,0)" />
<circle cx="2.59822" cy="8.21257" r="0.5" fill="rgb(0,0,0)" />
<circle cx="8.18868" cy="11.2722" r="0.5" fill="rgb(0,0,0)" />
<circle cx="4.90308" cy="13.6482" r="0.5" fill="rgb(0,0,0)" />
<circle cx="18.401" cy="15.7754" r="0.5" fill="rgb(0,0,0)" />
<circle cx="8.2476" cy="18.0234" r="0.5" fill="rgb(0,0,0)" />
<circle cx="3.41644" cy="18.4346" r="0.5" fill="rgb(0,0,0)" />
<circle cx="3.24024" cy="10.7077" r="0.5" fill="rgb(0,0,0)" />
<circle cx="0.452828" cy="3.47337" r="0.5" fill="rgb(0,0,0)" />
<circle cx="13.0653" cy="1.72413" r="0.5" fill="rgb(0,0,0)" />
<circle cx="1.36643" cy="5.20983" r="0.5" fill="rgb(0,0,0)" />
<circle cx="3.12452" cy="14.4121" r="0.5" fill="rgb(0,0,0)" />
<circle cx="15.1737" cy="18.6533" r="0.5" fill="rgb(0,0,0)" />
<circle cx="13.1962" cy="18.5034" r="0.5" fill="rgb(0,0,0)" />
<circle cx="10.9382" cy="16.6687" r="0.5" fill="rgb(0,0,0)" />
<circle cx="0.47523" cy="6.80793" r="0.5" fill="rgb(0,0,0)" />
<circle cx="10.8092" cy="4.85879" r="0.5" fill="rgb(0,0,0)" />
<circle cx="0.411185" cy="5.13272" r="0.5" fill="rgb(0,0,0)" />
<circle cx="1.5178" cy="3.66289" r="0.5" fill="rgb(0,0,0)" />
<circle cx="8.05298" cy="18.6407" r="0.5" fill="rgb(0,0,0)" />
<circle cx="16.4713" cy="2.11012" r="0.5" fill="rgb(0,0,0)" />
<circle cx="6.05117" cy="18.5072" r="0.5" fill="rgb(0,0,0)" />
<circle cx="0.548978" cy="1.26016" r="0.5" fill="rgb(0,0,0)" />
<circle cx="1.48865" cy="9.14281" r="0.5" fill="rgb(0,0,0)" />
<circle cx="2.14543" cy="0.56854" r="0.5" fill="rgb(0,0,0)" />
<circle cx="0.273303" cy="17.8744" r="0.5" fill="rgb(0,0,0)" />
<circle cx="4.53507" cy="18.102" r="0.5" fill="rgb(0,0,0)" />
<circle cx="0.737599" cy="12.8108" r="0.5" fill="rgb(0,0,0)" />
<circle cx="2.03871" cy="18.6019" r="0.5" fill="rgb(0,0,0)" />
<circle cx="9.47018" cy="7.94749" r="0.5" fill="rgb(0,0,0)" />
<circle cx="0.696292" cy="18.5859" r="0.5" fill="rgb(0,0,0)" />
<circle cx="10.2972" cy="12.3284" r="0.5" fill="rgb(0,0,0)" />
<circle cx="17.7734" cy="18.582" r="0.5" fill="rgb(0,0,0)" />
<circle cx="7.77748" cy="0.557358" r="0.5" fill="rgb(0,0,0)" />
<circle cx="15.2876" cy="5.07334" r="0.5" fill="rgb(0,0,0)" />
<circle cx="14.1415" cy="15.8113" r="0.5" fill="rgb(0,0,0)" />
<circle cx="18.5061" cy="18.3492" r="0.5" fill="rgb(0,0,0)" />
<circle cx="18.6052" cy="17.3289" r="0.5" fill="rgb(0,0,0)" />
</svg>
