<?xml version="1.0" ?>
<!DOCTYPE svg PUBLIC "-//W3C//DTD SVG 1.1//EN" "http://www.w3.org/Graphics/SVG/1.1/DTD/svg11.dtd">
<svg width="20" height="20" version="1.1" xmlns="http://www.w3.org/2000/svg">
<circle cx="16.834" cy="0.627589" r="0.5" fill="rgb(0,0,0)" />
<circle cx="14.9414" cy="0.643659" r="0.5" fill="rgb(0,0,0)" />
<circle cx="8.26133" cy="0.574624" r="0.5" fill="rgb(0,0,0)" />
<circle cx="10.5834" cy="0.76052" r="0.5" fill="rgb(0,0,0)" />
<circle cx="4.37782" cy="1.26385" r="0.5" fill="rgb(0,0,0)" />
<circle cx="1.94748" cy="2.06795" r="0.5" fill="rgb(0,0,0)" />
<circle cx="12.1252" cy="2.09777" r="0.5" fill="rgb(0,0,0)" />
<circle cx="16.5126" cy="2.09697" r="0.5" fill="rgb(0,0,0)" />
<circle cx="5.52412" cy="2.39243" r="0.5" fill="rgb(0,0,0)" />
<circle cx="9.13981" cy="1.84964" r="0.5" fill="rgb(0,0,0)" />
<circle cx="18.0414" cy="1.85489" r="0.5" fill="rgb(0,0,0)" />
<circle cx="10.2429" cy="2.99839" r="0.5" fill="rgb(0,0,0)" />
<circle cx="14.3848" cy="3.18933" r="0.5" fill="rgb(0,0,0)" />
<circle cx="15.2071" cy="3.92096" r="0.5" fill="rgb(0,0,0)" />
<circle cx="2.08198" cy="3.47489" r="0.5" fill="rgb(0,0,0)" />
<circle cx="17.2711" cy="3.77304" r="0.5" fill="rgb(0,0,0)" />
<circle cx="16.2581" cy="4.29057" r="0.5" fill="rgb(0,0,0)" />
<circle cx="15.4062" cy="2.39127" r="0.5" fill="rgb(0,0,0)" />
<circle cx="8.34915" cy="4.39092" r="0.5" fill="rgb(0,0,0)" />
<circle cx="6.79626" cy="1.12373" r="0.5" fill="rgb(0,0,0)" />
<circle cx="13.9108" cy="1.81774" r="0.5" fill="rgb(0,0,0)" />
<circle cx="11.6946" cy="4.11039" r="0.5" fill="rgb(0,0,0)" />
<circle cx="6.07286" cy="5.0807" r="0.5" fill="rgb(0,0,0)" />
<circle cx="2.7344" cy="4.89231" r="0.5" fill="rgb(0,0,0)" />
<circle cx="10.1027" cy="5.0298" r="0.5" fill="rgb(0,0,0)" />
<circle cx="17.0098" cy="5.56661" r="0.5" fill="rgb(0,0,0)" />
<circle cx="1.66438" cy="5.7617" r="0.5" fill="rgb(0,0,0)" />
<circle cx="4.31435" cy="5.6071" r="0.5" fill="rgb(0,0,0)" />
<circle cx="5.94625" cy="6.66046" r="0.5" fill="rgb(0,0,0)" />
<circle cx="8.62824" cy="6.49432" r="0.5" fill="rgb(0,0,0)" />
<circle cx="12.3928" cy="6.31115" r="0.5" fill="rgb(0,0,0)" />
<circle cx="7.36755" cy="5.99136" r="0.5" fill="rgb(0,0,0)" />
<circle cx="10.7296" cy="6.64137" r="0.5" fill="rgb(0,0,0)" />
<circle cx="14.0869" cy="6.80736" r="0.5" fill="rgb(0,0,0)" />
<circle cx="1.66992" cy="7.2742" r="0.5" fill="rgb(0,0,0)" />
<circle cx="3.57733" cy="7.04027" r="0.5" fill="rgb(0,0,0)" />
<circle cx="9.0943" cy="7.76811" r="0.5" fill="rgb(0,0,0)" />
<circle cx="2.76371" cy="8.20771" r="0.5" fill="rgb(0,0,0)" />
<circle cx="5.48016" cy="7.78673" r="0.5" fill="rgb(0,0,0)" />
<circle cx="12.1821" cy="8.07981" r="0.5" fill="rgb(0,0,0)" />
<circle cx="7.25801" cy="8.22375" r="0.5" fill="rgb(0,0,0)" />
<circle cx="16.3225" cy="8.65985" r="0.5" fill="rgb(0,0,0)" />
<circle cx="13.9016" cy="8.67798" r="0.5" fill="rgb(0,0,0)" />
<circle cx="2.42812" cy="9.27716" r="0.5" fill="rgb(0,0,0)" />
<circle cx="9.33757" cy="9.40871" r="0.5" fill="rgb(0,0,0)" />
<circle cx="15.7118" cy="6.01536" r="0.5" fill="rgb(0,0,0)" />
<circle cx="15.7304" cy="10.0249" r="0.5" fill="rgb(0,0,0)" />
<circle cx="4.18671" cy="9.93889" r="0.5" fill="rgb(0,0,0)" />
<circle cx="7.57651" cy="9.902" r="0.5" fill="rgb(0,0,0)" />
<circle cx="9.07516" cy="10.7844" r="0.5" fill="rgb(0,0,0)" />
<circle cx="13.3235" cy="5.07382" r="0.5" fill="rgb(0,0,0)" />
<circle cx="2.77257" cy="10.6044" r="0.5" fill="rgb(0,0,0)" />
<circle cx="10.405" cy="8.39256" r="0.5" fill="rgb(0,0,0)" />
<circle cx="13.7205" cy="10.6764" r="0.5" fill="rgb(0,0,0)" />
<circle cx="6.03874" cy="10.5708" r="0.5" fill="rgb(0,0,0)" />
<circle cx="11.5256" cy="11.0449" r="0.5" fill="rgb(0,0,0)" />
<circle cx="16.0001" cy="11.7505" r="0.5" fill="rgb(0,0,0)" />
<circle cx="12.6653" cy="12.466" r="0.5" fill="rgb(0,0,0)" />
<circle cx="13.2004" cy="3.52846" r="0.5" fill="rgb(0,0,0)" />
<circle cx="14.6352" cy="12.4904" r="0.5" fill="rgb(0,0,0)" />
<circle cx="8.35277" cy="12.3824" r="0.5" fill="rgb(0,0,0)" />
<circle cx="3.81404" cy="12.1765" r="0.5" fill="rgb(0,0,0)" />
<circle cx="11.6689" cy="9.53809" r="0.5" fill="rgb(0,0,0)" />
<circle cx="10.6998" cy="13.4026" r="0.5" fill="rgb(0,0,0)" />
<circle cx="6.52697" cy="12.4795" r="0.5" fill="rgb(0,0,0)" />
<circle cx="4.66029" cy="3.93529" r="0.5" fill="rgb(0,0,0)" />
<circle cx="16.0163" cy="13.7757" r="0.5" fill="rgb(0,0,0)" />
<circle cx="14.0645" cy="13.8685" r="0.5" fill="rgb(0,0,0)" />
<circle cx="12.3996" cy="14.1146" r="0.5" fill="rgb(0,0,0)" />
<circle cx="5.32062" cy="13.7315" r="0.5" fill="rgb(0,0,0)" />
<circle cx="15.0476" cy="15.0891" r="0.5" fill="rgb(0,0,0)" />
<circle cx="8.33272" cy="14.3136" r="0.5" fill="rgb(0,0,0)" />
<circle cx="1.17016" cy="11.46" r="0.5" fill="rgb(0,0,0)" />
<circle cx="2.20537" cy="14.3713" r="0.5" fill="rgb(0,0,0)" />
<circle cx="17.7807" cy="14.9242" r="0.5" fill="rgb(0,0,0)" />
<circle cx="10.1304" cy="12.0679" r="0.5" fill="rgb(0,0,0)" />
<circle cx="14.0933" cy="15.8457" r="0.5" fill="rgb(0,0,0)" />
<circle cx="16.3921" cy="15.3776" r="0.5" fill="rgb(0,0,0)" />
<circle cx="6.50537" cy="3.6775" r="0.5" fill="rgb(0,0,0)" />
<circle cx="5.0706" cy="15.2041" r="0.5" fill="rgb(0,0,0)" />
<circle cx="10.1327" cy="14.9785" r="0.5" fill="rgb(0,0,0)" />
<circle cx="3.52876" cy="15.0503" r="0.5" fill="rgb(0,0,0)" />
<circle cx="15.4522" cy="7.48366" r="0.5" fill="rgb(0,0,0)" />
<circle cx="5.182" cy="16.3131" r="0.5" fill="rgb(0,0,0)" />
<circle cx="11.3482" cy="15.5553" r="0.5" fill="rgb(0,0,0)" />
<circle cx="15.2797" cy="16.4964" r="0.5" fill="rgb(0,0,0)" />
<circle cx="18.235" cy="3.09646" r="0.5" fill="rgb(0,0,0)" />
<circle cx="7.42787" cy="15.5258" r="0.5" fill="rgb(0,0,0)" />
<circle cx="12.7199" cy="0.591859" r="0.5" fill="rgb(0,0,0)" />
<circle cx="3.57341" cy="2.75472" r="0.5" fill="rgb(0,0,0)" />
<circle cx="12.2368" cy="16.4684" r="0.5" fill="rgb(0,0,0)" />
<circle cx="17.0289" cy="7.27378" r="0.5" fill="rgb(0,0,0)" />
<circle cx="6.73051" cy="16.4115" r="0.5" fill="rgb(0,0,0)" />
<circle cx="9.17432" cy="16.4494" r="0.5" fill="rgb(0,0,0)" />
<circle cx="2.77148" cy="16.7477" r="0.5" fill="rgb(0,0,0)" />
<circle cx="13.8451" cy="17.0362" r="0.5" fill="rgb(0,0,0)" />
<circle cx="16.537" cy="16.9691" r="0.5" fill="rgb(0,0,0)" />
<circle cx="5.77601" cy="17.3407" r="0.5" fill="rgb(0,0,0)" />
<circle cx="15.2589" cy="17.8001" r="0.5" fill="rgb(0,0,0)" />
<circle cx="12.2124" cy="17.7242" r="0.5" fill="rgb(0,0,0)" />
<circle cx="17.2155" cy="17.8902" r="0.5" fill="rgb(0,0,0)" />
<circle cx="18.3562" cy="0.596098" r="0.5" fill="rgb(0,0,0)" />
<circle cx="1.5281" cy="17.5628" r="0.5" fill="rgb(0,0,0)" />
<circle cx="14.842" cy="5.16111" r="0.5" fill="rgb(0,0,0)" />
<circle cx="18.3023" cy="4.86346" r="0.5" fill="rgb(0,0,0)" />
<circle cx="4.39867" cy="17.7631" r="0.5" fill="rgb(0,0,0)" />
<circle cx="13.218" cy="15.2431" r="0.5" fill="rgb(0,0,0)" />
<circle cx="17.874" cy="13.332" r="0.5" fill="rgb(0,0,0)" />
<circle cx="17.8975" cy="11.4197" r="0.5" fill="rgb(0,0,0)" />
<circle cx="17.9388" cy="9.67785" r="0.5" fill="rgb(0,0,0)" />
<circle cx="18.2267" cy="8.11124" r="0.5" fill="rgb(0,0,0)" />
<circle cx="7.74023" cy="2.70385" r="0.5" fill="rgb(0,0,0)" />
<circle cx="15.9528" cy="18.5357" r="0.5" fill="rgb(0,0,0)" />
<circle cx="14.169" cy="18.2937" r="0.5" fill="rgb(0,0,0)" />
<circle cx="8.64403" cy="17.9593" r="0.5" fill="rgb(0,0,0)" />
<circle cx="4.95205" cy="8.85118" r="0.5" fill="rgb(0,0,0)" />
<circle cx="12.6993" cy="18.5191" r="0.5" fill="rgb(0,0,0)" />
<circle cx="0.773937" cy="9.82049" r="0.5" fill="rgb(0,0,0)" />
<circle cx="18.2323" cy="6.45708" r="0.5" fill="rgb(0,0,0)" />
<circle cx="7.47373" cy="18.2158" r="0.5" fill="rgb(0,0,0)" />
<circle cx="6.16216" cy="18.2903" r="0.5" fill="rgb(0,0,0)" />
<circle cx="0.658384" cy="8.26473" r="0.5" fill="rgb(0,0,0)" />
<circle cx="0.643854" cy="4.01619" r="0.5" fill="rgb(0,0,0)" />
<circle cx="0.454453" cy="6.30401" r="0.5" fill="rgb(0,0,0)" />
<circle cx="18.2394" cy="16.0008" r="0.5" fill="rgb(0,0,0)" />
<circle cx="0.750844" cy="15.7513" r="0.5" fill="rgb(0,0,0)" />
<circle cx="0.991935" cy="13.1928" r="0.5" fill="rgb(0,0,0)" />
<circle cx="5.31525" cy="0.44916" r="0.5" fill="rgb(0,0,0)" />
<circle cx="10.5117" cy="17.8426" r="0.5" fill="rgb(0,0,0)" />
<circle cx="0.626001" cy="1.17823" r="0.5" fill="rgb(0,0,0)" />
<circle cx="2.64536" cy="0.631058" r="0.5" fill="rgb(0,0,0)" />
<circle cx="3.01836" cy="18.3786" r="0.5" fill="rgb(0,0,0)" />
<circle cx="0.582802" cy="18.1585" r="0.5" fill="rgb(0,0,0)" />
<circle cx="18.1376" cy="18.5193" r="0.5" fill="rgb(0,0,0)" />
<circle cx="18.3532" cy="17.2955" r="0.5" fill="rgb(0,0,0)" />
</svg>
