<?xml version="1.0" ?>
<!DOCTYPE svg PUBLIC "-//W3C//DTD SVG 1.1//EN" "http://www.w3.org/Graphics/SVG/1.1/DTD/svg11.dtd">
<svg width="20" height="20" version="1.1" xmlns="http://www.w3.org/2000/svg">
<circle cx="6.07731" cy="0.411956" r="0.5" fill="rgb(0,0,0)" />
<circle cx="4.17569" cy="0.591137" r="0.5" fill="rgb(0,0,0)" />
<circle cx="14.9441" cy="0.6037" r="0.5" fill="rgb(0,0,0)" />
<circle cx="12.7977" cy="0.558512" r="0.5" fill="rgb(0,0,0)" />
<circle cx="8.3138" cy="0.534982" r="0.5" fill="rgb(0,0,0)" />
<circle cx="5.5365" cy="1.44772" r="0.5" fill="rgb(0,0,0)" />
<circle cx="10.5317" cy="0.702561" r="0.5" fill="rgb(0,0,0)" />
<circle cx="7.15403" cy="1.35959" r="0.5" fill="rgb(0,0,0)" />
<circle cx="14.023" cy="1.70415" r="0.5" fill="rgb(0,0,0)" />
<circle cx="16.3011" cy="1.71003" r="0.5" fill="rgb(0,0,0)" />
<circle cx="6.10117" cy="2.51117" r="0.5" fill="rgb(0,0,0)" />
<circle cx="15.3996" cy="2.44337" r="0.5" fill="rgb(0,0,0)" />
<circle cx="18.0141" cy="1.88027" r="0.5" fill="rgb(0,0,0)" />
<circle cx="4.86912" cy="2.76417" r="0.5" fill="rgb(0,0,0)" />
<circle cx="3.0982" cy="3.08829" r="0.5" fill="rgb(0,0,0)" />
<circle cx="10.2536" cy="2.98833" r="0.5" fill="rgb(0,0,0)" />
<circle cx="15.1603" cy="3.94062" r="0.5" fill="rgb(0,0,0)" />
<circle cx="13.2553" cy="3.79686" r="0.5" fill="rgb(0,0,0)" />
<circle cx="1.80158" cy="3.44336" r="0.5" fill="rgb(0,0,0)" />
<circle cx="6.73281" cy="3.80124" r="0.5" fill="rgb(0,0,0)" />
<circle cx="17.5394" cy="4.26171" r="0.5" fill="rgb(0,0,0)" />
<circle cx="9.15903" cy="1.84391" r="0.5" fill="rgb(0,0,0)" />
<circle cx="16.1939" cy="4.54224" r="0.5" fill="rgb(0,0,0)" />
<circle cx="11.7045" cy="4.15842" r="0.5" fill="rgb(0,0,0)" />
<circle cx="8.38183" cy="4.41831" r="0.5" fill="rgb(0,0,0)" />
<circle cx="14.784" cy="5.23218" r="0.5" fill="rgb(0,0,0)" />
<circle cx="6.11387" cy="5.18354" r="0.5" fill="rgb(0,0,0)" />
<circle cx="2.61988" cy="4.96681" r="0.5" fill="rgb(0,0,0)" />
<circle cx="13.3614" cy="5.0983" r="0.5" fill="rgb(0,0,0)" />
<circle cx="1.67858" cy="5.75017" r="0.5" fill="rgb(0,0,0)" />
<circle cx="15.7186" cy="6.05873" r="0.5" fill="rgb(0,0,0)" />
<circle cx="7.39955" cy="5.92791" r="0.5" fill="rgb(0,0,0)" />
<circle cx="4.3607" cy="6.11309" r="0.5" fill="rgb(0,0,0)" />
<circle cx="4.29577" cy="4.81071" r="0.5" fill="rgb(0,0,0)" />
<circle cx="6.06126" cy="6.67043" r="0.5" fill="rgb(0,0,0)" />
<circle cx="8.35208" cy="6.65192" r="0.5" fill="rgb(0,0,0)" />
<circle cx="1.73827" cy="7.12979" r="0.5" fill="rgb(0,0,0)" />
<circle cx="1.96404" cy="2.05092" r="0.5" fill="rgb(0,0,0)" />
<circle cx="11.2958" cy="6.58864" r="0.5" fill="rgb(0,0,0)" />
<circle cx="2.543" cy="8.12495" r="0.5" fill="rgb(0,0,0)" />
<circle cx="10.1069" cy="4.92198" r="0.5" fill="rgb(0,0,0)" />
<circle cx="15.4454" cy="7.48067" r="0.5" fill="rgb(0,0,0)" />
<circle cx="5.38477" cy="3.9899" r="0.5" fill="rgb(0,0,0)" />
<circle cx="3.48086" cy="7.07632" r="0.5" fill="rgb(0,0,0)" />
<circle cx="9.03531" cy="7.8409" r="0.5" fill="rgb(0,0,0)" />
<circle cx="0.774335" cy="8.03236" r="0.5" fill="rgb(0,0,0)" />
<circle cx="9.89053" cy="6.55337" r="0.5" fill="rgb(0,0,0)" />
<circle cx="2.36009" cy="9.06513" r="0.5" fill="rgb(0,0,0)" />
<circle cx="5.18745" cy="8.88679" r="0.5" fill="rgb(0,0,0)" />
<circle cx="12.6139" cy="6.34415" r="0.5" fill="rgb(0,0,0)" />
<circle cx="3.86187" cy="8.84817" r="0.5" fill="rgb(0,0,0)" />
<circle cx="13.9673" cy="8.6086" r="0.5" fill="rgb(0,0,0)" />
<circle cx="9.83767" cy="9.60103" r="0.5" fill="rgb(0,0,0)" />
<circle cx="1.58703" cy="9.91911" r="0.5" fill="rgb(0,0,0)" />
<circle cx="15.8227" cy="9.97393" r="0.5" fill="rgb(0,0,0)" />
<circle cx="4.69489" cy="10.3666" r="0.5" fill="rgb(0,0,0)" />
<circle cx="14.3498" cy="3.14562" r="0.5" fill="rgb(0,0,0)" />
<circle cx="7.53828" cy="10.1049" r="0.5" fill="rgb(0,0,0)" />
<circle cx="12.8936" cy="2.58069" r="0.5" fill="rgb(0,0,0)" />
<circle cx="3.05763" cy="10.906" r="0.5" fill="rgb(0,0,0)" />
<circle cx="16.8806" cy="0.582347" r="0.5" fill="rgb(0,0,0)" />
<circle cx="3.07305" cy="9.80055" r="0.5" fill="rgb(0,0,0)" />
<circle cx="14.8037" cy="11.1749" r="0.5" fill="rgb(0,0,0)" />
<circle cx="10.4079" cy="12.0233" r="0.5" fill="rgb(0,0,0)" />
<circle cx="16.3148" cy="12.0634" r="0.5" fill="rgb(0,0,0)" />
<circle cx="12.726" cy="12.4482" r="0.5" fill="rgb(0,0,0)" />
<circle cx="7.86552" cy="2.77774" r="0.5" fill="rgb(0,0,0)" />
<circle cx="14.6692" cy="12.6888" r="0.5" fill="rgb(0,0,0)" />
<circle cx="4.55906" cy="12.0367" r="0.5" fill="rgb(0,0,0)" />
<circle cx="9.07793" cy="12.5013" r="0.5" fill="rgb(0,0,0)" />
<circle cx="11.5181" cy="11.0619" r="0.5" fill="rgb(0,0,0)" />
<circle cx="7.70784" cy="12.2591" r="0.5" fill="rgb(0,0,0)" />
<circle cx="10.7171" cy="13.4648" r="0.5" fill="rgb(0,0,0)" />
<circle cx="16.2841" cy="8.66891" r="0.5" fill="rgb(0,0,0)" />
<circle cx="5.39586" cy="13.7598" r="0.5" fill="rgb(0,0,0)" />
<circle cx="13.4" cy="10.4197" r="0.5" fill="rgb(0,0,0)" />
<circle cx="12.4371" cy="14.0469" r="0.5" fill="rgb(0,0,0)" />
<circle cx="8.31154" cy="14.2659" r="0.5" fill="rgb(0,0,0)" />
<circle cx="14.0673" cy="13.909" r="0.5" fill="rgb(0,0,0)" />
<circle cx="15.0604" cy="15.0759" r="0.5" fill="rgb(0,0,0)" />
<circle cx="13.277" cy="15.1318" r="0.5" fill="rgb(0,0,0)" />
<circle cx="1.91845" cy="14.5673" r="0.5" fill="rgb(0,0,0)" />
<circle cx="14.1168" cy="6.8122" r="0.5" fill="rgb(0,0,0)" />
<circle cx="4.90907" cy="15.0838" r="0.5" fill="rgb(0,0,0)" />
<circle cx="14.1058" cy="15.8212" r="0.5" fill="rgb(0,0,0)" />
<circle cx="5.97323" cy="15.5256" r="0.5" fill="rgb(0,0,0)" />
<circle cx="16.0248" cy="13.8577" r="0.5" fill="rgb(0,0,0)" />
<circle cx="11.5154" cy="15.3361" r="0.5" fill="rgb(0,0,0)" />
<circle cx="7.55164" cy="15.6057" r="0.5" fill="rgb(0,0,0)" />
<circle cx="10.1639" cy="15.0749" r="0.5" fill="rgb(0,0,0)" />
<circle cx="6.36012" cy="12.604" r="0.5" fill="rgb(0,0,0)" />
<circle cx="6.6936" cy="16.5025" r="0.5" fill="rgb(0,0,0)" />
<circle cx="3.92166" cy="3.74249" r="0.5" fill="rgb(0,0,0)" />
<circle cx="15.3015" cy="16.4697" r="0.5" fill="rgb(0,0,0)" />
<circle cx="6.2722" cy="10.4345" r="0.5" fill="rgb(0,0,0)" />
<circle cx="12.4775" cy="16.319" r="0.5" fill="rgb(0,0,0)" />
<circle cx="1.65396" cy="16.4578" r="0.5" fill="rgb(0,0,0)" />
<circle cx="4.26643" cy="16.4921" r="0.5" fill="rgb(0,0,0)" />
<circle cx="3.79341" cy="1.85943" r="0.5" fill="rgb(0,0,0)" />
<circle cx="9.1846" cy="16.3708" r="0.5" fill="rgb(0,0,0)" />
<circle cx="14.0387" cy="17.0073" r="0.5" fill="rgb(0,0,0)" />
<circle cx="7.02253" cy="8.1788" r="0.5" fill="rgb(0,0,0)" />
<circle cx="16.538" cy="16.9747" r="0.5" fill="rgb(0,0,0)" />
<circle cx="2.77909" cy="12.5866" r="0.5" fill="rgb(0,0,0)" />
<circle cx="5.5852" cy="17.2523" r="0.5" fill="rgb(0,0,0)" />
<circle cx="12.8162" cy="17.4491" r="0.5" fill="rgb(0,0,0)" />
<circle cx="8.2157" cy="17.4772" r="0.5" fill="rgb(0,0,0)" />
<circle cx="16.9301" cy="7.36073" r="0.5" fill="rgb(0,0,0)" />
<circle cx="15.2874" cy="17.7946" r="0.5" fill="rgb(0,0,0)" />
<circle cx="17.9325" cy="6.77926" r="0.5" fill="rgb(0,0,0)" />
<circle cx="3.48763" cy="14.6818" r="0.5" fill="rgb(0,0,0)" />
<circle cx="6.99798" cy="17.7241" r="0.5" fill="rgb(0,0,0)" />
<circle cx="11.8212" cy="1.82554" r="0.5" fill="rgb(0,0,0)" />
<circle cx="12.2812" cy="8.19151" r="0.5" fill="rgb(0,0,0)" />
<circle cx="16.4074" cy="15.3963" r="0.5" fill="rgb(0,0,0)" />
<circle cx="2.89208" cy="16.8572" r="0.5" fill="rgb(0,0,0)" />
<circle cx="0.482865" cy="9.36934" r="0.5" fill="rgb(0,0,0)" />
<circle cx="0.886787" cy="11.2918" r="0.5" fill="rgb(0,0,0)" />
<circle cx="17.2076" cy="17.8893" r="0.5" fill="rgb(0,0,0)" />
<circle cx="11.249" cy="17.5958" r="0.5" fill="rgb(0,0,0)" />
<circle cx="17.9416" cy="9.66538" r="0.5" fill="rgb(0,0,0)" />
<circle cx="17.9184" cy="13.3705" r="0.5" fill="rgb(0,0,0)" />
<circle cx="17.9309" cy="11.3807" r="0.5" fill="rgb(0,0,0)" />
<circle cx="18.3645" cy="0.609882" r="0.5" fill="rgb(0,0,0)" />
<circle cx="11.6479" cy="9.52205" r="0.5" fill="rgb(0,0,0)" />
<circle cx="18.3082" cy="3.12338" r="0.5" fill="rgb(0,0,0)" />
<circle cx="4.49439" cy="18.1302" r="0.5" fill="rgb(0,0,0)" />
<circle cx="0.450256" cy="6.30451" r="0.5" fill="rgb(0,0,0)" />
<circle cx="0.598279" cy="4.08601" r="0.5" fill="rgb(0,0,0)" />
<circle cx="16.9794" cy="5.62506" r="0.5" fill="rgb(0,0,0)" />
<circle cx="9.11744" cy="10.7014" r="0.5" fill="rgb(0,0,0)" />
<circle cx="12.6718" cy="18.5339" r="0.5" fill="rgb(0,0,0)" />
<circle cx="17.7971" cy="14.9053" r="0.5" fill="rgb(0,0,0)" />
<circle cx="15.9618" cy="18.5339" r="0.5" fill="rgb(0,0,0)" />
<circle cx="9.98873" cy="17.9738" r="0.5" fill="rgb(0,0,0)" />
<circle cx="0.799863" cy="13.2836" r="0.5" fill="rgb(0,0,0)" />
<circle cx="18.4004" cy="4.82577" r="0.5" fill="rgb(0,0,0)" />
<circle cx="18.2375" cy="8.12251" r="0.5" fill="rgb(0,0,0)" />
<circle cx="18.4464" cy="6.08109" r="0.5" fill="rgb(0,0,0)" />
<circle cx="18.2421" cy="16.0043" r="0.5" fill="rgb(0,0,0)" />
<circle cx="14.2082" cy="18.3051" r="0.5" fill="rgb(0,0,0)" />
<circle cx="0.51235" cy="15.6794" r="0.5" fill="rgb(0,0,0)" />
<circle cx="5.37911" cy="7.69347" r="0.5" fill="rgb(0,0,0)" />
<circle cx="8.38398" cy="18.5487" r="0.5" fill="rgb(0,0,0)" />
<circle cx="10.4283" cy="8.26759" r="0.5" fill="rgb(0,0,0)" />
<circle cx="6.08699" cy="18.4795" r="0.5" fill="rgb(0,0,0)" />
<circle cx="8.35451" cy="8.96269" r="0.5" fill="rgb(0,0,0)" />
<circle cx="0.537939" cy="1.33424" r="0.5" fill="rgb(0,0,0)" />
<circle cx="16.7376" cy="3.1676" r="0.5" fill="rgb(0,0,0)" />
<circle cx="2.08528" cy="0.563442" r="0.5" fill="rgb(0,0,0)" />
<circle cx="0.519634" cy="17.9614" r="0.5" fill="rgb(0,0,0)" />
<circle cx="3.1979" cy="18.3027" r="0.5" fill="rgb(0,0,0)" />
<circle cx="1.75697" cy="18.2246" r="0.5" fill="rgb(0,0,0)" />
<circle cx="18.1376" cy="18.5193" r="0.5" fill="rgb(0,0,0)" />
<circle cx="18.3535" cy="17.2965" r="0.5" fill="rgb(0,0,0)" />
</svg>
