<?xml version="1.0" ?>
<!DOCTYPE svg PUBLIC "-//W3C//DTD SVG 1.1//EN" "http://www.w3.org/Graphics/SVG/1.1/DTD/svg11.dtd">
<svg width="20" height="20" version="1.1" xmlns="http://www.w3.org/2000/svg">
<circle cx="6.07762" cy="0.407198" r="0.5" fill="rgb(0,0,0)" />
<circle cx="12.7988" cy="0.559714" r="0.5" fill="rgb(0,0,0)" />
<circle cx="8.31261" cy="0.533777" r="0.5" fill="rgb(0,0,0)" />
<circle cx="10.5374" cy="0.694587" r="0.5" fill="rgb(0,0,0)" />
<circle cx="7.16584" cy="1.36282" r="0.5" fill="rgb(0,0,0)" />
<circle cx="14.0209" cy="1.7045" r="0.5" fill="rgb(0,0,0)" />
<circle cx="3.79446" cy="1.86104" r="0.5" fill="rgb(0,0,0)" />
<circle cx="16.8806" cy="0.582347" r="0.5" fill="rgb(0,0,0)" />
<circle cx="11.8293" cy="1.81104" r="0.5" fill="rgb(0,0,0)" />
<circle cx="12.8944" cy="2.58347" r="0.5" fill="rgb(0,0,0)" />
<circle cx="7.86602" cy="2.74933" r="0.5" fill="rgb(0,0,0)" />
<circle cx="3.12094" cy="3.02247" r="0.5" fill="rgb(0,0,0)" />
<circle cx="14.3493" cy="3.14259" r="0.5" fill="rgb(0,0,0)" />
<circle cx="3.90942" cy="3.76217" r="0.5" fill="rgb(0,0,0)" />
<circle cx="6.71195" cy="3.623" r="0.5" fill="rgb(0,0,0)" />
<circle cx="2.01675" cy="3.62879" r="0.5" fill="rgb(0,0,0)" />
<circle cx="5.34161" cy="3.98277" r="0.5" fill="rgb(0,0,0)" />
<circle cx="17.5399" cy="4.26148" r="0.5" fill="rgb(0,0,0)" />
<circle cx="6.39742" cy="4.83076" r="0.5" fill="rgb(0,0,0)" />
<circle cx="11.7439" cy="4.10624" r="0.5" fill="rgb(0,0,0)" />
<circle cx="2.65704" cy="4.94652" r="0.5" fill="rgb(0,0,0)" />
<circle cx="5.82765" cy="5.75134" r="0.5" fill="rgb(0,0,0)" />
<circle cx="8.39063" cy="4.31658" r="0.5" fill="rgb(0,0,0)" />
<circle cx="1.97133" cy="6.04095" r="0.5" fill="rgb(0,0,0)" />
<circle cx="16.9776" cy="5.62263" r="0.5" fill="rgb(0,0,0)" />
<circle cx="15.7173" cy="6.06666" r="0.5" fill="rgb(0,0,0)" />
<circle cx="9.16254" cy="5.98151" r="0.5" fill="rgb(0,0,0)" />
<circle cx="5.92244" cy="6.70662" r="0.5" fill="rgb(0,0,0)" />
<circle cx="17.9318" cy="6.77636" r="0.5" fill="rgb(0,0,0)" />
<circle cx="4.32279" cy="6.15078" r="0.5" fill="rgb(0,0,0)" />
<circle cx="12.6403" cy="6.33271" r="0.5" fill="rgb(0,0,0)" />
<circle cx="1.77845" cy="7.18304" r="0.5" fill="rgb(0,0,0)" />
<circle cx="7.48694" cy="5.84897" r="0.5" fill="rgb(0,0,0)" />
<circle cx="11.3827" cy="6.46846" r="0.5" fill="rgb(0,0,0)" />
<circle cx="14.1721" cy="6.75504" r="0.5" fill="rgb(0,0,0)" />
<circle cx="15.156" cy="3.93906" r="0.5" fill="rgb(0,0,0)" />
<circle cx="7.9515" cy="7.12227" r="0.5" fill="rgb(0,0,0)" />
<circle cx="16.9349" cy="7.3417" r="0.5" fill="rgb(0,0,0)" />
<circle cx="2.5709" cy="8.12924" r="0.5" fill="rgb(0,0,0)" />
<circle cx="15.4059" cy="7.50775" r="0.5" fill="rgb(0,0,0)" />
<circle cx="6.32572" cy="7.57362" r="0.5" fill="rgb(0,0,0)" />
<circle cx="14.7889" cy="5.21314" r="0.5" fill="rgb(0,0,0)" />
<circle cx="9.0725" cy="7.85276" r="0.5" fill="rgb(0,0,0)" />
<circle cx="5.14254" cy="7.87992" r="0.5" fill="rgb(0,0,0)" />
<circle cx="10.4155" cy="8.40656" r="0.5" fill="rgb(0,0,0)" />
<circle cx="7.08823" cy="8.42187" r="0.5" fill="rgb(0,0,0)" />
<circle cx="10.2632" cy="4.82468" r="0.5" fill="rgb(0,0,0)" />
<circle cx="16.3348" cy="8.6435" r="0.5" fill="rgb(0,0,0)" />
<circle cx="2.34539" cy="9.08543" r="0.5" fill="rgb(0,0,0)" />
<circle cx="3.83952" cy="8.80121" r="0.5" fill="rgb(0,0,0)" />
<circle cx="5.22163" cy="9.08636" r="0.5" fill="rgb(0,0,0)" />
<circle cx="8.36544" cy="9.02486" r="0.5" fill="rgb(0,0,0)" />
<circle cx="14.6442" cy="9.32148" r="0.5" fill="rgb(0,0,0)" />
<circle cx="11.6816" cy="9.52612" r="0.5" fill="rgb(0,0,0)" />
<circle cx="0.914756" cy="8.16467" r="0.5" fill="rgb(0,0,0)" />
<circle cx="9.83808" cy="9.61679" r="0.5" fill="rgb(0,0,0)" />
<circle cx="1.59013" cy="9.94925" r="0.5" fill="rgb(0,0,0)" />
<circle cx="4.66956" cy="10.3049" r="0.5" fill="rgb(0,0,0)" />
<circle cx="16.3928" cy="10.2455" r="0.5" fill="rgb(0,0,0)" />
<circle cx="7.48979" cy="10.1214" r="0.5" fill="rgb(0,0,0)" />
<circle cx="6.25411" cy="10.433" r="0.5" fill="rgb(0,0,0)" />
<circle cx="3.08334" cy="10.8307" r="0.5" fill="rgb(0,0,0)" />
<circle cx="14.9441" cy="0.6037" r="0.5" fill="rgb(0,0,0)" />
<circle cx="13.236" cy="10.6341" r="0.5" fill="rgb(0,0,0)" />
<circle cx="14.9265" cy="11.0169" r="0.5" fill="rgb(0,0,0)" />
<circle cx="11.4207" cy="11.0361" r="0.5" fill="rgb(0,0,0)" />
<circle cx="4.58475" cy="11.7029" r="0.5" fill="rgb(0,0,0)" />
<circle cx="10.405" cy="12.028" r="0.5" fill="rgb(0,0,0)" />
<circle cx="14.3308" cy="12.4295" r="0.5" fill="rgb(0,0,0)" />
<circle cx="16.3077" cy="12.09" r="0.5" fill="rgb(0,0,0)" />
<circle cx="6.14834" cy="12.389" r="0.5" fill="rgb(0,0,0)" />
<circle cx="9.07321" cy="12.4968" r="0.5" fill="rgb(0,0,0)" />
<circle cx="15.3996" cy="2.44587" r="0.5" fill="rgb(0,0,0)" />
<circle cx="7.70223" cy="12.2944" r="0.5" fill="rgb(0,0,0)" />
<circle cx="15.6406" cy="13.284" r="0.5" fill="rgb(0,0,0)" />
<circle cx="4.36582" cy="13.2303" r="0.5" fill="rgb(0,0,0)" />
<circle cx="14.0857" cy="13.9293" r="0.5" fill="rgb(0,0,0)" />
<circle cx="3.20781" cy="14.2344" r="0.5" fill="rgb(0,0,0)" />
<circle cx="0.497409" cy="6.80374" r="0.5" fill="rgb(0,0,0)" />
<circle cx="0.685855" cy="5.15651" r="0.5" fill="rgb(0,0,0)" />
<circle cx="6.47712" cy="14.1118" r="0.5" fill="rgb(0,0,0)" />
<circle cx="12.546" cy="12.4707" r="0.5" fill="rgb(0,0,0)" />
<circle cx="4.9508" cy="14.7738" r="0.5" fill="rgb(0,0,0)" />
<circle cx="6.07466" cy="2.49605" r="0.5" fill="rgb(0,0,0)" />
<circle cx="1.65482" cy="14.6015" r="0.5" fill="rgb(0,0,0)" />
<circle cx="4.18991" cy="0.597191" r="0.5" fill="rgb(0,0,0)" />
<circle cx="1.96602" cy="2.03649" r="0.5" fill="rgb(0,0,0)" />
<circle cx="15.0152" cy="15.1266" r="0.5" fill="rgb(0,0,0)" />
<circle cx="16.3011" cy="1.71003" r="0.5" fill="rgb(0,0,0)" />
<circle cx="16.4358" cy="15.492" r="0.5" fill="rgb(0,0,0)" />
<circle cx="5.80288" cy="15.7664" r="0.5" fill="rgb(0,0,0)" />
<circle cx="4.19524" cy="15.7912" r="0.5" fill="rgb(0,0,0)" />
<circle cx="2.95278" cy="15.8346" r="0.5" fill="rgb(0,0,0)" />
<circle cx="11.5138" cy="15.3448" r="0.5" fill="rgb(0,0,0)" />
<circle cx="10.1967" cy="15.1456" r="0.5" fill="rgb(0,0,0)" />
<circle cx="7.61971" cy="15.7415" r="0.5" fill="rgb(0,0,0)" />
<circle cx="6.67256" cy="16.4208" r="0.5" fill="rgb(0,0,0)" />
<circle cx="12.4607" cy="16.3253" r="0.5" fill="rgb(0,0,0)" />
<circle cx="4.4919" cy="16.859" r="0.5" fill="rgb(0,0,0)" />
<circle cx="18.0141" cy="1.88027" r="0.5" fill="rgb(0,0,0)" />
<circle cx="14.0379" cy="17.0087" r="0.5" fill="rgb(0,0,0)" />
<circle cx="16.0645" cy="14.2699" r="0.5" fill="rgb(0,0,0)" />
<circle cx="16.5366" cy="16.9949" r="0.5" fill="rgb(0,0,0)" />
<circle cx="12.1059" cy="8.16424" r="0.5" fill="rgb(0,0,0)" />
<circle cx="2.91243" cy="17.1926" r="0.5" fill="rgb(0,0,0)" />
<circle cx="5.67965" cy="17.3189" r="0.5" fill="rgb(0,0,0)" />
<circle cx="3.07664" cy="9.79175" r="0.5" fill="rgb(0,0,0)" />
<circle cx="13.272" cy="15.1644" r="0.5" fill="rgb(0,0,0)" />
<circle cx="12.8163" cy="17.4466" r="0.5" fill="rgb(0,0,0)" />
<circle cx="1.63964" cy="17.6605" r="0.5" fill="rgb(0,0,0)" />
<circle cx="16.7364" cy="3.16717" r="0.5" fill="rgb(0,0,0)" />
<circle cx="4.34744" cy="4.81651" r="0.5" fill="rgb(0,0,0)" />
<circle cx="14.1092" cy="15.8129" r="0.5" fill="rgb(0,0,0)" />
<circle cx="8.21948" cy="17.4932" r="0.5" fill="rgb(0,0,0)" />
<circle cx="10.2739" cy="2.92418" r="0.5" fill="rgb(0,0,0)" />
<circle cx="15.2863" cy="17.7949" r="0.5" fill="rgb(0,0,0)" />
<circle cx="7.00235" cy="17.7312" r="0.5" fill="rgb(0,0,0)" />
<circle cx="17.2167" cy="17.8911" r="0.5" fill="rgb(0,0,0)" />
<circle cx="11.2468" cy="17.6096" r="0.5" fill="rgb(0,0,0)" />
<circle cx="0.44733" cy="9.3516" r="0.5" fill="rgb(0,0,0)" />
<circle cx="0.82027" cy="11.2387" r="0.5" fill="rgb(0,0,0)" />
<circle cx="17.9376" cy="13.3908" r="0.5" fill="rgb(0,0,0)" />
<circle cx="4.53641" cy="18.1844" r="0.5" fill="rgb(0,0,0)" />
<circle cx="18.3645" cy="0.609882" r="0.5" fill="rgb(0,0,0)" />
<circle cx="18.3082" cy="3.12338" r="0.5" fill="rgb(0,0,0)" />
<circle cx="12.6718" cy="18.5339" r="0.5" fill="rgb(0,0,0)" />
<circle cx="15.9612" cy="18.5346" r="0.5" fill="rgb(0,0,0)" />
<circle cx="1.6275" cy="16.4005" r="0.5" fill="rgb(0,0,0)" />
<circle cx="14.2082" cy="18.3052" r="0.5" fill="rgb(0,0,0)" />
<circle cx="9.98875" cy="17.9791" r="0.5" fill="rgb(0,0,0)" />
<circle cx="5.53929" cy="1.44515" r="0.5" fill="rgb(0,0,0)" />
<circle cx="0.815054" cy="13.2566" r="0.5" fill="rgb(0,0,0)" />
<circle cx="15.3065" cy="16.478" r="0.5" fill="rgb(0,0,0)" />
<circle cx="18.0122" cy="11.4652" r="0.5" fill="rgb(0,0,0)" />
<circle cx="0.598009" cy="3.3846" r="0.5" fill="rgb(0,0,0)" />
<circle cx="10.2324" cy="6.88776" r="0.5" fill="rgb(0,0,0)" />
<circle cx="18.4005" cy="4.82577" r="0.5" fill="rgb(0,0,0)" />
<circle cx="12.432" cy="14.0789" r="0.5" fill="rgb(0,0,0)" />
<circle cx="3.23256" cy="18.3681" r="0.5" fill="rgb(0,0,0)" />
<circle cx="18.2421" cy="8.08716" r="0.5" fill="rgb(0,0,0)" />
<circle cx="18.4463" cy="6.07755" r="0.5" fill="rgb(0,0,0)" />
<circle cx="9.14281" cy="1.86253" r="0.5" fill="rgb(0,0,0)" />
<circle cx="9.09352" cy="10.7172" r="0.5" fill="rgb(0,0,0)" />
<circle cx="10.7113" cy="13.4725" r="0.5" fill="rgb(0,0,0)" />
<circle cx="9.23057" cy="16.4014" r="0.5" fill="rgb(0,0,0)" />
<circle cx="18.2482" cy="15.9937" r="0.5" fill="rgb(0,0,0)" />
<circle cx="8.39272" cy="18.5485" r="0.5" fill="rgb(0,0,0)" />
<circle cx="16.1981" cy="4.54248" r="0.5" fill="rgb(0,0,0)" />
<circle cx="8.52682" cy="14.3254" r="0.5" fill="rgb(0,0,0)" />
<circle cx="6.0685" cy="18.4836" r="0.5" fill="rgb(0,0,0)" />
<circle cx="2.54898" cy="12.2922" r="0.5" fill="rgb(0,0,0)" />
<circle cx="0.47589" cy="15.7372" r="0.5" fill="rgb(0,0,0)" />
<circle cx="4.86659" cy="2.74381" r="0.5" fill="rgb(0,0,0)" />
<circle cx="3.47764" cy="7.10779" r="0.5" fill="rgb(0,0,0)" />
<circle cx="0.574523" cy="1.15118" r="0.5" fill="rgb(0,0,0)" />
<circle cx="13.257" cy="3.81347" r="0.5" fill="rgb(0,0,0)" />
<circle cx="2.14341" cy="0.579926" r="0.5" fill="rgb(0,0,0)" />
<circle cx="13.6114" cy="8.29568" r="0.5" fill="rgb(0,0,0)" />
<circle cx="1.63059" cy="18.592" r="0.5" fill="rgb(0,0,0)" />
<circle cx="13.3679" cy="5.10177" r="0.5" fill="rgb(0,0,0)" />
<circle cx="18.0299" cy="9.61775" r="0.5" fill="rgb(0,0,0)" />
<circle cx="0.449848" cy="17.9427" r="0.5" fill="rgb(0,0,0)" />
<circle cx="17.7453" cy="14.9145" r="0.5" fill="rgb(0,0,0)" />
<circle cx="18.1385" cy="18.5196" r="0.5" fill="rgb(0,0,0)" />
<circle cx="18.3542" cy="17.296" r="0.5" fill="rgb(0,0,0)" />
</svg>
