<?xml version="1.0" ?>
<!DOCTYPE svg PUBLIC "-//W3C//DTD SVG 1.1//EN" "http://www.w3.org/Graphics/SVG/1.1/DTD/svg11.dtd">
<svg width="20" height="20" version="1.1" xmlns="http://www.w3.org/2000/svg">
<circle cx="7.52283" cy="0.170583" r="0.5" fill="rgb(0,0,0)" />
<circle cx="10.3721" cy="0.255224" r="0.5" fill="rgb(0,0,0)" />
<circle cx="13.4366" cy="0.295934" r="0.5" fill="rgb(0,0,0)" />
<circle cx="7.54215" cy="0.802657" r="0.5" fill="rgb(0,0,0)" />
<circle cx="12.5264" cy="0.275255" r="0.5" fill="rgb(0,0,0)" />
<circle cx="14.8607" cy="0.712083" r="0.5" fill="rgb(0,0,0)" />
<circle cx="15.8937" cy="0.734848" r="0.5" fill="rgb(0,0,0)" />
<circle cx="9.2478" cy="1.76988" r="0.5" fill="rgb(0,0,0)" />
<circle cx="13.4518" cy="2.27571" r="0.5" fill="rgb(0,0,0)" />
<circle cx="6.74358" cy="0.289969" r="0.5" fill="rgb(0,0,0)" />
<circle cx="11.9209" cy="1.88305" r="0.5" fill="rgb(0,0,0)" />
<circle cx="3.25514" cy="1.68497" r="0.5" fill="rgb(0,0,0)" />
<circle cx="17.2913" cy="1.90581" r="0.5" fill="rgb(0,0,0)" />
<circle cx="13.055" cy="2.68044" r="0.5" fill="rgb(0,0,0)" />
<circle cx="14.2115" cy="2.21084" r="0.5" fill="rgb(0,0,0)" />
<circle cx="12.6353" cy="2.29517" r="0.5" fill="rgb(0,0,0)" />
<circle cx="1.86009" cy="2.48946" r="0.5" fill="rgb(0,0,0)" />
<circle cx="4.09162" cy="2.72938" r="0.5" fill="rgb(0,0,0)" />
<circle cx="6.79571" cy="2.98783" r="0.5" fill="rgb(0,0,0)" />
<circle cx="3.15693" cy="2.90449" r="0.5" fill="rgb(0,0,0)" />
<circle cx="13.5862" cy="3.08774" r="0.5" fill="rgb(0,0,0)" />
<circle cx="10.6016" cy="2.65531" r="0.5" fill="rgb(0,0,0)" />
<circle cx="14.5912" cy="2.98167" r="0.5" fill="rgb(0,0,0)" />
<circle cx="4.38649" cy="3.63722" r="0.5" fill="rgb(0,0,0)" />
<circle cx="5.2934" cy="3.6585" r="0.5" fill="rgb(0,0,0)" />
<circle cx="14.5627" cy="1.38957" r="0.5" fill="rgb(0,0,0)" />
<circle cx="13.8322" cy="3.70814" r="0.5" fill="rgb(0,0,0)" />
<circle cx="6.50037" cy="3.75631" r="0.5" fill="rgb(0,0,0)" />
<circle cx="16.6935" cy="3.5332" r="0.5" fill="rgb(0,0,0)" />
<circle cx="8.3716" cy="3.74736" r="0.5" fill="rgb(0,0,0)" />
<circle cx="7.41562" cy="3.74866" r="0.5" fill="rgb(0,0,0)" />
<circle cx="12.7078" cy="3.52205" r="0.5" fill="rgb(0,0,0)" />
<circle cx="0.547418" cy="3.60697" r="0.5" fill="rgb(0,0,0)" />
<circle cx="9.06748" cy="4.09042" r="0.5" fill="rgb(0,0,0)" />
<circle cx="17.6642" cy="3.95513" r="0.5" fill="rgb(0,0,0)" />
<circle cx="11.6744" cy="3.78679" r="0.5" fill="rgb(0,0,0)" />
<circle cx="2.79858" cy="3.97318" r="0.5" fill="rgb(0,0,0)" />
<circle cx="15.8935" cy="4.47183" r="0.5" fill="rgb(0,0,0)" />
<circle cx="14.6013" cy="4.25532" r="0.5" fill="rgb(0,0,0)" />
<circle cx="4.76992" cy="4.36382" r="0.5" fill="rgb(0,0,0)" />
<circle cx="9.78018" cy="4.45067" r="0.5" fill="rgb(0,0,0)" />
<circle cx="16.6317" cy="4.43689" r="0.5" fill="rgb(0,0,0)" />
<circle cx="6.33837" cy="4.44359" r="0.5" fill="rgb(0,0,0)" />
<circle cx="16.2986" cy="4.92109" r="0.5" fill="rgb(0,0,0)" />
<circle cx="5.41044" cy="4.57377" r="0.5" fill="rgb(0,0,0)" />
<circle cx="13.1963" cy="4.74227" r="0.5" fill="rgb(0,0,0)" />
<circle cx="1.26173" cy="4.85688" r="0.5" fill="rgb(0,0,0)" />
<circle cx="15.5009" cy="5.25177" r="0.5" fill="rgb(0,0,0)" />
<circle cx="4.54279" cy="5.25379" r="0.5" fill="rgb(0,0,0)" />
<circle cx="12.1343" cy="4.77248" r="0.5" fill="rgb(0,0,0)" />
<circle cx="18.4481" cy="1.79056" r="0.5" fill="rgb(0,0,0)" />
<circle cx="2.23728" cy="4.8188" r="0.5" fill="rgb(0,0,0)" />
<circle cx="17.889" cy="1.08135" r="0.5" fill="rgb(0,0,0)" />
<circle cx="14.0683" cy="5.14528" r="0.5" fill="rgb(0,0,0)" />
<circle cx="8.11545" cy="4.86805" r="0.5" fill="rgb(0,0,0)" />
<circle cx="16.2952" cy="5.44074" r="0.5" fill="rgb(0,0,0)" />
<circle cx="4.90951" cy="5.93285" r="0.5" fill="rgb(0,0,0)" />
<circle cx="6.67289" cy="5.57443" r="0.5" fill="rgb(0,0,0)" />
<circle cx="5.81297" cy="5.87765" r="0.5" fill="rgb(0,0,0)" />
<circle cx="9.90726" cy="5.52951" r="0.5" fill="rgb(0,0,0)" />
<circle cx="9.30255" cy="0.538521" r="0.5" fill="rgb(0,0,0)" />
<circle cx="15.6177" cy="5.90674" r="0.5" fill="rgb(0,0,0)" />
<circle cx="16.9735" cy="5.75677" r="0.5" fill="rgb(0,0,0)" />
<circle cx="3.16388" cy="5.37966" r="0.5" fill="rgb(0,0,0)" />
<circle cx="18.3303" cy="5.65716" r="0.5" fill="rgb(0,0,0)" />
<circle cx="10.7473" cy="5.83772" r="0.5" fill="rgb(0,0,0)" />
<circle cx="0.914015" cy="6.25207" r="0.5" fill="rgb(0,0,0)" />
<circle cx="7.46584" cy="6.10139" r="0.5" fill="rgb(0,0,0)" />
<circle cx="10.4127" cy="3.84046" r="0.5" fill="rgb(0,0,0)" />
<circle cx="6.09632" cy="6.48918" r="0.5" fill="rgb(0,0,0)" />
<circle cx="5.77003" cy="2.38763" r="0.5" fill="rgb(0,0,0)" />
<circle cx="7.13317" cy="4.78466" r="0.5" fill="rgb(0,0,0)" />
<circle cx="11.6331" cy="5.75711" r="0.5" fill="rgb(0,0,0)" />
<circle cx="10.473" cy="6.56511" r="0.5" fill="rgb(0,0,0)" />
<circle cx="15.6977" cy="6.69149" r="0.5" fill="rgb(0,0,0)" />
<circle cx="14.6279" cy="0.197027" r="0.5" fill="rgb(0,0,0)" />
<circle cx="3.80342" cy="6.15613" r="0.5" fill="rgb(0,0,0)" />
<circle cx="17.4472" cy="4.96043" r="0.5" fill="rgb(0,0,0)" />
<circle cx="5.19622" cy="6.61136" r="0.5" fill="rgb(0,0,0)" />
<circle cx="17.0795" cy="6.60796" r="0.5" fill="rgb(0,0,0)" />
<circle cx="6.58985" cy="6.89753" r="0.5" fill="rgb(0,0,0)" />
<circle cx="13.4953" cy="1.71859" r="0.5" fill="rgb(0,0,0)" />
<circle cx="8.5542" cy="6.91391" r="0.5" fill="rgb(0,0,0)" />
<circle cx="13.5849" cy="6.95279" r="0.5" fill="rgb(0,0,0)" />
<circle cx="1.55354" cy="7.19729" r="0.5" fill="rgb(0,0,0)" />
<circle cx="6.57659" cy="7.56178" r="0.5" fill="rgb(0,0,0)" />
<circle cx="2.77621" cy="7.00766" r="0.5" fill="rgb(0,0,0)" />
<circle cx="16.1284" cy="7.44617" r="0.5" fill="rgb(0,0,0)" />
<circle cx="18.1748" cy="7.07605" r="0.5" fill="rgb(0,0,0)" />
<circle cx="5.41025" cy="7.47501" r="0.5" fill="rgb(0,0,0)" />
<circle cx="4.26163" cy="7.42172" r="0.5" fill="rgb(0,0,0)" />
<circle cx="10.1361" cy="7.50099" r="0.5" fill="rgb(0,0,0)" />
<circle cx="1.55691" cy="5.65886" r="0.5" fill="rgb(0,0,0)" />
<circle cx="11.2044" cy="7.37773" r="0.5" fill="rgb(0,0,0)" />
<circle cx="6.08349" cy="8.14259" r="0.5" fill="rgb(0,0,0)" />
<circle cx="3.44333" cy="7.94588" r="0.5" fill="rgb(0,0,0)" />
<circle cx="7.18578" cy="8.12585" r="0.5" fill="rgb(0,0,0)" />
<circle cx="13.372" cy="8.09196" r="0.5" fill="rgb(0,0,0)" />
<circle cx="0.554141" cy="2.44578" r="0.5" fill="rgb(0,0,0)" />
<circle cx="2.79529" cy="8.49745" r="0.5" fill="rgb(0,0,0)" />
<circle cx="4.06865" cy="8.69929" r="0.5" fill="rgb(0,0,0)" />
<circle cx="14.7044" cy="8.63445" r="0.5" fill="rgb(0,0,0)" />
<circle cx="2.32626" cy="3.0982" r="0.5" fill="rgb(0,0,0)" />
<circle cx="15.7847" cy="8.51178" r="0.5" fill="rgb(0,0,0)" />
<circle cx="8.23383" cy="8.84746" r="0.5" fill="rgb(0,0,0)" />
<circle cx="10.114" cy="8.54909" r="0.5" fill="rgb(0,0,0)" />
<circle cx="15.3222" cy="9.12387" r="0.5" fill="rgb(0,0,0)" />
<circle cx="6.25155" cy="9.01607" r="0.5" fill="rgb(0,0,0)" />
<circle cx="12.5655" cy="8.98257" r="0.5" fill="rgb(0,0,0)" />
<circle cx="13.88" cy="9.04866" r="0.5" fill="rgb(0,0,0)" />
<circle cx="2.51857" cy="9.31241" r="0.5" fill="rgb(0,0,0)" />
<circle cx="3.45011" cy="9.46957" r="0.5" fill="rgb(0,0,0)" />
<circle cx="5.11817" cy="8.58164" r="0.5" fill="rgb(0,0,0)" />
<circle cx="1.52685" cy="9.21853" r="0.5" fill="rgb(0,0,0)" />
<circle cx="0.513991" cy="8.57878" r="0.5" fill="rgb(0,0,0)" />
<circle cx="15.9135" cy="2.51416" r="0.5" fill="rgb(0,0,0)" />
<circle cx="11.1142" cy="9.09568" r="0.5" fill="rgb(0,0,0)" />
<circle cx="17.0194" cy="9.2644" r="0.5" fill="rgb(0,0,0)" />
<circle cx="9.69075" cy="9.28677" r="0.5" fill="rgb(0,0,0)" />
<circle cx="8.07578" cy="9.89644" r="0.5" fill="rgb(0,0,0)" />
<circle cx="8.6872" cy="8.12302" r="0.5" fill="rgb(0,0,0)" />
<circle cx="9.15013" cy="9.85894" r="0.5" fill="rgb(0,0,0)" />
<circle cx="2.89105" cy="9.76794" r="0.5" fill="rgb(0,0,0)" />
<circle cx="6.84023" cy="2.10139" r="0.5" fill="rgb(0,0,0)" />
<circle cx="14.7135" cy="9.80696" r="0.5" fill="rgb(0,0,0)" />
<circle cx="5.65388" cy="10.0138" r="0.5" fill="rgb(0,0,0)" />
<circle cx="6.12133" cy="1.70448" r="0.5" fill="rgb(0,0,0)" />
<circle cx="1.93217" cy="8.42925" r="0.5" fill="rgb(0,0,0)" />
<circle cx="1.90546" cy="10.0669" r="0.5" fill="rgb(0,0,0)" />
<circle cx="13.7853" cy="4.42411" r="0.5" fill="rgb(0,0,0)" />
<circle cx="4.51623" cy="10.2537" r="0.5" fill="rgb(0,0,0)" />
<circle cx="4.521" cy="2.06126" r="0.5" fill="rgb(0,0,0)" />
<circle cx="6.29265" cy="10.1859" r="0.5" fill="rgb(0,0,0)" />
<circle cx="6.73142" cy="10.0553" r="0.5" fill="rgb(0,0,0)" />
<circle cx="7.11801" cy="10.4484" r="0.5" fill="rgb(0,0,0)" />
<circle cx="13.5082" cy="1.0234" r="0.5" fill="rgb(0,0,0)" />
<circle cx="7.56523" cy="10.8529" r="0.5" fill="rgb(0,0,0)" />
<circle cx="0.362231" cy="4.34737" r="0.5" fill="rgb(0,0,0)" />
<circle cx="0.383534" cy="6.99966" r="0.5" fill="rgb(0,0,0)" />
<circle cx="0.355837" cy="5.35095" r="0.5" fill="rgb(0,0,0)" />
<circle cx="4.62154" cy="1.3508" r="0.5" fill="rgb(0,0,0)" />
<circle cx="17.0768" cy="10.4624" r="0.5" fill="rgb(0,0,0)" />
<circle cx="1.53346" cy="3.69181" r="0.5" fill="rgb(0,0,0)" />
<circle cx="15.7116" cy="10.5719" r="0.5" fill="rgb(0,0,0)" />
<circle cx="4.42505" cy="10.978" r="0.5" fill="rgb(0,0,0)" />
<circle cx="14.4546" cy="7.80109" r="0.5" fill="rgb(0,0,0)" />
<circle cx="14.1834" cy="10.8782" r="0.5" fill="rgb(0,0,0)" />
<circle cx="15.4086" cy="3.88112" r="0.5" fill="rgb(0,0,0)" />
<circle cx="2.58183" cy="11.0582" r="0.5" fill="rgb(0,0,0)" />
<circle cx="4.93606" cy="9.5569" r="0.5" fill="rgb(0,0,0)" />
<circle cx="3.52519" cy="11.3254" r="0.5" fill="rgb(0,0,0)" />
<circle cx="3.75146" cy="10.1463" r="0.5" fill="rgb(0,0,0)" />
<circle cx="8.10029" cy="11.5436" r="0.5" fill="rgb(0,0,0)" />
<circle cx="10.3956" cy="1.3505" r="0.5" fill="rgb(0,0,0)" />
<circle cx="10.6153" cy="10.4919" r="0.5" fill="rgb(0,0,0)" />
<circle cx="1.28562" cy="10.9892" r="0.5" fill="rgb(0,0,0)" />
<circle cx="14.9721" cy="11.3455" r="0.5" fill="rgb(0,0,0)" />
<circle cx="7.36153" cy="9.03391" r="0.5" fill="rgb(0,0,0)" />
<circle cx="9.3539" cy="11.6795" r="0.5" fill="rgb(0,0,0)" />
<circle cx="2.11426" cy="11.8554" r="0.5" fill="rgb(0,0,0)" />
<circle cx="13.6578" cy="12.0802" r="0.5" fill="rgb(0,0,0)" />
<circle cx="8.28263" cy="12.1631" r="0.5" fill="rgb(0,0,0)" />
<circle cx="11.2148" cy="0.689553" r="0.5" fill="rgb(0,0,0)" />
<circle cx="11.5819" cy="11.5468" r="0.5" fill="rgb(0,0,0)" />
<circle cx="4.2535" cy="12.0288" r="0.5" fill="rgb(0,0,0)" />
<circle cx="12.7903" cy="11.4989" r="0.5" fill="rgb(0,0,0)" />
<circle cx="17.558" cy="12.3882" r="0.5" fill="rgb(0,0,0)" />
<circle cx="10.5704" cy="12.1829" r="0.5" fill="rgb(0,0,0)" />
<circle cx="15.747" cy="12.0988" r="0.5" fill="rgb(0,0,0)" />
<circle cx="16.7177" cy="11.8955" r="0.5" fill="rgb(0,0,0)" />
<circle cx="15.0077" cy="12.5494" r="0.5" fill="rgb(0,0,0)" />
<circle cx="5.04049" cy="12.398" r="0.5" fill="rgb(0,0,0)" />
<circle cx="9.56913" cy="12.5493" r="0.5" fill="rgb(0,0,0)" />
<circle cx="12.4354" cy="7.16307" r="0.5" fill="rgb(0,0,0)" />
<circle cx="1.47976" cy="12.446" r="0.5" fill="rgb(0,0,0)" />
<circle cx="6.75496" cy="12.5276" r="0.5" fill="rgb(0,0,0)" />
<circle cx="8.29547" cy="12.954" r="0.5" fill="rgb(0,0,0)" />
<circle cx="7.69366" cy="7.14885" r="0.5" fill="rgb(0,0,0)" />
<circle cx="5.66408" cy="13.0407" r="0.5" fill="rgb(0,0,0)" />
<circle cx="13.5239" cy="13.1463" r="0.5" fill="rgb(0,0,0)" />
<circle cx="10.3626" cy="13.3727" r="0.5" fill="rgb(0,0,0)" />
<circle cx="3.96167" cy="13.3525" r="0.5" fill="rgb(0,0,0)" />
<circle cx="12.6285" cy="13.2064" r="0.5" fill="rgb(0,0,0)" />
<circle cx="5.82505" cy="0.370705" r="0.5" fill="rgb(0,0,0)" />
<circle cx="4.46808" cy="0.471097" r="0.5" fill="rgb(0,0,0)" />
<circle cx="4.78323" cy="13.695" r="0.5" fill="rgb(0,0,0)" />
<circle cx="14.599" cy="13.5799" r="0.5" fill="rgb(0,0,0)" />
<circle cx="8.61127" cy="9.28645" r="0.5" fill="rgb(0,0,0)" />
<circle cx="11.9634" cy="10.2048" r="0.5" fill="rgb(0,0,0)" />
<circle cx="3.17629" cy="12.3792" r="0.5" fill="rgb(0,0,0)" />
<circle cx="15.2992" cy="13.5714" r="0.5" fill="rgb(0,0,0)" />
<circle cx="1.06585" cy="13.4461" r="0.5" fill="rgb(0,0,0)" />
<circle cx="11.5337" cy="13.1493" r="0.5" fill="rgb(0,0,0)" />
<circle cx="6.35937" cy="11.6044" r="0.5" fill="rgb(0,0,0)" />
<circle cx="2.4663" cy="13.3693" r="0.5" fill="rgb(0,0,0)" />
<circle cx="7.84606" cy="13.7907" r="0.5" fill="rgb(0,0,0)" />
<circle cx="15.0935" cy="4.89214" r="0.5" fill="rgb(0,0,0)" />
<circle cx="9.22572" cy="13.6858" r="0.5" fill="rgb(0,0,0)" />
<circle cx="13.4948" cy="14.1588" r="0.5" fill="rgb(0,0,0)" />
<circle cx="5.51242" cy="14.028" r="0.5" fill="rgb(0,0,0)" />
<circle cx="3.27018" cy="14.2377" r="0.5" fill="rgb(0,0,0)" />
<circle cx="3.87872" cy="4.45915" r="0.5" fill="rgb(0,0,0)" />
<circle cx="16.197" cy="13.5411" r="0.5" fill="rgb(0,0,0)" />
<circle cx="5.5993" cy="1.30818" r="0.5" fill="rgb(0,0,0)" />
<circle cx="5.06955" cy="14.5508" r="0.5" fill="rgb(0,0,0)" />
<circle cx="8.82423" cy="5.80401" r="0.5" fill="rgb(0,0,0)" />
<circle cx="14.2402" cy="12.8898" r="0.5" fill="rgb(0,0,0)" />
<circle cx="6.92702" cy="13.9869" r="0.5" fill="rgb(0,0,0)" />
<circle cx="15.4567" cy="14.5094" r="0.5" fill="rgb(0,0,0)" />
<circle cx="6.13143" cy="14.3917" r="0.5" fill="rgb(0,0,0)" />
<circle cx="18.2747" cy="9.30624" r="0.5" fill="rgb(0,0,0)" />
<circle cx="4.21683" cy="14.5413" r="0.5" fill="rgb(0,0,0)" />
<circle cx="8.47239" cy="14.4742" r="0.5" fill="rgb(0,0,0)" />
<circle cx="17.1206" cy="14.1727" r="0.5" fill="rgb(0,0,0)" />
<circle cx="12.5953" cy="14.4033" r="0.5" fill="rgb(0,0,0)" />
<circle cx="1.73694" cy="14.4116" r="0.5" fill="rgb(0,0,0)" />
<circle cx="3.94699" cy="15.1765" r="0.5" fill="rgb(0,0,0)" />
<circle cx="9.3568" cy="8.01897" r="0.5" fill="rgb(0,0,0)" />
<circle cx="13.4779" cy="15.0524" r="0.5" fill="rgb(0,0,0)" />
<circle cx="11.8816" cy="0.79009" r="0.5" fill="rgb(0,0,0)" />
<circle cx="4.90741" cy="15.2003" r="0.5" fill="rgb(0,0,0)" />
<circle cx="10.0968" cy="14.7842" r="0.5" fill="rgb(0,0,0)" />
<circle cx="3.22631" cy="15.1376" r="0.5" fill="rgb(0,0,0)" />
<circle cx="11.0283" cy="14.4937" r="0.5" fill="rgb(0,0,0)" />
<circle cx="14.5044" cy="5.70873" r="0.5" fill="rgb(0,0,0)" />
<circle cx="5.58178" cy="15.3851" r="0.5" fill="rgb(0,0,0)" />
<circle cx="6.54275" cy="15.331" r="0.5" fill="rgb(0,0,0)" />
<circle cx="0.924623" cy="15.2867" r="0.5" fill="rgb(0,0,0)" />
<circle cx="15.0484" cy="15.3241" r="0.5" fill="rgb(0,0,0)" />
<circle cx="6.73122" cy="1.14875" r="0.5" fill="rgb(0,0,0)" />
<circle cx="7.68342" cy="15.1246" r="0.5" fill="rgb(0,0,0)" />
<circle cx="1.80536" cy="1.35457" r="0.5" fill="rgb(0,0,0)" />
<circle cx="2.50486" cy="15.1926" r="0.5" fill="rgb(0,0,0)" />
<circle cx="18.2303" cy="11.2765" r="0.5" fill="rgb(0,0,0)" />
<circle cx="11.5674" cy="14.9189" r="0.5" fill="rgb(0,0,0)" />
<circle cx="14.3284" cy="14.3561" r="0.5" fill="rgb(0,0,0)" />
<circle cx="4.68941" cy="15.8173" r="0.5" fill="rgb(0,0,0)" />
<circle cx="1.72369" cy="15.8804" r="0.5" fill="rgb(0,0,0)" />
<circle cx="8.35154" cy="0.565801" r="0.5" fill="rgb(0,0,0)" />
<circle cx="3.62218" cy="3.5993" r="0.5" fill="rgb(0,0,0)" />
<circle cx="1.20988" cy="7.93277" r="0.5" fill="rgb(0,0,0)" />
<circle cx="5.67287" cy="16.0781" r="0.5" fill="rgb(0,0,0)" />
<circle cx="16.2417" cy="15.3526" r="0.5" fill="rgb(0,0,0)" />
<circle cx="14.2718" cy="15.722" r="0.5" fill="rgb(0,0,0)" />
<circle cx="11.8698" cy="8.19585" r="0.5" fill="rgb(0,0,0)" />
<circle cx="13.2662" cy="15.7821" r="0.5" fill="rgb(0,0,0)" />
<circle cx="3.31188" cy="15.9363" r="0.5" fill="rgb(0,0,0)" />
<circle cx="11.6053" cy="2.71611" r="0.5" fill="rgb(0,0,0)" />
<circle cx="10.118" cy="15.7868" r="0.5" fill="rgb(0,0,0)" />
<circle cx="4.02344" cy="16.0524" r="0.5" fill="rgb(0,0,0)" />
<circle cx="1.36407" cy="16.7263" r="0.5" fill="rgb(0,0,0)" />
<circle cx="15.2984" cy="2.60073" r="0.5" fill="rgb(0,0,0)" />
<circle cx="8.7996" cy="16.222" r="0.5" fill="rgb(0,0,0)" />
<circle cx="0.605748" cy="10.2013" r="0.5" fill="rgb(0,0,0)" />
<circle cx="7.32594" cy="16.1678" r="0.5" fill="rgb(0,0,0)" />
<circle cx="17.942" cy="12.8891" r="0.5" fill="rgb(0,0,0)" />
<circle cx="6.53361" cy="16.4643" r="0.5" fill="rgb(0,0,0)" />
<circle cx="16.7276" cy="8.43198" r="0.5" fill="rgb(0,0,0)" />
<circle cx="8.46004" cy="10.797" r="0.5" fill="rgb(0,0,0)" />
<circle cx="17.2325" cy="16.2138" r="0.5" fill="rgb(0,0,0)" />
<circle cx="5.57039" cy="11.1153" r="0.5" fill="rgb(0,0,0)" />
<circle cx="2.01768" cy="16.8683" r="0.5" fill="rgb(0,0,0)" />
<circle cx="17.2548" cy="7.71351" r="0.5" fill="rgb(0,0,0)" />
<circle cx="1.41228" cy="17.3843" r="0.5" fill="rgb(0,0,0)" />
<circle cx="11.0548" cy="16.6335" r="0.5" fill="rgb(0,0,0)" />
<circle cx="4.66747" cy="16.7106" r="0.5" fill="rgb(0,0,0)" />
<circle cx="5.60045" cy="16.7507" r="0.5" fill="rgb(0,0,0)" />
<circle cx="15.8273" cy="16.9128" r="0.5" fill="rgb(0,0,0)" />
<circle cx="12.0311" cy="15.5923" r="0.5" fill="rgb(0,0,0)" />
<circle cx="0.601409" cy="16.9659" r="0.5" fill="rgb(0,0,0)" />
<circle cx="14.241" cy="17.0146" r="0.5" fill="rgb(0,0,0)" />
<circle cx="15.0683" cy="16.4752" r="0.5" fill="rgb(0,0,0)" />
<circle cx="12.3625" cy="17.3014" r="0.5" fill="rgb(0,0,0)" />
<circle cx="7.77747" cy="17.0666" r="0.5" fill="rgb(0,0,0)" />
<circle cx="16.3678" cy="1.59254" r="0.5" fill="rgb(0,0,0)" />
<circle cx="13.4384" cy="17.2447" r="0.5" fill="rgb(0,0,0)" />
<circle cx="7.78113" cy="2.75916" r="0.5" fill="rgb(0,0,0)" />
<circle cx="9.67158" cy="3.4332" r="0.5" fill="rgb(0,0,0)" />
<circle cx="5.95121" cy="3.33156" r="0.5" fill="rgb(0,0,0)" />
<circle cx="4.30656" cy="6.62212" r="0.5" fill="rgb(0,0,0)" />
<circle cx="14.5294" cy="6.65408" r="0.5" fill="rgb(0,0,0)" />
<circle cx="16.9154" cy="17.2324" r="0.5" fill="rgb(0,0,0)" />
<circle cx="12.617" cy="1.27893" r="0.5" fill="rgb(0,0,0)" />
<circle cx="2.8629" cy="16.6774" r="0.5" fill="rgb(0,0,0)" />
<circle cx="5.95833" cy="17.2187" r="0.5" fill="rgb(0,0,0)" />
<circle cx="4.21376" cy="17.2671" r="0.5" fill="rgb(0,0,0)" />
<circle cx="0.270919" cy="9.46305" r="0.5" fill="rgb(0,0,0)" />
<circle cx="14.4103" cy="17.8071" r="0.5" fill="rgb(0,0,0)" />
<circle cx="11.6632" cy="17.5349" r="0.5" fill="rgb(0,0,0)" />
<circle cx="3.25336" cy="10.4779" r="0.5" fill="rgb(0,0,0)" />
<circle cx="8.91516" cy="17.3496" r="0.5" fill="rgb(0,0,0)" />
<circle cx="15.9421" cy="17.8463" r="0.5" fill="rgb(0,0,0)" />
<circle cx="9.60602" cy="2.63066" r="0.5" fill="rgb(0,0,0)" />
<circle cx="1.90969" cy="17.7943" r="0.5" fill="rgb(0,0,0)" />
<circle cx="1.29008" cy="17.8631" r="0.5" fill="rgb(0,0,0)" />
<circle cx="9.95" cy="17.2797" r="0.5" fill="rgb(0,0,0)" />
<circle cx="15.2868" cy="7.59629" r="0.5" fill="rgb(0,0,0)" />
<circle cx="6.63802" cy="17.5913" r="0.5" fill="rgb(0,0,0)" />
<circle cx="15.0977" cy="17.9092" r="0.5" fill="rgb(0,0,0)" />
<circle cx="10.9694" cy="17.8824" r="0.5" fill="rgb(0,0,0)" />
<circle cx="7.92747" cy="17.9434" r="0.5" fill="rgb(0,0,0)" />
<circle cx="7.87955" cy="1.71066" r="0.5" fill="rgb(0,0,0)" />
<circle cx="18.3696" cy="17.173" r="0.5" fill="rgb(0,0,0)" />
<circle cx="12.999" cy="17.995" r="0.5" fill="rgb(0,0,0)" />
<circle cx="17.7642" cy="17.9596" r="0.5" fill="rgb(0,0,0)" />
<circle cx="9.39762" cy="6.70528" r="0.5" fill="rgb(0,0,0)" />
<circle cx="2.59743" cy="17.7502" r="0.5" fill="rgb(0,0,0)" />
<circle cx="15.8476" cy="9.58627" r="0.5" fill="rgb(0,0,0)" />
<circle cx="9.01816" cy="15.0575" r="0.5" fill="rgb(0,0,0)" />
<circle cx="18.4105" cy="18.3549" r="0.5" fill="rgb(0,0,0)" />
<circle cx="10.7262" cy="4.73454" r="0.5" fill="rgb(0,0,0)" />
<circle cx="18.5037" cy="4.50806" r="0.5" fill="rgb(0,0,0)" />
<circle cx="13.6072" cy="10.3309" r="0.5" fill="rgb(0,0,0)" />
<circle cx="7.29665" cy="11.8202" r="0.5" fill="rgb(0,0,0)" />
<circle cx="18.4416" cy="3.23595" r="0.5" fill="rgb(0,0,0)" />
<circle cx="16.8179" cy="2.62331" r="0.5" fill="rgb(0,0,0)" />
<circle cx="3.77699" cy="17.8386" r="0.5" fill="rgb(0,0,0)" />
<circle cx="4.07146" cy="9.56872" r="0.5" fill="rgb(0,0,0)" />
<circle cx="17.0705" cy="18.3655" r="0.5" fill="rgb(0,0,0)" />
<circle cx="13.6031" cy="18.473" r="0.5" fill="rgb(0,0,0)" />
<circle cx="12.1748" cy="18.3496" r="0.5" fill="rgb(0,0,0)" />
<circle cx="5.1224" cy="18.2104" r="0.5" fill="rgb(0,0,0)" />
<circle cx="14.3004" cy="18.5731" r="0.5" fill="rgb(0,0,0)" />
<circle cx="10.175" cy="14.0164" r="0.5" fill="rgb(0,0,0)" />
<circle cx="12.6839" cy="16.4237" r="0.5" fill="rgb(0,0,0)" />
<circle cx="0.413954" cy="11.6548" r="0.5" fill="rgb(0,0,0)" />
<circle cx="0.315555" cy="12.9805" r="0.5" fill="rgb(0,0,0)" />
<circle cx="16.4181" cy="18.5712" r="0.5" fill="rgb(0,0,0)" />
<circle cx="17.8354" cy="14.9174" r="0.5" fill="rgb(0,0,0)" />
<circle cx="8.93486" cy="18.4558" r="0.5" fill="rgb(0,0,0)" />
<circle cx="10.1621" cy="18.4495" r="0.5" fill="rgb(0,0,0)" />
<circle cx="9.43065" cy="10.6167" r="0.5" fill="rgb(0,0,0)" />
<circle cx="0.375551" cy="16.071" r="0.5" fill="rgb(0,0,0)" />
<circle cx="0.384918" cy="14.4881" r="0.5" fill="rgb(0,0,0)" />
<circle cx="18.4967" cy="15.7505" r="0.5" fill="rgb(0,0,0)" />
<circle cx="18.5546" cy="13.3552" r="0.5" fill="rgb(0,0,0)" />
<circle cx="7.90266" cy="8.15007" r="0.5" fill="rgb(0,0,0)" />
<circle cx="12.668" cy="18.7173" r="0.5" fill="rgb(0,0,0)" />
<circle cx="11.3327" cy="18.601" r="0.5" fill="rgb(0,0,0)" />
<circle cx="17.2618" cy="13.3197" r="0.5" fill="rgb(0,0,0)" />
<circle cx="7.68793" cy="18.5931" r="0.5" fill="rgb(0,0,0)" />
<circle cx="5.87149" cy="5.14176" r="0.5" fill="rgb(0,0,0)" />
<circle cx="13.0114" cy="9.80581" r="0.5" fill="rgb(0,0,0)" />
<circle cx="6.44114" cy="18.5083" r="0.5" fill="rgb(0,0,0)" />
<circle cx="3.40482" cy="18.5392" r="0.5" fill="rgb(0,0,0)" />
<circle cx="14.9307" cy="18.66" r="0.5" fill="rgb(0,0,0)" />
<circle cx="15.6779" cy="18.5924" r="0.5" fill="rgb(0,0,0)" />
<circle cx="0.633741" cy="0.731635" r="0.5" fill="rgb(0,0,0)" />
<circle cx="2.69676" cy="0.455908" r="0.5" fill="rgb(0,0,0)" />
<circle cx="0.208251" cy="17.7981" r="0.5" fill="rgb(0,0,0)" />
<circle cx="0.517615" cy="18.3564" r="0.5" fill="rgb(0,0,0)" />
<circle cx="7.33745" cy="9.71928" r="0.5" fill="rgb(0,0,0)" />
<circle cx="1.95329" cy="18.6182" r="0.5" fill="rgb(0,0,0)" />
<circle cx="8.75506" cy="2.88378" r="0.5" fill="rgb(0,0,0)" />
<circle cx="1.04326" cy="18.5425" r="0.5" fill="rgb(0,0,0)" />
<circle cx="5.0431" cy="2.90772" r="0.5" fill="rgb(0,0,0)" />
<circle cx="9.17888" cy="4.96722" r="0.5" fill="rgb(0,0,0)" />
<circle cx="18.1003" cy="18.7406" r="0.5" fill="rgb(0,0,0)" />
<circle cx="18.7837" cy="18.2194" r="0.5" fill="rgb(0,0,0)" />
<circle cx="18.0917" cy="2.58128" r="0.5" fill="rgb(0,0,0)" />
<circle cx="18.5153" cy="8.03923" r="0.5" fill="rgb(0,0,0)" />
<circle cx="12.9567" cy="5.87741" r="0.5" fill="rgb(0,0,0)" />
<circle cx="18.6689" cy="6.52264" r="0.5" fill="rgb(0,0,0)" />
<circle cx="18.5546" cy="0.44053" r="0.5" fill="rgb(0,0,0)" />
<circle cx="2.07936" cy="6.31949" r="0.5" fill="rgb(0,0,0)" />
<circle cx="6.52419" cy="13.1635" r="0.5" fill="rgb(0,0,0)" />
<circle cx="17.2085" cy="0.403704" r="0.5" fill="rgb(0,0,0)" />
</svg>
