<?xml version="1.0" ?>
<!DOCTYPE svg PUBLIC "-//W3C//DTD SVG 1.1//EN" "http://www.w3.org/Graphics/SVG/1.1/DTD/svg11.dtd">
<svg width="20" height="20" version="1.1" xmlns="http://www.w3.org/2000/svg">
<circle cx="16.834" cy="0.627589" r="0.5" fill="rgb(0,0,0)" />
<circle cx="12.7203" cy="0.591559" r="0.5" fill="rgb(0,0,0)" />
<circle cx="8.26197" cy="0.573822" r="0.5" fill="rgb(0,0,0)" />
<circle cx="10.5833" cy="0.755457" r="0.5" fill="rgb(0,0,0)" />
<circle cx="1.82787" cy="2.07064" r="0.5" fill="rgb(0,0,0)" />
<circle cx="12.1304" cy="2.09515" r="0.5" fill="rgb(0,0,0)" />
<circle cx="16.5126" cy="2.09697" r="0.5" fill="rgb(0,0,0)" />
<circle cx="7.7578" cy="2.69974" r="0.5" fill="rgb(0,0,0)" />
<circle cx="18.3562" cy="0.596098" r="0.5" fill="rgb(0,0,0)" />
<circle cx="14.39" cy="3.19906" r="0.5" fill="rgb(0,0,0)" />
<circle cx="2.1193" cy="3.4574" r="0.5" fill="rgb(0,0,0)" />
<circle cx="15.2089" cy="3.92096" r="0.5" fill="rgb(0,0,0)" />
<circle cx="17.2711" cy="3.77304" r="0.5" fill="rgb(0,0,0)" />
<circle cx="3.86289" cy="3.92013" r="0.5" fill="rgb(0,0,0)" />
<circle cx="5.23065" cy="3.92371" r="0.5" fill="rgb(0,0,0)" />
<circle cx="16.2581" cy="4.29057" r="0.5" fill="rgb(0,0,0)" />
<circle cx="11.7045" cy="4.0841" r="0.5" fill="rgb(0,0,0)" />
<circle cx="8.37301" cy="4.40785" r="0.5" fill="rgb(0,0,0)" />
<circle cx="10.2554" cy="2.95631" r="0.5" fill="rgb(0,0,0)" />
<circle cx="6.08635" cy="5.12113" r="0.5" fill="rgb(0,0,0)" />
<circle cx="10.1323" cy="4.93858" r="0.5" fill="rgb(0,0,0)" />
<circle cx="9.12555" cy="1.85534" r="0.5" fill="rgb(0,0,0)" />
<circle cx="17.0098" cy="5.56516" r="0.5" fill="rgb(0,0,0)" />
<circle cx="1.6739" cy="5.74195" r="0.5" fill="rgb(0,0,0)" />
<circle cx="7.36802" cy="5.91982" r="0.5" fill="rgb(0,0,0)" />
<circle cx="9.87258" cy="6.60211" r="0.5" fill="rgb(0,0,0)" />
<circle cx="8.33485" cy="6.65094" r="0.5" fill="rgb(0,0,0)" />
<circle cx="18.0414" cy="1.85489" r="0.5" fill="rgb(0,0,0)" />
<circle cx="12.5941" cy="6.32682" r="0.5" fill="rgb(0,0,0)" />
<circle cx="14.1279" cy="6.78452" r="0.5" fill="rgb(0,0,0)" />
<circle cx="1.75743" cy="7.12973" r="0.5" fill="rgb(0,0,0)" />
<circle cx="11.3003" cy="6.59771" r="0.5" fill="rgb(0,0,0)" />
<circle cx="17.0221" cy="7.26868" r="0.5" fill="rgb(0,0,0)" />
<circle cx="2.55648" cy="8.12496" r="0.5" fill="rgb(0,0,0)" />
<circle cx="13.2037" cy="3.52983" r="0.5" fill="rgb(0,0,0)" />
<circle cx="15.4485" cy="7.48741" r="0.5" fill="rgb(0,0,0)" />
<circle cx="7.16872" cy="8.24105" r="0.5" fill="rgb(0,0,0)" />
<circle cx="2.3768" cy="9.07868" r="0.5" fill="rgb(0,0,0)" />
<circle cx="10.3933" cy="8.34513" r="0.5" fill="rgb(0,0,0)" />
<circle cx="15.716" cy="6.01472" r="0.5" fill="rgb(0,0,0)" />
<circle cx="12.2714" cy="8.20174" r="0.5" fill="rgb(0,0,0)" />
<circle cx="16.3338" cy="8.63465" r="0.5" fill="rgb(0,0,0)" />
<circle cx="0.757456" cy="8.05758" r="0.5" fill="rgb(0,0,0)" />
<circle cx="5.19573" cy="8.93612" r="0.5" fill="rgb(0,0,0)" />
<circle cx="13.9683" cy="8.60639" r="0.5" fill="rgb(0,0,0)" />
<circle cx="3.87542" cy="8.92191" r="0.5" fill="rgb(0,0,0)" />
<circle cx="2.99334" cy="9.89102" r="0.5" fill="rgb(0,0,0)" />
<circle cx="11.544" cy="9.50624" r="0.5" fill="rgb(0,0,0)" />
<circle cx="9.42298" cy="9.48411" r="0.5" fill="rgb(0,0,0)" />
<circle cx="8.8705" cy="8.03245" r="0.5" fill="rgb(0,0,0)" />
<circle cx="1.51429" cy="9.86745" r="0.5" fill="rgb(0,0,0)" />
<circle cx="6.79125" cy="1.11975" r="0.5" fill="rgb(0,0,0)" />
<circle cx="15.8115" cy="9.9649" r="0.5" fill="rgb(0,0,0)" />
<circle cx="7.66906" cy="9.83385" r="0.5" fill="rgb(0,0,0)" />
<circle cx="9.04015" cy="10.8182" r="0.5" fill="rgb(0,0,0)" />
<circle cx="6.41102" cy="10.5166" r="0.5" fill="rgb(0,0,0)" />
<circle cx="2.64591" cy="4.96377" r="0.5" fill="rgb(0,0,0)" />
<circle cx="14.8025" cy="11.1753" r="0.5" fill="rgb(0,0,0)" />
<circle cx="3.06288" cy="11.0032" r="0.5" fill="rgb(0,0,0)" />
<circle cx="4.82098" cy="10.7123" r="0.5" fill="rgb(0,0,0)" />
<circle cx="16.3145" cy="12.0636" r="0.5" fill="rgb(0,0,0)" />
<circle cx="12.7162" cy="12.4417" r="0.5" fill="rgb(0,0,0)" />
<circle cx="3.5477" cy="7.02964" r="0.5" fill="rgb(0,0,0)" />
<circle cx="13.3905" cy="10.4205" r="0.5" fill="rgb(0,0,0)" />
<circle cx="14.6669" cy="12.693" r="0.5" fill="rgb(0,0,0)" />
<circle cx="8.35976" cy="12.3871" r="0.5" fill="rgb(0,0,0)" />
<circle cx="4.34665" cy="5.70326" r="0.5" fill="rgb(0,0,0)" />
<circle cx="3.68547" cy="12.4937" r="0.5" fill="rgb(0,0,0)" />
<circle cx="10.7092" cy="13.4011" r="0.5" fill="rgb(0,0,0)" />
<circle cx="16.0222" cy="13.8583" r="0.5" fill="rgb(0,0,0)" />
<circle cx="15.4062" cy="2.39127" r="0.5" fill="rgb(0,0,0)" />
<circle cx="13.3401" cy="5.05699" r="0.5" fill="rgb(0,0,0)" />
<circle cx="14.0312" cy="13.922" r="0.5" fill="rgb(0,0,0)" />
<circle cx="1.1139" cy="11.4657" r="0.5" fill="rgb(0,0,0)" />
<circle cx="12.3859" cy="14.1031" r="0.5" fill="rgb(0,0,0)" />
<circle cx="11.4474" cy="11.0762" r="0.5" fill="rgb(0,0,0)" />
<circle cx="15.0494" cy="15.0812" r="0.5" fill="rgb(0,0,0)" />
<circle cx="8.30645" cy="14.3211" r="0.5" fill="rgb(0,0,0)" />
<circle cx="4.88487" cy="15.074" r="0.5" fill="rgb(0,0,0)" />
<circle cx="1.98057" cy="14.5358" r="0.5" fill="rgb(0,0,0)" />
<circle cx="6.01443" cy="6.67026" r="0.5" fill="rgb(0,0,0)" />
<circle cx="13.1997" cy="15.2608" r="0.5" fill="rgb(0,0,0)" />
<circle cx="17.7971" cy="14.9054" r="0.5" fill="rgb(0,0,0)" />
<circle cx="14.0965" cy="15.8373" r="0.5" fill="rgb(0,0,0)" />
<circle cx="13.9112" cy="1.81776" r="0.5" fill="rgb(0,0,0)" />
<circle cx="16.3987" cy="15.4061" r="0.5" fill="rgb(0,0,0)" />
<circle cx="5.93578" cy="15.5323" r="0.5" fill="rgb(0,0,0)" />
<circle cx="10.1307" cy="14.965" r="0.5" fill="rgb(0,0,0)" />
<circle cx="7.58636" cy="15.6408" r="0.5" fill="rgb(0,0,0)" />
<circle cx="11.3646" cy="15.5571" r="0.5" fill="rgb(0,0,0)" />
<circle cx="6.677" cy="16.4911" r="0.5" fill="rgb(0,0,0)" />
<circle cx="15.2761" cy="16.4963" r="0.5" fill="rgb(0,0,0)" />
<circle cx="18.235" cy="3.09646" r="0.5" fill="rgb(0,0,0)" />
<circle cx="12.2488" cy="16.4692" r="0.5" fill="rgb(0,0,0)" />
<circle cx="4.22279" cy="16.5028" r="0.5" fill="rgb(0,0,0)" />
<circle cx="13.847" cy="17.0341" r="0.5" fill="rgb(0,0,0)" />
<circle cx="16.5365" cy="16.9754" r="0.5" fill="rgb(0,0,0)" />
<circle cx="9.27244" cy="16.4617" r="0.5" fill="rgb(0,0,0)" />
<circle cx="5.58272" cy="17.2588" r="0.5" fill="rgb(0,0,0)" />
<circle cx="15.2589" cy="17.8001" r="0.5" fill="rgb(0,0,0)" />
<circle cx="14.9414" cy="0.643659" r="0.5" fill="rgb(0,0,0)" />
<circle cx="2.6437" cy="16.7025" r="0.5" fill="rgb(0,0,0)" />
<circle cx="8.2377" cy="17.5402" r="0.5" fill="rgb(0,0,0)" />
<circle cx="12.222" cy="17.7277" r="0.5" fill="rgb(0,0,0)" />
<circle cx="1.51283" cy="17.5562" r="0.5" fill="rgb(0,0,0)" />
<circle cx="7.04592" cy="17.771" r="0.5" fill="rgb(0,0,0)" />
<circle cx="5.46735" cy="13.6763" r="0.5" fill="rgb(0,0,0)" />
<circle cx="17.2155" cy="17.8908" r="0.5" fill="rgb(0,0,0)" />
<circle cx="18.2334" cy="6.46052" r="0.5" fill="rgb(0,0,0)" />
<circle cx="14.8427" cy="5.15762" r="0.5" fill="rgb(0,0,0)" />
<circle cx="18.3023" cy="4.86346" r="0.5" fill="rgb(0,0,0)" />
<circle cx="17.9184" cy="13.3709" r="0.5" fill="rgb(0,0,0)" />
<circle cx="17.9312" cy="11.3799" r="0.5" fill="rgb(0,0,0)" />
<circle cx="17.9453" cy="9.65983" r="0.5" fill="rgb(0,0,0)" />
<circle cx="18.2273" cy="8.11871" r="0.5" fill="rgb(0,0,0)" />
<circle cx="10.5277" cy="17.8214" r="0.5" fill="rgb(0,0,0)" />
<circle cx="12.6977" cy="18.5194" r="0.5" fill="rgb(0,0,0)" />
<circle cx="15.9528" cy="18.5357" r="0.5" fill="rgb(0,0,0)" />
<circle cx="14.169" cy="18.2937" r="0.5" fill="rgb(0,0,0)" />
<circle cx="4.39664" cy="18.139" r="0.5" fill="rgb(0,0,0)" />
<circle cx="0.960407" cy="13.2222" r="0.5" fill="rgb(0,0,0)" />
<circle cx="0.451371" cy="6.28998" r="0.5" fill="rgb(0,0,0)" />
<circle cx="0.637358" cy="4.00699" r="0.5" fill="rgb(0,0,0)" />
<circle cx="4.44639" cy="1.20287" r="0.5" fill="rgb(0,0,0)" />
<circle cx="3.47391" cy="14.7151" r="0.5" fill="rgb(0,0,0)" />
<circle cx="18.2421" cy="16.0043" r="0.5" fill="rgb(0,0,0)" />
<circle cx="0.695994" cy="15.7972" r="0.5" fill="rgb(0,0,0)" />
<circle cx="6.06124" cy="18.4784" r="0.5" fill="rgb(0,0,0)" />
<circle cx="3.50381" cy="2.33497" r="0.5" fill="rgb(0,0,0)" />
<circle cx="0.436532" cy="9.56931" r="0.5" fill="rgb(0,0,0)" />
<circle cx="5.33646" cy="0.414856" r="0.5" fill="rgb(0,0,0)" />
<circle cx="0.620008" cy="1.1458" r="0.5" fill="rgb(0,0,0)" />
<circle cx="2.63324" cy="0.607475" r="0.5" fill="rgb(0,0,0)" />
<circle cx="5.51161" cy="2.36076" r="0.5" fill="rgb(0,0,0)" />
<circle cx="6.64006" cy="3.66514" r="0.5" fill="rgb(0,0,0)" />
<circle cx="8.7452" cy="18.5018" r="0.5" fill="rgb(0,0,0)" />
<circle cx="2.88712" cy="18.3459" r="0.5" fill="rgb(0,0,0)" />
<circle cx="5.44122" cy="7.71883" r="0.5" fill="rgb(0,0,0)" />
<circle cx="10.116" cy="12.0626" r="0.5" fill="rgb(0,0,0)" />
<circle cx="6.50761" cy="12.4586" r="0.5" fill="rgb(0,0,0)" />
<circle cx="0.566797" cy="18.1506" r="0.5" fill="rgb(0,0,0)" />
<circle cx="18.1376" cy="18.5193" r="0.5" fill="rgb(0,0,0)" />
<circle cx="18.3535" cy="17.2965" r="0.5" fill="rgb(0,0,0)" />
</svg>
