<?xml version="1.0" ?>
<!DOCTYPE svg PUBLIC "-//W3C//DTD SVG 1.1//EN" "http://www.w3.org/Graphics/SVG/1.1/DTD/svg11.dtd">
<svg width="20" height="20" version="1.1" xmlns="http://www.w3.org/2000/svg">
<circle cx="15.4082" cy="0.498577" r="0.5" fill="rgb(0,0,0)" />
<circle cx="14.3263" cy="1.0021" r="0.5" fill="rgb(0,0,0)" />
<circle cx="5.68135" cy="1.45943" r="0.5" fill="rgb(0,0,0)" />
<circle cx="9.20913" cy="1.49571" r="0.5" fill="rgb(0,0,0)" />
<circle cx="16.2905" cy="1.77997" r="0.5" fill="rgb(0,0,0)" />
<circle cx="3.85645" cy="1.92344" r="0.5" fill="rgb(0,0,0)" />
<circle cx="2.00731" cy="2.04855" r="0.5" fill="rgb(0,0,0)" />
<circle cx="4.88069" cy="2.73801" r="0.5" fill="rgb(0,0,0)" />
<circle cx="18.4146" cy="0.597556" r="0.5" fill="rgb(0,0,0)" />
<circle cx="11.6473" cy="2.56323" r="0.5" fill="rgb(0,0,0)" />
<circle cx="14.4418" cy="3.1137" r="0.5" fill="rgb(0,0,0)" />
<circle cx="16.7865" cy="3.24581" r="0.5" fill="rgb(0,0,0)" />
<circle cx="9.3499" cy="3.02573" r="0.5" fill="rgb(0,0,0)" />
<circle cx="7.1353" cy="3.32866" r="0.5" fill="rgb(0,0,0)" />
<circle cx="15.4188" cy="2.49664" r="0.5" fill="rgb(0,0,0)" />
<circle cx="2.02396" cy="3.51659" r="0.5" fill="rgb(0,0,0)" />
<circle cx="13.2371" cy="3.68725" r="0.5" fill="rgb(0,0,0)" />
<circle cx="13.0353" cy="2.53758" r="0.5" fill="rgb(0,0,0)" />
<circle cx="16.2385" cy="4.42533" r="0.5" fill="rgb(0,0,0)" />
<circle cx="11.9367" cy="4.06647" r="0.5" fill="rgb(0,0,0)" />
<circle cx="5.32411" cy="4.7513" r="0.5" fill="rgb(0,0,0)" />
<circle cx="8.00705" cy="4.84056" r="0.5" fill="rgb(0,0,0)" />
<circle cx="16.8599" cy="5.32423" r="0.5" fill="rgb(0,0,0)" />
<circle cx="6.46106" cy="5.64761" r="0.5" fill="rgb(0,0,0)" />
<circle cx="12.7473" cy="0.481798" r="0.5" fill="rgb(0,0,0)" />
<circle cx="10.689" cy="4.90704" r="0.5" fill="rgb(0,0,0)" />
<circle cx="2.53569" cy="4.95751" r="0.5" fill="rgb(0,0,0)" />
<circle cx="15.675" cy="6.03074" r="0.5" fill="rgb(0,0,0)" />
<circle cx="1.86337" cy="6.06309" r="0.5" fill="rgb(0,0,0)" />
<circle cx="17.0591" cy="6.36002" r="0.5" fill="rgb(0,0,0)" />
<circle cx="9.0484" cy="6.31578" r="0.5" fill="rgb(0,0,0)" />
<circle cx="5.57756" cy="6.32523" r="0.5" fill="rgb(0,0,0)" />
<circle cx="10.2861" cy="6.84629" r="0.5" fill="rgb(0,0,0)" />
<circle cx="4.18407" cy="6.70236" r="0.5" fill="rgb(0,0,0)" />
<circle cx="14.1574" cy="5.70779" r="0.5" fill="rgb(0,0,0)" />
<circle cx="12.7927" cy="6.99937" r="0.5" fill="rgb(0,0,0)" />
<circle cx="3.08661" cy="7.0959" r="0.5" fill="rgb(0,0,0)" />
<circle cx="15.6689" cy="7.27401" r="0.5" fill="rgb(0,0,0)" />
<circle cx="13.9962" cy="4.50011" r="0.5" fill="rgb(0,0,0)" />
<circle cx="14.3283" cy="7.08727" r="0.5" fill="rgb(0,0,0)" />
<circle cx="6.48479" cy="7.68098" r="0.5" fill="rgb(0,0,0)" />
<circle cx="10.476" cy="2.41241" r="0.5" fill="rgb(0,0,0)" />
<circle cx="8.04655" cy="7.11837" r="0.5" fill="rgb(0,0,0)" />
<circle cx="4.92049" cy="7.61339" r="0.5" fill="rgb(0,0,0)" />
<circle cx="17.0813" cy="0.618823" r="0.5" fill="rgb(0,0,0)" />
<circle cx="11.3315" cy="6.98555" r="0.5" fill="rgb(0,0,0)" />
<circle cx="1.21708" cy="7.98244" r="0.5" fill="rgb(0,0,0)" />
<circle cx="7.52456" cy="8.10145" r="0.5" fill="rgb(0,0,0)" />
<circle cx="2.59924" cy="8.21477" r="0.5" fill="rgb(0,0,0)" />
<circle cx="9.09161" cy="7.88756" r="0.5" fill="rgb(0,0,0)" />
<circle cx="17.0364" cy="7.69229" r="0.5" fill="rgb(0,0,0)" />
<circle cx="12.2785" cy="1.52762" r="0.5" fill="rgb(0,0,0)" />
<circle cx="15.2801" cy="5.07416" r="0.5" fill="rgb(0,0,0)" />
<circle cx="10.278" cy="8.40141" r="0.5" fill="rgb(0,0,0)" />
<circle cx="3.85643" cy="8.60977" r="0.5" fill="rgb(0,0,0)" />
<circle cx="6.03038" cy="8.68632" r="0.5" fill="rgb(0,0,0)" />
<circle cx="7.02025" cy="1.25284" r="0.5" fill="rgb(0,0,0)" />
<circle cx="7.1425" cy="9.17773" r="0.5" fill="rgb(0,0,0)" />
<circle cx="15.1217" cy="8.67532" r="0.5" fill="rgb(0,0,0)" />
<circle cx="3.17025" cy="3.11462" r="0.5" fill="rgb(0,0,0)" />
<circle cx="13.5662" cy="8.41492" r="0.5" fill="rgb(0,0,0)" />
<circle cx="12.1831" cy="8.4628" r="0.5" fill="rgb(0,0,0)" />
<circle cx="3.70248" cy="9.66086" r="0.5" fill="rgb(0,0,0)" />
<circle cx="15.3318" cy="3.85337" r="0.5" fill="rgb(0,0,0)" />
<circle cx="9.71913" cy="9.4964" r="0.5" fill="rgb(0,0,0)" />
<circle cx="5.9295" cy="2.42006" r="0.5" fill="rgb(0,0,0)" />
<circle cx="14.2526" cy="9.61312" r="0.5" fill="rgb(0,0,0)" />
<circle cx="4.73267" cy="10.3366" r="0.5" fill="rgb(0,0,0)" />
<circle cx="11.3874" cy="9.36482" r="0.5" fill="rgb(0,0,0)" />
<circle cx="1.89815" cy="10.3022" r="0.5" fill="rgb(0,0,0)" />
<circle cx="7.64524" cy="10.3621" r="0.5" fill="rgb(0,0,0)" />
<circle cx="6.2794" cy="3.65453" r="0.5" fill="rgb(0,0,0)" />
<circle cx="4.15824" cy="5.47923" r="0.5" fill="rgb(0,0,0)" />
<circle cx="9.06505" cy="10.5668" r="0.5" fill="rgb(0,0,0)" />
<circle cx="3.23311" cy="10.7189" r="0.5" fill="rgb(0,0,0)" />
<circle cx="6.21516" cy="10.4856" r="0.5" fill="rgb(0,0,0)" />
<circle cx="13.5381" cy="10.695" r="0.5" fill="rgb(0,0,0)" />
<circle cx="12.263" cy="10.8088" r="0.5" fill="rgb(0,0,0)" />
<circle cx="10.7793" cy="10.9444" r="0.5" fill="rgb(0,0,0)" />
<circle cx="4.50795" cy="11.6668" r="0.5" fill="rgb(0,0,0)" />
<circle cx="6.65482" cy="6.84029" r="0.5" fill="rgb(0,0,0)" />
<circle cx="16.2279" cy="12.003" r="0.5" fill="rgb(0,0,0)" />
<circle cx="7.72758" cy="12.004" r="0.5" fill="rgb(0,0,0)" />
<circle cx="14.8075" cy="12.4626" r="0.5" fill="rgb(0,0,0)" />
<circle cx="15.0016" cy="11.0411" r="0.5" fill="rgb(0,0,0)" />
<circle cx="2.65685" cy="12.0989" r="0.5" fill="rgb(0,0,0)" />
<circle cx="13.4699" cy="12.4784" r="0.5" fill="rgb(0,0,0)" />
<circle cx="5.01453" cy="9.10584" r="0.5" fill="rgb(0,0,0)" />
<circle cx="10.2791" cy="12.3144" r="0.5" fill="rgb(0,0,0)" />
<circle cx="18.0029" cy="1.87948" r="0.5" fill="rgb(0,0,0)" />
<circle cx="1.64821" cy="7.14186" r="0.5" fill="rgb(0,0,0)" />
<circle cx="9.06969" cy="12.2396" r="0.5" fill="rgb(0,0,0)" />
<circle cx="12.1372" cy="12.8376" r="0.5" fill="rgb(0,0,0)" />
<circle cx="8.57853" cy="3.79352" r="0.5" fill="rgb(0,0,0)" />
<circle cx="10.5868" cy="13.3901" r="0.5" fill="rgb(0,0,0)" />
<circle cx="4.25601" cy="13.2346" r="0.5" fill="rgb(0,0,0)" />
<circle cx="8.19326" cy="0.514421" r="0.5" fill="rgb(0,0,0)" />
<circle cx="16.5255" cy="13.5841" r="0.5" fill="rgb(0,0,0)" />
<circle cx="2.8367" cy="9.75067" r="0.5" fill="rgb(0,0,0)" />
<circle cx="14.0289" cy="14.0981" r="0.5" fill="rgb(0,0,0)" />
<circle cx="9.73529" cy="5.36126" r="0.5" fill="rgb(0,0,0)" />
<circle cx="16.4182" cy="10.234" r="0.5" fill="rgb(0,0,0)" />
<circle cx="2.00421" cy="13.8454" r="0.5" fill="rgb(0,0,0)" />
<circle cx="15.5086" cy="14.4771" r="0.5" fill="rgb(0,0,0)" />
<circle cx="12.6048" cy="14.2002" r="0.5" fill="rgb(0,0,0)" />
<circle cx="3.51681" cy="14.4538" r="0.5" fill="rgb(0,0,0)" />
<circle cx="6.00387" cy="0.412922" r="0.5" fill="rgb(0,0,0)" />
<circle cx="8.95476" cy="14.5665" r="0.5" fill="rgb(0,0,0)" />
<circle cx="4.992" cy="15.0091" r="0.5" fill="rgb(0,0,0)" />
<circle cx="4.06052" cy="3.55279" r="0.5" fill="rgb(0,0,0)" />
<circle cx="13.2919" cy="15.2093" r="0.5" fill="rgb(0,0,0)" />
<circle cx="11.6854" cy="15.18" r="0.5" fill="rgb(0,0,0)" />
<circle cx="7.34238" cy="15.5486" r="0.5" fill="rgb(0,0,0)" />
<circle cx="13.992" cy="2.04989" r="0.5" fill="rgb(0,0,0)" />
<circle cx="10.3871" cy="3.79532" r="0.5" fill="rgb(0,0,0)" />
<circle cx="16.3528" cy="15.4293" r="0.5" fill="rgb(0,0,0)" />
<circle cx="5.78981" cy="15.8929" r="0.5" fill="rgb(0,0,0)" />
<circle cx="0.672704" cy="5.17824" r="0.5" fill="rgb(0,0,0)" />
<circle cx="4.26117" cy="0.635748" r="0.5" fill="rgb(0,0,0)" />
<circle cx="2.55656" cy="9.18975" r="0.5" fill="rgb(0,0,0)" />
<circle cx="4.22714" cy="15.8676" r="0.5" fill="rgb(0,0,0)" />
<circle cx="6.63106" cy="16.4866" r="0.5" fill="rgb(0,0,0)" />
<circle cx="1.90614" cy="16.358" r="0.5" fill="rgb(0,0,0)" />
<circle cx="3.27008" cy="16.066" r="0.5" fill="rgb(0,0,0)" />
<circle cx="9.27648" cy="16.0606" r="0.5" fill="rgb(0,0,0)" />
<circle cx="15.1799" cy="16.5435" r="0.5" fill="rgb(0,0,0)" />
<circle cx="4.54128" cy="16.8514" r="0.5" fill="rgb(0,0,0)" />
<circle cx="14.1174" cy="17.0092" r="0.5" fill="rgb(0,0,0)" />
<circle cx="2.217" cy="15.3336" r="0.5" fill="rgb(0,0,0)" />
<circle cx="1.36786" cy="17.1549" r="0.5" fill="rgb(0,0,0)" />
<circle cx="16.3777" cy="16.8771" r="0.5" fill="rgb(0,0,0)" />
<circle cx="10.9522" cy="16.6636" r="0.5" fill="rgb(0,0,0)" />
<circle cx="17.683" cy="17.1865" r="0.5" fill="rgb(0,0,0)" />
<circle cx="7.80266" cy="16.9531" r="0.5" fill="rgb(0,0,0)" />
<circle cx="5.65008" cy="17.3065" r="0.5" fill="rgb(0,0,0)" />
<circle cx="12.9113" cy="17.4419" r="0.5" fill="rgb(0,0,0)" />
<circle cx="17.578" cy="15.0813" r="0.5" fill="rgb(0,0,0)" />
<circle cx="2.89147" cy="17.3463" r="0.5" fill="rgb(0,0,0)" />
<circle cx="1.69855" cy="17.8702" r="0.5" fill="rgb(0,0,0)" />
<circle cx="12.5695" cy="16.3461" r="0.5" fill="rgb(0,0,0)" />
<circle cx="9.08563" cy="17.3462" r="0.5" fill="rgb(0,0,0)" />
<circle cx="6.44796" cy="4.76312" r="0.5" fill="rgb(0,0,0)" />
<circle cx="15.4749" cy="17.8742" r="0.5" fill="rgb(0,0,0)" />
<circle cx="6.75388" cy="17.7304" r="0.5" fill="rgb(0,0,0)" />
<circle cx="8.2476" cy="18.0234" r="0.5" fill="rgb(0,0,0)" />
<circle cx="18.2978" cy="3.08627" r="0.5" fill="rgb(0,0,0)" />
<circle cx="14.2813" cy="18.0651" r="0.5" fill="rgb(0,0,0)" />
<circle cx="15.0664" cy="13.4906" r="0.5" fill="rgb(0,0,0)" />
<circle cx="0.653271" cy="3.5153" r="0.5" fill="rgb(0,0,0)" />
<circle cx="4.5041" cy="18.0897" r="0.5" fill="rgb(0,0,0)" />
<circle cx="17.9639" cy="11.472" r="0.5" fill="rgb(0,0,0)" />
<circle cx="7.58017" cy="6.04679" r="0.5" fill="rgb(0,0,0)" />
<circle cx="16.722" cy="18.223" r="0.5" fill="rgb(0,0,0)" />
<circle cx="16.5785" cy="8.74462" r="0.5" fill="rgb(0,0,0)" />
<circle cx="18.0895" cy="9.5851" r="0.5" fill="rgb(0,0,0)" />
<circle cx="15.008" cy="15.3119" r="0.5" fill="rgb(0,0,0)" />
<circle cx="18.3604" cy="8.13647" r="0.5" fill="rgb(0,0,0)" />
<circle cx="12.3561" cy="5.51733" r="0.5" fill="rgb(0,0,0)" />
<circle cx="18.387" cy="6.00121" r="0.5" fill="rgb(0,0,0)" />
<circle cx="18.1781" cy="7.00535" r="0.5" fill="rgb(0,0,0)" />
<circle cx="0.95623" cy="11.2889" r="0.5" fill="rgb(0,0,0)" />
<circle cx="10.5497" cy="14.8142" r="0.5" fill="rgb(0,0,0)" />
<circle cx="18.4069" cy="4.8248" r="0.5" fill="rgb(0,0,0)" />
<circle cx="10.0345" cy="18.1367" r="0.5" fill="rgb(0,0,0)" />
<circle cx="18.0733" cy="13.3928" r="0.5" fill="rgb(0,0,0)" />
<circle cx="17.5801" cy="4.27713" r="0.5" fill="rgb(0,0,0)" />
<circle cx="0.621357" cy="14.9024" r="0.5" fill="rgb(0,0,0)" />
<circle cx="0.502137" cy="16.6019" r="0.5" fill="rgb(0,0,0)" />
<circle cx="5.23302" cy="3.66857" r="0.5" fill="rgb(0,0,0)" />
<circle cx="6.01025" cy="14.0518" r="0.5" fill="rgb(0,0,0)" />
<circle cx="0.462179" cy="6.80314" r="0.5" fill="rgb(0,0,0)" />
<circle cx="0.465606" cy="10.0917" r="0.5" fill="rgb(0,0,0)" />
<circle cx="7.81366" cy="2.32768" r="0.5" fill="rgb(0,0,0)" />
<circle cx="3.9476" cy="4.48144" r="0.5" fill="rgb(0,0,0)" />
<circle cx="0.737998" cy="12.8239" r="0.5" fill="rgb(0,0,0)" />
<circle cx="0.431122" cy="8.63228" r="0.5" fill="rgb(0,0,0)" />
<circle cx="7.72859" cy="13.8437" r="0.5" fill="rgb(0,0,0)" />
<circle cx="11.5938" cy="18.1687" r="0.5" fill="rgb(0,0,0)" />
<circle cx="10.572" cy="0.636637" r="0.5" fill="rgb(0,0,0)" />
<circle cx="18.3899" cy="15.8152" r="0.5" fill="rgb(0,0,0)" />
<circle cx="15.1739" cy="18.6532" r="0.5" fill="rgb(0,0,0)" />
<circle cx="13.1886" cy="18.4919" r="0.5" fill="rgb(0,0,0)" />
<circle cx="3.31763" cy="18.4352" r="0.5" fill="rgb(0,0,0)" />
<circle cx="6.14615" cy="12.3586" r="0.5" fill="rgb(0,0,0)" />
<circle cx="8.05298" cy="18.6407" r="0.5" fill="rgb(0,0,0)" />
<circle cx="6.0512" cy="18.5083" r="0.5" fill="rgb(0,0,0)" />
<circle cx="1.4886" cy="9.14322" r="0.5" fill="rgb(0,0,0)" />
<circle cx="0.550387" cy="1.29744" r="0.5" fill="rgb(0,0,0)" />
<circle cx="8.43545" cy="9.03782" r="0.5" fill="rgb(0,0,0)" />
<circle cx="2.1144" cy="0.581765" r="0.5" fill="rgb(0,0,0)" />
<circle cx="14.1172" cy="15.8008" r="0.5" fill="rgb(0,0,0)" />
<circle cx="1.65358" cy="18.605" r="0.5" fill="rgb(0,0,0)" />
<circle cx="0.429356" cy="18.1739" r="0.5" fill="rgb(0,0,0)" />
<circle cx="18.1207" cy="18.5211" r="0.5" fill="rgb(0,0,0)" />
<circle cx="18.5934" cy="17.5068" r="0.5" fill="rgb(0,0,0)" />
</svg>
